<svg width="296" height="176" viewBox="0 0 296 176" fill="none" xmlns="http://www.w3.org/2000/svg">
<path d="M152.936 67.8225C151.697 67.3953 150.352 67.3857 149.107 67.795L76.5 91.6641L16.9145 111.136C11.4536 112.921 11.3817 120.621 16.8082 122.507L149.035 168.472C150.324 168.92 151.727 168.915 153.013 168.458L280.075 123.321C285.398 121.43 285.397 113.902 280.073 112.013L265 106.664L225 92.6641L152.936 67.8225Z" fill="#9C7DF5"/>
<path d="M152.936 67.8225C151.697 67.3953 150.352 67.3857 149.107 67.795L76.5 91.6641L16.9145 111.136C11.4536 112.921 11.3817 120.621 16.8082 122.507L149.035 168.472C150.324 168.92 151.727 168.915 153.013 168.458L280.075 123.321C285.398 121.43 285.397 113.902 280.073 112.013L265 106.664L225 92.6641L152.936 67.8225Z" fill="#9C7DF5"/>
<path d="M152.936 67.8225C151.697 67.3953 150.352 67.3857 149.107 67.795L76.5 91.6641L16.9145 111.136C11.4536 112.921 11.3817 120.621 16.8082 122.507L149.035 168.472C150.324 168.92 151.727 168.915 153.013 168.458L280.075 123.321C285.398 121.43 285.397 113.902 280.073 112.013L265 106.664L225 92.6641L152.936 67.8225Z" fill="#8420D1"/>
<path d="M115.5 146.664L150.592 157.874C151.183 158.063 151.817 158.064 152.409 157.877L161 155.164L278.2 116.876C280.914 115.989 280.972 112.17 278.287 111.202L151.061 65.3159C150.414 65.0825 149.706 65.0786 149.056 65.305L24.0306 108.866C21.3577 109.797 21.343 113.572 24.0086 114.524L79 134.164L115.5 146.664Z" fill="#9C7DF5"/>
<path d="M115.5 146.664L150.592 157.874C151.183 158.063 151.817 158.064 152.409 157.877L161 155.164L278.2 116.876C280.914 115.989 280.972 112.17 278.287 111.202L151.061 65.3159C150.414 65.0825 149.706 65.0786 149.056 65.305L24.0306 108.866C21.3577 109.797 21.343 113.572 24.0086 114.524L79 134.164L115.5 146.664Z" fill="#9C7DF5"/>
<path d="M115.5 146.664L150.592 157.874C151.183 158.063 151.817 158.064 152.409 157.877L161 155.164L278.2 116.876C280.914 115.989 280.972 112.17 278.287 111.202L151.061 65.3159C150.414 65.0825 149.706 65.0786 149.056 65.305L24.0306 108.866C21.3577 109.797 21.343 113.572 24.0086 114.524L79 134.164L115.5 146.664Z" fill="#7421B4"/>
<path d="M76 3H208.5L229.5 114H94L76 3Z" fill="white"/>
<path d="M71.1795 9.47549C71.0683 8.77437 71.3371 8.06685 71.8858 7.6164L81.1628 0L77.2407 3.21998C76.6888 3.67314 76.4203 4.38622 76.5364 5.09087L93.9087 110.541C93.9684 110.904 93.9272 111.276 93.7894 111.616L91.8869 116.321C91.1269 118.2 88.375 117.887 88.0574 115.885L71.1795 9.47549Z" fill="#E7E7E7"/>
<path d="M76.7125 4.27256C76.8748 2.19027 78.6118 0.583329 80.7004 0.583324L204.575 0.583016C206.546 0.583011 208.224 2.01926 208.527 3.96708L209 6.99967H76.5L76.7125 4.27256Z" fill="#7F1FE8"/>
<path d="M142.425 26.5566C141.37 26.594 140.467 25.8042 140.364 24.753L139.985 20.885C139.871 19.7289 140.763 18.7197 141.925 18.6904L204.847 17.1026C205.911 17.0758 206.81 17.8869 206.892 18.9481L207.141 22.1791C207.229 23.3129 206.354 24.2914 205.218 24.3317L142.425 26.5566Z" fill="#E7E7E7"/>
<path d="M142.425 26.5566C141.37 26.594 140.467 25.8042 140.364 24.753L139.985 20.885C139.871 19.7289 140.763 18.7197 141.925 18.6904L204.847 17.1026C205.911 17.0758 206.81 17.8869 206.892 18.9481L207.141 22.1791C207.229 23.3129 206.354 24.2914 205.218 24.3317L142.425 26.5566Z" fill="#E7E7E7"/>
<path d="M150.425 78.8642C149.37 78.9016 148.467 78.1118 148.364 77.0607L147.985 73.1926C147.871 72.0365 148.763 71.0274 149.925 70.9981L212.847 69.4102C213.911 69.3834 214.81 70.1945 214.892 71.2557L215.141 74.4867C215.229 75.6205 214.354 76.599 213.218 76.6393L150.425 78.8642Z" fill="#E7E7E7"/>
<path d="M150.425 78.8642C149.37 78.9016 148.467 78.1118 148.364 77.0607L147.985 73.1926C147.871 72.0365 148.763 71.0274 149.925 70.9981L212.847 69.4102C213.911 69.3834 214.81 70.1945 214.892 71.2557L215.141 74.4867C215.229 75.6205 214.354 76.599 213.218 76.6393L150.425 78.8642Z" fill="#E7E7E7"/>
<path d="M155.68 35.0581C154.747 35.1071 153.904 34.5029 153.65 33.6031L153.389 32.6765C153.04 31.4359 153.938 30.1936 155.225 30.1362L204.751 27.9283C205.698 27.8861 206.544 28.5145 206.778 29.4331L206.915 29.9704C207.226 31.1929 206.341 32.3946 205.081 32.4609L155.68 35.0581Z" fill="#F5F5F5"/>
<path d="M156.704 42.518C155.771 42.5671 154.928 41.9629 154.674 41.063L154.413 40.1364C154.064 38.8959 154.962 37.6535 156.249 37.5961L205.774 35.3883C206.721 35.3461 207.568 35.9744 207.802 36.8931L207.938 37.4304C208.249 38.6529 207.365 39.8546 206.105 39.9208L156.704 42.518Z" fill="#F5F5F5"/>
<path d="M157.728 49.978C156.794 50.0271 155.951 49.4228 155.698 48.523L155.437 47.5964C155.087 46.3558 155.985 45.1135 157.273 45.0561L206.798 42.8482C207.745 42.806 208.592 43.4344 208.825 44.3531L208.962 44.8903C209.273 46.1129 208.389 47.3146 207.129 47.3808L157.728 49.978Z" fill="#F5F5F5"/>
<path d="M158.778 97.4412C157.764 97.475 156.885 96.7447 156.733 95.7419L154.837 83.2247C154.657 82.0411 155.551 80.9661 156.748 80.9262L212.722 79.0603C213.736 79.0265 214.614 79.7568 214.766 80.7595L216.663 93.2764C216.842 94.46 215.949 95.535 214.752 95.5749L158.778 97.4412Z" fill="#F5F5F5"/>
<path d="M158.752 57.4379C157.818 57.487 156.975 56.8828 156.722 55.983L156.461 55.0563C156.111 53.8158 157.009 52.5735 158.297 52.5161L207.822 50.3082C208.769 50.266 209.615 50.8944 209.849 51.813L209.986 52.3503C210.297 53.5728 209.412 54.7745 208.153 54.8407L158.752 57.4379Z" fill="#F5F5F5"/>
<path d="M89.1499 117.52C88.228 117.513 87.8059 116.368 88.5026 115.764L94 111L229.388 113.114L229.903 114.037L226.996 118.564L89.1499 117.52Z" fill="#E7E7E7"/>
<path d="M89.1499 117.52C88.228 117.513 87.8059 116.368 88.5026 115.764L94 111L229.388 113.114L229.903 114.037L226.996 118.564L89.1499 117.52Z" fill="#E7E7E7"/>
<circle cx="195" cy="4" r="1" fill="#F34C4C"/>
<ellipse cx="147" cy="32.5" rx="3" ry="2.5" fill="#F5F5F5"/>
<ellipse cx="148" cy="40.5" rx="3" ry="2.5" fill="#F5F5F5"/>
<ellipse cx="149" cy="48.5" rx="3" ry="2.5" fill="#F5F5F5"/>
<ellipse cx="150" cy="56.5" rx="3" ry="2.5" fill="#F5F5F5"/>
<circle cx="198" cy="4" r="1" fill="#F5DF16"/>
<circle cx="201" cy="4" r="1" fill="#00D957"/>
<g clip-path="url(#clip0_1227_85)">
<path d="M133.409 37.6276C130.655 35.498 127.709 33.8706 124.572 32.7454C121.436 31.6203 118.143 31.2218 114.695 31.55C113.632 31.6511 112.618 31.8117 111.653 32.0316C110.688 32.2516 109.886 32.5059 109.247 32.7945L105.806 30.0041C107.028 29.4323 108.366 28.949 109.822 28.5543C111.277 28.1595 112.781 27.8882 114.333 27.7406C118.355 27.3578 122.219 27.8158 125.923 29.1147C129.627 30.4136 132.943 32.2763 135.871 34.7026L133.409 37.6276ZM126.806 45.4739C125.772 44.6612 124.841 44.0166 124.012 43.5402C123.184 43.0638 122.141 42.615 120.883 42.1937L115.558 37.8743C118.293 37.671 120.752 37.9922 122.934 38.838C125.117 39.6838 127.228 40.9208 129.267 42.549L126.806 45.4739ZM131.285 57.3481L112.716 42.2876C111.199 42.8021 109.826 43.5307 108.597 44.4734C107.367 45.4161 106.311 46.4278 105.428 47.5084L102.459 45.1002C103.423 43.955 104.435 42.9333 105.494 42.0352C106.554 41.1371 107.845 40.3025 109.366 39.5313L104.135 35.2884C102.846 36.0659 101.641 36.9565 100.518 37.9602C99.3961 38.9639 98.3778 39.9933 97.4635 41.0484L94.4944 38.6403C95.4294 37.4978 96.443 36.419 97.5352 35.4039C98.6273 34.3888 99.7603 33.498 100.934 32.7314L96.5983 29.2147L98.2784 27.2183L132.965 55.3517L131.285 57.3481ZM117.116 56.9881L110.137 51.2885C110.892 50.3909 111.787 49.658 112.82 49.0899C113.853 48.5218 115.002 48.1775 116.266 48.0572C117.53 47.9369 118.723 48.0583 119.845 48.4213C120.967 48.7844 121.983 49.3354 122.895 50.0744L117.116 56.9881Z" fill="#9620F1"/>
</g>
<rect x="155" y="64.8145" width="55.4391" height="0.404361" transform="rotate(-2.90954 155 64.8145)" fill="#D7D7D7"/>
<path d="M80.73 75.1276C79.354 70.0421 83.184 65.0381 88.4523 65.0381H130.033C133.838 65.0381 137.116 67.7181 137.873 71.447L141.74 90.5028C142.746 95.4594 138.957 100.094 133.9 100.094H93.6084C89.9949 100.094 86.8299 97.6715 85.8861 94.1834L80.73 75.1276Z" fill="#E7E7E7"/>
<path d="M82.0437 73.1051C80.6677 68.0196 84.4977 63.0156 89.766 63.0156H131.346C135.151 63.0156 138.43 65.6956 139.187 69.4246L143.054 88.4804C144.06 93.4369 140.271 98.0714 135.213 98.0714H94.9221C91.3086 98.0714 88.1437 95.649 87.1998 92.1609L82.0437 73.1051Z" fill="white"/>
<g filter="url(#filter0_d_1227_85)">
<path d="M87.6355 63.2528C87.8761 63.1497 88.135 63.095 88.3974 63.0919L136.155 62.5255C137.063 62.5147 137.867 63.1161 138.115 63.9905L138.974 67.0249L82.5 67.5967L84.5 64.5967L87.6355 63.2528Z" fill="#7F1FE8"/>
</g>
<path d="M99.792 84.2047C99.176 84.2047 98.616 84.0647 98.112 83.7847C97.616 83.5047 97.224 83.1087 96.936 82.5967C96.656 82.0767 96.516 81.4767 96.516 80.7967C96.516 80.1247 96.66 79.5327 96.948 79.0207C97.244 78.5007 97.644 78.1047 98.148 77.8327C98.652 77.5527 99.216 77.4127 99.84 77.4127C100.464 77.4127 101.028 77.5527 101.532 77.8327C102.036 78.1047 102.432 78.4967 102.72 79.0087C103.016 79.5207 103.164 80.1167 103.164 80.7967C103.164 81.4767 103.012 82.0767 102.708 82.5967C102.412 83.1087 102.008 83.5047 101.496 83.7847C100.984 84.0647 100.416 84.2047 99.792 84.2047ZM99.792 83.2447C100.184 83.2447 100.552 83.1527 100.896 82.9687C101.24 82.7847 101.516 82.5087 101.724 82.1407C101.94 81.7727 102.048 81.3247 102.048 80.7967C102.048 80.2687 101.944 79.8207 101.736 79.4527C101.528 79.0847 101.256 78.8127 100.92 78.6367C100.584 78.4527 100.22 78.3607 99.828 78.3607C99.428 78.3607 99.06 78.4527 98.724 78.6367C98.396 78.8127 98.132 79.0847 97.932 79.4527C97.732 79.8207 97.632 80.2687 97.632 80.7967C97.632 81.3327 97.728 81.7847 97.92 82.1527C98.12 82.5207 98.384 82.7967 98.712 82.9807C99.04 83.1567 99.4 83.2447 99.792 83.2447ZM107.276 78.4207H105.896V84.0967H104.804V78.4207H103.952V77.5207H104.804V77.0527C104.804 76.3167 104.992 75.7807 105.368 75.4447C105.752 75.1007 106.364 74.9287 107.204 74.9287V75.8407C106.724 75.8407 106.384 75.9367 106.184 76.1287C105.992 76.3127 105.896 76.6207 105.896 77.0527V77.5207H107.276V78.4207ZM111.225 78.4207H109.845V84.0967H108.753V78.4207H107.901V77.5207H108.753V77.0527C108.753 76.3167 108.941 75.7807 109.317 75.4447C109.701 75.1007 110.313 74.9287 111.153 74.9287V75.8407C110.673 75.8407 110.333 75.9367 110.133 76.1287C109.941 76.3127 109.845 76.6207 109.845 77.0527V77.5207H111.225V78.4207ZM113.59 75.2167V84.0967H112.498V75.2167H113.59ZM116.015 76.4527C115.807 76.4527 115.631 76.3807 115.487 76.2367C115.343 76.0927 115.271 75.9167 115.271 75.7087C115.271 75.5007 115.343 75.3247 115.487 75.1807C115.631 75.0367 115.807 74.9647 116.015 74.9647C116.215 74.9647 116.383 75.0367 116.519 75.1807C116.663 75.3247 116.735 75.5007 116.735 75.7087C116.735 75.9167 116.663 76.0927 116.519 76.2367C116.383 76.3807 116.215 76.4527 116.015 76.4527ZM116.543 77.5207V84.0967H115.451V77.5207H116.543ZM121.608 77.4007C122.408 77.4007 123.056 77.6447 123.552 78.1327C124.048 78.6127 124.296 79.3087 124.296 80.2207V84.0967H123.216V80.3767C123.216 79.7207 123.052 79.2207 122.724 78.8767C122.396 78.5247 121.948 78.3487 121.38 78.3487C120.804 78.3487 120.344 78.5287 120 78.8887C119.664 79.2487 119.496 79.7727 119.496 80.4607V84.0967H118.404V77.5207H119.496V78.4567C119.712 78.1207 120.004 77.8607 120.372 77.6767C120.748 77.4927 121.16 77.4007 121.608 77.4007ZM132.08 80.5567C132.08 80.7647 132.068 80.9847 132.044 81.2167H126.788C126.828 81.8647 127.048 82.3727 127.448 82.7407C127.856 83.1007 128.348 83.2807 128.924 83.2807C129.396 83.2807 129.788 83.1727 130.1 82.9567C130.42 82.7327 130.644 82.4367 130.772 82.0687H131.948C131.772 82.7007 131.42 83.2167 130.892 83.6167C130.364 84.0087 129.708 84.2047 128.924 84.2047C128.3 84.2047 127.74 84.0647 127.244 83.7847C126.756 83.5047 126.372 83.1087 126.092 82.5967C125.812 82.0767 125.672 81.4767 125.672 80.7967C125.672 80.1167 125.808 79.5207 126.08 79.0087C126.352 78.4967 126.732 78.1047 127.22 77.8327C127.716 77.5527 128.284 77.4127 128.924 77.4127C129.548 77.4127 130.1 77.5487 130.58 77.8207C131.06 78.0927 131.428 78.4687 131.684 78.9487C131.948 79.4207 132.08 79.9567 132.08 80.5567ZM130.952 80.3287C130.952 79.9127 130.86 79.5567 130.676 79.2607C130.492 78.9567 130.24 78.7287 129.92 78.5767C129.608 78.4167 129.26 78.3367 128.876 78.3367C128.324 78.3367 127.852 78.5127 127.46 78.8647C127.076 79.2167 126.856 79.7047 126.8 80.3287H130.952Z" fill="#CECECE"/>
<circle cx="135" cy="65" r="1" fill="#00D957"/>
<circle cx="132" cy="65" r="1" fill="#F5DF16"/>
<circle cx="129" cy="65" r="1" fill="#F34C4C"/>
<defs>
<filter id="filter0_d_1227_85" x="81.5" y="62.5254" width="58.4737" height="7.07129" filterUnits="userSpaceOnUse" color-interpolation-filters="sRGB">
<feFlood flood-opacity="0" result="BackgroundImageFix"/>
<feColorMatrix in="SourceAlpha" type="matrix" values="0 0 0 0 0 0 0 0 0 0 0 0 0 0 0 0 0 0 127 0" result="hardAlpha"/>
<feOffset dy="1"/>
<feGaussianBlur stdDeviation="0.5"/>
<feComposite in2="hardAlpha" operator="out"/>
<feColorMatrix type="matrix" values="0 0 0 0 0.552941 0 0 0 0 0.180392 0 0 0 0 0.956863 0 0 0 0.27 0"/>
<feBlend mode="normal" in2="BackgroundImageFix" result="effect1_dropShadow_1227_85"/>
<feBlend mode="normal" in="SourceGraphic" in2="effect1_dropShadow_1227_85" result="shape"/>
</filter>
<clipPath id="clip0_1227_85">
<rect width="41.5631" height="40.8169" fill="white" transform="translate(93 22.9375) rotate(-5.43626)"/>
</clipPath>
</defs>
</svg>
