<svg width="300" height="300" viewBox="0 0 300 300" fill="none" xmlns="http://www.w3.org/2000/svg">
<circle cx="150" cy="150" r="150" fill="#EAE8FF"/>
<rect x="56" y="88.1895" width="161.805" height="127.649" rx="10" fill="#F5F5F5" stroke="black" stroke-width="4"/>
<path d="M66 87.6895H207.805C213.604 87.6895 218.305 92.3905 218.305 98.1895V116.383H55.5V98.1895C55.5 92.3905 60.201 87.6895 66 87.6895Z" fill="#822DC4" stroke="black" stroke-width="3"/>
<mask id="path-4-inside-1_1302_235" fill="white">
<rect x="69.1793" y="123.978" width="25.688" height="19.5035" rx="2"/>
</mask>
<rect x="69.1793" y="123.978" width="25.688" height="19.5035" rx="2" stroke="black" stroke-width="6" mask="url(#path-4-inside-1_1302_235)"/>
<mask id="path-5-inside-2_1302_235" fill="white">
<rect x="69.1793" y="152.014" width="25.688" height="19.5035" rx="2"/>
</mask>
<rect x="69.1793" y="152.014" width="25.688" height="19.5035" rx="2" stroke="black" stroke-width="6" mask="url(#path-5-inside-2_1302_235)"/>
<mask id="path-6-inside-3_1302_235" fill="white">
<rect x="69.1793" y="180.051" width="25.688" height="19.5035" rx="2"/>
</mask>
<rect x="69.1793" y="180.051" width="25.688" height="19.5035" rx="2" stroke="black" stroke-width="6" mask="url(#path-6-inside-3_1302_235)"/>
<mask id="path-7-inside-4_1302_235" fill="white">
<rect x="105.376" y="123.978" width="25.688" height="19.5035" rx="2"/>
</mask>
<rect x="105.376" y="123.978" width="25.688" height="19.5035" rx="2" stroke="black" stroke-width="6" mask="url(#path-7-inside-4_1302_235)"/>
<mask id="path-8-inside-5_1302_235" fill="white">
<rect x="105.376" y="152.014" width="25.688" height="19.5035" rx="2"/>
</mask>
<rect x="105.376" y="152.014" width="25.688" height="19.5035" rx="2" stroke="black" stroke-width="6" mask="url(#path-8-inside-5_1302_235)"/>
<mask id="path-9-inside-6_1302_235" fill="white">
<rect x="105.376" y="180.051" width="25.688" height="19.5035" rx="2"/>
</mask>
<rect x="105.376" y="180.051" width="25.688" height="19.5035" rx="2" stroke="black" stroke-width="6" mask="url(#path-9-inside-6_1302_235)"/>
<mask id="path-10-inside-7_1302_235" fill="white">
<rect x="141.573" y="123.978" width="25.688" height="19.5035" rx="2"/>
</mask>
<rect x="141.573" y="123.978" width="25.688" height="19.5035" rx="2" stroke="black" stroke-width="6" mask="url(#path-10-inside-7_1302_235)"/>
<mask id="path-11-inside-8_1302_235" fill="white">
<rect x="141.573" y="152.014" width="25.688" height="19.5035" rx="2"/>
</mask>
<rect x="141.573" y="152.014" width="25.688" height="19.5035" rx="2" stroke="black" stroke-width="6" mask="url(#path-11-inside-8_1302_235)"/>
<mask id="path-12-inside-9_1302_235" fill="white">
<rect x="141.573" y="180.051" width="25.688" height="19.5035" rx="2"/>
</mask>
<rect x="141.573" y="180.051" width="25.688" height="19.5035" rx="2" stroke="black" stroke-width="6" mask="url(#path-12-inside-9_1302_235)"/>
<mask id="path-13-inside-10_1302_235" fill="white">
<rect x="177.77" y="123.978" width="25.688" height="19.5035" rx="2"/>
</mask>
<rect x="177.77" y="123.978" width="25.688" height="19.5035" rx="2" stroke="black" stroke-width="6" mask="url(#path-13-inside-10_1302_235)"/>
<mask id="path-14-inside-11_1302_235" fill="white">
<rect x="177.77" y="152.014" width="25.688" height="19.5035" rx="2"/>
</mask>
<rect x="177.77" y="152.014" width="25.688" height="19.5035" rx="2" stroke="black" stroke-width="6" mask="url(#path-14-inside-11_1302_235)"/>
<rect x="94.6997" y="75" width="12.0117" height="28.4742" rx="3" fill="#D9D9D9" stroke="black" stroke-width="2"/>
<rect x="129.729" y="75" width="12.0117" height="28.4742" rx="3" fill="#D9D9D9" stroke="black" stroke-width="2"/>
<rect x="164.758" y="75" width="12.0117" height="28.4742" rx="3" fill="#D9D9D9" stroke="black" stroke-width="2"/>
<rect width="5.0822" height="23.9144" rx="2" transform="matrix(0.770311 0.637669 -0.640468 0.767985 160.509 119.112)" fill="#ED1C24"/>
<rect width="5.03931" height="24.1183" rx="2" transform="matrix(0.766954 -0.641702 0.646813 0.762649 145.076 122.336)" fill="#ED1C24"/>
<rect width="4.8047" height="16.4716" rx="2" transform="matrix(0.576346 -0.817206 0.792852 0.609414 69.1793 130.571)" fill="#6E22A9"/>
<rect width="4.74541" height="22.8145" rx="2" transform="matrix(0.787623 0.616157 -0.583127 0.812381 92.3172 119.103)" fill="#6E22A9"/>
<rect width="4.8047" height="16.4716" rx="2" transform="matrix(0.576346 -0.817206 0.792852 0.609414 105.376 130.571)" fill="#6E22A9"/>
<rect width="4.74541" height="22.8145" rx="2" transform="matrix(0.787623 0.616157 -0.583127 0.812381 128.514 119.103)" fill="#6E22A9"/>
<rect width="4.8047" height="16.4716" rx="2" transform="matrix(0.576346 -0.817206 0.792852 0.609414 180.105 129.353)" fill="#6E22A9"/>
<rect width="4.74541" height="22.8145" rx="2" transform="matrix(0.787623 0.616157 -0.583127 0.812381 203.243 117.883)" fill="#6E22A9"/>
<rect width="4.8047" height="16.4716" rx="2" transform="matrix(0.576346 -0.817206 0.792852 0.609414 69.1793 157.389)" fill="#6E22A9"/>
<rect width="4.74541" height="22.8145" rx="2" transform="matrix(0.787623 0.616157 -0.583127 0.812381 92.3171 145.919)" fill="#6E22A9"/>
<rect x="111.714" y="147.64" width="14.1793" height="18.5035" rx="1.5" fill="#FDE50D" stroke="#F3E033"/>
<rect x="113.549" y="153.234" width="10.5087" height="1.21897" fill="#F6C519"/>
<rect x="113.549" y="155.672" width="10.5087" height="1.21897" fill="#F6C519"/>
<rect x="113.549" y="158.111" width="10.5087" height="1.21897" fill="#F6C519"/>
<rect x="113.549" y="149.577" width="4.67055" height="1.21897" fill="#F6C519"/>
<rect x="119.388" y="162.986" width="4.67055" height="1.21897" fill="#F6C519"/>
<path d="M179.27 209.963V194.098C179.27 193.091 179.503 192.098 179.953 191.197L182.213 186.664C182.364 186.361 182.613 186.118 182.92 185.975L192.072 181.692C192.271 181.599 192.488 181.551 192.708 181.551H213.302C214.13 181.551 214.802 182.222 214.802 183.051V185.169C214.802 185.59 214.625 185.992 214.314 186.276L198.899 200.389L186.203 211.109C185.932 211.338 185.589 211.463 185.235 211.463H180.77C179.941 211.463 179.27 210.791 179.27 209.963Z" fill="#91A4AC" stroke="black" stroke-width="3"/>
<rect x="189.723" y="116.728" width="55.7773" height="108.772" rx="10.5" fill="#403A60" stroke="#262143" stroke-width="3"/>
<rect x="204.37" y="120.55" width="17.4394" height="4.56214" rx="2" fill="#282242"/>
<ellipse cx="226.331" cy="122.831" rx="1.93771" ry="2.28107" fill="#282242"/>
<rect x="192.744" y="128.914" width="49.7346" height="92.7635" rx="2" fill="#262141"/>
<rect x="228.632" y="141.202" width="5.14301" height="1.57426" fill="#5842A6"/>
<rect x="232.306" y="146.712" width="5.50991" height="1.46943" transform="rotate(-90 232.306 146.712)" fill="#5842A6"/>
<rect x="202.182" y="146.713" width="5.50991" height="1.46943" transform="rotate(-90 202.182 146.713)" fill="#5842A6"/>
<rect x="207.325" y="142.777" width="5.14301" height="1.57426" transform="rotate(180 207.325 142.777)" fill="#5842A6"/>
<rect x="207.325" y="171.114" width="5.14301" height="1.57426" transform="rotate(-180 207.325 171.114)" fill="#5842A6"/>
<rect x="203.652" y="165.604" width="5.50991" height="1.46943" transform="rotate(90 203.652 165.604)" fill="#5842A6"/>
<rect x="233.775" y="165.604" width="5.50991" height="1.46943" transform="rotate(90 233.775 165.604)" fill="#5842A6"/>
<rect x="228.632" y="169.539" width="5.14301" height="1.57426" fill="#5842A6"/>
<ellipse cx="218.346" cy="156.158" rx="10.286" ry="10.2327" fill="#FF8CA1"/>
<path d="M214.868 159.022C214.45 159.022 214.099 158.867 213.814 158.558C213.529 158.248 213.387 157.869 213.387 157.421C213.387 156.973 213.531 156.596 213.82 156.291C214.109 155.986 214.462 155.834 214.881 155.834C215.299 155.834 215.651 155.989 215.935 156.298C216.22 156.607 216.362 156.986 216.362 157.434C216.362 157.883 216.218 158.259 215.929 158.564C215.64 158.869 215.287 159.022 214.868 159.022ZM221.839 159.022C221.421 159.022 221.069 158.867 220.784 158.558C220.5 158.248 220.357 157.869 220.357 157.421C220.357 156.973 220.502 156.596 220.791 156.291C221.08 155.986 221.433 155.834 221.851 155.834C222.27 155.834 222.621 155.989 222.906 156.298C223.191 156.607 223.333 156.986 223.333 157.434C223.333 157.883 223.189 158.259 222.9 158.564C222.611 158.869 222.257 159.022 221.839 159.022ZM218.346 166.194C220.961 166.194 223.176 165.221 224.991 163.274C226.806 161.327 227.714 158.95 227.714 156.145C227.714 155.642 227.677 155.145 227.604 154.653C227.53 154.161 227.438 153.709 227.328 153.295C226.961 153.394 226.563 153.463 226.136 153.502C225.709 153.541 225.261 153.561 224.793 153.561C223.009 153.561 221.324 153.167 219.736 152.38C218.148 151.593 216.794 150.471 215.674 149.015C215.049 150.609 214.154 152.001 212.987 153.192C211.821 154.383 210.485 155.303 208.978 155.952V156.159C208.978 158.96 209.886 161.333 211.701 163.278C213.516 165.222 215.731 166.194 218.346 166.194ZM218.346 167.965C216.822 167.965 215.389 167.656 214.048 167.036C212.707 166.416 211.541 165.575 210.549 164.512C209.557 163.449 208.772 162.2 208.193 160.763C207.615 159.327 207.325 157.792 207.325 156.159C207.325 154.525 207.615 152.99 208.193 151.554C208.772 150.117 209.557 148.868 210.549 147.805C211.541 146.742 212.707 145.901 214.048 145.281C215.389 144.661 216.822 144.352 218.346 144.352C219.871 144.352 221.303 144.661 222.644 145.281C223.985 145.901 225.151 146.742 226.143 147.805C227.135 148.868 227.92 150.117 228.499 151.554C229.078 152.99 229.367 154.525 229.367 156.159C229.367 157.792 229.078 159.327 228.499 160.763C227.92 162.2 227.135 163.449 226.143 164.512C225.151 165.575 223.985 166.416 222.644 167.036C221.303 167.656 219.871 167.965 218.346 167.965ZM215.811 146.506C217.428 148.533 218.92 149.921 220.289 150.668C221.657 151.416 223.159 151.79 224.793 151.79C225.234 151.79 225.583 151.78 225.84 151.76C226.097 151.741 226.382 151.682 226.694 151.583C225.868 149.989 224.743 148.681 223.319 147.658C221.896 146.634 220.238 146.123 218.346 146.123C217.85 146.123 217.382 146.162 216.941 146.241C216.5 146.319 216.124 146.408 215.811 146.506ZM209.226 153.856C210.108 153.502 211.114 152.7 212.243 151.45C213.373 150.201 214.177 148.691 214.654 146.92C213.056 147.687 211.848 148.666 211.031 149.857C210.214 151.047 209.612 152.38 209.226 153.856Z" fill="black"/>
<path d="M227.53 151.829C227.53 152.916 225.189 151.829 222.754 151.829C218.713 152.614 215.775 147.406 215.775 146.319C215.775 145.233 217.014 145.532 219.448 145.532C221.883 145.532 227.53 150.742 227.53 151.829Z" fill="black"/>
<path d="M215.04 146.32C215.04 147.624 213.115 153.011 212.101 153.011C211.087 153.011 209.162 155.102 209.162 153.798C209.162 152.494 211.087 148.288 212.101 148.288C213.115 148.288 215.04 145.016 215.04 146.32Z" fill="black"/>
<rect x="207.325" y="218.341" width="21.3068" height="1.57426" rx="0.78713" fill="#A29FAC"/>
<rect x="208.795" y="208.108" width="19.8373" height="5.50991" rx="1" fill="#8D2EF4"/>
</svg>
