<svg width="48" height="48" viewBox="0 0 48 48" fill="none" xmlns="http://www.w3.org/2000/svg">
<path d="M38.6512 15.3004V11.0004H34.3512V8.00039H38.6512V3.65039H41.6512V8.00039H46.0012V11.0004H41.6512V15.3004H38.6512ZM4.70117 44.0004C3.90117 44.0004 3.20117 43.7004 2.60117 43.1004C2.00117 42.5004 1.70117 41.8004 1.70117 41.0004V15.3504C1.70117 14.5837 2.00117 13.8921 2.60117 13.2754C3.20117 12.6587 3.90117 12.3504 4.70117 12.3504H12.0512L15.7012 8.00039H29.7012V11.0004H17.1012L13.4512 15.3504H4.70117V41.0004H38.7012V20.0004H41.7012V41.0004C41.7012 41.8004 41.3929 42.5004 40.7762 43.1004C40.1595 43.7004 39.4679 44.0004 38.7012 44.0004H4.70117ZM21.6762 36.7004C24.0929 36.7004 26.1179 35.8837 27.7512 34.2504C29.3845 32.6171 30.2012 30.5921 30.2012 28.1754C30.2012 25.7587 29.3845 23.7421 27.7512 22.1254C26.1179 20.5087 24.0929 19.7004 21.6762 19.7004C19.2595 19.7004 17.2429 20.5087 15.6262 22.1254C14.0095 23.7421 13.2012 25.7587 13.2012 28.1754C13.2012 30.5921 14.0095 32.6171 15.6262 34.2504C17.2429 35.8837 19.2595 36.7004 21.6762 36.7004ZM21.6762 33.7004C20.0929 33.7004 18.7845 33.1754 17.7512 32.1254C16.7179 31.0754 16.2012 29.7587 16.2012 28.1754C16.2012 26.5921 16.7179 25.2837 17.7512 24.2504C18.7845 23.2171 20.0929 22.7004 21.6762 22.7004C23.2595 22.7004 24.5762 23.2171 25.6262 24.2504C26.6762 25.2837 27.2012 26.5921 27.2012 28.1754C27.2012 29.7587 26.6762 31.0754 25.6262 32.1254C24.5762 33.1754 23.2595 33.7004 21.6762 33.7004Z" fill="#610BBE"/>
</svg>
