<svg width="48" height="48" viewBox="0 0 48 48" fill="none" xmlns="http://www.w3.org/2000/svg">
<path d="M38.6502 15.2999V10.9999H34.3502V7.9999H38.6502V3.6499H41.6502V7.9999H46.0002V10.9999H41.6502V15.2999H38.6502ZM4.7002 43.9999C3.9002 43.9999 3.2002 43.6999 2.6002 43.0999C2.0002 42.4999 1.7002 41.7999 1.7002 40.9999V15.3499C1.7002 14.5832 2.0002 13.8916 2.6002 13.2749C3.2002 12.6582 3.9002 12.3499 4.7002 12.3499H12.0502L15.7002 7.9999H29.7002V10.9999H17.1002L13.4502 15.3499H4.7002V40.9999H38.7002V19.9999H41.7002V40.9999C41.7002 41.7999 41.3919 42.4999 40.7752 43.0999C40.1585 43.6999 39.4669 43.9999 38.7002 43.9999H4.7002ZM21.6752 36.6999C24.0919 36.6999 26.1169 35.8832 27.7502 34.2499C29.3835 32.6166 30.2002 30.5916 30.2002 28.1749C30.2002 25.7582 29.3835 23.7416 27.7502 22.1249C26.1169 20.5082 24.0919 19.6999 21.6752 19.6999C19.2585 19.6999 17.2419 20.5082 15.6252 22.1249C14.0085 23.7416 13.2002 25.7582 13.2002 28.1749C13.2002 30.5916 14.0085 32.6166 15.6252 34.2499C17.2419 35.8832 19.2585 36.6999 21.6752 36.6999ZM21.6752 33.6999C20.0919 33.6999 18.7835 33.1749 17.7502 32.1249C16.7169 31.0749 16.2002 29.7582 16.2002 28.1749C16.2002 26.5916 16.7169 25.2832 17.7502 24.2499C18.7835 23.2166 20.0919 22.6999 21.6752 22.6999C23.2585 22.6999 24.5752 23.2166 25.6252 24.2499C26.6752 25.2832 27.2002 26.5916 27.2002 28.1749C27.2002 29.7582 26.6752 31.0749 25.6252 32.1249C24.5752 33.1749 23.2585 33.6999 21.6752 33.6999Z" fill="white"/>
</svg>
