<svg width="48" height="48" viewBox="0 0 48 48" fill="none" xmlns="http://www.w3.org/2000/svg">
<path d="M14.3 33.55H17.3L30.05 20.8L27.1 17.75L14.3 30.55V33.55ZM30.95 19.9L32.9 17.95C33.1333 17.7167 33.2583 17.4583 33.275 17.175C33.2917 16.8917 33.1667 16.6167 32.9 16.35L31.45 14.95C31.1833 14.6833 30.9167 14.5583 30.65 14.575C30.3833 14.5917 30.1333 14.7167 29.9 14.95L28 16.85L30.95 19.9ZM9 42C8.175 42 7.46875 41.7063 6.88125 41.1188C6.29375 40.5313 6 39.825 6 39V9C6 8.175 6.29375 7.46875 6.88125 6.88125C7.46875 6.29375 8.175 6 9 6H19.25C19.4167 4.83333 19.95 3.875 20.85 3.125C21.75 2.375 22.8 2 24 2C25.2 2 26.25 2.375 27.15 3.125C28.05 3.875 28.5833 4.83333 28.75 6H39C39.825 6 40.5313 6.29375 41.1188 6.88125C41.7063 7.46875 42 8.175 42 9V39C42 39.825 41.7063 40.5313 41.1188 41.1188C40.5313 41.7063 39.825 42 39 42H9ZM9 39H39V9H9V39ZM24 8.15C24.4667 8.15 24.875 7.975 25.225 7.625C25.575 7.275 25.75 6.86667 25.75 6.4C25.75 5.93333 25.575 5.525 25.225 5.175C24.875 4.825 24.4667 4.65 24 4.65C23.5333 4.65 23.125 4.825 22.775 5.175C22.425 5.525 22.25 5.93333 22.25 6.4C22.25 6.86667 22.425 7.275 22.775 7.625C23.125 7.975 23.5333 8.15 24 8.15Z" fill="#E3DAFF"/>
</svg>
