<svg width="2311" height="1745" viewBox="0 0 2311 1745" fill="none" xmlns="http://www.w3.org/2000/svg">
<path d="M1853.5 295.486C1853.5 652.538 2324.35 1744.49 1906 1744.49C1487.64 1744.49 1.58114e-09 1477.04 1.58114e-09 1119.99C-0.000882594 562.987 369.499 528.485 1305.5 120.985C1727.5 -62.7371 1853.5 -61.5661 1853.5 295.486Z" fill="#7D1FC7"/>
<path d="M1132.93 101.06C1132.93 122.282 1137.88 139.485 1118.52 139.485C1099.16 139.485 1074.5 127.911 1074.5 106.689C1074.5 85.4673 1076.95 70.4854 1096.32 70.4854C1115.68 70.4854 1132.93 79.8386 1132.93 101.06Z" fill="#8A24DB"/>
<path d="M90.9336 1470.06C90.9336 1491.28 95.8831 1508.49 76.5199 1508.49C57.1567 1508.49 32.5 1496.91 32.5 1475.69C32.5 1454.47 34.9519 1439.49 54.3152 1439.49C73.6784 1439.49 90.9336 1448.84 90.9336 1470.06Z" fill="#8A24DB"/>
<path d="M1039.5 84.9854C1039.5 110.667 1019.35 169.985 994.5 169.985C969.647 169.985 949.5 110.667 949.5 84.9854C949.5 59.3041 969.647 38.4854 994.5 38.4854C1019.35 38.4854 1039.5 59.3041 1039.5 84.9854Z" fill="#8A24DB"/>
<path d="M2310.5 1602.99C2310.5 1628.67 2290.35 1687.99 2265.5 1687.99C2240.65 1687.99 2220.5 1628.67 2220.5 1602.99C2220.5 1577.3 2240.65 1556.49 2265.5 1556.49C2290.35 1556.49 2310.5 1577.3 2310.5 1602.99Z" fill="#8A24DB"/>
<path d="M59.5 1378.24C59.5 1391.91 39.6503 1407.99 27.5 1407.99C15.3497 1407.99 5.5 1391.91 5.5 1378.24C5.5 1364.57 15.3497 1353.49 27.5 1353.49C39.6503 1353.49 59.5 1364.57 59.5 1378.24Z" fill="#8A24DB"/>
<path opacity="0.99" d="M958.82 1262.9C867.572 1033.12 981.228 772.332 1212.68 680.42C1444.13 588.509 1705.73 700.275 1796.98 930.057C1888.23 1159.84 1774.57 1420.62 1543.12 1512.53C1311.67 1604.44 1050.07 1492.68 958.82 1262.9Z" fill="white"/>
<path opacity="0.25" d="M962.619 1275.25C871.371 1045.46 985.027 784.68 1216.48 692.769C1447.93 600.858 1709.53 712.624 1800.78 942.405C1892.02 1172.19 1778.37 1432.97 1546.92 1524.88C1315.47 1616.79 1053.87 1505.03 962.619 1275.25Z" fill="white"/>
<ellipse cx="1376.77" cy="1113.08" rx="466.59" ry="460.155" transform="rotate(-161.043 1376.77 1113.08)" fill="url(#paint0_linear_793_167)"/>
<path opacity="0.25" d="M1792.27 929.835C1890.15 1156.87 1784.11 1420.84 1555.43 1519.43C1326.74 1618.02 1062.01 1513.9 964.131 1286.86C866.251 1059.83 972.29 795.853 1200.98 697.263C1429.66 598.673 1694.39 702.799 1792.27 929.835Z" fill="url(#paint1_linear_793_167)"/>
<path opacity="0.25" d="M977.904 1267.98C886.656 1038.2 1000.31 777.414 1231.76 685.502C1463.21 593.591 1724.81 705.357 1816.06 935.139C1907.31 1164.92 1793.65 1425.7 1562.2 1517.62C1330.75 1609.53 1069.15 1497.76 977.904 1267.98Z" fill="url(#paint2_linear_793_167)"/>
<path opacity="0.45" d="M1563.85 782.197C1639.59 815.461 1394.11 718.962 1243.86 771.219C1093.62 823.475 934.747 1093.32 1019.75 971.434C986.182 874.911 1080.77 754.301 1231.02 702.045C1381.27 649.789 1530.28 685.674 1563.85 782.197Z" fill="url(#paint3_linear_793_167)"/>
<circle cx="1649.57" cy="965.55" r="64.5954" fill="url(#paint4_linear_793_167)"/>
<circle cx="1649.95" cy="965.927" r="64.5954" transform="rotate(176.165 1649.95 965.927)" fill="url(#paint5_linear_793_167)"/>
<ellipse cx="1757.15" cy="1125.27" rx="40.5972" ry="41.397" fill="#939393"/>
<ellipse cx="40.6008" cy="41.3934" rx="40.6008" ry="41.3934" transform="matrix(-0.997671 0.0682038 -0.0656054 -0.997846 1800.61 1164.05)" fill="url(#paint6_linear_793_167)"/>
<ellipse cx="1161.55" cy="1230.72" rx="40.5972" ry="41.397" fill="#939393"/>
<ellipse cx="40.6008" cy="41.3934" rx="40.6008" ry="41.3934" transform="matrix(-0.997671 0.0682038 -0.0656054 -0.997846 1205 1269.49)" fill="url(#paint7_linear_793_167)"/>
<ellipse cx="1118.3" cy="1374.33" rx="27.5628" ry="28.1057" fill="#939393"/>
<ellipse cx="27.5652" cy="28.1033" rx="27.5652" ry="28.1033" transform="matrix(-0.997671 0.0682038 -0.0656054 -0.997846 1147.8 1400.66)" fill="url(#paint8_linear_793_167)"/>
<ellipse cx="1503.02" cy="1050.41" rx="27.5628" ry="28.1057" fill="#B7B7B7"/>
<ellipse cx="27.5652" cy="28.1033" rx="27.5652" ry="28.1033" transform="matrix(-0.997671 0.0682038 -0.0656054 -0.997846 1532.52 1076.73)" fill="url(#paint9_linear_793_167)"/>
<ellipse cx="1496.37" cy="1316.34" rx="189.296" ry="125.466" transform="rotate(-21.1827 1496.37 1316.34)" fill="#8F8F8F"/>
<ellipse cx="189.059" cy="125.823" rx="189.059" ry="125.823" transform="matrix(-0.915473 0.40238 -0.453346 -0.891335 1727.78 1352.7)" fill="url(#paint10_linear_793_167)"/>
<path d="M1538.34 579.944C1538.46 580.406 1538.52 580.909 1538.52 581.357C1538.22 615.833 1522.9 636.926 1500.39 649.554C1477.68 662.298 1447.47 666.5 1417.52 666.5C1417.28 666.5 1416.96 666.502 1416.59 666.504C1409.23 666.544 1377.74 666.719 1347.34 656.773C1331.38 651.55 1315.89 643.59 1304.36 631.513C1292.89 619.493 1285.23 603.277 1285.03 581.231C1285.02 580.842 1285.07 580.392 1285.16 579.985C1289.56 560.296 1291.49 544.05 1293.08 530.637C1293.38 528.107 1293.67 525.678 1293.96 523.345C1295.8 508.52 1297.72 497.94 1303.05 489.713C1308.29 481.622 1317.08 475.47 1333.53 470.272C1350.03 465.061 1373.89 460.913 1408.88 456.613C1409.35 456.555 1409.9 456.56 1410.37 456.626C1443.49 461.282 1466.62 466.062 1483.06 471.899C1499.45 477.719 1508.99 484.52 1515.19 493.108C1521.44 501.77 1524.5 512.523 1527.35 526.783C1528.14 530.697 1528.91 534.871 1529.72 539.316C1531.86 550.938 1534.34 564.412 1538.34 579.944Z" fill="white" stroke="#34274E" stroke-width="5"/>
<path d="M1506.74 560.806C1502.28 541.292 1497.95 522.381 1510.25 495.258C1514.67 491.678 1515.38 491.044 1515.85 490.651C1526.24 504.509 1539.94 522.85 1549.04 542.879C1558.49 563.669 1562.83 585.917 1553.73 606.665C1537.78 634.781 1526.52 640.552 1518.79 640.239C1514.83 640.078 1511.4 638.335 1508.2 636.372C1507.64 636.03 1507.06 635.667 1506.49 635.304C1505.5 634.678 1504.52 634.055 1503.62 633.548C1502.99 633.185 1502.32 632.836 1501.64 632.545C1508.52 618.155 1511.1 605.851 1511.37 594.65C1511.66 582.934 1509.42 572.514 1507.11 562.402C1506.99 561.869 1506.87 561.337 1506.74 560.806Z" fill="white" stroke="#34274E" stroke-width="4"/>
<path d="M1419.58 152.501L1419.55 152.5H1419.52C1341.67 152.5 1289.67 193.671 1257.2 231.271C1241.04 249.978 1229.7 267.831 1222.4 279.31L1222.29 279.479C1220.47 282.351 1218.91 284.801 1217.59 286.765C1216.31 288.675 1215.31 290.051 1214.55 290.89C1214.53 290.637 1214.52 290.341 1214.52 290C1214.52 286.833 1215.52 282.036 1217.63 275.985C1219.73 269.966 1222.89 262.81 1227.13 254.961C1235.61 239.263 1248.35 220.856 1265.41 203.294C1299.52 168.174 1350.77 136.501 1419.52 136.5C1479.38 136.5 1528.53 165.792 1562.76 198.581C1579.87 214.971 1593.22 232.203 1602.28 247.015C1606.81 254.422 1610.26 261.205 1612.57 266.958C1614.9 272.747 1616.02 277.371 1616.02 280.5C1616.02 281.291 1615.96 281.841 1615.88 282.201C1615.76 282.135 1615.62 282.041 1615.44 281.911C1614.59 281.284 1613.44 280.129 1611.95 278.421C1610.48 276.733 1608.75 274.587 1606.75 272.043C1605.56 270.537 1604.28 268.895 1602.92 267.137C1595.06 257.037 1584.18 243.055 1570.24 228.345C1537.5 193.809 1487.65 155.023 1419.58 152.501ZM1214.72 291.969C1214.72 291.969 1214.72 291.968 1214.72 291.964C1214.72 291.967 1214.72 291.969 1214.72 291.969Z" fill="#57407E" stroke="#34274E" stroke-width="3"/>
<path d="M1593.52 324C1593.52 339.056 1595.8 352.621 1599.43 362.367C1601.25 367.246 1603.38 371.089 1605.67 373.686C1607.96 376.285 1610.28 377.5 1612.52 377.5C1614.77 377.5 1617.09 376.285 1619.38 373.686C1621.67 371.089 1623.8 367.246 1625.61 362.367C1629.25 352.621 1631.52 339.056 1631.52 324C1631.52 308.944 1629.25 295.379 1625.61 285.633C1623.8 280.754 1621.67 276.911 1619.38 274.314C1617.09 271.715 1614.77 270.5 1612.52 270.5C1610.28 270.5 1607.96 271.715 1605.67 274.314C1603.38 276.911 1601.25 280.754 1599.43 285.633C1595.8 295.379 1593.52 308.944 1593.52 324Z" fill="#57407E" stroke="#34274E" stroke-width="3"/>
<path d="M1197.52 324C1197.52 339.056 1199.8 352.621 1203.43 362.367C1205.25 367.246 1207.38 371.089 1209.67 373.686C1211.96 376.285 1214.28 377.5 1216.52 377.5C1218.77 377.5 1221.09 376.285 1223.38 373.686C1225.66 371.089 1227.79 367.246 1229.61 362.367C1233.24 352.621 1235.52 339.056 1235.52 324C1235.52 308.944 1233.24 295.379 1229.61 285.633C1227.79 280.754 1225.66 276.911 1223.38 274.314C1221.09 271.715 1218.77 270.5 1216.52 270.5C1214.28 270.5 1211.96 271.715 1209.67 274.314C1207.38 276.911 1205.25 280.754 1203.43 285.633C1199.8 295.379 1197.52 308.944 1197.52 324Z" fill="#57407E" stroke="#34274E" stroke-width="3"/>
<ellipse cx="1213.52" cy="317" rx="6.5" ry="18" fill="#6D29A3"/>
<ellipse cx="1612.52" cy="317" rx="6.5" ry="18" fill="#6D29A3"/>
<path d="M1616.52 317.34C1616.52 409.818 1526.96 485.5 1415.52 485.5C1304.08 485.5 1214.52 409.818 1214.52 317.34C1214.52 224.862 1304.08 149.18 1415.52 149.18C1526.96 149.18 1616.52 224.862 1616.52 317.34Z" fill="white" stroke="#34274E" stroke-width="5"/>
<ellipse cx="1415.02" cy="317" rx="160" ry="123" fill="black"/>
<path d="M1493.02 306.957C1493.02 320.934 1487.35 332.264 1473.03 332.264C1458.72 332.264 1453.52 320.934 1453.52 306.957C1453.52 292.981 1458.72 281.65 1473.03 281.65C1487.35 281.65 1493.02 292.981 1493.02 306.957Z" fill="#84F6D5"/>
<path d="M1378.02 306.957C1378.02 320.934 1372.32 332.264 1358.01 332.264C1343.7 332.264 1338.02 320.934 1338.02 306.957C1338.02 292.981 1343.7 281.65 1358.01 281.65C1372.32 281.65 1378.02 292.981 1378.02 306.957Z" fill="#84F6D5"/>
<path d="M1368.02 304.5C1368.02 315.27 1363.75 324 1353.02 324C1342.28 324 1338.02 315.27 1338.02 304.5C1338.02 293.73 1342.28 285 1353.02 285C1363.75 285 1368.02 293.73 1368.02 304.5Z" fill="#ABFFE7"/>
<path d="M1483.02 307.5C1483.02 318.27 1478.75 327 1468.02 327C1457.28 327 1453.02 318.27 1453.02 307.5C1453.02 296.73 1457.28 288 1468.02 288C1478.75 288 1483.02 296.73 1483.02 307.5Z" fill="#ABFFE7"/>
<path d="M1279.82 418.361C1290.14 438.666 1299.74 460.477 1296.43 495.622C1292.48 509.967 1291.01 522.164 1290.28 531.205C1290.1 533.472 1289.96 535.54 1289.84 537.386C1289.82 537.694 1289.8 537.994 1289.78 538.288C1289.69 539.769 1289.6 541.084 1289.51 542.243C1289.43 543.28 1289.35 544.159 1289.25 544.891C1274.73 535.724 1255.87 517.524 1240.83 495.264C1225 471.83 1213.63 444.244 1215.72 418.305C1217.78 403.864 1225.74 386.643 1235.08 373.201C1239.76 366.483 1244.71 360.802 1249.35 356.926C1253.15 353.747 1256.47 352.004 1259.11 351.599C1258.74 377.369 1267.94 395.26 1277.26 413.372C1278.12 415.031 1278.97 416.692 1279.82 418.361Z" fill="white" stroke="#34274E" stroke-width="4"/>
<path d="M1286.72 585.952C1287.33 585.513 1288.07 585.277 1288.82 585.277H1506.13C1508.21 585.277 1510.06 586.592 1510.74 588.556C1510.92 589.074 1511.02 589.62 1511.02 590.17V597.829C1511.02 598.482 1510.96 599.134 1510.83 599.776C1509.95 604.401 1506.07 607.858 1501.38 608.203L1306.62 622.522C1302.76 622.806 1298.93 621.666 1295.85 619.318C1292.91 617.076 1290.85 613.876 1290.03 610.273L1285.3 589.692C1284.98 588.274 1285.53 586.799 1286.72 585.952Z" fill="white" stroke="#34274E" stroke-width="4"/>
<path d="M1488.52 528.214C1488.52 545.78 1475.93 559.5 1461.02 559.5C1446.1 559.5 1433.52 545.78 1433.52 528.214C1433.52 523.731 1434.2 521.093 1435.16 519.519C1436.03 518.085 1437.28 517.289 1439.21 516.867C1441.27 516.417 1443.91 516.44 1447.31 516.625C1448.08 516.667 1448.89 516.718 1449.73 516.77C1452.47 516.94 1455.53 517.13 1458.77 517.13C1461.88 517.13 1464.99 516.954 1467.9 516.789C1468.94 516.73 1469.94 516.673 1470.92 516.626C1474.72 516.441 1477.98 516.409 1480.67 516.886C1483.32 517.356 1485.14 518.274 1486.36 519.787C1487.6 521.327 1488.52 523.865 1488.52 528.214Z" fill="white" stroke="#34274E" stroke-width="5"/>
<path d="M1470.7 532.678C1472.41 531.087 1473.57 529.608 1474.19 528.24C1474.81 526.872 1474.94 525.846 1474.12 525.466C1473.31 525.086 1471.79 525.469 1470.04 526.309C1468.29 527.149 1465.11 529.468 1463.41 531.058L1462.56 532.102C1463.95 530.808 1468.41 527.616 1469.83 526.934C1471.25 526.252 1472.55 525.927 1473.21 526.236C1473.88 526.545 1473.93 527.477 1473.43 528.588C1472.93 529.698 1471.85 531.211 1470.47 532.505L1470.7 532.678Z" fill="#2DF0C4"/>
<path d="M1470.75 532.467C1472.22 531.091 1473.2 529.799 1473.68 528.59C1474.16 527.381 1474.21 526.464 1473.42 526.098C1472.64 525.732 1471.26 526.03 1469.69 526.731C1468.12 527.433 1465.32 529.417 1463.85 530.793L1463.13 531.703C1464.33 530.584 1468.26 527.855 1469.53 527.286C1470.8 526.717 1471.99 526.464 1472.63 526.762C1473.27 527.059 1473.38 527.898 1473 528.879C1472.61 529.86 1471.71 531.186 1470.51 532.305L1470.75 532.467Z" fill="#8D2EF4"/>
<path d="M1455.81 538.299C1454.02 539.951 1452.79 541.47 1452.12 542.855C1451.44 544.241 1451.27 545.266 1452.08 545.609C1452.89 545.953 1454.43 545.508 1456.22 544.599C1458.02 543.691 1461.32 541.253 1463.1 539.6L1463.99 538.527C1462.55 539.872 1457.92 543.231 1456.47 543.969C1455.01 544.707 1453.68 545.085 1453.02 544.806C1452.37 544.527 1452.35 543.602 1452.9 542.478C1453.45 541.353 1454.59 539.805 1456.04 538.46L1455.81 538.299Z" fill="#2DF0C4"/>
<path d="M1455.76 538.511C1454.22 539.941 1453.18 541.266 1452.65 542.487C1452.12 543.709 1452.03 544.622 1452.81 544.953C1453.59 545.283 1454.99 544.928 1456.6 544.166C1458.21 543.403 1461.11 541.313 1462.65 539.884L1463.4 538.949C1462.15 540.111 1458.09 542.989 1456.78 543.608C1455.47 544.227 1454.27 544.528 1453.63 544.26C1453 543.991 1452.92 543.163 1453.35 542.171C1453.78 541.18 1454.73 539.825 1455.99 538.663L1455.76 538.511Z" fill="#8D2EF4"/>
<path d="M1469.87 536.611L1467.96 536.152C1467.74 536.782 1467.44 537.37 1467.06 537.913C1466.68 538.456 1466.21 538.931 1465.66 539.338C1464.97 539.847 1464.24 540.18 1463.49 540.336C1462.73 540.492 1461.99 540.483 1461.27 540.309C1460.54 540.135 1459.87 539.803 1459.23 539.314C1458.6 538.824 1458.06 538.188 1457.61 537.405C1457.25 536.779 1456.99 536.13 1456.84 535.458C1456.68 534.785 1456.62 534.111 1456.65 533.435L1454.73 532.976L1454.92 531.996L1470.05 535.631L1469.87 536.611ZM1465.18 538.51C1465.63 538.18 1466.01 537.798 1466.33 537.362C1466.64 536.926 1466.9 536.453 1467.09 535.944L1457.51 533.643C1457.51 534.198 1457.57 534.747 1457.7 535.291C1457.84 535.835 1458.05 536.36 1458.34 536.866C1459.11 538.202 1460.14 539.026 1461.45 539.34C1462.76 539.655 1464 539.378 1465.18 538.51ZM1468.32 534.192L1467.46 533.984C1467.47 533.429 1467.4 532.88 1467.27 532.336C1467.14 531.792 1466.92 531.267 1466.63 530.761C1465.87 529.425 1464.83 528.601 1463.52 528.286C1462.21 527.972 1460.97 528.249 1459.79 529.117C1459.34 529.446 1458.96 529.829 1458.64 530.265C1458.33 530.701 1458.07 531.174 1457.88 531.683L1457.01 531.475C1457.23 530.844 1457.53 530.257 1457.91 529.714C1458.29 529.171 1458.76 528.696 1459.31 528.288C1460 527.786 1460.72 527.458 1461.47 527.307C1462.23 527.155 1462.97 527.167 1463.7 527.341C1464.42 527.515 1465.1 527.845 1465.74 528.332C1466.38 528.818 1466.92 529.448 1467.36 530.222C1467.72 530.848 1467.98 531.497 1468.14 532.169C1468.29 532.842 1468.35 533.516 1468.32 534.192Z" fill="#5FF1D0" fill-opacity="0.8"/>
<path d="M1470.74 537.271L1468.83 536.812C1468.61 537.443 1468.32 538.03 1467.93 538.573C1467.55 539.116 1467.08 539.592 1466.53 539.999C1465.84 540.507 1465.12 540.84 1464.36 540.996C1463.61 541.152 1462.87 541.143 1462.14 540.969C1461.42 540.795 1460.74 540.463 1460.1 539.974C1459.47 539.484 1458.93 538.848 1458.48 538.065C1458.12 537.439 1457.86 536.79 1457.71 536.118C1457.55 535.446 1457.49 534.771 1457.52 534.096L1455.61 533.636L1455.79 532.656L1470.93 536.291L1470.74 537.271ZM1466.05 539.17C1466.5 538.841 1466.88 538.458 1467.2 538.022C1467.52 537.586 1467.77 537.113 1467.97 536.604L1458.38 534.303C1458.38 534.858 1458.44 535.407 1458.58 535.951C1458.71 536.495 1458.92 537.02 1459.21 537.527C1459.98 538.862 1461.02 539.686 1462.32 540.001C1463.63 540.315 1464.88 540.038 1466.05 539.17ZM1469.2 534.852L1468.33 534.644C1468.34 534.09 1468.27 533.54 1468.14 532.996C1468.01 532.452 1467.8 531.927 1467.51 531.421C1466.74 530.085 1465.7 529.261 1464.39 528.947C1463.09 528.632 1461.84 528.909 1460.66 529.777C1460.22 530.107 1459.83 530.489 1459.52 530.925C1459.2 531.361 1458.95 531.834 1458.75 532.343L1457.89 532.135C1458.1 531.505 1458.4 530.918 1458.78 530.374C1459.17 529.831 1459.63 529.356 1460.19 528.949C1460.87 528.446 1461.59 528.119 1462.35 527.967C1463.11 527.816 1463.85 527.827 1464.57 528.001C1465.3 528.175 1465.98 528.505 1466.61 528.992C1467.25 529.478 1467.79 530.108 1468.24 530.882C1468.6 531.508 1468.85 532.157 1469.01 532.829C1469.16 533.502 1469.23 534.176 1469.2 534.852Z" fill="#8D2EF4"/>
<path d="M1470.74 537.271L1468.83 536.812C1468.61 537.443 1468.32 538.03 1467.93 538.573C1467.55 539.116 1467.08 539.592 1466.53 539.999C1465.84 540.507 1465.12 540.84 1464.36 540.996C1463.61 541.152 1462.87 541.143 1462.14 540.969C1461.42 540.795 1460.74 540.463 1460.1 539.974C1459.47 539.484 1458.93 538.848 1458.48 538.065C1458.12 537.439 1457.86 536.79 1457.71 536.118C1457.55 535.446 1457.49 534.771 1457.52 534.096L1455.61 533.636L1455.79 532.656L1470.93 536.291L1470.74 537.271ZM1466.05 539.17C1466.5 538.841 1466.88 538.458 1467.2 538.022C1467.52 537.586 1467.77 537.113 1467.97 536.604L1458.38 534.303C1458.38 534.858 1458.44 535.407 1458.58 535.951C1458.71 536.495 1458.92 537.02 1459.21 537.527C1459.98 538.862 1461.02 539.686 1462.32 540.001C1463.63 540.315 1464.88 540.038 1466.05 539.17ZM1469.2 534.852L1468.33 534.644C1468.34 534.09 1468.27 533.54 1468.14 532.996C1468.01 532.452 1467.8 531.927 1467.51 531.421C1466.74 530.085 1465.7 529.261 1464.39 528.947C1463.09 528.632 1461.84 528.909 1460.66 529.777C1460.22 530.107 1459.83 530.489 1459.52 530.925C1459.2 531.361 1458.95 531.834 1458.75 532.343L1457.89 532.135C1458.1 531.505 1458.4 530.918 1458.78 530.374C1459.17 529.831 1459.63 529.356 1460.19 528.949C1460.87 528.446 1461.59 528.119 1462.35 527.967C1463.11 527.816 1463.85 527.827 1464.57 528.001C1465.3 528.175 1465.98 528.505 1466.61 528.992C1467.25 529.478 1467.79 530.108 1468.24 530.882C1468.6 531.508 1468.85 532.157 1469.01 532.829C1469.16 533.502 1469.23 534.176 1469.2 534.852Z" fill="#8D2EF4"/>
<path d="M1471.62 537.929L1469.7 537.47C1469.49 538.101 1469.19 538.688 1468.81 539.231C1468.42 539.775 1467.96 540.25 1467.4 540.657C1466.71 541.166 1465.99 541.498 1465.23 541.654C1464.48 541.81 1463.74 541.801 1463.02 541.627C1462.29 541.453 1461.61 541.122 1460.98 540.632C1460.34 540.142 1459.8 539.506 1459.35 538.724C1458.99 538.097 1458.74 537.448 1458.58 536.776C1458.43 536.104 1458.36 535.43 1458.39 534.754L1456.48 534.295L1456.66 533.315L1471.8 536.949L1471.62 537.929ZM1466.93 539.828C1467.38 539.499 1467.76 539.116 1468.07 538.68C1468.39 538.244 1468.65 537.771 1468.84 537.262L1459.26 534.962C1459.25 535.516 1459.32 536.065 1459.45 536.609C1459.58 537.153 1459.79 537.678 1460.08 538.185C1460.85 539.52 1461.89 540.345 1463.2 540.659C1464.51 540.973 1465.75 540.696 1466.93 539.828ZM1470.07 535.51L1469.21 535.302C1469.21 534.748 1469.15 534.199 1469.01 533.655C1468.88 533.111 1468.67 532.585 1468.38 532.079C1467.61 530.744 1466.58 529.919 1465.27 529.605C1463.96 529.291 1462.71 529.568 1461.54 530.436C1461.09 530.765 1460.71 531.147 1460.39 531.584C1460.07 532.02 1459.82 532.492 1459.63 533.001L1458.76 532.794C1458.98 532.163 1459.28 531.576 1459.66 531.032C1460.04 530.489 1460.51 530.014 1461.06 529.607C1461.74 529.104 1462.46 528.777 1463.22 528.625C1463.98 528.474 1464.72 528.485 1465.44 528.659C1466.17 528.833 1466.85 529.163 1467.49 529.65C1468.13 530.137 1468.67 530.767 1469.11 531.54C1469.47 532.166 1469.73 532.815 1469.88 533.488C1470.04 534.16 1470.1 534.834 1470.07 535.51Z" fill="#19181B"/>
<path d="M1471.62 537.929L1469.7 537.47C1469.49 538.101 1469.19 538.688 1468.81 539.231C1468.42 539.775 1467.96 540.25 1467.4 540.657C1466.71 541.166 1465.99 541.498 1465.23 541.654C1464.48 541.81 1463.74 541.801 1463.02 541.627C1462.29 541.453 1461.61 541.122 1460.98 540.632C1460.34 540.142 1459.8 539.506 1459.35 538.724C1458.99 538.097 1458.74 537.448 1458.58 536.776C1458.43 536.104 1458.36 535.43 1458.39 534.754L1456.48 534.295L1456.66 533.315L1471.8 536.949L1471.62 537.929ZM1466.93 539.828C1467.38 539.499 1467.76 539.116 1468.07 538.68C1468.39 538.244 1468.65 537.771 1468.84 537.262L1459.26 534.962C1459.25 535.516 1459.32 536.065 1459.45 536.609C1459.58 537.153 1459.79 537.678 1460.08 538.185C1460.85 539.52 1461.89 540.345 1463.2 540.659C1464.51 540.973 1465.75 540.696 1466.93 539.828ZM1470.07 535.51L1469.21 535.302C1469.21 534.748 1469.15 534.199 1469.01 533.655C1468.88 533.111 1468.67 532.585 1468.38 532.079C1467.61 530.744 1466.58 529.919 1465.27 529.605C1463.96 529.291 1462.71 529.568 1461.54 530.436C1461.09 530.765 1460.71 531.147 1460.39 531.584C1460.07 532.02 1459.82 532.492 1459.63 533.001L1458.76 532.794C1458.98 532.163 1459.28 531.576 1459.66 531.032C1460.04 530.489 1460.51 530.014 1461.06 529.607C1461.74 529.104 1462.46 528.777 1463.22 528.625C1463.98 528.474 1464.72 528.485 1465.44 528.659C1466.17 528.833 1466.85 529.163 1467.49 529.65C1468.13 530.137 1468.67 530.767 1469.11 531.54C1469.47 532.166 1469.73 532.815 1469.88 533.488C1470.04 534.16 1470.1 534.834 1470.07 535.51Z" fill="#A568E6"/>
<path d="M1316.52 585.5H1331.52V617.657L1316.52 619.324V585.5Z" fill="#ECECEC" stroke="#34274E" stroke-width="3"/>
<path d="M1281 371.5C1281 390.408 1264.36 406 1243.5 406C1222.64 406 1206 390.408 1206 371.5C1206 352.592 1222.64 337 1243.5 337C1264.36 337 1281 352.592 1281 371.5Z" fill="white" stroke="#34274E" stroke-width="4"/>
<path d="M1921.5 854H1959.5L1960.5 871L1907 894H1898L1921.5 854Z" fill="white"/>
<path d="M1324.72 528.398C1324.72 526.576 1325.19 525.148 1326.13 524.117C1327.08 523.081 1328.39 522.562 1330.06 522.562C1331.07 522.562 1331.89 522.737 1332.52 523.086C1333.16 523.43 1333.62 523.836 1333.92 524.305C1334.1 524.596 1334.1 524.807 1333.91 524.938L1333.33 525.344C1333.14 525.479 1332.94 525.398 1332.75 525.102C1332.59 524.867 1332.3 524.589 1331.87 524.266C1331.43 523.943 1330.86 523.781 1330.14 523.781C1328.86 523.781 1327.91 524.188 1327.27 525C1326.64 525.807 1326.32 526.94 1326.32 528.398C1326.32 529.857 1326.63 530.992 1327.25 531.805C1327.87 532.612 1328.86 533.016 1330.22 533.016C1330.9 533.016 1331.48 532.935 1331.98 532.773C1332.49 532.607 1332.84 532.378 1333.05 532.086V530.016H1330.73C1330.44 530.016 1330.3 529.898 1330.3 529.664V529.086C1330.3 528.852 1330.44 528.734 1330.73 528.734H1334.12C1334.4 528.734 1334.55 528.852 1334.55 529.086V532.773C1333.91 533.237 1333.28 533.596 1332.64 533.852C1332.01 534.107 1331.17 534.234 1330.14 534.234C1328.42 534.234 1327.09 533.719 1326.14 532.688C1325.19 531.651 1324.72 530.221 1324.72 528.398ZM1335.98 523.266C1335.9 522.953 1335.97 522.797 1336.19 522.797H1337.14C1337.31 522.797 1337.42 522.917 1337.48 523.156L1339.22 530.664C1339.29 530.966 1339.37 531.294 1339.46 531.648C1339.55 532.003 1339.64 532.336 1339.7 532.648H1339.74C1339.79 532.341 1339.85 532.036 1339.92 531.734C1339.99 531.432 1340.08 531.078 1340.16 530.672L1341.95 523.219C1342.01 522.938 1342.18 522.797 1342.45 522.797H1343.52C1343.79 522.797 1343.96 522.938 1344.02 523.219L1345.8 530.672C1345.89 531.078 1345.97 531.432 1346.04 531.734C1346.11 532.036 1346.17 532.341 1346.23 532.648H1346.27C1346.33 532.336 1346.41 532.003 1346.5 531.648C1346.59 531.294 1346.68 530.966 1346.75 530.664L1348.49 523.156C1348.55 522.917 1348.66 522.797 1348.83 522.797H1349.78C1350 522.797 1350.07 522.953 1349.98 523.266L1347.3 533.398C1347.19 533.799 1347 534 1346.72 534H1345.74C1345.48 534 1345.3 533.781 1345.19 533.344L1343.3 525.852C1343.21 525.471 1343.14 525.161 1343.1 524.922C1343.06 524.677 1343.02 524.424 1342.99 524.164H1342.98C1342.95 524.424 1342.91 524.677 1342.87 524.922C1342.83 525.161 1342.76 525.471 1342.66 525.852L1340.78 533.344C1340.67 533.781 1340.49 534 1340.23 534H1339.25C1338.97 534 1338.78 533.799 1338.67 533.398L1335.98 523.266ZM1351.95 534C1351.69 534 1351.56 533.857 1351.56 533.57V523.227C1351.56 522.94 1351.69 522.797 1351.95 522.797H1358.79C1359.08 522.797 1359.22 522.914 1359.22 523.148V523.727C1359.22 523.961 1359.08 524.078 1358.79 524.078H1353.06V527.547H1358.32C1358.61 527.547 1358.75 527.664 1358.75 527.898V528.477C1358.75 528.711 1358.61 528.828 1358.32 528.828H1353.06V532.719H1359.02C1359.31 532.719 1359.45 532.836 1359.45 533.07V533.648C1359.45 533.883 1359.31 534 1359.02 534H1351.95ZM1361.88 534C1361.61 534 1361.48 533.857 1361.48 533.57V523.227C1361.48 522.94 1361.61 522.797 1361.88 522.797H1362.88C1363.24 522.797 1363.5 522.927 1363.66 523.188L1368.55 531.383H1368.58C1368.57 531.174 1368.56 530.966 1368.56 530.758V523.227C1368.56 522.94 1368.69 522.797 1368.95 522.797H1369.67C1369.93 522.797 1370.06 522.94 1370.06 523.227V533.57C1370.06 533.857 1369.93 534 1369.67 534H1368.98C1368.62 534 1368.36 533.87 1368.2 533.609L1363 524.914H1362.97C1362.98 525.122 1362.98 525.331 1362.98 525.539V533.57C1362.98 533.857 1362.85 534 1362.59 534H1361.88Z" fill="black"/>
<path d="M2034.31 436.395C2037.7 445.95 2039.98 463.252 2039.22 478.953C2038.85 486.792 2037.72 494.09 2035.68 499.747C2033.62 505.473 2030.78 509.08 2027.29 510.32C2017.91 513.658 2010.58 513.197 2004.72 510.565C1998.81 507.909 1994.13 502.919 1990.3 496.706C1986.47 490.496 1983.58 483.211 1981.2 476.174C1980.04 472.741 1979.01 469.391 1978.05 466.266L1977.98 466.05C1977 462.878 1976.09 459.922 1975.2 457.408C1968.47 438.485 1976.62 418.786 1992.72 413.061C2008.83 407.337 2027.58 417.472 2034.31 436.395Z" fill="white" stroke="black" stroke-width="4"/>
<path d="M2037.5 452.499L2037.5 452.624L2037.51 452.747C2038.77 462.773 2040.38 476.659 2039.47 488.43C2039.01 494.322 2037.93 499.503 2035.98 503.357C2034.06 507.148 2031.36 509.534 2027.6 510.236C2018.67 511.902 2011.96 511.752 2006.81 510.409C2001.71 509.077 1998.04 506.545 1995.2 503.244C1992.33 499.905 1990.26 495.73 1988.46 491.058C1987.37 488.252 1986.44 485.416 1985.48 482.514C1984.81 480.489 1984.13 478.431 1983.38 476.328C1981.63 471.407 1981.15 468.542 1981.36 466.84C1981.46 466.065 1981.7 465.611 1981.98 465.294C1982.28 464.954 1982.76 464.627 1983.56 464.324C1984.99 463.786 1986.89 463.496 1989.49 463.102C1990.03 463.02 1990.61 462.933 1991.22 462.837C1994.59 462.309 1998.65 461.565 2003.17 459.96C2007.68 458.356 2012.29 455.912 2016.58 453.537C2017.39 453.086 2018.19 452.639 2018.97 452.2C2022.39 450.289 2025.53 448.533 2028.32 447.303C2030.02 446.551 2031.5 446.042 2032.73 445.814C2033.98 445.583 2034.82 445.669 2035.38 445.906C2036.28 446.287 2037.5 447.61 2037.5 452.499Z" fill="white" stroke="black" stroke-width="4"/>
<path d="M1501.85 686.542C1500.97 701.844 1494.56 727.136 1485.25 748.432C1480.6 759.074 1475.28 768.589 1469.66 775.322C1463.97 782.14 1458.36 785.654 1453.15 785.358C1439.65 784.59 1430.65 779.736 1424.63 772.579C1418.55 765.354 1415.34 755.575 1413.86 744.687C1412.39 733.812 1412.69 722.019 1413.47 710.931C1413.86 705.52 1414.36 700.301 1414.82 695.448L1414.85 695.107C1415.33 690.171 1415.76 685.602 1415.98 681.657C1417.72 651.112 1438.71 628.284 1462.02 629.61C1485.32 630.936 1503.58 655.998 1501.85 686.542Z" fill="white" stroke="black" stroke-width="4"/>
<path d="M1493.38 722.688L1493.3 722.926L1493.29 723.175C1492.72 733.066 1487.22 749.55 1478.94 763.429C1474.82 770.346 1470.07 776.492 1465.02 780.806C1459.95 785.132 1454.78 787.458 1449.72 787.17C1437.02 786.447 1428.53 783.049 1422.87 778.255C1417.21 773.467 1414.16 767.108 1412.66 760.058C1411.16 752.98 1411.25 745.296 1411.81 738.006C1412.08 734.449 1412.46 731.017 1412.82 727.808L1412.84 727.588C1413.21 724.337 1413.54 721.288 1413.69 718.646C1413.98 713.566 1415.25 712.255 1416.2 711.882C1416.79 711.652 1417.67 711.588 1418.97 711.84C1420.27 712.09 1421.81 712.612 1423.63 713.349C1425.07 713.935 1426.67 714.652 1428.39 715.426C1435.13 718.451 1443.84 722.365 1453.38 722.907C1462.83 723.445 1472.52 721.115 1480.1 719.294C1482.05 718.823 1483.87 718.387 1485.5 718.043C1487.53 717.614 1489.25 717.33 1490.65 717.255C1492.09 717.177 1492.94 717.338 1493.4 717.569C1493.71 717.722 1493.93 717.929 1494.02 718.557C1494.14 719.328 1494.02 720.626 1493.38 722.688Z" fill="white" stroke="black" stroke-width="4"/>
<path d="M1314.06 685.576C1314.06 700.896 1319.13 726.507 1327.39 748.296C1331.52 759.183 1336.39 768.984 1341.72 776.024C1347.12 783.146 1352.65 786.998 1358.02 786.998C1371.85 786.998 1381.33 782.654 1387.89 775.845C1394.51 768.976 1398.35 759.398 1400.49 748.617C1402.62 737.847 1403 726.06 1402.84 714.947C1402.76 709.523 1402.56 704.284 1402.37 699.413L1402.35 699.07C1402.16 694.116 1401.98 689.529 1401.98 685.576C1401.98 671.022 1390.48 657.9 1375.19 648.261C1359.98 638.669 1341.72 632.998 1329.5 632.998C1323.44 632.998 1319.76 634.391 1317.44 636.584C1315.11 638.796 1313.81 642.144 1313.25 646.811C1312.68 651.482 1312.86 657.16 1313.21 663.76C1313.27 664.871 1313.33 666.006 1313.4 667.163C1313.71 672.827 1314.06 679.033 1314.06 685.576Z" fill="white" stroke="black" stroke-width="4"/>
<path d="M1320.6 722.135L1320.66 722.381V722.635C1320.66 732.533 1325.31 749.298 1332.95 763.624C1336.75 770.762 1341.24 777.169 1346.14 781.765C1351.05 786.371 1356.21 789.002 1361.41 789.002C1374.42 789.002 1383.29 786.087 1389.35 781.615C1395.41 777.151 1398.88 770.975 1400.82 764.028C1402.76 757.053 1403.12 749.381 1402.97 742.072C1402.9 738.506 1402.71 735.059 1402.53 731.835L1402.52 731.614C1402.34 728.347 1402.17 725.284 1402.17 722.635C1402.17 717.565 1400.97 716.182 1399.99 715.747C1399.39 715.475 1398.48 715.363 1397.13 715.541C1395.78 715.718 1394.18 716.154 1392.28 716.787C1390.77 717.291 1389.1 717.917 1387.29 718.594C1380.25 721.23 1371.15 724.635 1361.41 724.635C1351.76 724.635 1342.03 721.764 1334.41 719.515C1332.44 718.934 1330.61 718.394 1328.96 717.956C1326.91 717.413 1325.17 717.031 1323.74 716.875C1322.27 716.715 1321.38 716.826 1320.88 717.038C1320.54 717.182 1320.31 717.385 1320.18 717.991C1320.01 718.746 1320.06 720.041 1320.6 722.135Z" fill="white" stroke="black" stroke-width="4"/>
<path d="M1329.44 747.735C1329.44 758.39 1344.42 787 1362.9 787C1401.5 787 1399.5 757.5 1401.5 747.735C1401.5 737.081 1381.37 747.735 1362.9 747.735C1344.42 747.735 1325.88 738.64 1329.44 747.735Z" fill="#B7AEBC" fill-opacity="0.65"/>
<path d="M1413.44 749.736C1416 779 1431.65 782.883 1450 785C1463 786.5 1482 757.765 1484 748.001C1484 737.346 1465.37 749.736 1446.9 749.736C1428.42 749.736 1409.88 740.64 1413.44 749.736Z" fill="#B7AEBC" fill-opacity="0.65"/>
<path d="M1399.84 633L1321.56 628L1318 644.5L1373.24 664L1407 663L1399.84 633Z" fill="white"/>
<path d="M1476 621L1366.56 628L1363 644.5L1418.24 664L1452 663L1476 640.5L1478.5 628.5L1476 621Z" fill="white"/>
<path d="M1385 655.5C1385 660.471 1369.55 651.5 1350.5 651.5C1331.45 651.5 1316 660.471 1316 655.5C1316 650.529 1331.45 644 1350.5 644C1369.55 644 1385 650.529 1385 655.5Z" fill="#34274E"/>
<path d="M1499 663.5C1499 668.471 1483.55 659.5 1464.5 659.5C1445.45 659.5 1430 668.471 1430 663.5C1430 658.529 1445.45 652 1464.5 652C1483.55 652 1499 658.529 1499 663.5Z" fill="#34274E"/>
<path d="M1539.02 638C1539.02 653.957 1525.65 667 1509.02 667C1492.39 667 1479.02 653.957 1479.02 638C1479.02 622.043 1492.39 609 1509.02 609C1525.65 609 1539.02 622.043 1539.02 638Z" fill="white" stroke="#34274E" stroke-width="4"/>
<defs>
<linearGradient id="paint0_linear_793_167" x1="1376.13" y1="892.836" x2="2069.51" y2="2069.43" gradientUnits="userSpaceOnUse">
<stop stop-color="#B4B4B4"/>
<stop offset="1" stop-color="#FFF4D7" stop-opacity="0"/>
</linearGradient>
<linearGradient id="paint1_linear_793_167" x1="1289.39" y1="489.027" x2="1491.63" y2="1546.54" gradientUnits="userSpaceOnUse">
<stop stop-color="white"/>
<stop offset="1" stop-color="white" stop-opacity="0"/>
</linearGradient>
<linearGradient id="paint2_linear_793_167" x1="1467.78" y1="1723.2" x2="1296.33" y2="660.258" gradientUnits="userSpaceOnUse">
<stop stop-color="#141414"/>
<stop offset="1" stop-color="white" stop-opacity="0"/>
</linearGradient>
<linearGradient id="paint3_linear_793_167" x1="1308.53" y1="606.72" x2="1394.76" y2="1049.63" gradientUnits="userSpaceOnUse">
<stop stop-color="white"/>
<stop offset="1" stop-color="white" stop-opacity="0"/>
</linearGradient>
<linearGradient id="paint4_linear_793_167" x1="1649.57" y1="900.955" x2="1649.57" y2="1030.15" gradientUnits="userSpaceOnUse">
<stop stop-color="#939393"/>
<stop offset="0.0001" stop-color="#939393" stop-opacity="0.84375"/>
<stop offset="0.0002" stop-color="#939393" stop-opacity="0"/>
</linearGradient>
<linearGradient id="paint5_linear_793_167" x1="1649.95" y1="901.332" x2="1649.31" y2="981.019" gradientUnits="userSpaceOnUse">
<stop stop-color="#616060"/>
<stop offset="1" stop-color="#939393" stop-opacity="0"/>
</linearGradient>
<linearGradient id="paint6_linear_793_167" x1="40.6008" y1="-2.42229e-08" x2="40.1865" y2="51.0642" gradientUnits="userSpaceOnUse">
<stop stop-color="#616060"/>
<stop offset="1" stop-color="#939393" stop-opacity="0"/>
</linearGradient>
<linearGradient id="paint7_linear_793_167" x1="40.6008" y1="-2.42229e-08" x2="40.1865" y2="51.0642" gradientUnits="userSpaceOnUse">
<stop stop-color="#616060"/>
<stop offset="1" stop-color="#939393" stop-opacity="0"/>
</linearGradient>
<linearGradient id="paint8_linear_793_167" x1="27.5652" y1="-1.64457e-08" x2="27.2839" y2="34.6692" gradientUnits="userSpaceOnUse">
<stop stop-color="#616060"/>
<stop offset="1" stop-color="#939393" stop-opacity="0"/>
</linearGradient>
<linearGradient id="paint9_linear_793_167" x1="27.5652" y1="-1.64457e-08" x2="27.2839" y2="34.6692" gradientUnits="userSpaceOnUse">
<stop stop-color="#616060"/>
<stop offset="1" stop-color="#939393" stop-opacity="0"/>
</linearGradient>
<linearGradient id="paint10_linear_793_167" x1="189.059" y1="-7.36303e-08" x2="188.236" y2="155.226" gradientUnits="userSpaceOnUse">
<stop stop-color="#616060"/>
<stop offset="1" stop-color="#939393" stop-opacity="0"/>
</linearGradient>
</defs>
</svg>
