<svg width="284" height="77" viewBox="0 0 284 77" fill="none" xmlns="http://www.w3.org/2000/svg">
<path d="M10.3035 11.7115L1.53455 5.75293V40.2708L10.3035 36.7779V11.7115Z" fill="#8131D8"/>
<path d="M181.736 9.24565L172.967 3.28711V37.8049L181.736 34.3121V9.24565Z" fill="#8131D8"/>
<path d="M16.0032 11.5059L24.3337 5.75293V39.6544L16.0032 36.367V11.5059Z" fill="#8131D8"/>
<path d="M187.436 9.04008L195.766 3.28711V37.1886L187.436 33.9011V9.04008Z" fill="#8131D8"/>
<path d="M72.782 10.2735L81.1125 4.52051V38.422L72.782 35.1345V10.2735Z" fill="#8131D8"/>
<path d="M130.657 9.86235L138.987 4.10938V38.0108L130.657 34.7234V9.86235Z" fill="#8131D8"/>
<path d="M229.746 9.60844L238.076 3.85547V37.7569L229.746 34.4695V9.60844Z" fill="#8131D8"/>
<path d="M116.627 44.7911L124.957 39.0381V72.9395L116.627 69.6521V44.7911Z" fill="#8131D8"/>
<path d="M274.029 44.3799L282.359 38.627V72.5284L274.029 69.241V44.3799Z" fill="#8131D8"/>
<path d="M30.2527 46.8457L38.5832 41.0928V74.9942L30.2527 71.7068V46.8457Z" fill="#8131D8"/>
<path d="M202.033 44.7911L210.364 39.0381V72.9395L202.033 69.6521V44.7911Z" fill="#8131D8"/>
<path d="M53.052 46.23L44.2831 40.2715V74.7893L53.052 71.2964V46.23Z" fill="#8131D8"/>
<path d="M224.832 44.1744L216.063 38.2158V72.7337L224.832 69.2408V44.1744Z" fill="#8131D8"/>
<path d="M67.0822 10.479L58.3133 4.52051V39.0383L67.0822 35.5455V10.479Z" fill="#8131D8"/>
<path d="M67.0822 10.479L58.3133 4.52051V39.0383L67.0822 35.5455V10.479Z" fill="#8131D8"/>
<path d="M110.488 44.9966L101.719 39.0381V73.5559L110.488 70.063V44.9966Z" fill="#8131D8"/>
<path d="M267.89 44.5855L259.122 38.627V73.1448L267.89 69.6519V44.5855Z" fill="#8131D8"/>
<path d="M153.456 9.65776L144.687 3.69922V38.2171L153.456 34.7242V9.65776Z" fill="#8131D8"/>
<path d="M252.545 9.40287L243.776 3.44434V37.9622L252.545 34.4693V9.40287Z" fill="#8131D8"/>
<rect x="56.5596" y="3.69922" width="1.31534" height="35.7506" rx="0.657669" fill="#6E22A9"/>
<rect x="71.0283" y="38.627" width="1.31534" height="35.7506" rx="0.657669" fill="#6E22A9"/>
<rect x="42.5293" y="39.4482" width="1.31534" height="35.7506" rx="0.657669" fill="#6E22A9"/>
<rect x="214.31" y="37.3945" width="1.31534" height="35.7506" rx="0.657669" fill="#6E22A9"/>
<rect x="28.0605" y="4.1084" width="1.31534" height="35.7506" rx="0.657669" fill="#6E22A9"/>
<rect x="199.841" y="2.05469" width="1.31534" height="35.7506" rx="0.657669" fill="#6E22A9"/>
<rect x="14.4687" y="40.2705" width="1.31534" height="35.7506" rx="0.657669" fill="#6E22A9"/>
<rect x="185.901" y="37.8047" width="1.31534" height="35.7506" rx="0.657669" fill="#6E22A9"/>
<rect y="4.93066" width="1.31534" height="35.7506" rx="0.657669" fill="#6E22A9"/>
<rect x="171.432" y="2.46484" width="1.31534" height="35.7506" rx="0.657669" fill="#6E22A9"/>
<rect x="85.4969" y="4.1084" width="1.31534" height="35.7506" rx="0.657669" fill="#6E22A9"/>
<rect x="256.929" y="0.821289" width="1.31534" height="35.7506" rx="0.657669" fill="#6E22A9"/>
<rect x="100.404" y="38.2158" width="1.31534" height="35.7506" rx="0.657669" fill="#6E22A9"/>
<rect x="257.806" y="37.8047" width="1.31534" height="35.7506" rx="0.657669" fill="#6E22A9"/>
<rect x="128.903" y="38.2158" width="1.31534" height="35.7506" rx="0.657669" fill="#6E22A9"/>
<rect x="227.992" y="37.9619" width="1.31534" height="35.7506" rx="0.657669" fill="#6E22A9"/>
<rect x="114.434" y="3.28613" width="1.31534" height="35.7506" rx="0.657669" fill="#6E22A9"/>
<rect x="142.933" y="2.87598" width="1.31534" height="35.7506" rx="0.657669" fill="#6E22A9"/>
<rect x="242.022" y="2.62305" width="1.31534" height="35.7506" rx="0.657669" fill="#6E22A9"/>
<rect x="157.402" y="37.9619" width="1.31534" height="35.7506" rx="0.657669" fill="#6E22A9"/>
<rect width="1.31534" height="35.7506" rx="0.657669" transform="matrix(-1 0 0 1 82.4279 3.69922)" fill="#6E22A9"/>
<rect width="1.31534" height="35.7506" rx="0.657669" transform="matrix(-1 0 0 1 96.8966 38.627)" fill="#6E22A9"/>
<rect width="1.31534" height="35.7506" rx="0.657669" transform="matrix(-1 0 0 1 68.3975 39.4482)" fill="#6E22A9"/>
<rect width="1.31534" height="35.7506" rx="0.657669" transform="matrix(-1 0 0 1 53.9288 4.1084)" fill="#6E22A9"/>
<rect width="1.31534" height="35.7506" rx="0.657669" transform="matrix(-1 0 0 1 225.709 2.05469)" fill="#6E22A9"/>
<rect width="1.31534" height="35.7506" rx="0.657669" transform="matrix(-1 0 0 1 40.337 40.2705)" fill="#6E22A9"/>
<rect width="1.31534" height="35.7506" rx="0.657669" transform="matrix(-1 0 0 1 212.117 38.2158)" fill="#6E22A9"/>
<rect width="1.31534" height="35.7506" rx="0.657669" transform="matrix(-1 0 0 1 25.8683 4.93066)" fill="#6E22A9"/>
<rect width="1.31534" height="35.7506" rx="0.657669" transform="matrix(-1 0 0 1 197.301 2.46484)" fill="#6E22A9"/>
<rect width="1.31534" height="35.7506" rx="0.657669" transform="matrix(-1 0 0 1 111.365 4.1084)" fill="#6E22A9"/>
<rect width="1.31534" height="35.7506" rx="0.657669" transform="matrix(-1 0 0 1 282.798 0.821289)" fill="#6E22A9"/>
<rect width="1.31534" height="35.7506" rx="0.657669" transform="matrix(-1 0 0 1 126.272 38.2158)" fill="#6E22A9"/>
<rect width="1.31534" height="35.7506" rx="0.657669" transform="matrix(-1 0 0 1 283.674 37.8047)" fill="#6E22A9"/>
<rect width="1.31534" height="35.7506" rx="0.657669" transform="matrix(-1 0 0 1 154.771 38.2158)" fill="#6E22A9"/>
<rect width="1.31534" height="35.7506" rx="0.657669" transform="matrix(-1 0 0 1 253.86 37.9619)" fill="#6E22A9"/>
<rect width="1.31534" height="35.7506" rx="0.657669" transform="matrix(-1 0 0 1 140.303 3.28613)" fill="#6E22A9"/>
<rect width="1.31534" height="35.7506" rx="0.657669" transform="matrix(-1 0 0 1 239.391 3.0332)" fill="#6E22A9"/>
<rect width="1.31534" height="35.7506" rx="0.657669" transform="matrix(-1 0 0 1 168.802 2.87598)" fill="#6E22A9"/>
<rect width="1.31534" height="35.7506" rx="0.657669" transform="matrix(-1 0 0 1 12.1914 40.6816)" fill="#6E22A9"/>
<rect width="1.31534" height="35.7506" rx="0.657669" transform="matrix(-1 0 0 1 183.624 38.2158)" fill="#6E22A9"/>
<rect x="67.0822" y="10.2734" width="1.31534" height="25.0665" rx="0.657669" fill="#6E22A9"/>
<rect x="81.5509" y="45.2012" width="1.31534" height="25.0665" rx="0.657669" fill="#6E22A9"/>
<rect x="53.052" y="46.0234" width="1.31534" height="25.0665" rx="0.657669" fill="#6E22A9"/>
<rect x="224.832" y="43.9688" width="1.31534" height="25.0665" rx="0.657669" fill="#6E22A9"/>
<rect x="38.5833" y="10.6836" width="1.31534" height="25.0665" rx="0.657669" fill="#6E22A9"/>
<rect x="210.364" y="8.62891" width="1.31534" height="25.0665" rx="0.657669" fill="#6E22A9"/>
<rect x="24.9915" y="46.8457" width="1.31534" height="25.0665" rx="0.657669" fill="#6E22A9"/>
<rect x="196.772" y="44.791" width="1.31534" height="25.0665" rx="0.657669" fill="#6E22A9"/>
<rect x="10.5227" y="11.5059" width="1.31534" height="25.0665" rx="0.657669" fill="#6E22A9"/>
<rect x="181.955" y="9.04004" width="1.31534" height="25.0665" rx="0.657669" fill="#6E22A9"/>
<rect x="96.0197" y="10.6836" width="1.31534" height="25.0665" rx="0.657669" fill="#6E22A9"/>
<rect x="267.452" y="7.39648" width="1.31534" height="25.0665" rx="0.657669" fill="#6E22A9"/>
<rect x="110.927" y="44.791" width="1.31534" height="25.0665" rx="0.657669" fill="#6E22A9"/>
<rect x="268.329" y="44.3799" width="1.31534" height="25.0665" rx="0.657669" fill="#6E22A9"/>
<rect x="139.426" y="44.791" width="1.31534" height="25.0665" rx="0.657669" fill="#6E22A9"/>
<rect x="238.515" y="44.5371" width="1.31534" height="25.0665" rx="0.657669" fill="#6E22A9"/>
<rect x="124.957" y="9.8623" width="1.31534" height="25.0665" rx="0.657669" fill="#6E22A9"/>
<rect x="153.456" y="9.45117" width="1.31534" height="25.0665" rx="0.657669" fill="#6E22A9"/>
<rect x="252.545" y="9.19727" width="1.31534" height="25.0665" rx="0.657669" fill="#6E22A9"/>
<rect x="167.925" y="44.5371" width="1.31534" height="25.0665" rx="0.657669" fill="#6E22A9"/>
<rect width="0.876892" height="25.4775" rx="0.438446" transform="matrix(-1 0 0 1 72.3436 9.8623)" fill="#6E22A9"/>
<rect width="0.876892" height="25.4775" rx="0.438446" transform="matrix(-1 0 0 1 86.8123 44.791)" fill="#6E22A9"/>
<rect width="0.876892" height="25.4775" rx="0.438446" transform="matrix(-1 0 0 1 58.3133 45.6123)" fill="#6E22A9"/>
<rect width="0.876892" height="25.4775" rx="0.438446" transform="matrix(-1 0 0 1 43.8445 10.2725)" fill="#6E22A9"/>
<rect width="0.876892" height="25.4775" rx="0.438446" transform="matrix(-1 0 0 1 215.625 8.21875)" fill="#6E22A9"/>
<rect width="0.876892" height="25.4775" rx="0.438446" transform="matrix(-1 0 0 1 30.2527 46.4346)" fill="#6E22A9"/>
<rect width="0.876892" height="25.4775" rx="0.438446" transform="matrix(-1 0 0 1 202.033 44.3799)" fill="#6E22A9"/>
<rect width="0.876892" height="25.4775" rx="0.438446" transform="matrix(-1 0 0 1 15.7841 11.0947)" fill="#6E22A9"/>
<rect width="0.876892" height="25.4775" rx="0.438446" transform="matrix(-1 0 0 1 187.216 8.62891)" fill="#6E22A9"/>
<rect width="0.876892" height="25.4775" rx="0.438446" transform="matrix(-1 0 0 1 101.281 10.2725)" fill="#6E22A9"/>
<rect width="0.876892" height="25.4775" rx="0.438446" transform="matrix(-1 0 0 1 272.713 6.98633)" fill="#6E22A9"/>
<rect width="0.876892" height="25.4775" rx="0.438446" transform="matrix(-1 0 0 1 116.188 44.3799)" fill="#6E22A9"/>
<rect width="0.876892" height="25.4775" rx="0.438446" transform="matrix(-1 0 0 1 273.59 43.9688)" fill="#6E22A9"/>
<rect width="0.876892" height="25.4775" rx="0.438446" transform="matrix(-1 0 0 1 144.687 44.3799)" fill="#6E22A9"/>
<rect width="0.876892" height="25.4775" rx="0.438446" transform="matrix(-1 0 0 1 243.776 44.126)" fill="#6E22A9"/>
<rect width="0.876892" height="25.4775" rx="0.438446" transform="matrix(-1 0 0 1 130.218 9.45117)" fill="#6E22A9"/>
<rect width="0.876892" height="25.4775" rx="0.438446" transform="matrix(-1 0 0 1 229.307 9.19727)" fill="#6E22A9"/>
<rect width="0.876892" height="25.4775" rx="0.438446" transform="matrix(-1 0 0 1 158.717 9.04004)" fill="#6E22A9"/>
<rect width="0.876892" height="25.4775" rx="0.438446" transform="matrix(-1 0 0 1 2.10718 46.8457)" fill="#6E22A9"/>
<rect width="0.876892" height="25.4775" rx="0.438446" transform="matrix(-1 0 0 1 173.539 44.3799)" fill="#6E22A9"/>
<rect width="0.839358" height="11.9329" rx="0.419679" transform="matrix(0.608062 0.793889 -0.929695 0.36833 68.1824 35.209)" fill="#6E22A9"/>
<rect width="0.839358" height="11.9329" rx="0.419679" transform="matrix(0.608062 0.793889 -0.929695 0.36833 82.6511 70.1377)" fill="#6E22A9"/>
<rect width="0.839358" height="11.9329" rx="0.419679" transform="matrix(0.608062 0.793889 -0.929695 0.36833 54.152 70.96)" fill="#6E22A9"/>
<rect width="0.839358" height="11.9329" rx="0.419679" transform="matrix(0.608062 0.793889 -0.929695 0.36833 225.932 68.9043)" fill="#6E22A9"/>
<rect width="0.839358" height="11.9329" rx="0.419679" transform="matrix(0.608062 0.793889 -0.929695 0.36833 39.6833 35.6201)" fill="#6E22A9"/>
<rect width="0.839358" height="11.9329" rx="0.419679" transform="matrix(0.608062 0.793889 -0.929695 0.36833 211.464 33.5654)" fill="#6E22A9"/>
<rect width="0.839358" height="11.9329" rx="0.419679" transform="matrix(0.608062 0.793889 -0.929695 0.36833 26.0915 71.7822)" fill="#6E22A9"/>
<rect width="0.839358" height="11.9329" rx="0.419679" transform="matrix(0.608062 0.793889 -0.929695 0.36833 197.872 69.7275)" fill="#6E22A9"/>
<rect width="0.839358" height="11.9329" rx="0.419679" transform="matrix(0.608062 0.793889 -0.929695 0.36833 11.6228 36.4414)" fill="#6E22A9"/>
<rect width="0.839358" height="11.9329" rx="0.419679" transform="matrix(0.608062 0.793889 -0.929695 0.36833 183.055 33.9766)" fill="#6E22A9"/>
<rect width="0.839358" height="11.9329" rx="0.419679" transform="matrix(0.608062 0.793889 -0.929695 0.36833 97.1198 35.6201)" fill="#6E22A9"/>
<rect width="0.839358" height="11.9329" rx="0.419679" transform="matrix(0.608062 0.793889 -0.929695 0.36833 268.552 32.333)" fill="#6E22A9"/>
<rect width="0.839358" height="11.9329" rx="0.419679" transform="matrix(0.608062 0.793889 -0.929695 0.36833 112.027 69.7275)" fill="#6E22A9"/>
<rect width="0.839358" height="11.9329" rx="0.419679" transform="matrix(0.608062 0.793889 -0.929695 0.36833 269.429 69.3164)" fill="#6E22A9"/>
<rect width="0.839358" height="11.9329" rx="0.419679" transform="matrix(0.608062 0.793889 -0.929695 0.36833 140.526 69.7275)" fill="#6E22A9"/>
<rect width="0.839358" height="11.9329" rx="0.419679" transform="matrix(0.608062 0.793889 -0.929695 0.36833 239.615 69.4736)" fill="#6E22A9"/>
<rect width="0.839358" height="11.9329" rx="0.419679" transform="matrix(0.608062 0.793889 -0.929695 0.36833 126.057 34.7979)" fill="#6E22A9"/>
<rect width="0.839358" height="11.9329" rx="0.419679" transform="matrix(0.608062 0.793889 -0.929695 0.36833 154.556 34.3877)" fill="#6E22A9"/>
<rect width="0.839358" height="11.9329" rx="0.419679" transform="matrix(0.608062 0.793889 -0.929695 0.36833 253.645 34.1338)" fill="#6E22A9"/>
<rect width="0.839358" height="11.9329" rx="0.419679" transform="matrix(0.608062 0.793889 -0.929695 0.36833 169.025 69.4736)" fill="#6E22A9"/>
<rect width="0.818874" height="11.2403" rx="0.409437" transform="matrix(-0.581217 0.813749 0.92038 0.391025 71.5893 34.9561)" fill="#6E22A9"/>
<rect width="0.818874" height="11.2403" rx="0.409437" transform="matrix(-0.581217 0.813749 0.92038 0.391025 86.058 69.8838)" fill="#6E22A9"/>
<rect width="0.818874" height="11.2403" rx="0.409437" transform="matrix(-0.581217 0.813749 0.92038 0.391025 57.559 70.7061)" fill="#6E22A9"/>
<rect width="0.818874" height="11.2403" rx="0.409437" transform="matrix(-0.581217 0.813749 0.92038 0.391025 43.0903 35.3662)" fill="#6E22A9"/>
<rect width="0.818874" height="11.2403" rx="0.409437" transform="matrix(-0.581217 0.813749 0.92038 0.391025 214.871 33.3115)" fill="#6E22A9"/>
<rect width="0.818874" height="11.2403" rx="0.409437" transform="matrix(-0.581217 0.813749 0.92038 0.391025 29.4985 71.5283)" fill="#6E22A9"/>
<rect width="0.818874" height="11.2403" rx="0.409437" transform="matrix(-0.581217 0.813749 0.92038 0.391025 201.279 69.4736)" fill="#6E22A9"/>
<rect width="0.818874" height="11.2403" rx="0.409437" transform="matrix(-0.581217 0.813749 0.92038 0.391025 15.0297 36.1885)" fill="#6E22A9"/>
<rect width="0.818874" height="11.2403" rx="0.409437" transform="matrix(-0.581217 0.813749 0.92038 0.391025 186.462 33.7227)" fill="#6E22A9"/>
<rect width="0.818874" height="11.2403" rx="0.409437" transform="matrix(-0.581217 0.813749 0.92038 0.391025 100.527 35.3662)" fill="#6E22A9"/>
<rect width="0.818874" height="11.2403" rx="0.409437" transform="matrix(-0.581217 0.813749 0.92038 0.391025 271.959 32.0791)" fill="#6E22A9"/>
<rect width="0.818874" height="11.2403" rx="0.409437" transform="matrix(-0.581217 0.813749 0.92038 0.391025 115.434 69.4736)" fill="#6E22A9"/>
<rect width="0.818874" height="11.2403" rx="0.409437" transform="matrix(-0.581217 0.813749 0.92038 0.391025 272.836 69.0625)" fill="#6E22A9"/>
<rect width="0.818874" height="11.2403" rx="0.409437" transform="matrix(-0.581217 0.813749 0.92038 0.391025 143.933 69.4736)" fill="#6E22A9"/>
<rect width="0.818874" height="11.2403" rx="0.409437" transform="matrix(-0.581217 0.813749 0.92038 0.391025 243.022 69.2197)" fill="#6E22A9"/>
<rect width="0.818874" height="11.2403" rx="0.409437" transform="matrix(-0.581217 0.813749 0.92038 0.391025 129.464 34.5449)" fill="#6E22A9"/>
<rect width="0.818874" height="11.2403" rx="0.409437" transform="matrix(-0.581217 0.813749 0.92038 0.391025 228.553 34.29)" fill="#6E22A9"/>
<rect width="0.818874" height="11.2403" rx="0.409437" transform="matrix(-0.581217 0.813749 0.92038 0.391025 157.963 34.1338)" fill="#6E22A9"/>
<rect width="0.818874" height="11.2403" rx="0.409437" transform="matrix(-0.581217 0.813749 0.92038 0.391025 1.35284 71.9385)" fill="#6E22A9"/>
<rect width="0.818874" height="11.2403" rx="0.409437" transform="matrix(-0.581217 0.813749 0.92038 0.391025 172.785 69.4736)" fill="#6E22A9"/>
<rect width="0.90728" height="12.3861" rx="0.45364" transform="matrix(-0.784219 0.620484 -0.837004 -0.547196 68.1671 9.9082)" fill="#6E22A9"/>
<rect width="0.90728" height="12.3861" rx="0.45364" transform="matrix(-0.784219 0.620484 -0.837004 -0.547196 82.6359 44.8359)" fill="#6E22A9"/>
<rect width="0.90728" height="12.3861" rx="0.45364" transform="matrix(-0.784219 0.620484 -0.837004 -0.547196 54.1368 45.6582)" fill="#6E22A9"/>
<rect width="0.90728" height="12.3861" rx="0.45364" transform="matrix(-0.784219 0.620484 -0.837004 -0.547196 225.917 43.6045)" fill="#6E22A9"/>
<rect width="0.90728" height="12.3861" rx="0.45364" transform="matrix(-0.784219 0.620484 -0.837004 -0.547196 39.6682 10.3184)" fill="#6E22A9"/>
<rect width="0.90728" height="12.3861" rx="0.45364" transform="matrix(-0.784219 0.620484 -0.837004 -0.547196 211.448 8.26465)" fill="#6E22A9"/>
<rect width="0.90728" height="12.3861" rx="0.45364" transform="matrix(-0.784219 0.620484 -0.837004 -0.547196 26.0764 46.4795)" fill="#6E22A9"/>
<rect width="0.90728" height="12.3861" rx="0.45364" transform="matrix(-0.784219 0.620484 -0.837004 -0.547196 197.509 44.0146)" fill="#6E22A9"/>
<rect width="0.90728" height="12.3861" rx="0.45364" transform="matrix(-0.784219 0.620484 -0.837004 -0.547196 11.6076 11.1406)" fill="#6E22A9"/>
<rect width="0.90728" height="12.3861" rx="0.45364" transform="matrix(-0.784219 0.620484 -0.837004 -0.547196 183.04 8.6748)" fill="#6E22A9"/>
<rect width="0.90728" height="12.3861" rx="0.45364" transform="matrix(-0.784219 0.620484 -0.837004 -0.547196 97.1046 10.3184)" fill="#6E22A9"/>
<rect width="0.90728" height="12.3861" rx="0.45364" transform="matrix(-0.784219 0.620484 -0.837004 -0.547196 268.537 7.03125)" fill="#6E22A9"/>
<rect width="0.90728" height="12.3861" rx="0.45364" transform="matrix(-0.784219 0.620484 -0.837004 -0.547196 112.012 44.4258)" fill="#6E22A9"/>
<rect width="0.90728" height="12.3861" rx="0.45364" transform="matrix(-0.784219 0.620484 -0.837004 -0.547196 269.414 44.0146)" fill="#6E22A9"/>
<rect width="0.90728" height="12.3861" rx="0.45364" transform="matrix(-0.784219 0.620484 -0.837004 -0.547196 140.511 44.4258)" fill="#6E22A9"/>
<rect width="0.90728" height="12.3861" rx="0.45364" transform="matrix(-0.784219 0.620484 -0.837004 -0.547196 239.599 44.1719)" fill="#6E22A9"/>
<rect width="0.90728" height="12.3861" rx="0.45364" transform="matrix(-0.784219 0.620484 -0.837004 -0.547196 126.042 9.49707)" fill="#6E22A9"/>
<rect width="0.90728" height="12.3861" rx="0.45364" transform="matrix(-0.784219 0.620484 -0.837004 -0.547196 154.541 9.08594)" fill="#6E22A9"/>
<rect width="0.90728" height="12.3861" rx="0.45364" transform="matrix(-0.784219 0.620484 -0.837004 -0.547196 253.63 8.83203)" fill="#6E22A9"/>
<rect width="0.90728" height="12.3861" rx="0.45364" transform="matrix(-0.784219 0.620484 -0.837004 -0.547196 169.01 44.1719)" fill="#6E22A9"/>
<rect width="0.87014" height="11.8068" rx="0.43507" transform="matrix(0.762517 0.646968 0.818824 -0.574045 71.6035 9.6543)" fill="#6E22A9"/>
<rect width="0.87014" height="11.8068" rx="0.43507" transform="matrix(0.762517 0.646968 0.818824 -0.574045 86.0721 44.583)" fill="#6E22A9"/>
<rect width="0.87014" height="11.8068" rx="0.43507" transform="matrix(0.762517 0.646968 0.818824 -0.574045 57.5732 45.4043)" fill="#6E22A9"/>
<rect width="0.87014" height="11.8068" rx="0.43507" transform="matrix(0.762517 0.646968 0.818824 -0.574045 43.1045 10.0645)" fill="#6E22A9"/>
<rect width="0.87014" height="11.8068" rx="0.43507" transform="matrix(0.762517 0.646968 0.818824 -0.574045 214.885 8.01074)" fill="#6E22A9"/>
<rect width="0.87014" height="11.8068" rx="0.43507" transform="matrix(0.762517 0.646968 0.818824 -0.574045 29.5127 46.2266)" fill="#6E22A9"/>
<rect width="0.87014" height="11.8068" rx="0.43507" transform="matrix(0.762517 0.646968 0.818824 -0.574045 201.293 44.1719)" fill="#6E22A9"/>
<rect width="0.87014" height="11.8068" rx="0.43507" transform="matrix(0.762517 0.646968 0.818824 -0.574045 15.0439 10.8867)" fill="#6E22A9"/>
<rect width="0.87014" height="11.8068" rx="0.43507" transform="matrix(0.762517 0.646968 0.818824 -0.574045 186.476 8.4209)" fill="#6E22A9"/>
<rect width="0.87014" height="11.8068" rx="0.43507" transform="matrix(0.762517 0.646968 0.818824 -0.574045 100.541 10.0645)" fill="#6E22A9"/>
<rect width="0.87014" height="11.8068" rx="0.43507" transform="matrix(0.762517 0.646968 0.818824 -0.574045 271.973 6.77734)" fill="#6E22A9"/>
<rect width="0.87014" height="11.8068" rx="0.43507" transform="matrix(0.762517 0.646968 0.818824 -0.574045 115.448 44.1719)" fill="#6E22A9"/>
<rect width="0.87014" height="11.8068" rx="0.43507" transform="matrix(0.762517 0.646968 0.818824 -0.574045 272.85 43.7607)" fill="#6E22A9"/>
<rect width="0.87014" height="11.8068" rx="0.43507" transform="matrix(0.762517 0.646968 0.818824 -0.574045 143.947 44.1719)" fill="#6E22A9"/>
<rect width="0.87014" height="11.8068" rx="0.43507" transform="matrix(0.762517 0.646968 0.818824 -0.574045 243.036 43.918)" fill="#6E22A9"/>
<rect width="0.87014" height="11.8068" rx="0.43507" transform="matrix(0.762517 0.646968 0.818824 -0.574045 129.478 9.24316)" fill="#6E22A9"/>
<rect width="0.87014" height="11.8068" rx="0.43507" transform="matrix(0.762517 0.646968 0.818824 -0.574045 228.567 8.99023)" fill="#6E22A9"/>
<rect width="0.87014" height="11.8068" rx="0.43507" transform="matrix(0.762517 0.646968 0.818824 -0.574045 157.977 8.83203)" fill="#6E22A9"/>
<rect width="0.87014" height="11.8068" rx="0.43507" transform="matrix(0.762517 0.646968 0.818824 -0.574045 1.36707 46.6377)" fill="#6E22A9"/>
<rect width="0.87014" height="11.8068" rx="0.43507" transform="matrix(0.762517 0.646968 0.818824 -0.574045 172.799 44.1719)" fill="#6E22A9"/>
</svg>
