<svg width="48" height="48" viewBox="0 0 48 48" fill="none" xmlns="http://www.w3.org/2000/svg">
<path d="M8.35 40V37H14.85L14.1 36.4C11.9667 34.7 10.4167 32.85 9.45 30.85C8.48333 28.85 8 26.6167 8 24.15C8 20.6167 9.04167 17.4417 11.125 14.625C13.2083 11.8083 15.95 9.86667 19.35 8.8V11.9C16.85 12.8667 14.8333 14.475 13.3 16.725C11.7667 18.975 11 21.45 11 24.15C11 26.25 11.3917 28.075 12.175 29.625C12.9583 31.175 14.0167 32.5167 15.35 33.65L16.85 34.7V28.5H19.85V40H8.35ZM28.7 39.25V36.1C31.2333 35.1333 33.25 33.525 34.75 31.275C36.25 29.025 37 26.55 37 23.85C37 22.25 36.6083 20.625 35.825 18.975C35.0417 17.325 34.0167 15.8667 32.75 14.6L31.3 13.3V19.5H28.3V8H39.8V11H33.25L34 11.7C36 13.5667 37.5 15.5667 38.5 17.7C39.5 19.8333 40 21.8833 40 23.85C40 27.3833 38.9667 30.5667 36.9 33.4C34.8333 36.2333 32.1 38.1833 28.7 39.25Z" fill="#8B36CF"/>
</svg>
