<svg width="48" height="48" viewBox="0 0 48 48" fill="none" xmlns="http://www.w3.org/2000/svg">
<path d="M48 45L44.4 32.25C45.0667 30.8167 45.55 29.3396 45.85 27.8187C46.15 26.2978 46.3 24.7416 46.3 23.15C46.3 20.35 45.775 17.7333 44.725 15.3C43.675 12.8667 42.2333 10.7333 40.4 8.9C38.5667 7.06667 36.4333 5.625 34 4.575C31.5667 3.525 28.95 3 26.15 3C23.35 3 20.7333 3.525 18.3 4.575C15.8667 5.625 13.7333 7.06667 11.9 8.9C10.0667 10.7333 8.625 12.8667 7.575 15.3C6.525 17.7333 6 20.35 6 23.15C6 25.95 6.525 28.5667 7.575 31C8.625 33.4333 10.0667 35.5667 11.9 37.4C13.7333 39.2333 15.8667 40.675 18.3 41.725C20.7333 42.775 23.35 43.3 26.15 43.3C27.7416 43.3 29.2978 43.15 30.8187 42.85C32.3396 42.55 33.8167 42.0667 35.25 41.4L48 45ZM43.45 40.45L36.55 38.55C36.0167 38.3833 35.5167 38.325 35.05 38.375C34.5833 38.425 34.1 38.55 33.6 38.75C32.4 39.2167 31.1778 39.5917 29.9333 39.875C28.6889 40.1583 27.4267 40.3 26.1467 40.3C21.3822 40.3 17.3333 38.6333 14 35.3C10.6667 31.9667 9 27.9167 9 23.15C9 18.3833 10.6667 14.3333 14 11C17.3333 7.66667 21.3833 6 26.15 6C30.9167 6 34.9667 7.6632 38.3 10.9896C41.6333 14.316 43.3 18.3757 43.3 23.1686C43.3 24.4562 43.2083 25.7333 43.025 27C42.8417 28.2667 42.4167 29.4667 41.75 30.6C41.5167 31.0565 41.3917 31.5394 41.375 32.0487C41.3583 32.5579 41.4167 33.0583 41.55 33.55L43.45 40.45Z" fill="#3A3A3A"/>
</svg>
