<svg width="48" height="48" viewBox="0 0 48 48" fill="none" xmlns="http://www.w3.org/2000/svg">
<path d="M9 43.9502C8.2 43.9502 7.5 43.6502 6.9 43.0502C6.3 42.4502 6 41.7502 6 40.9502V10.8002H9V40.9502H32.7V43.9502H9ZM15 37.9502C14.2 37.9502 13.5 37.6502 12.9 37.0502C12.3 36.4502 12 35.7502 12 34.9502V6.9502C12 6.1502 12.3 5.4502 12.9 4.8502C13.5 4.2502 14.2 3.9502 15 3.9502H37C37.8 3.9502 38.5 4.2502 39.1 4.8502C39.7 5.4502 40 6.1502 40 6.9502V34.9502C40 35.7502 39.7 36.4502 39.1 37.0502C38.5 37.6502 37.8 37.9502 37 37.9502H15ZM15 34.9502H37V6.9502H15V34.9502Z" fill="#F2F2F2"/>
</svg>
