<svg width="600" height="603" viewBox="0 0 600 603" fill="none" xmlns="http://www.w3.org/2000/svg">
<ellipse cx="300" cy="301.5" rx="300" ry="301.5" fill="#5CD3E9"/>
<path d="M422.8 345.083C422.8 402.763 401.81 459.52 299.785 459.52C197.76 459.52 183.84 402.763 183.84 345.083C183.84 287.403 230.284 281.335 299.785 281.335C369.286 281.335 422.8 287.403 422.8 345.083Z" fill="#FFF2CB"/>
<path d="M329.5 399.117C329.5 413.798 317.431 425.734 302.5 425.734C287.569 425.734 275.5 413.798 275.5 399.117C275.5 384.436 287.569 372.5 302.5 372.5C317.431 372.5 329.5 384.436 329.5 399.117Z" fill="#F51013" stroke="black" stroke-width="3"/>
<path d="M430.08 268.038C430.08 283.613 426.673 292.679 421.026 297.87C415.357 303.082 406.958 304.834 395.863 304.606C386.401 304.411 375.363 302.796 362.977 300.983C360.859 300.673 358.702 300.357 356.507 300.042C341.542 297.891 324.936 295.783 307.396 295.783C289.864 295.783 272.316 297.89 255.949 300.038C254.223 300.265 252.51 300.491 250.813 300.716C236.359 302.631 222.999 304.401 211.379 304.605C198.356 304.834 187.977 303.075 180.861 297.741C173.874 292.504 169.6 283.471 169.6 268.037C169.6 237.137 186.816 203.58 212.826 177.685C238.824 151.801 273.294 133.889 307.396 133.889C341.448 133.889 372.104 151.753 394.305 177.572C416.515 203.401 430.08 236.988 430.08 268.038Z" fill="#3A3D3E" stroke="#333333" stroke-width="4"/>
<path d="M209.36 305.475C194.28 323.869 173.4 352.608 162.96 339.963C162.96 339.963 167.6 313.695 167.6 299.727C167.6 285.76 171.236 274.437 175.72 274.437C180.205 274.437 209.36 291.508 209.36 305.475Z" fill="#333333"/>
<path d="M404.24 312.524C416.304 331.007 433.008 359.886 441.36 347.18C441.36 347.18 437.648 320.784 437.648 306.749C437.648 292.713 434.739 281.335 431.152 281.335C427.564 281.335 404.24 298.489 404.24 312.524Z" fill="#333333"/>
<path d="M502 168.676C502 257.185 494.311 303.072 483.704 326.789C478.429 338.583 472.505 344.728 466.595 347.984C460.66 351.253 454.477 351.759 448.32 351.759C445.891 351.759 444.101 350.798 442.559 348.732C440.925 346.544 439.602 343.138 438.415 338.367C436.949 332.474 435.791 324.972 434.393 315.912C433.518 310.243 432.548 303.963 431.351 297.086C425.184 261.682 413.146 211.874 377.242 154.311C377.512 122.738 400.229 104 423.96 104C429.824 104 437.666 105.994 446.227 109.617C454.752 113.225 463.838 118.384 472.157 124.563C480.481 130.746 487.978 137.905 493.378 145.49C498.785 153.084 502 160.978 502 168.676Z" fill="#3A3D3E" stroke="#333333" stroke-width="4"/>
<path d="M99.9999 170.67C99.9999 258.774 107.758 304.446 118.458 328.049C123.778 339.784 129.755 345.903 135.722 349.146C141.719 352.404 147.966 352.908 154.182 352.908C156.65 352.908 158.462 351.943 160.017 349.889C161.663 347.712 162.998 344.326 164.195 339.579C165.673 333.713 166.841 326.248 168.252 317.231C169.135 311.588 170.113 305.336 171.322 298.488C177.544 263.244 189.691 213.662 225.917 156.362C225.641 124.968 202.739 106.299 178.761 106.299C172.835 106.299 164.917 108.286 156.277 111.893C147.673 115.486 138.504 120.623 130.109 126.774C121.708 132.929 114.143 140.056 108.695 147.606C103.24 155.166 99.9999 163.018 99.9999 170.67Z" fill="#3A3D3E" stroke="#333333" stroke-width="4"/>
<path d="M161.618 328.253C161.711 323.085 166.607 319.36 171.613 320.65L177.837 322.254C181.37 323.165 183.84 326.352 183.84 330.001V503.251C183.84 507.669 180.258 511.251 175.84 511.251H166.466C161.991 511.251 158.386 507.581 158.467 503.107L161.618 328.253Z" fill="#333333"/>
<path d="M421.458 339.75C421.551 334.582 426.447 330.857 431.453 332.147L437.677 333.751C441.211 334.662 443.68 337.849 443.68 341.498V514.748C443.68 519.167 440.098 522.748 435.68 522.748H426.306C421.831 522.748 418.226 519.078 418.307 514.604L421.458 339.75Z" fill="#333333"/>
<path d="M371.499 353.654C368.868 356.531 365.535 359.957 361.5 363.932C361.499 363.932 361.499 363.933 361.498 363.933L359.5 365.868L357.502 363.933C357.501 363.933 357.501 363.932 357.5 363.932C353.465 359.957 350.132 356.531 347.501 353.654C344.87 350.779 342.783 348.217 341.235 345.968C339.685 343.717 338.612 341.7 338.002 339.913C337.389 338.12 337.083 336.31 337.083 334.482C337.083 330.903 338.199 327.944 340.415 325.569L340.415 325.569C342.631 323.195 345.353 322.015 348.615 322.015C350.702 322.015 352.628 322.544 354.402 323.603C356.181 324.665 357.742 326.206 359.082 328.243L359.48 328.847L359.905 328.261C361.48 326.088 363.131 324.515 364.85 323.514C366.57 322.513 368.412 322.015 370.385 322.015C373.647 322.015 376.369 323.195 378.585 325.569L378.944 325.234L378.585 325.569C380.801 327.944 381.917 330.903 381.917 334.482C381.917 336.31 381.611 338.12 380.998 339.913C380.387 341.7 379.315 343.717 377.765 345.968C376.216 348.217 374.13 350.779 371.499 353.654ZM359.149 362.064L359.5 362.411L359.851 362.065C363.721 358.251 366.909 354.977 369.414 352.244C371.919 349.51 373.917 347.108 375.404 345.037C376.889 342.968 377.947 341.101 378.56 339.441C379.171 337.787 379.479 336.136 379.479 334.491C379.479 331.675 378.642 329.322 376.941 327.475C375.235 325.624 373.041 324.702 370.398 324.702C368.311 324.702 366.384 325.389 364.629 326.742L364.934 327.138L364.629 326.742C362.949 328.037 361.593 329.822 360.552 332.077H358.393C357.387 329.861 356.05 328.087 354.374 326.775L354.075 327.158L354.374 326.775C352.619 325.401 350.691 324.702 348.602 324.702C345.959 324.702 343.764 325.624 342.059 327.475C340.357 329.323 339.521 331.679 339.521 334.502C339.521 336.15 339.829 337.81 340.439 339.479C341.052 341.154 342.11 343.038 343.595 345.128C345.083 347.221 347.094 349.625 349.624 352.339C352.151 355.05 355.326 358.292 359.149 362.064Z" fill="#D6289F" stroke="black"/>
<path d="M359.5 342.041C359.5 347.472 363.987 361.708 359.5 361.708C355.75 359.25 348.875 350.645 343.25 343.885C337 334.051 340.75 326.676 346.375 325.447C348.875 324.042 361.375 326.677 359.5 342.041Z" fill="#D6289F"/>
<path d="M360.222 341.889C360.222 347.362 355.784 361.708 360.222 361.708C363.931 359.231 370.73 350.559 376.294 343.746C382.475 333.837 378.766 326.404 373.203 325.166C370.731 323.75 358.368 326.405 360.222 341.889Z" fill="#D6289F"/>
<path d="M362 341.427C362 345.84 360.601 349.417 358.875 349.417C357.149 349.417 355.75 345.84 355.75 341.427C355.75 337.015 357 333.438 358.25 332.209C361.375 332.209 365.125 330.365 362 341.427Z" fill="#D6289F"/>
<path d="M244.5 319.934L249.245 334.804L249.578 335.848H250.674H266.104L253.598 345.099L252.734 345.738L253.061 346.761L257.824 361.685L245.392 352.489L244.5 351.829L243.608 352.489L231.176 361.685L235.939 346.761L236.266 345.738L235.402 345.099L222.896 335.848H238.326H239.422L239.755 334.804L244.5 319.934Z" fill="#36C2DC" stroke="black" stroke-width="3"/>
</svg>
