<svg width="600" height="600" viewBox="0 0 600 600" fill="none" xmlns="http://www.w3.org/2000/svg">
<circle cx="300" cy="300" r="300" fill="#DDC7B1"/>
<path d="M516 389.148C516 505.68 384.129 522 285.05 522C185.971 522 84 505.68 84 389.148C84 272.616 198.921 91 298 91C397.079 91 516 272.616 516 389.148Z" fill="#229A98"/>
<path d="M189.301 453.432C111.721 403.729 135.743 489.344 134.52 502.241C137.608 531.532 147.041 529.142 183.01 535.593C183.01 535.593 221.477 526.956 225.428 510.226C189.927 452.842 163.232 425.937 189.301 453.432Z" fill="#0F6A69"/>
<path d="M390.99 457.616C468.855 391.527 460.651 480.54 464.977 492.852C468.065 522.143 456.686 521.946 416.827 536.391C416.827 536.391 370.68 536.674 362.352 521.238C390.137 457.183 414.709 424.873 390.99 457.616Z" fill="#0F6A69"/>
<circle cx="254" cy="225" r="10" fill="#ECECEC"/>
<circle cx="345" cy="226" r="10" fill="#ECECEC"/>
</svg>
