<svg width="600" height="600" viewBox="0 0 600 600" fill="none" xmlns="http://www.w3.org/2000/svg">
<circle cx="300" cy="300" r="300" fill="#51475C"/>
<path d="M198.001 512.569C232.001 554.57 173.001 550.07 165.501 551.57C148.104 551.57 80.9999 497.159 80.9999 477.001C80.9999 477.001 77.6035 462.001 95.0004 462.001C119 493.501 215.001 484.002 198.001 512.569Z" fill="#378988"/>
<path d="M402.596 416.936C359.279 485.822 425.247 471.541 434.803 474C456.967 474 551.659 391.663 551.659 358.601C551.659 358.601 555.986 334 533.822 334C503.245 385.663 379.963 439 402.596 416.936Z" fill="#378988"/>
<path d="M431 518.222C431 592.105 379 591.5 314 599.5C249.383 599.5 197 592.105 197 518.222C209.447 342.197 249.383 384.444 314 384.444C378.617 384.444 416.064 346.892 431 518.222Z" fill="#229A98"/>
<path d="M251.047 417.976C191.845 385.273 194.113 510.5 200.5 510.5C202.577 530.208 206.5 537.5 229.5 558C229.5 558 279.077 565.303 276.999 545.596C232.778 522.767 260.5 415 251.047 417.976Z" fill="#0F6A69"/>
<path d="M410.505 518.693C448.918 475.7 446.296 535.285 448.708 543.621C450.785 563.329 445 563 425 571.999C425 571.999 402 586 397.501 575.498C410.505 533 421.988 497.135 410.505 518.693Z" fill="#0F6A69"/>
<ellipse cx="169" cy="519.5" rx="8" ry="8.5" fill="#FFEA2E"/>
<ellipse cx="469" cy="426.5" rx="8" ry="8.5" fill="#FFEA2E"/>
<ellipse cx="495" cy="404.5" rx="8" ry="8.5" fill="#FFEA2E"/>
<ellipse cx="519" cy="380.5" rx="8" ry="8.5" fill="#FFEA2E"/>
<ellipse cx="442.5" cy="441" rx="11.5" ry="11" fill="#FFEA2E"/>
<ellipse cx="138" cy="507.5" rx="8" ry="8.5" fill="#FFEA2E"/>
<ellipse cx="107.5" cy="492" rx="7.5" ry="7" fill="#FFEA2E"/>
<rect x="285" y="40" width="39" height="63" rx="19.5" fill="#FFE81D"/>
<path d="M493 297.815C493 379.553 387.076 391 307.492 391C227.907 391 146 379.553 146 297.815C146 216.077 227.907 95 307.492 95C387.076 95 493 216.077 493 297.815Z" fill="#6DC4A7"/>
<ellipse cx="314" cy="228" rx="92" ry="88" fill="white"/>
<ellipse cx="314" cy="228" rx="92" ry="88" fill="white"/>
<ellipse cx="314" cy="228" rx="92" ry="88" fill="white"/>
<ellipse cx="315" cy="228.5" rx="50" ry="47.5" fill="#1C243B"/>
<path d="M442.001 317C442.001 326.389 416.076 341.5 410.001 341.5C403.926 341.5 429.5 326.389 429.5 317C440 312 432.426 300 438.501 300C444.576 300 442.001 307.611 442.001 317Z" fill="#0E0C0C"/>
</svg>
