<svg width="600" height="602" viewBox="0 0 600 602" fill="none" xmlns="http://www.w3.org/2000/svg">
<circle cx="300" cy="300" r="300" fill="#8D2EF4"/>
<path d="M422.317 511.944C422.436 512.406 422.499 512.909 422.496 513.357C422.199 547.833 406.881 568.926 384.373 581.554C361.658 594.298 331.451 598.5 301.501 598.5C301.254 598.5 300.941 598.502 300.564 598.504C293.212 598.544 261.723 598.719 231.322 588.773C215.357 583.55 199.869 575.59 188.343 563.513C176.872 551.493 169.206 535.277 169.004 513.231C169.001 512.842 169.05 512.392 169.141 511.985C173.543 492.296 175.467 476.05 177.056 462.637C177.356 460.107 177.644 457.678 177.934 455.345C179.779 440.52 181.702 429.94 187.029 421.713C192.269 413.622 201.054 407.47 217.509 402.272C234.005 397.061 257.866 392.913 292.856 388.613C293.33 388.555 293.881 388.56 294.352 388.626C327.472 393.282 350.595 398.062 367.035 403.899C383.429 409.719 392.973 416.52 399.17 425.108C405.42 433.77 408.476 444.523 411.332 458.783C412.116 462.697 412.884 466.871 413.702 471.316C415.841 482.938 418.321 496.412 422.317 511.944Z" fill="white" stroke="black" stroke-width="5"/>
<path d="M500.5 249.34C500.5 341.818 410.939 417.5 299.5 417.5C188.061 417.5 98.5 341.818 98.5 249.34C98.5 156.862 188.061 81.1797 299.5 81.1797C410.939 81.1797 500.5 156.862 500.5 249.34Z" fill="white" stroke="black" stroke-width="5"/>
<path d="M425.818 297.403C386.464 327.519 340.499 327.902 297.522 289.615C207.148 349.314 153.236 287.982 140.79 236.405C134.47 170.217 207.782 97.5425 353.771 124.146C500.392 165.676 452.995 276.603 425.818 297.403Z" fill="black"/>
<ellipse cx="357.011" cy="238.957" rx="25.9115" ry="25.307" fill="#84F6D5"/>
<ellipse cx="241.989" cy="238.957" rx="25.9115" ry="25.307" fill="#84F6D5"/>
<path d="M387.582 508.372C384.51 486.79 382.502 464.332 395.23 436.312C399.648 432.732 400.358 432.098 400.831 431.705C411.221 445.563 424.913 463.904 434.016 483.933C443.407 504.594 447.75 526.695 438.88 547.333C418.744 562.395 407.236 568.985 399.69 571.723C395.937 573.085 393.195 573.48 390.871 573.498C389.313 573.51 387.958 573.36 386.511 573.177C393.959 551.777 391.171 532.829 388.358 513.705C388.097 511.93 387.835 510.153 387.582 508.372Z" fill="white" stroke="black" stroke-width="4"/>
<path d="M161.505 370.778C171.813 391.057 181.405 412.838 178.132 447.905C175.028 455.203 173.334 460.45 172.538 464.279C171.952 467.099 171.833 469.249 172.058 470.931C157.709 461.729 139.453 446.967 124.552 428.78C107.681 408.189 95.3253 383.477 97.4016 357.633C99.4506 343.29 107.343 329.402 116.603 319.282C121.232 314.225 126.147 310.17 130.754 307.492C134.546 305.289 137.978 304.105 140.798 303.926C140.401 329.745 149.618 347.656 158.949 365.789C159.802 367.448 160.657 369.109 161.505 370.778Z" fill="white" stroke="black" stroke-width="4"/>
</svg>
