<svg width="600" height="600" viewBox="0 0 600 600" fill="none" xmlns="http://www.w3.org/2000/svg">
<circle cx="300" cy="300" r="300" fill="#30E6BD"/>
<path d="M556.5 367C556.5 375.028 550.31 383.322 537.478 391.349C524.775 399.296 506.228 406.544 483.087 412.666C436.842 424.902 372.817 432.5 302 432.5C231.183 432.5 167.158 424.902 120.913 412.666C97.7721 406.544 79.2249 399.296 66.5222 391.349C53.6897 383.322 47.5 375.028 47.5 367C47.5 358.972 53.6897 350.678 66.5222 342.651C79.2249 334.704 97.7721 327.456 120.913 321.334C167.158 309.098 231.183 301.5 302 301.5C372.817 301.5 436.842 309.098 483.087 321.334C506.228 327.456 524.775 334.704 537.478 342.651C550.31 350.678 556.5 358.972 556.5 367Z" fill="#8331DB" stroke="#6F349C" stroke-width="5"/>
<path d="M556.5 351C556.5 359.028 550.31 367.322 537.478 375.349C524.775 383.296 506.228 390.544 483.087 396.666C436.842 408.902 372.817 416.5 302 416.5C231.183 416.5 167.158 408.902 120.913 396.666C97.7721 390.544 79.2249 383.296 66.5222 375.349C53.6897 367.322 47.5 359.028 47.5 351C47.5 342.972 53.6897 334.678 66.5222 326.651C79.2249 318.704 97.7721 311.456 120.913 305.334C167.158 293.098 231.183 285.5 302 285.5C372.817 285.5 436.842 293.098 483.087 305.334C506.228 311.456 524.775 318.704 537.478 326.651C550.31 334.678 556.5 342.972 556.5 351Z" fill="#E4C0FF" stroke="#7B13CB" stroke-width="5"/>
<path d="M551 338.5C551 359.763 446.138 397 310 397C173.862 397 58 359.763 58 338.5C58 317.237 168.362 284.5 304.5 284.5C440.638 284.5 551 317.237 551 338.5Z" fill="#DCAFFF"/>
<path d="M461 296.673C461 308.926 456.905 317.22 449.655 322.968C442.283 328.812 431.428 332.203 417.584 334.045C403.772 335.881 387.254 336.145 368.757 335.942C361.708 335.865 354.362 335.719 346.778 335.569C334.533 335.326 321.671 335.071 308.446 335.071C295.292 335.071 282.405 335.323 270.064 335.565C262.313 335.716 254.778 335.864 247.527 335.942C228.666 336.145 211.657 335.882 197.353 334.044C183.014 332.201 171.66 328.804 163.918 322.94C156.308 317.176 152 308.885 152 296.673C152 284.341 156.406 269.68 164.475 254.553C172.532 239.449 184.176 224 198.491 210.117C227.146 182.325 266.284 161 308.446 161C350.597 161 388.755 182.315 416.43 210.093C444.165 237.929 461 271.868 461 296.673Z" fill="#A04EF8" stroke="#6E22A9" stroke-width="4"/>
<rect x="77.7549" y="338" width="16" height="26" rx="6" transform="rotate(49.4467 77.7549 338)" fill="#2DF0C4"/>
<rect width="15.2571" height="24.3364" rx="6" transform="matrix(-0.604248 0.796797 0.719396 0.694601 533.214 333)" fill="#2DF0C4"/>
<rect x="121.236" y="360" width="16" height="26" rx="6" transform="rotate(25.6044 121.236 360)" fill="#2DF0C4"/>
<rect width="14.5371" height="25.4737" rx="6" transform="matrix(-0.879637 0.475645 0.390905 0.920431 494.68 355)" fill="#2DF0C4"/>
<rect x="177.919" y="376.571" width="16" height="26" rx="6" transform="rotate(4.6767 177.919 376.571)" fill="#2DF0C4"/>
<rect width="14.1927" height="25.9814" rx="6" transform="matrix(-0.995767 0.0919159 0.0723094 0.997382 444.445 371.571)" fill="#2DF0C4"/>
<rect x="240.281" y="382.459" width="16" height="26" rx="6" transform="rotate(1.08799 240.281 382.459)" fill="#2DF0C4"/>
<rect x="286.494" y="382" width="16" height="26" rx="6" transform="rotate(1.08799 286.494 382)" fill="#2DF0C4"/>
<rect x="332.706" y="381.541" width="16" height="26" rx="6" transform="rotate(1.08799 332.706 381.541)" fill="#2DF0C4"/>
<rect width="14.1805" height="25.999" rx="6" transform="matrix(-0.999771 0.0214241 0.0168283 0.999858 389.177 377.459)" fill="#2DF0C4"/>
</svg>
