<svg width="48" height="48" viewBox="0 0 48 48" fill="none" xmlns="http://www.w3.org/2000/svg">
<path d="M9 38.9996H11.2L33.35 16.8496L31.15 14.6496L9 36.7996V38.9996ZM39.7 14.6996L33.3 8.29961L35.4 6.19961C35.9667 5.63294 36.6667 5.34961 37.5 5.34961C38.3333 5.34961 39.0333 5.63294 39.6 6.19961L41.8 8.39961C42.3667 8.96628 42.65 9.66628 42.65 10.4996C42.65 11.3329 42.3667 12.0329 41.8 12.5996L39.7 14.6996ZM37.6 16.7996L12.4 41.9996H6V35.5996L31.2 10.3996L37.6 16.7996ZM32.25 15.7496L31.15 14.6496L33.35 16.8496L32.25 15.7496Z" fill="#1A1A1A"/>
</svg>
