<svg width="441" height="434" viewBox="0 0 441 434" fill="none" xmlns="http://www.w3.org/2000/svg">
<rect x="15" y="15" width="411" height="404" rx="85" stroke="#8B4AD1" stroke-width="30"/>
<path d="M106.25 324.333C100.85 324.333 96.125 322.32 92.075 318.295C88.025 314.27 86 309.574 86 304.208V129.791C86 124.424 88.025 119.729 92.075 115.704C96.125 111.679 100.85 109.666 106.25 109.666H335.75C341.15 109.666 345.875 111.679 349.925 115.704C353.975 119.729 356 124.424 356 129.791V304.208C356 309.574 353.975 314.27 349.925 318.295C345.875 322.32 341.15 324.333 335.75 324.333H106.25ZM221 227.5L106.25 157.5V304.208H335.75V157.5L221 227.5ZM221 202.5L334.4 129.791H107.938L221 202.5ZM106.25 157.5V129.791V304.208V157.5Z" fill="#8B4AD1"/>
</svg>
