<svg width="441" height="434" viewBox="0 0 441 434" fill="none" xmlns="http://www.w3.org/2000/svg">
<rect x="15" y="15" width="411" height="404" rx="85" stroke="#8B4AD1" stroke-width="30"/>
<rect x="216" y="171" width="67" height="236" fill="#8B4AD1"/>
<path d="M173 294L173 219L350 219L339.47 294L173 294Z" fill="#8B4AD1"/>
<path d="M349 97V171H216L233.849 127.092C236.433 120.735 242.096 116.147 248.851 114.937L349 97Z" fill="#8B4AD1"/>
<path d="M349 97V171H216L264.657 106.413C268.346 101.516 274.079 98.5812 280.209 98.4518L349 97Z" fill="#8B4AD1"/>
<path d="M291 144.451C291 160.832 236.849 171.873 221.923 171.873C207.918 193.14 222.947 141.652 224.436 137.175C230.442 121.505 257.556 98 272.482 98C287.408 98 291 128.069 291 144.451Z" fill="#8B4AD1"/>
</svg>
