<svg width="100" height="129" viewBox="0 0 100 129" fill="none" xmlns="http://www.w3.org/2000/svg">
<path d="M92 50C92 73.77 73.1744 93 50 93C26.8256 93 8 73.77 8 50C8 26.23 26.8256 7 50 7C73.1744 7 92 26.23 92 50Z" fill="#F0353C" stroke="#FFB2B5" stroke-width="2"/>
<rect width="3.45594" height="59.0224" rx="1.72797" transform="matrix(-0.724358 -0.689424 -0.716417 0.697672 72.1348 30.3828)" fill="#FF8A8F"/>
<rect width="3.44137" height="59.2704" rx="1.72069" transform="matrix(-0.642747 0.766078 0.789401 0.613878 27.2119 30.2598)" fill="#FF8A8F"/>
<rect width="3" height="51.2578" rx="1.5" transform="matrix(-0.711146 -0.703044 -0.703044 0.711146 69.17 33.1094)" fill="#FFBEC1"/>
<rect width="3" height="51.2578" rx="1.5" transform="matrix(-0.628363 0.77792 0.77792 0.628363 30.8851 33)" fill="#FFBEC1"/>
<circle cx="50" cy="50" r="48" stroke="#ED1C24" stroke-width="4"/>
<path d="M51.7661 122.412C50.7367 124.864 47.2633 124.864 46.2339 122.412L40.355 108.411C39.5249 106.434 40.9768 104.25 43.1211 104.25H54.8789C57.0232 104.25 58.4751 106.434 57.645 108.411L51.7661 122.412Z" fill="#F0353C"/>
</svg>
