<svg width="168" height="75" viewBox="0 0 168 75" fill="none" xmlns="http://www.w3.org/2000/svg">
<g filter="url(#filter0_d_528_22)">
<path d="M153 33.8416L152 32.5L144 33L149 40.5V51.5L144 58.5V63L153 59.2376V33.8416Z" fill="#9C74E1"/>
</g>
<path d="M13.2129 59H5.21484V35.5918H1.31836V27.623H5.21484V26.1289C5.21484 24.1953 5.57617 22.3789 6.29883 20.6797C7.04102 18.9805 8.04688 17.5059 9.31641 16.2559C10.6055 14.9863 12.0996 13.9902 13.7988 13.2676C15.498 12.5254 17.3145 12.1543 19.248 12.1543H25.2539V20.123H19.248C18.3887 20.123 17.5879 20.2793 16.8457 20.5918C16.123 20.8848 15.4883 21.3047 14.9414 21.8516C14.4141 22.3789 13.9941 23.0137 13.6816 23.7559C13.3691 24.4785 13.2129 25.2695 13.2129 26.1289V27.623H23.0273V35.5918H13.2129V59ZM36.7285 52.6035C36.9889 52.6849 37.2493 52.7419 37.5098 52.7744C37.7702 52.7907 38.0306 52.7988 38.291 52.7988C38.9421 52.7988 39.5687 52.7093 40.1709 52.5303C40.7731 52.3512 41.3346 52.099 41.8555 51.7734C42.3926 51.4316 42.8646 51.0247 43.2715 50.5527C43.6947 50.0645 44.0365 49.5273 44.2969 48.9414L49.1797 53.8486C48.5612 54.7275 47.8451 55.5169 47.0312 56.2168C46.2337 56.9167 45.363 57.5107 44.4189 57.999C43.4912 58.4873 42.5065 58.8535 41.4648 59.0977C40.4395 59.3581 39.3815 59.4883 38.291 59.4883C36.4518 59.4883 34.7184 59.1465 33.0908 58.4629C31.4795 57.7793 30.0635 56.8271 28.8428 55.6064C27.6383 54.3857 26.6862 52.9372 25.9863 51.2607C25.2865 49.568 24.9365 47.7126 24.9365 45.6943C24.9365 43.6273 25.2865 41.7393 25.9863 40.0303C26.6862 38.3213 27.6383 36.8646 28.8428 35.6602C30.0635 34.4557 31.4795 33.5199 33.0908 32.8525C34.7184 32.1852 36.4518 31.8516 38.291 31.8516C39.3815 31.8516 40.4476 31.9818 41.4893 32.2422C42.5309 32.5026 43.5156 32.877 44.4434 33.3652C45.3874 33.8535 46.2663 34.4557 47.0801 35.1719C47.8939 35.8717 48.61 36.6611 49.2285 37.54L36.7285 52.6035ZM40.1465 38.8584C39.8372 38.7445 39.528 38.6712 39.2188 38.6387C38.9258 38.6061 38.6165 38.5898 38.291 38.5898C37.3796 38.5898 36.5169 38.7607 35.7031 39.1025C34.9056 39.4281 34.2057 39.9001 33.6035 40.5186C33.0176 41.137 32.5537 41.8857 32.2119 42.7646C31.8701 43.6273 31.6992 44.6038 31.6992 45.6943C31.6992 45.9385 31.7074 46.2152 31.7236 46.5244C31.7562 46.8337 31.7969 47.151 31.8457 47.4766C31.9108 47.7858 31.984 48.0869 32.0654 48.3799C32.1468 48.6729 32.2526 48.9333 32.3828 49.1611L40.1465 38.8584ZM66.9531 59H51.7188V52.3594H66.9531C67.4089 52.3594 67.7995 52.1966 68.125 51.8711C68.4505 51.5456 68.6133 51.1549 68.6133 50.6992C68.6133 50.2272 68.4505 49.918 68.125 49.7715C67.7995 49.625 67.4089 49.5518 66.9531 49.5518H60.0195C58.8639 49.5518 57.7816 49.332 56.7725 48.8926C55.7633 48.4531 54.8844 47.859 54.1357 47.1104C53.387 46.3454 52.793 45.4583 52.3535 44.4492C51.9303 43.4401 51.7188 42.3577 51.7188 41.2021C51.7188 40.0465 51.9303 38.9642 52.3535 37.9551C52.793 36.946 53.387 36.0671 54.1357 35.3184C54.8844 34.5697 55.7633 33.9837 56.7725 33.5605C57.7816 33.1211 58.8639 32.9014 60.0195 32.9014H73.5205V39.542H60.0195C59.5638 39.542 59.1732 39.7048 58.8477 40.0303C58.5221 40.3558 58.3594 40.7464 58.3594 41.2021C58.3594 41.6742 58.5221 42.0811 58.8477 42.4229C59.1732 42.7484 59.5638 42.9111 60.0195 42.9111H66.9531C68.0924 42.9111 69.1667 43.1064 70.1758 43.4971C71.1849 43.8714 72.0638 44.4004 72.8125 45.084C73.5612 45.7676 74.1553 46.5895 74.5947 47.5498C75.0342 48.5101 75.2539 49.5599 75.2539 50.6992C75.2539 51.8548 75.0342 52.9372 74.5947 53.9463C74.1553 54.9391 73.5612 55.818 72.8125 56.583C72.0638 57.3317 71.1849 57.9258 70.1758 58.3652C69.1667 58.7884 68.0924 59 66.9531 59ZM93.1738 59H77.9395V52.3594H93.1738C93.6296 52.3594 94.0202 52.1966 94.3457 51.8711C94.6712 51.5456 94.834 51.1549 94.834 50.6992C94.834 50.2272 94.6712 49.918 94.3457 49.7715C94.0202 49.625 93.6296 49.5518 93.1738 49.5518H86.2402C85.0846 49.5518 84.0023 49.332 82.9932 48.8926C81.984 48.4531 81.1051 47.859 80.3564 47.1104C79.6077 46.3454 79.0137 45.4583 78.5742 44.4492C78.151 43.4401 77.9395 42.3577 77.9395 41.2021C77.9395 40.0465 78.151 38.9642 78.5742 37.9551C79.0137 36.946 79.6077 36.0671 80.3564 35.3184C81.1051 34.5697 81.984 33.9837 82.9932 33.5605C84.0023 33.1211 85.0846 32.9014 86.2402 32.9014H99.7412V39.542H86.2402C85.7845 39.542 85.3939 39.7048 85.0684 40.0303C84.7428 40.3558 84.5801 40.7464 84.5801 41.2021C84.5801 41.6742 84.7428 42.0811 85.0684 42.4229C85.3939 42.7484 85.7845 42.9111 86.2402 42.9111H93.1738C94.3132 42.9111 95.3874 43.1064 96.3965 43.4971C97.4056 43.8714 98.2845 44.4004 99.0332 45.084C99.7819 45.7676 100.376 46.5895 100.815 47.5498C101.255 48.5101 101.475 49.5599 101.475 50.6992C101.475 51.8548 101.255 52.9372 100.815 53.9463C100.376 54.9391 99.7819 55.818 99.0332 56.583C98.2845 57.3317 97.4056 57.9258 96.3965 58.3652C95.3874 58.7884 94.3132 59 93.1738 59ZM118.149 59C116.538 59 115.024 58.6989 113.608 58.0967C112.192 57.4782 110.947 56.64 109.873 55.582C108.815 54.5078 107.977 53.2627 107.358 51.8467C106.756 50.4307 106.455 48.917 106.455 47.3057V39.542H103.208V32.9014H106.455V22.4521H113.096V32.9014H123.203V39.542H113.096V47.3057C113.096 48.0055 113.226 48.6647 113.486 49.2832C113.747 49.8854 114.105 50.4144 114.561 50.8701C115.016 51.3258 115.553 51.6921 116.172 51.9688C116.79 52.2292 117.45 52.3594 118.149 52.3594H123.203V59H118.149ZM152.28 59H150.669L148.081 55.4111C147.446 55.9808 146.771 56.5179 146.055 57.0225C145.355 57.5107 144.614 57.9421 143.833 58.3164C143.052 58.6745 142.246 58.9593 141.416 59.1709C140.602 59.3825 139.772 59.4883 138.926 59.4883C137.087 59.4883 135.353 59.179 133.726 58.5605C132.114 57.9421 130.698 57.0469 129.478 55.875C128.273 54.6868 127.321 53.2383 126.621 51.5293C125.921 49.8203 125.571 47.8753 125.571 45.6943C125.571 43.6598 125.921 41.7962 126.621 40.1035C127.321 38.3945 128.273 36.9297 129.478 35.709C130.698 34.4883 132.114 33.5443 133.726 32.877C135.353 32.1934 137.087 31.8516 138.926 31.8516C139.772 31.8516 140.61 31.9574 141.44 32.1689C142.271 32.3805 143.076 32.6735 143.857 33.0479C144.639 33.4222 145.379 33.8617 146.079 34.3662C146.795 34.8708 147.463 35.416 148.081 36.002L150.669 32.9014H152.28V59ZM145.566 45.6943C145.566 44.7829 145.387 43.904 145.029 43.0576C144.688 42.195 144.215 41.4382 143.613 40.7871C143.011 40.1198 142.303 39.5908 141.489 39.2002C140.692 38.7933 139.837 38.5898 138.926 38.5898C138.014 38.5898 137.152 38.7445 136.338 39.0537C135.54 39.363 134.84 39.8187 134.238 40.4209C133.652 41.0231 133.188 41.7718 132.847 42.667C132.505 43.5459 132.334 44.555 132.334 45.6943C132.334 46.8337 132.505 47.8509 132.847 48.7461C133.188 49.625 133.652 50.3656 134.238 50.9678C134.84 51.57 135.54 52.0257 136.338 52.335C137.152 52.6442 138.014 52.7988 138.926 52.7988C139.837 52.7988 140.692 52.6035 141.489 52.2129C142.303 51.806 143.011 51.277 143.613 50.626C144.215 49.9587 144.688 49.2018 145.029 48.3555C145.387 47.4928 145.566 46.6058 145.566 45.6943Z" fill="#9C74E1"/>
<g filter="url(#filter1_d_528_22)">
<path d="M155 33.8416L164 25V63L155 59.2376V33.8416Z" fill="#9C74E1"/>
</g>
<path d="M113 22.6535L106 18V38L113 36.0198V22.6535Z" fill="#9C74E1"/>
<defs>
<filter id="filter0_d_528_22" x="140" y="32.5" width="17" height="38.5" filterUnits="userSpaceOnUse" color-interpolation-filters="sRGB">
<feFlood flood-opacity="0" result="BackgroundImageFix"/>
<feColorMatrix in="SourceAlpha" type="matrix" values="0 0 0 0 0 0 0 0 0 0 0 0 0 0 0 0 0 0 127 0" result="hardAlpha"/>
<feOffset dy="4"/>
<feGaussianBlur stdDeviation="2"/>
<feComposite in2="hardAlpha" operator="out"/>
<feColorMatrix type="matrix" values="0 0 0 0 0.870588 0 0 0 0 0.827451 0 0 0 0 0.996078 0 0 0 1 0"/>
<feBlend mode="normal" in2="BackgroundImageFix" result="effect1_dropShadow_528_22"/>
<feBlend mode="normal" in="SourceGraphic" in2="effect1_dropShadow_528_22" result="shape"/>
</filter>
<filter id="filter1_d_528_22" x="151" y="25" width="17" height="46" filterUnits="userSpaceOnUse" color-interpolation-filters="sRGB">
<feFlood flood-opacity="0" result="BackgroundImageFix"/>
<feColorMatrix in="SourceAlpha" type="matrix" values="0 0 0 0 0 0 0 0 0 0 0 0 0 0 0 0 0 0 127 0" result="hardAlpha"/>
<feOffset dy="4"/>
<feGaussianBlur stdDeviation="2"/>
<feComposite in2="hardAlpha" operator="out"/>
<feColorMatrix type="matrix" values="0 0 0 0 0.870588 0 0 0 0 0.827451 0 0 0 0 0.996078 0 0 0 1 0"/>
<feBlend mode="normal" in2="BackgroundImageFix" result="effect1_dropShadow_528_22"/>
<feBlend mode="normal" in="SourceGraphic" in2="effect1_dropShadow_528_22" result="shape"/>
</filter>
</defs>
</svg>
