<svg width="371" height="75" viewBox="0 0 371 75" fill="none" xmlns="http://www.w3.org/2000/svg">
<path d="M13.2129 59H5.21484V35.5918H1.31836V27.623H5.21484V26.1289C5.21484 24.1953 5.57617 22.3789 6.29883 20.6797C7.04102 18.9805 8.04688 17.5059 9.31641 16.2559C10.6055 14.9863 12.0996 13.9902 13.7988 13.2676C15.498 12.5254 17.3145 12.1543 19.248 12.1543H25.2539V20.123H19.248C18.3887 20.123 17.5879 20.2793 16.8457 20.5918C16.123 20.8848 15.4883 21.3047 14.9414 21.8516C14.4141 22.3789 13.9941 23.0137 13.6816 23.7559C13.3691 24.4785 13.2129 25.2695 13.2129 26.1289V27.623H23.0273V35.5918H13.2129V59ZM36.7285 52.6035C36.9889 52.6849 37.2493 52.7419 37.5098 52.7744C37.7702 52.7907 38.0306 52.7988 38.291 52.7988C38.9421 52.7988 39.5687 52.7093 40.1709 52.5303C40.7731 52.3512 41.3346 52.099 41.8555 51.7734C42.3926 51.4316 42.8646 51.0247 43.2715 50.5527C43.6947 50.0645 44.0365 49.5273 44.2969 48.9414L49.1797 53.8486C48.5612 54.7275 47.8451 55.5169 47.0312 56.2168C46.2337 56.9167 45.363 57.5107 44.4189 57.999C43.4912 58.4873 42.5065 58.8535 41.4648 59.0977C40.4395 59.3581 39.3815 59.4883 38.291 59.4883C36.4518 59.4883 34.7184 59.1465 33.0908 58.4629C31.4795 57.7793 30.0635 56.8271 28.8428 55.6064C27.6383 54.3857 26.6862 52.9372 25.9863 51.2607C25.2865 49.568 24.9365 47.7126 24.9365 45.6943C24.9365 43.6273 25.2865 41.7393 25.9863 40.0303C26.6862 38.3213 27.6383 36.8646 28.8428 35.6602C30.0635 34.4557 31.4795 33.5199 33.0908 32.8525C34.7184 32.1852 36.4518 31.8516 38.291 31.8516C39.3815 31.8516 40.4476 31.9818 41.4893 32.2422C42.5309 32.5026 43.5156 32.877 44.4434 33.3652C45.3874 33.8535 46.2663 34.4557 47.0801 35.1719C47.8939 35.8717 48.61 36.6611 49.2285 37.54L36.7285 52.6035ZM40.1465 38.8584C39.8372 38.7445 39.528 38.6712 39.2188 38.6387C38.9258 38.6061 38.6165 38.5898 38.291 38.5898C37.3796 38.5898 36.5169 38.7607 35.7031 39.1025C34.9056 39.4281 34.2057 39.9001 33.6035 40.5186C33.0176 41.137 32.5537 41.8857 32.2119 42.7646C31.8701 43.6273 31.6992 44.6038 31.6992 45.6943C31.6992 45.9385 31.7074 46.2152 31.7236 46.5244C31.7562 46.8337 31.7969 47.151 31.8457 47.4766C31.9108 47.7858 31.984 48.0869 32.0654 48.3799C32.1468 48.6729 32.2526 48.9333 32.3828 49.1611L40.1465 38.8584ZM66.9531 59H51.7188V52.3594H66.9531C67.4089 52.3594 67.7995 52.1966 68.125 51.8711C68.4505 51.5456 68.6133 51.1549 68.6133 50.6992C68.6133 50.2272 68.4505 49.918 68.125 49.7715C67.7995 49.625 67.4089 49.5518 66.9531 49.5518H60.0195C58.8639 49.5518 57.7816 49.332 56.7725 48.8926C55.7633 48.4531 54.8844 47.859 54.1357 47.1104C53.387 46.3454 52.793 45.4583 52.3535 44.4492C51.9303 43.4401 51.7188 42.3577 51.7188 41.2021C51.7188 40.0465 51.9303 38.9642 52.3535 37.9551C52.793 36.946 53.387 36.0671 54.1357 35.3184C54.8844 34.5697 55.7633 33.9837 56.7725 33.5605C57.7816 33.1211 58.8639 32.9014 60.0195 32.9014H73.5205V39.542H60.0195C59.5638 39.542 59.1732 39.7048 58.8477 40.0303C58.5221 40.3558 58.3594 40.7464 58.3594 41.2021C58.3594 41.6742 58.5221 42.0811 58.8477 42.4229C59.1732 42.7484 59.5638 42.9111 60.0195 42.9111H66.9531C68.0924 42.9111 69.1667 43.1064 70.1758 43.4971C71.1849 43.8714 72.0638 44.4004 72.8125 45.084C73.5612 45.7676 74.1553 46.5895 74.5947 47.5498C75.0342 48.5101 75.2539 49.5599 75.2539 50.6992C75.2539 51.8548 75.0342 52.9372 74.5947 53.9463C74.1553 54.9391 73.5612 55.818 72.8125 56.583C72.0638 57.3317 71.1849 57.9258 70.1758 58.3652C69.1667 58.7884 68.0924 59 66.9531 59ZM93.1738 59H77.9395V52.3594H93.1738C93.6296 52.3594 94.0202 52.1966 94.3457 51.8711C94.6712 51.5456 94.834 51.1549 94.834 50.6992C94.834 50.2272 94.6712 49.918 94.3457 49.7715C94.0202 49.625 93.6296 49.5518 93.1738 49.5518H86.2402C85.0846 49.5518 84.0023 49.332 82.9932 48.8926C81.984 48.4531 81.1051 47.859 80.3564 47.1104C79.6077 46.3454 79.0137 45.4583 78.5742 44.4492C78.151 43.4401 77.9395 42.3577 77.9395 41.2021C77.9395 40.0465 78.151 38.9642 78.5742 37.9551C79.0137 36.946 79.6077 36.0671 80.3564 35.3184C81.1051 34.5697 81.984 33.9837 82.9932 33.5605C84.0023 33.1211 85.0846 32.9014 86.2402 32.9014H99.7412V39.542H86.2402C85.7845 39.542 85.3939 39.7048 85.0684 40.0303C84.7428 40.3558 84.5801 40.7464 84.5801 41.2021C84.5801 41.6742 84.7428 42.0811 85.0684 42.4229C85.3939 42.7484 85.7845 42.9111 86.2402 42.9111H93.1738C94.3132 42.9111 95.3874 43.1064 96.3965 43.4971C97.4056 43.8714 98.2845 44.4004 99.0332 45.084C99.7819 45.7676 100.376 46.5895 100.815 47.5498C101.255 48.5101 101.475 49.5599 101.475 50.6992C101.475 51.8548 101.255 52.9372 100.815 53.9463C100.376 54.9391 99.7819 55.818 99.0332 56.583C98.2845 57.3317 97.4056 57.9258 96.3965 58.3652C95.3874 58.7884 94.3132 59 93.1738 59ZM118.149 59C116.538 59 115.024 58.6989 113.608 58.0967C112.192 57.4782 110.947 56.64 109.873 55.582C108.815 54.5078 107.977 53.2627 107.358 51.8467C106.756 50.4307 106.455 48.917 106.455 47.3057V39.542H103.208V32.9014H106.455V22.4521H113.096V32.9014H123.203V39.542H113.096V47.3057C113.096 48.0055 113.226 48.6647 113.486 49.2832C113.747 49.8854 114.105 50.4144 114.561 50.8701C115.016 51.3258 115.553 51.6921 116.172 51.9688C116.79 52.2292 117.45 52.3594 118.149 52.3594H123.203V59H118.149ZM152.28 59H150.669L148.081 55.4111C147.446 55.9808 146.771 56.5179 146.055 57.0225C145.355 57.5107 144.614 57.9421 143.833 58.3164C143.052 58.6745 142.246 58.9593 141.416 59.1709C140.602 59.3825 139.772 59.4883 138.926 59.4883C137.087 59.4883 135.353 59.179 133.726 58.5605C132.114 57.9421 130.698 57.0469 129.478 55.875C128.273 54.6868 127.321 53.2383 126.621 51.5293C125.921 49.8203 125.571 47.8753 125.571 45.6943C125.571 43.6598 125.921 41.7962 126.621 40.1035C127.321 38.3945 128.273 36.9297 129.478 35.709C130.698 34.4883 132.114 33.5443 133.726 32.877C135.353 32.1934 137.087 31.8516 138.926 31.8516C139.772 31.8516 140.61 31.9574 141.44 32.1689C142.271 32.3805 143.076 32.6735 143.857 33.0479C144.639 33.4222 145.379 33.8617 146.079 34.3662C146.795 34.8708 147.463 35.416 148.081 36.002L150.669 32.9014H152.28V59ZM145.566 45.6943C145.566 44.7829 145.387 43.904 145.029 43.0576C144.688 42.195 144.215 41.4382 143.613 40.7871C143.011 40.1198 142.303 39.5908 141.489 39.2002C140.692 38.7933 139.837 38.5898 138.926 38.5898C138.014 38.5898 137.152 38.7445 136.338 39.0537C135.54 39.363 134.84 39.8187 134.238 40.4209C133.652 41.0231 133.188 41.7718 132.847 42.667C132.505 43.5459 132.334 44.555 132.334 45.6943C132.334 46.8337 132.505 47.8509 132.847 48.7461C133.188 49.625 133.652 50.3656 134.238 50.9678C134.84 51.57 135.54 52.0257 136.338 52.335C137.152 52.6442 138.014 52.7988 138.926 52.7988C139.837 52.7988 140.692 52.6035 141.489 52.2129C142.303 51.806 143.011 51.277 143.613 50.626C144.215 49.9587 144.688 49.2018 145.029 48.3555C145.387 47.4928 145.566 46.6058 145.566 45.6943Z" fill="#9C74E1"/>
<path d="M209.856 61H208.245L205.657 57.4111C205.022 57.9808 204.347 58.5179 203.631 59.0225C202.931 59.5107 202.19 59.9421 201.409 60.3164C200.628 60.6745 199.822 60.9593 198.992 61.1709C198.178 61.3825 197.348 61.4883 196.502 61.4883C194.663 61.4883 192.929 61.179 191.302 60.5605C189.69 59.9421 188.274 59.0469 187.054 57.875C185.849 56.6868 184.897 55.2383 184.197 53.5293C183.497 51.8203 183.147 49.8753 183.147 47.6943C183.147 45.6598 183.497 43.7962 184.197 42.1035C184.897 40.3945 185.849 38.9297 187.054 37.709C188.274 36.4883 189.69 35.5443 191.302 34.877C192.929 34.1934 194.663 33.8516 196.502 33.8516C197.348 33.8516 198.187 33.9574 199.017 34.1689C199.847 34.3805 200.652 34.6735 201.434 35.0479C202.215 35.4222 202.955 35.8617 203.655 36.3662C204.371 36.8708 205.039 37.416 205.657 38.002L208.245 34.9014H209.856V61ZM203.143 47.6943C203.143 46.7829 202.964 45.904 202.605 45.0576C202.264 44.195 201.792 43.4382 201.189 42.7871C200.587 42.1198 199.879 41.5908 199.065 41.2002C198.268 40.7933 197.413 40.5898 196.502 40.5898C195.59 40.5898 194.728 40.7445 193.914 41.0537C193.117 41.363 192.417 41.8187 191.814 42.4209C191.229 43.0231 190.765 43.7718 190.423 44.667C190.081 45.5459 189.91 46.555 189.91 47.6943C189.91 48.8337 190.081 49.8509 190.423 50.7461C190.765 51.625 191.229 52.3656 191.814 52.9678C192.417 53.57 193.117 54.0257 193.914 54.335C194.728 54.6442 195.59 54.7988 196.502 54.7988C197.413 54.7988 198.268 54.6035 199.065 54.2129C199.879 53.806 200.587 53.277 201.189 52.626C201.792 51.9587 202.264 51.2018 202.605 50.3555C202.964 49.4928 203.143 48.6058 203.143 47.6943ZM237.811 40.0527L232.928 44.96C232.684 44.2764 232.35 43.666 231.927 43.1289C231.504 42.5755 231.023 42.1117 230.486 41.7373C229.965 41.363 229.396 41.0781 228.777 40.8828C228.159 40.6875 227.524 40.5898 226.873 40.5898C225.962 40.5898 225.099 40.777 224.285 41.1514C223.488 41.5257 222.788 42.0547 222.186 42.7383C221.6 43.4056 221.136 44.2031 220.794 45.1309C220.452 46.0586 220.281 47.084 220.281 48.207C220.281 49.1185 220.452 49.973 220.794 50.7705C221.136 51.568 221.6 52.2679 222.186 52.8701C222.788 53.4723 223.488 53.9443 224.285 54.2861C225.099 54.6279 225.962 54.7988 226.873 54.7988C227.524 54.7988 228.151 54.7093 228.753 54.5303C229.355 54.3512 229.917 54.099 230.438 53.7734C230.975 53.4316 231.447 53.0247 231.854 52.5527C232.277 52.0645 232.618 51.5273 232.879 50.9414L237.762 55.8486C237.143 56.7275 236.427 57.5169 235.613 58.2168C234.816 58.9167 233.945 59.5107 233.001 59.999C232.073 60.4873 231.089 60.8535 230.047 61.0977C229.021 61.3581 227.964 61.4883 226.873 61.4883C225.034 61.4883 223.3 61.1465 221.673 60.4629C220.062 59.763 218.646 58.8109 217.425 57.6064C216.22 56.402 215.268 54.9941 214.568 53.3828C213.868 51.7715 213.519 50.0462 213.519 48.207C213.519 46.2051 213.868 44.3333 214.568 42.5918C215.268 40.8503 216.22 39.3366 217.425 38.0508C218.646 36.7487 220.062 35.7233 221.673 34.9746C223.3 34.2259 225.034 33.8516 226.873 33.8516C227.964 33.8516 229.03 33.9899 230.071 34.2666C231.129 34.5433 232.13 34.9502 233.074 35.4873C234.035 36.0081 234.913 36.651 235.711 37.416C236.525 38.181 237.225 39.0599 237.811 40.0527ZM263.543 40.0527L258.66 44.96C258.416 44.2764 258.082 43.666 257.659 43.1289C257.236 42.5755 256.756 42.1117 256.219 41.7373C255.698 41.363 255.128 41.0781 254.51 40.8828C253.891 40.6875 253.257 40.5898 252.605 40.5898C251.694 40.5898 250.831 40.777 250.018 41.1514C249.22 41.5257 248.52 42.0547 247.918 42.7383C247.332 43.4056 246.868 44.2031 246.526 45.1309C246.185 46.0586 246.014 47.084 246.014 48.207C246.014 49.1185 246.185 49.973 246.526 50.7705C246.868 51.568 247.332 52.2679 247.918 52.8701C248.52 53.4723 249.22 53.9443 250.018 54.2861C250.831 54.6279 251.694 54.7988 252.605 54.7988C253.257 54.7988 253.883 54.7093 254.485 54.5303C255.088 54.3512 255.649 54.099 256.17 53.7734C256.707 53.4316 257.179 53.0247 257.586 52.5527C258.009 52.0645 258.351 51.5273 258.611 50.9414L263.494 55.8486C262.876 56.7275 262.16 57.5169 261.346 58.2168C260.548 58.9167 259.677 59.5107 258.733 59.999C257.806 60.4873 256.821 60.8535 255.779 61.0977C254.754 61.3581 253.696 61.4883 252.605 61.4883C250.766 61.4883 249.033 61.1465 247.405 60.4629C245.794 59.763 244.378 58.8109 243.157 57.6064C241.953 56.402 241.001 54.9941 240.301 53.3828C239.601 51.7715 239.251 50.0462 239.251 48.207C239.251 46.2051 239.601 44.3333 240.301 42.5918C241.001 40.8503 241.953 39.3366 243.157 38.0508C244.378 36.7487 245.794 35.7233 247.405 34.9746C249.033 34.2259 250.766 33.8516 252.605 33.8516C253.696 33.8516 254.762 33.9899 255.804 34.2666C256.862 34.5433 257.863 34.9502 258.807 35.4873C259.767 36.0081 260.646 36.651 261.443 37.416C262.257 38.181 262.957 39.0599 263.543 40.0527ZM291.692 47.6943C291.692 49.6475 291.342 51.4704 290.643 53.1631C289.943 54.8395 288.991 56.2962 287.786 57.5332C286.582 58.7539 285.166 59.7223 283.538 60.4385C281.927 61.1383 280.193 61.4883 278.338 61.4883C276.499 61.4883 274.765 61.1383 273.138 60.4385C271.526 59.7223 270.11 58.7539 268.89 57.5332C267.685 56.2962 266.733 54.8395 266.033 53.1631C265.333 51.4704 264.983 49.6475 264.983 47.6943C264.983 45.7087 265.333 43.8695 266.033 42.1768C266.733 40.484 267.685 39.0273 268.89 37.8066C270.11 36.5697 271.526 35.6012 273.138 34.9014C274.765 34.2015 276.499 33.8516 278.338 33.8516C280.193 33.8516 281.927 34.1852 283.538 34.8525C285.166 35.5036 286.582 36.4395 287.786 37.6602C288.991 38.8646 289.943 40.3213 290.643 42.0303C291.342 43.723 291.692 45.611 291.692 47.6943ZM284.979 47.6943C284.979 46.6201 284.799 45.6517 284.441 44.7891C284.1 43.9102 283.628 43.1615 283.025 42.543C282.423 41.9082 281.715 41.4281 280.901 41.1025C280.104 40.7607 279.249 40.5898 278.338 40.5898C277.426 40.5898 276.564 40.7607 275.75 41.1025C274.952 41.4281 274.253 41.9082 273.65 42.543C273.064 43.1615 272.601 43.9102 272.259 44.7891C271.917 45.6517 271.746 46.6201 271.746 47.6943C271.746 48.7035 271.917 49.6393 272.259 50.502C272.601 51.3646 273.064 52.1133 273.65 52.748C274.253 53.3828 274.952 53.8874 275.75 54.2617C276.564 54.6198 277.426 54.7988 278.338 54.7988C279.249 54.7988 280.104 54.6279 280.901 54.2861C281.715 53.9443 282.423 53.4642 283.025 52.8457C283.628 52.2272 284.1 51.4785 284.441 50.5996C284.799 49.7207 284.979 48.7523 284.979 47.6943ZM314.593 57.9482C314.056 58.4365 313.478 58.9004 312.859 59.3398C312.257 59.763 311.622 60.1374 310.955 60.4629C310.288 60.7721 309.596 61.0163 308.88 61.1953C308.18 61.3906 307.464 61.4883 306.731 61.4883C305.12 61.4883 303.606 61.2035 302.19 60.6338C300.774 60.0641 299.529 59.2585 298.455 58.2168C297.397 57.1589 296.559 55.8812 295.94 54.3838C295.338 52.8701 295.037 51.1774 295.037 49.3057V34.8525H301.678V49.3057C301.678 50.1846 301.808 50.974 302.068 51.6738C302.345 52.3574 302.711 52.9352 303.167 53.4072C303.623 53.8792 304.152 54.2373 304.754 54.4814C305.372 54.7256 306.032 54.8477 306.731 54.8477C307.415 54.8477 308.058 54.693 308.66 54.3838C309.279 54.0583 309.816 53.6351 310.271 53.1143C310.727 52.5934 311.085 52.0075 311.346 51.3564C311.606 50.6891 311.736 50.0055 311.736 49.3057V34.8525H318.401V61H316.79L314.593 57.9482ZM330.169 61H323.504V34.8525H325.115L327.312 37.3916C328.387 36.415 329.599 35.6663 330.95 35.1455C332.317 34.6084 333.742 34.3398 335.223 34.3398C336.818 34.3398 338.323 34.6491 339.739 35.2676C341.155 35.8698 342.392 36.708 343.45 37.7822C344.508 38.8402 345.338 40.0853 345.94 41.5176C346.559 42.9336 346.868 44.4473 346.868 46.0586V61H340.203V46.0586C340.203 45.375 340.073 44.7321 339.812 44.1299C339.552 43.5114 339.194 42.9743 338.738 42.5186C338.283 42.0628 337.754 41.7048 337.151 41.4443C336.549 41.1839 335.906 41.0537 335.223 41.0537C334.523 41.0537 333.864 41.1839 333.245 41.4443C332.627 41.7048 332.09 42.0628 331.634 42.5186C331.178 42.9743 330.82 43.5114 330.56 44.1299C330.299 44.7321 330.169 45.375 330.169 46.0586V61ZM364.397 61C362.786 61 361.272 60.6989 359.856 60.0967C358.44 59.4782 357.195 58.64 356.121 57.582C355.063 56.5078 354.225 55.2627 353.606 53.8467C353.004 52.4307 352.703 50.917 352.703 49.3057V41.542H349.456V34.9014H352.703V24.4521H359.344V34.9014H369.451V41.542H359.344V49.3057C359.344 50.0055 359.474 50.6647 359.734 51.2832C359.995 51.8854 360.353 52.4144 360.809 52.8701C361.264 53.3258 361.801 53.6921 362.42 53.9688C363.038 54.2292 363.698 54.3594 364.397 54.3594H369.451V61H364.397Z" fill="#9C74E1"/>
<g filter="url(#filter0_d_596_4)">
<path d="M154 32.8416L163 24V62L154 58.2376V32.8416Z" fill="#9C74E1"/>
</g>
<defs>
<filter id="filter0_d_596_4" x="150" y="24" width="17" height="46" filterUnits="userSpaceOnUse" color-interpolation-filters="sRGB">
<feFlood flood-opacity="0" result="BackgroundImageFix"/>
<feColorMatrix in="SourceAlpha" type="matrix" values="0 0 0 0 0 0 0 0 0 0 0 0 0 0 0 0 0 0 127 0" result="hardAlpha"/>
<feOffset dy="4"/>
<feGaussianBlur stdDeviation="2"/>
<feComposite in2="hardAlpha" operator="out"/>
<feColorMatrix type="matrix" values="0 0 0 0 0.870588 0 0 0 0 0.827451 0 0 0 0 0.996078 0 0 0 1 0"/>
<feBlend mode="normal" in2="BackgroundImageFix" result="effect1_dropShadow_596_4"/>
<feBlend mode="normal" in="SourceGraphic" in2="effect1_dropShadow_596_4" result="shape"/>
</filter>
</defs>
</svg>
