<svg width="48" height="48" viewBox="0 0 48 48" fill="none" xmlns="http://www.w3.org/2000/svg">
<path d="M30.5001 32C28.3559 32 26.3409 31.6587 24.4551 30.9762C22.5692 30.2937 20.9288 29.3675 19.5338 28.1975C18.1388 27.0275 17.0344 25.6517 16.2207 24.07C15.4069 22.4883 15.0001 20.7983 15.0001 19C15.0001 17.2017 15.4069 15.5117 16.2207 13.93C17.0344 12.3483 18.1388 10.9725 19.5338 9.8025C20.9288 8.6325 22.5692 7.70625 24.4551 7.02375C26.3409 6.34125 28.3559 6 30.5001 6H43.6751C44.2692 6 44.8053 6.20042 45.2832 6.60125C45.7611 7.00208 46.0001 7.45167 46.0001 7.95V19C46.0001 20.7983 45.5932 22.4883 44.7794 24.07C43.9657 25.6517 42.8613 27.0275 41.4663 28.1975C40.0713 29.3675 38.4309 30.2937 36.5451 30.9762C34.6592 31.6587 32.6442 32 30.5001 32ZM30.5001 30.05C34.1781 30.05 37.2934 28.9795 39.8461 26.8386C42.3987 24.6977 43.6751 22.0848 43.6751 19V7.95H30.5001C26.822 7.95 23.7067 9.02046 21.154 11.1614C18.6014 13.3023 17.3251 15.9152 17.3251 19C17.3251 22.0848 18.6014 24.6977 21.154 26.8386C23.7067 28.9795 26.822 30.05 30.5001 30.05Z" fill="#3A3A3A"/>
<path d="M17.5905 15.2071C19.7472 15.1602 21.7828 15.4632 23.6974 16.1163C25.6121 16.7694 27.2862 17.6759 28.7198 18.8357C30.1535 19.9956 31.3002 21.3712 32.1599 22.9627C33.0196 24.5541 33.4729 26.2647 33.5198 28.0944C33.5666 29.9241 33.2014 31.6525 32.4242 33.2796C31.6469 34.9067 30.5719 36.3308 29.1993 37.5518C27.8266 38.7727 26.2008 39.7511 24.3217 40.4868C22.4427 41.2226 20.4248 41.6139 18.2681 41.6609L5.01621 41.9496C4.41858 41.9626 3.87418 41.7704 3.38303 41.3731C2.89188 40.9757 2.63981 40.5235 2.62682 40.0165L2.33883 28.7736C2.29196 26.9439 2.65716 25.2155 3.43444 23.5884C4.21172 21.9613 5.28668 20.5373 6.65933 19.3163C8.03198 18.0953 9.65783 17.1169 11.5369 16.3812C13.4159 15.6455 15.4338 15.2541 17.5905 15.2071ZM17.6413 17.1912C13.9418 17.2718 10.8362 18.4292 8.32442 20.6634C5.81268 22.8976 4.597 25.5841 4.6774 28.7227L4.96539 39.9655L18.2173 39.6769C21.9168 39.5963 25.0224 38.4389 27.5342 36.2047C30.0459 33.9704 31.2616 31.284 31.1812 28.1454C31.1008 25.0067 29.7489 22.3762 27.1256 20.2538C24.5022 18.1315 21.3408 17.1106 17.6413 17.1912Z" fill="#3A3A3A"/>
</svg>
