<svg width="48" height="48" viewBox="0 0 48 48" fill="none" xmlns="http://www.w3.org/2000/svg">
<path d="M16.5 28H19.55C19.9608 28 20.3052 27.85 20.5831 27.55C20.861 27.25 21 26.9 21 26.5V24.5H19.5V26.5H16.5V21.5H20.9C20.9 21.1 20.7658 20.75 20.4975 20.45C20.2292 20.15 19.8967 20 19.5 20H16.5C16.075 20 15.7188 20.1438 15.4313 20.4313C15.1438 20.7188 15 21.075 15 21.5V26.5C15 26.925 15.1438 27.2813 15.4313 27.5688C15.7188 27.8563 16.075 28 16.5 28ZM23.25 28H24.75V20H23.25V28ZM27 28H28.5V25H32V23.5H28.5V21.5H33V20H27V28ZM9 42C8.2 42 7.5 41.7 6.9 41.1C6.3 40.5 6 39.8 6 39V9C6 8.2 6.3 7.5 6.9 6.9C7.5 6.3 8.2 6 9 6H39C39.8 6 40.5 6.3 41.1 6.9C41.7 7.5 42 8.2 42 9V39C42 39.8 41.7 40.5 41.1 41.1C40.5 41.7 39.8 42 39 42H9ZM9 39H39V9H9V39Z" fill="#3A3A3A"/>
</svg>
