<svg width="48" height="48" viewBox="0 0 48 48" fill="none" xmlns="http://www.w3.org/2000/svg">
<path d="M22.1 40.8C20.9312 40.8 19.9307 40.3917 19.0984 39.575C18.2661 38.7583 17.85 37.7659 17.85 36.5978C17.85 35.4296 18.2661 34.4296 19.0984 33.5978C19.9307 32.7659 20.9312 32.35 22.1 32.35L23.3375 31.1629C23.6125 30.8876 23.9359 30.6667 24.3078 30.5C24.6796 30.3333 25.0604 30.25 25.45 30.25C26.2833 30.25 26.9833 30.5417 27.55 31.125C28.1166 31.7083 28.4 32.4121 28.4 33.2362V34.15C28.4 34.8167 28.6416 35.3917 29.125 35.875C29.6083 36.3583 30.1833 36.6 30.85 36.6C31.3768 36.6 31.8509 36.4408 32.2723 36.1223C32.6937 35.8038 32.9922 35.3969 33.1678 34.9016L33.8 33.15C34.1 32.2833 34.6006 31.5829 35.3019 31.0487C36.0032 30.5145 36.8097 30.2474 37.7214 30.2474C38.1071 29.2825 38.4083 28.2667 38.625 27.2C38.8416 26.1333 38.95 25.05 38.95 23.95C38.95 20.8167 38.175 17.975 36.625 15.425C35.075 12.875 33.0333 10.85 30.5 9.35V11.3C30.5 12.455 30.0887 13.4438 29.2662 14.2663C28.4437 15.0888 27.455 15.5 26.3 15.5H24.2V19.75C24.2 20.3167 23.9916 20.8083 23.575 21.225C23.1583 21.6417 22.6666 21.85 22.1 21.85H20V25.4011C20 26.167 19.7356 26.8167 19.2067 27.35C18.6779 27.8833 18.0256 28.15 17.25 28.15C16.7833 28.15 16.3416 28.0417 15.925 27.825C15.5083 27.6083 15.1666 27.3167 14.9 26.95L11.5461 21.85H9.44998V23.9345C9.44998 25.0115 9.09164 25.9417 8.37498 26.725C7.65831 27.5083 6.78331 27.9667 5.74998 28.1C6.68331 31.7333 8.66246 34.7583 11.6874 37.175C14.7124 39.5917 18.1832 40.8 22.1 40.8ZM26.3229 28.15C25.741 28.15 25.2416 27.9417 24.825 27.525C24.4083 27.1083 24.2 26.6167 24.2 26.05C24.2 25.4833 24.4083 24.9917 24.825 24.575C25.2416 24.1583 25.741 23.95 26.3229 23.95H28.377C28.959 23.95 29.4583 24.1583 29.875 24.575C30.2916 24.9917 30.5 25.4833 30.5 26.05C30.5 26.6167 30.2916 27.1083 29.875 27.525C29.4583 27.9417 28.959 28.15 28.377 28.15H26.3229ZM31.2192 21.85C30.5397 21.85 29.9833 21.575 29.55 21.025C29.1166 20.475 29.0095 19.8682 29.2285 19.2047L30.05 16.9C30.2166 16.4667 30.4698 16.125 30.8096 15.875C31.1493 15.625 31.5231 15.5 31.9307 15.5C32.6102 15.5 33.1666 15.775 33.6 16.325C34.0333 16.875 34.1405 17.4818 33.9214 18.1453L33.1 20.45C32.9333 20.8833 32.6801 21.225 32.3404 21.475C32.0006 21.725 31.6269 21.85 31.2192 21.85ZM22.1133 44C19.3555 44 16.7638 43.475 14.3383 42.425C11.9127 41.375 9.79164 39.9417 7.97498 38.125C6.15831 36.3083 4.72498 34.186 3.67498 31.758C2.62498 29.33 2.09998 26.7356 2.09998 23.975C2.09998 21.2144 2.62498 18.6201 3.67498 16.1921C4.72498 13.764 6.15831 11.65 7.97498 9.85C9.79164 8.05 11.914 6.625 14.342 5.575C16.77 4.525 19.3643 4 22.125 4C24.8856 4 27.4799 4.525 29.9079 5.575C32.336 6.625 34.45 8.05 36.25 9.85C38.05 11.65 39.475 13.7667 40.525 16.2C41.575 18.6333 42.1 21.2289 42.1 23.9867C42.1 26.7445 41.575 29.3362 40.525 31.7617C39.475 34.1872 38.05 36.3053 36.25 38.1158C34.45 39.9263 32.3333 41.3597 29.9 42.4158C27.4666 43.4719 24.8711 44 22.1133 44Z" fill="#3A3A3A"/>
</svg>
