<svg width="341" height="346" viewBox="0 0 341 346" fill="none" xmlns="http://www.w3.org/2000/svg">
<rect x="12.5" y="49.5" width="316" height="209.945" rx="17.5" stroke="#888888" stroke-width="15"/>
<mask id="path-2-inside-1_775_129" fill="white">
<path d="M138.614 171.671C145.966 175.793 148.57 185.326 142.667 191.343C139.07 195.01 135.024 198.261 130.605 201.017C121.774 206.525 111.714 209.898 101.267 210.852C90.8193 211.806 80.2887 210.314 70.5564 206.501C60.8241 202.688 52.1733 196.664 45.3281 188.934C38.4829 181.205 33.6426 171.994 31.2121 162.073C28.7817 152.152 28.832 141.809 31.3588 131.911C33.8855 122.012 38.8152 112.846 45.7353 105.18C49.3862 101.135 53.5351 97.5699 58.0749 94.5571C64.8831 90.0391 73.5811 93.9115 76.6389 101.489L93.1467 142.394C94.4242 145.559 96.7433 148.195 99.7208 149.864L138.614 171.671Z"/>
</mask>
<path d="M138.614 171.671C145.966 175.793 148.57 185.326 142.667 191.343C139.07 195.01 135.024 198.261 130.605 201.017C121.774 206.525 111.714 209.898 101.267 210.852C90.8193 211.806 80.2887 210.314 70.5564 206.501C60.8241 202.688 52.1733 196.664 45.3281 188.934C38.4829 181.205 33.6426 171.994 31.2121 162.073C28.7817 152.152 28.832 141.809 31.3588 131.911C33.8855 122.012 38.8152 112.846 45.7353 105.18C49.3862 101.135 53.5351 97.5699 58.0749 94.5571C64.8831 90.0391 73.5811 93.9115 76.6389 101.489L93.1467 142.394C94.4242 145.559 96.7433 148.195 99.7208 149.864L138.614 171.671Z" stroke="#888888" stroke-width="30" mask="url(#path-2-inside-1_775_129)"/>
<path d="M93.0626 79.442C100.166 79.2024 107.399 80.3155 114.368 82.7859C121.398 85.2781 127.935 89.072 133.635 93.9306C134.734 94.8675 135.194 96.0944 135.064 97.5531C134.924 99.1204 134.067 100.899 132.43 102.205L99.5218 128.436C99.4125 128.523 99.3436 128.54 99.3006 128.546C99.239 128.556 99.1491 128.552 99.0468 128.516C98.9446 128.481 98.8723 128.427 98.83 128.381C98.8004 128.349 98.7567 128.293 98.7253 128.156L89.1254 86.4775C88.6608 84.4605 89.0803 82.5662 89.9044 81.2909C90.664 80.1154 91.7077 79.4877 93.0626 79.442Z" stroke="#888888" stroke-width="15"/>
<path d="M157.2 117.893C160.203 124.346 162.023 131.449 162.502 138.841C162.986 146.318 162.082 153.851 159.872 161.031C159.446 162.415 158.5 163.323 157.11 163.775C155.616 164.261 153.646 164.167 151.803 163.167L114.171 142.745L149.195 117.02C150.862 115.796 152.767 115.439 154.262 115.7C155.639 115.94 156.625 116.658 157.2 117.893Z" stroke="#888888" stroke-width="15"/>
<rect x="12.5" y="231.318" width="316" height="28.9743" rx="14.4871" stroke="#888888" stroke-width="15"/>
<mask id="path-6-inside-2_775_129" fill="white">
<rect width="51.3671" height="36.61" rx="5" transform="matrix(0.012604 -0.99992 0.999919 0.0127065 186.082 207.559)"/>
</mask>
<rect width="51.3671" height="36.61" rx="5" transform="matrix(0.012604 -0.99992 0.999919 0.0127065 186.082 207.559)" stroke="#888888" stroke-width="30" mask="url(#path-6-inside-2_775_129)"/>
<mask id="path-7-inside-3_775_129" fill="white">
<rect width="66.2591" height="36.61" rx="5" transform="matrix(0.012604 -0.99992 0.999919 0.0127065 228.193 208.373)"/>
</mask>
<rect width="66.2591" height="36.61" rx="5" transform="matrix(0.012604 -0.99992 0.999919 0.0127065 228.193 208.373)" stroke="#888888" stroke-width="30" mask="url(#path-7-inside-3_775_129)"/>
<mask id="path-8-inside-4_775_129" fill="white">
<rect width="87.4673" height="36.61" rx="5" transform="matrix(0.012604 -0.99992 0.999919 0.0127065 269.463 206.352)"/>
</mask>
<rect width="87.4673" height="36.61" rx="5" transform="matrix(0.012604 -0.99992 0.999919 0.0127065 269.463 206.352)" stroke="#888888" stroke-width="30" mask="url(#path-8-inside-4_775_129)"/>
<path d="M127.436 297.5L135.006 266.834H201.04L209.821 297.5H127.436Z" stroke="#888888" stroke-width="15"/>
<path d="M85.8555 302.039H251.777" stroke="#888888" stroke-width="15" stroke-linecap="round"/>
<path d="M180.186 204.354L313.259 204.367" stroke="#888888" stroke-width="15" stroke-linecap="round"/>
</svg>
