<svg width="76" height="63" viewBox="0 0 76 63" fill="none" xmlns="http://www.w3.org/2000/svg">
<path d="M58.6108 22.1945C63.2218 18.1259 66.3622 14.3425 68.032 10.8442C69.7017 7.34592 70.0529 4.71971 67.8478 3.74777C65.6426 2.77582 61.5559 3.75552 56.8253 5.9047C52.0947 8.05387 43.4965 13.9836 38.8855 18.0522L36.593 20.721C40.3438 17.4115 52.3987 9.24892 56.2391 7.50417C60.0796 5.75941 63.5975 4.92673 65.3912 5.71735C67.185 6.50796 67.3337 8.89328 65.9781 11.7333C64.6226 14.5733 61.7195 18.4433 57.9688 21.7528L58.6108 22.1945Z" fill="#2DF0C4"/>
<path d="M58.7243 21.6536C62.7125 18.1345 65.3542 14.8292 66.6493 11.7377C67.9443 8.64616 68.0775 6.29947 65.9553 5.36408C63.8331 4.42869 60.1049 5.19081 55.8641 6.98397C51.6232 8.77714 44.0643 13.8522 40.0761 17.3713L38.1408 19.7006C41.385 16.8381 51.994 9.85829 55.4368 8.40255C58.8796 6.94681 62.0897 6.30034 63.8159 7.06121C65.5422 7.82209 65.8562 9.96694 64.8048 12.4767C63.7534 14.9865 61.3388 18.3763 58.0947 21.2388L58.7243 21.6536Z" fill="#8D2EF4"/>
<path d="M18.3468 36.5675C13.5305 40.7943 10.2085 44.6789 8.38076 48.2215C6.55307 51.7641 6.09064 54.3875 8.27353 55.2652C10.4564 56.1428 14.6167 55.0061 19.4744 52.6818C24.332 50.3574 33.2447 44.1222 38.061 39.8955L40.4822 37.1522C36.5644 40.5904 24.0749 49.1822 20.1313 51.0691C16.1877 52.9561 12.6069 53.924 10.8313 53.2101C9.05565 52.4962 9.00419 50.1321 10.488 47.2561C11.9717 44.3801 15.058 40.419 18.9758 36.9808L18.3468 36.5675Z" fill="#2DF0C4"/>
<path d="M18.2091 37.1121C14.0433 40.7679 11.2438 44.1576 9.8106 47.2811C8.3774 50.4045 8.14631 52.7415 10.2471 53.5862C12.3479 54.4308 16.1377 53.5247 20.487 51.5736C24.8362 49.6225 32.6658 44.278 36.8317 40.6222L38.8788 38.2305C35.4901 41.2043 24.507 48.5631 20.9762 50.147C17.4454 51.731 14.1827 52.5015 12.4738 51.8145C10.765 51.1274 10.537 49.0088 11.7005 46.4731C12.864 43.9374 15.4381 40.4729 18.8267 37.4991L18.2091 37.1121Z" fill="#8D2EF4"/>
<path d="M56.363 32.2585L51.1947 31.0842C50.6101 32.6976 49.8013 34.1991 48.7683 35.5887C47.7353 36.9784 46.4715 38.1938 44.9768 39.2349C43.1085 40.5363 41.1542 41.3866 39.1139 41.786C37.0735 42.1853 35.0741 42.1625 33.1156 41.7174C31.1571 41.2724 29.3211 40.4238 27.6077 39.1715C25.8942 37.9192 24.4302 36.2921 23.2157 34.2902C22.244 32.6887 21.5493 31.0283 21.1316 29.309C20.7139 27.5897 20.5434 25.8657 20.6203 24.137L15.452 22.9626L15.9481 20.456L56.8591 29.752L56.363 32.2585ZM43.6908 37.1152C44.8997 36.2732 45.932 35.2945 46.7875 34.1792C47.643 33.064 48.3323 31.8551 48.8554 30.5526L22.9596 24.6685C22.9443 26.0864 23.1164 27.491 23.4758 28.8823C23.8353 30.2736 24.408 31.617 25.1938 32.9123C27.2657 36.3273 30.0697 38.4365 33.6059 39.24C37.1421 40.0435 40.5038 39.3353 43.6908 37.1152ZM52.1869 26.071L49.8476 25.5395C49.8629 24.1216 49.6908 22.717 49.3313 21.3257C48.9719 19.9343 48.3992 18.591 47.6133 17.2957C45.5415 13.8807 42.7374 11.7715 39.2012 10.968C35.665 10.1645 32.3034 10.8727 29.1163 13.0927C27.9074 13.9348 26.8752 14.9135 26.0197 16.0287C25.1641 17.144 24.4748 18.3529 23.9518 19.6553L21.6124 19.1238C22.197 17.5104 23.0059 16.0089 24.0389 14.6193C25.0719 13.2296 26.3357 12.0142 27.8303 10.9731C29.6767 9.68704 31.6235 8.85022 33.671 8.46265C35.7185 8.07509 37.7215 8.10381 39.68 8.54883C41.6385 8.99385 43.48 9.83867 45.2045 11.0833C46.9289 12.3279 48.3913 13.9394 49.5915 15.9177C50.5631 17.5192 51.2578 19.1796 51.6756 20.8989C52.0933 22.6182 52.2637 24.3423 52.1869 26.071Z" fill="#5FF1D0" fill-opacity="0.8"/>
<path d="M58.7224 33.9451L53.5541 32.7707C52.9695 34.3841 52.1607 35.8856 51.1277 37.2753C50.0947 38.6649 48.8308 39.8803 47.3362 40.9214C45.4679 42.2228 43.5136 43.0731 41.4733 43.4725C39.4329 43.8718 37.4335 43.849 35.475 43.404C33.5165 42.959 31.6805 42.1103 29.967 40.858C28.2536 39.6057 26.7896 37.9786 25.575 35.9768C24.6034 34.3753 23.9087 32.7149 23.491 30.9956C23.0733 29.2763 22.9028 27.5522 22.9797 25.8235L17.8114 24.6491L18.3075 22.1426L59.2185 31.4385L58.7224 33.9451ZM46.0502 38.8018C47.2591 37.9597 48.2913 36.981 49.1469 35.8658C50.0024 34.7505 50.6917 33.5416 51.2148 32.2392L25.319 26.355C25.3037 27.7729 25.4758 29.1775 25.8352 30.5688C26.1947 31.9602 26.7673 33.3035 27.5532 34.5988C29.6251 38.0138 32.4291 40.123 35.9653 40.9265C39.5015 41.73 42.8631 41.0218 46.0502 38.8018ZM54.5463 27.7575L52.2069 27.226C52.2222 25.8081 52.0502 24.4035 51.6907 23.0122C51.3312 21.6209 50.7586 20.2775 49.9727 18.9822C47.9008 15.5672 45.0968 13.458 41.5606 12.6545C38.0244 11.851 34.6628 12.5593 31.4757 14.7793C30.2668 15.6213 29.2346 16.6 28.3791 17.7153C27.5235 18.8305 26.8342 20.0394 26.3111 21.3419L23.9718 20.8103C24.5564 19.1969 25.3652 17.6954 26.3982 16.3058C27.4313 14.9161 28.6951 13.7007 30.1897 12.6596C32.036 11.3736 33.9829 10.5367 36.0304 10.1492C38.0779 9.76161 40.0809 9.79034 42.0394 10.2354C43.9979 10.6804 45.8394 11.5252 47.5638 12.7698C49.2883 14.0145 50.7506 15.6259 51.9509 17.6043C52.9225 19.2058 53.6172 20.8662 54.0349 22.5855C54.4527 24.3048 54.6231 26.0288 54.5463 27.7575Z" fill="#8D2EF4"/>
<path d="M58.7224 33.9451L53.5541 32.7707C52.9695 34.3841 52.1607 35.8856 51.1277 37.2753C50.0947 38.6649 48.8308 39.8803 47.3362 40.9214C45.4679 42.2228 43.5136 43.0731 41.4733 43.4725C39.4329 43.8718 37.4335 43.849 35.475 43.404C33.5165 42.959 31.6805 42.1103 29.967 40.858C28.2536 39.6057 26.7896 37.9786 25.575 35.9768C24.6034 34.3753 23.9087 32.7149 23.491 30.9956C23.0733 29.2763 22.9028 27.5522 22.9797 25.8235L17.8114 24.6491L18.3075 22.1426L59.2185 31.4385L58.7224 33.9451ZM46.0502 38.8018C47.2591 37.9597 48.2913 36.981 49.1469 35.8658C50.0024 34.7505 50.6917 33.5416 51.2148 32.2392L25.319 26.355C25.3037 27.7729 25.4758 29.1775 25.8352 30.5688C26.1947 31.9602 26.7673 33.3035 27.5532 34.5988C29.6251 38.0138 32.4291 40.123 35.9653 40.9265C39.5015 41.73 42.8631 41.0218 46.0502 38.8018ZM54.5463 27.7575L52.2069 27.226C52.2222 25.8081 52.0502 24.4035 51.6907 23.0122C51.3312 21.6209 50.7586 20.2775 49.9727 18.9822C47.9008 15.5672 45.0968 13.458 41.5606 12.6545C38.0244 11.851 34.6628 12.5593 31.4757 14.7793C30.2668 15.6213 29.2346 16.6 28.3791 17.7153C27.5235 18.8305 26.8342 20.0394 26.3111 21.3419L23.9718 20.8103C24.5564 19.1969 25.3652 17.6954 26.3982 16.3058C27.4313 14.9161 28.6951 13.7007 30.1897 12.6596C32.036 11.3736 33.9829 10.5367 36.0304 10.1492C38.0779 9.76161 40.0809 9.79034 42.0394 10.2354C43.9979 10.6804 45.8394 11.5252 47.5638 12.7698C49.2883 14.0145 50.7506 15.6259 51.9509 17.6043C52.9225 19.2058 53.6172 20.8662 54.0349 22.5855C54.4527 24.3048 54.6231 26.0288 54.5463 27.7575Z" fill="#8D2EF4"/>
<path d="M61.0818 35.6296L55.9135 34.4553C55.3289 36.0687 54.5201 37.5702 53.4871 38.9598C52.454 40.3495 51.1902 41.5649 49.6956 42.606C47.8273 43.9074 45.873 44.7577 43.8326 45.1571C41.7923 45.5564 39.7929 45.5336 37.8344 45.0885C35.8759 44.6435 34.0399 43.7949 32.3264 42.5426C30.613 41.2903 29.149 39.6632 27.9344 37.6613C26.9628 36.0598 26.2681 34.3994 25.8504 32.6801C25.4326 30.9608 25.2622 29.2368 25.339 27.5081L20.1708 26.3337L20.6668 23.8271L61.5778 33.123L61.0818 35.6296ZM48.4096 40.4863C49.6185 39.6443 50.6507 38.6656 51.5062 37.5503C52.3618 36.4351 53.0511 35.2262 53.5742 33.9237L27.6784 28.0396C27.6631 29.4575 27.8351 30.8621 28.1946 32.2534C28.554 33.6447 29.1267 34.9881 29.9126 36.2834C31.9845 39.6984 34.7885 41.8076 38.3247 42.6111C41.8609 43.4146 45.2225 42.7063 48.4096 40.4863ZM56.9056 29.4421L54.5663 28.9106C54.5816 27.4927 54.4095 26.0881 54.0501 24.6968C53.6906 23.3054 53.118 21.9621 52.3321 20.6668C50.2602 17.2518 47.4562 15.1426 43.92 14.3391C40.3838 13.5356 37.0222 14.2438 33.8351 16.4638C32.6262 17.3059 31.594 18.2846 30.7384 19.3998C29.8829 20.5151 29.1936 21.724 28.6705 23.0264L26.3312 22.4949C26.9158 20.8815 27.7246 19.38 28.7576 17.9903C29.7906 16.6007 31.0545 15.3853 32.5491 14.3442C34.3954 13.0581 36.3423 12.2213 38.3898 11.8337C40.4373 11.4462 42.4403 11.4749 44.3988 11.9199C46.3573 12.3649 48.1987 13.2098 49.9232 14.4544C51.6477 15.699 53.11 17.3105 54.3103 19.2888C55.2819 20.8903 55.9766 22.5507 56.3943 24.27C56.812 25.9893 56.9825 27.7134 56.9056 29.4421Z" fill="#19181B"/>
<path d="M61.0818 35.6296L55.9135 34.4553C55.3289 36.0687 54.5201 37.5702 53.4871 38.9598C52.454 40.3495 51.1902 41.5649 49.6956 42.606C47.8273 43.9074 45.873 44.7577 43.8326 45.1571C41.7923 45.5564 39.7929 45.5336 37.8344 45.0885C35.8759 44.6435 34.0399 43.7949 32.3264 42.5426C30.613 41.2903 29.149 39.6632 27.9344 37.6613C26.9628 36.0598 26.2681 34.3994 25.8504 32.6801C25.4326 30.9608 25.2622 29.2368 25.339 27.5081L20.1708 26.3337L20.6668 23.8271L61.5778 33.123L61.0818 35.6296ZM48.4096 40.4863C49.6185 39.6443 50.6507 38.6656 51.5062 37.5503C52.3618 36.4351 53.0511 35.2262 53.5742 33.9237L27.6784 28.0396C27.6631 29.4575 27.8351 30.8621 28.1946 32.2534C28.554 33.6447 29.1267 34.9881 29.9126 36.2834C31.9845 39.6984 34.7885 41.8076 38.3247 42.6111C41.8609 43.4146 45.2225 42.7063 48.4096 40.4863ZM56.9056 29.4421L54.5663 28.9106C54.5816 27.4927 54.4095 26.0881 54.0501 24.6968C53.6906 23.3054 53.118 21.9621 52.3321 20.6668C50.2602 17.2518 47.4562 15.1426 43.92 14.3391C40.3838 13.5356 37.0222 14.2438 33.8351 16.4638C32.6262 17.3059 31.594 18.2846 30.7384 19.3998C29.8829 20.5151 29.1936 21.724 28.6705 23.0264L26.3312 22.4949C26.9158 20.8815 27.7246 19.38 28.7576 17.9903C29.7906 16.6007 31.0545 15.3853 32.5491 14.3442C34.3954 13.0581 36.3423 12.2213 38.3898 11.8337C40.4373 11.4462 42.4403 11.4749 44.3988 11.9199C46.3573 12.3649 48.1987 13.2098 49.9232 14.4544C51.6477 15.699 53.11 17.3105 54.3103 19.2888C55.2819 20.8903 55.9766 22.5507 56.3943 24.27C56.812 25.9893 56.9825 27.7134 56.9056 29.4421Z" fill="#A568E6"/>
</svg>
