<svg width="48" height="48" viewBox="0 0 48 48" fill="none" xmlns="http://www.w3.org/2000/svg">
<path d="M7 36V18.4632H18.3208V11.0368V6.92105L23.5 2L28.6792 6.92105V18.4632H40V36H7ZM9.75 33.3158H14.6083V28.5737H9.75V33.3158ZM9.75 25.8895H14.6083V21.1474H9.75V25.8895ZM21.0708 33.3158H25.9292V28.5737H21.0708V33.3158ZM21.0708 25.8895H25.9292V21.1474H21.0708V25.8895ZM21.0708 18.4632H25.9292V13.7211H21.0708V18.4632ZM21.0708 11.0368H25.9292V6.29474H21.0708V11.0368ZM32.3917 33.3158H37.25V28.5737H32.3917V33.3158ZM32.3917 25.8895H37.25V21.1474H32.3917V25.8895Z" fill="#9C9A9A"/>
<path d="M7 46V36H14.5625H32.4375H37.25H40V46H25.9292V38.6667H21.0708V46H7ZM9.75 43.3333H14.5625V38.6667H9.75V43.3333ZM32.4375 43.3333H37.25V38.6667H32.4375V43.3333Z" fill="#9C9A9A"/>
<path d="M37.6875 46V36H22.5625H40.4375H45.25H48V46H33.9292L31.2292 43.3333L29.0708 38.6667L32 45L37.6875 46ZM40.4375 43.3333H45.25V38.6667H40.4375V43.3333Z" fill="#9C9A9A"/>
<path d="M0 46V36H7.5625V45L18.9292 46V38.6667H14.0708V46H0ZM2.75 43.3333H7.5625V38.6667H2.75V43.3333Z" fill="#9C9A9A"/>
</svg>
