<svg width="48" height="48" viewBox="0 0 48 48" fill="none" xmlns="http://www.w3.org/2000/svg">
<path d="M10.0882 41.9545V39.4318H38.9118V41.9545H10.0882ZM24.5 24.9682C25.9297 24.9682 27.1307 24.4917 28.1029 23.5386C29.0752 22.5856 29.5613 21.4083 29.5613 20.0068C29.5613 18.6053 29.0752 17.428 28.1029 16.475C27.1307 15.522 25.9297 15.0455 24.5 15.0455C23.0703 15.0455 21.8693 15.522 20.8971 16.475C19.9248 17.428 19.4387 18.6053 19.4387 20.0068C19.4387 21.4083 19.9248 22.5856 20.8971 23.5386C21.8693 24.4917 23.0703 24.9682 24.5 24.9682ZM9.57353 36.9091C8.88725 36.9091 8.28676 36.6568 7.77206 36.1523C7.25735 35.6477 7 35.0591 7 34.3864V12.5227C7 11.7939 7.25735 11.1913 7.77206 10.7148C8.28676 10.2383 8.88725 10 9.57353 10H39.4265C40.1127 10 40.7132 10.2523 41.2279 10.7568C41.7426 11.2614 42 11.85 42 12.5227V34.3864C42 35.0591 41.7426 35.6477 41.2279 36.1523C40.7132 36.6568 40.1127 36.9091 39.4265 36.9091H9.57353ZM13.348 34.3864C14.8064 32.6205 16.5364 31.296 18.538 30.4131C20.5396 29.5301 22.5198 29.0886 24.4786 29.0886C26.4373 29.0886 28.4389 29.5301 30.4835 30.4131C32.528 31.296 34.2508 32.6205 35.652 34.3864H39.4265V12.5227H9.57353V34.3864H13.348ZM17.3799 34.3864H31.7059C30.8194 33.5455 29.7829 32.8727 28.5962 32.3682C27.4095 31.8636 26.0441 31.6114 24.5 31.6114C22.9559 31.6114 21.6048 31.8636 20.4467 32.3682C19.2886 32.8727 18.2663 33.5455 17.3799 34.3864ZM24.5068 22.4455C23.816 22.4455 23.2347 22.2072 22.7629 21.7307C22.2911 21.2542 22.0551 20.6795 22.0551 20.0068C22.0551 19.3341 22.2888 18.7595 22.7561 18.283C23.2234 17.8064 23.8024 17.5682 24.4932 17.5682C25.184 17.5682 25.7653 17.8064 26.2371 18.283C26.7089 18.7595 26.9449 19.3341 26.9449 20.0068C26.9449 20.6795 26.7112 21.2542 26.2439 21.7307C25.7766 22.2072 25.1976 22.4455 24.5068 22.4455Z" fill="#610BBE"/>
</svg>
