<svg width="344" height="348" viewBox="0 0 344 348" fill="none" xmlns="http://www.w3.org/2000/svg">
<path d="M72.2184 303.076C64.4039 303.04 57.7273 300.186 52.1885 294.513C46.6497 288.841 43.8987 282.041 43.9354 274.111L44.202 216.445L72.6184 216.577L72.3517 274.243L271.266 275.163L272.2 73.3315L73.285 72.4117L73.0183 130.078L44.602 129.946L44.8686 72.2803C44.9053 64.3512 47.7191 57.5763 53.3101 51.9556C58.9011 46.3348 65.6038 43.5425 73.4183 43.5787L272.333 44.4984C280.147 44.5346 286.824 47.3887 292.363 53.0609C297.902 58.7331 300.653 65.5338 300.616 73.4629L299.683 275.294C299.646 283.223 296.832 289.998 291.241 295.619C285.65 301.24 278.947 304.032 271.133 303.996L72.2184 303.076ZM150.63 245.771L130.835 224.775L167.236 188.181L44.3353 187.612L44.4687 158.779L167.369 159.348L131.309 122.418L151.297 101.606L222.004 174.017L150.63 245.771Z" fill="#DD0E0E"/>
</svg>
