<svg width="300" height="300" viewBox="0 0 300 300" fill="none" xmlns="http://www.w3.org/2000/svg">
<circle cx="150" cy="150" r="150" fill="#EAE8FF"/>
<rect x="51" y="72" width="188" height="100" fill="white" stroke="#6E22A9" stroke-width="2"/>
<path d="M79.1829 142C76.9269 142 74.9991 141.328 73.3994 139.984C71.7998 138.64 71 137.024 71 135.137C71 133.25 71.7996 131.637 73.3987 130.299C74.9979 128.961 76.9203 128.292 79.1659 128.292C79.5742 128.292 79.9735 128.308 80.3636 128.341C80.7538 128.373 81.261 128.455 81.8852 128.585L105.294 109.002C105.138 108.48 105.041 108.056 105.002 107.729C104.963 107.403 104.943 107.069 104.943 106.727C104.943 104.849 105.746 103.24 107.353 101.903C108.96 100.565 110.891 99.8958 113.147 99.8958C115.403 99.8958 117.33 100.569 118.93 101.916C120.53 103.263 121.33 104.882 121.33 106.774C121.33 106.889 121.213 107.631 120.978 109.002L133.853 119.773C134.478 119.642 134.985 119.561 135.375 119.528C135.765 119.495 136.155 119.479 136.545 119.479C136.936 119.479 137.326 119.495 137.716 119.528C138.106 119.561 138.613 119.642 139.238 119.773L157.965 104.106C157.809 103.584 157.711 103.16 157.672 102.833C157.633 102.507 157.614 102.173 157.614 101.831C157.614 99.9527 158.417 98.3445 160.023 97.0067C161.63 95.6689 163.561 95 165.817 95C168.073 95 170.001 95.672 171.601 97.016C173.2 98.3599 174 99.9756 174 101.863C174 103.75 173.2 105.363 171.601 106.701C170.002 108.039 168.08 108.708 165.834 108.708C165.426 108.708 165.027 108.692 164.636 108.659C164.246 108.627 163.739 108.545 163.115 108.415L144.387 124.081C144.544 124.603 144.641 125.028 144.68 125.354C144.719 125.681 144.739 126.015 144.739 126.356C144.739 128.235 143.935 129.843 142.329 131.181C140.722 132.519 138.791 133.188 136.535 133.188C134.279 133.188 132.351 132.519 130.752 131.181C129.152 129.843 128.352 128.235 128.352 126.356C128.352 126.015 128.372 125.681 128.411 125.354C128.45 125.028 128.547 124.603 128.703 124.081L115.828 113.31C115.204 113.441 114.697 113.523 114.307 113.555C113.917 113.588 113.517 113.604 113.107 113.604C112.971 113.604 112.083 113.506 110.444 113.31L87.0352 132.894C87.1913 133.416 87.2888 133.84 87.3278 134.167C87.3669 134.493 87.3864 134.827 87.3864 135.169C87.3864 137.047 86.5831 138.655 84.9765 139.993C83.37 141.331 81.4388 142 79.1829 142Z" fill="#7513C0"/>
<rect x="181" y="102" width="7" height="3" fill="#9211F4"/>
<rect x="181" y="108" width="7" height="4" fill="#57DFD7"/>
<rect x="181" y="115" width="7" height="4" fill="#F6AB19"/>
<rect x="64" y="78" width="22" height="5" fill="#ECEBEB"/>
<rect x="191" y="102" width="24" height="3" rx="1" fill="#ECEBEB"/>
<rect x="191" y="108" width="24" height="4" rx="1" fill="#ECEBEB"/>
<rect x="191" y="115" width="24" height="4" rx="1" fill="#ECEBEB"/>
<circle cx="78" cy="136" r="8" fill="#57DFD7"/>
<circle cx="112.5" cy="106.5" r="8.5" fill="#9211F4"/>
<ellipse cx="135.5" cy="125.5" rx="9.5" ry="8.5" fill="#F6AB19"/>
<ellipse cx="165.5" cy="101.5" rx="9.5" ry="8.5" fill="#57DFD7"/>
<rect x="70" y="150" width="105" height="4" fill="#AAA9A9"/>
<path d="M64 211.5C70.375 211.831 59.6495 219.542 56.75 219.542C53.8505 219.542 50 217.141 50 216.225C50 215.309 55.25 205.608 56.375 210.253C59.2745 210.253 64.75 209.841 64 211.5Z" fill="#691FB8"/>
<path d="M159.611 211.188C154.438 211.502 163.17 220 165.523 220C167.876 220 171 217.722 171 216.853C171 215.984 166.74 206.782 165.827 211.188C163.474 211.188 159.003 209.615 159.611 211.188Z" fill="#691FB8"/>
<rect x="199.5" y="124.5" width="56" height="105" rx="10.5" fill="#403A60" stroke="#262143" stroke-width="3"/>
<rect x="214.209" y="128.144" width="17.5055" height="4.40817" rx="2" fill="#282242"/>
<ellipse cx="236.253" cy="130.348" rx="1.94505" ry="2.20408" fill="#282242"/>
<rect x="202.538" y="136.223" width="49.9231" height="89.6327" rx="2" fill="#262141"/>
<rect x="206.774" y="174.121" width="41.4035" height="11.7624" rx="2" fill="#2B2354"/>
<rect x="221.265" y="176.26" width="24.8421" height="2.13862" rx="1" fill="#9C9C9C"/>
<rect x="233.686" y="181.605" width="12.4211" height="2.13862" rx="1" fill="#9C9C9C"/>
<ellipse cx="212.984" cy="179.468" rx="4.14035" ry="4.27723" fill="#9C9C9C"/>
<rect x="206.774" y="189.091" width="41.4035" height="11.7624" rx="2" fill="#2B2354"/>
<rect x="221.265" y="191.23" width="24.8421" height="2.13862" rx="1" fill="#9C9C9C"/>
<rect x="233.686" y="196.575" width="12.4211" height="2.13862" rx="1" fill="#9C9C9C"/>
<ellipse cx="212.984" cy="194.437" rx="4.14035" ry="4.27723" fill="#9C9C9C"/>
<rect x="206.774" y="204.062" width="41.4035" height="11.7624" rx="2" fill="#2B2354"/>
<rect x="221.265" y="206.2" width="24.8421" height="2.13862" rx="1" fill="#9C9C9C"/>
<rect x="233.686" y="211.547" width="12.4211" height="2.13862" rx="1" fill="#9C9C9C"/>
<ellipse cx="212.984" cy="209.408" rx="4.14035" ry="4.27723" fill="#9C9C9C"/>
<rect x="207.406" y="142.895" width="40.1884" height="19.8947" fill="#2B2354"/>
<rect x="207.656" y="143.145" width="11.471" height="19.3947" stroke="#655F5F" stroke-width="0.5"/>
<rect x="222.192" y="143.145" width="12.3261" height="19.3947" stroke="#655F5F" stroke-width="0.5"/>
<rect x="236.728" y="143.145" width="11.471" height="19.3947" stroke="#655F5F" stroke-width="0.5"/>
<rect x="54" y="178" width="114" height="35" rx="3" fill="#691FB8"/>
<rect x="54" y="178" width="114" height="35" rx="3" fill="#691FB8"/>
<rect x="54" y="178" width="114" height="35" rx="3" fill="#691FB8"/>
<rect x="62" y="182" width="99" height="28" rx="3" fill="#691FB8"/>
<rect x="62" y="182" width="99" height="28" rx="3" fill="#691FB8"/>
<rect x="62" y="182" width="99" height="28" rx="3" fill="white"/>
<path d="M99.4395 191.979C99.4395 191.826 99.502 191.703 99.627 191.609C99.752 191.516 99.873 191.469 99.9902 191.469C100.154 191.473 100.299 191.525 100.424 191.627C100.549 191.729 100.611 191.865 100.611 192.037L100.617 195.33L105 195.324L105.006 192.037C104.994 191.881 105.047 191.748 105.164 191.639C105.285 191.525 105.426 191.469 105.586 191.469C105.746 191.469 105.885 191.523 106.002 191.633C106.119 191.742 106.178 191.877 106.178 192.037L106.172 199.484C106.172 199.641 106.113 199.775 105.996 199.889C105.883 199.998 105.746 200.053 105.586 200.053C105.426 200.053 105.287 200 105.17 199.895C105.057 199.785 105 199.652 105 199.496V196.508L100.623 196.514L100.629 199.502C100.629 199.662 100.572 199.797 100.459 199.906C100.346 200.016 100.207 200.07 100.043 200.07C99.8828 200.07 99.7441 200.016 99.627 199.906C99.5137 199.793 99.457 199.658 99.457 199.502C99.4531 198.26 99.4492 197.018 99.4453 195.775C99.4453 194.529 99.4434 193.285 99.4395 192.043V191.979ZM107.807 192.98C107.627 192.98 107.48 192.926 107.367 192.816C107.254 192.703 107.195 192.564 107.191 192.4L107.18 191.955C107.18 191.807 107.246 191.688 107.379 191.598C107.512 191.504 107.639 191.457 107.76 191.457C107.924 191.457 108.061 191.514 108.17 191.627C108.283 191.74 108.342 191.877 108.346 192.037L108.352 192.389C108.352 192.541 108.301 192.678 108.199 192.799C108.098 192.92 107.967 192.98 107.807 192.98ZM107.174 194.088C107.174 193.939 107.236 193.818 107.361 193.725C107.486 193.631 107.607 193.584 107.725 193.584C107.896 193.584 108.043 193.635 108.164 193.736C108.285 193.838 108.346 193.973 108.346 194.141V194.146L108.357 199.572C108.357 199.729 108.299 199.861 108.182 199.971C108.068 200.08 107.932 200.135 107.771 200.135C107.607 200.135 107.469 200.08 107.355 199.971C107.242 199.857 107.186 199.723 107.186 199.566L107.174 194.088ZM112.441 193.572C113 193.572 113.506 193.695 113.959 193.941C114.416 194.184 114.754 194.512 114.973 194.926C115.02 195.008 115.043 195.102 115.043 195.207C115.043 195.367 114.984 195.506 114.867 195.623C114.754 195.736 114.617 195.793 114.457 195.793C114.359 195.793 114.258 195.762 114.152 195.699C114.051 195.633 113.979 195.557 113.936 195.471C113.807 195.229 113.613 195.047 113.355 194.926C113.098 194.805 112.791 194.744 112.436 194.744C112.229 194.744 111.994 194.771 111.732 194.826C111.471 194.881 111.244 194.969 111.053 195.09C110.861 195.211 110.766 195.375 110.766 195.582C110.766 195.734 110.844 195.855 111 195.945C111.16 196.031 111.355 196.098 111.586 196.145C111.82 196.191 112.055 196.227 112.289 196.25C112.523 196.27 112.715 196.287 112.863 196.303C113.152 196.334 113.438 196.383 113.719 196.449C114 196.512 114.258 196.605 114.492 196.73C114.727 196.855 114.912 197.025 115.049 197.24C115.189 197.455 115.26 197.729 115.26 198.061C115.26 198.533 115.123 198.92 114.85 199.221C114.576 199.521 114.227 199.744 113.801 199.889C113.375 200.033 112.93 200.105 112.465 200.105C111.828 200.105 111.248 199.98 110.725 199.73C110.205 199.477 109.82 199.107 109.57 198.623C109.523 198.529 109.5 198.438 109.5 198.348C109.5 198.188 109.557 198.051 109.67 197.938C109.787 197.82 109.926 197.762 110.086 197.762C110.188 197.762 110.289 197.795 110.391 197.861C110.496 197.924 110.57 198 110.613 198.09C110.766 198.387 111 198.602 111.316 198.734C111.637 198.867 112.018 198.934 112.459 198.934C112.693 198.934 112.936 198.908 113.186 198.857C113.439 198.803 113.652 198.711 113.824 198.582C114 198.453 114.088 198.277 114.088 198.055C114.088 197.883 114.012 197.76 113.859 197.686C113.711 197.607 113.531 197.557 113.32 197.533C113.113 197.51 112.92 197.488 112.74 197.469C112.396 197.434 112.041 197.389 111.674 197.334C111.307 197.275 110.965 197.184 110.648 197.059C110.336 196.934 110.082 196.754 109.887 196.52C109.691 196.285 109.594 195.973 109.594 195.582C109.594 195.23 109.678 194.928 109.846 194.674C110.018 194.42 110.244 194.213 110.525 194.053C110.807 193.889 111.113 193.768 111.445 193.689C111.781 193.611 112.113 193.572 112.441 193.572ZM117.316 192.535C117.316 192.375 117.373 192.238 117.486 192.125C117.6 192.008 117.738 191.949 117.902 191.949C118.062 191.949 118.199 192.008 118.312 192.125C118.43 192.238 118.488 192.375 118.488 192.535V193.701H119.273C119.426 193.701 119.557 193.756 119.666 193.865C119.775 193.975 119.83 194.105 119.83 194.258C119.83 194.41 119.775 194.541 119.666 194.65C119.557 194.76 119.426 194.814 119.273 194.814H118.482L118.477 198.441V198.453C118.477 198.645 118.498 198.777 118.541 198.852C118.584 198.922 118.672 198.957 118.805 198.957C118.973 198.957 119.121 198.912 119.25 198.822C119.297 198.791 119.354 198.764 119.42 198.74C119.486 198.713 119.551 198.699 119.613 198.699C119.773 198.699 119.91 198.756 120.023 198.869C120.141 198.982 120.199 199.119 120.199 199.279C120.199 199.471 120.121 199.625 119.965 199.742C119.816 199.855 119.646 199.949 119.455 200.023C119.264 200.098 119.059 200.135 118.84 200.135C118.348 200.135 117.969 199.984 117.703 199.684C117.438 199.379 117.305 199 117.305 198.547V198.494L117.311 194.82H116.555C116.402 194.82 116.271 194.766 116.162 194.656C116.053 194.547 115.998 194.416 115.998 194.264C115.998 194.111 116.053 193.98 116.162 193.871C116.271 193.762 116.402 193.707 116.555 193.707H117.316V192.535ZM123.844 193.584C124.293 193.584 124.711 193.67 125.098 193.842C125.488 194.014 125.83 194.252 126.123 194.557C126.416 194.861 126.645 195.211 126.809 195.605C126.977 196 127.061 196.42 127.061 196.865C127.061 197.303 126.977 197.719 126.809 198.113C126.641 198.504 126.408 198.85 126.111 199.15C125.818 199.447 125.477 199.682 125.086 199.854C124.699 200.025 124.285 200.111 123.844 200.111C123.406 200.111 122.992 200.027 122.602 199.859C122.215 199.691 121.873 199.459 121.576 199.162C121.283 198.865 121.053 198.521 120.885 198.131C120.717 197.736 120.633 197.314 120.633 196.865C120.633 196.42 120.717 196 120.885 195.605C121.053 195.211 121.283 194.863 121.576 194.562C121.873 194.258 122.215 194.02 122.602 193.848C122.988 193.672 123.402 193.584 123.844 193.584ZM121.816 196.877C121.816 197.256 121.908 197.602 122.092 197.914C122.279 198.223 122.527 198.469 122.836 198.652C123.145 198.836 123.482 198.928 123.85 198.928C124.225 198.928 124.564 198.834 124.869 198.646C125.178 198.455 125.422 198.203 125.602 197.891C125.785 197.578 125.877 197.236 125.877 196.865C125.877 196.486 125.787 196.139 125.607 195.822C125.428 195.502 125.184 195.246 124.875 195.055C124.57 194.863 124.227 194.768 123.844 194.768C123.457 194.768 123.111 194.865 122.807 195.061C122.502 195.252 122.26 195.508 122.08 195.828C121.904 196.145 121.816 196.494 121.816 196.877ZM131.818 194.322C131.818 194.635 131.668 194.809 131.367 194.844C131.258 194.855 131.119 194.82 130.951 194.738C130.783 194.652 130.613 194.609 130.441 194.609C130.102 194.609 129.832 194.697 129.633 194.873C129.434 195.045 129.291 195.277 129.205 195.57C129.119 195.863 129.076 196.191 129.076 196.555V199.578C129.076 199.75 129.023 199.887 128.918 199.988C128.816 200.09 128.674 200.141 128.49 200.141C128.311 200.141 128.168 200.09 128.062 199.988C127.957 199.887 127.904 199.748 127.904 199.572V194.176C127.904 194 127.947 193.855 128.033 193.742C128.123 193.629 128.244 193.572 128.396 193.572C128.486 193.572 128.59 193.611 128.707 193.689C128.828 193.764 128.912 193.893 128.959 194.076L129.018 194.498C129.068 194.389 129.166 194.262 129.311 194.117C129.455 193.973 129.627 193.848 129.826 193.742C130.025 193.633 130.232 193.578 130.447 193.578C130.846 193.578 131.174 193.625 131.432 193.719C131.689 193.809 131.818 194.01 131.818 194.322ZM132.697 193.549C132.811 193.549 132.916 193.582 133.014 193.648C133.115 193.715 133.188 193.797 133.23 193.895L135.223 198.424L136.928 193.936C136.971 193.83 137.041 193.742 137.139 193.672C137.24 193.602 137.352 193.566 137.473 193.566C137.633 193.566 137.77 193.625 137.883 193.742C138 193.855 138.059 193.992 138.059 194.152C138.059 194.234 138.043 194.311 138.012 194.381L135.855 200.006C135.848 200.057 135.834 200.102 135.814 200.141C135.795 200.18 135.775 200.215 135.756 200.246L135.428 201.066C135.346 201.27 135.248 201.484 135.135 201.711C135.021 201.941 134.865 202.158 134.666 202.361C134.475 202.561 134.24 202.729 133.963 202.865C133.689 203.002 133.402 203.07 133.102 203.07C132.938 203.07 132.799 203.01 132.686 202.889C132.572 202.771 132.516 202.633 132.516 202.473C132.516 202.316 132.568 202.18 132.674 202.062C132.783 201.949 132.914 201.891 133.066 201.887C133.41 201.863 133.676 201.729 133.863 201.482C134.051 201.24 134.211 200.953 134.344 200.621L134.625 199.906L132.164 194.387C132.129 194.305 132.111 194.221 132.111 194.135C132.111 193.975 132.168 193.838 132.281 193.725C132.398 193.607 132.537 193.549 132.697 193.549Z" fill="#691FB8"/>
<path d="M87.9417 203C86.0102 203 84.3704 202.316 83.0222 200.949C81.6741 199.581 81 197.925 81 195.981H82.1667C82.1667 197.601 82.7241 198.981 83.8389 200.122C84.9537 201.263 86.3213 201.833 87.9417 201.833C89.588 201.833 90.9815 201.256 92.1222 200.103C93.263 198.949 93.8333 197.549 93.8333 195.903C93.8333 194.295 93.2565 192.938 92.1028 191.829C90.9491 190.721 89.562 190.167 87.9417 190.167C87.0602 190.167 86.2338 190.368 85.4625 190.769C84.6912 191.171 84.0204 191.703 83.45 192.364H85.4917V193.531H81.4278V189.486H82.5944V191.547C83.2685 190.756 84.069 190.134 84.9958 189.681C85.9227 189.227 86.9046 189 87.9417 189C88.9139 189 89.8278 189.181 90.6833 189.544C91.5389 189.907 92.2875 190.403 92.9292 191.032C93.5708 191.661 94.0764 192.396 94.4458 193.239C94.8153 194.081 95 194.989 95 195.961C95 196.933 94.8153 197.847 94.4458 198.703C94.0764 199.558 93.5708 200.304 92.9292 200.939C92.2875 201.574 91.5389 202.076 90.6833 202.446C89.8278 202.815 88.9139 203 87.9417 203ZM90.4306 199.169L87.4361 196.214V192.053H88.6028V195.728L91.2667 198.333L90.4306 199.169Z" fill="#6824B3"/>
</svg>
