<svg width="48" height="48" viewBox="0 0 48 48" fill="none" xmlns="http://www.w3.org/2000/svg">
<path d="M44 18.5537C44 25.4791 38.3368 31.1074 31.3334 31.1074C24.3299 31.1074 18.6667 25.4791 18.6667 18.5537C18.6667 11.6283 24.3299 6 31.3334 6C38.3368 6 44 11.6283 44 18.5537Z" stroke="#F9F9F9" stroke-width="2"/>
<path d="M19.7063 25.3773L23.5008 29.9607L9.98316 40.9673C9.55489 41.316 8.9222 41.2539 8.57001 40.8284L6.0509 37.7856C5.69871 37.3602 5.76038 36.7326 6.18866 36.3839L19.7063 25.3773Z" stroke="#F9F9F9" stroke-width="2"/>
<rect width="7.16472" height="3.18628" transform="matrix(0.782898 -0.622151 0.628473 0.777831 19.0139 27.7471)" fill="#9333EA"/>
<path d="M38.8501 20.5873C39.884 22.2495 38.9026 24.3264 36.9754 25.5054C35.0482 26.6845 32.3673 26.9932 31.3334 25.331C30.2994 23.6688 34.2996 25.481 36.2268 24.302C38.154 23.123 37.8161 18.9251 38.8501 20.5873Z" fill="#FAFAFA"/>
</svg>
