<svg width="341" height="346" viewBox="0 0 341 346" fill="none" xmlns="http://www.w3.org/2000/svg">
<g clip-path="url(#clip0_760_110)">
<path d="M170.289 176.773L273.694 233.17C284.337 238.975 284.497 254.2 273.977 260.227L170.583 319.461C165.708 322.254 159.704 322.19 154.889 319.294L56.3971 260.054C46.2567 253.954 46.4151 239.2 56.6841 233.32L155.165 176.93C159.837 174.254 165.562 174.195 170.289 176.773Z" stroke="#610BBE" stroke-width="19"/>
<path d="M35.8145 78.8341L133.815 27.561C144.135 22.1615 156.5 29.6476 156.5 41.2948V153.667C156.5 159.347 153.394 164.571 148.404 167.284L50.4039 220.568C40.0756 226.184 27.5 218.707 27.5 206.951V92.568C27.5 86.7996 30.7034 81.5083 35.8145 78.8341Z" stroke="#610BBE" stroke-width="19"/>
<path d="M302.894 83.185L190.425 26.6856C180.117 21.5075 167.967 29.001 167.967 40.5361L167.967 153.254C167.967 158.981 171.125 164.241 176.179 166.934L279.872 222.173C289.729 227.424 301.735 220.843 302.612 209.71L311.388 98.2523C311.883 91.9702 308.525 86.0138 302.894 83.185Z" stroke="#610BBE" stroke-width="19"/>
</g>
<defs>
<clipPath id="clip0_760_110">
<rect width="341" height="346" fill="white"/>
</clipPath>
</defs>
</svg>
