<svg width="341" height="346" viewBox="0 0 341 346" fill="none" xmlns="http://www.w3.org/2000/svg">
<rect x="15.5" y="62.5" width="308.387" height="220.116" rx="17.5" stroke="#888888" stroke-width="15"/>
<path d="M145.029 151.787C145.029 168.343 130.342 182.737 110.976 182.737C91.6109 182.737 76.9238 168.343 76.9238 151.787C76.9238 135.232 91.6109 120.838 110.976 120.838C130.342 120.838 145.029 135.232 145.029 151.787Z" stroke="#888888" stroke-width="15"/>
<path d="M53.8472 219.517C84.4073 184.818 138.415 185.21 168.515 219.882V253.903C168.515 258.045 165.157 261.403 161.015 261.403H60.9375C56.7954 261.403 53.4375 258.045 53.4375 253.903V219.982L53.8472 219.517Z" stroke="#888888" stroke-width="15"/>
<rect x="15.0712" y="269.786" width="309.244" height="14.1423" rx="7.07116" stroke="#888888" stroke-width="14.1423"/>
<path d="M201.016 96.0879H272.06C281.725 96.0879 289.56 103.923 289.56 113.588V157.066C289.56 166.296 282.391 173.939 273.18 174.53L247.297 176.191C242.312 176.51 237.47 177.982 233.149 180.489L213.657 191.799C211.755 192.903 209.35 191.653 209.16 189.462C208.354 180.156 200.565 173.013 191.225 173.013H188.973C185.959 173.013 183.516 170.57 183.516 167.556V113.588C183.516 103.923 191.351 96.0879 201.016 96.0879Z" stroke="#888888" stroke-width="15"/>
</svg>
