<svg width="341" height="346" viewBox="0 0 341 346" fill="none" xmlns="http://www.w3.org/2000/svg">
<path d="M53.5115 43.5H210.296H288.81C292.575 43.5 294.676 47.8487 292.335 50.7978L203.435 162.786C199.855 167.295 197.907 172.883 197.907 178.641V295.341C197.907 296.252 197.43 297.098 196.65 297.569C195.462 298.286 193.921 297.945 193.146 296.795L152.043 235.8C151.542 235.057 151.274 234.182 151.274 233.286V178.939C151.274 172.873 149.112 167.005 145.175 162.39L50.0879 50.9204C47.5961 47.9993 49.672 43.5 53.5115 43.5Z" stroke="#888888" stroke-width="21"/>
<path d="M170.623 195.991H209.162L210.674 300.273L205.006 304.789L192.538 285.493L170.623 195.991Z" fill="#F5F5F5"/>
<ellipse cx="216.717" cy="241.153" rx="37.028" ry="39.4135" fill="#888888"/>
<rect x="197.201" y="233.795" width="37.5217" height="14.7144" rx="6" fill="white"/>
<rect width="57.089" height="14.6294" rx="5" transform="matrix(0.665723 0.746199 -0.688499 0.725238 98.9473 61.998)" fill="#888888"/>
<rect width="27.1097" height="14.9175" rx="5" transform="matrix(0.665723 0.746199 -0.688499 0.725238 142.635 110.938)" fill="#888888"/>
</svg>
