<svg width="48" height="48" viewBox="0 0 48 48" fill="none" xmlns="http://www.w3.org/2000/svg">
<path d="M2 11.6V5C2 4.2 2.3 3.5 2.9 2.9C3.5 2.3 4.2 2 5 2H11.6V5H5V11.6H2ZM11.6 46H5C4.2 46 3.5 45.7 2.9 45.1C2.3 44.5 2 43.8 2 43V36.4H5V43H11.6V46ZM36.4 46V43H43V36.4H46V43C46 43.8 45.7 44.5 45.1 45.1C44.5 45.7 43.8 46 43 46H36.4ZM43 11.6V5H36.4V2H43C43.8 2 44.5 2.3 45.1 2.9C45.7 3.5 46 4.2 46 5V11.6H43Z" fill="#A7A7A7"/>
<path d="M24 23C21.8 23 20 22.3 18.6 20.9C17.2 19.5 16.5 17.7 16.5 15.5C16.5 13.3 17.2 11.5 18.6 10.1C20 8.7 21.8 8 24 8C26.2 8 28 8.7 29.4 10.1C30.8 11.5 31.5 13.3 31.5 15.5C31.5 17.7 30.8 19.5 29.4 20.9C28 22.3 26.2 23 24 23ZM8 39.05V34.35C8 33.1833 8.29167 32.125 8.875 31.175C9.45833 30.225 10.3 29.5167 11.4 29.05C13.9 27.95 16.1223 27.175 18.0669 26.725C20.0115 26.275 21.9865 26.05 23.9919 26.05C25.9973 26.05 27.9667 26.275 29.9 26.725C31.8333 27.175 34.05 27.95 36.55 29.05C37.65 29.55 38.5 30.2667 39.1 31.2C39.7 32.1333 40 33.1833 40 34.35V39.05H8ZM11 36.05H37V34.35C37 33.8167 36.85 33.3083 36.55 32.825C36.25 32.3417 35.85 31.9833 35.35 31.75C32.9833 30.65 30.9833 29.925 29.35 29.575C27.7167 29.225 25.9333 29.05 24 29.05C22.0667 29.05 20.275 29.225 18.625 29.575C16.975 29.925 14.9667 30.65 12.6 31.75C12.1 31.9833 11.7083 32.3417 11.425 32.825C11.1417 33.3083 11 33.8167 11 34.35V36.05ZM24 20C25.3 20 26.375 19.575 27.225 18.725C28.075 17.875 28.5 16.8 28.5 15.5C28.5 14.2 28.075 13.125 27.225 12.275C26.375 11.425 25.3 11 24 11C22.7 11 21.625 11.425 20.775 12.275C19.925 13.125 19.5 14.2 19.5 15.5C19.5 16.8 19.925 17.875 20.775 18.725C21.625 19.575 22.7 20 24 20Z" fill="#A7A7A7"/>
</svg>
