<svg width="341" height="346" viewBox="0 0 341 346" fill="none" xmlns="http://www.w3.org/2000/svg">
<path d="M94.9739 130.12H27.4873C22.4774 130.12 18.416 126.059 18.416 121.049C18.416 116.766 21.4124 113.066 25.6024 112.176L55.8136 105.758C58.2111 105.249 60.6888 105.249 63.0862 105.758L90.137 111.504C97.0425 112.971 102.39 118.444 103.698 125.381L105.363 134.217C102.625 131.661 98.957 130.12 94.9739 130.12Z" stroke="#888888" stroke-width="15"/>
<path d="M94.9739 130.12H27.4873C22.4774 130.12 18.416 126.059 18.416 121.049C18.416 116.766 21.4124 113.066 25.6024 112.176L55.8136 105.758C58.2111 105.249 60.6888 105.249 63.0862 105.758L90.137 111.504C97.0425 112.971 102.39 118.444 103.698 125.381L105.363 134.217C102.625 131.661 98.957 130.12 94.9739 130.12Z" stroke="#888888" stroke-width="15"/>
<path d="M94.9739 130.12H27.4873C22.4774 130.12 18.416 126.059 18.416 121.049C18.416 116.766 21.4124 113.066 25.6024 112.176L55.8136 105.758C58.2111 105.249 60.6888 105.249 63.0862 105.758L90.137 111.504C97.0425 112.971 102.39 118.444 103.698 125.381L105.363 134.217C102.625 131.661 98.957 130.12 94.9739 130.12Z" stroke="#888888" stroke-width="15"/>
<path d="M310.171 137.986H242.685C237.675 137.986 233.613 133.924 233.613 128.914C233.613 124.631 236.61 120.931 240.8 120.041L271.011 113.623C273.408 113.114 275.886 113.114 278.284 113.623L305.334 119.37C312.24 120.837 317.588 126.309 318.895 133.246L320.561 142.082C317.823 139.526 314.154 137.986 310.171 137.986Z" stroke="#888888" stroke-width="15"/>
<path d="M310.171 137.986H242.685C237.675 137.986 233.613 133.924 233.613 128.914C233.613 124.631 236.61 120.931 240.8 120.041L271.011 113.623C273.408 113.114 275.886 113.114 278.284 113.623L305.334 119.37C312.24 120.837 317.588 126.309 318.895 133.246L320.561 142.082C317.823 139.526 314.154 137.986 310.171 137.986Z" stroke="#888888" stroke-width="15"/>
<path d="M310.171 137.986H242.685C237.675 137.986 233.613 133.924 233.613 128.914C233.613 124.631 236.61 120.931 240.8 120.041L271.011 113.623C273.408 113.114 275.886 113.114 278.284 113.623L305.334 119.37C312.24 120.837 317.588 126.309 318.895 133.246L320.561 142.082C317.823 139.526 314.154 137.986 310.171 137.986Z" stroke="#888888" stroke-width="15"/>
<path d="M203.962 93.3745H132.021C126.428 93.3745 121.895 88.8408 121.895 83.248C121.895 78.4651 125.241 74.3343 129.92 73.3419L162.477 66.4369C164.871 65.9292 167.344 65.9292 169.738 66.4369L199.974 72.8497C206.88 74.3144 212.23 79.7854 213.54 86.7226L215.812 98.7605C212.909 95.4371 208.646 93.3745 203.962 93.3745Z" stroke="#888888" stroke-width="15"/>
<path d="M203.962 93.3745H132.021C126.428 93.3745 121.895 88.8408 121.895 83.248C121.895 78.4651 125.241 74.3343 129.92 73.3419L162.477 66.4369C164.871 65.9292 167.344 65.9292 169.738 66.4369L199.974 72.8497C206.88 74.3144 212.23 79.7854 213.54 86.7226L215.812 98.7605C212.909 95.4371 208.646 93.3745 203.962 93.3745Z" stroke="#888888" stroke-width="15"/>
<path d="M203.962 93.3745H132.021C126.428 93.3745 121.895 88.8408 121.895 83.248C121.895 78.4651 125.241 74.3343 129.92 73.3419L162.477 66.4369C164.871 65.9292 167.344 65.9292 169.738 66.4369L199.974 72.8497C206.88 74.3144 212.23 79.7854 213.54 86.7226L215.812 98.7605C212.909 95.4371 208.646 93.3745 203.962 93.3745Z" stroke="#888888" stroke-width="15"/>
<path d="M202.13 136.146C202.13 155.726 186.523 171.406 167.507 171.406C148.49 171.406 132.883 155.726 132.883 136.146C132.883 116.567 148.49 100.887 167.507 100.887C186.523 100.887 202.13 116.567 202.13 136.146Z" stroke="#888888" stroke-width="15"/>
<path d="M202.13 136.146C202.13 155.726 186.523 171.406 167.507 171.406C148.49 171.406 132.883 155.726 132.883 136.146C132.883 116.567 148.49 100.887 167.507 100.887C186.523 100.887 202.13 116.567 202.13 136.146Z" stroke="#888888" stroke-width="15"/>
<path d="M202.13 136.146C202.13 155.726 186.523 171.406 167.507 171.406C148.49 171.406 132.883 155.726 132.883 136.146C132.883 116.567 148.49 100.887 167.507 100.887C186.523 100.887 202.13 116.567 202.13 136.146Z" stroke="#888888" stroke-width="15"/>
<path d="M109.372 215.617C136.246 171.984 199.618 172.492 225.938 216.016V273.998C225.938 278.14 222.58 281.498 218.438 281.498H116.572C112.43 281.498 109.072 278.14 109.072 273.998V216.103L109.372 215.617Z" stroke="#888888" stroke-width="15"/>
<path d="M109.372 215.617C136.246 171.984 199.618 172.492 225.938 216.016V273.998C225.938 278.14 222.58 281.498 218.438 281.498H116.572C112.43 281.498 109.072 278.14 109.072 273.998V216.103L109.372 215.617Z" stroke="#888888" stroke-width="15"/>
<path d="M109.372 215.617C136.246 171.984 199.618 172.492 225.938 216.016V273.998C225.938 278.14 222.58 281.498 218.438 281.498H116.572C112.43 281.498 109.072 278.14 109.072 273.998V216.103L109.372 215.617Z" stroke="#888888" stroke-width="15"/>
<path d="M302.563 169.297C302.563 183.497 291.61 194.458 278.763 194.458C265.916 194.458 254.963 183.497 254.963 169.297C254.963 155.098 265.916 144.137 278.763 144.137C291.61 144.137 302.563 155.098 302.563 169.297Z" stroke="#888888" stroke-width="15"/>
<path d="M302.563 169.297C302.563 183.497 291.61 194.458 278.763 194.458C265.916 194.458 254.963 183.497 254.963 169.297C254.963 155.098 265.916 144.137 278.763 144.137C291.61 144.137 302.563 155.098 302.563 169.297Z" stroke="#888888" stroke-width="15"/>
<path d="M302.563 169.297C302.563 183.497 291.61 194.458 278.763 194.458C265.916 194.458 254.963 183.497 254.963 169.297C254.963 155.098 265.916 144.137 278.763 144.137C291.61 144.137 302.563 155.098 302.563 169.297Z" stroke="#888888" stroke-width="15"/>
<path d="M237.273 230.823C256.173 199.439 301.551 199.684 320.257 230.756V271.049C320.257 275.191 316.899 278.549 312.757 278.549H244.773C240.631 278.549 237.273 275.191 237.273 271.049V230.823Z" stroke="#888888" stroke-width="15"/>
<path d="M237.273 230.823C256.173 199.439 301.551 199.684 320.257 230.756V271.049C320.257 275.191 316.899 278.549 312.757 278.549H244.773C240.631 278.549 237.273 275.191 237.273 271.049V230.823Z" stroke="#888888" stroke-width="15"/>
<path d="M237.273 230.823C256.173 199.439 301.551 199.684 320.257 230.756V271.049C320.257 275.191 316.899 278.549 312.757 278.549H244.773C240.631 278.549 237.273 275.191 237.273 271.049V230.823Z" stroke="#888888" stroke-width="15"/>
<path d="M82.7901 160.454C82.7901 174.653 71.8368 185.614 58.9898 185.614C46.1427 185.614 35.1895 174.653 35.1895 160.454C35.1895 146.254 46.1427 135.293 58.9898 135.293C71.8368 135.293 82.7901 146.254 82.7901 160.454Z" stroke="#888888" stroke-width="15"/>
<path d="M82.7901 160.454C82.7901 174.653 71.8368 185.614 58.9898 185.614C46.1427 185.614 35.1895 174.653 35.1895 160.454C35.1895 146.254 46.1427 135.293 58.9898 135.293C71.8368 135.293 82.7901 146.254 82.7901 160.454Z" stroke="#888888" stroke-width="15"/>
<path d="M82.7901 160.454C82.7901 174.653 71.8368 185.614 58.9898 185.614C46.1427 185.614 35.1895 174.653 35.1895 160.454C35.1895 146.254 46.1427 135.293 58.9898 135.293C71.8368 135.293 82.7901 146.254 82.7901 160.454Z" stroke="#888888" stroke-width="15"/>
<path d="M17.5 221.98C36.3997 190.595 81.7773 190.84 100.484 221.913V262.205C100.484 266.347 97.1257 269.705 92.9836 269.705H25C20.8579 269.705 17.5 266.347 17.5 262.205V221.98Z" stroke="#888888" stroke-width="15"/>
<path d="M17.5 221.98C36.3997 190.595 81.7773 190.84 100.484 221.913V262.205C100.484 266.347 97.1257 269.705 92.9836 269.705H25C20.8579 269.705 17.5 266.347 17.5 262.205V221.98Z" stroke="#888888" stroke-width="15"/>
<path d="M17.5 221.98C36.3997 190.595 81.7773 190.84 100.484 221.913V262.205C100.484 266.347 97.1257 269.705 92.9836 269.705H25C20.8579 269.705 17.5 266.347 17.5 262.205V221.98Z" stroke="#888888" stroke-width="15"/>
</svg>
