<svg width="341" height="346" viewBox="0 0 341 346" fill="none" xmlns="http://www.w3.org/2000/svg">
<path d="M148.458 346C134.382 346 122.495 335.55 120.689 321.591L117.06 293.52C113.384 292.153 109.92 290.513 106.669 288.6C103.417 286.687 100.236 284.637 97.1256 282.45L68.8844 293.921C56.0915 299.117 41.4206 294.211 34.3261 282.365L13.1162 246.951C5.68458 234.542 8.92731 218.515 20.5983 209.971L43.6853 193.07C43.4026 191.157 43.2612 189.312 43.2612 187.535V176.465C43.2612 174.688 43.4026 172.843 43.6853 170.93L20.5983 154.029C8.92731 145.485 5.68457 129.458 13.1162 117.049L34.3261 81.6346C41.4206 69.7887 56.0915 64.8832 68.8844 70.0792L97.1256 81.55C100.236 79.3633 103.488 77.3133 106.881 75.4C110.274 73.4867 113.667 71.8467 117.06 70.48L120.689 42.4093C122.495 28.4497 134.382 18 148.458 18H192.542C206.618 18 218.505 28.4497 220.311 42.4093L223.94 70.48C227.616 71.8467 231.08 73.4867 234.331 75.4C237.583 77.3133 240.764 79.3633 243.874 81.55L272.116 70.0792C284.908 64.8831 299.579 69.7887 306.674 81.6346L327.884 117.049C335.315 129.458 332.073 145.485 320.402 154.029L297.315 170.93C297.597 172.843 297.739 174.688 297.739 176.465V187.535C297.739 189.312 297.456 191.157 296.891 193.07L319.978 209.971C331.649 218.515 334.891 234.542 327.46 246.95L306.287 282.304C299.176 294.177 284.458 299.074 271.652 293.828L243.874 282.45C240.764 284.637 237.512 286.687 234.119 288.6C230.726 290.513 227.333 292.153 223.94 293.52L220.311 321.591C218.505 335.55 206.618 346 192.542 346H148.458ZM153.535 313.2H187.041L190.412 288.527C191.962 277.181 200.458 268.293 210.84 263.461C213.067 262.425 215.242 261.306 217.366 260.105C219.584 258.851 221.746 257.519 223.853 256.109C233.021 249.974 244.527 247.368 254.768 251.469L279.925 261.54L296.466 233.66L270.068 214.372C264.105 210.016 261.983 202.235 262.96 194.915V194.915C263.526 190.678 263.808 186.373 263.808 182C263.808 177.627 263.526 173.322 262.96 169.085V169.085C261.983 161.765 264.105 153.984 270.068 149.628L296.466 130.34L279.925 102.46L255.28 112.567C244.785 116.871 232.947 114.062 223.544 107.718C221.535 106.362 219.476 105.088 217.366 103.895C215.299 102.726 213.183 101.635 211.018 100.622C200.558 95.7264 192.021 86.7119 190.568 75.2539L187.465 50.8H153.959L150.588 75.4727C149.038 86.8191 140.542 95.7065 130.16 100.539C127.933 101.575 125.758 102.694 123.634 103.895C121.416 105.149 119.254 106.481 117.147 107.891C107.979 114.026 96.473 116.632 86.2315 112.531L61.0746 102.46L44.5336 130.34L70.7209 149.179C76.8272 153.572 79.0676 161.428 78.0398 168.88V168.88C77.4743 172.98 77.1915 177.353 77.1915 182C77.1915 186.373 77.4743 190.61 78.0398 194.71V194.71C79.0692 202.173 76.8587 210.042 70.7757 214.487L44.5336 233.66L61.0746 261.54L85.7202 251.433C96.215 247.129 108.053 249.938 117.456 256.282C119.465 257.638 121.524 258.912 123.634 260.105C125.701 261.274 127.817 262.365 129.982 263.378C140.442 268.274 148.979 277.288 150.432 288.746L153.535 313.2Z" fill="#888888"/>
<path d="M202.36 182.225C202.36 200.031 187.944 214.45 170.18 214.45C152.416 214.45 138 200.031 138 182.225C138 164.419 152.416 150 170.18 150C187.944 150 202.36 164.419 202.36 182.225Z" fill="white" fill-opacity="0.09" stroke="#888888" stroke-width="16"/>
</svg>
