<svg width="48" height="48" viewBox="0 0 48 48" fill="none" xmlns="http://www.w3.org/2000/svg">
<path d="M40 21.4136C40 27.1716 35.367 31.8273 29.6667 31.8273C23.9664 31.8273 19.3334 27.1716 19.3334 21.4136C19.3334 15.6557 23.9664 11 29.6667 11C35.367 11 40 15.6557 40 21.4136Z" stroke="#610BBE" stroke-width="2"/>
<path d="M20.0002 27.3918L22.9407 30.9987L12.1138 39.9509C11.6882 40.3028 11.0603 40.2411 10.7113 39.813L9.03447 37.7563C8.6855 37.3282 8.74764 36.6959 9.17327 36.344L20.0002 27.3918Z" stroke="#610BBE" stroke-width="2"/>
<rect width="5.97724" height="2.6671" transform="matrix(0.778213 -0.628001 0.622624 0.782521 19.4506 29.1553)" fill="#F5F5F5"/>
<path d="M35.9001 23.1258C36.7575 24.5256 35.9436 26.2745 34.3454 27.2674C32.7473 28.2602 30.5241 28.5202 29.6667 27.1205C28.8093 25.7207 32.1265 27.2468 33.7247 26.254C35.3228 25.2611 35.0426 21.7261 35.9001 23.1258Z" fill="#8337D7"/>
</svg>
