<svg width="48" height="48" viewBox="0 0 48 48" fill="none" xmlns="http://www.w3.org/2000/svg">
<path d="M24.95 33.65L41.7 16.9L39.1 14.3L22.35 31.05L24.95 33.65ZM11.9 38C8.56667 37.8333 6.08333 37.1333 4.45 35.9C2.81667 34.6667 2 32.8833 2 30.55C2 28.3833 2.89167 26.625 4.675 25.275C6.45833 23.925 8.93333 23.1167 12.1 22.85C13.4 22.75 14.375 22.5417 15.025 22.225C15.675 21.9083 16 21.4667 16 20.9C16 20.0333 15.5083 19.3833 14.525 18.95C13.5417 18.5167 11.9167 18.2 9.65 18L10 14C13.4333 14.2667 15.9583 14.9583 17.575 16.075C19.1917 17.1917 20 18.8 20 20.9C20 22.6667 19.3583 24.05 18.075 25.05C16.7917 26.05 14.9 26.65 12.4 26.85C10.2667 27.0167 8.66667 27.4083 7.6 28.025C6.53333 28.6417 6 29.4833 6 30.55C6 31.7167 6.46667 32.5583 7.4 33.075C8.33333 33.5917 9.9 33.9 12.1 34L11.9 38ZM25.9 38.35L17.65 30.1L36.75 11C37.4167 10.3333 38.2083 10 39.125 10C40.0417 10 40.8333 10.3333 41.5 11L45 14.5C45.6667 15.1667 46 15.9583 46 16.875C46 17.7917 45.6667 18.5833 45 19.25L25.9 38.35ZM17.95 40C17.3833 40.1333 16.8833 39.9833 16.45 39.55C16.0167 39.1167 15.8667 38.6167 16 38.05L17.65 30.1L25.9 38.35L17.95 40Z" fill="#610BBE"/>
</svg>
