<svg width="48" height="48" viewBox="0 0 48 48" fill="none" xmlns="http://www.w3.org/2000/svg">
<path d="M32.9258 21.9998C32.9258 23.4997 33.2403 24.9155 33.516 26.1562C33.5366 26.2489 33.5569 26.3406 33.5769 26.4313C33.8739 27.7772 34.0738 28.8446 33.8757 29.7127C33.6951 30.504 33.1586 31.2069 31.7149 31.7436C30.2411 32.2914 27.8886 32.6362 24.208 32.6998C20.2031 32.6996 17.6912 32.3849 16.1588 31.8478C15.3984 31.5813 14.9093 31.27 14.5976 30.9424C14.2929 30.622 14.1346 30.262 14.0744 29.8475C14.0124 29.4214 14.0532 28.9301 14.1674 28.36C14.2812 27.7912 14.4603 27.1785 14.6571 26.5052L14.6588 26.4996L14.6614 26.4905C15.0498 25.1621 15.4991 23.6251 15.4991 21.9998C15.4991 15.9946 19.4871 11.2998 24.2124 11.2998C28.9378 11.2998 32.9258 15.9946 32.9258 21.9998Z" stroke="#F9F9F9"/>
<path d="M24.3745 36.4289L24.3251 36.4269L24.2757 36.4281C18.3419 36.5772 14.782 36.2229 12.7247 35.5737C11.7127 35.2544 11.1828 34.8992 10.9046 34.6048C10.6559 34.3417 10.5363 34.0532 10.5069 33.658C10.4741 33.2174 10.5563 32.6482 10.7683 31.8939C10.9586 31.217 11.2219 30.4932 11.5223 29.6676C11.5561 29.5745 11.5905 29.4801 11.6252 29.3844C12.284 27.5695 13.0747 25.3293 13.0747 22.9638C13.0747 15.2924 18.3238 9.5 24.3134 9.5C30.303 9.5 35.5521 15.2924 35.5521 22.9638C35.5521 25.2163 36.1689 27.39 36.6783 29.1853C36.6915 29.2317 36.7046 29.2779 36.7176 29.3238C36.985 30.2669 37.2156 31.0903 37.3584 31.8457C37.5013 32.6015 37.5352 33.189 37.4641 33.6555C37.3981 34.0883 37.2419 34.4239 36.9529 34.7212C36.6441 35.039 36.1038 35.3937 35.1425 35.7023C33.1803 36.3323 29.8522 36.652 24.3745 36.4289Z" stroke="#610BBE" stroke-width="3"/>
<circle cx="24" cy="44" r="2" fill="#610BBE"/>
</svg>
