<svg width="48" height="48" viewBox="0 0 48 48" fill="none" xmlns="http://www.w3.org/2000/svg">
<path d="M14 38C14 38.5523 14.4477 39 15 39H19H30H35C35.5523 39 36 38.5523 36 38V21.5C36 21.1852 36.1482 20.8889 36.4 20.7L36.9131 20.3152C37.4524 19.9107 37.4451 19.0992 36.8986 18.7045L25.0967 10.1809C24.7418 9.92461 24.2614 9.92894 23.9112 10.1916L12.6898 18.6077C12.1216 19.0338 12.1663 19.8998 12.7753 20.2652L13.5145 20.7087C13.8157 20.8894 14 21.2149 14 21.5662V38ZM12.0247 42C11.4629 42 11.0113 41.5373 11.025 40.9756L11.4845 22.1348C11.494 21.7474 11.2787 21.3893 10.932 21.216L10.5 21L8.4855 19.7913C8.1843 19.6106 8 19.2851 8 18.9338V18.5092C8 18.1893 8.15308 17.8887 8.41183 17.7005L23.9118 6.42776C24.2625 6.17274 24.7375 6.17274 25.0882 6.42776L40.5882 17.7005C40.8469 17.8887 41 18.1893 41 18.5092V19C41 19.3148 40.8518 19.6111 40.6 19.8L39.0569 20.9574C39.019 20.9858 38.9832 21.0168 38.9497 21.0503L38.7929 21.2071C38.6054 21.3946 38.5 21.649 38.5 21.9142V41C38.5 41.5523 38.0523 42 37.5 42H27H22H12.0247Z" fill="#A7A7A7"/>
<circle cx="24.5" cy="28" r="4.5" stroke="#A7A7A7" stroke-width="3"/>
</svg>
