<svg width="95" height="121" viewBox="0 0 95 121" fill="none" xmlns="http://www.w3.org/2000/svg">
<path d="M82.1619 48C82.1619 53.5238 83.3151 58.7438 84.346 63.4097C84.4217 63.7523 84.4967 64.0919 84.5705 64.4285C85.6684 69.4301 86.4744 73.6361 85.6836 77.1191C84.9276 80.4491 82.6592 83.275 77.0794 85.36C71.4387 87.4678 62.5399 88.7614 48.7832 89C33.8216 88.9995 24.3261 87.8217 18.4639 85.7563C15.5445 84.7277 13.5859 83.499 12.2997 82.1397C11.027 80.7948 10.365 79.2722 10.1167 77.5554C9.86516 75.8157 10.0368 73.861 10.4715 71.6779C10.9037 69.5073 11.5808 67.179 12.3096 64.673L12.3228 64.6275C13.7785 59.6215 15.4224 53.9634 15.4224 48C15.4224 25.1595 30.5406 7 48.7921 7C67.0436 7 82.1619 25.1595 82.1619 48Z" fill="#844AFF" stroke="#F1E0FE" stroke-width="2"/>
<path d="M48.573 91.7749L48.5079 91.7722L48.4427 91.7739C29.6123 92.242 17.9444 91.1508 10.9616 88.9708C7.49159 87.8874 5.33696 86.5819 4.02536 85.2086C2.75461 83.8781 2.16272 82.3678 2.02936 80.5938C1.89132 78.7578 2.24574 76.6246 2.95081 74.1424C3.58266 71.9179 4.45333 69.5505 5.39706 66.9846C5.5058 66.6889 5.61551 66.3906 5.72594 66.0895C7.82639 60.3637 10.1532 53.7637 10.1532 46.8866C10.1532 21.8036 27.59 2 48.4924 2C69.3948 2 86.8316 21.8036 86.8316 46.8866C86.8316 53.5662 88.6948 60.0662 90.3291 65.7675L90.4197 66.0835C91.2598 69.0155 92.0256 71.7132 92.5044 74.2186C92.9833 76.7246 93.1462 78.9032 92.8554 80.7909C92.5716 82.6327 91.854 84.2191 90.4971 85.6006C89.1126 87.0102 86.9568 88.3128 83.6311 89.3694C76.9283 91.4988 65.978 92.4765 48.573 91.7749Z" stroke="#811ECD" stroke-width="4"/>
<path d="M49.9525 117.519C48.7574 119.215 46.2426 119.215 45.0476 117.519L35.331 103.728C33.9307 101.74 35.3522 99 37.7834 99H57.2166C59.6478 99 61.0693 101.74 59.669 103.728L49.9525 117.519Z" fill="#811ECD"/>
</svg>
