<svg width="343" height="348" viewBox="0 0 343 348" fill="none" xmlns="http://www.w3.org/2000/svg">
<path d="M71.2399 303.076C63.4254 303.04 56.7488 300.186 51.21 294.513C45.6712 288.841 42.9202 282.041 42.9568 274.111L43.2235 216.445L71.6399 216.577L71.3732 274.243L270.288 275.163L271.221 73.3315L72.3065 72.4117L72.0398 130.078L43.6235 129.946L43.8901 72.2803C43.9268 64.3512 46.7406 57.5763 52.3316 51.9556C57.9226 46.3348 64.6253 43.5425 72.4398 43.5787L271.354 44.4984C279.169 44.5346 285.845 47.3887 291.384 53.0609C296.923 58.7331 299.674 65.5338 299.637 73.4629L298.704 275.294C298.667 283.223 295.854 289.998 290.263 295.619C284.672 301.24 277.969 304.032 270.154 303.996L71.2399 303.076ZM149.652 245.771L129.857 224.775L166.258 188.181L43.3568 187.612L43.4901 158.779L166.391 159.348L130.33 122.418L150.318 101.606L221.026 174.017L149.652 245.771Z" fill="white"/>
</svg>
