<svg width="48" height="48" viewBox="0 0 48 48" fill="none" xmlns="http://www.w3.org/2000/svg">
<path d="M11 43C10.2 43 9.5 42.7075 8.9 42.1225C8.3 41.5375 8 40.855 8 40.075V6.925C8 6.145 8.3 5.4625 8.9 4.8775C9.5 4.2925 10.2 4 11 4H29.05L40 14.6762V40.075C40 40.855 39.7 41.5375 39.1 42.1225C38.5 42.7075 37.8 43 37 43H11ZM27.55 15.9925V6.925H11V40.075H37V15.9925H27.55Z" fill="#8016F3"/>
<path d="M22.9375 35.9163C21.2312 35.9163 19.7734 35.3738 18.5641 34.2887C17.3547 33.2037 16.75 31.8712 16.75 30.2913V19.0934C16.75 17.9823 17.1766 17.0361 18.0297 16.2549C18.8828 15.4736 19.9094 15.083 21.1094 15.083C22.3281 15.083 23.3594 15.4736 24.2031 16.2549C25.0469 17.0361 25.4687 17.991 25.4687 19.1195V29.3799C25.4687 30.0396 25.225 30.5995 24.7375 31.0596C24.25 31.5196 23.65 31.7497 22.9375 31.7497C22.225 31.7497 21.625 31.5023 21.1375 31.0075C20.65 30.5127 20.4062 29.9268 20.4062 29.2497V19.0413H21.5312V29.3278C21.5312 29.7097 21.6672 30.0353 21.9391 30.3044C22.2109 30.5735 22.5437 30.708 22.9375 30.708C23.3312 30.708 23.6641 30.5778 23.9359 30.3174C24.2078 30.057 24.3437 29.7445 24.3437 29.3799V19.0934C24.3437 18.2601 24.0297 17.557 23.4016 16.984C22.7734 16.4111 22.0094 16.1247 21.1094 16.1247C20.2094 16.1247 19.4453 16.4111 18.8172 16.984C18.1891 17.557 17.875 18.2601 17.875 19.0934V30.3434C17.875 31.6108 18.3719 32.6828 19.3656 33.5596C20.3594 34.4363 21.55 34.8747 22.9375 34.8747C24.3437 34.8747 25.5391 34.432 26.5234 33.5465C27.5078 32.6611 28 31.5761 28 30.2913V19.0413H29.125V30.2653C29.125 31.8452 28.5203 33.182 27.3109 34.2757C26.1016 35.3695 24.6437 35.9163 22.9375 35.9163Z" fill="#8016F3"/>
</svg>
