<svg width="48" height="48" viewBox="0 0 48 48" fill="none" xmlns="http://www.w3.org/2000/svg">
<path d="M22.5 34H14C11.2333 34 8.875 33.025 6.925 31.075C4.975 29.125 4 26.7667 4 24C4 21.2333 4.975 18.875 6.925 16.925C8.875 14.975 11.2333 14 14 14H22.5V17H14C12.0556 17 10.4028 17.6794 9.04165 19.0383C7.68055 20.3971 7 22.0471 7 23.9883C7 25.9294 7.68055 27.5833 9.04165 28.95C10.4028 30.3167 12.0556 31 14 31H22.5V34ZM16.25 25.5V22.5H31.75V25.5H16.25ZM25.5 34V31H34C35.9444 31 37.5972 30.3206 38.9584 28.9617C40.3195 27.6029 41 25.9529 41 24.0117C41 22.0706 40.3195 20.4167 38.9584 19.05C37.5972 17.6833 35.9444 17 34 17H25.5V14H34C36.7667 14 39.125 14.975 41.075 16.925C43.025 18.875 44 21.2333 44 24C44 26.7667 43.025 29.125 41.075 31.075C39.125 33.025 36.7667 34 34 34H25.5Z" fill="#EAE7EB"/>
</svg>
