<svg width="120" height="120" viewBox="0 0 120 120" fill="none" xmlns="http://www.w3.org/2000/svg">
<path d="M27.5 110C25.4375 110 23.6719 109.266 22.2031 107.797C20.7344 106.328 20 104.562 20 102.5V48.25C20 46.1875 20.7344 44.4219 22.2031 42.9531C23.6719 41.4844 25.4375 40.75 27.5 40.75H36.25V28.75C36.25 22.1792 38.5669 16.5781 43.2007 11.9469C47.8346 7.31563 53.4387 5 60.0132 5C66.5877 5 72.1875 7.31563 76.8125 11.9469C81.4375 16.5781 83.75 22.1792 83.75 28.75V40.75H92.5C94.5625 40.75 96.3281 41.4844 97.7969 42.9531C99.2656 44.4219 100 46.1875 100 48.25V102.5C100 104.562 99.2656 106.328 97.7969 107.797C96.3281 109.266 94.5625 110 92.5 110H27.5ZM27.5 102.5H92.5V48.25H27.5V102.5ZM60.021 85C62.6737 85 64.9375 84.082 66.8125 82.2461C68.6875 80.4102 69.625 78.2032 69.625 75.625C69.625 73.125 68.6805 70.8542 66.7915 68.8125C64.9025 66.7708 62.6317 65.75 59.979 65.75C57.3263 65.75 55.0625 66.7708 53.1875 68.8125C51.3125 70.8542 50.375 73.1458 50.375 75.6875C50.375 78.2292 51.3195 80.4167 53.2085 82.25C55.0975 84.0833 57.3683 85 60.021 85ZM43.75 40.75H76.25V28.75C76.25 24.2361 74.6716 20.3993 71.5147 17.2396C68.3578 14.0799 64.5245 12.5 60.0148 12.5C55.5049 12.5 51.6667 14.0799 48.5 17.2396C45.3333 20.3993 43.75 24.2361 43.75 28.75V40.75Z" fill="#7B7A7A"/>
</svg>
