<svg width="48" height="48" viewBox="0 0 48 48" fill="none" xmlns="http://www.w3.org/2000/svg">
<path d="M15 24C15 21.7909 13.2091 20 11 20C8.79086 20 7 21.7909 7 24C7 26.2091 8.79086 28 11 28C13.2091 28 15 26.2091 15 24Z" fill="#2D2D2D"/>
<path d="M28 24C28 21.7909 26.2091 20 24 20C21.7909 20 20 21.7909 20 24C20 26.2091 21.7909 28 24 28C26.2091 28 28 26.2091 28 24Z" fill="#2D2D2D"/>
<path d="M41 24C41 21.7909 39.2091 20 37 20C34.7909 20 33 21.7909 33 24C33 26.2091 34.7909 28 37 28C39.2091 28 41 26.2091 41 24Z" fill="#2D2D2D"/>
</svg>
