<svg width="48" height="48" viewBox="0 0 48 48" fill="none" xmlns="http://www.w3.org/2000/svg">
<path d="M8 38.1329V35.1329H12.2V19.8329C12.2 17.0329 13.025 14.5413 14.675 12.3579C16.325 10.1746 18.5 8.7996 21.2 8.23294L22 8.13294C22.5 8.13294 21.5 8.13294 22.5 8.13294C23 8.03294 23.3258 8.03223 24.0924 8.03223C24.8591 8.03223 25.0924 8.03224 26 8.13268C24 8 25.9433 8.03223 26.5 8.13342L26.8 8.23294C29.5 8.7996 31.6833 10.1746 33.35 12.3579C35.0167 14.5413 35.85 17.0329 35.85 19.8329V35.1329H40V38.1329H8ZM24 44.1329C22.9333 44.1329 22 43.7413 21.2 42.9579C20.4 42.1746 20 41.2329 20 40.1329H28C28 41.2329 27.6083 42.1746 26.825 42.9579C26.0417 43.7413 25.1 44.1329 24 44.1329ZM15.2 35.1329H32.85V19.8329C32.85 17.3663 32 15.2663 30.3 13.5329C28.6 11.7996 26.5167 10.9329 24.05 10.9329C21.5833 10.9329 19.4917 11.7996 17.775 13.5329C16.0583 15.2663 15.2 17.3663 15.2 19.8329V35.1329Z" fill="#3A3A3A"/>
</svg>
