<svg width="48" height="48" viewBox="0 0 48 48" fill="none" xmlns="http://www.w3.org/2000/svg">
<path d="M9 42C8.2 42 7.5 41.7 6.9 41.1C6.3 40.5 6 39.8 6 39V9C6 8.2 6.3 7.5 6.9 6.9C7.5 6.3 8.2 6 9 6H39C39.8 6 40.5 6.3 41.1 6.9C41.7 7.5 42 8.2 42 9V39C42 39.8 41.7 40.5 41.1 41.1C40.5 41.7 39.8 42 39 42H9ZM9 39H39V9H9V39Z" fill="#8016F3"/>
<path d="M20.174 32.8125V30.9375H35.125V32.8125H20.174ZM20.174 24.9375V23.0625H35.125V24.9375H20.174ZM20.174 17.0313V15.1563H35.125V17.0313H20.174ZM14.1031 33.9688C13.4993 33.9688 12.9823 33.7708 12.5523 33.375C12.1223 32.9792 11.9073 32.4844 11.9073 31.8906C11.9073 31.2969 12.1172 30.7969 12.537 30.3906C12.9568 29.9844 13.4734 29.7813 14.087 29.7813C14.7005 29.7813 15.2118 29.9893 15.6208 30.4055C16.0299 30.8216 16.2344 31.3219 16.2344 31.9063C16.2344 32.4734 16.0257 32.959 15.6083 33.3629C15.191 33.7668 14.6892 33.9688 14.1031 33.9688ZM14.1031 26.0938C13.4993 26.0938 12.9823 25.8887 12.5523 25.4787C12.1223 25.0687 11.9073 24.5758 11.9073 24C11.9073 23.4242 12.1223 22.9313 12.5523 22.5213C12.9823 22.1113 13.4993 21.9063 14.1031 21.9063C14.6892 21.9063 15.191 22.1113 15.6083 22.5213C16.0257 22.9313 16.2344 23.4242 16.2344 24C16.2344 24.5758 16.0257 25.0687 15.6083 25.4787C15.191 25.8887 14.6892 26.0938 14.1031 26.0938ZM14.0708 18.1875C13.4759 18.1875 12.9665 17.9825 12.5428 17.5725C12.1191 17.1624 11.9073 16.6695 11.9073 16.0938C11.9073 15.518 12.1191 15.0251 12.5428 14.615C12.9665 14.205 13.4759 14 14.0708 14C14.6658 14 15.1751 14.205 15.5988 14.615C16.0225 15.0251 16.2344 15.518 16.2344 16.0938C16.2344 16.6695 16.0225 17.1624 15.5988 17.5725C15.1751 17.9825 14.6658 18.1875 14.0708 18.1875Z" fill="#8016F3"/>
</svg>
