<svg width="76" height="63" viewBox="0 0 76 63" fill="none" xmlns="http://www.w3.org/2000/svg">
<path d="M58.6106 22.1945C63.2216 18.1259 66.362 14.3425 68.0317 10.8442C69.7015 7.34592 70.0527 4.71971 67.8475 3.74777C65.6424 2.77582 61.5557 3.75552 56.825 5.9047C52.0944 8.05387 43.4962 13.9836 38.8852 18.0522L36.5928 20.721C40.3435 17.4115 52.3985 9.24892 56.2389 7.50417C60.0793 5.75941 63.5973 4.92673 65.391 5.71735C67.1847 6.50796 67.3334 8.89328 65.9779 11.7333C64.6223 14.5733 61.7193 18.4433 57.9686 21.7528L58.6106 22.1945Z" fill="#2DF0C4"/>
<path d="M58.7241 21.6536C62.7124 18.1345 65.354 14.8292 66.6491 11.7377C67.9442 8.64616 68.0774 6.29947 65.9552 5.36408C63.833 4.42869 60.1048 5.19081 55.8639 6.98397C51.6231 8.77714 44.0642 13.8522 40.0759 17.3713L38.1407 19.7006C41.3848 16.8381 51.9939 9.85829 55.4367 8.40255C58.8795 6.94681 62.0896 6.30034 63.8158 7.06121C65.5421 7.82209 65.8561 9.96694 64.8047 12.4767C63.7533 14.9865 61.3387 18.3763 58.0946 21.2388L58.7241 21.6536Z" fill="#8D2EF4"/>
<path d="M18.3469 36.5675C13.5306 40.7943 10.2086 44.6789 8.38088 48.2215C6.55319 51.7641 6.09076 54.3875 8.27365 55.2652C10.4565 56.1428 14.6168 55.0061 19.4745 52.6818C24.3321 50.3574 33.2448 44.1222 38.0611 39.8955L40.4823 37.1522C36.5646 40.5904 24.075 49.1822 20.1314 51.0691C16.1878 52.9561 12.607 53.924 10.8314 53.2101C9.05577 52.4962 9.00431 50.1321 10.4881 47.2561C11.9719 44.3801 15.0582 40.419 18.9759 36.9808L18.3469 36.5675Z" fill="#2DF0C4"/>
<path d="M18.2091 37.1121C14.0433 40.7679 11.2438 44.1576 9.8106 47.2811C8.3774 50.4045 8.14631 52.7415 10.2471 53.5862C12.3479 54.4308 16.1377 53.5247 20.487 51.5736C24.8362 49.6225 32.6658 44.278 36.8317 40.6222L38.8788 38.2305C35.4901 41.2043 24.507 48.5631 20.9762 50.147C17.4454 51.731 14.1827 52.5015 12.4738 51.8145C10.765 51.1274 10.537 49.0088 11.7005 46.4731C12.864 43.9374 15.4381 40.4729 18.8267 37.4991L18.2091 37.1121Z" fill="#8D2EF4"/>
<path d="M56.3631 32.2585L51.1949 31.0842C50.6103 32.6976 49.8014 34.1991 48.7684 35.5887C47.7354 36.9784 46.4716 38.1938 44.977 39.2349C43.1087 40.5363 41.1543 41.3866 39.114 41.786C37.0737 42.1853 35.0743 42.1625 33.1157 41.7174C31.1572 41.2724 29.3213 40.4238 27.6078 39.1715C25.8943 37.9192 24.4303 36.2921 23.2158 34.2902C22.2441 32.6887 21.5495 31.0283 21.1317 29.309C20.714 27.5897 20.5436 25.8657 20.6204 24.137L15.4521 22.9626L15.9482 20.456L56.8592 29.752L56.3631 32.2585ZM43.691 37.1152C44.8999 36.2732 45.9321 35.2945 46.7876 34.1792C47.6432 33.064 48.3325 31.8551 48.8555 30.5526L22.9597 24.6685C22.9444 26.0864 23.1165 27.491 23.476 28.8823C23.8354 30.2736 24.4081 31.617 25.194 32.9123C27.2658 36.3273 30.0699 38.4365 33.6061 39.24C37.1422 40.0435 40.5039 39.3353 43.691 37.1152ZM52.187 26.071L49.8477 25.5395C49.863 24.1216 49.6909 22.717 49.3315 21.3257C48.972 19.9343 48.3993 18.591 47.6134 17.2957C45.5416 13.8807 42.7376 11.7715 39.2014 10.968C35.6652 10.1645 32.3035 10.8727 29.1165 13.0927C27.9076 13.9348 26.8753 14.9135 26.0198 16.0287C25.1643 17.144 24.475 18.3529 23.9519 19.6553L21.6126 19.1238C22.1972 17.5104 23.006 16.0089 24.039 14.6193C25.072 13.2296 26.3358 12.0142 27.8305 10.9731C29.6768 9.68704 31.6237 8.85022 33.6712 8.46265C35.7186 8.07509 37.7216 8.10381 39.6801 8.54883C41.6386 8.99385 43.4801 9.83867 45.2046 11.0833C46.929 12.3279 48.3914 13.9394 49.5916 15.9177C50.5633 17.5192 51.2579 19.1796 51.6757 20.8989C52.0934 22.6182 52.2638 24.3423 52.187 26.071Z" fill="#5FF1D0" fill-opacity="0.8"/>
<path d="M58.7225 33.9451L53.5542 32.7707C52.9696 34.3841 52.1608 35.8856 51.1278 37.2753C50.0948 38.6649 48.831 39.8803 47.3363 40.9214C45.468 42.2228 43.5137 43.0731 41.4734 43.4725C39.433 43.8718 37.4336 43.849 35.4751 43.404C33.5166 42.959 31.6806 42.1103 29.9672 40.858C28.2537 39.6057 26.7897 37.9786 25.5752 35.9768C24.6035 34.3753 23.9088 32.7149 23.4911 30.9956C23.0734 29.2763 22.9029 27.5522 22.9798 25.8235L17.8115 24.6491L18.3076 22.1426L59.2186 31.4385L58.7225 33.9451ZM46.0503 38.8018C47.2592 37.9597 48.2914 36.981 49.147 35.8658C50.0025 34.7505 50.6918 33.5416 51.2149 32.2392L25.3191 26.355C25.3038 27.7729 25.4759 29.1775 25.8353 30.5688C26.1948 31.9602 26.7675 33.3035 27.5533 34.5988C29.6252 38.0138 32.4292 40.123 35.9654 40.9265C39.5016 41.73 42.8633 41.0218 46.0503 38.8018ZM54.5464 27.7575L52.2071 27.226C52.2224 25.8081 52.0503 24.4035 51.6908 23.0122C51.3314 21.6209 50.7587 20.2775 49.9728 18.9822C47.901 15.5672 45.0969 13.458 41.5607 12.6545C38.0245 11.851 34.6629 12.5593 31.4758 14.7793C30.2669 15.6213 29.2347 16.6 28.3792 17.7153C27.5236 18.8305 26.8343 20.0394 26.3113 21.3419L23.9719 20.8103C24.5565 19.1969 25.3653 17.6954 26.3984 16.3058C27.4314 14.9161 28.6952 13.7007 30.1898 12.6596C32.0362 11.3736 33.983 10.5367 36.0305 10.1492C38.078 9.76161 40.081 9.79034 42.0395 10.2354C43.998 10.6804 45.8395 11.5252 47.5639 12.7698C49.2884 14.0145 50.7508 15.6259 51.951 17.6043C52.9226 19.2058 53.6173 20.8662 54.0351 22.5855C54.4528 24.3048 54.6232 26.0288 54.5464 27.7575Z" fill="#8D2EF4"/>
<path d="M58.7225 33.9451L53.5542 32.7707C52.9696 34.3841 52.1608 35.8856 51.1278 37.2753C50.0948 38.6649 48.831 39.8803 47.3363 40.9214C45.468 42.2228 43.5137 43.0731 41.4734 43.4725C39.433 43.8718 37.4336 43.849 35.4751 43.404C33.5166 42.959 31.6806 42.1103 29.9672 40.858C28.2537 39.6057 26.7897 37.9786 25.5752 35.9768C24.6035 34.3753 23.9088 32.7149 23.4911 30.9956C23.0734 29.2763 22.9029 27.5522 22.9798 25.8235L17.8115 24.6491L18.3076 22.1426L59.2186 31.4385L58.7225 33.9451ZM46.0503 38.8018C47.2592 37.9597 48.2914 36.981 49.147 35.8658C50.0025 34.7505 50.6918 33.5416 51.2149 32.2392L25.3191 26.355C25.3038 27.7729 25.4759 29.1775 25.8353 30.5688C26.1948 31.9602 26.7675 33.3035 27.5533 34.5988C29.6252 38.0138 32.4292 40.123 35.9654 40.9265C39.5016 41.73 42.8633 41.0218 46.0503 38.8018ZM54.5464 27.7575L52.2071 27.226C52.2224 25.8081 52.0503 24.4035 51.6908 23.0122C51.3314 21.6209 50.7587 20.2775 49.9728 18.9822C47.901 15.5672 45.0969 13.458 41.5607 12.6545C38.0245 11.851 34.6629 12.5593 31.4758 14.7793C30.2669 15.6213 29.2347 16.6 28.3792 17.7153C27.5236 18.8305 26.8343 20.0394 26.3113 21.3419L23.9719 20.8103C24.5565 19.1969 25.3653 17.6954 26.3984 16.3058C27.4314 14.9161 28.6952 13.7007 30.1898 12.6596C32.0362 11.3736 33.983 10.5367 36.0305 10.1492C38.078 9.76161 40.081 9.79034 42.0395 10.2354C43.998 10.6804 45.8395 11.5252 47.5639 12.7698C49.2884 14.0145 50.7508 15.6259 51.951 17.6043C52.9226 19.2058 53.6173 20.8662 54.0351 22.5855C54.4528 24.3048 54.6232 26.0288 54.5464 27.7575Z" fill="#8D2EF4"/>
<path d="M61.0819 35.6296L55.9136 34.4553C55.329 36.0687 54.5202 37.5702 53.4872 38.9598C52.4542 40.3495 51.1903 41.5649 49.6957 42.606C47.8274 43.9074 45.8731 44.7577 43.8328 45.1571C41.7924 45.5564 39.793 45.5336 37.8345 45.0885C35.876 44.6435 34.04 43.7949 32.3265 42.5426C30.6131 41.2903 29.1491 39.6632 27.9345 37.6613C26.9629 36.0598 26.2682 34.3994 25.8505 32.6801C25.4328 30.9608 25.2623 29.2368 25.3392 27.5081L20.1709 26.3337L20.667 23.8271L61.578 33.123L61.0819 35.6296ZM48.4097 40.4863C49.6186 39.6443 50.6508 38.6656 51.5064 37.5503C52.3619 36.4351 53.0512 35.2262 53.5743 33.9237L27.6785 28.0396C27.6632 29.4575 27.8353 30.8621 28.1947 32.2534C28.5542 33.6447 29.1268 34.9881 29.9127 36.2834C31.9846 39.6984 34.7886 41.8076 38.3248 42.6111C41.861 43.4146 45.2226 42.7063 48.4097 40.4863ZM56.9058 29.4421L54.5664 28.9106C54.5817 27.4927 54.4097 26.0881 54.0502 24.6968C53.6907 23.3054 53.1181 21.9621 52.3322 20.6668C50.2603 17.2518 47.4563 15.1426 43.9201 14.3391C40.3839 13.5356 37.0223 14.2438 33.8352 16.4638C32.6263 17.3059 31.5941 18.2846 30.7386 19.3998C29.883 20.5151 29.1937 21.724 28.6706 23.0264L26.3313 22.4949C26.9159 20.8815 27.7247 19.38 28.7577 17.9903C29.7908 16.6007 31.0546 15.3853 32.5492 14.3442C34.3955 13.0581 36.3424 12.2213 38.3899 11.8337C40.4374 11.4462 42.4404 11.4749 44.3989 11.9199C46.3574 12.3649 48.1989 13.2098 49.9233 14.4544C51.6478 15.699 53.1101 17.3105 54.3104 19.2888C55.282 20.8903 55.9767 22.5507 56.3944 24.27C56.8122 25.9893 56.9826 27.7134 56.9058 29.4421Z" fill="#19181B"/>
<path d="M61.0819 35.6296L55.9136 34.4553C55.329 36.0687 54.5202 37.5702 53.4872 38.9598C52.4542 40.3495 51.1903 41.5649 49.6957 42.606C47.8274 43.9074 45.8731 44.7577 43.8328 45.1571C41.7924 45.5564 39.793 45.5336 37.8345 45.0885C35.876 44.6435 34.04 43.7949 32.3265 42.5426C30.6131 41.2903 29.1491 39.6632 27.9345 37.6613C26.9629 36.0598 26.2682 34.3994 25.8505 32.6801C25.4328 30.9608 25.2623 29.2368 25.3392 27.5081L20.1709 26.3337L20.667 23.8271L61.578 33.123L61.0819 35.6296ZM48.4097 40.4863C49.6186 39.6443 50.6508 38.6656 51.5064 37.5503C52.3619 36.4351 53.0512 35.2262 53.5743 33.9237L27.6785 28.0396C27.6632 29.4575 27.8353 30.8621 28.1947 32.2534C28.5542 33.6447 29.1268 34.9881 29.9127 36.2834C31.9846 39.6984 34.7886 41.8076 38.3248 42.6111C41.861 43.4146 45.2226 42.7063 48.4097 40.4863ZM56.9058 29.4421L54.5664 28.9106C54.5817 27.4927 54.4097 26.0881 54.0502 24.6968C53.6907 23.3054 53.1181 21.9621 52.3322 20.6668C50.2603 17.2518 47.4563 15.1426 43.9201 14.3391C40.3839 13.5356 37.0223 14.2438 33.8352 16.4638C32.6263 17.3059 31.5941 18.2846 30.7386 19.3998C29.883 20.5151 29.1937 21.724 28.6706 23.0264L26.3313 22.4949C26.9159 20.8815 27.7247 19.38 28.7577 17.9903C29.7908 16.6007 31.0546 15.3853 32.5492 14.3442C34.3955 13.0581 36.3424 12.2213 38.3899 11.8337C40.4374 11.4462 42.4404 11.4749 44.3989 11.9199C46.3574 12.3649 48.1989 13.2098 49.9233 14.4544C51.6478 15.699 53.1101 17.3105 54.3104 19.2888C55.282 20.8903 55.9767 22.5507 56.3944 24.27C56.8122 25.9893 56.9826 27.7134 56.9058 29.4421Z" fill="#A568E6"/>
</svg>
