<svg width="300" height="300" viewBox="0 0 300 300" fill="none" xmlns="http://www.w3.org/2000/svg">
<circle cx="150" cy="150" r="150" fill="#EAE8FF"/>
<path d="M111 71L236 103.163L228.972 168L111 119.5V71Z" fill="#5101A7"/>
<path d="M110.477 71L88 85.5914L97.9318 151L111 119.302L110.477 71Z" fill="#5101A7"/>
<path d="M96.4994 156.418C97.0148 156.18 97.6072 156.172 98.1287 156.397L195.717 198.414C197.217 199.06 197.352 201.134 195.949 201.97L153.834 227.037C153.252 227.383 152.535 227.412 151.927 227.113L54.7623 179.279C53.2527 178.536 53.2796 176.374 54.8073 175.669L96.4994 156.418Z" fill="#403C61"/>
<path d="M98.8807 159.45L191.611 199.729L150.701 224.184L59.0612 179.155L98.8807 159.45Z" fill="white"/>
<path d="M54.4374 178.189L151.538 226.07V230.999L54.9738 183.118L54.4374 178.189Z" fill="#262141"/>
<path d="M152.641 226.121L195.683 201.73L196.235 200.336L195.131 205.911L152.641 230.999H151.538V226.121H152.641Z" fill="#262141"/>
<path d="M67.0929 180.026C66.4625 179.613 66.5288 178.671 67.2096 178.365L101.57 162.93C101.823 162.816 102.115 162.82 102.368 162.941L109.321 166.264C110.033 166.604 110.057 167.61 109.361 167.967L75.8461 185.195C75.5434 185.35 75.1786 185.33 74.8911 185.141L67.0929 180.026Z" fill="#FDFDFD" stroke="#F8F8F8" stroke-width="0.1"/>
<path d="M82.2816 175.3C81.8146 175.012 81.8658 174.231 82.3677 173.987L101.444 164.689C101.629 164.599 101.837 164.609 102.008 164.715C102.475 165.003 102.424 165.784 101.922 166.028L82.8462 175.326C82.6615 175.416 82.4534 175.406 82.2816 175.3Z" fill="#EAEAEA"/>
<path d="M97.6023 171.723C97.3861 171.445 97.4697 171.007 97.7676 170.856L103.407 168.001C103.64 167.883 103.906 168.054 103.938 168.342C103.959 168.528 103.874 168.708 103.726 168.79L98.1693 171.852C97.9761 171.958 97.7447 171.906 97.6023 171.723Z" fill="#EAEAEA"/>
<ellipse cx="3.62453" cy="3.31043" rx="3.62453" ry="3.31043" transform="matrix(0.997907 0.0646639 -0.0529697 0.998596 72.9423 176.228)" fill="#6D1AC8"/>
<path d="M83.9059 187.58C83.2755 187.167 83.3418 186.224 84.0226 185.919L118.383 170.484C118.636 170.37 118.928 170.374 119.181 170.495L126.134 173.817C126.846 174.158 126.87 175.163 126.174 175.521L92.659 192.748C92.3563 192.904 91.9916 192.884 91.7041 192.695L83.9059 187.58Z" fill="#FDFDFD" stroke="#F8F8F8" stroke-width="0.1"/>
<path d="M99.0946 182.854C98.6276 182.566 98.6788 181.785 99.1807 181.54L118.257 172.243C118.442 172.153 118.65 172.162 118.821 172.268C119.288 172.557 119.237 173.337 118.735 173.582L99.6592 182.879C99.4745 182.969 99.2664 182.96 99.0946 182.854Z" fill="#EAEAEA"/>
<path d="M114.415 179.277C114.199 178.999 114.283 178.561 114.581 178.41L120.22 175.555C120.453 175.437 120.719 175.608 120.751 175.895C120.772 176.081 120.687 176.262 120.539 176.344L114.982 179.406C114.789 179.512 114.558 179.46 114.415 179.277Z" fill="#EAEAEA"/>
<ellipse cx="3.62453" cy="3.31043" rx="3.62453" ry="3.31043" transform="matrix(0.997907 0.0646639 -0.0529697 0.998596 89.7552 183.781)" fill="#6D1AC8"/>
<path d="M100.719 195.133C100.089 194.719 100.155 193.777 100.836 193.471L135.196 178.036C135.449 177.922 135.741 177.927 135.994 178.047L142.947 181.37C143.659 181.71 143.683 182.716 142.987 183.074L109.472 200.301C109.169 200.457 108.805 200.436 108.517 200.248L100.719 195.133Z" fill="#FDFDFD" stroke="#F8F8F8" stroke-width="0.1"/>
<path d="M115.907 190.408C115.44 190.12 115.492 189.339 115.994 189.094L135.07 179.797C135.254 179.707 135.463 179.716 135.634 179.822C136.101 180.11 136.05 180.891 135.548 181.136L116.472 190.433C116.287 190.523 116.079 190.514 115.907 190.408Z" fill="#EAEAEA"/>
<path d="M131.228 186.83C131.012 186.553 131.096 186.115 131.393 185.964L137.033 183.108C137.266 182.991 137.531 183.161 137.564 183.449C137.585 183.635 137.499 183.816 137.351 183.897L131.795 186.959C131.602 187.066 131.371 187.013 131.228 186.83Z" fill="#EAEAEA"/>
<ellipse cx="3.62453" cy="3.31043" rx="3.62453" ry="3.31043" transform="matrix(0.997907 0.0646639 -0.0529697 0.998596 106.568 191.335)" fill="#6D1AC8"/>
<path d="M117.532 202.688C116.901 202.274 116.968 201.332 117.648 201.026L152.009 185.591C152.262 185.477 152.554 185.481 152.806 185.602L159.76 188.925C160.472 189.265 160.496 190.271 159.8 190.629L126.285 207.856C125.982 208.011 125.617 207.991 125.33 207.802L117.532 202.688Z" fill="#FDFDFD" stroke="#F8F8F8" stroke-width="0.1"/>
<path d="M132.72 197.961C132.253 197.673 132.305 196.892 132.807 196.648L151.883 187.35C152.067 187.26 152.275 187.27 152.447 187.376C152.914 187.664 152.863 188.445 152.361 188.689L133.285 197.987C133.1 198.077 132.892 198.067 132.72 197.961Z" fill="#EAEAEA"/>
<path d="M148.041 194.384C147.825 194.107 147.909 193.668 148.206 193.517L153.846 190.662C154.079 190.544 154.344 190.715 154.377 191.003C154.398 191.189 154.312 191.369 154.164 191.451L148.608 194.513C148.415 194.62 148.184 194.567 148.041 194.384Z" fill="#EAEAEA"/>
<ellipse cx="3.62453" cy="3.31043" rx="3.62453" ry="3.31043" transform="matrix(0.997907 0.0646639 -0.0529697 0.998596 123.381 198.889)" fill="#6D1AC8"/>
<path d="M134.345 210.243C133.715 209.83 133.781 208.887 134.462 208.582L168.822 193.147C169.075 193.033 169.367 193.037 169.619 193.158L176.573 196.48C177.285 196.821 177.309 197.827 176.613 198.184L143.098 215.411C142.795 215.567 142.431 215.547 142.143 215.358L134.345 210.243Z" fill="#FDFDFD" stroke="#F8F8F8" stroke-width="0.1"/>
<path d="M149.534 205.517C149.067 205.229 149.118 204.448 149.62 204.204L168.696 194.906C168.881 194.816 169.089 194.825 169.261 194.931C169.728 195.22 169.676 196 169.174 196.245L150.098 205.542C149.914 205.632 149.705 205.623 149.534 205.517Z" fill="#EAEAEA"/>
<path d="M164.854 201.94C164.638 201.662 164.722 201.224 165.02 201.073L170.659 198.218C170.892 198.1 171.158 198.271 171.19 198.558C171.211 198.744 171.126 198.925 170.978 199.007L165.421 202.069C165.228 202.175 164.997 202.123 164.854 201.94Z" fill="#EAEAEA"/>
<ellipse cx="3.62453" cy="3.31043" rx="3.62453" ry="3.31043" transform="matrix(0.997907 0.0646639 -0.0529697 0.998596 140.194 206.444)" fill="#6D1AC8"/>
<ellipse cx="77.5564" cy="159.451" rx="10.7889" ry="11.9247" fill="#614894"/>
<ellipse cx="77.5565" cy="159.45" rx="9.24767" ry="10.2211" fill="#7438FF"/>
<path d="M76.0151 170.523H79.0977V174.782L77.7386 177.786C77.6677 177.943 77.4451 177.943 77.3742 177.786L76.0151 174.782V170.523Z" fill="#614894"/>
<g clip-path="url(#clip0_1306_197)">
<path d="M72.316 164.562C72.0694 164.562 71.8536 164.463 71.6687 164.267C71.4837 164.07 71.3912 163.849 71.3912 163.604V155.299C71.3912 155.054 71.4837 154.833 71.6687 154.636C71.8536 154.439 72.0694 154.341 72.316 154.341H76.647L77.5718 155.299H82.7967C83.033 155.299 83.2462 155.398 83.4363 155.595C83.6264 155.791 83.7215 156.012 83.7215 156.257V163.604C83.7215 163.849 83.6264 164.07 83.4363 164.267C83.2462 164.463 83.033 164.562 82.7967 164.562H72.316ZM72.316 163.604H82.7967V156.257H77.1864L76.2617 155.299H72.316V163.604Z" fill="white"/>
</g>
<ellipse cx="109.923" cy="176.485" rx="10.7889" ry="11.9247" fill="#614894"/>
<ellipse cx="109.923" cy="176.484" rx="9.24767" ry="10.2211" fill="#7438FF"/>
<path d="M108.382 187.557H111.465V191.815L110.106 194.82C110.035 194.976 109.812 194.976 109.741 194.82L108.382 191.815V187.557Z" fill="#614894"/>
<g clip-path="url(#clip1_1306_197)">
<path d="M104.683 181.597C104.436 181.597 104.221 181.499 104.036 181.302C103.851 181.105 103.758 180.884 103.758 180.639V172.334C103.758 172.089 103.851 171.868 104.036 171.671C104.221 171.474 104.436 171.376 104.683 171.376H109.014L109.939 172.334H115.164C115.4 172.334 115.613 172.433 115.803 172.63C115.993 172.827 116.088 173.048 116.088 173.292V180.639C116.088 180.884 115.993 181.105 115.803 181.302C115.613 181.499 115.4 181.597 115.164 181.597H104.683ZM104.683 180.639H115.164V173.292H109.553L108.629 172.334H104.683V180.639Z" fill="white"/>
</g>
<ellipse cx="143.831" cy="188.411" rx="10.7889" ry="11.9247" fill="#614894"/>
<ellipse cx="143.831" cy="188.41" rx="9.24767" ry="10.2211" fill="#7438FF"/>
<path d="M142.29 199.483H145.373V203.742L144.014 206.746C143.943 206.903 143.72 206.903 143.649 206.746L142.29 203.742V199.483Z" fill="#614894"/>
<g clip-path="url(#clip2_1306_197)">
<path d="M138.591 193.522C138.345 193.522 138.129 193.423 137.944 193.226C137.759 193.029 137.666 192.809 137.666 192.564V184.259C137.666 184.014 137.759 183.793 137.944 183.596C138.129 183.399 138.345 183.301 138.591 183.301H142.922L143.847 184.259H149.072C149.308 184.259 149.521 184.357 149.711 184.554C149.902 184.751 149.997 184.972 149.997 185.217V192.564C149.997 192.809 149.902 193.029 149.711 193.226C149.521 193.423 149.308 193.522 149.072 193.522H138.591ZM138.591 192.564H149.072V185.217H143.462L142.537 184.259H138.591V192.564Z" fill="white"/>
</g>
<path d="M88 85L209.299 118.363L218 201L97.7244 152.239L88 85Z" fill="#6005C2"/>
<path d="M103.657 87.1492L100.117 61.1217L204.358 79.0852L206.89 114.867L103.657 87.1492Z" fill="#FDFDFD" stroke="#F7F3F3" stroke-width="0.2"/>
<path d="M101.69 88.663L98.1179 63.1212L203.335 80.7523L205.89 115.868L101.69 88.663Z" fill="#FDFDFD" stroke="#F6F3F3" stroke-width="0.2"/>
<path d="M237.57 102.872L235.595 89L227.203 92.0826L229.671 106.468L215.354 115.716L211.899 98.2477L204 102.872L218.316 201L243 175.826L237.57 102.872Z" fill="#5D06BC"/>
<path d="M237.418 103L209 118.393L217.627 201L243 175.859L237.418 103Z" fill="#5D06BC"/>
<path d="M215 131.5L234.404 120L239 161L221.128 177L215 131.5Z" fill="#DCD9D9"/>
<defs>
<clipPath id="clip0_1306_197">
<rect width="13.8715" height="17.0352" fill="white" transform="translate(71.3912 150.934)"/>
</clipPath>
<clipPath id="clip1_1306_197">
<rect width="13.8715" height="17.0352" fill="white" transform="translate(103.758 167.969)"/>
</clipPath>
<clipPath id="clip2_1306_197">
<rect width="13.8715" height="17.0352" fill="white" transform="translate(137.666 179.894)"/>
</clipPath>
</defs>
</svg>
