<svg width="48" height="48" viewBox="0 0 48 48" fill="none" xmlns="http://www.w3.org/2000/svg">
<path d="M11 44C10.2 44 9.5 43.7 8.9 43.1C8.3 42.5 8 41.8 8 41V7C8 6.2 8.3 5.5 8.9 4.9C9.5 4.3 10.2 4 11 4H29.05L40 14.95V41C40 41.8 39.7 42.5 39.1 43.1C38.5 43.7 37.8 44 37 44H11ZM11 41H37V16.3H27.7V7H11V41ZM24.0132 37C25.9711 37 27.625 36.3146 28.975 34.9438C30.325 33.5729 31 31.925 31 30V23H29V30C29 31.4 28.5208 32.5833 27.5625 33.55C26.6042 34.5167 25.4167 35 24 35C22.6 35 21.4167 34.5167 20.45 33.55C19.4833 32.5833 19 31.4 19 30V19C19 18.4 19.1917 17.9167 19.575 17.55C19.9583 17.1833 20.4333 17 21 17C21.6 17 22.0833 17.1833 22.45 17.55C22.8167 17.9167 23 18.4 23 19V29H25V19C25 17.88 24.6154 16.9333 23.8462 16.16C23.0769 15.3867 22.1352 15 21.0212 15C19.9071 15 18.9583 15.3867 18.175 16.16C17.3917 16.9333 17 17.88 17 19V30C17 31.925 17.6867 33.5729 19.0602 34.9438C20.4336 36.3146 22.0846 37 24.0132 37Z" fill="#E3DAFF"/>
</svg>
