<svg width="48" height="48" viewBox="0 0 48 48" fill="none" xmlns="http://www.w3.org/2000/svg">
<path d="M10.8889 23V29C10.8889 30.25 11.456 31.3125 12.5903 32.1875C13.7245 33.0625 15.1019 33.5 16.7222 33.5H34.5625L29.2996 29.4401C28.4244 28.7649 28.43 27.4425 29.311 26.7748V26.7748C29.9145 26.3175 30.7495 26.321 31.349 26.7835L40.9736 34.2082C41.4925 34.6085 41.4925 35.3915 40.9736 35.7918L31.349 43.2165C30.7495 43.679 29.9145 43.6825 29.311 43.2252V43.2252C28.43 42.5575 28.4244 41.2351 29.2996 40.5599L34.5625 36.5H16.7222C14.0324 36.5 11.7396 35.7687 9.84375 34.3062C7.94792 32.8437 7 31.075 7 29V23H10.8889Z" fill="#0FD7AA"/>
<path d="M38.1111 26V20C38.1111 18.75 37.544 17.6875 36.4097 16.8125C35.2755 15.9375 33.8981 15.5 32.2778 15.5H14.4375L19.7004 19.5599C20.5756 20.2351 20.57 21.5575 19.689 22.2252V22.2252C19.0855 22.6825 18.2505 22.679 17.651 22.2165L8.02639 14.7918C7.50746 14.3915 7.50746 13.6085 8.02638 13.2082L17.651 5.78351C18.2505 5.32102 19.0855 5.31746 19.689 5.77481V5.77481C20.57 6.4425 20.5756 7.76489 19.7004 8.44008L14.4375 12.5H32.2778C34.9676 12.5 37.2604 13.2313 39.1563 14.6938C41.0521 16.1563 42 17.925 42 20V26H38.1111Z" fill="#0FD7AA"/>
</svg>
