<svg width="48" height="48" viewBox="0 0 48 48" fill="none" xmlns="http://www.w3.org/2000/svg">
<path d="M10.8889 24V30C10.8889 31.25 11.456 32.3125 12.5903 33.1875C13.7245 34.0625 15.1019 34.5 16.7222 34.5H34.5625L29.2996 30.4401C28.4244 29.7649 28.43 28.4425 29.311 27.7748V27.7748C29.9145 27.3175 30.7495 27.321 31.349 27.7835L40.9736 35.2082C41.4925 35.6085 41.4925 36.3915 40.9736 36.7918L31.349 44.2165C30.7495 44.679 29.9145 44.6825 29.311 44.2252V44.2252C28.43 43.5575 28.4244 42.2351 29.2996 41.5599L34.5625 37.5H16.7222C14.0324 37.5 11.7396 36.7687 9.84375 35.3062C7.94792 33.8437 7 32.075 7 30V24H10.8889Z" fill="#3A3A3A"/>
<path d="M38.1111 24V18C38.1111 16.75 37.544 15.6875 36.4097 14.8125C35.2755 13.9375 33.8981 13.5 32.2778 13.5H14.4375L19.7004 17.5599C20.5756 18.2351 20.57 19.5575 19.689 20.2252V20.2252C19.0855 20.6825 18.2505 20.679 17.651 20.2165L8.02639 12.7918C7.50746 12.3915 7.50746 11.6085 8.02638 11.2082L17.651 3.78351C18.2505 3.32102 19.0855 3.31746 19.689 3.77481V3.77481C20.57 4.4425 20.5756 5.76489 19.7004 6.44008L14.4375 10.5H32.2778C34.9676 10.5 37.2604 11.2313 39.1563 12.6938C41.0521 14.1563 42 15.925 42 18V24H38.1111Z" fill="#3A3A3A"/>
</svg>
