<svg width="436" height="423" viewBox="0 0 436 423" fill="none" xmlns="http://www.w3.org/2000/svg">
<path d="M361.517 369.685L242.071 253.8C232.988 261.438 222.396 267.386 210.298 271.646C198.199 275.905 185.325 278.035 171.675 278.035C138.926 278.035 111.21 267.019 88.5257 244.988C65.8419 222.956 54.5 196.372 54.5 165.235C54.5 134.097 65.8542 107.513 88.5625 85.4814C111.271 63.4502 138.748 52.4346 170.994 52.4346C203.24 52.4346 230.641 63.4502 253.198 85.4814C275.755 107.513 287.033 134.119 287.033 165.301C287.033 177.888 284.914 190.056 280.675 201.806C276.436 213.556 270.078 224.572 261.6 234.853L381.5 350.297L361.517 369.685ZM171.221 251.597C195.822 251.597 216.732 243.152 233.953 226.261C251.173 209.371 259.783 189.028 259.783 165.235C259.783 141.441 251.173 121.099 233.953 104.208C216.732 87.3174 195.822 78.8721 171.221 78.8721C146.368 78.8721 125.243 87.3174 107.846 104.208C90.4485 121.099 81.75 141.441 81.75 165.235C81.75 189.028 90.4485 209.371 107.846 226.261C125.243 243.152 146.368 251.597 171.221 251.597Z" fill="white"/>
</svg>
