<svg width="348" height="65" viewBox="0 0 348 65" fill="none" xmlns="http://www.w3.org/2000/svg">
<path d="M225.509 45.9053C223.828 46.1497 222.398 46.1058 221.207 45.7904C220.061 45.4686 219.473 45.2136 219.458 45.0233C219.42 44.7772 219.526 44.3177 219.773 43.6157C220.008 42.9304 220.205 42.5761 220.35 42.555C220.389 42.5198 222.172 43.1192 223.223 42.922C223.875 42.8272 224.376 42.5176 224.698 42.012C225.019 41.5064 225.139 40.9413 225.045 40.3333C224.863 39.1608 224.078 38.4016 222.479 37.5535C221.101 36.7916 220.088 36.184 219.442 35.7451L219.364 35.8156C219.464 36.0822 219.549 36.4399 219.617 36.8741C219.754 37.7571 219.769 38.717 219.663 39.7537C219.543 40.7925 219.34 41.6805 219.054 42.4177C219.001 42.5586 218.926 42.6436 218.839 42.6562C218.665 42.6815 218.249 42.5791 217.603 42.3326C216.942 42.0881 216.602 41.9008 216.577 41.7415C216.575 41.7271 216.628 41.4973 216.737 41.0522C217.187 39.6547 217.269 37.985 216.968 36.0453C216.899 35.5966 216.782 35.0362 216.621 34.3788C216.462 33.7358 216.379 33.3926 216.377 33.3782C216.336 33.1176 216.684 32.6823 217.419 32.0721C218.154 31.462 218.682 31.1338 218.986 31.0895C219.117 31.0706 219.258 31.124 219.409 31.2353C220.677 32.3388 222.333 33.4598 224.388 34.5674C225.294 35.0574 225.993 35.459 226.474 35.7887C226.955 36.1185 227.43 36.5972 227.893 37.1959C228.359 37.8091 228.645 38.5076 228.769 39.3037C228.868 39.9406 228.831 40.5675 228.663 41.199C228.494 41.8304 228.259 42.3233 227.96 42.6923L228.036 42.7997C228.816 42.3757 229.546 41.7366 230.213 40.8701C230.881 40.0181 231.324 39.0509 231.529 37.9849C231.562 37.8173 231.638 37.7322 231.739 37.7175C231.913 37.6922 232.327 37.7801 232.966 37.9832C233.608 38.2008 233.932 38.3758 233.954 38.5206C233.965 38.593 233.956 38.7275 233.925 38.9096C233.306 42.848 230.496 45.1806 225.509 45.9053Z" fill="url(#paint0_linear_683_2)"/>
<path d="M216.048 31.7623L219.981 30.1794L230.635 38.2377L228.694 42.5646L227.672 42.7131L224.633 46.694L219.448 46.942L216.049 41.8741L216.048 31.7623Z" fill="#F5F5F5"/>
<path d="M91.2568 47.8066C87.5215 47.8066 84.543 46.9033 82.2725 45.0967C80.002 43.3145 78.8545 40.7998 78.8545 37.6016C78.8545 36.332 79.0986 35.0869 79.5625 33.8662C80.0264 32.6699 80.4902 31.7422 80.9785 31.1074C81.4668 30.4727 81.833 30.1553 82.0527 30.1553C82.4678 30.1553 83.2734 30.5703 84.4941 31.4248C85.6904 32.2793 86.3008 32.8652 86.3008 33.207C86.3008 33.3291 85.1045 35.2334 85.1045 37.0889C85.1045 38.6758 85.7148 39.9941 86.9111 41.0195C88.1074 42.0449 89.6211 42.5576 91.4521 42.5576C93.332 42.5576 94.8213 42.0449 95.9688 41.0439C97.0918 40.043 97.6533 38.7979 97.6533 37.2598C97.6533 35.8926 97.0674 34.6963 95.8711 33.6953C94.6748 32.6943 92.5996 31.498 89.6455 30.0576C88.2539 29.3984 87.1064 28.7881 86.2031 28.2266C85.2998 27.665 84.3965 26.9814 83.4932 26.1758C81.6377 24.54 80.7588 22.4648 80.7588 19.8037C80.7588 17.1914 81.7598 15.0186 83.7617 13.2607C85.7393 11.5273 88.2783 10.6484 91.3545 10.6484C94.2842 10.6484 96.7256 11.4053 98.7031 12.8945C100.681 14.3838 101.657 16.3857 101.657 18.8516C101.657 19.9258 101.486 20.9512 101.145 21.9033C100.778 22.8555 100.412 23.5879 100.021 24.1006C99.6064 24.6133 99.2646 24.8574 98.9961 24.8574C98.6299 24.8574 97.8242 24.4424 96.5791 23.6367C95.334 22.8311 94.6992 22.2939 94.6992 22.001L95.041 21.0977C95.2607 20.4629 95.3828 19.9258 95.4072 19.4619C95.4072 17.3135 93.918 15.8486 91.4521 15.8486C88.9863 15.8486 87.2529 17.4844 87.2529 19.9502C87.2529 21.1221 87.7656 22.123 88.8154 22.9775C89.8408 23.832 91.4766 24.8086 93.6982 25.9561C95.0898 26.6641 96.1396 27.2012 96.8477 27.5918C97.5557 28.0068 98.459 28.5928 99.582 29.3496C100.681 30.1064 101.535 30.8389 102.097 31.498C103.244 32.8408 104.294 34.916 104.294 37.0889C104.294 40.2871 103.073 42.875 100.607 44.8525C98.1416 46.8301 95.0166 47.8066 91.2568 47.8066ZM113.425 58.8906H109.714C108.859 58.8906 108.42 58.4023 108.42 57.4014V25.1992C108.42 24.125 108.859 23.5879 109.763 23.5879H113.376C114.206 23.5879 114.621 24.0273 114.621 24.9062C114.621 24.9795 114.499 26.2246 114.255 28.6416L114.475 28.6904C116.843 24.8574 119.846 22.9287 123.508 22.9531C126.438 22.9531 128.757 24.0029 130.466 26.127C132.15 28.251 133.005 30.7168 133.005 33.5488C133.005 35.3799 132.614 37.0889 131.857 38.627C131.101 40.165 130.173 41.2881 129.123 41.9473L129.172 42.1914C133.249 41.5566 136.13 39.1641 137.814 35.0381C137.912 34.7451 138.034 34.5986 138.205 34.5986C138.498 34.5986 139.157 34.8672 140.158 35.3799C141.159 35.8926 141.672 36.2832 141.672 36.5029C141.672 36.625 141.623 36.8447 141.525 37.1621C139.548 43.29 133.688 46.6104 124.973 46.6104C122.8 46.6104 120.847 46.3662 119.113 45.8535C116.916 45.2188 115.817 44.6328 115.817 44.0957C115.817 43.6807 116.062 42.9482 116.55 41.8496C117.014 40.7754 117.404 40.2383 117.673 40.2383C117.746 40.2383 118.137 40.3848 118.845 40.6777C119.553 40.9951 120.236 41.1416 120.871 41.1416C122.531 41.1416 123.898 40.4336 124.948 39.0176C125.998 37.6016 126.511 35.8926 126.511 33.8906C126.511 32.2549 126.12 30.9365 125.363 29.9111C124.606 28.9102 123.557 28.3975 122.214 28.3975C120.578 28.3975 119.162 29.1787 117.966 30.7168C116.77 32.2793 115.915 34.1592 115.402 36.332C114.89 38.5049 114.621 40.8242 114.621 43.2412V57.5479C114.621 58.4512 114.23 58.8906 113.425 58.8906ZM146.457 46.6104C143.552 46.6104 141.232 45.5605 139.499 43.4609C137.741 41.3613 136.862 38.6025 136.862 35.209C136.862 31.7178 137.863 28.7881 139.89 26.4443C141.916 24.125 144.455 22.9531 147.556 22.9531C150.29 22.9531 152.585 23.8076 154.465 25.4922L154.611 25.4434V24.8086C154.611 24.0029 155.002 23.6123 155.759 23.5879H159.616C160.422 23.5879 160.812 24.0273 160.812 24.9062C160.812 24.9795 160.715 26.6152 160.544 29.8379C160.349 33.085 160.251 35.4775 160.251 37.04C160.251 39.3838 161.252 41.1416 162.912 41.1416C164.084 41.1416 165.183 40.5312 166.232 39.2861C167.258 38.0654 168.112 36.625 168.771 34.9404C168.869 34.7207 168.991 34.5986 169.162 34.5986C169.431 34.5986 170.065 34.8672 171.066 35.3799C172.067 35.8926 172.556 36.2832 172.556 36.5029C172.556 36.625 172.531 36.7959 172.458 36.9912C171.872 38.9199 170.798 40.9219 169.016 43.0215C167.233 45.1211 164.401 46.6104 161.252 46.6104C159.421 46.6104 157.932 46.1953 156.784 45.3652C155.637 44.5596 155.051 43.4365 155.051 41.9961V41.5078L154.855 41.459C154.196 42.9482 153.122 44.1934 151.682 45.1455C150.241 46.1221 148.483 46.6104 146.457 46.6104ZM147.751 41.1416C149.216 41.1416 150.485 40.5068 151.584 39.2373C152.683 37.9922 153.464 36.5762 153.928 35.0137C154.392 33.4756 154.611 31.9863 154.611 30.5947C153.073 29.1299 151.438 28.3975 149.704 28.3975C147.873 28.3975 146.335 29.0566 145.139 30.3994C143.918 31.7422 143.308 33.4512 143.308 35.5508C143.308 37.2109 143.723 38.5537 144.553 39.5791C145.383 40.6289 146.457 41.1416 147.751 41.1416ZM180.319 46.6104C176.633 46.6104 173.605 45.5361 171.286 43.4121C168.942 41.2881 167.771 38.5049 167.771 35.0381C167.771 31.5957 168.845 28.7393 170.969 26.4199C173.093 24.1006 175.754 22.9531 178.928 22.9531C181.198 22.9531 183.103 23.5879 184.665 24.8574C186.228 26.127 187.009 27.5918 187.009 29.252C187.009 29.667 186.423 30.1309 185.227 30.6436C184.03 31.1807 183.127 31.4492 182.517 31.4492C182.224 31.4492 182.053 31.2783 181.979 30.9609C181.613 29.2764 180.612 28.4219 178.977 28.3975C177.585 28.3975 176.438 28.959 175.559 30.0576C174.655 31.1807 174.216 32.6699 174.216 34.5498C174.216 36.7715 174.924 38.5049 176.34 39.75C177.756 40.9951 179.562 41.6055 181.76 41.6055C184.055 41.6055 185.983 40.9951 187.521 39.75C189.06 38.5049 190.207 36.918 190.964 34.9404C191.062 34.7207 191.208 34.5986 191.428 34.5986C191.696 34.5986 192.307 34.8672 193.308 35.3799C194.284 35.8926 194.772 36.2832 194.772 36.5029C194.772 36.6006 194.724 36.7959 194.626 37.0889C193.82 39.7012 192.258 41.9229 189.89 43.8027C187.521 45.6826 184.323 46.6104 180.319 46.6104ZM202.585 46.6104C198.898 46.6104 195.871 45.5117 193.527 43.3389C191.159 41.166 189.987 38.3096 189.987 34.7451C189.987 31.4736 191.013 28.6904 193.039 26.3955C195.065 24.1006 197.629 22.9531 200.729 22.9531C202.927 22.9531 204.758 23.6123 206.198 24.9307C207.639 26.249 208.347 27.9092 208.347 29.9111C208.347 32.6211 207.395 34.6719 205.466 36.0879C203.537 37.5039 201.12 38.2119 198.19 38.2119C197.751 38.2119 197.238 38.1631 196.628 38.0898C197.58 40.2383 200.144 41.6055 203.537 41.6055C205.905 41.6055 207.907 40.9951 209.543 39.7744C211.179 38.5537 212.375 36.9424 213.132 34.9404C213.229 34.7207 213.376 34.5986 213.596 34.5986C213.864 34.5986 214.475 34.8672 215.476 35.3799C216.452 35.8926 216.94 36.2832 216.94 36.5029C216.94 36.625 216.916 36.7959 216.843 36.9912C215.988 39.9209 214.304 42.2646 211.813 43.998C209.323 45.7314 206.247 46.6104 202.585 46.6104ZM197.189 33.9395C198.874 33.9395 200.314 33.5977 201.486 32.8896C202.658 32.1816 203.244 31.1807 203.244 29.8379C203.244 28.4463 202.268 27.4941 200.681 27.4941C199.289 27.4941 198.093 28.1045 197.141 29.3252C196.164 30.5459 195.7 31.9375 195.749 33.5V33.8418C196.213 33.915 196.677 33.9395 197.189 33.9395ZM220.12 47.2285C217.58 47.2285 215.555 46.6143 214.011 45.3857C212.467 44.1738 211.687 42.4639 211.687 40.2891C211.687 39.4258 211.853 38.5791 212.168 37.749C212.483 36.9355 212.799 36.3047 213.131 35.873C213.463 35.4414 213.712 35.2256 213.861 35.2256C214.144 35.2256 214.691 35.5078 215.521 36.0889C216.335 36.6699 216.75 37.0684 216.75 37.3008C216.75 37.3838 215.937 38.6787 215.937 39.9404C215.937 41.0195 216.352 41.916 217.165 42.6133C217.979 43.3105 219.008 43.6592 220.253 43.6592C221.531 43.6592 222.544 43.3105 223.324 42.6299C224.088 41.9492 224.47 41.1025 224.47 40.0566C224.47 39.127 224.071 38.3135 223.258 37.6328C222.444 36.9521 221.033 36.1387 219.024 35.1592C218.078 34.7109 217.298 34.2959 216.684 33.9141C216.069 33.5322 215.455 33.0674 214.841 32.5195C213.579 31.4072 212.981 29.9961 212.981 28.1865C212.981 26.4102 213.662 24.9326 215.023 23.7373C216.368 22.5586 218.095 21.9609 220.187 21.9609C222.179 21.9609 223.839 22.4756 225.184 23.4883C226.528 24.501 227.192 25.8623 227.192 27.5391C227.192 28.2695 227.076 28.9668 226.844 29.6143C226.595 30.2617 226.346 30.7598 226.08 31.1084C225.798 31.457 225.565 31.623 225.383 31.623C225.134 31.623 224.586 31.3408 223.739 30.793C222.893 30.2451 222.461 29.8799 222.461 29.6807L222.693 29.0664C222.843 28.6348 222.926 28.2695 222.942 27.9541C222.942 26.4932 221.93 25.4971 220.253 25.4971C218.576 25.4971 217.397 26.6094 217.397 28.2861C217.397 29.083 217.746 29.7637 218.46 30.3447C219.157 30.9258 220.27 31.5898 221.78 32.3701C222.727 32.8516 223.44 33.2168 223.922 33.4824C224.403 33.7646 225.018 34.1631 225.781 34.6777C226.528 35.1924 227.109 35.6904 227.491 36.1387C228.271 37.0518 228.985 38.4629 228.985 39.9404C228.985 42.1152 228.155 43.875 226.479 45.2197C224.802 46.5645 222.677 47.2285 220.12 47.2285ZM251.585 46.6104C247.557 46.6104 244.31 44.0225 241.844 38.8467C241.282 37.6504 240.989 36.8203 240.989 36.3564C240.989 36.0635 241.258 35.8193 241.771 35.5996C243.333 35.0381 244.627 34.3301 245.677 33.4756C246.727 32.6211 247.239 31.6934 247.239 30.6436C247.239 29.3008 246.36 28.4463 244.871 28.4463C243.406 28.4463 242.112 29.252 241.014 30.8389C239.891 32.4502 239.109 34.3057 238.646 36.3809C238.182 38.4561 237.938 40.5312 237.938 42.6064V44.6572C237.938 45.5605 237.547 46 236.741 46H232.933C232.127 46 231.736 45.5117 231.736 44.5107V13.0898C231.736 12.1621 232.127 11.6982 232.933 11.6982H236.692C237.522 11.6982 237.938 12.1377 237.938 13.041V20.6582C237.938 23.9053 237.815 26.5664 237.571 28.6416L237.791 28.6904C239.793 24.8574 242.796 22.9287 246.775 22.9531C248.68 22.9531 250.242 23.5391 251.438 24.7354C252.635 25.9316 253.221 27.4697 253.221 29.3496C253.221 31.1807 252.659 32.8652 251.512 34.3545C250.364 35.8438 248.899 36.8447 247.142 37.3574C248.582 39.8965 250.34 41.166 252.439 41.1416C253.709 41.1416 254.93 40.5068 256.077 39.2373C257.225 37.9922 258.079 36.5518 258.689 34.9404C258.787 34.7207 258.934 34.5986 259.129 34.5986C259.397 34.5986 260.008 34.8672 261.009 35.3799C261.985 35.8926 262.474 36.2832 262.474 36.5029C262.474 36.625 262.449 36.7959 262.376 36.9912C261.644 39.5059 260.35 41.7275 258.47 43.6807C256.59 45.6338 254.295 46.6104 251.585 46.6104ZM292.601 24.7598C292.723 24.7598 293.04 25.2725 293.553 26.2979C294.041 27.3477 294.285 27.958 294.285 28.1533C294.285 28.6172 292.845 29.4717 290.184 30.1309C288.841 30.4727 287.474 30.6436 286.033 30.6436C284.3 30.6436 282.64 30.3506 281.028 29.7891C281.639 31.2539 281.932 32.8408 281.932 34.5498C281.932 37.7969 280.833 40.6045 278.611 42.9971C276.39 45.4141 273.338 46.6104 269.432 46.6104C265.892 46.6104 263.06 45.5117 260.911 43.3145C258.763 41.1416 257.688 38.334 257.688 34.9404C257.688 31.4492 258.836 28.5684 261.155 26.3223C263.45 24.0762 266.453 22.9531 270.14 22.9531C272.508 22.9531 274.632 23.4902 276.536 24.5889C277.366 23.417 278.025 22.8311 278.489 22.8555C278.587 22.8555 278.978 23.0996 279.686 23.5879C280.394 24.1006 281.37 24.5889 282.664 25.1016C283.958 25.6143 285.301 25.8584 286.741 25.8584C289.329 25.8584 292.649 24.7598 292.601 24.7598ZM269.798 41.6055C271.58 41.6055 272.947 40.9219 273.924 39.5303C274.9 38.1387 275.389 36.4297 275.389 34.3545C275.389 32.4746 274.925 30.9365 273.997 29.7402C273.045 28.5439 271.727 27.958 270.042 27.958C268.235 27.958 266.819 28.6416 265.77 30.0332C264.72 31.4248 264.183 33.0361 264.183 34.8916C264.183 36.8203 264.695 38.4316 265.745 39.7012C266.795 40.9707 268.138 41.6055 269.798 41.6055ZM316.38 27.4941L318.138 27.4453C318.26 27.4453 318.455 28.0557 318.675 29.2764C318.895 30.4971 318.992 31.2539 318.992 31.5469C318.992 31.7422 318.626 31.9131 317.918 32.0352C317.21 32.1816 316.502 32.2549 315.794 32.2549C313.914 32.2549 312.254 31.9375 310.789 31.3027C311.058 32.4502 311.18 33.5244 311.18 34.5498C311.18 37.7969 310.081 40.6045 307.859 42.9971C305.638 45.4141 302.586 46.6104 298.68 46.6104C295.14 46.6104 292.308 45.5117 290.159 43.3145C288.011 41.1416 286.937 38.334 286.937 34.9404C286.937 31.4492 288.084 28.5684 290.403 26.3223C292.698 24.0762 295.701 22.9531 299.388 22.9531C301.756 22.9531 303.88 23.4902 305.784 24.5889C306.297 23.71 307.322 22.9531 307.835 22.9531C307.957 22.9531 308.396 23.3193 309.129 24.0762C309.861 24.833 310.887 25.5898 312.181 26.3467C313.475 27.1035 314.891 27.4941 316.38 27.4941ZM299.046 41.6055C300.828 41.6055 302.195 40.9219 303.172 39.5303C304.148 38.1387 304.637 36.4297 304.637 34.3545C304.637 32.4746 304.173 30.9365 303.245 29.7402C302.293 28.5439 300.975 27.958 299.29 27.958C297.483 27.958 296.067 28.6416 295.018 30.0332C293.968 31.4248 293.431 33.0361 293.431 34.8916C293.431 36.8203 293.943 38.4316 294.993 39.7012C296.043 40.9707 297.386 41.6055 299.046 41.6055ZM340.55 34.5986C340.818 34.5986 341.453 34.8672 342.454 35.3799C343.455 35.8926 343.968 36.2832 343.968 36.5029C343.968 36.6006 343.919 36.7959 343.821 37.0889C342.918 39.9209 341.258 42.2158 338.816 43.9736C336.375 45.7314 333.421 46.6104 329.954 46.6104C326.194 46.6104 323.216 45.4141 321.043 43.0459C318.87 40.6777 317.771 37.5527 317.771 33.6465V27.4453C317.771 22.5381 318.748 18.5098 320.677 15.3604C322.605 12.2109 325.34 10.6484 328.904 10.6484C331.224 10.6484 333.128 11.332 334.568 12.7236C336.009 14.1152 336.717 15.8975 336.717 18.0947C336.717 21.0488 335.472 23.7344 332.981 26.1025C330.467 28.4951 327.391 30.2773 323.704 31.4492V33.4512C323.704 35.917 324.339 37.8945 325.633 39.3594C326.927 40.8242 328.685 41.5566 330.955 41.5566C333.274 41.5566 335.228 40.8975 336.766 39.6035C338.304 38.3096 339.427 36.7471 340.159 34.9404C340.257 34.7207 340.379 34.5986 340.55 34.5986ZM328.855 15.7021C327.781 15.7021 326.854 16.2393 326.072 17.3379C325.291 18.4365 324.729 19.7549 324.363 21.293C323.997 22.8311 323.777 24.4668 323.704 26.2002C325.633 25.3945 327.366 24.2959 328.904 22.8555C330.442 21.415 331.199 19.877 331.199 18.2412C331.199 16.7031 330.394 15.7021 328.855 15.7021Z" fill="url(#paint1_linear_683_2)"/>
<path d="M58.6108 24.1945C63.2218 20.1259 66.3622 16.3425 68.032 12.8442C69.7017 9.34592 70.0529 6.71971 67.8478 5.74777C65.6426 4.77582 61.5559 5.75552 56.8253 7.9047C52.0947 10.0539 43.4965 15.9836 38.8855 20.0522L36.593 22.721C40.3438 19.4115 52.3987 11.2489 56.2391 9.50417C60.0796 7.75941 63.5975 6.92673 65.3912 7.71735C67.185 8.50796 67.3337 10.8933 65.9781 13.7333C64.6226 16.5733 61.7195 20.4433 57.9688 23.7528L58.6108 24.1945Z" fill="#2DF0C4"/>
<path d="M58.7243 23.6536C62.7125 20.1345 65.3542 16.8292 66.6493 13.7377C67.9443 10.6462 68.0775 8.29947 65.9553 7.36408C63.8331 6.42869 60.1049 7.19081 55.8641 8.98397C51.6232 10.7771 44.0643 15.8522 40.0761 19.3713L38.1408 21.7006C41.385 18.8381 51.994 11.8583 55.4368 10.4025C58.8796 8.94681 62.0897 8.30034 63.8159 9.06121C65.5422 9.82209 65.8562 11.9669 64.8048 14.4767C63.7534 16.9865 61.3388 20.3763 58.0947 23.2388L58.7243 23.6536Z" fill="#8D2EF4"/>
<path d="M18.3468 38.5675C13.5305 42.7943 10.2085 46.6789 8.38076 50.2215C6.55307 53.7641 6.09064 56.3875 8.27353 57.2652C10.4564 58.1428 14.6167 57.0061 19.4744 54.6818C24.332 52.3574 33.2447 46.1222 38.061 41.8955L40.4822 39.1522C36.5644 42.5904 24.0749 51.1822 20.1313 53.0691C16.1877 54.9561 12.6069 55.924 10.8313 55.2101C9.05565 54.4962 9.00419 52.1321 10.488 49.2561C11.9717 46.3801 15.058 42.419 18.9758 38.9808L18.3468 38.5675Z" fill="#2DF0C4"/>
<path d="M18.2091 39.1121C14.0433 42.7679 11.2438 46.1576 9.8106 49.2811C8.3774 52.4045 8.14631 54.7415 10.2471 55.5862C12.3479 56.4308 16.1377 55.5247 20.487 53.5736C24.8362 51.6225 32.6658 46.278 36.8317 42.6222L38.8788 40.2305C35.4901 43.2043 24.507 50.5631 20.9762 52.147C17.4454 53.731 14.1827 54.5015 12.4738 53.8145C10.765 53.1274 10.537 51.0088 11.7005 48.4731C12.864 45.9374 15.4381 42.4729 18.8267 39.4991L18.2091 39.1121Z" fill="#8D2EF4"/>
<path d="M56.363 34.2585L51.1947 33.0842C50.6101 34.6976 49.8013 36.1991 48.7683 37.5887C47.7353 38.9784 46.4715 40.1938 44.9768 41.2349C43.1085 42.5363 41.1542 43.3866 39.1139 43.786C37.0735 44.1853 35.0741 44.1625 33.1156 43.7174C31.1571 43.2724 29.3211 42.4238 27.6077 41.1715C25.8942 39.9192 24.4302 38.2921 23.2157 36.2902C22.244 34.6887 21.5493 33.0283 21.1316 31.309C20.7139 29.5897 20.5434 27.8657 20.6203 26.137L15.452 24.9626L15.9481 22.456L56.8591 31.752L56.363 34.2585ZM43.6908 39.1152C44.8997 38.2732 45.932 37.2945 46.7875 36.1792C47.643 35.064 48.3323 33.8551 48.8554 32.5526L22.9596 26.6685C22.9443 28.0864 23.1164 29.491 23.4758 30.8823C23.8353 32.2736 24.408 33.617 25.1938 34.9123C27.2657 38.3273 30.0697 40.4365 33.6059 41.24C37.1421 42.0435 40.5038 41.3353 43.6908 39.1152ZM52.1869 28.071L49.8476 27.5395C49.8629 26.1216 49.6908 24.717 49.3313 23.3257C48.9719 21.9343 48.3992 20.591 47.6133 19.2957C45.5415 15.8807 42.7374 13.7715 39.2012 12.968C35.665 12.1645 32.3034 12.8727 29.1163 15.0927C27.9074 15.9348 26.8752 16.9135 26.0197 18.0287C25.1641 19.144 24.4748 20.3529 23.9518 21.6553L21.6124 21.1238C22.197 19.5104 23.0059 18.0089 24.0389 16.6193C25.0719 15.2296 26.3357 14.0142 27.8303 12.9731C29.6767 11.687 31.6235 10.8502 33.671 10.4627C35.7185 10.0751 37.7215 10.1038 39.68 10.5488C41.6385 10.9938 43.48 11.8387 45.2045 13.0833C46.9289 14.3279 48.3913 15.9394 49.5915 17.9177C50.5631 19.5192 51.2578 21.1796 51.6756 22.8989C52.0933 24.6182 52.2637 26.3423 52.1869 28.071Z" fill="#5FF1D0" fill-opacity="0.8"/>
<path d="M58.7224 35.9451L53.5541 34.7707C52.9695 36.3841 52.1607 37.8856 51.1277 39.2753C50.0947 40.6649 48.8308 41.8803 47.3362 42.9214C45.4679 44.2228 43.5136 45.0731 41.4733 45.4725C39.4329 45.8718 37.4335 45.849 35.475 45.404C33.5165 44.959 31.6805 44.1103 29.967 42.858C28.2536 41.6057 26.7896 39.9786 25.575 37.9768C24.6034 36.3753 23.9087 34.7149 23.491 32.9956C23.0733 31.2763 22.9028 29.5522 22.9797 27.8235L17.8114 26.6491L18.3075 24.1426L59.2185 33.4385L58.7224 35.9451ZM46.0502 40.8018C47.2591 39.9597 48.2913 38.981 49.1469 37.8658C50.0024 36.7505 50.6917 35.5416 51.2148 34.2392L25.319 28.355C25.3037 29.7729 25.4758 31.1775 25.8352 32.5688C26.1947 33.9602 26.7673 35.3035 27.5532 36.5988C29.6251 40.0138 32.4291 42.123 35.9653 42.9265C39.5015 43.73 42.8631 43.0218 46.0502 40.8018ZM54.5463 29.7575L52.2069 29.226C52.2222 27.8081 52.0502 26.4035 51.6907 25.0122C51.3312 23.6209 50.7586 22.2775 49.9727 20.9822C47.9008 17.5672 45.0968 15.458 41.5606 14.6545C38.0244 13.851 34.6628 14.5593 31.4757 16.7793C30.2668 17.6213 29.2346 18.6 28.3791 19.7153C27.5235 20.8305 26.8342 22.0394 26.3111 23.3419L23.9718 22.8103C24.5564 21.1969 25.3652 19.6954 26.3982 18.3058C27.4313 16.9161 28.6951 15.7007 30.1897 14.6596C32.036 13.3736 33.9829 12.5367 36.0304 12.1492C38.0779 11.7616 40.0809 11.7903 42.0394 12.2354C43.9979 12.6804 45.8394 13.5252 47.5638 14.7698C49.2883 16.0145 50.7506 17.6259 51.9509 19.6043C52.9225 21.2058 53.6172 22.8662 54.0349 24.5855C54.4527 26.3048 54.6231 28.0288 54.5463 29.7575Z" fill="#8D2EF4"/>
<path d="M58.7224 35.9451L53.5541 34.7707C52.9695 36.3841 52.1607 37.8856 51.1277 39.2753C50.0947 40.6649 48.8308 41.8803 47.3362 42.9214C45.4679 44.2228 43.5136 45.0731 41.4733 45.4725C39.4329 45.8718 37.4335 45.849 35.475 45.404C33.5165 44.959 31.6805 44.1103 29.967 42.858C28.2536 41.6057 26.7896 39.9786 25.575 37.9768C24.6034 36.3753 23.9087 34.7149 23.491 32.9956C23.0733 31.2763 22.9028 29.5522 22.9797 27.8235L17.8114 26.6491L18.3075 24.1426L59.2185 33.4385L58.7224 35.9451ZM46.0502 40.8018C47.2591 39.9597 48.2913 38.981 49.1469 37.8658C50.0024 36.7505 50.6917 35.5416 51.2148 34.2392L25.319 28.355C25.3037 29.7729 25.4758 31.1775 25.8352 32.5688C26.1947 33.9602 26.7673 35.3035 27.5532 36.5988C29.6251 40.0138 32.4291 42.123 35.9653 42.9265C39.5015 43.73 42.8631 43.0218 46.0502 40.8018ZM54.5463 29.7575L52.2069 29.226C52.2222 27.8081 52.0502 26.4035 51.6907 25.0122C51.3312 23.6209 50.7586 22.2775 49.9727 20.9822C47.9008 17.5672 45.0968 15.458 41.5606 14.6545C38.0244 13.851 34.6628 14.5593 31.4757 16.7793C30.2668 17.6213 29.2346 18.6 28.3791 19.7153C27.5235 20.8305 26.8342 22.0394 26.3111 23.3419L23.9718 22.8103C24.5564 21.1969 25.3652 19.6954 26.3982 18.3058C27.4313 16.9161 28.6951 15.7007 30.1897 14.6596C32.036 13.3736 33.9829 12.5367 36.0304 12.1492C38.0779 11.7616 40.0809 11.7903 42.0394 12.2354C43.9979 12.6804 45.8394 13.5252 47.5638 14.7698C49.2883 16.0145 50.7506 17.6259 51.9509 19.6043C52.9225 21.2058 53.6172 22.8662 54.0349 24.5855C54.4527 26.3048 54.6231 28.0288 54.5463 29.7575Z" fill="#8D2EF4"/>
<path d="M61.0818 37.6296L55.9135 36.4553C55.3289 38.0687 54.5201 39.5702 53.4871 40.9598C52.454 42.3495 51.1902 43.5649 49.6956 44.606C47.8273 45.9074 45.873 46.7577 43.8326 47.1571C41.7923 47.5564 39.7929 47.5336 37.8344 47.0885C35.8759 46.6435 34.0399 45.7949 32.3264 44.5426C30.613 43.2903 29.149 41.6632 27.9344 39.6613C26.9628 38.0598 26.2681 36.3994 25.8504 34.6801C25.4326 32.9608 25.2622 31.2368 25.339 29.5081L20.1708 28.3337L20.6668 25.8271L61.5778 35.123L61.0818 37.6296ZM48.4096 42.4863C49.6185 41.6443 50.6507 40.6656 51.5062 39.5503C52.3618 38.4351 53.0511 37.2262 53.5742 35.9237L27.6784 30.0396C27.6631 31.4575 27.8351 32.8621 28.1946 34.2534C28.554 35.6447 29.1267 36.9881 29.9126 38.2834C31.9845 41.6984 34.7885 43.8076 38.3247 44.6111C41.8609 45.4146 45.2225 44.7063 48.4096 42.4863ZM56.9056 31.4421L54.5663 30.9106C54.5816 29.4927 54.4095 28.0881 54.0501 26.6968C53.6906 25.3054 53.118 23.9621 52.3321 22.6668C50.2602 19.2518 47.4562 17.1426 43.92 16.3391C40.3838 15.5356 37.0222 16.2438 33.8351 18.4638C32.6262 19.3059 31.594 20.2846 30.7384 21.3998C29.8829 22.5151 29.1936 23.724 28.6705 25.0264L26.3312 24.4949C26.9158 22.8815 27.7246 21.38 28.7576 19.9903C29.7906 18.6007 31.0545 17.3853 32.5491 16.3442C34.3954 15.0581 36.3423 14.2213 38.3898 13.8337C40.4373 13.4462 42.4403 13.4749 44.3988 13.9199C46.3573 14.3649 48.1987 15.2098 49.9232 16.4544C51.6477 17.699 53.11 19.3105 54.3103 21.2888C55.2819 22.8903 55.9766 24.5507 56.3943 26.27C56.812 27.9893 56.9825 29.7134 56.9056 31.4421Z" fill="#19181B"/>
<path d="M61.0818 37.6296L55.9135 36.4553C55.3289 38.0687 54.5201 39.5702 53.4871 40.9598C52.454 42.3495 51.1902 43.5649 49.6956 44.606C47.8273 45.9074 45.873 46.7577 43.8326 47.1571C41.7923 47.5564 39.7929 47.5336 37.8344 47.0885C35.8759 46.6435 34.0399 45.7949 32.3264 44.5426C30.613 43.2903 29.149 41.6632 27.9344 39.6613C26.9628 38.0598 26.2681 36.3994 25.8504 34.6801C25.4326 32.9608 25.2622 31.2368 25.339 29.5081L20.1708 28.3337L20.6668 25.8271L61.5778 35.123L61.0818 37.6296ZM48.4096 42.4863C49.6185 41.6443 50.6507 40.6656 51.5062 39.5503C52.3618 38.4351 53.0511 37.2262 53.5742 35.9237L27.6784 30.0396C27.6631 31.4575 27.8351 32.8621 28.1946 34.2534C28.554 35.6447 29.1267 36.9881 29.9126 38.2834C31.9845 41.6984 34.7885 43.8076 38.3247 44.6111C41.8609 45.4146 45.2225 44.7063 48.4096 42.4863ZM56.9056 31.4421L54.5663 30.9106C54.5816 29.4927 54.4095 28.0881 54.0501 26.6968C53.6906 25.3054 53.118 23.9621 52.3321 22.6668C50.2602 19.2518 47.4562 17.1426 43.92 16.3391C40.3838 15.5356 37.0222 16.2438 33.8351 18.4638C32.6262 19.3059 31.594 20.2846 30.7384 21.3998C29.8829 22.5151 29.1936 23.724 28.6705 25.0264L26.3312 24.4949C26.9158 22.8815 27.7246 21.38 28.7576 19.9903C29.7906 18.6007 31.0545 17.3853 32.5491 16.3442C34.3954 15.0581 36.3423 14.2213 38.3898 13.8337C40.4373 13.4462 42.4403 13.4749 44.3988 13.9199C46.3573 14.3649 48.1987 15.2098 49.9232 16.4544C51.6477 17.699 53.11 19.3105 54.3103 21.2888C55.2819 22.8903 55.9766 24.5507 56.3943 26.27C56.812 27.9893 56.9825 29.7134 56.9056 31.4421Z" fill="#A568E6"/>
<defs>
<linearGradient id="paint0_linear_683_2" x1="223.403" y1="18.559" x2="227.576" y2="47.2776" gradientUnits="userSpaceOnUse">
<stop stop-color="#333F5F"/>
<stop offset="0.489583" stop-color="#7933C1"/>
<stop offset="0.791667" stop-color="#9A2DF0"/>
</linearGradient>
<linearGradient id="paint1_linear_683_2" x1="212.837" y1="0" x2="212.837" y2="60" gradientUnits="userSpaceOnUse">
<stop stop-color="#333F5F"/>
<stop offset="0.453125" stop-color="#7019B4"/>
<stop offset="0.791667" stop-color="#9A2DF0"/>
</linearGradient>
</defs>
</svg>
