<svg width="100" height="129" viewBox="0 0 100 129" fill="none" xmlns="http://www.w3.org/2000/svg">
<path d="M92 50C92 73.77 73.1744 93 50 93C26.8256 93 8 73.77 8 50C8 26.23 26.8256 7 50 7C73.1744 7 92 26.23 92 50Z" fill="#844AFF" stroke="#F1E0FE" stroke-width="2"/>
<rect width="3" height="14.3287" rx="1.5" transform="matrix(-0.637366 0.770561 0.770561 0.637366 34.173 51.5244)" fill="#F1E0FE"/>
<rect width="3" height="41.2469" rx="1.5" transform="matrix(0.690804 0.723042 0.723042 -0.690804 40.9744 60.6621)" fill="#F1E0FE"/>
<rect width="3" height="51.2578" rx="1.5" transform="matrix(-0.711146 -0.703044 -0.703044 0.711146 80.17 33.3262)" fill="#D196FF"/>
<rect width="3" height="25.3655" rx="1.5" transform="matrix(-0.637366 0.770561 0.770561 0.637366 25.9121 52)" fill="#D196FF"/>
<circle cx="50" cy="50" r="48" stroke="#811ECD" stroke-width="4"/>
<path d="M52.7661 122.412C51.7367 124.864 48.2633 124.864 47.2339 122.412L41.355 108.411C40.5249 106.434 41.9768 104.25 44.1211 104.25H55.8789C58.0232 104.25 59.4751 106.434 58.645 108.411L52.7661 122.412Z" fill="#811ECD"/>
</svg>
