<svg width="27" height="27" viewBox="0 0 27 27" fill="none" xmlns="http://www.w3.org/2000/svg">
<path d="M20.1376 23.625H7.65005V9.225L15.4688 1.125L16.5657 1.99688C16.6782 2.09063 16.7626 2.22188 16.8188 2.39063C16.8751 2.55938 16.9032 2.76563 16.9032 3.00938V3.29063L15.6376 9.225H24.0469C24.4969 9.225 24.8907 9.39375 25.2282 9.73125C25.5657 10.0688 25.7344 10.4625 25.7344 10.9125V13.2142C25.7344 13.3485 25.7485 13.4859 25.7766 13.6266C25.8047 13.7672 25.7907 13.9031 25.7344 14.0344L22.1907 22.1906C22.0242 22.5891 21.7468 22.9277 21.3583 23.2066C20.9699 23.4855 20.563 23.625 20.1376 23.625ZM9.33755 21.9375H20.5032L24.0469 13.5281V10.9125H13.5563L15.0469 3.90938L9.33755 9.92813V21.9375ZM7.65005 9.225V10.9125H3.90942V21.9375H7.65005V23.625H2.22192V9.225H7.65005Z" fill="#3D3D3D"/>
</svg>
