<svg width="27" height="27" viewBox="0 0 27 27" fill="none" xmlns="http://www.w3.org/2000/svg">
<path d="M6.8062 3.375H19.2937V17.775L11.475 25.875L10.3781 25.0031C10.2656 24.9094 10.1812 24.7781 10.125 24.6094C10.0687 24.4406 10.0406 24.2344 10.0406 23.9906V23.7094L11.3062 17.775H2.89683C2.44683 17.775 2.05308 17.6063 1.71558 17.2688C1.37808 16.9313 1.20933 16.5375 1.20933 16.0875V13.7858C1.20933 13.6515 1.19526 13.5141 1.16714 13.3734C1.13901 13.2328 1.15308 13.0969 1.20933 12.9656L4.75308 4.80938C4.91954 4.41094 5.19699 4.07227 5.58544 3.79336C5.97386 3.51445 6.38078 3.375 6.8062 3.375ZM17.6062 5.0625H6.44058L2.89683 13.4719V16.0875H13.3875L11.8968 23.0906L17.6062 17.0719V5.0625ZM19.2937 17.775V16.0875H23.0343V5.0625H19.2937V3.375H24.7218V17.775H19.2937Z" fill="#3D3D3D"/>
</svg>
