<svg width="2048" height="1783" viewBox="0 0 2048 1783" fill="none" xmlns="http://www.w3.org/2000/svg">
<path d="M1599 1384C1599 1564.05 1574.17 1782.5 1266 1782.5C957.825 1782.5 260.001 1654.04 260.001 1474C260.001 1293.95 252.827 1230 561.002 1230C869.177 1230 1383.5 1142.5 1599 1384Z" fill="#AB47F8" fill-opacity="0.08"/>
<path d="M837.201 1326.99C839.193 1382.97 764.046 1430.57 669.355 1433.3C574.664 1436.02 368.893 1403.53 366.901 1347.55C364.909 1291.57 399.602 1236.87 494.293 1234.14C588.984 1231.42 835.209 1271.01 837.201 1326.99Z" fill="#040101" fill-opacity="0.04" stroke="#F5F5F5" stroke-opacity="0.29" stroke-width="4"/>
<path d="M416.317 888.517L421.304 928.899L421.304 928.9L449.538 1156.82L428.795 1176.09L400.165 905.956L416.317 888.517Z" fill="#F6AB19" stroke="#F7AB19" stroke-width="4"/>
<path d="M433.443 1340.56L432.878 1316.55L432.878 1316.54L429.587 1180.25L455.497 1174.2L451.243 1332.75L433.443 1340.56Z" fill="#F6AB19" stroke="#F7AB19" stroke-width="4"/>
<path d="M615.341 1268.38L615.598 1244.37L615.598 1244.37L616.975 1108.04L643.076 1102.72L633.396 1261.07L615.341 1268.38Z" fill="#F6AB19" stroke="#F7AB19" stroke-width="4"/>
<path d="M653.225 1371.76L653.225 1371.74L653.226 1371.72L656.452 1224.07L682.253 1224.07L670.496 1388.89L652.262 1395.76L653.225 1371.76Z" fill="#F6AB19" stroke="#F7AB19" stroke-width="4"/>
<path d="M600.538 808.867L606.052 853.521L634.412 1082.46L606.052 1101.6L580.844 830.131L600.538 808.867Z" fill="#F6AB19"/>
<path d="M771.391 1281.03L771.391 1281.03L776.768 1144.78L803.013 1140.08L788.688 1298.16L770.428 1305.03L771.391 1281.03Z" fill="#F6AB19" stroke="#F7AB19" stroke-width="4"/>
<path d="M372.249 853.676L620.155 792.904C624.288 791.891 628.435 794.516 629.288 798.684L650.956 904.516C653.328 916.101 646.722 927.643 635.533 931.467L417.089 1006.12C403.269 1010.84 388.533 1001.95 386.272 987.519L366.625 862.121C366.022 858.273 368.466 854.603 372.249 853.676Z" fill="#653F8E" stroke="#281616"/>
<path d="M424.865 1171.77L634.413 1076.08L797.482 1097.35L861.292 1103.72L741.55 1191.61L677.324 1222.8L508.369 1191.61L424.865 1171.77Z" fill="#653F8E"/>
<path d="M425.652 1171.77L678.836 1222.8V1229.89L427.228 1178.86L425.652 1171.77Z" fill="#1E1922"/>
<path d="M677.325 1222.8L860.876 1103.73L859.718 1109.4L677.325 1229.89L677.325 1222.8Z" fill="#1E1922"/>
<path d="M1289.57 1354.56C1287.82 1410.54 1353.65 1458.13 1436.61 1460.86C1519.57 1463.59 1699.84 1431.09 1701.58 1375.11C1703.33 1319.13 1672.93 1264.44 1589.98 1261.71C1507.02 1258.98 1291.31 1298.58 1289.57 1354.56Z" fill="#040101" fill-opacity="0.04" stroke="#F5F5F5" stroke-opacity="0.29" stroke-width="4"/>
<path d="M1658.48 916.549L1654.17 956.429L1654.17 956.43L1629.42 1184.45L1647.15 1203.24L1672.2 933.451L1658.48 916.549Z" fill="#F6AB19" stroke="#F7AB19" stroke-width="4"/>
<path d="M1643.06 1367.91L1643.55 1344.19L1643.55 1344.19L1646.43 1207.8L1624.21 1201.88L1627.93 1360.33L1643.06 1367.91Z" fill="#F6AB19" stroke="#F7AB19" stroke-width="4"/>
<path d="M1483.7 1295.74L1483.47 1272.02L1483.47 1272.02L1482.27 1135.6L1459.87 1130.38L1468.35 1288.65L1483.7 1295.74Z" fill="#F6AB19" stroke="#F7AB19" stroke-width="4"/>
<path d="M1451.35 1423.12L1450.51 1399.41L1450.51 1399.41L1445.8 1263.07L1423.28 1258.47L1435.82 1416.45L1451.35 1423.12Z" fill="#F6AB19" stroke="#F7AB19" stroke-width="4"/>
<path d="M1496.9 836.428L1492.07 881.082L1467.22 1110.02L1492.07 1129.16L1514.15 857.691L1496.9 836.428Z" fill="#F6AB19"/>
<path d="M1347.83 1332.4L1346.99 1308.69L1346.99 1308.69L1342.28 1172.35L1319.76 1167.74L1332.3 1325.72L1347.83 1332.4Z" fill="#F6AB19" stroke="#F7AB19" stroke-width="4"/>
<path d="M1696.4 881.101L1481.08 820.853C1476.82 819.661 1472.46 822.397 1471.68 826.752L1452.56 933.334C1450.58 944.386 1456.69 955.296 1467.15 959.376L1652.99 1031.87C1667.15 1037.39 1682.74 1028.23 1684.81 1013.17L1701.81 889.344C1702.32 885.631 1700.01 882.111 1696.4 881.101Z" fill="#653F8E" stroke="#281616"/>
<path d="M1650.8 1199.33L1467.22 1103.64L1324.36 1124.91L1268.46 1131.29L1373.36 1219.18L1428.57 1260.99L1577.65 1219.18L1650.8 1199.33Z" fill="#653F8E"/>
<path d="M1650.11 1199.33L1427.78 1260.29L1428.3 1267.37L1648.73 1206.42L1650.11 1199.33Z" fill="#1E1922"/>
<path d="M1429.26 1260.28L1268.82 1131.29L1269.84 1136.95L1427.88 1267.37L1429.26 1260.28Z" fill="#1E1922"/>
<path d="M474.201 1578.56C476.193 1634.54 401.046 1682.13 306.355 1684.86C211.664 1687.59 5.89321 1655.09 3.90105 1599.11C1.90889 1543.13 36.6015 1488.43 131.293 1485.71C225.984 1482.98 472.209 1522.58 474.201 1578.56Z" fill="#040101" fill-opacity="0.04" stroke="#F5F5F5" stroke-opacity="0.29" stroke-width="4"/>
<path d="M53.317 1140.08L58.3039 1180.46L58.304 1180.46L86.5381 1408.38L65.7953 1427.65L37.1647 1157.52L53.317 1140.08Z" fill="#F6AB19" stroke="#F7AB19" stroke-width="4"/>
<path d="M70.4429 1592.12L69.878 1568.11L69.878 1568.11L66.5867 1431.81L92.4969 1425.76L88.2432 1584.31L70.4429 1592.12Z" fill="#F6AB19" stroke="#F7AB19" stroke-width="4"/>
<path d="M252.341 1519.95L252.598 1495.93L252.598 1495.93L253.975 1359.6L280.076 1354.28L270.396 1512.63L252.341 1519.95Z" fill="#F6AB19" stroke="#F7AB19" stroke-width="4"/>
<path d="M290.225 1623.32L290.225 1623.32L295.602 1487.07L321.847 1482.37L307.522 1640.44L289.262 1647.32L290.225 1623.32Z" fill="#F6AB19" stroke="#F7AB19" stroke-width="4"/>
<path d="M237.538 1060.43L243.052 1105.08L271.412 1334.02L243.052 1353.16L217.844 1081.69L237.538 1060.43Z" fill="#F6AB19"/>
<path d="M408.391 1532.59L408.391 1532.59L413.768 1396.34L440.013 1391.64L425.688 1549.72L407.428 1556.59L408.391 1532.59Z" fill="#F6AB19" stroke="#F7AB19" stroke-width="4"/>
<path d="M9.24936 1105.24L257.155 1044.47C261.288 1043.45 265.435 1046.08 266.288 1050.25L287.956 1156.08C290.328 1167.66 283.722 1179.2 272.533 1183.03L54.0886 1257.68C40.2686 1262.4 25.5331 1253.51 23.2725 1239.08L3.62542 1113.68C3.02246 1109.83 5.46602 1106.16 9.24936 1105.24Z" fill="#653F8E" stroke="#281616"/>
<path d="M61.8652 1423.33L271.413 1327.64L434.482 1348.91L498.292 1355.29L378.55 1443.18L315.528 1484.99L145.369 1443.18L61.8652 1423.33Z" fill="#653F8E"/>
<path d="M62.6523 1423.33L316.435 1484.29L315.836 1491.37L64.2279 1430.42L62.6523 1423.33Z" fill="#1E1922"/>
<path d="M314.739 1484.28L497.874 1355.29L496.715 1360.95L316.315 1491.37L314.739 1484.28Z" fill="#1E1922"/>
<g filter="url(#filter0_d_1294_80)">
<path d="M1677.69 436.019C1677.69 603.562 1401.18 625.665 1158.54 577.467C741.811 718.714 459 641.526 459 473.983C487.36 133.056 569.288 -2.00929 1019.89 58.2371C1364.15 -153.691 1677.69 268.477 1677.69 436.019Z" fill="#FAFAFA"/>
</g>
<path d="M658.928 296L655.128 351.5C655.062 352.5 654.695 353 654.028 353H648.528C644.795 353 642.128 352.267 640.528 350.8C638.928 349.333 638.128 347.233 638.128 344.5C638.128 343.5 638.162 342 638.228 340C638.362 338 638.528 335.667 638.728 333C638.928 330.267 639.128 327.333 639.328 324.2C639.595 321 639.862 317.8 640.128 314.6C640.395 311.333 640.628 308.1 640.828 304.9C641.095 301.7 641.328 298.733 641.528 296H625.528C624.795 296 624.428 295.533 624.428 294.6L624.728 289C624.795 288.133 624.928 287.3 625.128 286.5C625.395 285.633 625.795 284.867 626.328 284.2C626.862 283.533 627.528 283 628.328 282.6C629.195 282.2 630.228 282 631.428 282H676.128C676.528 282 676.895 282.1 677.228 282.3C677.562 282.5 677.728 282.867 677.728 283.4L677.328 289.3C677.195 291.3 676.628 292.933 675.628 294.2C674.695 295.4 672.728 296 669.728 296H658.928ZM690.223 353C688.156 353 686.456 352.8 685.123 352.4C683.856 351.933 682.823 351.3 682.023 350.5C681.289 349.7 680.756 348.733 680.423 347.6C680.156 346.4 680.023 345.033 680.023 343.5C680.023 342.5 680.056 341.1 680.123 339.3C680.256 337.433 680.456 334.9 680.723 331.7C680.989 328.433 681.289 324.333 681.623 319.4C682.023 314.4 682.489 308.233 683.023 300.9C683.089 299.433 683.256 298.567 683.523 298.3C683.723 298.1 684.256 298 685.123 298H689.023C691.089 298 692.756 298.2 694.023 298.6C695.356 299 696.389 299.6 697.123 300.4C697.923 301.2 698.456 302.167 698.723 303.3C699.056 304.433 699.223 305.7 699.223 307.1C699.223 308.1 699.156 309.6 699.023 311.6C698.889 313.6 698.689 316.333 698.423 319.8C698.223 323.2 697.923 327.467 697.523 332.6C697.123 337.667 696.623 343.8 696.023 351C695.956 351.8 695.789 352.333 695.523 352.6C695.256 352.867 694.689 353 693.823 353H690.223ZM683.123 286.2C683.123 283.533 684.089 281.433 686.023 279.9C687.956 278.367 690.556 277.6 693.823 277.6C696.689 277.6 698.756 278.2 700.023 279.4C701.356 280.533 702.023 282.067 702.023 284C702.023 286.467 701.089 288.533 699.223 290.2C697.423 291.8 694.756 292.6 691.223 292.6C685.823 292.6 683.123 290.467 683.123 286.2ZM726.348 354C723.748 354 721.248 353.533 718.848 352.6C716.514 351.667 714.448 350.2 712.648 348.2C710.914 346.2 709.514 343.667 708.448 340.6C707.448 337.533 706.948 333.833 706.948 329.5C706.948 327.567 707.081 325.433 707.348 323.1C707.614 320.7 708.081 318.3 708.748 315.9C709.414 313.5 710.348 311.167 711.548 308.9C712.748 306.633 714.248 304.633 716.048 302.9C717.914 301.1 720.114 299.667 722.648 298.6C725.248 297.533 728.281 297 731.748 297C735.081 297 737.748 297.6 739.748 298.8C741.814 299.933 743.114 301.933 743.648 304.8C743.781 302.2 743.914 299.933 744.048 298C744.181 296.067 744.281 294.267 744.348 292.6C744.481 290.933 744.614 289.267 744.748 287.6C744.881 285.933 745.014 284.033 745.148 281.9C745.214 280.433 745.381 279.567 745.648 279.3C745.781 279.167 745.948 279.1 746.148 279.1C746.348 279.033 746.714 279 747.248 279H751.148C753.148 279 754.814 279.233 756.148 279.7C757.481 280.167 758.548 280.8 759.348 281.6C760.148 282.4 760.714 283.333 761.048 284.4C761.381 285.4 761.548 286.467 761.548 287.6C761.548 287.6 761.481 288.433 761.348 290.1C761.214 291.767 761.048 294 760.848 296.8C760.648 299.533 760.414 302.667 760.148 306.2C759.881 309.733 759.614 313.4 759.348 317.2C759.081 320.933 758.814 324.667 758.548 328.4C758.281 332.067 758.014 335.467 757.748 338.6C757.481 341.667 757.248 344.333 757.048 346.6C756.914 348.8 756.814 350.267 756.748 351C756.614 351.8 756.448 352.333 756.248 352.6C756.048 352.867 755.481 353 754.548 353H750.948C749.548 353 748.214 352.9 746.948 352.7C745.748 352.433 744.681 352.033 743.748 351.5C742.881 350.9 742.181 350.133 741.648 349.2C741.181 348.2 740.948 346.933 740.948 345.4C739.748 347.933 737.914 350 735.448 351.6C733.048 353.2 730.014 354 726.348 354ZM735.048 310.3C731.648 310.3 729.114 311.8 727.448 314.8C725.848 317.733 725.048 321.7 725.048 326.7C725.048 328.433 725.148 330.133 725.348 331.8C725.614 333.467 726.048 334.967 726.648 336.3C727.248 337.633 728.048 338.7 729.048 339.5C730.114 340.3 731.448 340.7 733.048 340.7C735.914 340.7 738.314 339.3 740.248 336.5C742.181 333.7 743.148 329.3 743.148 323.3C743.148 321.633 743.048 320.033 742.848 318.5C742.648 316.9 742.248 315.5 741.648 314.3C741.048 313.1 740.214 312.133 739.148 311.4C738.081 310.667 736.714 310.3 735.048 310.3ZM765.888 340.7C765.888 334.7 768.588 330 773.988 326.6C779.388 323.2 787.354 321.367 797.888 321.1C797.954 320.367 797.988 319.767 797.988 319.3C798.054 318.767 798.088 318.133 798.088 317.4C798.088 315.267 797.688 313.567 796.888 312.3C796.088 311.033 794.421 310.4 791.888 310.4C790.488 310.4 789.354 310.6 788.488 311C787.621 311.4 786.921 311.967 786.388 312.7C785.854 313.367 785.421 314.2 785.088 315.2C784.754 316.2 784.454 317.3 784.188 318.5C784.054 319.1 783.754 319.5 783.288 319.7C782.821 319.833 782.088 319.9 781.088 319.9C774.288 319.9 770.888 317.333 770.888 312.2C770.888 310.133 771.354 308.167 772.288 306.3C773.288 304.433 774.721 302.833 776.588 301.5C778.521 300.1 780.921 299 783.788 298.2C786.654 297.4 789.988 297 793.788 297C801.188 297 806.554 298.533 809.888 301.6C813.221 304.667 814.888 309 814.888 314.6C814.888 315.333 814.788 316.667 814.588 318.6C814.454 320.467 814.254 322.467 813.988 324.6C813.788 326.667 813.588 328.633 813.388 330.5C813.254 332.367 813.188 333.667 813.188 334.4C813.188 336.067 813.488 337.267 814.088 338C814.688 338.667 815.354 339.133 816.088 339.4C816.888 339.667 817.588 339.867 818.188 340C818.788 340.133 819.088 340.467 819.088 341C819.088 342.467 818.888 343.967 818.488 345.5C818.088 347.033 817.421 348.433 816.488 349.7C815.621 350.967 814.388 352 812.788 352.8C811.254 353.6 809.354 354 807.088 354C803.888 354 801.488 353.233 799.888 351.7C798.288 350.167 797.221 348.033 796.688 345.3C795.088 347.633 792.988 349.667 790.388 351.4C787.854 353.133 784.521 354 780.388 354C778.388 354 776.488 353.767 774.688 353.3C772.954 352.833 771.421 352.067 770.088 351C768.821 349.933 767.788 348.567 766.988 346.9C766.254 345.167 765.888 343.1 765.888 340.7ZM796.988 329.3C795.254 329.3 793.554 329.433 791.888 329.7C790.221 329.967 788.721 330.4 787.388 331C786.121 331.533 785.088 332.267 784.288 333.2C783.488 334.133 783.088 335.267 783.088 336.6C783.088 338.133 783.554 339.2 784.488 339.8C785.488 340.4 786.554 340.7 787.688 340.7C788.754 340.7 789.821 340.467 790.888 340C791.954 339.533 792.888 338.833 793.688 337.9C794.554 336.9 795.288 335.7 795.888 334.3C796.488 332.9 796.854 331.233 796.988 329.3ZM872.735 344.9C872.735 345.233 872.569 345.9 872.235 346.9C871.902 347.9 871.369 348.933 870.635 350C869.902 351.067 868.969 352 867.835 352.8C866.769 353.6 865.469 354 863.935 354C862.135 354 860.335 353.4 858.535 352.2C856.802 351 855.069 349.367 853.335 347.3C851.602 345.233 849.835 342.8 848.035 340C846.302 337.133 844.535 334.033 842.735 330.7C842.469 334.233 842.202 337.7 841.935 341.1C841.669 344.5 841.402 347.8 841.135 351C841.069 351.8 840.902 352.333 840.635 352.6C840.369 352.867 839.802 353 838.935 353H835.335C833.269 353 831.569 352.8 830.235 352.4C828.902 351.933 827.869 351.3 827.135 350.5C826.402 349.7 825.869 348.7 825.535 347.5C825.269 346.233 825.135 344.8 825.135 343.2C825.135 342.4 825.169 341.567 825.235 340.7C825.302 339.833 825.402 338.6 825.535 337C825.669 335.4 825.835 333.3 826.035 330.7C826.302 328.1 826.602 324.667 826.935 320.4C827.269 316.133 827.635 310.9 828.035 304.7C828.502 298.433 829.002 290.833 829.535 281.9C829.602 280.433 829.769 279.567 830.035 279.3C830.235 279.1 830.769 279 831.635 279H835.535C837.602 279 839.302 279.233 840.635 279.7C841.969 280.167 843.035 280.8 843.835 281.6C844.635 282.4 845.169 283.333 845.435 284.4C845.769 285.467 845.935 286.567 845.935 287.7C845.935 288.367 845.869 289.5 845.735 291.1C845.669 292.633 845.569 294.533 845.435 296.8C845.302 299 845.102 301.5 844.835 304.3C844.635 307.1 844.435 310.033 844.235 313.1L860.235 298.5C860.835 297.967 861.369 297.6 861.835 297.4C862.369 297.2 862.769 297.1 863.035 297.1C863.769 297.1 864.569 297.567 865.435 298.5C866.302 299.433 867.102 300.533 867.835 301.8C868.635 303 869.269 304.267 869.735 305.6C870.269 306.867 870.535 307.9 870.535 308.7C870.535 310.633 868.969 312.667 865.835 314.8C862.769 316.933 858.102 319.333 851.835 322C854.635 325.133 857.302 328 859.835 330.6C862.369 333.2 864.569 335.5 866.435 337.5C868.369 339.5 869.902 341.133 871.035 342.4C872.169 343.667 872.735 344.5 872.735 344.9ZM897.626 340.7C897.626 334.7 900.326 330 905.726 326.6C911.126 323.2 919.093 321.367 929.626 321.1C929.693 320.367 929.726 319.767 929.726 319.3C929.793 318.767 929.826 318.133 929.826 317.4C929.826 315.267 929.426 313.567 928.626 312.3C927.826 311.033 926.159 310.4 923.626 310.4C922.226 310.4 921.093 310.6 920.226 311C919.359 311.4 918.659 311.967 918.126 312.7C917.593 313.367 917.159 314.2 916.826 315.2C916.493 316.2 916.193 317.3 915.926 318.5C915.793 319.1 915.493 319.5 915.026 319.7C914.559 319.833 913.826 319.9 912.826 319.9C906.026 319.9 902.626 317.333 902.626 312.2C902.626 310.133 903.093 308.167 904.026 306.3C905.026 304.433 906.459 302.833 908.326 301.5C910.259 300.1 912.659 299 915.526 298.2C918.393 297.4 921.726 297 925.526 297C932.926 297 938.293 298.533 941.626 301.6C944.959 304.667 946.626 309 946.626 314.6C946.626 315.333 946.526 316.667 946.326 318.6C946.193 320.467 945.993 322.467 945.726 324.6C945.526 326.667 945.326 328.633 945.126 330.5C944.993 332.367 944.926 333.667 944.926 334.4C944.926 336.067 945.226 337.267 945.826 338C946.426 338.667 947.093 339.133 947.826 339.4C948.626 339.667 949.326 339.867 949.926 340C950.526 340.133 950.826 340.467 950.826 341C950.826 342.467 950.626 343.967 950.226 345.5C949.826 347.033 949.159 348.433 948.226 349.7C947.359 350.967 946.126 352 944.526 352.8C942.993 353.6 941.093 354 938.826 354C935.626 354 933.226 353.233 931.626 351.7C930.026 350.167 928.959 348.033 928.426 345.3C926.826 347.633 924.726 349.667 922.126 351.4C919.593 353.133 916.259 354 912.126 354C910.126 354 908.226 353.767 906.426 353.3C904.693 352.833 903.159 352.067 901.826 351C900.559 349.933 899.526 348.567 898.726 346.9C897.993 345.167 897.626 343.1 897.626 340.7ZM928.726 329.3C926.993 329.3 925.293 329.433 923.626 329.7C921.959 329.967 920.459 330.4 919.126 331C917.859 331.533 916.826 332.267 916.026 333.2C915.226 334.133 914.826 335.267 914.826 336.6C914.826 338.133 915.293 339.2 916.226 339.8C917.226 340.4 918.293 340.7 919.426 340.7C920.493 340.7 921.559 340.467 922.626 340C923.693 339.533 924.626 338.833 925.426 337.9C926.293 336.9 927.026 335.7 927.626 334.3C928.226 332.9 928.593 331.233 928.726 329.3ZM975.274 354C972.674 354 970.174 353.533 967.774 352.6C965.44 351.667 963.374 350.2 961.574 348.2C959.84 346.2 958.44 343.667 957.374 340.6C956.374 337.533 955.874 333.833 955.874 329.5C955.874 327.567 956.007 325.433 956.274 323.1C956.54 320.7 957.007 318.3 957.674 315.9C958.34 313.5 959.274 311.167 960.474 308.9C961.674 306.633 963.174 304.633 964.974 302.9C966.84 301.1 969.04 299.667 971.574 298.6C974.174 297.533 977.207 297 980.674 297C984.007 297 986.674 297.6 988.674 298.8C990.74 299.933 992.04 301.933 992.574 304.8C992.707 302.2 992.84 299.933 992.974 298C993.107 296.067 993.207 294.267 993.274 292.6C993.407 290.933 993.54 289.267 993.674 287.6C993.807 285.933 993.94 284.033 994.074 281.9C994.14 280.433 994.307 279.567 994.574 279.3C994.707 279.167 994.874 279.1 995.074 279.1C995.274 279.033 995.64 279 996.174 279H1000.07C1002.07 279 1003.74 279.233 1005.07 279.7C1006.41 280.167 1007.47 280.8 1008.27 281.6C1009.07 282.4 1009.64 283.333 1009.97 284.4C1010.31 285.4 1010.47 286.467 1010.47 287.6C1010.47 287.6 1010.41 288.433 1010.27 290.1C1010.14 291.767 1009.97 294 1009.77 296.8C1009.57 299.533 1009.34 302.667 1009.07 306.2C1008.81 309.733 1008.54 313.4 1008.27 317.2C1008.01 320.933 1007.74 324.667 1007.47 328.4C1007.21 332.067 1006.94 335.467 1006.67 338.6C1006.41 341.667 1006.17 344.333 1005.97 346.6C1005.84 348.8 1005.74 350.267 1005.67 351C1005.54 351.8 1005.37 352.333 1005.17 352.6C1004.97 352.867 1004.41 353 1003.47 353H999.874C998.474 353 997.14 352.9 995.874 352.7C994.674 352.433 993.607 352.033 992.674 351.5C991.807 350.9 991.107 350.133 990.574 349.2C990.107 348.2 989.874 346.933 989.874 345.4C988.674 347.933 986.84 350 984.374 351.6C981.974 353.2 978.94 354 975.274 354ZM983.974 310.3C980.574 310.3 978.04 311.8 976.374 314.8C974.774 317.733 973.974 321.7 973.974 326.7C973.974 328.433 974.074 330.133 974.274 331.8C974.54 333.467 974.974 334.967 975.574 336.3C976.174 337.633 976.974 338.7 977.974 339.5C979.04 340.3 980.374 340.7 981.974 340.7C984.84 340.7 987.24 339.3 989.174 336.5C991.107 333.7 992.074 329.3 992.074 323.3C992.074 321.633 991.974 320.033 991.774 318.5C991.574 316.9 991.174 315.5 990.574 314.3C989.974 313.1 989.14 312.133 988.074 311.4C987.007 310.667 985.64 310.3 983.974 310.3ZM1014.81 340.7C1014.81 334.7 1017.51 330 1022.91 326.6C1028.31 323.2 1036.28 321.367 1046.81 321.1C1046.88 320.367 1046.91 319.767 1046.91 319.3C1046.98 318.767 1047.01 318.133 1047.01 317.4C1047.01 315.267 1046.61 313.567 1045.81 312.3C1045.01 311.033 1043.35 310.4 1040.81 310.4C1039.41 310.4 1038.28 310.6 1037.41 311C1036.55 311.4 1035.85 311.967 1035.31 312.7C1034.78 313.367 1034.35 314.2 1034.01 315.2C1033.68 316.2 1033.38 317.3 1033.11 318.5C1032.98 319.1 1032.68 319.5 1032.21 319.7C1031.75 319.833 1031.01 319.9 1030.01 319.9C1023.21 319.9 1019.81 317.333 1019.81 312.2C1019.81 310.133 1020.28 308.167 1021.21 306.3C1022.21 304.433 1023.65 302.833 1025.51 301.5C1027.45 300.1 1029.85 299 1032.71 298.2C1035.58 297.4 1038.91 297 1042.71 297C1050.11 297 1055.48 298.533 1058.81 301.6C1062.15 304.667 1063.81 309 1063.81 314.6C1063.81 315.333 1063.71 316.667 1063.51 318.6C1063.38 320.467 1063.18 322.467 1062.91 324.6C1062.71 326.667 1062.51 328.633 1062.31 330.5C1062.18 332.367 1062.11 333.667 1062.11 334.4C1062.11 336.067 1062.41 337.267 1063.01 338C1063.61 338.667 1064.28 339.133 1065.01 339.4C1065.81 339.667 1066.51 339.867 1067.11 340C1067.71 340.133 1068.01 340.467 1068.01 341C1068.01 342.467 1067.81 343.967 1067.41 345.5C1067.01 347.033 1066.35 348.433 1065.41 349.7C1064.55 350.967 1063.31 352 1061.71 352.8C1060.18 353.6 1058.28 354 1056.01 354C1052.81 354 1050.41 353.233 1048.81 351.7C1047.21 350.167 1046.15 348.033 1045.61 345.3C1044.01 347.633 1041.91 349.667 1039.31 351.4C1036.78 353.133 1033.45 354 1029.31 354C1027.31 354 1025.41 353.767 1023.61 353.3C1021.88 352.833 1020.35 352.067 1019.01 351C1017.75 349.933 1016.71 348.567 1015.91 346.9C1015.18 345.167 1014.81 343.1 1014.81 340.7ZM1045.91 329.3C1044.18 329.3 1042.48 329.433 1040.81 329.7C1039.15 329.967 1037.65 330.4 1036.31 331C1035.05 331.533 1034.01 332.267 1033.21 333.2C1032.41 334.133 1032.01 335.267 1032.01 336.6C1032.01 338.133 1032.48 339.2 1033.41 339.8C1034.41 340.4 1035.48 340.7 1036.61 340.7C1037.68 340.7 1038.75 340.467 1039.81 340C1040.88 339.533 1041.81 338.833 1042.61 337.9C1043.48 336.9 1044.21 335.7 1044.81 334.3C1045.41 332.9 1045.78 331.233 1045.91 329.3ZM1111.29 335C1111.09 338.067 1110.85 341 1110.59 343.8C1110.32 346.533 1110.12 348.933 1109.99 351C1109.92 351.8 1109.75 352.333 1109.49 352.6C1109.22 352.867 1108.65 353 1107.79 353H1104.19C1102.12 353 1100.42 352.8 1099.09 352.4C1097.82 351.933 1096.79 351.3 1095.99 350.5C1095.25 349.7 1094.72 348.733 1094.39 347.6C1094.12 346.4 1093.99 345.033 1093.99 343.5C1093.99 342.5 1094.02 341.1 1094.09 339.3C1094.22 337.433 1094.42 334.9 1094.69 331.7C1094.95 328.433 1095.25 324.333 1095.59 319.4C1095.99 314.4 1096.45 308.233 1096.99 300.9C1097.05 299.433 1097.22 298.567 1097.49 298.3C1097.69 298.1 1098.22 298 1099.09 298H1102.99C1104.99 298 1106.62 298.233 1107.89 298.7C1109.15 299.167 1110.19 299.767 1110.99 300.5C1111.79 301.233 1112.35 302.1 1112.69 303.1C1113.02 304.1 1113.22 305.133 1113.29 306.2C1115.22 302.6 1117.42 300.167 1119.89 298.9C1122.35 297.633 1125.25 297 1128.59 297C1130.39 297 1132.12 297.167 1133.79 297.5C1135.45 297.833 1136.95 298.4 1138.29 299.2C1139.62 300 1140.75 301.067 1141.69 302.4C1142.62 303.667 1143.29 305.3 1143.69 307.3C1145.75 303.433 1148.02 300.767 1150.49 299.3C1152.95 297.767 1156.05 297 1159.79 297C1161.85 297 1163.82 297.233 1165.69 297.7C1167.62 298.1 1169.29 298.833 1170.69 299.9C1172.09 300.967 1173.19 302.433 1173.99 304.3C1174.85 306.1 1175.29 308.367 1175.29 311.1C1175.29 313.167 1175.19 315.7 1174.99 318.7C1174.79 321.7 1174.55 324.967 1174.29 328.5C1174.02 331.967 1173.72 335.567 1173.39 339.3C1173.05 342.967 1172.79 346.5 1172.59 349.9C1172.52 350.633 1172.45 351.2 1172.39 351.6C1172.32 352 1172.19 352.3 1171.99 352.5C1171.85 352.7 1171.62 352.833 1171.29 352.9C1170.95 352.967 1170.49 353 1169.89 353H1166.69C1164.55 353 1162.82 352.8 1161.49 352.4C1160.15 352 1159.12 351.433 1158.39 350.7C1157.65 349.967 1157.12 349.067 1156.79 348C1156.52 346.867 1156.39 345.6 1156.39 344.2C1156.39 343.333 1156.42 342.1 1156.49 340.5C1156.62 338.9 1156.75 337.167 1156.89 335.3C1157.09 333.433 1157.25 331.5 1157.39 329.5C1157.59 327.5 1157.75 325.667 1157.89 324C1158.09 322.267 1158.22 320.767 1158.29 319.5C1158.42 318.233 1158.49 317.4 1158.49 317C1158.49 315.267 1158.12 313.733 1157.39 312.4C1156.72 311.067 1155.39 310.4 1153.39 310.4C1151.65 310.4 1150.15 310.967 1148.89 312.1C1147.62 313.233 1146.55 314.8 1145.69 316.8C1144.82 318.8 1144.12 321.167 1143.59 323.9C1143.05 326.633 1142.69 329.6 1142.49 332.8C1142.35 334.867 1142.19 337.233 1141.99 339.9C1141.79 342.567 1141.55 345.9 1141.29 349.9C1141.22 350.633 1141.15 351.2 1141.09 351.6C1141.02 352 1140.89 352.3 1140.69 352.5C1140.55 352.7 1140.32 352.833 1139.99 352.9C1139.65 352.967 1139.19 353 1138.59 353H1135.39C1133.25 353 1131.52 352.8 1130.19 352.4C1128.85 352 1127.82 351.433 1127.09 350.7C1126.35 349.967 1125.82 349.067 1125.49 348C1125.22 346.867 1125.09 345.6 1125.09 344.2C1125.09 342.867 1125.19 340.933 1125.39 338.4C1125.65 335.8 1125.89 333.133 1126.09 330.4C1126.35 327.6 1126.59 324.967 1126.79 322.5C1127.05 319.967 1127.19 318.133 1127.19 317C1127.19 315.267 1126.82 313.733 1126.09 312.4C1125.42 311.067 1124.09 310.4 1122.09 310.4C1120.29 310.4 1118.75 311.067 1117.49 312.4C1116.22 313.733 1115.15 315.533 1114.29 317.8C1113.49 320 1112.82 322.6 1112.29 325.6C1111.82 328.6 1111.49 331.733 1111.29 335ZM1203.32 306.5C1203.32 307.9 1203.19 309.867 1202.92 312.4C1202.72 314.933 1202.49 317.567 1202.22 320.3C1202.02 323.033 1201.79 325.6 1201.52 328C1201.32 330.4 1201.22 332.133 1201.22 333.2C1201.22 335.533 1201.79 337.367 1202.92 338.7C1204.12 339.967 1205.75 340.6 1207.82 340.6C1209.62 340.6 1211.12 339.9 1212.32 338.5C1213.59 337.033 1214.59 335.167 1215.32 332.9C1216.12 330.567 1216.75 327.933 1217.22 325C1217.69 322.067 1218.02 319.1 1218.22 316.1C1218.49 313.1 1218.69 310.2 1218.82 307.4C1219.02 304.533 1219.22 302.067 1219.42 300C1219.49 299.467 1219.69 299 1220.02 298.6C1220.35 298.2 1220.89 298 1221.62 298H1225.22C1227.29 298 1228.95 298.233 1230.22 298.7C1231.55 299.1 1232.59 299.7 1233.32 300.5C1234.12 301.3 1234.65 302.3 1234.92 303.5C1235.25 304.633 1235.42 305.967 1235.42 307.5C1235.42 308.5 1235.35 309.933 1235.22 311.8C1235.15 313.6 1234.99 316.133 1234.72 319.4C1234.45 322.6 1234.12 326.7 1233.72 331.7C1233.39 336.633 1232.95 342.767 1232.42 350.1C1232.29 351.5 1232.12 352.333 1231.92 352.6C1231.79 352.867 1231.25 353 1230.32 353H1226.42C1224.42 353 1222.75 352.767 1221.42 352.3C1220.15 351.833 1219.12 351.233 1218.32 350.5C1217.52 349.767 1216.95 348.9 1216.62 347.9C1216.29 346.9 1216.09 345.867 1216.02 344.8C1215.02 346.533 1213.89 348 1212.62 349.2C1211.42 350.4 1210.15 351.367 1208.82 352.1C1207.49 352.767 1206.12 353.233 1204.72 353.5C1203.32 353.833 1201.95 354 1200.62 354C1198.09 354 1195.82 353.6 1193.82 352.8C1191.82 351.933 1190.12 350.8 1188.72 349.4C1187.39 348 1186.35 346.333 1185.62 344.4C1184.89 342.467 1184.52 340.4 1184.52 338.2C1184.52 337.333 1184.55 335.933 1184.62 334C1184.75 332 1184.89 329.767 1185.02 327.3C1185.22 324.833 1185.42 322.233 1185.62 319.5C1185.82 316.7 1185.99 314.067 1186.12 311.6C1186.32 309.133 1186.49 306.967 1186.62 305.1C1186.82 303.233 1186.95 301.9 1187.02 301.1C1187.15 299.9 1187.42 299.1 1187.82 298.7C1188.22 298.233 1188.89 298 1189.82 298H1193.02C1195.09 298 1196.79 298.2 1198.12 298.6C1199.45 299 1200.49 299.567 1201.22 300.3C1202.02 301.033 1202.55 301.933 1202.82 303C1203.15 304 1203.32 305.167 1203.32 306.5ZM1276.48 321.9C1276.08 321.9 1275.61 321.9 1275.08 321.9C1274.61 321.833 1274.15 321.767 1273.68 321.7C1273.21 321.567 1272.81 321.433 1272.48 321.3C1272.15 321.1 1271.98 320.867 1271.98 320.6C1271.98 319.733 1272.01 318.933 1272.08 318.2C1272.15 317.467 1272.18 316.7 1272.18 315.9C1272.18 314.433 1271.98 313.233 1271.58 312.3C1271.18 311.367 1270.38 310.9 1269.18 310.9C1267.31 310.9 1265.75 312.133 1264.48 314.6C1263.28 317 1262.51 320.633 1262.18 325.5C1262.05 327.633 1261.85 330.067 1261.58 332.8C1261.38 335.467 1261.18 338.067 1260.98 340.6C1260.78 343.067 1260.61 345.267 1260.48 347.2C1260.35 349.133 1260.28 350.4 1260.28 351C1260.28 351.667 1260.05 352.167 1259.58 352.5C1259.11 352.833 1258.61 353 1258.08 353H1254.48C1252.41 353 1250.71 352.8 1249.38 352.4C1248.11 351.933 1247.08 351.3 1246.28 350.5C1245.55 349.7 1245.01 348.733 1244.68 347.6C1244.41 346.4 1244.28 345.033 1244.28 343.5C1244.28 342.5 1244.31 341.1 1244.38 339.3C1244.51 337.433 1244.71 334.9 1244.98 331.7C1245.25 328.433 1245.55 324.333 1245.88 319.4C1246.28 314.4 1246.75 308.233 1247.28 300.9C1247.41 298.967 1248.11 298 1249.38 298H1253.28C1255.15 298 1256.71 298.2 1257.98 298.6C1259.25 299 1260.28 299.567 1261.08 300.3C1261.88 300.967 1262.45 301.767 1262.78 302.7C1263.18 303.633 1263.45 304.6 1263.58 305.6C1264.38 304.067 1265.31 302.767 1266.38 301.7C1267.51 300.567 1268.68 299.667 1269.88 299C1271.08 298.267 1272.31 297.767 1273.58 297.5C1274.85 297.167 1276.01 297 1277.08 297C1278.35 297 1279.61 297.233 1280.88 297.7C1282.21 298.167 1283.41 298.867 1284.48 299.8C1285.55 300.733 1286.38 301.933 1286.98 303.4C1287.65 304.867 1287.98 306.6 1287.98 308.6C1287.98 310.4 1287.71 312.1 1287.18 313.7C1286.65 315.3 1285.88 316.733 1284.88 318C1283.88 319.2 1282.65 320.167 1281.18 320.9C1279.78 321.567 1278.21 321.9 1276.48 321.9ZM1302.33 353C1300.27 353 1298.57 352.8 1297.23 352.4C1295.97 351.933 1294.93 351.3 1294.13 350.5C1293.4 349.7 1292.87 348.733 1292.53 347.6C1292.27 346.4 1292.13 345.033 1292.13 343.5C1292.13 342.5 1292.17 341.1 1292.23 339.3C1292.37 337.433 1292.57 334.9 1292.83 331.7C1293.1 328.433 1293.4 324.333 1293.73 319.4C1294.13 314.4 1294.6 308.233 1295.13 300.9C1295.2 299.433 1295.37 298.567 1295.63 298.3C1295.83 298.1 1296.37 298 1297.23 298H1301.13C1303.2 298 1304.87 298.2 1306.13 298.6C1307.47 299 1308.5 299.6 1309.23 300.4C1310.03 301.2 1310.57 302.167 1310.83 303.3C1311.17 304.433 1311.33 305.7 1311.33 307.1C1311.33 308.1 1311.27 309.6 1311.13 311.6C1311 313.6 1310.8 316.333 1310.53 319.8C1310.33 323.2 1310.03 327.467 1309.63 332.6C1309.23 337.667 1308.73 343.8 1308.13 351C1308.07 351.8 1307.9 352.333 1307.63 352.6C1307.37 352.867 1306.8 353 1305.93 353H1302.33ZM1295.23 286.2C1295.23 283.533 1296.2 281.433 1298.13 279.9C1300.07 278.367 1302.67 277.6 1305.93 277.6C1308.8 277.6 1310.87 278.2 1312.13 279.4C1313.47 280.533 1314.13 282.067 1314.13 284C1314.13 286.467 1313.2 288.533 1311.33 290.2C1309.53 291.8 1306.87 292.6 1303.33 292.6C1297.93 292.6 1295.23 290.467 1295.23 286.2ZM1338.46 354C1335.86 354 1333.36 353.533 1330.96 352.6C1328.62 351.667 1326.56 350.2 1324.76 348.2C1323.02 346.2 1321.62 343.667 1320.56 340.6C1319.56 337.533 1319.06 333.833 1319.06 329.5C1319.06 327.567 1319.19 325.433 1319.46 323.1C1319.72 320.7 1320.19 318.3 1320.86 315.9C1321.52 313.5 1322.46 311.167 1323.66 308.9C1324.86 306.633 1326.36 304.633 1328.16 302.9C1330.02 301.1 1332.22 299.667 1334.76 298.6C1337.36 297.533 1340.39 297 1343.86 297C1347.19 297 1349.86 297.6 1351.86 298.8C1353.92 299.933 1355.22 301.933 1355.76 304.8C1355.89 302.2 1356.02 299.933 1356.16 298C1356.29 296.067 1356.39 294.267 1356.46 292.6C1356.59 290.933 1356.72 289.267 1356.86 287.6C1356.99 285.933 1357.12 284.033 1357.26 281.9C1357.32 280.433 1357.49 279.567 1357.76 279.3C1357.89 279.167 1358.06 279.1 1358.26 279.1C1358.46 279.033 1358.82 279 1359.36 279H1363.26C1365.26 279 1366.92 279.233 1368.26 279.7C1369.59 280.167 1370.66 280.8 1371.46 281.6C1372.26 282.4 1372.82 283.333 1373.16 284.4C1373.49 285.4 1373.66 286.467 1373.66 287.6C1373.66 287.6 1373.59 288.433 1373.46 290.1C1373.32 291.767 1373.16 294 1372.96 296.8C1372.76 299.533 1372.52 302.667 1372.26 306.2C1371.99 309.733 1371.72 313.4 1371.46 317.2C1371.19 320.933 1370.92 324.667 1370.66 328.4C1370.39 332.067 1370.12 335.467 1369.86 338.6C1369.59 341.667 1369.36 344.333 1369.16 346.6C1369.02 348.8 1368.92 350.267 1368.86 351C1368.72 351.8 1368.56 352.333 1368.36 352.6C1368.16 352.867 1367.59 353 1366.66 353H1363.06C1361.66 353 1360.32 352.9 1359.06 352.7C1357.86 352.433 1356.79 352.033 1355.86 351.5C1354.99 350.9 1354.29 350.133 1353.76 349.2C1353.29 348.2 1353.06 346.933 1353.06 345.4C1351.86 347.933 1350.02 350 1347.56 351.6C1345.16 353.2 1342.12 354 1338.46 354ZM1347.16 310.3C1343.76 310.3 1341.22 311.8 1339.56 314.8C1337.96 317.733 1337.16 321.7 1337.16 326.7C1337.16 328.433 1337.26 330.133 1337.46 331.8C1337.72 333.467 1338.16 334.967 1338.76 336.3C1339.36 337.633 1340.16 338.7 1341.16 339.5C1342.22 340.3 1343.56 340.7 1345.16 340.7C1348.02 340.7 1350.42 339.3 1352.36 336.5C1354.29 333.7 1355.26 329.3 1355.26 323.3C1355.26 321.633 1355.16 320.033 1354.96 318.5C1354.76 316.9 1354.36 315.5 1353.76 314.3C1353.16 313.1 1352.32 312.133 1351.26 311.4C1350.19 310.667 1348.82 310.3 1347.16 310.3ZM1420.78 354C1418.18 354 1415.68 353.533 1413.28 352.6C1410.95 351.667 1408.88 350.2 1407.08 348.2C1405.35 346.2 1403.95 343.667 1402.88 340.6C1401.88 337.533 1401.38 333.833 1401.38 329.5C1401.38 327.567 1401.51 325.433 1401.78 323.1C1402.05 320.7 1402.51 318.3 1403.18 315.9C1403.85 313.5 1404.78 311.167 1405.98 308.9C1407.18 306.633 1408.68 304.633 1410.48 302.9C1412.35 301.1 1414.55 299.667 1417.08 298.6C1419.68 297.533 1422.71 297 1426.18 297C1429.51 297 1432.18 297.6 1434.18 298.8C1436.25 299.933 1437.55 301.933 1438.08 304.8C1438.21 302.2 1438.35 299.933 1438.48 298C1438.61 296.067 1438.71 294.267 1438.78 292.6C1438.91 290.933 1439.05 289.267 1439.18 287.6C1439.31 285.933 1439.45 284.033 1439.58 281.9C1439.65 280.433 1439.81 279.567 1440.08 279.3C1440.21 279.167 1440.38 279.1 1440.58 279.1C1440.78 279.033 1441.15 279 1441.68 279H1445.58C1447.58 279 1449.25 279.233 1450.58 279.7C1451.91 280.167 1452.98 280.8 1453.78 281.6C1454.58 282.4 1455.15 283.333 1455.48 284.4C1455.81 285.4 1455.98 286.467 1455.98 287.6C1455.98 287.6 1455.91 288.433 1455.78 290.1C1455.65 291.767 1455.48 294 1455.28 296.8C1455.08 299.533 1454.85 302.667 1454.58 306.2C1454.31 309.733 1454.05 313.4 1453.78 317.2C1453.51 320.933 1453.25 324.667 1452.98 328.4C1452.71 332.067 1452.45 335.467 1452.18 338.6C1451.91 341.667 1451.68 344.333 1451.48 346.6C1451.35 348.8 1451.25 350.267 1451.18 351C1451.05 351.8 1450.88 352.333 1450.68 352.6C1450.48 352.867 1449.91 353 1448.98 353H1445.38C1443.98 353 1442.65 352.9 1441.38 352.7C1440.18 352.433 1439.11 352.033 1438.18 351.5C1437.31 350.9 1436.61 350.133 1436.08 349.2C1435.61 348.2 1435.38 346.933 1435.38 345.4C1434.18 347.933 1432.35 350 1429.88 351.6C1427.48 353.2 1424.45 354 1420.78 354ZM1429.48 310.3C1426.08 310.3 1423.55 311.8 1421.88 314.8C1420.28 317.733 1419.48 321.7 1419.48 326.7C1419.48 328.433 1419.58 330.133 1419.78 331.8C1420.05 333.467 1420.48 334.967 1421.08 336.3C1421.68 337.633 1422.48 338.7 1423.48 339.5C1424.55 340.3 1425.88 340.7 1427.48 340.7C1430.35 340.7 1432.75 339.3 1434.68 336.5C1436.61 333.7 1437.58 329.3 1437.58 323.3C1437.58 321.633 1437.48 320.033 1437.28 318.5C1437.08 316.9 1436.68 315.5 1436.08 314.3C1435.48 313.1 1434.65 312.133 1433.58 311.4C1432.51 310.667 1431.15 310.3 1429.48 310.3ZM1473.62 353C1471.55 353 1469.85 352.8 1468.52 352.4C1467.25 351.933 1466.22 351.3 1465.42 350.5C1464.69 349.7 1464.15 348.733 1463.82 347.6C1463.55 346.4 1463.42 345.033 1463.42 343.5C1463.42 342.5 1463.45 341.1 1463.52 339.3C1463.65 337.433 1463.85 334.9 1464.12 331.7C1464.39 328.433 1464.69 324.333 1465.02 319.4C1465.42 314.4 1465.89 308.233 1466.42 300.9C1466.49 299.433 1466.65 298.567 1466.92 298.3C1467.12 298.1 1467.65 298 1468.52 298H1472.42C1474.49 298 1476.15 298.2 1477.42 298.6C1478.75 299 1479.79 299.6 1480.52 300.4C1481.32 301.2 1481.85 302.167 1482.12 303.3C1482.45 304.433 1482.62 305.7 1482.62 307.1C1482.62 308.1 1482.55 309.6 1482.42 311.6C1482.29 313.6 1482.09 316.333 1481.82 319.8C1481.62 323.2 1481.32 327.467 1480.92 332.6C1480.52 337.667 1480.02 343.8 1479.42 351C1479.35 351.8 1479.19 352.333 1478.92 352.6C1478.65 352.867 1478.09 353 1477.22 353H1473.62ZM1466.52 286.2C1466.52 283.533 1467.49 281.433 1469.42 279.9C1471.35 278.367 1473.95 277.6 1477.22 277.6C1480.09 277.6 1482.15 278.2 1483.42 279.4C1484.75 280.533 1485.42 282.067 1485.42 284C1485.42 286.467 1484.49 288.533 1482.62 290.2C1480.82 291.8 1478.15 292.6 1474.62 292.6C1469.22 292.6 1466.52 290.467 1466.52 286.2ZM916.485 464.9C916.485 465.233 916.319 465.9 915.985 466.9C915.652 467.9 915.119 468.933 914.385 470C913.652 471.067 912.719 472 911.585 472.8C910.519 473.6 909.219 474 907.685 474C905.885 474 904.085 473.4 902.285 472.2C900.552 471 898.819 469.367 897.085 467.3C895.352 465.233 893.585 462.8 891.785 460C890.052 457.133 888.285 454.033 886.485 450.7C886.219 454.233 885.952 457.7 885.685 461.1C885.419 464.5 885.152 467.8 884.885 471C884.819 471.8 884.652 472.333 884.385 472.6C884.119 472.867 883.552 473 882.685 473H879.085C877.019 473 875.319 472.8 873.985 472.4C872.652 471.933 871.619 471.3 870.885 470.5C870.152 469.7 869.619 468.7 869.285 467.5C869.019 466.233 868.885 464.8 868.885 463.2C868.885 462.4 868.919 461.567 868.985 460.7C869.052 459.833 869.152 458.6 869.285 457C869.419 455.4 869.585 453.3 869.785 450.7C870.052 448.1 870.352 444.667 870.685 440.4C871.019 436.133 871.385 430.9 871.785 424.7C872.252 418.433 872.752 410.833 873.285 401.9C873.352 400.433 873.519 399.567 873.785 399.3C873.985 399.1 874.519 399 875.385 399H879.285C881.352 399 883.052 399.233 884.385 399.7C885.719 400.167 886.785 400.8 887.585 401.6C888.385 402.4 888.919 403.333 889.185 404.4C889.519 405.467 889.685 406.567 889.685 407.7C889.685 408.367 889.619 409.5 889.485 411.1C889.419 412.633 889.319 414.533 889.185 416.8C889.052 419 888.852 421.5 888.585 424.3C888.385 427.1 888.185 430.033 887.985 433.1L903.985 418.5C904.585 417.967 905.119 417.6 905.585 417.4C906.119 417.2 906.519 417.1 906.785 417.1C907.519 417.1 908.319 417.567 909.185 418.5C910.052 419.433 910.852 420.533 911.585 421.8C912.385 423 913.019 424.267 913.485 425.6C914.019 426.867 914.285 427.9 914.285 428.7C914.285 430.633 912.719 432.667 909.585 434.8C906.519 436.933 901.852 439.333 895.585 442C898.385 445.133 901.052 448 903.585 450.6C906.119 453.2 908.319 455.5 910.185 457.5C912.119 459.5 913.652 461.133 914.785 462.4C915.919 463.667 916.485 464.5 916.485 464.9ZM944.722 474C941.789 474 938.855 473.633 935.922 472.9C933.055 472.167 930.455 470.9 928.122 469.1C925.855 467.3 923.989 464.9 922.522 461.9C921.055 458.9 920.322 455.133 920.322 450.6C920.322 448.933 920.455 446.933 920.722 444.6C920.989 442.267 921.489 439.867 922.222 437.4C923.022 434.933 924.089 432.5 925.422 430.1C926.822 427.633 928.622 425.433 930.822 423.5C933.022 421.567 935.689 420 938.822 418.8C941.955 417.6 945.689 417 950.022 417C953.489 417 956.422 417.4 958.822 418.2C961.222 419 963.155 420.1 964.622 421.5C966.089 422.833 967.155 424.4 967.822 426.2C968.489 428 968.822 429.933 968.822 432C968.822 435.067 968.189 437.667 966.922 439.8C965.722 441.933 964.122 443.733 962.122 445.2C960.189 446.6 958.022 447.7 955.622 448.5C953.222 449.3 950.855 449.933 948.522 450.4C946.189 450.8 944.022 451.067 942.022 451.2C940.089 451.267 938.589 451.3 937.522 451.3C937.522 452.567 937.689 453.833 938.022 455.1C938.422 456.3 938.989 457.367 939.722 458.3C940.455 459.233 941.422 460 942.622 460.6C943.822 461.2 945.289 461.5 947.022 461.5C948.755 461.5 950.089 461.233 951.022 460.7C952.022 460.1 952.822 459.467 953.422 458.8C954.022 458.067 954.522 457.433 954.922 456.9C955.389 456.3 955.989 456 956.722 456C957.055 456 957.622 456.1 958.422 456.3C959.289 456.433 960.155 456.767 961.022 457.3C961.889 457.833 962.655 458.567 963.322 459.5C963.989 460.433 964.322 461.633 964.322 463.1C964.322 465.033 963.722 466.7 962.522 468.1C961.322 469.5 959.755 470.633 957.822 471.5C955.955 472.367 953.855 473 951.522 473.4C949.189 473.8 946.922 474 944.722 474ZM946.622 430.3C945.155 430.3 943.889 430.733 942.822 431.6C941.822 432.4 940.955 433.433 940.222 434.7C939.555 435.967 939.022 437.367 938.622 438.9C938.289 440.433 938.022 441.9 937.822 443.3C941.955 443.233 945.289 442.533 947.822 441.2C950.422 439.867 951.722 437.967 951.722 435.5C951.722 434.167 951.289 432.967 950.422 431.9C949.622 430.833 948.355 430.3 946.622 430.3ZM986.445 473.9C982.311 473.9 979.345 472.8 977.545 470.6C975.745 468.4 974.845 464.767 974.845 459.7C974.845 458.9 974.878 457.9 974.945 456.7C975.078 455.5 975.211 453.967 975.345 452.1C975.545 450.167 975.778 447.8 976.045 445C976.311 442.2 976.578 438.8 976.845 434.8C977.178 430.8 977.511 426.1 977.845 420.7C978.245 415.3 978.645 409.033 979.045 401.9C979.111 400.433 979.278 399.567 979.545 399.3C979.745 399.1 980.278 399 981.145 399H985.045C987.045 399 988.711 399.233 990.045 399.7C991.378 400.167 992.445 400.8 993.245 401.6C994.045 402.4 994.611 403.333 994.945 404.4C995.278 405.4 995.445 406.467 995.445 407.6C995.445 408.933 995.345 410.867 995.145 413.4C995.011 415.867 994.811 418.667 994.545 421.8C994.278 424.933 994.011 428.2 993.745 431.6C993.478 435 993.211 438.267 992.945 441.4C992.678 444.467 992.445 447.233 992.245 449.7C992.111 452.167 992.045 454.033 992.045 455.3C992.045 457.033 992.345 458.267 992.945 459C993.611 459.733 994.311 460.267 995.045 460.6C995.778 460.867 996.445 461.067 997.045 461.2C997.711 461.267 998.045 461.467 998.045 461.8C998.045 463.267 997.878 464.733 997.545 466.2C997.211 467.6 996.611 468.9 995.745 470.1C994.878 471.233 993.678 472.167 992.145 472.9C990.678 473.567 988.778 473.9 986.445 473.9ZM1002.02 460.7C1002.02 454.7 1004.72 450 1010.12 446.6C1015.52 443.2 1023.49 441.367 1034.02 441.1C1034.09 440.367 1034.12 439.767 1034.12 439.3C1034.19 438.767 1034.22 438.133 1034.22 437.4C1034.22 435.267 1033.82 433.567 1033.02 432.3C1032.22 431.033 1030.55 430.4 1028.02 430.4C1026.62 430.4 1025.49 430.6 1024.62 431C1023.75 431.4 1023.05 431.967 1022.52 432.7C1021.99 433.367 1021.55 434.2 1021.22 435.2C1020.89 436.2 1020.59 437.3 1020.32 438.5C1020.19 439.1 1019.89 439.5 1019.42 439.7C1018.95 439.833 1018.22 439.9 1017.22 439.9C1010.42 439.9 1007.02 437.333 1007.02 432.2C1007.02 430.133 1007.49 428.167 1008.42 426.3C1009.42 424.433 1010.85 422.833 1012.72 421.5C1014.65 420.1 1017.05 419 1019.92 418.2C1022.79 417.4 1026.12 417 1029.92 417C1037.32 417 1042.69 418.533 1046.02 421.6C1049.35 424.667 1051.02 429 1051.02 434.6C1051.02 435.333 1050.92 436.667 1050.72 438.6C1050.59 440.467 1050.39 442.467 1050.12 444.6C1049.92 446.667 1049.72 448.633 1049.52 450.5C1049.39 452.367 1049.32 453.667 1049.32 454.4C1049.32 456.067 1049.62 457.267 1050.22 458C1050.82 458.667 1051.49 459.133 1052.22 459.4C1053.02 459.667 1053.72 459.867 1054.32 460C1054.92 460.133 1055.22 460.467 1055.22 461C1055.22 462.467 1055.02 463.967 1054.62 465.5C1054.22 467.033 1053.55 468.433 1052.62 469.7C1051.75 470.967 1050.52 472 1048.92 472.8C1047.39 473.6 1045.49 474 1043.22 474C1040.02 474 1037.62 473.233 1036.02 471.7C1034.42 470.167 1033.35 468.033 1032.82 465.3C1031.22 467.633 1029.12 469.667 1026.52 471.4C1023.99 473.133 1020.65 474 1016.52 474C1014.52 474 1012.62 473.767 1010.82 473.3C1009.09 472.833 1007.55 472.067 1006.22 471C1004.95 469.933 1003.92 468.567 1003.12 466.9C1002.39 465.167 1002.02 463.1 1002.02 460.7ZM1033.12 449.3C1031.39 449.3 1029.69 449.433 1028.02 449.7C1026.35 449.967 1024.85 450.4 1023.52 451C1022.25 451.533 1021.22 452.267 1020.42 453.2C1019.62 454.133 1019.22 455.267 1019.22 456.6C1019.22 458.133 1019.69 459.2 1020.62 459.8C1021.62 460.4 1022.69 460.7 1023.82 460.7C1024.89 460.7 1025.95 460.467 1027.02 460C1028.09 459.533 1029.02 458.833 1029.82 457.9C1030.69 456.9 1031.42 455.7 1032.02 454.3C1032.62 452.9 1032.99 451.233 1033.12 449.3ZM1084.67 417C1090.33 417 1094.5 418.133 1097.17 420.4C1099.83 422.6 1101.17 425.433 1101.17 428.9C1101.17 431.833 1100.23 434.067 1098.37 435.6C1096.57 437.133 1093.93 437.9 1090.47 437.9C1089.53 437.9 1088.9 437.8 1088.57 437.6C1088.23 437.4 1088.07 437.033 1088.07 436.5C1088.07 435.9 1088 435.233 1087.87 434.5C1087.8 433.7 1087.57 432.967 1087.17 432.3C1086.83 431.567 1086.27 430.967 1085.47 430.5C1084.73 430.033 1083.67 429.8 1082.27 429.8C1080.4 429.8 1078.9 430.267 1077.77 431.2C1076.63 432.067 1076.07 433.167 1076.07 434.5C1076.07 435.9 1076.63 437.033 1077.77 437.9C1078.97 438.7 1080.43 439.467 1082.17 440.2C1083.97 440.933 1085.9 441.7 1087.97 442.5C1090.03 443.233 1091.93 444.233 1093.67 445.5C1095.47 446.767 1096.93 448.367 1098.07 450.3C1099.27 452.167 1099.87 454.6 1099.87 457.6C1099.87 462.4 1098.17 466.333 1094.77 469.4C1091.37 472.467 1086.27 474 1079.47 474C1077.6 474 1075.43 473.833 1072.97 473.5C1070.57 473.233 1068.27 472.8 1066.07 472.2C1063.87 471.533 1062 470.667 1060.47 469.6C1059 468.533 1058.27 467.2 1058.27 465.6C1058.27 465 1058.37 464.267 1058.57 463.4C1058.83 462.533 1059.2 461.7 1059.67 460.9C1060.2 460.1 1060.8 459.433 1061.47 458.9C1062.2 458.3 1063.07 458 1064.07 458C1064.87 458 1065.6 458.2 1066.27 458.6C1066.93 459 1067.7 459.433 1068.57 459.9C1069.5 460.3 1070.63 460.7 1071.97 461.1C1073.3 461.5 1075.07 461.7 1077.27 461.7C1078.93 461.7 1080.4 461.5 1081.67 461.1C1083 460.7 1083.67 459.8 1083.67 458.4C1083.67 457.133 1083.13 456.133 1082.07 455.4C1081 454.6 1079.63 453.867 1077.97 453.2C1076.37 452.533 1074.6 451.833 1072.67 451.1C1070.8 450.3 1069.03 449.267 1067.37 448C1065.77 446.733 1064.43 445.133 1063.37 443.2C1062.3 441.2 1061.77 438.633 1061.77 435.5C1061.77 432.1 1062.43 429.233 1063.77 426.9C1065.17 424.5 1066.93 422.567 1069.07 421.1C1071.27 419.633 1073.73 418.6 1076.47 418C1079.2 417.333 1081.93 417 1084.67 417ZM1140.13 473C1138.06 473 1136.36 472.8 1135.03 472.4C1133.76 471.933 1132.73 471.3 1131.93 470.5C1131.19 469.7 1130.66 468.733 1130.33 467.6C1130.06 466.4 1129.93 465.033 1129.93 463.5C1129.93 462.5 1129.96 461.1 1130.03 459.3C1130.16 457.433 1130.36 454.9 1130.63 451.7C1130.89 448.433 1131.19 444.333 1131.53 439.4C1131.93 434.4 1132.39 428.233 1132.93 420.9C1132.99 419.433 1133.16 418.567 1133.43 418.3C1133.63 418.1 1134.16 418 1135.03 418H1138.93C1140.99 418 1142.66 418.2 1143.93 418.6C1145.26 419 1146.29 419.6 1147.03 420.4C1147.83 421.2 1148.36 422.167 1148.63 423.3C1148.96 424.433 1149.13 425.7 1149.13 427.1C1149.13 428.1 1149.06 429.6 1148.93 431.6C1148.79 433.6 1148.59 436.333 1148.33 439.8C1148.13 443.2 1147.83 447.467 1147.43 452.6C1147.03 457.667 1146.53 463.8 1145.93 471C1145.86 471.8 1145.69 472.333 1145.43 472.6C1145.16 472.867 1144.59 473 1143.73 473H1140.13ZM1133.03 406.2C1133.03 403.533 1133.99 401.433 1135.93 399.9C1137.86 398.367 1140.46 397.6 1143.73 397.6C1146.59 397.6 1148.66 398.2 1149.93 399.4C1151.26 400.533 1151.93 402.067 1151.93 404C1151.93 406.467 1150.99 408.533 1149.13 410.2C1147.33 411.8 1144.66 412.6 1141.13 412.6C1135.73 412.6 1133.03 410.467 1133.03 406.2ZM1192.05 464.2C1192.05 462.733 1192.15 460.833 1192.35 458.5C1192.62 456.1 1192.85 453.6 1193.05 451C1193.32 448.333 1193.55 445.767 1193.75 443.3C1194.02 440.833 1194.15 438.767 1194.15 437.1C1194.15 435.367 1193.72 433.833 1192.85 432.5C1192.05 431.1 1190.45 430.4 1188.05 430.4C1185.72 430.4 1183.78 430.967 1182.25 432.1C1180.72 433.233 1179.42 435.3 1178.35 438.3C1177.35 441.3 1176.52 445.433 1175.85 450.7C1175.18 455.967 1174.55 462.733 1173.95 471C1173.88 471.8 1173.72 472.333 1173.45 472.6C1173.18 472.867 1172.62 473 1171.75 473H1168.15C1166.08 473 1164.38 472.8 1163.05 472.4C1161.78 471.933 1160.75 471.3 1159.95 470.5C1159.22 469.7 1158.68 468.733 1158.35 467.6C1158.08 466.4 1157.95 465.033 1157.95 463.5C1157.95 462.5 1157.98 461.1 1158.05 459.3C1158.18 457.433 1158.38 454.9 1158.65 451.7C1158.92 448.433 1159.22 444.333 1159.55 439.4C1159.95 434.4 1160.42 428.233 1160.95 420.9C1161.02 419.433 1161.18 418.567 1161.45 418.3C1161.65 418.1 1162.18 418 1163.05 418H1166.95C1168.95 418 1170.58 418.233 1171.85 418.7C1173.18 419.167 1174.25 419.8 1175.05 420.6C1175.85 421.333 1176.42 422.233 1176.75 423.3C1177.08 424.3 1177.28 425.333 1177.35 426.4C1179.42 422.867 1181.78 420.433 1184.45 419.1C1187.12 417.7 1190.45 417 1194.45 417C1197.25 417 1199.68 417.3 1201.75 417.9C1203.82 418.5 1205.52 419.533 1206.85 421C1208.25 422.4 1209.28 424.267 1209.95 426.6C1210.62 428.867 1210.95 431.7 1210.95 435.1C1210.95 436.167 1210.88 437.7 1210.75 439.7C1210.62 441.7 1210.45 443.9 1210.25 446.3C1210.05 448.633 1209.82 451.1 1209.55 453.7C1209.35 456.233 1209.15 458.6 1208.95 460.8C1208.75 463 1208.58 464.933 1208.45 466.6C1208.32 468.267 1208.25 469.367 1208.25 469.9C1208.25 471.367 1208.08 472.267 1207.75 472.6C1207.42 472.867 1206.68 473 1205.55 473H1202.35C1200.22 473 1198.48 472.8 1197.15 472.4C1195.82 472 1194.78 471.433 1194.05 470.7C1193.32 469.967 1192.78 469.067 1192.45 468C1192.18 466.867 1192.05 465.6 1192.05 464.2ZM1230.16 473C1228.1 473 1226.4 472.8 1225.06 472.4C1223.8 471.933 1222.76 471.3 1221.96 470.5C1221.23 469.7 1220.7 468.733 1220.36 467.6C1220.1 466.4 1219.96 465.033 1219.96 463.5C1219.96 462.5 1220 461.1 1220.06 459.3C1220.2 457.433 1220.4 454.9 1220.66 451.7C1220.93 448.433 1221.23 444.333 1221.56 439.4C1221.96 434.4 1222.43 428.233 1222.96 420.9C1223.03 419.433 1223.2 418.567 1223.46 418.3C1223.66 418.1 1224.2 418 1225.06 418H1228.96C1231.03 418 1232.7 418.2 1233.96 418.6C1235.3 419 1236.33 419.6 1237.06 420.4C1237.86 421.2 1238.4 422.167 1238.66 423.3C1239 424.433 1239.16 425.7 1239.16 427.1C1239.16 428.1 1239.1 429.6 1238.96 431.6C1238.83 433.6 1238.63 436.333 1238.36 439.8C1238.16 443.2 1237.86 447.467 1237.46 452.6C1237.06 457.667 1236.56 463.8 1235.96 471C1235.9 471.8 1235.73 472.333 1235.46 472.6C1235.2 472.867 1234.63 473 1233.76 473H1230.16ZM1223.06 406.2C1223.06 403.533 1224.03 401.433 1225.96 399.9C1227.9 398.367 1230.5 397.6 1233.76 397.6C1236.63 397.6 1238.7 398.2 1239.96 399.4C1241.3 400.533 1241.96 402.067 1241.96 404C1241.96 406.467 1241.03 408.533 1239.16 410.2C1237.36 411.8 1234.7 412.6 1231.16 412.6C1225.76 412.6 1223.06 410.467 1223.06 406.2Z" fill="#6614BE"/>
<g filter="url(#filter1_d_1294_80)">
<path d="M1440.73 817.478C1430.57 845.602 1405.69 846.525 1367.61 855.533C1367 855.677 1366.36 855.753 1365.74 855.75C1329.93 855.575 1300.51 845.417 1300.51 817.478C1300.51 789.293 1320.87 778.494 1359.59 778.494C1398.31 778.494 1440.73 789.293 1440.73 817.478Z" fill="#FAFAFA"/>
</g>
<g filter="url(#filter2_d_1294_80)">
<path d="M1449.22 689.983C1439.06 718.108 1414.18 719.031 1376.1 728.039C1375.49 728.183 1374.85 728.259 1374.23 728.256C1338.42 728.081 1309 717.923 1309 689.983C1309 661.799 1329.36 651 1368.08 651C1406.8 651 1449.22 661.799 1449.22 689.983Z" fill="#FAFAFA"/>
</g>
<g filter="url(#filter3_d_1294_80)">
<path d="M1338.32 945.06C1328.16 973.184 1303.27 974.107 1265.19 983.115C1264.59 983.259 1263.95 983.335 1263.33 983.332C1227.51 983.157 1198.1 972.999 1198.1 945.06C1198.1 916.875 1218.46 906.076 1257.18 906.076C1295.9 906.076 1338.32 916.875 1338.32 945.06Z" fill="#FAFAFA"/>
</g>
<path d="M1164.07 1372.17C1151.35 1364.53 1162.4 1367.46 1143.91 1397.81C1134.45 1436.7 1131.97 1450.97 1161.42 1473.06C1193.37 1468.7 1191.93 1456.58 1188.06 1411.28C1184.67 1371.61 1176.79 1379.82 1164.07 1372.17Z" fill="#57DFD7"/>
<path d="M907.054 1373.5C894.334 1365.86 905.386 1368.79 886.898 1399.14C877.432 1438.03 874.957 1452.3 904.408 1474.39C936.352 1470.03 934.91 1457.9 931.045 1412.61C927.659 1372.94 919.773 1381.14 907.054 1373.5Z" fill="#57DFD7"/>
<path d="M807.767 1290.69C802.546 1290.97 797.115 1293.74 791.112 1301.1C789.15 1317.87 794.299 1342.9 813.929 1361.69C833.609 1380.52 868.186 1393.38 925.722 1384.8C929.307 1379.27 932.998 1373.79 936.62 1368.41L936.681 1368.32C940.453 1362.72 944.149 1357.23 947.595 1351.9C954.539 1341.14 960.386 1331.12 963.739 1322.19C967.104 1313.23 967.809 1305.75 965.038 1299.84C962.302 1294.01 955.896 1289.11 943.61 1285.92C930.024 1285.08 922.633 1287.83 918.184 1291.79C913.633 1295.84 911.776 1301.44 909.906 1307.34C909.856 1307.5 909.805 1307.66 909.755 1307.82C908.01 1313.34 906.111 1319.34 901.131 1322.89C895.892 1326.62 887.877 1327.27 874.836 1323.77C864.398 1320.96 855.327 1316.15 847.247 1311.08C843.409 1308.67 839.775 1306.19 836.331 1303.84C836.152 1303.72 835.974 1303.6 835.796 1303.47C832.179 1301.01 828.786 1298.71 825.521 1296.74C818.942 1292.78 813.222 1290.4 807.767 1290.69Z" fill="white" stroke="black" stroke-width="4"/>
<path d="M1169.72 1318.18C1176.56 1340.36 1179.88 1364.64 1180.72 1375.02C1180.54 1375.13 1180.32 1375.28 1180.13 1375.51C1180.05 1375.61 1179.98 1375.72 1179.91 1375.84C1179.34 1375.98 1178.59 1376.14 1177.6 1376.33C1174.69 1376.88 1169.9 1377.61 1162.12 1378.53C1145.26 1379.46 1129.91 1376.78 1118.72 1371.79C1107.41 1366.76 1100.9 1359.65 1100.47 1351.98C1099.98 1343.34 1100.65 1324.19 1105.66 1307.05C1110.72 1289.72 1119.84 1275.53 1135.55 1274.66C1143.12 1274.24 1149.74 1278.78 1155.54 1286.88C1161.33 1294.95 1166.02 1306.18 1169.72 1318.18Z" fill="#00FFC5" stroke="black" stroke-width="4"/>
<path d="M1159.25 1372.97C1151.03 1420.13 1137.89 1462.45 1113.71 1493.84C1089.62 1525.12 1054.41 1545.76 1001.49 1549.32C1000.86 1549.36 1000.18 1549.28 999.566 1549.1C949.1 1533.84 922.113 1511.66 906.193 1481.44C890.146 1450.98 885.178 1412.11 879.494 1362.91C879.456 1362.58 879.445 1362.27 879.46 1361.93C879.562 1359.64 879.529 1356.87 879.491 1353.72C879.321 1339.54 879.059 1317.62 890.523 1296.85C904.347 1271.8 935.684 1247.98 1007.41 1243.94C1007.85 1243.92 1008.36 1243.95 1008.81 1244.03C1043.01 1250.45 1066.59 1249.58 1083.51 1247.69C1087.73 1247.22 1091.52 1246.68 1094.94 1246.19C1095.46 1246.11 1095.97 1246.04 1096.46 1245.97C1099.27 1245.56 1101.79 1245.19 1104.1 1244.92C1109.6 1244.27 1113.5 1244.22 1116.65 1245.24C1119.65 1246.2 1122.26 1248.23 1124.9 1252.46C1127.59 1256.77 1130.21 1263.2 1133.21 1272.72C1137.39 1285.92 1142.18 1304.63 1148.94 1331.02C1151.92 1342.66 1155.28 1355.78 1159.14 1370.58C1159.34 1371.36 1159.38 1372.23 1159.25 1372.97Z" fill="white" stroke="black" stroke-width="5"/>
<path d="M1227.09 1119.47C1224.2 1167.19 1192.84 1213.68 1144.79 1247.31C1096.77 1280.91 1032.35 1301.46 963.928 1297.38C906.016 1293.94 845.706 1280.59 801.118 1248.89C756.705 1217.32 727.648 1167.39 732.337 1090.02C735.233 1042.24 765.794 993.041 813.003 956.742C860.168 920.477 923.694 897.301 992.04 901.369C1060.6 905.451 1121.34 928.253 1163.91 965.857C1206.44 1003.41 1230.95 1055.81 1227.09 1119.47Z" fill="white" stroke="black" stroke-width="5"/>
<path d="M1138.65 1184.29C1111.22 1212.46 1027.29 1237.62 959.639 1189.75C874.712 1243.9 799.909 1191.86 783.886 1155.34C737.112 1048.73 847.841 954.443 999.903 971.069C1151.97 987.697 1214.69 1106.23 1138.65 1184.29Z" fill="black"/>
<path d="M1038.28 1289.03L1039.55 1345.59L1046.89 1412.48L1059.95 1479.08C1060.12 1479.94 1060.43 1480.78 1060.87 1481.54L1082.05 1518.24" stroke="#F4F4F4"/>
<ellipse cx="27.441" cy="27.1971" rx="27.441" ry="27.1971" transform="matrix(0.998233 0.0594204 -0.060495 0.998168 863.344 1099.86)" fill="#84F6D5"/>
<path d="M1184.01 1279.32C1185.9 1273.83 1189.9 1266.61 1208.47 1254.07C1217.08 1251.46 1224.52 1252.07 1230.32 1254.92C1236.18 1257.81 1240.59 1263.09 1242.88 1270.17C1247.47 1284.36 1243.52 1305.83 1225.31 1328.35C1204.61 1348.91 1180.35 1365.68 1157.87 1370.83C1146.66 1373.39 1135.98 1373.04 1126.4 1368.94C1116.87 1364.85 1108.21 1356.96 1101.12 1344.04C1096.16 1329.09 1096.9 1320.23 1100.35 1314.85C1103.82 1309.45 1110.46 1306.87 1119.1 1305.6C1124.91 1304.75 1131.24 1304.53 1137.66 1304.31C1140.81 1304.2 1143.98 1304.09 1147.12 1303.91C1156.41 1303.36 1165.51 1302.14 1171.69 1297.8C1176.73 1294.25 1179.36 1291.17 1180.96 1288.05C1181.75 1286.51 1182.26 1285.03 1182.7 1283.59C1182.86 1283.09 1183 1282.61 1183.14 1282.14C1183.41 1281.2 1183.67 1280.3 1184.01 1279.32Z" fill="white" stroke="black" stroke-width="4"/>
<path d="M997.553 1120.23C996.931 1118.17 999.443 1117.39 1000.6 1119.22C1007.08 1129.43 1017.65 1140.14 1032.9 1139.85C1048.06 1139.56 1058.66 1125.88 1064.22 1117.21C1065.3 1115.53 1067.58 1116.22 1067.23 1118.18C1064.34 1134.31 1050.23 1146.69 1033.03 1147.02C1016.7 1147.33 1002.12 1135.42 997.553 1120.23Z" fill="#84F6D5"/>
<path d="M1080.09 1635.32C1080.09 1644.61 1073.56 1653.4 1062.18 1659.98C1050.86 1666.53 1035.08 1670.65 1017.54 1670.65C1000.01 1670.65 984.231 1666.53 972.906 1659.98C961.529 1653.4 955 1644.61 955 1635.32C955 1626.03 961.529 1617.24 972.906 1610.66C984.231 1604.11 1000.01 1600 1017.54 1600C1035.08 1600 1050.86 1604.11 1062.18 1610.66C1073.56 1617.24 1080.09 1626.03 1080.09 1635.32Z" fill="#201E1E" fill-opacity="0.74" stroke="#605E5E" stroke-width="4"/>
<path d="M1592.64 1642.56C1590.73 1698.54 1662.89 1746.13 1753.82 1748.86C1844.75 1751.59 2042.34 1719.09 2044.25 1663.11C2046.17 1607.13 2012.85 1552.43 1921.92 1549.71C1830.99 1546.98 1594.55 1586.58 1592.64 1642.56Z" fill="#040101" fill-opacity="0.04" stroke="#F5F5F5" stroke-opacity="0.29" stroke-width="4"/>
<path d="M1992.09 1244.45L1992.09 1244.45L1964.98 1472.41L1984.75 1491.53L2012.24 1221.5L1996.86 1204.21L1992.09 1244.45Z" fill="#F6AB19" stroke="#F7AB19" stroke-width="4"/>
<path d="M1980.28 1656.06L1980.82 1632.13L1980.82 1632.13L1983.98 1495.81L1959.26 1489.8L1963.34 1648.32L1980.28 1656.06Z" fill="#F6AB19" stroke="#F7AB19" stroke-width="4"/>
<path d="M1805.61 1583.89L1805.36 1559.96L1805.36 1559.95L1804.04 1423.6L1779.13 1418.31L1788.42 1576.64L1805.61 1583.89Z" fill="#F6AB19" stroke="#F7AB19" stroke-width="4"/>
<path d="M1770.15 1711.26L1769.23 1687.35L1769.23 1687.33L1769.23 1687.31L1766.13 1539.64L1741.51 1539.64L1752.8 1704.45L1770.15 1711.26Z" fill="#F6AB19" stroke="#F7AB19" stroke-width="4"/>
<path d="M1819.9 1124.43L1814.61 1169.08L1787.37 1398.02L1814.61 1417.16L1838.81 1145.69L1819.9 1124.43Z" fill="#F6AB19"/>
<path d="M1656.68 1620.54L1655.76 1596.62L1655.76 1596.62L1650.6 1460.35L1625.55 1455.67L1639.3 1613.72L1656.68 1620.54Z" fill="#F6AB19" stroke="#F7AB19" stroke-width="4"/>
<path d="M2038.95 1169.2L1801.5 1108.58C1797.32 1107.51 1793.11 1110.17 1792.28 1114.4L1771.43 1220.46C1769.18 1231.89 1775.64 1243.23 1786.61 1247.14L1994.6 1321.16C2008.53 1326.11 2023.52 1317.13 2025.72 1302.51L2044.52 1177.58C2045.09 1173.77 2042.68 1170.15 2038.95 1169.2Z" fill="#653F8E" stroke="#281616"/>
<path d="M1988.59 1487.33L1787.37 1391.64L1630.78 1412.91L1569.51 1419.29L1684.49 1507.18L1746.17 1538.36L1908.41 1507.18L1988.59 1487.33Z" fill="#653F8E"/>
<path d="M1987.84 1487.33L1744.71 1538.36V1545.45L1986.32 1494.42L1987.84 1487.33Z" fill="#1E1922"/>
<path d="M1746.16 1538.36L1569.9 1419.29L1571.02 1424.96L1746.16 1545.45L1746.16 1538.36Z" fill="#1E1922"/>
<defs>
<filter id="filter0_d_1294_80" x="455" y="0" width="1226.69" height="659.062" filterUnits="userSpaceOnUse" color-interpolation-filters="sRGB">
<feFlood flood-opacity="0" result="BackgroundImageFix"/>
<feColorMatrix in="SourceAlpha" type="matrix" values="0 0 0 0 0 0 0 0 0 0 0 0 0 0 0 0 0 0 127 0" result="hardAlpha"/>
<feOffset dy="4"/>
<feGaussianBlur stdDeviation="2"/>
<feComposite in2="hardAlpha" operator="out"/>
<feColorMatrix type="matrix" values="0 0 0 0 0.770833 0 0 0 0 0.770833 0 0 0 0 0.770833 0 0 0 0.25 0"/>
<feBlend mode="normal" in2="BackgroundImageFix" result="effect1_dropShadow_1294_80"/>
<feBlend mode="normal" in="SourceGraphic" in2="effect1_dropShadow_1294_80" result="shape"/>
</filter>
<filter id="filter1_d_1294_80" x="1296.51" y="778.494" width="148.225" height="85.2559" filterUnits="userSpaceOnUse" color-interpolation-filters="sRGB">
<feFlood flood-opacity="0" result="BackgroundImageFix"/>
<feColorMatrix in="SourceAlpha" type="matrix" values="0 0 0 0 0 0 0 0 0 0 0 0 0 0 0 0 0 0 127 0" result="hardAlpha"/>
<feOffset dy="4"/>
<feGaussianBlur stdDeviation="2"/>
<feComposite in2="hardAlpha" operator="out"/>
<feColorMatrix type="matrix" values="0 0 0 0 0.770833 0 0 0 0 0.770833 0 0 0 0 0.770833 0 0 0 0.25 0"/>
<feBlend mode="normal" in2="BackgroundImageFix" result="effect1_dropShadow_1294_80"/>
<feBlend mode="normal" in="SourceGraphic" in2="effect1_dropShadow_1294_80" result="shape"/>
</filter>
<filter id="filter2_d_1294_80" x="1305" y="651" width="148.225" height="85.2559" filterUnits="userSpaceOnUse" color-interpolation-filters="sRGB">
<feFlood flood-opacity="0" result="BackgroundImageFix"/>
<feColorMatrix in="SourceAlpha" type="matrix" values="0 0 0 0 0 0 0 0 0 0 0 0 0 0 0 0 0 0 127 0" result="hardAlpha"/>
<feOffset dy="4"/>
<feGaussianBlur stdDeviation="2"/>
<feComposite in2="hardAlpha" operator="out"/>
<feColorMatrix type="matrix" values="0 0 0 0 0.770833 0 0 0 0 0.770833 0 0 0 0 0.770833 0 0 0 0.25 0"/>
<feBlend mode="normal" in2="BackgroundImageFix" result="effect1_dropShadow_1294_80"/>
<feBlend mode="normal" in="SourceGraphic" in2="effect1_dropShadow_1294_80" result="shape"/>
</filter>
<filter id="filter3_d_1294_80" x="1194.1" y="906.076" width="148.225" height="85.2559" filterUnits="userSpaceOnUse" color-interpolation-filters="sRGB">
<feFlood flood-opacity="0" result="BackgroundImageFix"/>
<feColorMatrix in="SourceAlpha" type="matrix" values="0 0 0 0 0 0 0 0 0 0 0 0 0 0 0 0 0 0 127 0" result="hardAlpha"/>
<feOffset dy="4"/>
<feGaussianBlur stdDeviation="2"/>
<feComposite in2="hardAlpha" operator="out"/>
<feColorMatrix type="matrix" values="0 0 0 0 0.770833 0 0 0 0 0.770833 0 0 0 0 0.770833 0 0 0 0.25 0"/>
<feBlend mode="normal" in2="BackgroundImageFix" result="effect1_dropShadow_1294_80"/>
<feBlend mode="normal" in="SourceGraphic" in2="effect1_dropShadow_1294_80" result="shape"/>
</filter>
</defs>
</svg>
