<svg width="461" height="495" viewBox="0 0 461 495" fill="none" xmlns="http://www.w3.org/2000/svg">
<path d="M282.911 363.363C291.514 360.852 300.62 381.196 307.627 405.206C314.635 429.216 302.387 451.519 287.201 451.849C269.342 449.369 281.177 439.933 289.489 410.5C296.77 384.722 274.308 365.874 282.911 363.363Z" fill="#57DFD7"/>
<path d="M158.219 362.289C149.399 361.326 144.162 381.555 141.62 404.84C139.079 428.124 154.972 446.795 169.81 444.705C186.748 439.597 173.55 432.747 160.215 406.869C148.537 384.205 167.038 363.251 158.219 362.289Z" fill="#57DFD7"/>
<path d="M187.999 384C187.999 390.533 183.827 396.735 176.479 401.403C169.155 406.056 158.914 409 147.499 409C142.607 409 139.121 406.266 136.555 401.385C133.947 396.424 132.462 389.503 131.687 381.889C130.619 371.397 130.931 360.122 131.23 351.595C131.868 352.442 132.596 353.262 133.429 354.029C136.612 356.965 141.166 359 147.499 359C158.914 359 169.155 361.943 176.479 366.596C183.827 371.264 187.999 377.466 187.999 384Z" fill="#00FFC5" stroke="black" stroke-width="4"/>
<path d="M261 377.371C261 384.91 265.796 392.019 274.144 397.343C282.468 402.651 294.091 406 307.032 406C312.684 406 316.7 402.817 319.63 397.221C322.602 391.546 324.284 383.653 325.161 375.005C326.401 362.775 325.997 349.597 325.652 339.837C324.841 341.002 323.885 342.13 322.76 343.172C319.215 346.455 314.132 348.742 307.032 348.742C294.091 348.742 282.468 352.091 274.144 357.399C265.796 362.723 261 369.832 261 377.371Z" fill="#00FFC5" stroke="black" stroke-width="4"/>
<path d="M169.627 321.616C173.24 324.469 176.821 329.02 180.212 336.986C179.179 342.363 175.012 346.344 168.482 348.736C161.725 351.212 152.731 351.843 143.181 350.496C124.047 347.797 103.597 337.32 95.136 319.493C88.6617 300.663 92.2251 279.428 102.659 262.631C113.075 245.864 130.204 233.721 150.693 232.756C156.154 233.496 159.311 234.481 160.93 235.519C161.707 236.018 161.977 236.433 162.076 236.696C162.168 236.941 162.204 237.299 162 237.892C161.544 239.223 160.144 241.012 157.762 243.333C155.776 245.269 153.322 247.377 150.619 249.7C150.163 250.092 149.701 250.489 149.232 250.893C142.829 256.409 135.373 263.027 130.844 270.508C128.562 274.277 126.967 278.352 126.657 282.693C126.346 287.061 127.347 291.571 130.06 296.16C134.58 303.808 139.265 308.243 144.042 311.067C148.292 313.579 152.547 314.762 156.451 315.847C156.882 315.967 157.309 316.085 157.731 316.204C162.028 317.417 165.926 318.694 169.627 321.616Z" fill="white" stroke="black" stroke-width="4"/>
<path d="M279.772 321.625C276.348 324.482 272.951 329.045 269.736 337.032C270.708 342.408 274.63 346.354 280.759 348.727C287.116 351.189 295.597 351.822 304.622 350.476C322.69 347.783 342.051 337.32 350.069 319.464C356.207 300.604 352.822 279.36 342.959 262.582C333.115 245.836 316.954 233.744 297.646 232.777C292.493 233.516 289.523 234.498 288.002 235.529C287.271 236.024 287.005 236.444 286.905 236.727C286.81 236.993 286.781 237.364 286.972 237.952C287.4 239.271 288.713 241.046 290.962 243.362C292.838 245.294 295.156 247.399 297.715 249.722C298.146 250.114 298.584 250.511 299.028 250.915C305.087 256.432 312.156 263.062 316.451 270.558C320.826 278.194 322.401 286.894 317.207 296.18C312.934 303.818 308.506 308.251 303.982 311.077C299.954 313.593 295.919 314.778 292.224 315.863C291.816 315.983 291.412 316.102 291.013 316.221C286.953 317.431 283.272 318.705 279.772 321.625Z" fill="white" stroke="black" stroke-width="4"/>
<path d="M325.37 291.716C321.8 326.273 314.267 359.115 298.983 384.427C283.795 409.579 260.93 427.357 226.335 432C191.588 431.944 166.568 414.198 150.083 387.776C133.516 361.222 125.632 325.949 125.502 291.432C125.5 291.046 125.547 290.628 125.636 290.224C127.411 282.162 128.779 274.947 129.994 268.496L130.118 267.835C131.285 261.64 132.311 256.193 133.438 251.33C135.777 241.247 138.478 234.048 143.397 228.46C148.298 222.891 155.654 218.642 167.882 215.051C180.132 211.454 197.012 208.587 220.72 205.617C221.203 205.556 221.751 205.561 222.229 205.629C267.181 212.073 288.905 218.866 301.431 230.803C307.645 236.725 311.73 244.05 315.194 253.647C318.178 261.912 320.649 271.696 323.651 283.583C324.157 285.589 324.679 287.656 325.221 289.786C325.383 290.419 325.435 291.091 325.37 291.716Z" fill="white" stroke="black" stroke-width="5"/>
<path d="M384.5 135C384.5 202.671 314.142 258.5 226 258.5C137.858 258.5 67.5 202.671 67.5 135C67.5 67.3288 137.858 11.5 226 11.5C314.142 11.5 384.5 67.3288 384.5 135Z" fill="white" stroke="black" stroke-width="5"/>
<path d="M325.936 177.535C294.802 200.74 258.436 201.035 224.435 171.534C152.935 217.534 110.282 170.275 100.435 130.533C95.4355 79.5326 153.436 23.5342 268.936 44.0333C384.936 76.0338 347.438 161.507 325.936 177.535Z" fill="black"/>
<path d="M247.514 131.386C246.919 129.306 249.339 128.807 250.38 130.702C254.176 137.609 260.318 144.377 269.781 145.351C279.399 146.341 287.338 139.237 292.157 133.735C293.475 132.231 295.56 133.178 294.815 135.034C290.815 145 280.535 151.542 269.263 150.381C258.847 149.309 250.325 141.199 247.514 131.386Z" fill="#84F6D5"/>
<path d="M152.949 131.94C152.115 129.944 154.46 129.166 155.716 130.927C160.291 137.344 167.18 143.349 176.693 143.213C186.36 143.074 193.416 135.093 197.561 129.066C198.695 127.418 200.876 128.116 200.352 130.046C197.542 140.411 188.095 148.107 176.765 148.269C166.295 148.419 156.885 141.359 152.949 131.94Z" fill="#84F6D5"/>
<rect x="126" y="132" width="18" height="40" rx="2" fill="#6614BE"/>
<rect x="148" y="64" width="18" height="40" rx="2" fill="#6614BE"/>
<rect x="118" y="79" width="12" height="31" rx="2" fill="#6614BE"/>
<rect x="121" y="116" width="9" height="12" rx="2" fill="#6614BE"/>
<rect x="133" y="95" width="12" height="31" rx="2" fill="#6614BE"/>
<path d="M264 466C264 472.477 259.614 478.683 251.791 483.377C244.008 488.047 233.126 491 221 491C208.874 491 197.992 488.047 190.209 483.377C182.386 478.683 178 472.477 178 466C178 459.523 182.386 453.317 190.209 448.623C197.992 443.953 208.874 441 221 441C233.126 441 244.008 443.953 251.791 448.623C259.614 453.317 264 459.523 264 466Z" fill="#201E1E" fill-opacity="0.74" stroke="#605E5E" stroke-width="4"/>
<path d="M121.005 287.326L121.779 288.199L122.92 287.955C124.496 287.617 125.633 286.919 126.457 286.136C126.509 286.289 126.565 286.448 126.622 286.614C127.321 288.634 128.351 291.609 129.905 295.832C132.95 304.105 136.401 308.639 140.354 311.046C144.124 313.341 148.071 313.499 151.532 313.638C151.67 313.643 151.807 313.649 151.943 313.654C155.603 313.805 158.832 314.017 162.033 316.006C165.121 317.924 168.443 321.676 171.78 329.389C165.354 340.628 150.792 347.133 135.377 346.387C119.768 345.632 103.694 337.429 95.1947 319.613C92.9329 308.266 92.1725 298.953 92.6232 291.784C93.0816 284.494 94.7728 279.73 97.0798 277.187C98.1985 275.954 99.4633 275.236 100.87 274.958C102.297 274.676 104.011 274.819 106.039 275.549C110.144 277.028 115.219 280.802 121.005 287.326Z" fill="white" stroke="black" stroke-width="4"/>
<path d="M322.517 277.839L322.461 277.8C320.869 281.978 318.93 288.07 317.422 295.594C316.022 302.584 314.035 306.794 311.161 309.328C308.291 311.86 304.82 312.437 301.401 312.952C301.204 312.982 301.005 313.012 300.805 313.041C297.475 313.539 293.9 314.073 289.833 315.907C285.77 317.74 281.128 320.918 275.898 326.824C282.106 337.86 296.204 344.899 311.099 344.862C326.339 344.824 341.99 337.352 350.017 319.577C352.149 308.255 352.671 298.359 351.947 290.304C351.215 282.155 349.224 276.065 346.503 272.255C343.857 268.55 340.581 267.034 336.81 267.648C332.839 268.296 327.951 271.363 322.517 277.839Z" fill="white" stroke="black" stroke-width="4"/>
<path d="M99.5 272.5L123.5 273.5L124 278.25L124.5 283L126.5 293.5L96.5 281.5L99.5 272.5Z" fill="white"/>
<path d="M344 268L331.5 252.5L323 269.5L324.5 280L326 283.5L327 284.5L322.417 294.5L348 281.5L344 268Z" fill="white"/>
<path d="M227 365.5C223.5 376 248 367 229 370C210 373 145.001 382 145 373C145 369.5 219.887 359 229 359C238.112 359 224 362.5 227 365.5Z" fill="#A261D5"/>
<path d="M229.5 364C232.989 374.598 199.327 366.075 218.267 369.103C237.206 372.131 300.5 383 302 372.131C302.483 368.631 227.351 358 218.267 358C209.183 358 232.491 360.972 229.5 364Z" fill="#A261D5"/>
<rect x="216" y="351" width="20" height="23" rx="4" fill="#F2E6FF"/>
<path d="M145 373.25L159 372V377H146.909L145.636 374.5L145 373.25Z" fill="#A261D5"/>
<path d="M303 372.5L281 371V377H300L302 374L303 372.5Z" fill="#A261D5"/>
<path d="M225 355.626L220 352.001V373.001L225 370.876V355.626Z" fill="#8131D8"/>
<path d="M228 355.565L233 352.001V373.001L228 370.965V355.565Z" fill="#8131D8"/>
<rect x="219" y="352.001" width="1" height="22" rx="0.5" fill="#6E22A9"/>
<rect x="225" y="356.001" width="1" height="15" rx="0.5" fill="#6E22A9"/>
<rect width="1" height="15" rx="0.5" transform="matrix(-1 0 0 1 228 356.001)" fill="#6E22A9"/>
<rect width="0.528619" height="7.13332" rx="0.264309" transform="matrix(-0.742607 0.669728 -0.801851 -0.597524 225.404 355.423)" fill="#6E22A9"/>
<rect width="0.509257" height="6.82773" rx="0.254629" transform="matrix(0.718827 0.69519 0.781212 -0.624266 227.3 355.263)" fill="#6E22A9"/>
<path d="M388.21 287.822L461 225V495L388.21 468.267V287.822Z" fill="#A96EE4"/>
<rect x="61.1577" y="285.769" width="328.794" height="174.789" fill="white" stroke="#2E0060"/>
<path d="M199.159 336.649L197.601 359.404C197.574 359.814 197.423 360.019 197.15 360.019H194.895C193.364 360.019 192.271 359.718 191.615 359.117C190.959 358.515 190.631 357.654 190.631 356.534C190.631 356.124 190.645 355.509 190.672 354.689C190.727 353.869 190.795 352.912 190.877 351.819C190.959 350.698 191.041 349.495 191.123 348.211C191.232 346.899 191.342 345.587 191.451 344.275C191.56 342.935 191.656 341.61 191.738 340.298C191.847 338.986 191.943 337.769 192.025 336.649H185.465C185.164 336.649 185.014 336.457 185.014 336.075L185.137 333.779C185.164 333.423 185.219 333.082 185.301 332.754C185.41 332.398 185.574 332.084 185.793 331.811C186.012 331.537 186.285 331.319 186.613 331.155C186.968 330.991 187.392 330.909 187.884 330.909H206.211C206.375 330.909 206.525 330.95 206.662 331.032C206.799 331.114 206.867 331.264 206.867 331.483L206.703 333.902C206.648 334.722 206.416 335.391 206.006 335.911C205.623 336.403 204.817 336.649 203.587 336.649H199.159ZM211.99 360.019C211.142 360.019 210.445 359.937 209.899 359.773C209.379 359.581 208.956 359.322 208.628 358.994C208.327 358.666 208.108 358.269 207.972 357.805C207.862 357.313 207.808 356.752 207.808 356.124C207.808 355.714 207.821 355.14 207.849 354.402C207.903 353.636 207.985 352.598 208.095 351.286C208.204 349.946 208.327 348.265 208.464 346.243C208.628 344.193 208.819 341.664 209.038 338.658C209.065 338.056 209.133 337.701 209.243 337.592C209.325 337.51 209.543 337.469 209.899 337.469H211.498C212.345 337.469 213.028 337.551 213.548 337.715C214.094 337.879 214.518 338.125 214.819 338.453C215.147 338.781 215.365 339.177 215.475 339.642C215.611 340.106 215.68 340.626 215.68 341.2C215.68 341.61 215.652 342.225 215.598 343.045C215.543 343.865 215.461 344.985 215.352 346.407C215.27 347.801 215.147 349.55 214.983 351.655C214.819 353.732 214.614 356.247 214.368 359.199C214.34 359.527 214.272 359.745 214.163 359.855C214.053 359.964 213.821 360.019 213.466 360.019H211.99ZM209.079 332.631C209.079 331.537 209.475 330.676 210.268 330.048C211.06 329.419 212.126 329.105 213.466 329.105C214.641 329.105 215.488 329.351 216.008 329.843C216.554 330.307 216.828 330.936 216.828 331.729C216.828 332.74 216.445 333.587 215.68 334.271C214.942 334.927 213.848 335.255 212.4 335.255C210.186 335.255 209.079 334.38 209.079 332.631ZM226.801 360.429C225.735 360.429 224.71 360.237 223.726 359.855C222.769 359.472 221.922 358.871 221.184 358.051C220.473 357.231 219.899 356.192 219.462 354.935C219.052 353.677 218.847 352.16 218.847 350.384C218.847 349.591 218.902 348.716 219.011 347.76C219.12 346.776 219.312 345.792 219.585 344.808C219.858 343.824 220.241 342.867 220.733 341.938C221.225 341.008 221.84 340.188 222.578 339.478C223.343 338.74 224.245 338.152 225.284 337.715C226.35 337.277 227.594 337.059 229.015 337.059C230.382 337.059 231.475 337.305 232.295 337.797C233.142 338.261 233.675 339.081 233.894 340.257C233.949 339.191 234.003 338.261 234.058 337.469C234.113 336.676 234.154 335.938 234.181 335.255C234.236 334.571 234.29 333.888 234.345 333.205C234.4 332.521 234.454 331.742 234.509 330.868C234.536 330.266 234.605 329.911 234.714 329.802C234.769 329.747 234.837 329.72 234.919 329.72C235.001 329.692 235.151 329.679 235.37 329.679H236.969C237.789 329.679 238.472 329.774 239.019 329.966C239.566 330.157 240.003 330.417 240.331 330.745C240.659 331.073 240.891 331.455 241.028 331.893C241.165 332.303 241.233 332.74 241.233 333.205C241.233 333.205 241.206 333.546 241.151 334.23C241.096 334.913 241.028 335.829 240.946 336.977C240.864 338.097 240.768 339.382 240.659 340.831C240.55 342.279 240.44 343.783 240.331 345.341C240.222 346.871 240.112 348.402 240.003 349.933C239.894 351.436 239.784 352.83 239.675 354.115C239.566 355.372 239.47 356.465 239.388 357.395C239.333 358.297 239.292 358.898 239.265 359.199C239.21 359.527 239.142 359.745 239.06 359.855C238.978 359.964 238.746 360.019 238.363 360.019H236.887C236.313 360.019 235.766 359.978 235.247 359.896C234.755 359.786 234.318 359.622 233.935 359.404C233.58 359.158 233.293 358.843 233.074 358.461C232.883 358.051 232.787 357.531 232.787 356.903C232.295 357.941 231.543 358.789 230.532 359.445C229.548 360.101 228.304 360.429 226.801 360.429ZM230.368 342.512C228.974 342.512 227.935 343.127 227.252 344.357C226.596 345.559 226.268 347.186 226.268 349.236C226.268 349.946 226.309 350.643 226.391 351.327C226.5 352.01 226.678 352.625 226.924 353.172C227.17 353.718 227.498 354.156 227.908 354.484C228.345 354.812 228.892 354.976 229.548 354.976C230.723 354.976 231.707 354.402 232.5 353.254C233.293 352.106 233.689 350.302 233.689 347.842C233.689 347.158 233.648 346.502 233.566 345.874C233.484 345.218 233.32 344.644 233.074 344.152C232.828 343.66 232.486 343.263 232.049 342.963C231.612 342.662 231.051 342.512 230.368 342.512ZM243.012 354.976C243.012 352.516 244.119 350.589 246.333 349.195C248.547 347.801 251.814 347.049 256.132 346.94C256.16 346.639 256.173 346.393 256.173 346.202C256.201 345.983 256.214 345.723 256.214 345.423C256.214 344.548 256.05 343.851 255.722 343.332C255.394 342.812 254.711 342.553 253.672 342.553C253.098 342.553 252.634 342.635 252.278 342.799C251.923 342.963 251.636 343.195 251.417 343.496C251.199 343.769 251.021 344.111 250.884 344.521C250.748 344.931 250.625 345.382 250.515 345.874C250.461 346.12 250.338 346.284 250.146 346.366C249.955 346.42 249.654 346.448 249.244 346.448C246.456 346.448 245.062 345.395 245.062 343.291C245.062 342.443 245.254 341.637 245.636 340.872C246.046 340.106 246.634 339.45 247.399 338.904C248.192 338.33 249.176 337.879 250.351 337.551C251.527 337.223 252.893 337.059 254.451 337.059C257.485 337.059 259.686 337.687 261.052 338.945C262.419 340.202 263.102 341.979 263.102 344.275C263.102 344.575 263.061 345.122 262.979 345.915C262.925 346.68 262.843 347.5 262.733 348.375C262.651 349.222 262.569 350.028 262.487 350.794C262.433 351.559 262.405 352.092 262.405 352.393C262.405 353.076 262.528 353.568 262.774 353.869C263.02 354.142 263.294 354.333 263.594 354.443C263.922 354.552 264.209 354.634 264.455 354.689C264.701 354.743 264.824 354.88 264.824 355.099C264.824 355.7 264.742 356.315 264.578 356.944C264.414 357.572 264.141 358.146 263.758 358.666C263.403 359.185 262.897 359.609 262.241 359.937C261.613 360.265 260.834 360.429 259.904 360.429C258.592 360.429 257.608 360.114 256.952 359.486C256.296 358.857 255.859 357.982 255.64 356.862C254.984 357.818 254.123 358.652 253.057 359.363C252.019 360.073 250.652 360.429 248.957 360.429C248.137 360.429 247.358 360.333 246.62 360.142C245.91 359.95 245.281 359.636 244.734 359.199C244.215 358.761 243.791 358.201 243.463 357.518C243.163 356.807 243.012 355.96 243.012 354.976ZM255.763 350.302C255.053 350.302 254.356 350.356 253.672 350.466C252.989 350.575 252.374 350.753 251.827 350.999C251.308 351.217 250.884 351.518 250.556 351.901C250.228 352.283 250.064 352.748 250.064 353.295C250.064 353.923 250.256 354.361 250.638 354.607C251.048 354.853 251.486 354.976 251.95 354.976C252.388 354.976 252.825 354.88 253.262 354.689C253.7 354.497 254.082 354.21 254.41 353.828C254.766 353.418 255.066 352.926 255.312 352.352C255.558 351.778 255.709 351.094 255.763 350.302ZM286.82 356.698C286.82 356.834 286.751 357.108 286.615 357.518C286.478 357.928 286.259 358.351 285.959 358.789C285.658 359.226 285.275 359.609 284.811 359.937C284.373 360.265 283.84 360.429 283.212 360.429C282.474 360.429 281.736 360.183 280.998 359.691C280.287 359.199 279.576 358.529 278.866 357.682C278.155 356.834 277.431 355.837 276.693 354.689C275.982 353.513 275.258 352.242 274.52 350.876C274.41 352.324 274.301 353.746 274.192 355.14C274.082 356.534 273.973 357.887 273.864 359.199C273.836 359.527 273.768 359.745 273.659 359.855C273.549 359.964 273.317 360.019 272.962 360.019H271.486C270.638 360.019 269.941 359.937 269.395 359.773C268.848 359.581 268.424 359.322 268.124 358.994C267.823 358.666 267.604 358.256 267.468 357.764C267.358 357.244 267.304 356.657 267.304 356.001C267.304 355.673 267.317 355.331 267.345 354.976C267.372 354.62 267.413 354.115 267.468 353.459C267.522 352.803 267.591 351.942 267.673 350.876C267.782 349.81 267.905 348.402 268.042 346.653C268.178 344.903 268.329 342.758 268.493 340.216C268.684 337.646 268.889 334.53 269.108 330.868C269.135 330.266 269.203 329.911 269.313 329.802C269.395 329.72 269.613 329.679 269.969 329.679H271.568C272.415 329.679 273.112 329.774 273.659 329.966C274.205 330.157 274.643 330.417 274.971 330.745C275.299 331.073 275.517 331.455 275.627 331.893C275.763 332.33 275.832 332.781 275.832 333.246C275.832 333.519 275.804 333.984 275.75 334.64C275.722 335.268 275.681 336.047 275.627 336.977C275.572 337.879 275.49 338.904 275.381 340.052C275.299 341.2 275.217 342.402 275.135 343.66L281.695 337.674C281.941 337.455 282.159 337.305 282.351 337.223C282.569 337.141 282.733 337.1 282.843 337.1C283.143 337.1 283.471 337.291 283.827 337.674C284.182 338.056 284.51 338.507 284.811 339.027C285.139 339.519 285.398 340.038 285.59 340.585C285.808 341.104 285.918 341.528 285.918 341.856C285.918 342.648 285.275 343.482 283.991 344.357C282.733 345.231 280.82 346.215 278.251 347.309C279.399 348.593 280.492 349.769 281.531 350.835C282.569 351.901 283.471 352.844 284.237 353.664C285.029 354.484 285.658 355.153 286.123 355.673C286.587 356.192 286.82 356.534 286.82 356.698ZM141.678 409.429C140.612 409.429 139.587 409.237 138.603 408.855C137.646 408.472 136.799 407.871 136.061 407.051C135.35 406.231 134.776 405.192 134.339 403.935C133.929 402.677 133.724 401.16 133.724 399.384C133.724 398.591 133.778 397.716 133.888 396.76C133.997 395.776 134.188 394.792 134.462 393.808C134.735 392.824 135.118 391.867 135.61 390.938C136.102 390.008 136.717 389.188 137.455 388.478C138.22 387.74 139.122 387.152 140.161 386.715C141.227 386.277 142.47 386.059 143.892 386.059C145.258 386.059 146.352 386.305 147.172 386.797C148.019 387.261 148.552 388.081 148.771 389.257C148.825 388.191 148.88 387.261 148.935 386.469C148.989 385.676 149.03 384.938 149.058 384.255C149.112 383.571 149.167 382.888 149.222 382.205C149.276 381.521 149.331 380.742 149.386 379.868C149.413 379.266 149.481 378.911 149.591 378.802C149.645 378.747 149.714 378.72 149.796 378.72C149.878 378.692 150.028 378.679 150.247 378.679H151.846C152.666 378.679 153.349 378.774 153.896 378.966C154.442 379.157 154.88 379.417 155.208 379.745C155.536 380.073 155.768 380.455 155.905 380.893C156.041 381.303 156.11 381.74 156.11 382.205C156.11 382.205 156.082 382.546 156.028 383.23C155.973 383.913 155.905 384.829 155.823 385.977C155.741 387.097 155.645 388.382 155.536 389.831C155.426 391.279 155.317 392.783 155.208 394.341C155.098 395.871 154.989 397.402 154.88 398.933C154.77 400.436 154.661 401.83 154.552 403.115C154.442 404.372 154.347 405.465 154.265 406.395C154.21 407.297 154.169 407.898 154.142 408.199C154.087 408.527 154.019 408.745 153.937 408.855C153.855 408.964 153.622 409.019 153.24 409.019H151.764C151.19 409.019 150.643 408.978 150.124 408.896C149.632 408.786 149.194 408.622 148.812 408.404C148.456 408.158 148.169 407.843 147.951 407.461C147.759 407.051 147.664 406.531 147.664 405.903C147.172 406.941 146.42 407.789 145.409 408.445C144.425 409.101 143.181 409.429 141.678 409.429ZM145.245 391.512C143.851 391.512 142.812 392.127 142.129 393.357C141.473 394.559 141.145 396.186 141.145 398.236C141.145 398.946 141.186 399.643 141.268 400.327C141.377 401.01 141.555 401.625 141.801 402.172C142.047 402.718 142.375 403.156 142.785 403.484C143.222 403.812 143.769 403.976 144.425 403.976C145.6 403.976 146.584 403.402 147.377 402.254C148.169 401.106 148.566 399.302 148.566 396.842C148.566 396.158 148.525 395.502 148.443 394.874C148.361 394.218 148.197 393.644 147.951 393.152C147.705 392.66 147.363 392.263 146.926 391.963C146.488 391.662 145.928 391.512 145.245 391.512ZM163.342 409.019C162.495 409.019 161.798 408.937 161.251 408.773C160.732 408.581 160.308 408.322 159.98 407.994C159.679 407.666 159.461 407.269 159.324 406.805C159.215 406.313 159.16 405.752 159.16 405.124C159.16 404.714 159.174 404.14 159.201 403.402C159.256 402.636 159.338 401.598 159.447 400.286C159.556 398.946 159.679 397.265 159.816 395.243C159.98 393.193 160.171 390.664 160.39 387.658C160.417 387.056 160.486 386.701 160.595 386.592C160.677 386.51 160.896 386.469 161.251 386.469H162.85C163.697 386.469 164.381 386.551 164.9 386.715C165.447 386.879 165.87 387.125 166.171 387.453C166.499 387.781 166.718 388.177 166.827 388.642C166.964 389.106 167.032 389.626 167.032 390.2C167.032 390.61 167.005 391.225 166.95 392.045C166.895 392.865 166.813 393.985 166.704 395.407C166.622 396.801 166.499 398.55 166.335 400.655C166.171 402.732 165.966 405.247 165.72 408.199C165.693 408.527 165.624 408.745 165.515 408.855C165.406 408.964 165.173 409.019 164.818 409.019H163.342ZM160.431 381.631C160.431 380.537 160.827 379.676 161.62 379.048C162.413 378.419 163.479 378.105 164.818 378.105C165.993 378.105 166.841 378.351 167.36 378.843C167.907 379.307 168.18 379.936 168.18 380.729C168.18 381.74 167.797 382.587 167.032 383.271C166.294 383.927 165.201 384.255 163.752 384.255C161.538 384.255 160.431 383.38 160.431 381.631ZM179.465 392.004C179.383 393.042 179.288 394.067 179.178 395.079C179.096 396.09 179.014 397.047 178.932 397.949C178.85 398.851 178.782 399.657 178.727 400.368C178.7 401.078 178.686 401.625 178.686 402.008C178.686 402.718 178.768 403.197 178.932 403.443C179.096 403.661 179.37 403.771 179.752 403.771C180.053 403.771 180.313 403.716 180.531 403.607C180.75 403.497 180.955 403.374 181.146 403.238C181.338 403.101 181.502 402.978 181.638 402.869C181.802 402.759 181.98 402.705 182.171 402.705C182.363 402.705 182.54 402.814 182.704 403.033C182.868 403.251 182.95 403.757 182.95 404.55C182.95 406.053 182.54 407.242 181.72 408.117C180.9 408.991 179.493 409.429 177.497 409.429C175.529 409.429 174.067 408.978 173.11 408.076C172.181 407.146 171.716 405.739 171.716 403.853C171.716 403.443 171.73 402.964 171.757 402.418C171.812 401.844 171.88 401.106 171.962 400.204C172.044 399.302 172.14 398.195 172.249 396.883C172.386 395.571 172.523 393.944 172.659 392.004H170.486C170.268 392.004 170.131 391.963 170.076 391.881C170.049 391.771 170.035 391.621 170.035 391.43L170.158 389.339C170.186 388.983 170.227 388.642 170.281 388.314C170.363 387.958 170.5 387.644 170.691 387.371C170.91 387.097 171.211 386.879 171.593 386.715C171.976 386.551 172.482 386.469 173.11 386.469C173.302 385.977 173.52 385.389 173.766 384.706C174.012 384.022 174.258 383.366 174.504 382.738C174.75 382.082 174.983 381.535 175.201 381.098C175.447 380.66 175.666 380.442 175.857 380.442H177.046C178.194 380.442 178.987 380.797 179.424 381.508C179.862 382.218 180.08 383.066 180.08 384.05C180.08 384.596 180.039 385.403 179.957 386.469H184.262C184.7 386.469 184.918 386.66 184.918 387.043L184.754 389.257C184.7 390.077 184.467 390.746 184.057 391.266C183.675 391.758 182.868 392.004 181.638 392.004H179.465ZM196.217 409.429C195.014 409.429 193.812 409.278 192.609 408.978C191.434 408.677 190.368 408.158 189.411 407.42C188.482 406.682 187.716 405.698 187.115 404.468C186.514 403.238 186.213 401.693 186.213 399.835C186.213 399.151 186.268 398.331 186.377 397.375C186.486 396.418 186.691 395.434 186.992 394.423C187.32 393.411 187.757 392.414 188.304 391.43C188.878 390.418 189.616 389.516 190.518 388.724C191.42 387.931 192.513 387.289 193.798 386.797C195.083 386.305 196.613 386.059 198.39 386.059C199.811 386.059 201.014 386.223 201.998 386.551C202.982 386.879 203.775 387.33 204.376 387.904C204.977 388.45 205.415 389.093 205.688 389.831C205.961 390.569 206.098 391.361 206.098 392.209C206.098 393.466 205.838 394.532 205.319 395.407C204.827 396.281 204.171 397.019 203.351 397.621C202.558 398.195 201.67 398.646 200.686 398.974C199.702 399.302 198.732 399.561 197.775 399.753C196.818 399.917 195.93 400.026 195.11 400.081C194.317 400.108 193.702 400.122 193.265 400.122C193.265 400.641 193.333 401.16 193.47 401.68C193.634 402.172 193.866 402.609 194.167 402.992C194.468 403.374 194.864 403.689 195.356 403.935C195.848 404.181 196.449 404.304 197.16 404.304C197.871 404.304 198.417 404.194 198.8 403.976C199.21 403.73 199.538 403.47 199.784 403.197C200.03 402.896 200.235 402.636 200.399 402.418C200.59 402.172 200.836 402.049 201.137 402.049C201.274 402.049 201.506 402.09 201.834 402.172C202.189 402.226 202.545 402.363 202.9 402.582C203.255 402.8 203.57 403.101 203.843 403.484C204.116 403.866 204.253 404.358 204.253 404.96C204.253 405.752 204.007 406.436 203.515 407.01C203.023 407.584 202.381 408.048 201.588 408.404C200.823 408.759 199.962 409.019 199.005 409.183C198.048 409.347 197.119 409.429 196.217 409.429ZM196.996 391.512C196.395 391.512 195.875 391.689 195.438 392.045C195.028 392.373 194.673 392.796 194.372 393.316C194.099 393.835 193.88 394.409 193.716 395.038C193.579 395.666 193.47 396.268 193.388 396.842C195.083 396.814 196.449 396.527 197.488 395.981C198.554 395.434 199.087 394.655 199.087 393.644C199.087 393.097 198.909 392.605 198.554 392.168C198.226 391.73 197.707 391.512 196.996 391.512ZM215.66 401.639C215.578 402.896 215.483 404.099 215.373 405.247C215.264 406.367 215.182 407.351 215.127 408.199C215.1 408.527 215.032 408.745 214.922 408.855C214.813 408.964 214.581 409.019 214.225 409.019H212.749C211.902 409.019 211.205 408.937 210.658 408.773C210.139 408.581 209.715 408.322 209.387 407.994C209.087 407.666 208.868 407.269 208.731 406.805C208.622 406.313 208.567 405.752 208.567 405.124C208.567 404.714 208.581 404.14 208.608 403.402C208.663 402.636 208.745 401.598 208.854 400.286C208.964 398.946 209.087 397.265 209.223 395.243C209.387 393.193 209.579 390.664 209.797 387.658C209.825 387.056 209.893 386.701 210.002 386.592C210.084 386.51 210.303 386.469 210.658 386.469H212.257C213.077 386.469 213.747 386.564 214.266 386.756C214.786 386.947 215.209 387.193 215.537 387.494C215.865 387.794 216.098 388.15 216.234 388.56C216.371 388.97 216.453 389.393 216.48 389.831C217.273 388.355 218.175 387.357 219.186 386.838C220.198 386.318 221.387 386.059 222.753 386.059C223.491 386.059 224.202 386.127 224.885 386.264C225.569 386.4 226.184 386.633 226.73 386.961C227.277 387.289 227.742 387.726 228.124 388.273C228.507 388.792 228.78 389.462 228.944 390.282C229.792 388.696 230.721 387.603 231.732 387.002C232.744 386.373 234.015 386.059 235.545 386.059C236.393 386.059 237.199 386.154 237.964 386.346C238.757 386.51 239.44 386.81 240.014 387.248C240.588 387.685 241.039 388.286 241.367 389.052C241.723 389.79 241.9 390.719 241.9 391.84C241.9 392.687 241.859 393.726 241.777 394.956C241.695 396.186 241.6 397.525 241.49 398.974C241.381 400.395 241.258 401.871 241.121 403.402C240.985 404.905 240.875 406.354 240.793 407.748C240.766 408.048 240.739 408.281 240.711 408.445C240.684 408.609 240.629 408.732 240.547 408.814C240.493 408.896 240.397 408.95 240.26 408.978C240.124 409.005 239.932 409.019 239.686 409.019H238.374C237.5 409.019 236.789 408.937 236.242 408.773C235.696 408.609 235.272 408.376 234.971 408.076C234.671 407.775 234.452 407.406 234.315 406.969C234.206 406.504 234.151 405.985 234.151 405.411C234.151 405.055 234.165 404.55 234.192 403.894C234.247 403.238 234.302 402.527 234.356 401.762C234.438 400.996 234.507 400.204 234.561 399.384C234.643 398.564 234.712 397.812 234.766 397.129C234.848 396.418 234.903 395.803 234.93 395.284C234.985 394.764 235.012 394.423 235.012 394.259C235.012 393.548 234.862 392.919 234.561 392.373C234.288 391.826 233.741 391.553 232.921 391.553C232.211 391.553 231.596 391.785 231.076 392.25C230.557 392.714 230.12 393.357 229.764 394.177C229.409 394.997 229.122 395.967 228.903 397.088C228.685 398.208 228.534 399.425 228.452 400.737C228.398 401.584 228.329 402.554 228.247 403.648C228.165 404.741 228.07 406.108 227.96 407.748C227.933 408.048 227.906 408.281 227.878 408.445C227.851 408.609 227.796 408.732 227.714 408.814C227.66 408.896 227.564 408.95 227.427 408.978C227.291 409.005 227.099 409.019 226.853 409.019H225.541C224.667 409.019 223.956 408.937 223.409 408.773C222.863 408.609 222.439 408.376 222.138 408.076C221.838 407.775 221.619 407.406 221.482 406.969C221.373 406.504 221.318 405.985 221.318 405.411C221.318 404.864 221.359 404.071 221.441 403.033C221.551 401.967 221.646 400.873 221.728 399.753C221.838 398.605 221.933 397.525 222.015 396.514C222.125 395.475 222.179 394.723 222.179 394.259C222.179 393.548 222.029 392.919 221.728 392.373C221.455 391.826 220.908 391.553 220.088 391.553C219.35 391.553 218.722 391.826 218.202 392.373C217.683 392.919 217.246 393.657 216.89 394.587C216.562 395.489 216.289 396.555 216.07 397.785C215.879 399.015 215.742 400.299 215.66 401.639ZM253.394 389.954C253.394 390.528 253.34 391.334 253.23 392.373C253.148 393.411 253.053 394.491 252.943 395.612C252.861 396.732 252.766 397.785 252.656 398.769C252.574 399.753 252.533 400.463 252.533 400.901C252.533 401.857 252.766 402.609 253.23 403.156C253.722 403.675 254.392 403.935 255.239 403.935C255.977 403.935 256.592 403.648 257.084 403.074C257.604 402.472 258.014 401.707 258.314 400.778C258.642 399.821 258.902 398.741 259.093 397.539C259.285 396.336 259.421 395.12 259.503 393.89C259.613 392.66 259.695 391.471 259.749 390.323C259.831 389.147 259.913 388.136 259.995 387.289C260.023 387.07 260.105 386.879 260.241 386.715C260.378 386.551 260.597 386.469 260.897 386.469H262.373C263.221 386.469 263.904 386.564 264.423 386.756C264.97 386.92 265.394 387.166 265.694 387.494C266.022 387.822 266.241 388.232 266.35 388.724C266.487 389.188 266.555 389.735 266.555 390.364C266.555 390.774 266.528 391.361 266.473 392.127C266.446 392.865 266.378 393.903 266.268 395.243C266.159 396.555 266.022 398.236 265.858 400.286C265.722 402.308 265.544 404.823 265.325 407.83C265.271 408.404 265.202 408.745 265.12 408.855C265.066 408.964 264.847 409.019 264.464 409.019H262.865C262.045 409.019 261.362 408.923 260.815 408.732C260.296 408.54 259.872 408.294 259.544 407.994C259.216 407.693 258.984 407.338 258.847 406.928C258.711 406.518 258.629 406.094 258.601 405.657C258.191 406.367 257.727 406.969 257.207 407.461C256.715 407.953 256.196 408.349 255.649 408.65C255.103 408.923 254.542 409.114 253.968 409.224C253.394 409.36 252.834 409.429 252.287 409.429C251.249 409.429 250.319 409.265 249.499 408.937C248.679 408.581 247.982 408.117 247.408 407.543C246.862 406.969 246.438 406.285 246.137 405.493C245.837 404.7 245.686 403.853 245.686 402.951C245.686 402.595 245.7 402.021 245.727 401.229C245.782 400.409 245.837 399.493 245.891 398.482C245.973 397.47 246.055 396.404 246.137 395.284C246.219 394.136 246.288 393.056 246.342 392.045C246.424 391.033 246.493 390.145 246.547 389.38C246.629 388.614 246.684 388.068 246.711 387.74C246.766 387.248 246.875 386.92 247.039 386.756C247.203 386.564 247.477 386.469 247.859 386.469H249.171C250.019 386.469 250.716 386.551 251.262 386.715C251.809 386.879 252.233 387.111 252.533 387.412C252.861 387.712 253.08 388.081 253.189 388.519C253.326 388.929 253.394 389.407 253.394 389.954ZM289.622 405.698C289.622 405.834 289.554 406.108 289.417 406.518C289.281 406.928 289.062 407.351 288.761 407.789C288.461 408.226 288.078 408.609 287.613 408.937C287.176 409.265 286.643 409.429 286.014 409.429C285.276 409.429 284.538 409.183 283.8 408.691C283.09 408.199 282.379 407.529 281.668 406.682C280.958 405.834 280.233 404.837 279.495 403.689C278.785 402.513 278.06 401.242 277.322 399.876C277.213 401.324 277.104 402.746 276.994 404.14C276.885 405.534 276.776 406.887 276.666 408.199C276.639 408.527 276.571 408.745 276.461 408.855C276.352 408.964 276.12 409.019 275.764 409.019H274.288C273.441 409.019 272.744 408.937 272.197 408.773C271.651 408.581 271.227 408.322 270.926 407.994C270.626 407.666 270.407 407.256 270.27 406.764C270.161 406.244 270.106 405.657 270.106 405.001C270.106 404.673 270.12 404.331 270.147 403.976C270.175 403.62 270.216 403.115 270.27 402.459C270.325 401.803 270.393 400.942 270.475 399.876C270.585 398.81 270.708 397.402 270.844 395.653C270.981 393.903 271.131 391.758 271.295 389.216C271.487 386.646 271.692 383.53 271.91 379.868C271.938 379.266 272.006 378.911 272.115 378.802C272.197 378.72 272.416 378.679 272.771 378.679H274.37C275.218 378.679 275.915 378.774 276.461 378.966C277.008 379.157 277.445 379.417 277.773 379.745C278.101 380.073 278.32 380.455 278.429 380.893C278.566 381.33 278.634 381.781 278.634 382.246C278.634 382.519 278.607 382.984 278.552 383.64C278.525 384.268 278.484 385.047 278.429 385.977C278.375 386.879 278.293 387.904 278.183 389.052C278.101 390.2 278.019 391.402 277.937 392.66L284.497 386.674C284.743 386.455 284.962 386.305 285.153 386.223C285.372 386.141 285.536 386.1 285.645 386.1C285.946 386.1 286.274 386.291 286.629 386.674C286.985 387.056 287.313 387.507 287.613 388.027C287.941 388.519 288.201 389.038 288.392 389.585C288.611 390.104 288.72 390.528 288.72 390.856C288.72 391.648 288.078 392.482 286.793 393.357C285.536 394.231 283.623 395.215 281.053 396.309C282.201 397.593 283.295 398.769 284.333 399.835C285.372 400.901 286.274 401.844 287.039 402.664C287.832 403.484 288.461 404.153 288.925 404.673C289.39 405.192 289.622 405.534 289.622 405.698ZM291.019 403.976C291.019 401.516 292.126 399.589 294.34 398.195C296.554 396.801 299.82 396.049 304.139 395.94C304.166 395.639 304.18 395.393 304.18 395.202C304.207 394.983 304.221 394.723 304.221 394.423C304.221 393.548 304.057 392.851 303.729 392.332C303.401 391.812 302.718 391.553 301.679 391.553C301.105 391.553 300.64 391.635 300.285 391.799C299.93 391.963 299.643 392.195 299.424 392.496C299.205 392.769 299.028 393.111 298.891 393.521C298.754 393.931 298.631 394.382 298.522 394.874C298.467 395.12 298.344 395.284 298.153 395.366C297.962 395.42 297.661 395.448 297.251 395.448C294.463 395.448 293.069 394.395 293.069 392.291C293.069 391.443 293.26 390.637 293.643 389.872C294.053 389.106 294.641 388.45 295.406 387.904C296.199 387.33 297.183 386.879 298.358 386.551C299.533 386.223 300.9 386.059 302.458 386.059C305.492 386.059 307.692 386.687 309.059 387.945C310.426 389.202 311.109 390.979 311.109 393.275C311.109 393.575 311.068 394.122 310.986 394.915C310.931 395.68 310.849 396.5 310.74 397.375C310.658 398.222 310.576 399.028 310.494 399.794C310.439 400.559 310.412 401.092 310.412 401.393C310.412 402.076 310.535 402.568 310.781 402.869C311.027 403.142 311.3 403.333 311.601 403.443C311.929 403.552 312.216 403.634 312.462 403.689C312.708 403.743 312.831 403.88 312.831 404.099C312.831 404.7 312.749 405.315 312.585 405.944C312.421 406.572 312.148 407.146 311.765 407.666C311.41 408.185 310.904 408.609 310.248 408.937C309.619 409.265 308.84 409.429 307.911 409.429C306.599 409.429 305.615 409.114 304.959 408.486C304.303 407.857 303.866 406.982 303.647 405.862C302.991 406.818 302.13 407.652 301.064 408.363C300.025 409.073 298.659 409.429 296.964 409.429C296.144 409.429 295.365 409.333 294.627 409.142C293.916 408.95 293.288 408.636 292.741 408.199C292.222 407.761 291.798 407.201 291.47 406.518C291.169 405.807 291.019 404.96 291.019 403.976ZM303.77 399.302C303.059 399.302 302.362 399.356 301.679 399.466C300.996 399.575 300.381 399.753 299.834 399.999C299.315 400.217 298.891 400.518 298.563 400.901C298.235 401.283 298.071 401.748 298.071 402.295C298.071 402.923 298.262 403.361 298.645 403.607C299.055 403.853 299.492 403.976 299.957 403.976C300.394 403.976 300.832 403.88 301.269 403.689C301.706 403.497 302.089 403.21 302.417 402.828C302.772 402.418 303.073 401.926 303.319 401.352C303.565 400.778 303.715 400.094 303.77 399.302ZM329.333 405.411C329.333 404.809 329.374 404.03 329.456 403.074C329.565 402.09 329.661 401.065 329.743 399.999C329.852 398.905 329.948 397.853 330.03 396.842C330.139 395.83 330.194 394.983 330.194 394.3C330.194 393.589 330.016 392.96 329.661 392.414C329.333 391.84 328.677 391.553 327.693 391.553C326.736 391.553 325.943 391.785 325.315 392.25C324.686 392.714 324.153 393.562 323.716 394.792C323.306 396.022 322.964 397.716 322.691 399.876C322.417 402.035 322.158 404.809 321.912 408.199C321.884 408.527 321.816 408.745 321.707 408.855C321.597 408.964 321.365 409.019 321.01 409.019H319.534C318.686 409.019 317.989 408.937 317.443 408.773C316.923 408.581 316.5 408.322 316.172 407.994C315.871 407.666 315.652 407.269 315.516 406.805C315.406 406.313 315.352 405.752 315.352 405.124C315.352 404.714 315.365 404.14 315.393 403.402C315.447 402.636 315.529 401.598 315.639 400.286C315.748 398.946 315.871 397.265 316.008 395.243C316.172 393.193 316.363 390.664 316.582 387.658C316.609 387.056 316.677 386.701 316.787 386.592C316.869 386.51 317.087 386.469 317.443 386.469H319.042C319.862 386.469 320.531 386.564 321.051 386.756C321.597 386.947 322.035 387.207 322.363 387.535C322.691 387.835 322.923 388.204 323.06 388.642C323.196 389.052 323.278 389.475 323.306 389.913C324.153 388.464 325.123 387.466 326.217 386.92C327.31 386.346 328.677 386.059 330.317 386.059C331.465 386.059 332.462 386.182 333.31 386.428C334.157 386.674 334.854 387.097 335.401 387.699C335.975 388.273 336.398 389.038 336.672 389.995C336.945 390.924 337.082 392.086 337.082 393.48C337.082 393.917 337.054 394.546 337 395.366C336.945 396.186 336.877 397.088 336.795 398.072C336.713 399.028 336.617 400.04 336.508 401.106C336.426 402.144 336.344 403.115 336.262 404.017C336.18 404.919 336.111 405.711 336.057 406.395C336.002 407.078 335.975 407.529 335.975 407.748C335.975 408.349 335.906 408.718 335.77 408.855C335.633 408.964 335.332 409.019 334.868 409.019H333.556C332.681 409.019 331.97 408.937 331.424 408.773C330.877 408.609 330.453 408.376 330.153 408.076C329.852 407.775 329.633 407.406 329.497 406.969C329.387 406.504 329.333 405.985 329.333 405.411Z" fill="#6614BE"/>
<path d="M71.7896 467.569V288.28L1.00008 227.184V493.567L71.7896 467.569Z" fill="#A96EE4" stroke="#6E22A9" stroke-width="2"/>
</svg>
