<svg width="1863" height="1921" viewBox="0 0 1863 1921" fill="none" xmlns="http://www.w3.org/2000/svg">
<path d="M1082.82 1195.52H1172.28C1175.87 1195.52 1178.65 1198.65 1178.24 1202.21L1135.46 1571.63C1134.99 1575.67 1130.72 1578.09 1127.01 1576.4L1107.51 1567.54C1105.52 1566.63 1104.18 1564.71 1104.01 1562.53L1076.84 1201.97C1076.58 1198.49 1079.33 1195.52 1082.82 1195.52Z" stroke="black" stroke-width="4"/>
<path d="M1178.87 1225.24H1269.88C1273.47 1225.24 1276.25 1228.38 1275.84 1231.94L1232.42 1601.43C1231.94 1605.46 1227.7 1607.87 1224.01 1606.21L1203.99 1597.24C1201.98 1596.35 1200.63 1594.42 1200.46 1592.23L1172.89 1231.7C1172.62 1228.22 1175.38 1225.24 1178.87 1225.24Z" stroke="black" stroke-width="4"/>
<path d="M213.662 1199.77H292.339C295.886 1199.77 298.659 1202.83 298.31 1206.36L259.917 1594.74C259.497 1598.99 254.896 1601.45 251.126 1599.45L235.282 1591.01C233.446 1590.03 232.247 1588.17 232.114 1586.1L207.674 1206.15C207.452 1202.69 210.197 1199.77 213.662 1199.77Z" stroke="black" stroke-width="4"/>
<path d="M301.819 1228.07H378.945C382.488 1228.07 385.26 1231.13 384.917 1234.65L347.163 1622.94C346.747 1627.21 342.11 1629.68 338.335 1627.64L323.004 1619.34C321.186 1618.35 320.003 1616.5 319.872 1614.44L295.831 1234.45C295.612 1231 298.356 1228.07 301.819 1228.07Z" stroke="black" stroke-width="4"/>
<path d="M1329.32 1243.89H221.042L179.836 1200.84L1231.35 1185.61H1231.36H1273.97L1329.32 1243.89Z" fill="#6B4396" stroke="#4F0886" stroke-width="4"/>
<path d="M891.506 1186.66H1156.07V1191.3H896.142C893.581 1191.3 891.506 1189.22 891.506 1186.66V1186.66Z" fill="#F5E22F"/>
<path d="M891.506 1161.93C891.506 1159.37 893.581 1157.3 896.142 1157.3H1156.07V1161.93H891.506V1161.93Z" fill="#F5E22F"/>
<path d="M891.506 1160.39H1156.07V1188.2H891.506V1160.39Z" fill="#FBF8F8"/>
<path d="M896.451 1191.3C893.72 1191.3 891.506 1189.08 891.506 1186.35V1162.25C891.506 1159.51 893.72 1157.3 896.451 1157.3V1157.3V1191.3V1191.3Z" fill="#F5E22F"/>
<line x1="901.395" y1="1163.38" x2="1153.6" y2="1163.38" stroke="#DDDDDD" stroke-width="0.2"/>
<line x1="901.395" y1="1166.47" x2="1153.6" y2="1166.47" stroke="#DDDDDD" stroke-width="0.2"/>
<line x1="901.395" y1="1169.56" x2="1153.6" y2="1169.56" stroke="#DDDDDD" stroke-width="0.2"/>
<line x1="901.395" y1="1172.65" x2="1153.6" y2="1172.65" stroke="#DDDDDD" stroke-width="0.2"/>
<line x1="901.395" y1="1175.75" x2="1153.6" y2="1175.75" stroke="#DDDDDD" stroke-width="0.2"/>
<line x1="901.395" y1="1178.83" x2="1153.6" y2="1178.83" stroke="#DDDDDD" stroke-width="0.2"/>
<line x1="901.395" y1="1181.93" x2="1153.6" y2="1181.93" stroke="#DDDDDD" stroke-width="0.2"/>
<line x1="901.395" y1="1185.02" x2="1153.6" y2="1185.02" stroke="#DDDDDD" stroke-width="0.2"/>
<path d="M891.506 1215.31H1202.76V1219.11H895.299C893.204 1219.11 891.506 1217.41 891.506 1215.31V1215.31Z" fill="#ED1C24"/>
<path d="M891.506 1195.09C891.506 1192.99 893.204 1191.29 895.299 1191.29H1202.76V1195.09H891.506V1195.09Z" fill="#ED1C24"/>
<path d="M891.506 1193.82H1202.76V1216.58H891.506V1193.82Z" fill="#FBF8F8"/>
<path d="M897.324 1219.11C894.111 1219.11 891.506 1216.5 891.506 1213.29V1197.11C891.506 1193.9 894.111 1191.29 897.324 1191.29V1191.29V1219.11V1219.11Z" fill="#ED1C24"/>
<line x1="903.145" y1="1196.26" x2="1199.86" y2="1196.26" stroke="#DDDDDD" stroke-width="0.2"/>
<line x1="903.145" y1="1198.78" x2="1199.86" y2="1198.78" stroke="#DDDDDD" stroke-width="0.2"/>
<line x1="903.145" y1="1201.31" x2="1199.86" y2="1201.31" stroke="#DDDDDD" stroke-width="0.2"/>
<line x1="903.145" y1="1203.84" x2="1199.86" y2="1203.84" stroke="#DDDDDD" stroke-width="0.2"/>
<line x1="903.145" y1="1206.37" x2="1199.86" y2="1206.37" stroke="#DDDDDD" stroke-width="0.2"/>
<line x1="903.145" y1="1208.9" x2="1199.86" y2="1208.9" stroke="#DDDDDD" stroke-width="0.2"/>
<line x1="903.145" y1="1211.43" x2="1199.86" y2="1211.43" stroke="#DDDDDD" stroke-width="0.2"/>
<line x1="903.145" y1="1213.95" x2="1199.86" y2="1213.95" stroke="#DDDDDD" stroke-width="0.2"/>
<path d="M891.506 1153.93H1140.51V1157.3H894.877C893.015 1157.3 891.506 1155.79 891.506 1153.93V1153.93Z" fill="#53CB29"/>
<path d="M891.506 1135.95C891.506 1134.09 893.015 1132.58 894.877 1132.58H1140.51V1135.95H891.506V1135.95Z" fill="#53CB29"/>
<path d="M891.506 1134.83H1140.51V1155.06H891.506V1134.83Z" fill="#FBF8F8"/>
<path d="M896.16 1157.3C893.59 1157.3 891.506 1155.22 891.506 1152.65V1137.23C891.506 1134.66 893.59 1132.58 896.16 1132.58V1132.58V1157.3V1157.3Z" fill="#53CB29"/>
<line x1="900.814" y1="1136.97" x2="1138.18" y2="1136.97" stroke="#DDDDDD" stroke-width="0.2"/>
<line x1="900.814" y1="1139.22" x2="1138.18" y2="1139.22" stroke="#DDDDDD" stroke-width="0.2"/>
<line x1="900.814" y1="1141.47" x2="1138.18" y2="1141.47" stroke="#DDDDDD" stroke-width="0.2"/>
<line x1="900.814" y1="1143.72" x2="1138.18" y2="1143.72" stroke="#DDDDDD" stroke-width="0.2"/>
<line x1="900.814" y1="1145.96" x2="1138.18" y2="1145.96" stroke="#DDDDDD" stroke-width="0.2"/>
<line x1="900.814" y1="1148.21" x2="1138.18" y2="1148.21" stroke="#DDDDDD" stroke-width="0.2"/>
<line x1="900.814" y1="1150.46" x2="1138.18" y2="1150.46" stroke="#DDDDDD" stroke-width="0.2"/>
<line x1="900.814" y1="1152.71" x2="1138.18" y2="1152.71" stroke="#DDDDDD" stroke-width="0.2"/>
<g filter="url(#filter0_d_1345_529)">
<path d="M1767 540.451C1767 748.121 1447.76 775.519 1167.64 715.777C686.511 890.854 360 795.178 360 587.507C392.742 164.924 487.33 -2.49053 1007.57 72.1855C1405.02 -190.501 1767 332.78 1767 540.451Z" fill="#FAFAFA"/>
</g>
<path d="M546.379 405L542.579 460.5C542.512 461.5 542.146 462 541.479 462H535.979C532.246 462 529.579 461.267 527.979 459.8C526.379 458.333 525.579 456.233 525.579 453.5C525.579 452.5 525.612 451 525.679 449C525.812 447 525.979 444.667 526.179 442C526.379 439.267 526.579 436.333 526.779 433.2C527.046 430 527.312 426.8 527.579 423.6C527.846 420.333 528.079 417.1 528.279 413.9C528.546 410.7 528.779 407.733 528.979 405H512.979C512.246 405 511.879 404.533 511.879 403.6L512.179 398C512.246 397.133 512.379 396.3 512.579 395.5C512.846 394.633 513.246 393.867 513.779 393.2C514.312 392.533 514.979 392 515.779 391.6C516.646 391.2 517.679 391 518.879 391H563.579C563.979 391 564.346 391.1 564.679 391.3C565.012 391.5 565.179 391.867 565.179 392.4L564.779 398.3C564.646 400.3 564.079 401.933 563.079 403.2C562.146 404.4 560.179 405 557.179 405H546.379ZM577.673 462C575.607 462 573.907 461.8 572.573 461.4C571.307 460.933 570.273 460.3 569.473 459.5C568.74 458.7 568.207 457.733 567.873 456.6C567.607 455.4 567.473 454.033 567.473 452.5C567.473 451.5 567.507 450.1 567.573 448.3C567.707 446.433 567.907 443.9 568.173 440.7C568.44 437.433 568.74 433.333 569.073 428.4C569.473 423.4 569.94 417.233 570.473 409.9C570.54 408.433 570.707 407.567 570.973 407.3C571.173 407.1 571.707 407 572.573 407H576.473C578.54 407 580.207 407.2 581.473 407.6C582.807 408 583.84 408.6 584.573 409.4C585.373 410.2 585.907 411.167 586.173 412.3C586.507 413.433 586.673 414.7 586.673 416.1C586.673 417.1 586.607 418.6 586.473 420.6C586.34 422.6 586.14 425.333 585.873 428.8C585.673 432.2 585.373 436.467 584.973 441.6C584.573 446.667 584.073 452.8 583.473 460C583.407 460.8 583.24 461.333 582.973 461.6C582.707 461.867 582.14 462 581.273 462H577.673ZM570.573 395.2C570.573 392.533 571.54 390.433 573.473 388.9C575.407 387.367 578.007 386.6 581.273 386.6C584.14 386.6 586.207 387.2 587.473 388.4C588.807 389.533 589.473 391.067 589.473 393C589.473 395.467 588.54 397.533 586.673 399.2C584.873 400.8 582.207 401.6 578.673 401.6C573.273 401.6 570.573 399.467 570.573 395.2ZM613.798 463C611.198 463 608.698 462.533 606.298 461.6C603.965 460.667 601.898 459.2 600.098 457.2C598.365 455.2 596.965 452.667 595.898 449.6C594.898 446.533 594.398 442.833 594.398 438.5C594.398 436.567 594.532 434.433 594.798 432.1C595.065 429.7 595.532 427.3 596.198 424.9C596.865 422.5 597.798 420.167 598.998 417.9C600.198 415.633 601.698 413.633 603.498 411.9C605.365 410.1 607.565 408.667 610.098 407.6C612.698 406.533 615.732 406 619.198 406C622.532 406 625.198 406.6 627.198 407.8C629.265 408.933 630.565 410.933 631.098 413.8C631.232 411.2 631.365 408.933 631.498 407C631.632 405.067 631.732 403.267 631.798 401.6C631.932 399.933 632.065 398.267 632.198 396.6C632.332 394.933 632.465 393.033 632.598 390.9C632.665 389.433 632.832 388.567 633.098 388.3C633.232 388.167 633.398 388.1 633.598 388.1C633.798 388.033 634.165 388 634.698 388H638.598C640.598 388 642.265 388.233 643.598 388.7C644.932 389.167 645.998 389.8 646.798 390.6C647.598 391.4 648.165 392.333 648.498 393.4C648.832 394.4 648.998 395.467 648.998 396.6C648.998 396.6 648.932 397.433 648.798 399.1C648.665 400.767 648.498 403 648.298 405.8C648.098 408.533 647.865 411.667 647.598 415.2C647.332 418.733 647.065 422.4 646.798 426.2C646.532 429.933 646.265 433.667 645.998 437.4C645.732 441.067 645.465 444.467 645.198 447.6C644.932 450.667 644.698 453.333 644.498 455.6C644.365 457.8 644.265 459.267 644.198 460C644.065 460.8 643.898 461.333 643.698 461.6C643.498 461.867 642.932 462 641.998 462H638.398C636.998 462 635.665 461.9 634.398 461.7C633.198 461.433 632.132 461.033 631.198 460.5C630.332 459.9 629.632 459.133 629.098 458.2C628.632 457.2 628.398 455.933 628.398 454.4C627.198 456.933 625.365 459 622.898 460.6C620.498 462.2 617.465 463 613.798 463ZM622.498 419.3C619.098 419.3 616.565 420.8 614.898 423.8C613.298 426.733 612.498 430.7 612.498 435.7C612.498 437.433 612.598 439.133 612.798 440.8C613.065 442.467 613.498 443.967 614.098 445.3C614.698 446.633 615.498 447.7 616.498 448.5C617.565 449.3 618.898 449.7 620.498 449.7C623.365 449.7 625.765 448.3 627.698 445.5C629.632 442.7 630.598 438.3 630.598 432.3C630.598 430.633 630.498 429.033 630.298 427.5C630.098 425.9 629.698 424.5 629.098 423.3C628.498 422.1 627.665 421.133 626.598 420.4C625.532 419.667 624.165 419.3 622.498 419.3ZM653.338 449.7C653.338 443.7 656.038 439 661.438 435.6C666.838 432.2 674.805 430.367 685.338 430.1C685.405 429.367 685.438 428.767 685.438 428.3C685.505 427.767 685.538 427.133 685.538 426.4C685.538 424.267 685.138 422.567 684.338 421.3C683.538 420.033 681.872 419.4 679.338 419.4C677.938 419.4 676.805 419.6 675.938 420C675.072 420.4 674.372 420.967 673.838 421.7C673.305 422.367 672.872 423.2 672.538 424.2C672.205 425.2 671.905 426.3 671.638 427.5C671.505 428.1 671.205 428.5 670.738 428.7C670.272 428.833 669.538 428.9 668.538 428.9C661.738 428.9 658.338 426.333 658.338 421.2C658.338 419.133 658.805 417.167 659.738 415.3C660.738 413.433 662.172 411.833 664.038 410.5C665.972 409.1 668.372 408 671.238 407.2C674.105 406.4 677.438 406 681.238 406C688.638 406 694.005 407.533 697.338 410.6C700.672 413.667 702.338 418 702.338 423.6C702.338 424.333 702.238 425.667 702.038 427.6C701.905 429.467 701.705 431.467 701.438 433.6C701.238 435.667 701.038 437.633 700.838 439.5C700.705 441.367 700.638 442.667 700.638 443.4C700.638 445.067 700.938 446.267 701.538 447C702.138 447.667 702.805 448.133 703.538 448.4C704.338 448.667 705.038 448.867 705.638 449C706.238 449.133 706.538 449.467 706.538 450C706.538 451.467 706.338 452.967 705.938 454.5C705.538 456.033 704.872 457.433 703.938 458.7C703.072 459.967 701.838 461 700.238 461.8C698.705 462.6 696.805 463 694.538 463C691.338 463 688.938 462.233 687.338 460.7C685.738 459.167 684.672 457.033 684.138 454.3C682.538 456.633 680.438 458.667 677.838 460.4C675.305 462.133 671.972 463 667.838 463C665.838 463 663.938 462.767 662.138 462.3C660.405 461.833 658.872 461.067 657.538 460C656.272 458.933 655.238 457.567 654.438 455.9C653.705 454.167 653.338 452.1 653.338 449.7ZM684.438 438.3C682.705 438.3 681.005 438.433 679.338 438.7C677.672 438.967 676.172 439.4 674.838 440C673.572 440.533 672.538 441.267 671.738 442.2C670.938 443.133 670.538 444.267 670.538 445.6C670.538 447.133 671.005 448.2 671.938 448.8C672.938 449.4 674.005 449.7 675.138 449.7C676.205 449.7 677.272 449.467 678.338 449C679.405 448.533 680.338 447.833 681.138 446.9C682.005 445.9 682.738 444.7 683.338 443.3C683.938 441.9 684.305 440.233 684.438 438.3ZM760.186 453.9C760.186 454.233 760.019 454.9 759.686 455.9C759.353 456.9 758.819 457.933 758.086 459C757.353 460.067 756.419 461 755.286 461.8C754.219 462.6 752.919 463 751.386 463C749.586 463 747.786 462.4 745.986 461.2C744.253 460 742.519 458.367 740.786 456.3C739.053 454.233 737.286 451.8 735.486 449C733.753 446.133 731.986 443.033 730.186 439.7C729.919 443.233 729.653 446.7 729.386 450.1C729.119 453.5 728.853 456.8 728.586 460C728.519 460.8 728.353 461.333 728.086 461.6C727.819 461.867 727.253 462 726.386 462H722.786C720.719 462 719.019 461.8 717.686 461.4C716.353 460.933 715.319 460.3 714.586 459.5C713.853 458.7 713.319 457.7 712.986 456.5C712.719 455.233 712.586 453.8 712.586 452.2C712.586 451.4 712.619 450.567 712.686 449.7C712.753 448.833 712.853 447.6 712.986 446C713.119 444.4 713.286 442.3 713.486 439.7C713.753 437.1 714.053 433.667 714.386 429.4C714.719 425.133 715.086 419.9 715.486 413.7C715.953 407.433 716.453 399.833 716.986 390.9C717.053 389.433 717.219 388.567 717.486 388.3C717.686 388.1 718.219 388 719.086 388H722.986C725.053 388 726.753 388.233 728.086 388.7C729.419 389.167 730.486 389.8 731.286 390.6C732.086 391.4 732.619 392.333 732.886 393.4C733.219 394.467 733.386 395.567 733.386 396.7C733.386 397.367 733.319 398.5 733.186 400.1C733.119 401.633 733.019 403.533 732.886 405.8C732.753 408 732.553 410.5 732.286 413.3C732.086 416.1 731.886 419.033 731.686 422.1L747.686 407.5C748.286 406.967 748.819 406.6 749.286 406.4C749.819 406.2 750.219 406.1 750.486 406.1C751.219 406.1 752.019 406.567 752.886 407.5C753.753 408.433 754.553 409.533 755.286 410.8C756.086 412 756.719 413.267 757.186 414.6C757.719 415.867 757.986 416.9 757.986 417.7C757.986 419.633 756.419 421.667 753.286 423.8C750.219 425.933 745.553 428.333 739.286 431C742.086 434.133 744.753 437 747.286 439.6C749.819 442.2 752.019 444.5 753.886 446.5C755.819 448.5 757.353 450.133 758.486 451.4C759.619 452.667 760.186 453.5 760.186 453.9ZM818.428 391C820.095 391 821.461 391.333 822.528 392C823.661 392.6 824.595 393.433 825.328 394.5C826.061 395.5 826.661 396.667 827.128 398C827.595 399.333 827.995 400.7 828.328 402.1C830.995 412.9 833.195 421.8 834.928 428.8C836.661 435.8 838.028 441.467 839.028 445.8C840.028 450.067 840.728 453.233 841.128 455.3C841.528 457.367 841.728 458.8 841.728 459.6C841.728 460.533 841.495 461.167 841.028 461.5C840.628 461.833 839.961 462 839.028 462H833.928C831.061 462 828.761 461.667 827.028 461C825.361 460.267 824.061 459.233 823.128 457.9C822.261 456.567 821.628 454.967 821.228 453.1C820.828 451.167 820.495 449 820.228 446.6H802.828L799.528 460.4C799.195 461.467 798.428 462 797.228 462H791.928C790.861 462 789.761 461.9 788.628 461.7C787.495 461.433 786.461 461.033 785.528 460.5C784.661 459.967 783.928 459.3 783.328 458.5C782.728 457.633 782.428 456.6 782.428 455.4C782.428 453.933 782.895 451.533 783.828 448.2C784.761 444.867 785.928 441.1 787.328 436.9C788.795 432.633 790.395 428.2 792.128 423.6C793.928 418.933 795.661 414.533 797.328 410.4C798.995 406.267 800.495 402.633 801.828 399.5C803.228 396.367 804.295 394.167 805.028 392.9C805.561 391.967 806.028 391.433 806.428 391.3C806.895 391.1 807.728 391 808.928 391H818.428ZM806.428 432.1H817.928L813.728 405.7L806.428 432.1ZM865.556 463C862.956 463 860.456 462.533 858.056 461.6C855.723 460.667 853.656 459.2 851.856 457.2C850.123 455.2 848.723 452.667 847.656 449.6C846.656 446.533 846.156 442.833 846.156 438.5C846.156 436.567 846.29 434.433 846.556 432.1C846.823 429.7 847.29 427.3 847.956 424.9C848.623 422.5 849.556 420.167 850.756 417.9C851.956 415.633 853.456 413.633 855.256 411.9C857.123 410.1 859.323 408.667 861.856 407.6C864.456 406.533 867.49 406 870.956 406C874.29 406 876.956 406.6 878.956 407.8C881.023 408.933 882.323 410.933 882.856 413.8C882.99 411.2 883.123 408.933 883.256 407C883.39 405.067 883.49 403.267 883.556 401.6C883.69 399.933 883.823 398.267 883.956 396.6C884.09 394.933 884.223 393.033 884.356 390.9C884.423 389.433 884.59 388.567 884.856 388.3C884.99 388.167 885.156 388.1 885.356 388.1C885.556 388.033 885.923 388 886.456 388H890.356C892.356 388 894.023 388.233 895.356 388.7C896.69 389.167 897.756 389.8 898.556 390.6C899.356 391.4 899.923 392.333 900.256 393.4C900.59 394.4 900.756 395.467 900.756 396.6C900.756 396.6 900.69 397.433 900.556 399.1C900.423 400.767 900.256 403 900.056 405.8C899.856 408.533 899.623 411.667 899.356 415.2C899.09 418.733 898.823 422.4 898.556 426.2C898.29 429.933 898.023 433.667 897.756 437.4C897.49 441.067 897.223 444.467 896.956 447.6C896.69 450.667 896.456 453.333 896.256 455.6C896.123 457.8 896.023 459.267 895.956 460C895.823 460.8 895.656 461.333 895.456 461.6C895.256 461.867 894.69 462 893.756 462H890.156C888.756 462 887.423 461.9 886.156 461.7C884.956 461.433 883.89 461.033 882.956 460.5C882.09 459.9 881.39 459.133 880.856 458.2C880.39 457.2 880.156 455.933 880.156 454.4C878.956 456.933 877.123 459 874.656 460.6C872.256 462.2 869.223 463 865.556 463ZM874.256 419.3C870.856 419.3 868.323 420.8 866.656 423.8C865.056 426.733 864.256 430.7 864.256 435.7C864.256 437.433 864.356 439.133 864.556 440.8C864.823 442.467 865.256 443.967 865.856 445.3C866.456 446.633 867.256 447.7 868.256 448.5C869.323 449.3 870.656 449.7 872.256 449.7C875.123 449.7 877.523 448.3 879.456 445.5C881.39 442.7 882.356 438.3 882.356 432.3C882.356 430.633 882.256 429.033 882.056 427.5C881.856 425.9 881.456 424.5 880.856 423.3C880.256 422.1 879.423 421.133 878.356 420.4C877.29 419.667 875.923 419.3 874.256 419.3ZM905.096 449.7C905.096 443.7 907.796 439 913.196 435.6C918.596 432.2 926.563 430.367 937.096 430.1C937.163 429.367 937.196 428.767 937.196 428.3C937.263 427.767 937.296 427.133 937.296 426.4C937.296 424.267 936.896 422.567 936.096 421.3C935.296 420.033 933.629 419.4 931.096 419.4C929.696 419.4 928.563 419.6 927.696 420C926.829 420.4 926.129 420.967 925.596 421.7C925.063 422.367 924.629 423.2 924.296 424.2C923.963 425.2 923.663 426.3 923.396 427.5C923.263 428.1 922.963 428.5 922.496 428.7C922.029 428.833 921.296 428.9 920.296 428.9C913.496 428.9 910.096 426.333 910.096 421.2C910.096 419.133 910.563 417.167 911.496 415.3C912.496 413.433 913.929 411.833 915.796 410.5C917.729 409.1 920.129 408 922.996 407.2C925.863 406.4 929.196 406 932.996 406C940.396 406 945.763 407.533 949.096 410.6C952.429 413.667 954.096 418 954.096 423.6C954.096 424.333 953.996 425.667 953.796 427.6C953.663 429.467 953.463 431.467 953.196 433.6C952.996 435.667 952.796 437.633 952.596 439.5C952.463 441.367 952.396 442.667 952.396 443.4C952.396 445.067 952.696 446.267 953.296 447C953.896 447.667 954.563 448.133 955.296 448.4C956.096 448.667 956.796 448.867 957.396 449C957.996 449.133 958.296 449.467 958.296 450C958.296 451.467 958.096 452.967 957.696 454.5C957.296 456.033 956.629 457.433 955.696 458.7C954.829 459.967 953.596 461 951.996 461.8C950.463 462.6 948.563 463 946.296 463C943.096 463 940.696 462.233 939.096 460.7C937.496 459.167 936.429 457.033 935.896 454.3C934.296 456.633 932.196 458.667 929.596 460.4C927.063 462.133 923.729 463 919.596 463C917.596 463 915.696 462.767 913.896 462.3C912.163 461.833 910.629 461.067 909.296 460C908.029 458.933 906.996 457.567 906.196 455.9C905.463 454.167 905.096 452.1 905.096 449.7ZM936.196 438.3C934.463 438.3 932.763 438.433 931.096 438.7C929.429 438.967 927.929 439.4 926.596 440C925.329 440.533 924.296 441.267 923.496 442.2C922.696 443.133 922.296 444.267 922.296 445.6C922.296 447.133 922.763 448.2 923.696 448.8C924.696 449.4 925.763 449.7 926.896 449.7C927.963 449.7 929.029 449.467 930.096 449C931.163 448.533 932.096 447.833 932.896 446.9C933.763 445.9 934.496 444.7 935.096 443.3C935.696 441.9 936.063 440.233 936.196 438.3ZM995.668 462C991.868 462 989.168 461.267 987.568 459.8C986.035 458.267 985.268 456.033 985.268 453.1C985.268 452.233 985.301 450.867 985.368 449C985.501 447.067 985.668 444.8 985.868 442.2C986.068 439.6 986.268 436.767 986.468 433.7C986.735 430.633 987.001 427.5 987.268 424.3C987.601 420.367 987.868 417 988.068 414.2C988.335 411.333 988.535 408.9 988.668 406.9C988.801 404.833 988.901 403.133 988.968 401.8C989.101 400.4 989.168 399.2 989.168 398.2C989.235 397.133 989.268 396.167 989.268 395.3C989.335 394.433 989.368 393.5 989.368 392.5C989.368 391.967 989.535 391.6 989.868 391.4C990.201 391.133 990.535 391 990.868 391C992.601 391 994.501 390.967 996.568 390.9C998.635 390.767 1000.7 390.633 1002.77 390.5C1004.83 390.367 1006.83 390.267 1008.77 390.2C1010.7 390.067 1012.4 390 1013.87 390C1018.13 390 1021.8 390.533 1024.87 391.6C1027.93 392.6 1030.4 394.1 1032.27 396.1C1034.2 398.033 1035.6 400.4 1036.47 403.2C1037.4 406 1037.87 409.2 1037.87 412.8C1037.87 416.733 1037.33 420.533 1036.27 424.2C1035.27 427.8 1033.67 431 1031.47 433.8C1029.27 436.6 1026.43 438.833 1022.97 440.5C1019.5 442.167 1015.37 443 1010.57 443C1007.7 443 1005.27 442.7 1003.27 442.1L1001.87 460.5C1001.8 461.033 1001.67 461.433 1001.47 461.7C1001.27 461.9 1000.87 462 1000.27 462H995.668ZM1011.87 405C1011 405 1010.03 405.067 1008.97 405.2C1007.9 405.267 1006.77 405.367 1005.57 405.5C1005.43 408.3 1005.27 411.7 1005.07 415.7C1004.87 419.7 1004.6 423.9 1004.27 428.3C1005.27 428.567 1006.23 428.767 1007.17 428.9C1008.17 428.967 1009.07 429 1009.87 429C1012.2 429 1014.07 428.467 1015.47 427.4C1016.93 426.267 1018.07 424.9 1018.87 423.3C1019.67 421.7 1020.2 420.033 1020.47 418.3C1020.73 416.567 1020.87 415.067 1020.87 413.8C1020.87 410.933 1020.2 408.767 1018.87 407.3C1017.6 405.767 1015.27 405 1011.87 405ZM1066.16 463C1063.22 463 1060.29 462.633 1057.36 461.9C1054.49 461.167 1051.89 459.9 1049.56 458.1C1047.29 456.3 1045.42 453.9 1043.96 450.9C1042.49 447.9 1041.76 444.133 1041.76 439.6C1041.76 437.933 1041.89 435.933 1042.16 433.6C1042.42 431.267 1042.92 428.867 1043.66 426.4C1044.46 423.933 1045.52 421.5 1046.86 419.1C1048.26 416.633 1050.06 414.433 1052.26 412.5C1054.46 410.567 1057.12 409 1060.26 407.8C1063.39 406.6 1067.12 406 1071.46 406C1074.92 406 1077.86 406.4 1080.26 407.2C1082.66 408 1084.59 409.1 1086.06 410.5C1087.52 411.833 1088.59 413.4 1089.26 415.2C1089.92 417 1090.26 418.933 1090.26 421C1090.26 424.067 1089.62 426.667 1088.36 428.8C1087.16 430.933 1085.56 432.733 1083.56 434.2C1081.62 435.6 1079.46 436.7 1077.06 437.5C1074.66 438.3 1072.29 438.933 1069.96 439.4C1067.62 439.8 1065.46 440.067 1063.46 440.2C1061.52 440.267 1060.02 440.3 1058.96 440.3C1058.96 441.567 1059.12 442.833 1059.46 444.1C1059.86 445.3 1060.42 446.367 1061.16 447.3C1061.89 448.233 1062.86 449 1064.06 449.6C1065.26 450.2 1066.72 450.5 1068.46 450.5C1070.19 450.5 1071.52 450.233 1072.46 449.7C1073.46 449.1 1074.26 448.467 1074.86 447.8C1075.46 447.067 1075.96 446.433 1076.36 445.9C1076.82 445.3 1077.42 445 1078.16 445C1078.49 445 1079.06 445.1 1079.86 445.3C1080.72 445.433 1081.59 445.767 1082.46 446.3C1083.32 446.833 1084.09 447.567 1084.76 448.5C1085.42 449.433 1085.76 450.633 1085.76 452.1C1085.76 454.033 1085.16 455.7 1083.96 457.1C1082.76 458.5 1081.19 459.633 1079.26 460.5C1077.39 461.367 1075.29 462 1072.96 462.4C1070.62 462.8 1068.36 463 1066.16 463ZM1068.06 419.3C1066.59 419.3 1065.32 419.733 1064.26 420.6C1063.26 421.4 1062.39 422.433 1061.66 423.7C1060.99 424.967 1060.46 426.367 1060.06 427.9C1059.72 429.433 1059.46 430.9 1059.26 432.3C1063.39 432.233 1066.72 431.533 1069.26 430.2C1071.86 428.867 1073.16 426.967 1073.16 424.5C1073.16 423.167 1072.72 421.967 1071.86 420.9C1071.06 419.833 1069.79 419.3 1068.06 419.3ZM1113.58 444C1113.38 447.067 1113.15 450 1112.88 452.8C1112.61 455.533 1112.41 457.933 1112.28 460C1112.21 460.8 1112.05 461.333 1111.78 461.6C1111.51 461.867 1110.95 462 1110.08 462H1106.48C1104.41 462 1102.71 461.8 1101.38 461.4C1100.11 460.933 1099.08 460.3 1098.28 459.5C1097.55 458.7 1097.01 457.733 1096.68 456.6C1096.41 455.4 1096.28 454.033 1096.28 452.5C1096.28 451.5 1096.31 450.1 1096.38 448.3C1096.51 446.433 1096.71 443.9 1096.98 440.7C1097.25 437.433 1097.55 433.333 1097.88 428.4C1098.28 423.4 1098.75 417.233 1099.28 409.9C1099.35 408.433 1099.51 407.567 1099.78 407.3C1099.98 407.1 1100.51 407 1101.38 407H1105.28C1107.28 407 1108.91 407.233 1110.18 407.7C1111.45 408.167 1112.48 408.767 1113.28 409.5C1114.08 410.233 1114.65 411.1 1114.98 412.1C1115.31 413.1 1115.51 414.133 1115.58 415.2C1117.51 411.6 1119.71 409.167 1122.18 407.9C1124.65 406.633 1127.55 406 1130.88 406C1132.68 406 1134.41 406.167 1136.08 406.5C1137.75 406.833 1139.25 407.4 1140.58 408.2C1141.91 409 1143.05 410.067 1143.98 411.4C1144.91 412.667 1145.58 414.3 1145.98 416.3C1148.05 412.433 1150.31 409.767 1152.78 408.3C1155.25 406.767 1158.35 406 1162.08 406C1164.15 406 1166.11 406.233 1167.98 406.7C1169.91 407.1 1171.58 407.833 1172.98 408.9C1174.38 409.967 1175.48 411.433 1176.28 413.3C1177.15 415.1 1177.58 417.367 1177.58 420.1C1177.58 422.167 1177.48 424.7 1177.28 427.7C1177.08 430.7 1176.85 433.967 1176.58 437.5C1176.31 440.967 1176.01 444.567 1175.68 448.3C1175.35 451.967 1175.08 455.5 1174.88 458.9C1174.81 459.633 1174.75 460.2 1174.68 460.6C1174.61 461 1174.48 461.3 1174.28 461.5C1174.15 461.7 1173.91 461.833 1173.58 461.9C1173.25 461.967 1172.78 462 1172.18 462H1168.98C1166.85 462 1165.11 461.8 1163.78 461.4C1162.45 461 1161.41 460.433 1160.68 459.7C1159.95 458.967 1159.41 458.067 1159.08 457C1158.81 455.867 1158.68 454.6 1158.68 453.2C1158.68 452.333 1158.71 451.1 1158.78 449.5C1158.91 447.9 1159.05 446.167 1159.18 444.3C1159.38 442.433 1159.55 440.5 1159.68 438.5C1159.88 436.5 1160.05 434.667 1160.18 433C1160.38 431.267 1160.51 429.767 1160.58 428.5C1160.71 427.233 1160.78 426.4 1160.78 426C1160.78 424.267 1160.41 422.733 1159.68 421.4C1159.01 420.067 1157.68 419.4 1155.68 419.4C1153.95 419.4 1152.45 419.967 1151.18 421.1C1149.91 422.233 1148.85 423.8 1147.98 425.8C1147.11 427.8 1146.41 430.167 1145.88 432.9C1145.35 435.633 1144.98 438.6 1144.78 441.8C1144.65 443.867 1144.48 446.233 1144.28 448.9C1144.08 451.567 1143.85 454.9 1143.58 458.9C1143.51 459.633 1143.45 460.2 1143.38 460.6C1143.31 461 1143.18 461.3 1142.98 461.5C1142.85 461.7 1142.61 461.833 1142.28 461.9C1141.95 461.967 1141.48 462 1140.88 462H1137.68C1135.55 462 1133.81 461.8 1132.48 461.4C1131.15 461 1130.11 460.433 1129.38 459.7C1128.65 458.967 1128.11 458.067 1127.78 457C1127.51 455.867 1127.38 454.6 1127.38 453.2C1127.38 451.867 1127.48 449.933 1127.68 447.4C1127.95 444.8 1128.18 442.133 1128.38 439.4C1128.65 436.6 1128.88 433.967 1129.08 431.5C1129.35 428.967 1129.48 427.133 1129.48 426C1129.48 424.267 1129.11 422.733 1128.38 421.4C1127.71 420.067 1126.38 419.4 1124.38 419.4C1122.58 419.4 1121.05 420.067 1119.78 421.4C1118.51 422.733 1117.45 424.533 1116.58 426.8C1115.78 429 1115.11 431.6 1114.58 434.6C1114.11 437.6 1113.78 440.733 1113.58 444ZM1209.41 463C1204.28 463 1200.21 462.267 1197.21 460.8C1194.21 459.267 1191.95 457.367 1190.41 455.1C1188.88 452.833 1187.91 450.4 1187.51 447.8C1187.11 445.133 1186.91 442.7 1186.91 440.5C1186.91 439.633 1186.98 437.933 1187.11 435.4C1187.31 432.867 1187.55 429.933 1187.81 426.6C1188.08 423.267 1188.35 419.733 1188.61 416C1188.88 412.2 1189.15 408.633 1189.41 405.3C1189.68 401.9 1189.88 398.9 1190.01 396.3C1190.21 393.7 1190.31 391.9 1190.31 390.9C1190.31 389.433 1190.41 388.6 1190.61 388.4C1190.81 388.133 1191.41 388 1192.41 388H1196.31C1198.31 388 1199.98 388.233 1201.31 388.7C1202.65 389.167 1203.71 389.8 1204.51 390.6C1205.31 391.4 1205.88 392.333 1206.21 393.4C1206.55 394.4 1206.71 395.5 1206.71 396.7C1206.71 397.833 1206.58 400.033 1206.31 403.3C1206.11 406.567 1205.85 410.4 1205.51 414.8C1207.25 411.8 1209.21 409.6 1211.41 408.2C1213.61 406.733 1216.51 406 1220.11 406C1226.18 406 1230.81 408 1234.01 412C1237.28 416 1238.91 421.967 1238.91 429.9C1238.91 431.967 1238.75 434.233 1238.41 436.7C1238.15 439.167 1237.61 441.633 1236.81 444.1C1236.08 446.5 1235.01 448.867 1233.61 451.2C1232.28 453.467 1230.51 455.467 1228.31 457.2C1226.11 458.933 1223.45 460.333 1220.31 461.4C1217.25 462.467 1213.61 463 1209.41 463ZM1213.91 419.3C1211.51 419.3 1209.61 419.933 1208.21 421.2C1206.88 422.467 1205.85 424 1205.11 425.8C1204.38 427.6 1203.91 429.533 1203.71 431.6C1203.51 433.6 1203.41 435.367 1203.41 436.9C1203.41 441.5 1204.05 444.8 1205.31 446.8C1206.58 448.733 1208.48 449.7 1211.01 449.7C1213.41 449.7 1215.28 448.967 1216.61 447.5C1218.01 445.967 1219.05 444.167 1219.71 442.1C1220.45 440.033 1220.91 437.933 1221.11 435.8C1221.31 433.667 1221.41 432 1221.41 430.8C1221.41 427.067 1220.85 424.233 1219.71 422.3C1218.58 420.3 1216.65 419.3 1213.91 419.3ZM1269.58 463C1266.64 463 1263.71 462.633 1260.78 461.9C1257.91 461.167 1255.31 459.9 1252.98 458.1C1250.71 456.3 1248.84 453.9 1247.38 450.9C1245.91 447.9 1245.18 444.133 1245.18 439.6C1245.18 437.933 1245.31 435.933 1245.58 433.6C1245.84 431.267 1246.34 428.867 1247.08 426.4C1247.88 423.933 1248.94 421.5 1250.28 419.1C1251.68 416.633 1253.48 414.433 1255.68 412.5C1257.88 410.567 1260.54 409 1263.68 407.8C1266.81 406.6 1270.54 406 1274.88 406C1278.34 406 1281.28 406.4 1283.68 407.2C1286.08 408 1288.01 409.1 1289.48 410.5C1290.94 411.833 1292.01 413.4 1292.68 415.2C1293.34 417 1293.68 418.933 1293.68 421C1293.68 424.067 1293.04 426.667 1291.78 428.8C1290.58 430.933 1288.98 432.733 1286.98 434.2C1285.04 435.6 1282.88 436.7 1280.48 437.5C1278.08 438.3 1275.71 438.933 1273.38 439.4C1271.04 439.8 1268.88 440.067 1266.88 440.2C1264.94 440.267 1263.44 440.3 1262.38 440.3C1262.38 441.567 1262.54 442.833 1262.88 444.1C1263.28 445.3 1263.84 446.367 1264.58 447.3C1265.31 448.233 1266.28 449 1267.48 449.6C1268.68 450.2 1270.14 450.5 1271.88 450.5C1273.61 450.5 1274.94 450.233 1275.88 449.7C1276.88 449.1 1277.68 448.467 1278.28 447.8C1278.88 447.067 1279.38 446.433 1279.78 445.9C1280.24 445.3 1280.84 445 1281.58 445C1281.91 445 1282.48 445.1 1283.28 445.3C1284.14 445.433 1285.01 445.767 1285.88 446.3C1286.74 446.833 1287.51 447.567 1288.18 448.5C1288.84 449.433 1289.18 450.633 1289.18 452.1C1289.18 454.033 1288.58 455.7 1287.38 457.1C1286.18 458.5 1284.61 459.633 1282.68 460.5C1280.81 461.367 1278.71 462 1276.38 462.4C1274.04 462.8 1271.78 463 1269.58 463ZM1271.48 419.3C1270.01 419.3 1268.74 419.733 1267.68 420.6C1266.68 421.4 1265.81 422.433 1265.08 423.7C1264.41 424.967 1263.88 426.367 1263.48 427.9C1263.14 429.433 1262.88 430.9 1262.68 432.3C1266.81 432.233 1270.14 431.533 1272.68 430.2C1275.28 428.867 1276.58 426.967 1276.58 424.5C1276.58 423.167 1276.14 421.967 1275.28 420.9C1274.48 419.833 1273.21 419.3 1271.48 419.3ZM1311.3 462.9C1307.16 462.9 1304.2 461.8 1302.4 459.6C1300.6 457.4 1299.7 453.767 1299.7 448.7C1299.7 447.9 1299.73 446.9 1299.8 445.7C1299.93 444.5 1300.06 442.967 1300.2 441.1C1300.4 439.167 1300.63 436.8 1300.9 434C1301.16 431.2 1301.43 427.8 1301.7 423.8C1302.03 419.8 1302.36 415.1 1302.7 409.7C1303.1 404.3 1303.5 398.033 1303.9 390.9C1303.96 389.433 1304.13 388.567 1304.4 388.3C1304.6 388.1 1305.13 388 1306 388H1309.9C1311.9 388 1313.56 388.233 1314.9 388.7C1316.23 389.167 1317.3 389.8 1318.1 390.6C1318.9 391.4 1319.46 392.333 1319.8 393.4C1320.13 394.4 1320.3 395.467 1320.3 396.6C1320.3 397.933 1320.2 399.867 1320 402.4C1319.86 404.867 1319.66 407.667 1319.4 410.8C1319.13 413.933 1318.86 417.2 1318.6 420.6C1318.33 424 1318.06 427.267 1317.8 430.4C1317.53 433.467 1317.3 436.233 1317.1 438.7C1316.96 441.167 1316.9 443.033 1316.9 444.3C1316.9 446.033 1317.2 447.267 1317.8 448C1318.46 448.733 1319.16 449.267 1319.9 449.6C1320.63 449.867 1321.3 450.067 1321.9 450.2C1322.56 450.267 1322.9 450.467 1322.9 450.8C1322.9 452.267 1322.73 453.733 1322.4 455.2C1322.06 456.6 1321.46 457.9 1320.6 459.1C1319.73 460.233 1318.53 461.167 1317 461.9C1315.53 462.567 1313.63 462.9 1311.3 462.9ZM1326.87 449.7C1326.87 443.7 1329.57 439 1334.97 435.6C1340.37 432.2 1348.34 430.367 1358.87 430.1C1358.94 429.367 1358.97 428.767 1358.97 428.3C1359.04 427.767 1359.07 427.133 1359.07 426.4C1359.07 424.267 1358.67 422.567 1357.87 421.3C1357.07 420.033 1355.41 419.4 1352.87 419.4C1351.47 419.4 1350.34 419.6 1349.47 420C1348.61 420.4 1347.91 420.967 1347.37 421.7C1346.84 422.367 1346.41 423.2 1346.07 424.2C1345.74 425.2 1345.44 426.3 1345.17 427.5C1345.04 428.1 1344.74 428.5 1344.27 428.7C1343.81 428.833 1343.07 428.9 1342.07 428.9C1335.27 428.9 1331.87 426.333 1331.87 421.2C1331.87 419.133 1332.34 417.167 1333.27 415.3C1334.27 413.433 1335.71 411.833 1337.57 410.5C1339.51 409.1 1341.91 408 1344.77 407.2C1347.64 406.4 1350.97 406 1354.77 406C1362.17 406 1367.54 407.533 1370.87 410.6C1374.21 413.667 1375.87 418 1375.87 423.6C1375.87 424.333 1375.77 425.667 1375.57 427.6C1375.44 429.467 1375.24 431.467 1374.97 433.6C1374.77 435.667 1374.57 437.633 1374.37 439.5C1374.24 441.367 1374.17 442.667 1374.17 443.4C1374.17 445.067 1374.47 446.267 1375.07 447C1375.67 447.667 1376.34 448.133 1377.07 448.4C1377.87 448.667 1378.57 448.867 1379.17 449C1379.77 449.133 1380.07 449.467 1380.07 450C1380.07 451.467 1379.87 452.967 1379.47 454.5C1379.07 456.033 1378.41 457.433 1377.47 458.7C1376.61 459.967 1375.37 461 1373.77 461.8C1372.24 462.6 1370.34 463 1368.07 463C1364.87 463 1362.47 462.233 1360.87 460.7C1359.27 459.167 1358.21 457.033 1357.67 454.3C1356.07 456.633 1353.97 458.667 1351.37 460.4C1348.84 462.133 1345.51 463 1341.37 463C1339.37 463 1337.47 462.767 1335.67 462.3C1333.94 461.833 1332.41 461.067 1331.07 460C1329.81 458.933 1328.77 457.567 1327.97 455.9C1327.24 454.167 1326.87 452.1 1326.87 449.7ZM1357.97 438.3C1356.24 438.3 1354.54 438.433 1352.87 438.7C1351.21 438.967 1349.71 439.4 1348.37 440C1347.11 440.533 1346.07 441.267 1345.27 442.2C1344.47 443.133 1344.07 444.267 1344.07 445.6C1344.07 447.133 1344.54 448.2 1345.47 448.8C1346.47 449.4 1347.54 449.7 1348.67 449.7C1349.74 449.7 1350.81 449.467 1351.87 449C1352.94 448.533 1353.87 447.833 1354.67 446.9C1355.54 445.9 1356.27 444.7 1356.87 443.3C1357.47 441.9 1357.84 440.233 1357.97 438.3ZM1389.22 408.5C1389.22 407.9 1389.32 407.5 1389.52 407.3C1389.72 407.1 1390.35 407 1391.42 407H1395.02C1396.69 407 1398.15 407.233 1399.42 407.7C1400.75 408.1 1401.85 408.633 1402.72 409.3C1403.65 409.9 1404.35 410.6 1404.82 411.4C1405.29 412.2 1405.52 413 1405.52 413.8C1405.52 414.2 1405.45 415.3 1405.32 417.1C1405.25 418.833 1405.12 421.033 1404.92 423.7C1404.72 426.3 1404.49 429.2 1404.22 432.4C1404.02 435.533 1403.79 438.733 1403.52 442C1403.32 445.2 1403.09 448.3 1402.82 451.3C1402.62 454.3 1402.45 456.9 1402.32 459.1C1401.99 463.833 1401.22 467.633 1400.02 470.5C1398.89 473.433 1397.49 475.7 1395.82 477.3C1394.15 478.967 1392.29 480.067 1390.22 480.6C1388.15 481.2 1386.02 481.5 1383.82 481.5C1381.89 481.5 1379.95 481.3 1378.02 480.9C1376.02 480.567 1374.22 480.033 1372.62 479.3C1371.02 478.567 1369.72 477.633 1368.72 476.5C1367.72 475.367 1367.22 474.033 1367.22 472.5C1367.22 470.9 1367.72 469.633 1368.72 468.7C1369.65 467.767 1370.79 467.067 1372.12 466.6C1373.39 466.133 1374.65 465.833 1375.92 465.7C1377.12 465.567 1378.02 465.5 1378.62 465.5C1378.82 465.5 1379.02 465.667 1379.22 466C1379.35 466.4 1379.55 466.8 1379.82 467.2C1380.02 467.667 1380.32 468.067 1380.72 468.4C1381.12 468.8 1381.69 469 1382.42 469C1383.22 469 1383.82 468.667 1384.22 468C1384.69 467.4 1385.05 466.367 1385.32 464.9C1385.59 463.433 1385.82 461.5 1386.02 459.1C1386.22 456.633 1386.42 453.567 1386.62 449.9L1389.22 408.5ZM1388.22 395.2C1388.22 392.533 1389.19 390.433 1391.12 388.9C1393.05 387.367 1395.65 386.6 1398.92 386.6C1401.79 386.6 1403.85 387.2 1405.12 388.4C1406.45 389.533 1407.12 391.067 1407.12 393C1407.12 395.467 1406.19 397.533 1404.32 399.2C1402.52 400.8 1399.85 401.6 1396.32 401.6C1390.92 401.6 1388.22 399.467 1388.22 395.2ZM1411.15 449.7C1411.15 443.7 1413.85 439 1419.25 435.6C1424.65 432.2 1432.62 430.367 1443.15 430.1C1443.22 429.367 1443.25 428.767 1443.25 428.3C1443.32 427.767 1443.35 427.133 1443.35 426.4C1443.35 424.267 1442.95 422.567 1442.15 421.3C1441.35 420.033 1439.68 419.4 1437.15 419.4C1435.75 419.4 1434.62 419.6 1433.75 420C1432.88 420.4 1432.18 420.967 1431.65 421.7C1431.12 422.367 1430.68 423.2 1430.35 424.2C1430.02 425.2 1429.72 426.3 1429.45 427.5C1429.32 428.1 1429.02 428.5 1428.55 428.7C1428.08 428.833 1427.35 428.9 1426.35 428.9C1419.55 428.9 1416.15 426.333 1416.15 421.2C1416.15 419.133 1416.62 417.167 1417.55 415.3C1418.55 413.433 1419.98 411.833 1421.85 410.5C1423.78 409.1 1426.18 408 1429.05 407.2C1431.92 406.4 1435.25 406 1439.05 406C1446.45 406 1451.82 407.533 1455.15 410.6C1458.48 413.667 1460.15 418 1460.15 423.6C1460.15 424.333 1460.05 425.667 1459.85 427.6C1459.72 429.467 1459.52 431.467 1459.25 433.6C1459.05 435.667 1458.85 437.633 1458.65 439.5C1458.52 441.367 1458.45 442.667 1458.45 443.4C1458.45 445.067 1458.75 446.267 1459.35 447C1459.95 447.667 1460.62 448.133 1461.35 448.4C1462.15 448.667 1462.85 448.867 1463.45 449C1464.05 449.133 1464.35 449.467 1464.35 450C1464.35 451.467 1464.15 452.967 1463.75 454.5C1463.35 456.033 1462.68 457.433 1461.75 458.7C1460.88 459.967 1459.65 461 1458.05 461.8C1456.52 462.6 1454.62 463 1452.35 463C1449.15 463 1446.75 462.233 1445.15 460.7C1443.55 459.167 1442.48 457.033 1441.95 454.3C1440.35 456.633 1438.25 458.667 1435.65 460.4C1433.12 462.133 1429.78 463 1425.65 463C1423.65 463 1421.75 462.767 1419.95 462.3C1418.22 461.833 1416.68 461.067 1415.35 460C1414.08 458.933 1413.05 457.567 1412.25 455.9C1411.52 454.167 1411.15 452.1 1411.15 449.7ZM1442.25 438.3C1440.52 438.3 1438.82 438.433 1437.15 438.7C1435.48 438.967 1433.98 439.4 1432.65 440C1431.38 440.533 1430.35 441.267 1429.55 442.2C1428.75 443.133 1428.35 444.267 1428.35 445.6C1428.35 447.133 1428.82 448.2 1429.75 448.8C1430.75 449.4 1431.82 449.7 1432.95 449.7C1434.02 449.7 1435.08 449.467 1436.15 449C1437.22 448.533 1438.15 447.833 1438.95 446.9C1439.82 445.9 1440.55 444.7 1441.15 443.3C1441.75 441.9 1442.12 440.233 1442.25 438.3ZM1502.8 430.9C1502.4 430.9 1501.93 430.9 1501.4 430.9C1500.93 430.833 1500.47 430.767 1500 430.7C1499.53 430.567 1499.13 430.433 1498.8 430.3C1498.47 430.1 1498.3 429.867 1498.3 429.6C1498.3 428.733 1498.33 427.933 1498.4 427.2C1498.47 426.467 1498.5 425.7 1498.5 424.9C1498.5 423.433 1498.3 422.233 1497.9 421.3C1497.5 420.367 1496.7 419.9 1495.5 419.9C1493.63 419.9 1492.07 421.133 1490.8 423.6C1489.6 426 1488.83 429.633 1488.5 434.5C1488.37 436.633 1488.17 439.067 1487.9 441.8C1487.7 444.467 1487.5 447.067 1487.3 449.6C1487.1 452.067 1486.93 454.267 1486.8 456.2C1486.67 458.133 1486.6 459.4 1486.6 460C1486.6 460.667 1486.37 461.167 1485.9 461.5C1485.43 461.833 1484.93 462 1484.4 462H1480.8C1478.73 462 1477.03 461.8 1475.7 461.4C1474.43 460.933 1473.4 460.3 1472.6 459.5C1471.87 458.7 1471.33 457.733 1471 456.6C1470.73 455.4 1470.6 454.033 1470.6 452.5C1470.6 451.5 1470.63 450.1 1470.7 448.3C1470.83 446.433 1471.03 443.9 1471.3 440.7C1471.57 437.433 1471.87 433.333 1472.2 428.4C1472.6 423.4 1473.07 417.233 1473.6 409.9C1473.73 407.967 1474.43 407 1475.7 407H1479.6C1481.47 407 1483.03 407.2 1484.3 407.6C1485.57 408 1486.6 408.567 1487.4 409.3C1488.2 409.967 1488.77 410.767 1489.1 411.7C1489.5 412.633 1489.77 413.6 1489.9 414.6C1490.7 413.067 1491.63 411.767 1492.7 410.7C1493.83 409.567 1495 408.667 1496.2 408C1497.4 407.267 1498.63 406.767 1499.9 406.5C1501.17 406.167 1502.33 406 1503.4 406C1504.67 406 1505.93 406.233 1507.2 406.7C1508.53 407.167 1509.73 407.867 1510.8 408.8C1511.87 409.733 1512.7 410.933 1513.3 412.4C1513.97 413.867 1514.3 415.6 1514.3 417.6C1514.3 419.4 1514.03 421.1 1513.5 422.7C1512.97 424.3 1512.2 425.733 1511.2 427C1510.2 428.2 1508.97 429.167 1507.5 429.9C1506.1 430.567 1504.53 430.9 1502.8 430.9ZM1514.96 449.7C1514.96 443.7 1517.66 439 1523.06 435.6C1528.46 432.2 1536.43 430.367 1546.96 430.1C1547.03 429.367 1547.06 428.767 1547.06 428.3C1547.13 427.767 1547.16 427.133 1547.16 426.4C1547.16 424.267 1546.76 422.567 1545.96 421.3C1545.16 420.033 1543.49 419.4 1540.96 419.4C1539.56 419.4 1538.43 419.6 1537.56 420C1536.69 420.4 1535.99 420.967 1535.46 421.7C1534.93 422.367 1534.49 423.2 1534.16 424.2C1533.83 425.2 1533.53 426.3 1533.26 427.5C1533.13 428.1 1532.83 428.5 1532.36 428.7C1531.89 428.833 1531.16 428.9 1530.16 428.9C1523.36 428.9 1519.96 426.333 1519.96 421.2C1519.96 419.133 1520.43 417.167 1521.36 415.3C1522.36 413.433 1523.79 411.833 1525.66 410.5C1527.59 409.1 1529.99 408 1532.86 407.2C1535.73 406.4 1539.06 406 1542.86 406C1550.26 406 1555.63 407.533 1558.96 410.6C1562.29 413.667 1563.96 418 1563.96 423.6C1563.96 424.333 1563.86 425.667 1563.66 427.6C1563.53 429.467 1563.33 431.467 1563.06 433.6C1562.86 435.667 1562.66 437.633 1562.46 439.5C1562.33 441.367 1562.26 442.667 1562.26 443.4C1562.26 445.067 1562.56 446.267 1563.16 447C1563.76 447.667 1564.43 448.133 1565.16 448.4C1565.96 448.667 1566.66 448.867 1567.26 449C1567.86 449.133 1568.16 449.467 1568.16 450C1568.16 451.467 1567.96 452.967 1567.56 454.5C1567.16 456.033 1566.49 457.433 1565.56 458.7C1564.69 459.967 1563.46 461 1561.86 461.8C1560.33 462.6 1558.43 463 1556.16 463C1552.96 463 1550.56 462.233 1548.96 460.7C1547.36 459.167 1546.29 457.033 1545.76 454.3C1544.16 456.633 1542.06 458.667 1539.46 460.4C1536.93 462.133 1533.59 463 1529.46 463C1527.46 463 1525.56 462.767 1523.76 462.3C1522.03 461.833 1520.49 461.067 1519.16 460C1517.89 458.933 1516.86 457.567 1516.06 455.9C1515.33 454.167 1514.96 452.1 1514.96 449.7ZM1546.06 438.3C1544.33 438.3 1542.63 438.433 1540.96 438.7C1539.29 438.967 1537.79 439.4 1536.46 440C1535.19 440.533 1534.16 441.267 1533.36 442.2C1532.56 443.133 1532.16 444.267 1532.16 445.6C1532.16 447.133 1532.63 448.2 1533.56 448.8C1534.56 449.4 1535.63 449.7 1536.76 449.7C1537.83 449.7 1538.89 449.467 1539.96 449C1541.03 448.533 1541.96 447.833 1542.76 446.9C1543.63 445.9 1544.36 444.7 1544.96 443.3C1545.56 441.9 1545.93 440.233 1546.06 438.3ZM1608.41 453.2C1608.41 451.733 1608.51 449.833 1608.71 447.5C1608.97 445.1 1609.21 442.6 1609.41 440C1609.67 437.333 1609.91 434.767 1610.11 432.3C1610.37 429.833 1610.51 427.767 1610.51 426.1C1610.51 424.367 1610.07 422.833 1609.21 421.5C1608.41 420.1 1606.81 419.4 1604.41 419.4C1602.07 419.4 1600.14 419.967 1598.61 421.1C1597.07 422.233 1595.77 424.3 1594.71 427.3C1593.71 430.3 1592.87 434.433 1592.21 439.7C1591.54 444.967 1590.91 451.733 1590.31 460C1590.24 460.8 1590.07 461.333 1589.81 461.6C1589.54 461.867 1588.97 462 1588.11 462H1584.51C1582.44 462 1580.74 461.8 1579.41 461.4C1578.14 460.933 1577.11 460.3 1576.31 459.5C1575.57 458.7 1575.04 457.733 1574.71 456.6C1574.44 455.4 1574.31 454.033 1574.31 452.5C1574.31 451.5 1574.34 450.1 1574.41 448.3C1574.54 446.433 1574.74 443.9 1575.01 440.7C1575.27 437.433 1575.57 433.333 1575.91 428.4C1576.31 423.4 1576.77 417.233 1577.31 409.9C1577.37 408.433 1577.54 407.567 1577.81 407.3C1578.01 407.1 1578.54 407 1579.41 407H1583.31C1585.31 407 1586.94 407.233 1588.21 407.7C1589.54 408.167 1590.61 408.8 1591.41 409.6C1592.21 410.333 1592.77 411.233 1593.11 412.3C1593.44 413.3 1593.64 414.333 1593.71 415.4C1595.77 411.867 1598.14 409.433 1600.81 408.1C1603.47 406.7 1606.81 406 1610.81 406C1613.61 406 1616.04 406.3 1618.11 406.9C1620.17 407.5 1621.87 408.533 1623.21 410C1624.61 411.4 1625.64 413.267 1626.31 415.6C1626.97 417.867 1627.31 420.7 1627.31 424.1C1627.31 425.167 1627.24 426.7 1627.11 428.7C1626.97 430.7 1626.81 432.9 1626.61 435.3C1626.41 437.633 1626.17 440.1 1625.91 442.7C1625.71 445.233 1625.51 447.6 1625.31 449.8C1625.11 452 1624.94 453.933 1624.81 455.6C1624.67 457.267 1624.61 458.367 1624.61 458.9C1624.61 460.367 1624.44 461.267 1624.11 461.6C1623.77 461.867 1623.04 462 1621.91 462H1618.71C1616.57 462 1614.84 461.8 1613.51 461.4C1612.17 461 1611.14 460.433 1610.41 459.7C1609.67 458.967 1609.14 458.067 1608.81 457C1608.54 455.867 1608.41 454.6 1608.41 453.2Z" fill="#6614BE"/>
<g filter="url(#filter1_d_1345_529)">
<path d="M1750.62 840.914C1741.38 868.812 1718.76 869.768 1684.17 878.679C1683.51 878.849 1682.82 878.939 1682.14 878.935C1649.59 878.727 1622.89 868.623 1622.89 840.914C1622.89 812.914 1641.44 802.186 1676.71 802.186C1711.98 802.186 1750.62 812.914 1750.62 840.914Z" fill="#FAFAFA"/>
</g>
<path d="M1217.08 1352.8C1203.44 1344.68 1215.29 1347.79 1195.47 1380.01C1185.32 1421.3 1182.67 1436.45 1214.24 1459.9C1248.49 1455.26 1246.95 1442.39 1242.8 1394.31C1239.17 1352.2 1230.72 1360.91 1217.08 1352.8Z" fill="#57DFD7"/>
<path d="M1110.62 1264.76C1104.97 1265.06 1099.11 1268.03 1092.65 1275.89C1090.53 1293.72 1096.06 1320.36 1117.15 1340.35C1138.3 1360.39 1175.44 1374.04 1237.18 1364.91C1241.03 1359.03 1245 1353.2 1248.9 1347.47L1248.96 1347.38C1253.01 1341.43 1256.97 1335.61 1260.66 1329.94C1268.11 1318.52 1274.38 1307.87 1277.98 1298.38C1281.59 1288.86 1282.36 1280.88 1279.37 1274.56C1276.41 1268.31 1269.49 1263.09 1256.29 1259.7C1241.69 1258.81 1233.72 1261.73 1228.92 1265.96C1224.01 1270.28 1222.01 1276.27 1220.01 1282.53C1219.96 1282.69 1219.9 1282.85 1219.85 1283.02C1217.98 1288.88 1215.95 1295.22 1210.65 1298.96C1205.08 1302.89 1196.54 1303.6 1182.57 1299.88C1171.4 1296.91 1161.69 1291.8 1153.03 1286.42C1148.92 1283.87 1145.03 1281.24 1141.34 1278.74C1141.15 1278.61 1140.95 1278.49 1140.76 1278.36C1136.89 1275.74 1133.24 1273.29 1129.74 1271.2C1122.68 1266.99 1116.52 1264.45 1110.62 1264.76Z" fill="white" stroke="black" stroke-width="4"/>
<path d="M1313.92 1083.3C1313.33 1081.23 1315.85 1080.46 1317 1082.28C1323.91 1093.29 1335.36 1105.08 1352 1104.76C1368.5 1104.46 1379.96 1089.49 1385.84 1080.32C1386.92 1078.64 1389.21 1079.33 1388.88 1081.3C1385.98 1098.64 1370.75 1112.03 1352.14 1112.38C1334.4 1112.71 1318.59 1099.73 1313.92 1083.3Z" fill="#84F6D5"/>
<path d="M333.305 1163.29H449.332V1165.27H335.285C334.191 1165.27 333.305 1164.39 333.305 1163.29V1163.29Z" fill="#ED1C24"/>
<path d="M333.305 1152.73C333.305 1151.64 334.191 1150.75 335.285 1150.75H449.332V1152.73H333.305V1152.73Z" fill="#ED1C24"/>
<path d="M333.305 1152.07H449.332V1163.95H333.305V1152.07Z" fill="#FBF8F8"/>
<path d="M335.473 1165.28C334.276 1165.28 333.305 1164.3 333.305 1163.11V1152.92C333.305 1151.72 334.276 1150.75 335.473 1150.75V1150.75V1165.28V1165.28Z" fill="#ED1C24"/>
<line x1="337.645" y1="1153.29" x2="448.25" y2="1153.29" stroke="#DDDDDD" stroke-width="0.2"/>
<line x1="337.645" y1="1154.61" x2="448.25" y2="1154.61" stroke="#DDDDDD" stroke-width="0.2"/>
<line x1="337.645" y1="1155.93" x2="448.25" y2="1155.93" stroke="#DDDDDD" stroke-width="0.2"/>
<line x1="337.645" y1="1157.26" x2="448.25" y2="1157.26" stroke="#DDDDDD" stroke-width="0.2"/>
<line x1="337.645" y1="1158.57" x2="448.25" y2="1158.57" stroke="#DDDDDD" stroke-width="0.2"/>
<line x1="337.645" y1="1159.89" x2="448.25" y2="1159.89" stroke="#DDDDDD" stroke-width="0.2"/>
<line x1="337.645" y1="1161.21" x2="448.25" y2="1161.21" stroke="#DDDDDD" stroke-width="0.2"/>
<line x1="337.645" y1="1162.53" x2="448.25" y2="1162.53" stroke="#DDDDDD" stroke-width="0.2"/>
<path d="M331.904 1148.25H447.932V1150.23H333.885C332.791 1150.23 331.904 1149.35 331.904 1148.25V1148.25Z" fill="#773133"/>
<path d="M331.904 1137.69C331.904 1136.6 332.791 1135.71 333.885 1135.71H447.932V1137.69H331.904V1137.69Z" fill="#773133"/>
<path d="M331.904 1137.03H447.932V1148.91H331.904V1137.03Z" fill="#FBF8F8"/>
<path d="M334.073 1150.23C332.875 1150.23 331.904 1149.26 331.904 1148.07V1137.88C331.904 1136.68 332.875 1135.71 334.073 1135.71V1135.71V1150.23V1150.23Z" fill="#773133"/>
<line x1="336.244" y1="1138.25" x2="446.85" y2="1138.25" stroke="#DDDDDD" stroke-width="0.2"/>
<line x1="336.244" y1="1139.57" x2="446.85" y2="1139.57" stroke="#DDDDDD" stroke-width="0.2"/>
<line x1="336.244" y1="1140.89" x2="446.85" y2="1140.89" stroke="#DDDDDD" stroke-width="0.2"/>
<line x1="336.244" y1="1142.21" x2="446.85" y2="1142.21" stroke="#DDDDDD" stroke-width="0.2"/>
<line x1="336.244" y1="1143.53" x2="446.85" y2="1143.53" stroke="#DDDDDD" stroke-width="0.2"/>
<line x1="336.244" y1="1144.85" x2="446.85" y2="1144.85" stroke="#DDDDDD" stroke-width="0.2"/>
<line x1="336.244" y1="1146.17" x2="446.85" y2="1146.17" stroke="#DDDDDD" stroke-width="0.2"/>
<line x1="336.244" y1="1147.49" x2="446.85" y2="1147.49" stroke="#DDDDDD" stroke-width="0.2"/>
<path d="M536.004 1183.86L559.07 1187.62L580.737 1185.36L619.18 1200.41L563.263 1214.7L493.367 1200.41L536.004 1183.86Z" fill="#454346"/>
<path d="M548.585 1093.58H568.156L580.737 1185.36L559.07 1187.62L536.004 1183.86L548.585 1093.58Z" fill="#232323"/>
<rect x="320.723" y="846.818" width="475.294" height="267.824" fill="#232323"/>
<rect x="336.1" y="855.842" width="445.938" height="245.255" fill="#100F0F"/>
<path d="M925.359 1243.69L1128.39 1278.8L1122.38 1680.48L925.359 1559.67V1243.69Z" fill="#E8E8E8"/>
<path d="M1135.11 1518.98L928.264 1562.15V1244.28L1143.49 1282.31L1135.11 1518.98Z" fill="#240C37" stroke="#0A0707"/>
<path d="M1128.43 1278.3L933.013 1244.1L1110.32 1241.09L1265.91 1278.3H1128.43Z" fill="#240C37" stroke="#0A0707"/>
<path d="M1037.08 1320.1L1125.99 1338.69L1123.58 1424.4L1032.28 1395.48L1037.08 1320.1Z" fill="#504A4A"/>
<path d="M1043.09 1367.6C1043.09 1385.85 1057.08 1400.64 1074.33 1400.64C1091.58 1400.64 1105.56 1385.85 1105.56 1367.6C1105.56 1349.35 1091.58 1334.55 1074.33 1334.55C1057.08 1334.55 1043.09 1349.35 1043.09 1367.6Z" fill="#2DF0C4"/>
<path d="M1052.71 1367.6C1052.71 1380.15 1062.39 1390.32 1074.33 1390.32C1086.27 1390.32 1095.96 1380.15 1095.96 1367.6C1095.96 1355.06 1086.27 1344.89 1074.33 1344.89C1062.39 1344.89 1052.71 1355.06 1052.71 1367.6Z" fill="#3D3737"/>
<path d="M1107.97 1379.99C1107.97 1398.24 1118.72 1413.04 1131.99 1413.04C1145.26 1413.04 1156.02 1398.24 1156.02 1379.99C1156.02 1361.74 1145.26 1346.95 1131.99 1346.95C1118.72 1346.95 1107.97 1361.74 1107.97 1379.99Z" fill="#2DF0C4"/>
<path d="M1117.58 1379.99C1117.58 1392.54 1127.26 1402.71 1139.21 1402.71C1151.15 1402.71 1160.83 1392.54 1160.83 1379.99C1160.83 1367.44 1151.15 1357.27 1139.21 1357.27C1127.26 1357.27 1117.58 1367.44 1117.58 1379.99Z" fill="#3D3737"/>
<rect x="1052.7" y="1460.54" width="96.1088" height="82.6086" fill="#807A7A"/>
<path d="M1053.9 1460.54H1146.41L1174.04 1489.45H1080.33L1053.9 1460.54Z" fill="#434141"/>
<rect x="1079.13" y="1489.45" width="96.1088" height="82.6086" fill="#514B4B"/>
<path d="M1052.7 1460.54L1081.54 1489.45V1572.06L1052.7 1543.15V1460.54Z" fill="#514B4B"/>
<path d="M1127.19 1278.8H1270.15L1258.13 1672.22L1116.37 1679.45L1127.19 1278.8Z" fill="#240C37"/>
<path d="M926.561 1243.69L1128.39 1277.76L1123.58 1682.55L926.561 1561.73V1243.69Z" fill="#010101" fill-opacity="0.45"/>
<path d="M315.831 1165.8H475.194L490.571 1202.66H480.786L472.398 1185.36L466.806 1174.83L437.45 1174.08L406.696 1174.83H367.554H324.917L312.336 1204.92H301.152L315.831 1165.8Z" fill="#5B2C80"/>
<path d="M1503.94 1714.04C1503.94 1786.36 928.63 1921 513.329 1921C98.0274 1921 0 1786.36 0 1714.04C0 1234.18 514.166 1470.45 929.467 1470.45C1344.77 1470.45 1503.94 1641.72 1503.94 1714.04Z" fill="#AB47F8" fill-opacity="0.08"/>
<g filter="url(#filter2_d_1345_529)">
<path d="M1858.25 959.211C1849.01 987.109 1826.39 988.065 1791.8 996.976C1791.14 997.146 1790.45 997.236 1789.77 997.232C1757.23 997.024 1730.52 986.92 1730.52 959.211C1730.52 931.211 1749.07 920.482 1784.34 920.482C1819.61 920.482 1858.25 931.211 1858.25 959.211Z" fill="#FAFAFA"/>
</g>
<g filter="url(#filter3_d_1345_529)">
<path d="M1764.97 1085.96C1755.73 1113.86 1733.11 1114.81 1698.52 1123.73C1697.86 1123.9 1697.17 1123.99 1696.49 1123.98C1663.94 1123.77 1637.24 1113.67 1637.24 1085.96C1637.24 1057.96 1655.79 1047.23 1691.06 1047.23C1726.33 1047.23 1764.97 1057.96 1764.97 1085.96Z" fill="#FAFAFA"/>
</g>
<path d="M1492.62 1351.39C1478.99 1343.27 1490.83 1346.39 1471.01 1378.6C1460.87 1419.89 1458.21 1435.04 1489.79 1458.49C1524.03 1453.86 1522.49 1440.98 1518.34 1392.9C1514.71 1350.79 1506.26 1359.5 1492.62 1351.39Z" fill="#57DFD7"/>
<path d="M1498.82 1294.04C1506.18 1317.65 1509.73 1343.5 1510.63 1354.48C1510.42 1354.58 1510.17 1354.74 1509.95 1355C1509.86 1355.11 1509.78 1355.24 1509.71 1355.38C1509.09 1355.53 1508.25 1355.71 1507.15 1355.92C1504.03 1356.51 1498.88 1357.28 1490.54 1358.26C1472.45 1359.25 1455.96 1356.4 1443.93 1351.1C1431.78 1345.74 1424.76 1338.16 1424.29 1329.96C1423.77 1320.78 1424.49 1300.44 1429.86 1282.23C1435.28 1263.83 1445.08 1248.68 1462.04 1247.75C1470.24 1247.3 1477.37 1252.17 1483.6 1260.78C1489.82 1269.36 1494.85 1281.3 1498.82 1294.04Z" fill="#00FFC5" stroke="black" stroke-width="4"/>
<path d="M1487.65 1352.17C1478.83 1402.28 1464.74 1447.26 1438.77 1480.64C1412.9 1513.89 1375.07 1535.84 1318.23 1539.6C1317.6 1539.64 1316.92 1539.56 1316.32 1539.38C1262.11 1523.18 1233.11 1499.6 1216.01 1467.47C1198.77 1435.09 1193.45 1393.78 1187.35 1341.53C1187.31 1341.19 1187.3 1340.89 1187.32 1340.55C1187.43 1338.12 1187.39 1335.17 1187.35 1331.81C1187.17 1316.76 1186.89 1293.46 1199.18 1271.38C1214.04 1244.71 1247.71 1219.38 1324.74 1215.1C1325.17 1215.08 1325.68 1215.11 1326.12 1215.2C1362.79 1222.01 1388.08 1221.09 1406.21 1219.09C1410.73 1218.59 1414.8 1218.02 1418.46 1217.5C1419.02 1217.42 1419.57 1217.34 1420.11 1217.26C1423.12 1216.83 1425.82 1216.44 1428.3 1216.15C1434.2 1215.46 1438.42 1215.4 1441.84 1216.49C1445.12 1217.53 1447.94 1219.73 1450.79 1224.24C1453.68 1228.84 1456.49 1235.68 1459.72 1245.79C1464.19 1259.81 1469.33 1279.67 1476.58 1307.68C1479.78 1320.05 1483.39 1334.01 1487.53 1349.76C1487.74 1350.55 1487.78 1351.42 1487.65 1352.17Z" fill="white" stroke="black" stroke-width="5"/>
<path d="M1560.37 1083.14C1557.26 1133.85 1523.62 1183.24 1472.06 1218.96C1420.56 1254.66 1351.45 1276.48 1278.05 1272.15C1215.94 1268.49 1151.24 1254.32 1103.4 1220.64C1055.73 1187.09 1024.56 1134.03 1029.59 1051.86C1032.7 1001.09 1065.49 948.827 1116.13 910.272C1166.73 871.751 1234.88 847.131 1308.2 851.453C1381.75 855.787 1446.9 880.006 1492.58 919.956C1538.21 959.86 1564.51 1015.53 1560.37 1083.14Z" fill="white" stroke="black" stroke-width="5"/>
<path d="M1465.37 1151.95C1435.96 1181.85 1345.99 1208.55 1273.45 1157.73C1182.41 1215.22 1102.21 1159.98 1085.03 1121.21C1034.89 1008.04 1153.6 907.946 1316.62 925.596C1479.64 943.247 1546.89 1069.08 1465.37 1151.95Z" fill="black"/>
<path d="M1357.76 1263.13L1359.12 1323.17L1367 1394.17L1381.01 1464.94C1381.19 1465.82 1381.5 1466.65 1381.95 1467.42L1404.69 1506.44" stroke="#F4F4F4"/>
<path d="M1418.7 1597.55C1418.7 1607.84 1411.65 1617.5 1399.5 1624.71C1387.39 1631.88 1370.54 1636.39 1351.81 1636.39C1333.08 1636.39 1316.23 1631.88 1304.12 1624.71C1291.97 1617.5 1284.93 1607.84 1284.93 1597.55C1284.93 1587.26 1291.97 1577.59 1304.12 1570.39C1316.23 1563.21 1333.08 1558.71 1351.81 1558.71C1370.54 1558.71 1387.39 1563.21 1399.5 1570.39C1411.65 1577.59 1418.7 1587.26 1418.7 1597.55Z" fill="#201E1E" fill-opacity="0.74" stroke="#605E5E" stroke-width="4"/>
<path d="M1513.87 1252.78C1515.92 1246.91 1520.23 1239.23 1540.16 1225.9C1549.43 1223.11 1557.45 1223.75 1563.71 1226.8C1570.03 1229.88 1574.77 1235.52 1577.24 1243.07C1582.18 1258.19 1577.92 1281.03 1558.38 1304.96C1536.17 1326.8 1510.14 1344.62 1486.01 1350.09C1473.96 1352.82 1462.49 1352.45 1452.19 1348.08C1441.93 1343.72 1432.62 1335.32 1425.01 1321.58C1419.69 1305.69 1420.46 1296.23 1424.2 1290.47C1427.95 1284.69 1435.12 1281.94 1444.39 1280.59C1450.63 1279.69 1457.43 1279.45 1464.31 1279.22C1467.69 1279.1 1471.08 1278.99 1474.45 1278.79C1484.41 1278.21 1494.13 1276.91 1500.71 1272.33C1506.11 1268.57 1508.91 1265.31 1510.61 1262.03C1511.45 1260.41 1512 1258.84 1512.47 1257.32C1512.63 1256.79 1512.79 1256.28 1512.93 1255.78C1513.23 1254.79 1513.51 1253.82 1513.87 1252.78Z" fill="white" stroke="black" stroke-width="4"/>
<ellipse cx="29.4178" cy="28.8722" rx="29.4178" ry="28.8722" transform="matrix(0.998267 0.0588392 -0.0610924 0.998132 1170.22 1062.32)" fill="#84F6D5"/>
<ellipse cx="29.4178" cy="28.8722" rx="29.4178" ry="28.8722" transform="matrix(0.998267 0.0588392 -0.0610924 0.998132 1345.03 1062.02)" fill="#84F6D5"/>
<defs>
<filter id="filter0_d_1345_529" x="356" y="0" width="1415" height="815" filterUnits="userSpaceOnUse" color-interpolation-filters="sRGB">
<feFlood flood-opacity="0" result="BackgroundImageFix"/>
<feColorMatrix in="SourceAlpha" type="matrix" values="0 0 0 0 0 0 0 0 0 0 0 0 0 0 0 0 0 0 127 0" result="hardAlpha"/>
<feOffset dy="4"/>
<feGaussianBlur stdDeviation="2"/>
<feComposite in2="hardAlpha" operator="out"/>
<feColorMatrix type="matrix" values="0 0 0 0 0.770833 0 0 0 0 0.770833 0 0 0 0 0.770833 0 0 0 0.25 0"/>
<feBlend mode="normal" in2="BackgroundImageFix" result="effect1_dropShadow_1345_529"/>
<feBlend mode="normal" in="SourceGraphic" in2="effect1_dropShadow_1345_529" result="shape"/>
</filter>
<filter id="filter1_d_1345_529" x="1618.89" y="802.186" width="135.725" height="84.75" filterUnits="userSpaceOnUse" color-interpolation-filters="sRGB">
<feFlood flood-opacity="0" result="BackgroundImageFix"/>
<feColorMatrix in="SourceAlpha" type="matrix" values="0 0 0 0 0 0 0 0 0 0 0 0 0 0 0 0 0 0 127 0" result="hardAlpha"/>
<feOffset dy="4"/>
<feGaussianBlur stdDeviation="2"/>
<feComposite in2="hardAlpha" operator="out"/>
<feColorMatrix type="matrix" values="0 0 0 0 0.770833 0 0 0 0 0.770833 0 0 0 0 0.770833 0 0 0 0.25 0"/>
<feBlend mode="normal" in2="BackgroundImageFix" result="effect1_dropShadow_1345_529"/>
<feBlend mode="normal" in="SourceGraphic" in2="effect1_dropShadow_1345_529" result="shape"/>
</filter>
<filter id="filter2_d_1345_529" x="1726.52" y="920.482" width="135.725" height="84.75" filterUnits="userSpaceOnUse" color-interpolation-filters="sRGB">
<feFlood flood-opacity="0" result="BackgroundImageFix"/>
<feColorMatrix in="SourceAlpha" type="matrix" values="0 0 0 0 0 0 0 0 0 0 0 0 0 0 0 0 0 0 127 0" result="hardAlpha"/>
<feOffset dy="4"/>
<feGaussianBlur stdDeviation="2"/>
<feComposite in2="hardAlpha" operator="out"/>
<feColorMatrix type="matrix" values="0 0 0 0 0.770833 0 0 0 0 0.770833 0 0 0 0 0.770833 0 0 0 0.25 0"/>
<feBlend mode="normal" in2="BackgroundImageFix" result="effect1_dropShadow_1345_529"/>
<feBlend mode="normal" in="SourceGraphic" in2="effect1_dropShadow_1345_529" result="shape"/>
</filter>
<filter id="filter3_d_1345_529" x="1633.24" y="1047.23" width="135.725" height="84.75" filterUnits="userSpaceOnUse" color-interpolation-filters="sRGB">
<feFlood flood-opacity="0" result="BackgroundImageFix"/>
<feColorMatrix in="SourceAlpha" type="matrix" values="0 0 0 0 0 0 0 0 0 0 0 0 0 0 0 0 0 0 127 0" result="hardAlpha"/>
<feOffset dy="4"/>
<feGaussianBlur stdDeviation="2"/>
<feComposite in2="hardAlpha" operator="out"/>
<feColorMatrix type="matrix" values="0 0 0 0 0.770833 0 0 0 0 0.770833 0 0 0 0 0.770833 0 0 0 0.25 0"/>
<feBlend mode="normal" in2="BackgroundImageFix" result="effect1_dropShadow_1345_529"/>
<feBlend mode="normal" in="SourceGraphic" in2="effect1_dropShadow_1345_529" result="shape"/>
</filter>
</defs>
</svg>
