<svg width="1623" height="1784" viewBox="0 0 1623 1784" fill="none" xmlns="http://www.w3.org/2000/svg">
<path d="M1555.62 1629.52C1555.62 1714.31 1443.73 1783.5 1021.89 1783.5C600.04 1783.5 27.9759 1714.31 27.9759 1629.52C27.9759 1544.73 -127.451 1446.84 294.396 1446.84C716.243 1446.84 1190.53 1446.84 1555.62 1629.52Z" fill="#AB47F8" fill-opacity="0.08"/>
<g filter="url(#filter0_d_1294_75)">
<path d="M1465.04 425.174C1465.04 588.55 1213.32 610.103 992.437 563.104C613.06 700.837 355.6 625.569 355.6 462.194C381.417 129.746 456.002 -1.95931 866.217 56.7886C1179.62 -149.868 1465.04 261.799 1465.04 425.174Z" fill="#FAFAFA"/>
</g>
<path d="M503.417 332.06L499.237 393.11C499.164 394.21 498.761 394.76 498.027 394.76H491.977C487.871 394.76 484.937 393.953 483.177 392.34C481.417 390.726 480.537 388.416 480.537 385.41C480.537 384.31 480.574 382.66 480.647 380.46C480.794 378.26 480.977 375.693 481.197 372.76C481.417 369.753 481.637 366.526 481.857 363.08C482.151 359.56 482.444 356.04 482.737 352.52C483.031 348.926 483.287 345.37 483.507 341.85C483.801 338.33 484.057 335.066 484.277 332.06H466.677C465.871 332.06 465.467 331.546 465.467 330.52L465.797 324.36C465.871 323.406 466.017 322.49 466.237 321.61C466.531 320.656 466.971 319.813 467.557 319.08C468.144 318.346 468.877 317.76 469.757 317.32C470.711 316.88 471.847 316.66 473.167 316.66H522.337C522.777 316.66 523.181 316.77 523.547 316.99C523.914 317.21 524.097 317.613 524.097 318.2L523.657 324.69C523.511 326.89 522.887 328.686 521.787 330.08C520.761 331.4 518.597 332.06 515.297 332.06H503.417ZM537.841 394.76C535.568 394.76 533.698 394.54 532.231 394.1C530.838 393.586 529.701 392.89 528.821 392.01C528.015 391.13 527.428 390.066 527.061 388.82C526.768 387.5 526.621 385.996 526.621 384.31C526.621 383.21 526.658 381.67 526.731 379.69C526.878 377.636 527.098 374.85 527.391 371.33C527.685 367.736 528.015 363.226 528.381 357.8C528.821 352.3 529.335 345.516 529.921 337.45C529.995 335.836 530.178 334.883 530.471 334.59C530.691 334.37 531.278 334.26 532.231 334.26H536.521C538.795 334.26 540.628 334.48 542.021 334.92C543.488 335.36 544.625 336.02 545.431 336.9C546.311 337.78 546.898 338.843 547.191 340.09C547.558 341.336 547.741 342.73 547.741 344.27C547.741 345.37 547.668 347.02 547.521 349.22C547.375 351.42 547.155 354.426 546.861 358.24C546.641 361.98 546.311 366.673 545.871 372.32C545.431 377.893 544.881 384.64 544.221 392.56C544.148 393.44 543.965 394.026 543.671 394.32C543.378 394.613 542.755 394.76 541.801 394.76H537.841ZM530.031 321.28C530.031 318.346 531.095 316.036 533.221 314.35C535.348 312.663 538.208 311.82 541.801 311.82C544.955 311.82 547.228 312.48 548.621 313.8C550.088 315.046 550.821 316.733 550.821 318.86C550.821 321.573 549.795 323.846 547.741 325.68C545.761 327.44 542.828 328.32 538.941 328.32C533.001 328.32 530.031 325.973 530.031 321.28ZM577.579 395.86C574.719 395.86 571.969 395.346 569.329 394.32C566.762 393.293 564.489 391.68 562.509 389.48C560.602 387.28 559.062 384.493 557.889 381.12C556.789 377.746 556.239 373.676 556.239 368.91C556.239 366.783 556.386 364.436 556.679 361.87C556.972 359.23 557.486 356.59 558.219 353.95C558.952 351.31 559.979 348.743 561.299 346.25C562.619 343.756 564.269 341.556 566.249 339.65C568.302 337.67 570.722 336.093 573.509 334.92C576.369 333.746 579.706 333.16 583.519 333.16C587.186 333.16 590.119 333.82 592.319 335.14C594.592 336.386 596.022 338.586 596.609 341.74C596.756 338.88 596.902 336.386 597.049 334.26C597.196 332.133 597.306 330.153 597.379 328.32C597.526 326.486 597.672 324.653 597.819 322.82C597.966 320.986 598.112 318.896 598.259 316.55C598.332 314.936 598.516 313.983 598.809 313.69C598.956 313.543 599.139 313.47 599.359 313.47C599.579 313.396 599.982 313.36 600.569 313.36H604.859C607.059 313.36 608.892 313.616 610.359 314.13C611.826 314.643 612.999 315.34 613.879 316.22C614.759 317.1 615.382 318.126 615.749 319.3C616.116 320.4 616.299 321.573 616.299 322.82C616.299 322.82 616.226 323.736 616.079 325.57C615.932 327.403 615.749 329.86 615.529 332.94C615.309 335.946 615.052 339.393 614.759 343.28C614.466 347.166 614.172 351.2 613.879 355.38C613.586 359.486 613.292 363.593 612.999 367.7C612.706 371.733 612.412 375.473 612.119 378.92C611.826 382.293 611.569 385.226 611.349 387.72C611.202 390.14 611.092 391.753 611.019 392.56C610.872 393.44 610.689 394.026 610.469 394.32C610.249 394.613 609.626 394.76 608.599 394.76H604.639C603.099 394.76 601.632 394.65 600.239 394.43C598.919 394.136 597.746 393.696 596.719 393.11C595.766 392.45 594.996 391.606 594.409 390.58C593.896 389.48 593.639 388.086 593.639 386.4C592.319 389.186 590.302 391.46 587.589 393.22C584.949 394.98 581.612 395.86 577.579 395.86ZM587.149 347.79C583.409 347.79 580.622 349.44 578.789 352.74C577.029 355.966 576.149 360.33 576.149 365.83C576.149 367.736 576.259 369.606 576.479 371.44C576.772 373.273 577.249 374.923 577.909 376.39C578.569 377.856 579.449 379.03 580.549 379.91C581.722 380.79 583.189 381.23 584.949 381.23C588.102 381.23 590.742 379.69 592.869 376.61C594.996 373.53 596.059 368.69 596.059 362.09C596.059 360.256 595.949 358.496 595.729 356.81C595.509 355.05 595.069 353.51 594.409 352.19C593.749 350.87 592.832 349.806 591.659 349C590.486 348.193 588.982 347.79 587.149 347.79ZM621.073 381.23C621.073 374.63 624.043 369.46 629.983 365.72C635.923 361.98 644.686 359.963 656.273 359.67C656.346 358.863 656.383 358.203 656.383 357.69C656.456 357.103 656.493 356.406 656.493 355.6C656.493 353.253 656.053 351.383 655.173 349.99C654.293 348.596 652.459 347.9 649.673 347.9C648.133 347.9 646.886 348.12 645.933 348.56C644.979 349 644.209 349.623 643.623 350.43C643.036 351.163 642.559 352.08 642.193 353.18C641.826 354.28 641.496 355.49 641.203 356.81C641.056 357.47 640.726 357.91 640.213 358.13C639.699 358.276 638.893 358.35 637.793 358.35C630.313 358.35 626.573 355.526 626.573 349.88C626.573 347.606 627.086 345.443 628.113 343.39C629.213 341.336 630.789 339.576 632.843 338.11C634.969 336.57 637.609 335.36 640.763 334.48C643.916 333.6 647.583 333.16 651.763 333.16C659.903 333.16 665.806 334.846 669.473 338.22C673.139 341.593 674.973 346.36 674.973 352.52C674.973 353.326 674.863 354.793 674.643 356.92C674.496 358.973 674.276 361.173 673.983 363.52C673.763 365.793 673.543 367.956 673.323 370.01C673.176 372.063 673.103 373.493 673.103 374.3C673.103 376.133 673.433 377.453 674.093 378.26C674.753 378.993 675.486 379.506 676.293 379.8C677.173 380.093 677.943 380.313 678.603 380.46C679.263 380.606 679.593 380.973 679.593 381.56C679.593 383.173 679.373 384.823 678.933 386.51C678.493 388.196 677.759 389.736 676.733 391.13C675.779 392.523 674.423 393.66 672.663 394.54C670.976 395.42 668.886 395.86 666.393 395.86C662.873 395.86 660.233 395.016 658.473 393.33C656.713 391.643 655.539 389.296 654.953 386.29C653.193 388.856 650.883 391.093 648.023 393C645.236 394.906 641.569 395.86 637.023 395.86C634.823 395.86 632.733 395.603 630.753 395.09C628.846 394.576 627.159 393.733 625.693 392.56C624.299 391.386 623.163 389.883 622.283 388.05C621.476 386.143 621.073 383.87 621.073 381.23ZM655.283 368.69C653.376 368.69 651.506 368.836 649.673 369.13C647.839 369.423 646.189 369.9 644.723 370.56C643.329 371.146 642.193 371.953 641.313 372.98C640.433 374.006 639.993 375.253 639.993 376.72C639.993 378.406 640.506 379.58 641.533 380.24C642.633 380.9 643.806 381.23 645.053 381.23C646.226 381.23 647.399 380.973 648.573 380.46C649.746 379.946 650.773 379.176 651.653 378.15C652.606 377.05 653.413 375.73 654.073 374.19C654.733 372.65 655.136 370.816 655.283 368.69ZM738.605 385.85C738.605 386.216 738.422 386.95 738.055 388.05C737.688 389.15 737.102 390.286 736.295 391.46C735.488 392.633 734.462 393.66 733.215 394.54C732.042 395.42 730.612 395.86 728.925 395.86C726.945 395.86 724.965 395.2 722.985 393.88C721.078 392.56 719.172 390.763 717.265 388.49C715.358 386.216 713.415 383.54 711.435 380.46C709.528 377.306 707.585 373.896 705.605 370.23C705.312 374.116 705.018 377.93 704.725 381.67C704.432 385.41 704.138 389.04 703.845 392.56C703.772 393.44 703.588 394.026 703.295 394.32C703.002 394.613 702.378 394.76 701.425 394.76H697.465C695.192 394.76 693.322 394.54 691.855 394.1C690.388 393.586 689.252 392.89 688.445 392.01C687.638 391.13 687.052 390.03 686.685 388.71C686.392 387.316 686.245 385.74 686.245 383.98C686.245 383.1 686.282 382.183 686.355 381.23C686.428 380.276 686.538 378.92 686.685 377.16C686.832 375.4 687.015 373.09 687.235 370.23C687.528 367.37 687.858 363.593 688.225 358.9C688.592 354.206 688.995 348.45 689.435 341.63C689.948 334.736 690.498 326.376 691.085 316.55C691.158 314.936 691.342 313.983 691.635 313.69C691.855 313.47 692.442 313.36 693.395 313.36H697.685C699.958 313.36 701.828 313.616 703.295 314.13C704.762 314.643 705.935 315.34 706.815 316.22C707.695 317.1 708.282 318.126 708.575 319.3C708.942 320.473 709.125 321.683 709.125 322.93C709.125 323.663 709.052 324.91 708.905 326.67C708.832 328.356 708.722 330.446 708.575 332.94C708.428 335.36 708.208 338.11 707.915 341.19C707.695 344.27 707.475 347.496 707.255 350.87L724.855 334.81C725.515 334.223 726.102 333.82 726.615 333.6C727.202 333.38 727.642 333.27 727.935 333.27C728.742 333.27 729.622 333.783 730.575 334.81C731.528 335.836 732.408 337.046 733.215 338.44C734.095 339.76 734.792 341.153 735.305 342.62C735.892 344.013 736.185 345.15 736.185 346.03C736.185 348.156 734.462 350.393 731.015 352.74C727.642 355.086 722.508 357.726 715.615 360.66C718.695 364.106 721.628 367.26 724.415 370.12C727.202 372.98 729.622 375.51 731.675 377.71C733.802 379.91 735.488 381.706 736.735 383.1C737.982 384.493 738.605 385.41 738.605 385.85ZM765.985 381.23C765.985 374.63 768.955 369.46 774.895 365.72C780.835 361.98 789.598 359.963 801.185 359.67C801.258 358.863 801.295 358.203 801.295 357.69C801.368 357.103 801.405 356.406 801.405 355.6C801.405 353.253 800.965 351.383 800.085 349.99C799.205 348.596 797.372 347.9 794.585 347.9C793.045 347.9 791.798 348.12 790.845 348.56C789.892 349 789.122 349.623 788.535 350.43C787.948 351.163 787.472 352.08 787.105 353.18C786.738 354.28 786.408 355.49 786.115 356.81C785.968 357.47 785.638 357.91 785.125 358.13C784.612 358.276 783.805 358.35 782.705 358.35C775.225 358.35 771.485 355.526 771.485 349.88C771.485 347.606 771.998 345.443 773.025 343.39C774.125 341.336 775.702 339.576 777.755 338.11C779.882 336.57 782.522 335.36 785.675 334.48C788.828 333.6 792.495 333.16 796.675 333.16C804.815 333.16 810.718 334.846 814.385 338.22C818.052 341.593 819.885 346.36 819.885 352.52C819.885 353.326 819.775 354.793 819.555 356.92C819.408 358.973 819.188 361.173 818.895 363.52C818.675 365.793 818.455 367.956 818.235 370.01C818.088 372.063 818.015 373.493 818.015 374.3C818.015 376.133 818.345 377.453 819.005 378.26C819.665 378.993 820.398 379.506 821.205 379.8C822.085 380.093 822.855 380.313 823.515 380.46C824.175 380.606 824.505 380.973 824.505 381.56C824.505 383.173 824.285 384.823 823.845 386.51C823.405 388.196 822.672 389.736 821.645 391.13C820.692 392.523 819.335 393.66 817.575 394.54C815.888 395.42 813.798 395.86 811.305 395.86C807.785 395.86 805.145 395.016 803.385 393.33C801.625 391.643 800.452 389.296 799.865 386.29C798.105 388.856 795.795 391.093 792.935 393C790.148 394.906 786.482 395.86 781.935 395.86C779.735 395.86 777.645 395.603 775.665 395.09C773.758 394.576 772.072 393.733 770.605 392.56C769.212 391.386 768.075 389.883 767.195 388.05C766.388 386.143 765.985 383.87 765.985 381.23ZM800.195 368.69C798.288 368.69 796.418 368.836 794.585 369.13C792.752 369.423 791.102 369.9 789.635 370.56C788.242 371.146 787.105 371.953 786.225 372.98C785.345 374.006 784.905 375.253 784.905 376.72C784.905 378.406 785.418 379.58 786.445 380.24C787.545 380.9 788.718 381.23 789.965 381.23C791.138 381.23 792.312 380.973 793.485 380.46C794.658 379.946 795.685 379.176 796.565 378.15C797.518 377.05 798.325 375.73 798.985 374.19C799.645 372.65 800.048 370.816 800.195 368.69ZM851.397 395.86C848.537 395.86 845.787 395.346 843.147 394.32C840.581 393.293 838.307 391.68 836.327 389.48C834.421 387.28 832.881 384.493 831.707 381.12C830.607 377.746 830.057 373.676 830.057 368.91C830.057 366.783 830.204 364.436 830.497 361.87C830.791 359.23 831.304 356.59 832.037 353.95C832.771 351.31 833.797 348.743 835.117 346.25C836.437 343.756 838.087 341.556 840.067 339.65C842.121 337.67 844.541 336.093 847.327 334.92C850.187 333.746 853.524 333.16 857.337 333.16C861.004 333.16 863.937 333.82 866.137 335.14C868.411 336.386 869.841 338.586 870.427 341.74C870.574 338.88 870.721 336.386 870.867 334.26C871.014 332.133 871.124 330.153 871.197 328.32C871.344 326.486 871.491 324.653 871.637 322.82C871.784 320.986 871.931 318.896 872.077 316.55C872.151 314.936 872.334 313.983 872.627 313.69C872.774 313.543 872.957 313.47 873.177 313.47C873.397 313.396 873.801 313.36 874.387 313.36H878.677C880.877 313.36 882.711 313.616 884.177 314.13C885.644 314.643 886.817 315.34 887.697 316.22C888.577 317.1 889.201 318.126 889.567 319.3C889.934 320.4 890.117 321.573 890.117 322.82C890.117 322.82 890.044 323.736 889.897 325.57C889.751 327.403 889.567 329.86 889.347 332.94C889.127 335.946 888.871 339.393 888.577 343.28C888.284 347.166 887.991 351.2 887.697 355.38C887.404 359.486 887.111 363.593 886.817 367.7C886.524 371.733 886.231 375.473 885.937 378.92C885.644 382.293 885.387 385.226 885.167 387.72C885.021 390.14 884.911 391.753 884.837 392.56C884.691 393.44 884.507 394.026 884.287 394.32C884.067 394.613 883.444 394.76 882.417 394.76H878.457C876.917 394.76 875.451 394.65 874.057 394.43C872.737 394.136 871.564 393.696 870.537 393.11C869.584 392.45 868.814 391.606 868.227 390.58C867.714 389.48 867.457 388.086 867.457 386.4C866.137 389.186 864.121 391.46 861.407 393.22C858.767 394.98 855.431 395.86 851.397 395.86ZM860.967 347.79C857.227 347.79 854.441 349.44 852.607 352.74C850.847 355.966 849.967 360.33 849.967 365.83C849.967 367.736 850.077 369.606 850.297 371.44C850.591 373.273 851.067 374.923 851.727 376.39C852.387 377.856 853.267 379.03 854.367 379.91C855.541 380.79 857.007 381.23 858.767 381.23C861.921 381.23 864.561 379.69 866.687 376.61C868.814 373.53 869.877 368.69 869.877 362.09C869.877 360.256 869.767 358.496 869.547 356.81C869.327 355.05 868.887 353.51 868.227 352.19C867.567 350.87 866.651 349.806 865.477 349C864.304 348.193 862.801 347.79 860.967 347.79ZM894.891 381.23C894.891 374.63 897.861 369.46 903.801 365.72C909.741 361.98 918.504 359.963 930.091 359.67C930.164 358.863 930.201 358.203 930.201 357.69C930.274 357.103 930.311 356.406 930.311 355.6C930.311 353.253 929.871 351.383 928.991 349.99C928.111 348.596 926.278 347.9 923.491 347.9C921.951 347.9 920.704 348.12 919.751 348.56C918.798 349 918.028 349.623 917.441 350.43C916.854 351.163 916.378 352.08 916.011 353.18C915.644 354.28 915.314 355.49 915.021 356.81C914.874 357.47 914.544 357.91 914.031 358.13C913.518 358.276 912.711 358.35 911.611 358.35C904.131 358.35 900.391 355.526 900.391 349.88C900.391 347.606 900.904 345.443 901.931 343.39C903.031 341.336 904.608 339.576 906.661 338.11C908.788 336.57 911.428 335.36 914.581 334.48C917.734 333.6 921.401 333.16 925.581 333.16C933.721 333.16 939.624 334.846 943.291 338.22C946.958 341.593 948.791 346.36 948.791 352.52C948.791 353.326 948.681 354.793 948.461 356.92C948.314 358.973 948.094 361.173 947.801 363.52C947.581 365.793 947.361 367.956 947.141 370.01C946.994 372.063 946.921 373.493 946.921 374.3C946.921 376.133 947.251 377.453 947.911 378.26C948.571 378.993 949.304 379.506 950.111 379.8C950.991 380.093 951.761 380.313 952.421 380.46C953.081 380.606 953.411 380.973 953.411 381.56C953.411 383.173 953.191 384.823 952.751 386.51C952.311 388.196 951.578 389.736 950.551 391.13C949.598 392.523 948.241 393.66 946.481 394.54C944.794 395.42 942.704 395.86 940.211 395.86C936.691 395.86 934.051 395.016 932.291 393.33C930.531 391.643 929.358 389.296 928.771 386.29C927.011 388.856 924.701 391.093 921.841 393C919.054 394.906 915.388 395.86 910.841 395.86C908.641 395.86 906.551 395.603 904.571 395.09C902.664 394.576 900.978 393.733 899.511 392.56C898.118 391.386 896.981 389.883 896.101 388.05C895.294 386.143 894.891 383.87 894.891 381.23ZM929.101 368.69C927.194 368.69 925.324 368.836 923.491 369.13C921.658 369.423 920.008 369.9 918.541 370.56C917.148 371.146 916.011 371.953 915.131 372.98C914.251 374.006 913.811 375.253 913.811 376.72C913.811 378.406 914.324 379.58 915.351 380.24C916.451 380.9 917.624 381.23 918.871 381.23C920.044 381.23 921.218 380.973 922.391 380.46C923.564 379.946 924.591 379.176 925.471 378.15C926.424 377.05 927.231 375.73 927.891 374.19C928.551 372.65 928.954 370.816 929.101 368.69ZM1015.37 316.66C1017.2 316.66 1018.7 317.026 1019.88 317.76C1021.12 318.42 1022.15 319.336 1022.96 320.51C1023.76 321.61 1024.42 322.893 1024.94 324.36C1025.45 325.826 1025.89 327.33 1026.26 328.87C1029.19 340.75 1031.61 350.54 1033.52 358.24C1035.42 365.94 1036.93 372.173 1038.03 376.94C1039.13 381.633 1039.9 385.116 1040.34 387.39C1040.78 389.663 1041 391.24 1041 392.12C1041 393.146 1040.74 393.843 1040.23 394.21C1039.79 394.576 1039.05 394.76 1038.03 394.76H1032.42C1029.26 394.76 1026.73 394.393 1024.83 393.66C1022.99 392.853 1021.56 391.716 1020.54 390.25C1019.58 388.783 1018.89 387.023 1018.45 384.97C1018.01 382.843 1017.64 380.46 1017.35 377.82H998.207L994.577 393C994.21 394.173 993.367 394.76 992.047 394.76H986.217C985.044 394.76 983.834 394.65 982.587 394.43C981.34 394.136 980.204 393.696 979.177 393.11C978.224 392.523 977.417 391.79 976.757 390.91C976.097 389.956 975.767 388.82 975.767 387.5C975.767 385.886 976.28 383.246 977.307 379.58C978.334 375.913 979.617 371.77 981.157 367.15C982.77 362.456 984.53 357.58 986.437 352.52C988.417 347.386 990.324 342.546 992.157 338C993.99 333.453 995.64 329.456 997.107 326.01C998.647 322.563 999.82 320.143 1000.63 318.75C1001.21 317.723 1001.73 317.136 1002.17 316.99C1002.68 316.77 1003.6 316.66 1004.92 316.66H1015.37ZM1002.17 361.87H1014.82L1010.2 332.83L1002.17 361.87ZM1072.05 395.86C1066.41 395.86 1061.93 395.053 1058.63 393.44C1055.33 391.753 1052.84 389.663 1051.15 387.17C1049.47 384.676 1048.4 382 1047.96 379.14C1047.52 376.206 1047.3 373.53 1047.3 371.11C1047.3 370.156 1047.38 368.286 1047.52 365.5C1047.74 362.713 1048 359.486 1048.29 355.82C1048.59 352.153 1048.88 348.266 1049.17 344.16C1049.47 339.98 1049.76 336.056 1050.05 332.39C1050.35 328.65 1050.57 325.35 1050.71 322.49C1050.93 319.63 1051.04 317.65 1051.04 316.55C1051.04 314.936 1051.15 314.02 1051.37 313.8C1051.59 313.506 1052.25 313.36 1053.35 313.36H1057.64C1059.84 313.36 1061.68 313.616 1063.14 314.13C1064.61 314.643 1065.78 315.34 1066.66 316.22C1067.54 317.1 1068.17 318.126 1068.53 319.3C1068.9 320.4 1069.08 321.61 1069.08 322.93C1069.08 324.176 1068.94 326.596 1068.64 330.19C1068.42 333.783 1068.13 338 1067.76 342.84C1069.67 339.54 1071.83 337.12 1074.25 335.58C1076.67 333.966 1079.86 333.16 1083.82 333.16C1090.5 333.16 1095.59 335.36 1099.11 339.76C1102.71 344.16 1104.5 350.723 1104.5 359.45C1104.5 361.723 1104.32 364.216 1103.95 366.93C1103.66 369.643 1103.07 372.356 1102.19 375.07C1101.39 377.71 1100.21 380.313 1098.67 382.88C1097.21 385.373 1095.26 387.573 1092.84 389.48C1090.42 391.386 1087.49 392.926 1084.04 394.1C1080.67 395.273 1076.67 395.86 1072.05 395.86ZM1077 347.79C1074.36 347.79 1072.27 348.486 1070.73 349.88C1069.27 351.273 1068.13 352.96 1067.32 354.94C1066.52 356.92 1066 359.046 1065.78 361.32C1065.56 363.52 1065.45 365.463 1065.45 367.15C1065.45 372.21 1066.15 375.84 1067.54 378.04C1068.94 380.166 1071.03 381.23 1073.81 381.23C1076.45 381.23 1078.51 380.423 1079.97 378.81C1081.51 377.123 1082.65 375.143 1083.38 372.87C1084.19 370.596 1084.7 368.286 1084.92 365.94C1085.14 363.593 1085.25 361.76 1085.25 360.44C1085.25 356.333 1084.63 353.216 1083.38 351.09C1082.14 348.89 1080.01 347.79 1077 347.79ZM1138.45 333.16C1144.68 333.16 1149.27 334.406 1152.2 336.9C1155.13 339.32 1156.6 342.436 1156.6 346.25C1156.6 349.476 1155.57 351.933 1153.52 353.62C1151.54 355.306 1148.64 356.15 1144.83 356.15C1143.8 356.15 1143.11 356.04 1142.74 355.82C1142.37 355.6 1142.19 355.196 1142.19 354.61C1142.19 353.95 1142.12 353.216 1141.97 352.41C1141.9 351.53 1141.64 350.723 1141.2 349.99C1140.83 349.183 1140.21 348.523 1139.33 348.01C1138.52 347.496 1137.35 347.24 1135.81 347.24C1133.76 347.24 1132.11 347.753 1130.86 348.78C1129.61 349.733 1128.99 350.943 1128.99 352.41C1128.99 353.95 1129.61 355.196 1130.86 356.15C1132.18 357.03 1133.79 357.873 1135.7 358.68C1137.68 359.486 1139.81 360.33 1142.08 361.21C1144.35 362.016 1146.44 363.116 1148.35 364.51C1150.33 365.903 1151.94 367.663 1153.19 369.79C1154.51 371.843 1155.17 374.52 1155.17 377.82C1155.17 383.1 1153.3 387.426 1149.56 390.8C1145.82 394.173 1140.21 395.86 1132.73 395.86C1130.68 395.86 1128.29 395.676 1125.58 395.31C1122.94 395.016 1120.41 394.54 1117.99 393.88C1115.57 393.146 1113.52 392.193 1111.83 391.02C1110.22 389.846 1109.41 388.38 1109.41 386.62C1109.41 385.96 1109.52 385.153 1109.74 384.2C1110.03 383.246 1110.44 382.33 1110.95 381.45C1111.54 380.57 1112.2 379.836 1112.93 379.25C1113.74 378.59 1114.69 378.26 1115.79 378.26C1116.67 378.26 1117.48 378.48 1118.21 378.92C1118.94 379.36 1119.79 379.836 1120.74 380.35C1121.77 380.79 1123.01 381.23 1124.48 381.67C1125.95 382.11 1127.89 382.33 1130.31 382.33C1132.14 382.33 1133.76 382.11 1135.15 381.67C1136.62 381.23 1137.35 380.24 1137.35 378.7C1137.35 377.306 1136.76 376.206 1135.59 375.4C1134.42 374.52 1132.91 373.713 1131.08 372.98C1129.32 372.246 1127.38 371.476 1125.25 370.67C1123.2 369.79 1121.25 368.653 1119.42 367.26C1117.66 365.866 1116.19 364.106 1115.02 361.98C1113.85 359.78 1113.26 356.956 1113.26 353.51C1113.26 349.77 1113.99 346.616 1115.46 344.05C1117 341.41 1118.94 339.283 1121.29 337.67C1123.71 336.056 1126.42 334.92 1129.43 334.26C1132.44 333.526 1135.44 333.16 1138.45 333.16ZM1189.9 395.86C1186.67 395.86 1183.45 395.456 1180.22 394.65C1177.07 393.843 1174.21 392.45 1171.64 390.47C1169.15 388.49 1167.09 385.85 1165.48 382.55C1163.87 379.25 1163.06 375.106 1163.06 370.12C1163.06 368.286 1163.21 366.086 1163.5 363.52C1163.79 360.953 1164.34 358.313 1165.15 355.6C1166.03 352.886 1167.2 350.21 1168.67 347.57C1170.21 344.856 1172.19 342.436 1174.61 340.31C1177.03 338.183 1179.96 336.46 1183.41 335.14C1186.86 333.82 1190.96 333.16 1195.73 333.16C1199.54 333.16 1202.77 333.6 1205.41 334.48C1208.05 335.36 1210.18 336.57 1211.79 338.11C1213.4 339.576 1214.58 341.3 1215.31 343.28C1216.04 345.26 1216.41 347.386 1216.41 349.66C1216.41 353.033 1215.71 355.893 1214.32 358.24C1213 360.586 1211.24 362.566 1209.04 364.18C1206.91 365.72 1204.53 366.93 1201.89 367.81C1199.25 368.69 1196.65 369.386 1194.08 369.9C1191.51 370.34 1189.13 370.633 1186.93 370.78C1184.8 370.853 1183.15 370.89 1181.98 370.89C1181.98 372.283 1182.16 373.676 1182.53 375.07C1182.97 376.39 1183.59 377.563 1184.4 378.59C1185.21 379.616 1186.27 380.46 1187.59 381.12C1188.91 381.78 1190.52 382.11 1192.43 382.11C1194.34 382.11 1195.8 381.816 1196.83 381.23C1197.93 380.57 1198.81 379.873 1199.47 379.14C1200.13 378.333 1200.68 377.636 1201.12 377.05C1201.63 376.39 1202.29 376.06 1203.1 376.06C1203.47 376.06 1204.09 376.17 1204.97 376.39C1205.92 376.536 1206.88 376.903 1207.83 377.49C1208.78 378.076 1209.63 378.883 1210.36 379.91C1211.09 380.936 1211.46 382.256 1211.46 383.87C1211.46 385.996 1210.8 387.83 1209.48 389.37C1208.16 390.91 1206.44 392.156 1204.31 393.11C1202.26 394.063 1199.95 394.76 1197.38 395.2C1194.81 395.64 1192.32 395.86 1189.9 395.86ZM1191.99 347.79C1190.38 347.79 1188.98 348.266 1187.81 349.22C1186.71 350.1 1185.76 351.236 1184.95 352.63C1184.22 354.023 1183.63 355.563 1183.19 357.25C1182.82 358.936 1182.53 360.55 1182.31 362.09C1186.86 362.016 1190.52 361.246 1193.31 359.78C1196.17 358.313 1197.6 356.223 1197.6 353.51C1197.6 352.043 1197.12 350.723 1196.17 349.55C1195.29 348.376 1193.9 347.79 1191.99 347.79ZM1260.54 385.08C1260.54 383.466 1260.65 381.376 1260.87 378.81C1261.17 376.17 1261.42 373.42 1261.64 370.56C1261.94 367.626 1262.19 364.803 1262.41 362.09C1262.71 359.376 1262.85 357.103 1262.85 355.27C1262.85 353.363 1262.38 351.676 1261.42 350.21C1260.54 348.67 1258.78 347.9 1256.14 347.9C1253.58 347.9 1251.45 348.523 1249.76 349.77C1248.08 351.016 1246.65 353.29 1245.47 356.59C1244.37 359.89 1243.46 364.436 1242.72 370.23C1241.99 376.023 1241.29 383.466 1240.63 392.56C1240.56 393.44 1240.38 394.026 1240.08 394.32C1239.79 394.613 1239.17 394.76 1238.21 394.76H1234.25C1231.98 394.76 1230.11 394.54 1228.64 394.1C1227.25 393.586 1226.11 392.89 1225.23 392.01C1224.43 391.13 1223.84 390.066 1223.47 388.82C1223.18 387.5 1223.03 385.996 1223.03 384.31C1223.03 383.21 1223.07 381.67 1223.14 379.69C1223.29 377.636 1223.51 374.85 1223.8 371.33C1224.1 367.736 1224.43 363.226 1224.79 357.8C1225.23 352.3 1225.75 345.516 1226.33 337.45C1226.41 335.836 1226.59 334.883 1226.88 334.59C1227.1 334.37 1227.69 334.26 1228.64 334.26H1232.93C1235.13 334.26 1236.93 334.516 1238.32 335.03C1239.79 335.543 1240.96 336.24 1241.84 337.12C1242.72 337.926 1243.35 338.916 1243.71 340.09C1244.08 341.19 1244.3 342.326 1244.37 343.5C1246.65 339.613 1249.25 336.936 1252.18 335.47C1255.12 333.93 1258.78 333.16 1263.18 333.16C1266.26 333.16 1268.94 333.49 1271.21 334.15C1273.49 334.81 1275.36 335.946 1276.82 337.56C1278.36 339.1 1279.5 341.153 1280.23 343.72C1280.97 346.213 1281.33 349.33 1281.33 353.07C1281.33 354.243 1281.26 355.93 1281.11 358.13C1280.97 360.33 1280.78 362.75 1280.56 365.39C1280.34 367.956 1280.09 370.67 1279.79 373.53C1279.57 376.316 1279.35 378.92 1279.13 381.34C1278.91 383.76 1278.73 385.886 1278.58 387.72C1278.44 389.553 1278.36 390.763 1278.36 391.35C1278.36 392.963 1278.18 393.953 1277.81 394.32C1277.45 394.613 1276.64 394.76 1275.39 394.76H1271.87C1269.53 394.76 1267.62 394.54 1266.15 394.1C1264.69 393.66 1263.55 393.036 1262.74 392.23C1261.94 391.423 1261.35 390.433 1260.98 389.26C1260.69 388.013 1260.54 386.62 1260.54 385.08ZM1316.77 333.16C1323 333.16 1327.59 334.406 1330.52 336.9C1333.45 339.32 1334.92 342.436 1334.92 346.25C1334.92 349.476 1333.89 351.933 1331.84 353.62C1329.86 355.306 1326.96 356.15 1323.15 356.15C1322.12 356.15 1321.43 356.04 1321.06 355.82C1320.69 355.6 1320.51 355.196 1320.51 354.61C1320.51 353.95 1320.44 353.216 1320.29 352.41C1320.22 351.53 1319.96 350.723 1319.52 349.99C1319.15 349.183 1318.53 348.523 1317.65 348.01C1316.84 347.496 1315.67 347.24 1314.13 347.24C1312.08 347.24 1310.43 347.753 1309.18 348.78C1307.93 349.733 1307.31 350.943 1307.31 352.41C1307.31 353.95 1307.93 355.196 1309.18 356.15C1310.5 357.03 1312.11 357.873 1314.02 358.68C1316 359.486 1318.13 360.33 1320.4 361.21C1322.67 362.016 1324.76 363.116 1326.67 364.51C1328.65 365.903 1330.26 367.663 1331.51 369.79C1332.83 371.843 1333.49 374.52 1333.49 377.82C1333.49 383.1 1331.62 387.426 1327.88 390.8C1324.14 394.173 1318.53 395.86 1311.05 395.86C1309 395.86 1306.61 395.676 1303.9 395.31C1301.26 395.016 1298.73 394.54 1296.31 393.88C1293.89 393.146 1291.84 392.193 1290.15 391.02C1288.54 389.846 1287.73 388.38 1287.73 386.62C1287.73 385.96 1287.84 385.153 1288.06 384.2C1288.35 383.246 1288.76 382.33 1289.27 381.45C1289.86 380.57 1290.52 379.836 1291.25 379.25C1292.06 378.59 1293.01 378.26 1294.11 378.26C1294.99 378.26 1295.8 378.48 1296.53 378.92C1297.26 379.36 1298.11 379.836 1299.06 380.35C1300.09 380.79 1301.33 381.23 1302.8 381.67C1304.27 382.11 1306.21 382.33 1308.63 382.33C1310.46 382.33 1312.08 382.11 1313.47 381.67C1314.94 381.23 1315.67 380.24 1315.67 378.7C1315.67 377.306 1315.08 376.206 1313.91 375.4C1312.74 374.52 1311.23 373.713 1309.4 372.98C1307.64 372.246 1305.7 371.476 1303.57 370.67C1301.52 369.79 1299.57 368.653 1297.74 367.26C1295.98 365.866 1294.51 364.106 1293.34 361.98C1292.17 359.78 1291.58 356.956 1291.58 353.51C1291.58 349.77 1292.31 346.616 1293.78 344.05C1295.32 341.41 1297.26 339.283 1299.61 337.67C1302.03 336.056 1304.74 334.92 1307.75 334.26C1310.76 333.526 1313.76 333.16 1316.77 333.16ZM1354.14 394.76C1351.87 394.76 1350 394.54 1348.53 394.1C1347.14 393.586 1346 392.89 1345.12 392.01C1344.31 391.13 1343.73 390.066 1343.36 388.82C1343.07 387.5 1342.92 385.996 1342.92 384.31C1342.92 383.21 1342.96 381.67 1343.03 379.69C1343.18 377.636 1343.4 374.85 1343.69 371.33C1343.98 367.736 1344.31 363.226 1344.68 357.8C1345.12 352.3 1345.63 345.516 1346.22 337.45C1346.29 335.836 1346.48 334.883 1346.77 334.59C1346.99 334.37 1347.58 334.26 1348.53 334.26H1352.82C1355.09 334.26 1356.93 334.48 1358.32 334.92C1359.79 335.36 1360.92 336.02 1361.73 336.9C1362.61 337.78 1363.2 338.843 1363.49 340.09C1363.86 341.336 1364.04 342.73 1364.04 344.27C1364.04 345.37 1363.97 347.02 1363.82 349.22C1363.67 351.42 1363.45 354.426 1363.16 358.24C1362.94 361.98 1362.61 366.673 1362.17 372.32C1361.73 377.893 1361.18 384.64 1360.52 392.56C1360.45 393.44 1360.26 394.026 1359.97 394.32C1359.68 394.613 1359.05 394.76 1358.1 394.76H1354.14ZM1346.33 321.28C1346.33 318.346 1347.39 316.036 1349.52 314.35C1351.65 312.663 1354.51 311.82 1358.1 311.82C1361.25 311.82 1363.53 312.48 1364.92 313.8C1366.39 315.046 1367.12 316.733 1367.12 318.86C1367.12 321.573 1366.09 323.846 1364.04 325.68C1362.06 327.44 1359.13 328.32 1355.24 328.32C1349.3 328.32 1346.33 325.973 1346.33 321.28Z" fill="#6614BE"/>
<g filter="url(#filter1_d_1294_75)">
<path d="M1186.07 820.408C1176.84 847.796 1154.23 848.731 1119.64 857.481C1119 857.645 1118.32 857.732 1117.65 857.728C1085.12 857.528 1058.42 847.611 1058.42 820.408C1058.42 792.925 1076.95 782.395 1112.2 782.395C1147.46 782.395 1186.07 792.925 1186.07 820.408Z" fill="#FAFAFA"/>
</g>
<g filter="url(#filter2_d_1294_75)">
<path d="M1078.5 704.293C1069.26 731.681 1046.65 732.615 1012.07 741.366C1011.42 741.53 1010.74 741.617 1010.07 741.613C977.541 741.413 950.844 731.496 950.844 704.293C950.844 676.809 969.38 666.279 1004.63 666.279C1039.88 666.279 1078.5 676.809 1078.5 704.293Z" fill="#FAFAFA"/>
</g>
<path d="M1566.83 1276.71C1554.59 1280.15 1540.33 1311.81 1550.39 1345C1560.44 1378.19 1580.62 1391.76 1599.07 1380.9C1618.57 1364.78 1618.82 1345 1606.32 1342.88C1568.73 1336.49 1579.07 1273.26 1566.83 1276.71Z" fill="#57DFD7"/>
<path d="M1219.28 1344.19C1214.92 1348.65 1212.83 1350.79 1211.04 1356.05C1210.04 1372.83 1224.49 1387.88 1243.88 1393.1C1263.15 1398.28 1286.76 1393.51 1303.15 1370.87C1306.76 1364.66 1310.5 1358.48 1314.17 1352.42L1314.23 1352.32C1317.9 1346.26 1321.5 1340.33 1324.84 1334.56C1331.57 1322.94 1337.17 1312.15 1340.18 1302.65C1343.2 1293.12 1343.48 1285.27 1340.11 1279.25C1336.78 1273.29 1329.55 1268.58 1316.17 1266.02C1312.93 1266.01 1309.94 1265.99 1307.16 1265.97C1297.06 1265.9 1289.83 1265.85 1284.4 1266.2C1277.47 1266.64 1273.93 1267.72 1271.27 1269.87C1268.49 1272.13 1266.42 1275.74 1262.96 1282.14C1262.79 1282.46 1262.61 1282.79 1262.43 1283.12C1259.09 1289.32 1254.6 1297.66 1247.22 1308.77C1234.26 1328.27 1226.14 1337.12 1220.7 1342.73C1220.2 1343.25 1219.73 1343.73 1219.28 1344.19Z" fill="white" stroke="black" stroke-width="4"/>
<path d="M1561.04 1250.36C1569.81 1273.03 1574.93 1298.12 1576.5 1308.84C1576.31 1308.95 1576.07 1309.12 1575.88 1309.39C1575.79 1309.5 1575.71 1309.63 1575.65 1309.77C1575.04 1309.96 1574.22 1310.18 1573.13 1310.45C1570.05 1311.21 1564.96 1312.26 1556.69 1313.71C1538.7 1315.71 1522.07 1313.88 1509.75 1309.37C1497.29 1304.82 1489.84 1297.8 1488.88 1289.83C1487.8 1280.88 1487.27 1260.92 1491.52 1242.77C1495.8 1224.46 1504.64 1209.03 1521.53 1207.14C1529.69 1206.23 1537.1 1210.6 1543.83 1218.66C1550.56 1226.7 1556.3 1238.1 1561.04 1250.36Z" fill="#00FFC5" stroke="black" stroke-width="4"/>
<path d="M1553.44 1307.99C1547.7 1357.58 1536.38 1402.44 1512.52 1436.62C1488.74 1470.67 1452.34 1494.35 1395.85 1501.32C1395.24 1501.39 1394.56 1501.36 1393.96 1501.22C1338.88 1488.47 1308.5 1467.04 1289.48 1436.56C1270.31 1405.85 1262.48 1365.71 1253.2 1314.86C1253.14 1314.53 1253.11 1314.21 1253.11 1313.86C1253.07 1311.48 1252.85 1308.6 1252.61 1305.32C1251.51 1290.58 1249.8 1267.78 1260.73 1245.44C1273.92 1218.48 1305.97 1191.73 1382.56 1183.09C1382.98 1183.05 1383.48 1183.05 1383.92 1183.1C1420.92 1187.67 1446.08 1185.31 1464.05 1182.3C1468.53 1181.55 1472.55 1180.76 1476.18 1180.03C1476.73 1179.92 1477.28 1179.81 1477.82 1179.7C1480.79 1179.11 1483.46 1178.57 1485.91 1178.14C1491.76 1177.13 1495.97 1176.82 1499.46 1177.69C1502.8 1178.53 1505.76 1180.51 1508.86 1184.76C1512.03 1189.09 1515.25 1195.62 1519.08 1205.33C1524.4 1218.81 1530.74 1237.97 1539.68 1265.01C1543.62 1276.93 1548.07 1290.38 1553.16 1305.55C1553.43 1306.34 1553.53 1307.22 1553.44 1307.99Z" fill="white" stroke="black" stroke-width="5"/>
<path d="M1609.56 1040.15C1609.56 1089.97 1579.03 1140.29 1529.78 1178.27C1480.57 1216.22 1412.95 1241.59 1339.45 1241.59C1277.26 1241.59 1211.84 1231.44 1162.05 1201.2C1112.44 1171.08 1078.13 1120.91 1078.13 1040.15C1078.13 990.258 1107.63 937.175 1155.8 896.474C1203.92 855.812 1270.41 827.748 1343.85 827.748C1417.49 827.748 1483.98 847.718 1531.99 884.223C1579.95 920.684 1609.56 973.692 1609.56 1040.15Z" fill="white" stroke="black" stroke-width="5"/>
<path d="M1535.28 1315.72C1545.17 1345.17 1551.24 1377.65 1553.1 1391.08C1552.88 1391.2 1552.56 1391.43 1552.32 1391.83C1552.22 1391.98 1552.15 1392.15 1552.1 1392.33C1551.48 1392.55 1550.65 1392.81 1549.53 1393.12C1546.37 1393.99 1541.13 1395.2 1532.6 1396.81C1514.04 1398.88 1496.77 1396.12 1483.87 1390.09C1470.92 1384.03 1462.68 1374.85 1461.39 1364.18C1460 1352.7 1458.89 1327.24 1462.81 1304.19C1464.76 1292.65 1467.95 1281.88 1472.88 1273.78C1477.78 1265.72 1484.29 1260.47 1492.95 1259.5C1501.22 1258.57 1509.07 1264.22 1516.41 1274.8C1523.68 1285.28 1530 1300 1535.28 1315.72Z" fill="#00FFC5" stroke="black" stroke-width="4"/>
<path d="M1293.95 1374.92C1294.54 1391.71 1310.36 1405.44 1330.18 1408.92C1349.86 1412.37 1372.92 1405.54 1387.08 1381.56C1390.09 1375.05 1393.23 1368.57 1396.31 1362.21L1396.36 1362.11C1399.44 1355.75 1402.45 1349.52 1405.23 1343.49C1410.83 1331.33 1415.39 1320.08 1417.48 1310.36C1419.58 1300.6 1419.12 1292.77 1415.19 1287.07C1411.3 1281.43 1403.65 1277.37 1390.08 1276C1386.85 1276.27 1383.87 1276.52 1381.1 1276.75C1371.03 1277.57 1363.83 1278.16 1358.46 1278.98C1351.59 1280.04 1348.17 1281.42 1345.74 1283.79C1343.18 1286.28 1341.46 1290.06 1338.63 1296.75C1338.48 1297.08 1338.34 1297.42 1338.2 1297.77C1335.46 1304.24 1331.77 1312.93 1325.48 1324.65C1314.43 1345.22 1307.18 1354.75 1302.29 1360.82C1301.85 1361.37 1301.42 1361.89 1301.02 1362.39C1297.11 1367.22 1295.23 1369.52 1293.95 1374.92Z" fill="white" stroke="black" stroke-width="4"/>
<path d="M1519 1113.05C1491.48 1144.04 1403.35 1175.4 1327.88 1129.8C1240.56 1191.38 1157.18 1141.89 1137.68 1104.9C1080.74 996.907 1193.06 891.983 1356.77 899.862C1520.49 907.741 1595.26 1027.15 1519 1113.05Z" fill="black"/>
<path d="M1475.24 1586.91C1475.24 1596.2 1468.71 1604.99 1457.33 1611.57C1446.01 1618.12 1430.23 1622.23 1412.69 1622.23C1395.16 1622.23 1379.38 1618.12 1368.05 1611.57C1356.68 1604.99 1350.15 1596.2 1350.15 1586.91C1350.15 1577.62 1356.68 1568.83 1368.05 1562.25C1379.38 1555.7 1395.16 1551.59 1412.69 1551.59C1430.23 1551.59 1446.01 1555.7 1457.33 1562.25C1468.71 1568.83 1475.24 1577.62 1475.24 1586.91Z" fill="#201E1E" fill-opacity="0.74" stroke="#605E5E" stroke-width="4"/>
<path d="M1418.43 1228.2L1423.45 1286.94L1435.64 1356.06L1453.94 1424.55C1454.17 1425.42 1454.55 1426.25 1455.06 1426.99L1480.1 1463.88" stroke="#F4F4F4"/>
<ellipse cx="1248.46" cy="1070.61" rx="29.4035" ry="28.3376" fill="#84F6D5"/>
<ellipse cx="1411.98" cy="1071.3" rx="29.4035" ry="27.6464" fill="#84F6D5"/>
<path d="M767.25 1103.79L876.258 1011.86L932.197 1121.06H773.848L767.25 1103.79Z" fill="#282121"/>
<path d="M767.25 1126.6L888.45 1230.96L932.197 1121.07H773.848L767.25 1126.6Z" fill="#282121"/>
<path d="M878.408 1012.55L1493.73 778.25L1467.91 1412.74L887.014 1228.2L932.195 1120.37L878.408 1012.55Z" fill="#8D2EF4" fill-opacity="0.22"/>
<rect x="120.373" y="706.367" width="529.263" height="301.346" fill="#363232"/>
<path d="M343.866 1007.69H365.262V1093.02L278.25 1164.4V1113.53L343.866 1090.56V1007.69Z" fill="#363232"/>
<path d="M772.705 1106.55L772.706 1127.29L408.629 1086.51L393.231 995.962L422.928 995.963L429.528 1054.71L772.705 1106.55Z" fill="#363232"/>
<rect x="146.191" y="732.633" width="477.628" height="254.347" fill="#1CB1B1"/>
<path d="M436.295 830.177C436.295 852.236 423.865 872.435 403.307 887.217C382.754 901.995 354.233 911.214 322.615 911.214C290.998 911.214 262.477 901.995 241.923 887.217C221.366 872.435 208.936 852.236 208.936 830.177C208.936 808.119 221.366 787.919 241.923 773.138C262.477 758.359 290.998 749.141 322.615 749.141C354.233 749.141 382.754 758.359 403.307 773.138C423.865 787.919 436.295 808.119 436.295 830.177Z" fill="white" stroke="black" stroke-width="5"/>
<path d="M394.729 853.704C372.262 868.445 346.02 868.633 321.485 849.892C269.889 879.114 239.11 849.093 232.005 823.846C228.397 791.448 270.251 755.874 353.597 768.896C437.304 789.225 410.245 843.522 394.729 853.704Z" fill="black"/>
<ellipse cx="283.285" cy="825.095" rx="14.7931" ry="12.3875" fill="#84F6D5"/>
<ellipse cx="355.449" cy="825.095" rx="14.7931" ry="12.3875" fill="#84F6D5"/>
<rect x="186.352" y="934.451" width="154.906" height="13.8232" fill="#3AD6B2"/>
<rect x="186.352" y="956.568" width="154.906" height="13.8232" fill="#3AD6B2"/>
<rect x="453.135" y="858.424" width="154.906" height="13.8232" fill="#3AD6B2"/>
<rect x="418.709" y="887.453" width="100.402" height="13.8232" fill="#3AD6B2"/>
<rect x="418.709" y="910.951" width="100.402" height="13.8232" fill="#3AD6B2"/>
<rect x="418.709" y="934.451" width="100.402" height="13.8232" fill="#3AD6B2"/>
<rect x="418.709" y="955.184" width="100.402" height="13.8232" fill="#3AD6B2"/>
<rect x="526.285" y="887.453" width="81.7561" height="46.999" fill="#3AD6B2"/>
<rect x="526.285" y="941.363" width="81.7561" height="29.0288" fill="#3AD6B2"/>
<path d="M565.88 796.218C565.88 814.131 550.792 828.776 532.022 828.776C513.253 828.776 498.164 814.131 498.164 796.218C498.164 778.306 513.253 763.66 532.022 763.66C550.792 763.66 565.88 778.306 565.88 796.218Z" stroke="#3AD6B2" stroke-width="4"/>
<path d="M512.383 791.932L524.679 807.043L550.747 786.837" stroke="#3AD6B2" stroke-width="3"/>
<path d="M264.347 1116.11H296.254V1170.32L306.059 1549.8H186.754L264.347 1116.11Z" fill="#282121"/>
<rect x="365.262" y="1199.02" width="415.325" height="143.044" fill="#282121"/>
<rect x="389.482" y="1219.07" width="14.3525" height="22.7778" rx="2" fill="#2DF0C4"/>
<rect x="611.049" y="1216.33" width="14.3525" height="22.7778" rx="2" fill="#2DF0C4"/>
<rect x="696.266" y="1213.6" width="14.3525" height="22.7778" rx="2" fill="#2DF0C4"/>
<rect x="414.598" y="1219.07" width="14.3525" height="22.7778" rx="2" fill="#2DF0C4"/>
<rect x="636.164" y="1216.33" width="14.3525" height="22.7778" rx="2" fill="#2DF0C4"/>
<rect x="721.383" y="1213.6" width="14.3525" height="22.7778" rx="2" fill="#2DF0C4"/>
<rect x="439.715" y="1219.07" width="14.3525" height="22.7778" rx="2" fill="#2DF0C4"/>
<rect x="661.281" y="1216.33" width="14.3525" height="22.7778" rx="2" fill="#2DF0C4"/>
<rect x="746.5" y="1213.6" width="14.3525" height="22.7778" rx="2" fill="#2DF0C4"/>
<rect x="439.715" y="1247.31" width="14.3525" height="22.7778" rx="2" fill="#2DF0C4"/>
<rect x="661.281" y="1244.58" width="14.3525" height="22.7778" rx="2" fill="#2DF0C4"/>
<rect x="746.5" y="1241.85" width="14.3525" height="22.7778" rx="2" fill="#2DF0C4"/>
<rect x="439.715" y="1275.56" width="14.3525" height="22.7778" rx="2" fill="#2DF0C4"/>
<rect x="661.281" y="1272.82" width="14.3525" height="22.7778" rx="2" fill="#2DF0C4"/>
<rect x="746.5" y="1270.09" width="14.3525" height="22.7778" rx="2" fill="#2DF0C4"/>
<rect x="414.598" y="1303.8" width="14.3525" height="22.7778" rx="2" fill="#2DF0C4"/>
<rect x="636.164" y="1301.07" width="14.3525" height="22.7778" rx="2" fill="#2DF0C4"/>
<rect x="721.383" y="1298.33" width="14.3525" height="22.7778" rx="2" fill="#2DF0C4"/>
<rect x="439.715" y="1303.8" width="14.3525" height="22.7778" rx="2" fill="#2DF0C4"/>
<rect x="661.281" y="1301.07" width="14.3525" height="22.7778" rx="2" fill="#2DF0C4"/>
<rect x="746.5" y="1298.33" width="14.3525" height="22.7778" rx="2" fill="#2DF0C4"/>
<rect x="474.699" y="1219.07" width="14.3525" height="22.7778" rx="2" fill="#2DF0C4"/>
<rect x="499.816" y="1219.07" width="14.3525" height="22.7778" rx="2" fill="#2DF0C4"/>
<rect x="524.934" y="1219.07" width="14.3525" height="22.7778" rx="2" fill="#2DF0C4"/>
<rect x="524.934" y="1247.31" width="14.3525" height="22.7778" rx="2" fill="#2DF0C4"/>
<rect x="506.992" y="1275.56" width="14.3525" height="22.7778" rx="2" fill="#2DF0C4"/>
<rect x="489.053" y="1303.8" width="14.3525" height="22.7778" rx="2" fill="#2DF0C4"/>
<rect x="567.99" y="1235.47" width="14.3525" height="22.7778" rx="2" fill="#2DF0C4"/>
<rect x="567.99" y="1287.4" width="14.3525" height="22.7778" rx="2" fill="#2DF0C4"/>
<rect x="389.482" y="1247.31" width="14.3525" height="22.7778" rx="2" fill="#2DF0C4"/>
<rect x="611.049" y="1244.58" width="14.3525" height="22.7778" rx="2" fill="#2DF0C4"/>
<rect x="696.266" y="1241.85" width="14.3525" height="22.7778" rx="2" fill="#2DF0C4"/>
<rect x="389.482" y="1275.56" width="14.3525" height="22.7778" rx="2" fill="#2DF0C4"/>
<rect x="611.049" y="1272.82" width="14.3525" height="22.7778" rx="2" fill="#2DF0C4"/>
<rect x="696.266" y="1270.09" width="14.3525" height="22.7778" rx="2" fill="#2DF0C4"/>
<rect x="389.482" y="1303.8" width="14.3525" height="22.7778" rx="2" fill="#2DF0C4"/>
<rect x="611.049" y="1301.07" width="14.3525" height="22.7778" rx="2" fill="#2DF0C4"/>
<rect x="696.266" y="1298.33" width="14.3525" height="22.7778" rx="2" fill="#2DF0C4"/>
<defs>
<filter id="filter0_d_1294_75" x="351.6" y="0" width="1117.45" height="642.869" filterUnits="userSpaceOnUse" color-interpolation-filters="sRGB">
<feFlood flood-opacity="0" result="BackgroundImageFix"/>
<feColorMatrix in="SourceAlpha" type="matrix" values="0 0 0 0 0 0 0 0 0 0 0 0 0 0 0 0 0 0 127 0" result="hardAlpha"/>
<feOffset dy="4"/>
<feGaussianBlur stdDeviation="2"/>
<feComposite in2="hardAlpha" operator="out"/>
<feColorMatrix type="matrix" values="0 0 0 0 0.770833 0 0 0 0 0.770833 0 0 0 0 0.770833 0 0 0 0.25 0"/>
<feBlend mode="normal" in2="BackgroundImageFix" result="effect1_dropShadow_1294_75"/>
<feBlend mode="normal" in="SourceGraphic" in2="effect1_dropShadow_1294_75" result="shape"/>
</filter>
<filter id="filter1_d_1294_75" x="1054.42" y="782.395" width="135.654" height="83.334" filterUnits="userSpaceOnUse" color-interpolation-filters="sRGB">
<feFlood flood-opacity="0" result="BackgroundImageFix"/>
<feColorMatrix in="SourceAlpha" type="matrix" values="0 0 0 0 0 0 0 0 0 0 0 0 0 0 0 0 0 0 127 0" result="hardAlpha"/>
<feOffset dy="4"/>
<feGaussianBlur stdDeviation="2"/>
<feComposite in2="hardAlpha" operator="out"/>
<feColorMatrix type="matrix" values="0 0 0 0 0.770833 0 0 0 0 0.770833 0 0 0 0 0.770833 0 0 0 0.25 0"/>
<feBlend mode="normal" in2="BackgroundImageFix" result="effect1_dropShadow_1294_75"/>
<feBlend mode="normal" in="SourceGraphic" in2="effect1_dropShadow_1294_75" result="shape"/>
</filter>
<filter id="filter2_d_1294_75" x="946.844" y="666.279" width="135.654" height="83.334" filterUnits="userSpaceOnUse" color-interpolation-filters="sRGB">
<feFlood flood-opacity="0" result="BackgroundImageFix"/>
<feColorMatrix in="SourceAlpha" type="matrix" values="0 0 0 0 0 0 0 0 0 0 0 0 0 0 0 0 0 0 127 0" result="hardAlpha"/>
<feOffset dy="4"/>
<feGaussianBlur stdDeviation="2"/>
<feComposite in2="hardAlpha" operator="out"/>
<feColorMatrix type="matrix" values="0 0 0 0 0.770833 0 0 0 0 0.770833 0 0 0 0 0.770833 0 0 0 0.25 0"/>
<feBlend mode="normal" in2="BackgroundImageFix" result="effect1_dropShadow_1294_75"/>
<feBlend mode="normal" in="SourceGraphic" in2="effect1_dropShadow_1294_75" result="shape"/>
</filter>
</defs>
</svg>
