<svg width="2166" height="1979" viewBox="0 0 2166 1979" fill="none" xmlns="http://www.w3.org/2000/svg">
<path d="M2011 1763.5C2011 1882.25 1687 1941 987.5 1978.5C422.237 1978.5 519.5 1763.5 104 1597C104 1478.26 -239.263 1543 326 1543C891.264 1543 686.5 1285 2011 1763.5Z" fill="#AB47F8" fill-opacity="0.08"/>
<path d="M453.305 1297.82L309.954 1193.49L1219.09 1172.04H1219.12H1256.33L1450.58 1262.2L453.305 1297.82Z" fill="#6B4396" stroke="#5E3C84" stroke-width="4"/>
<path d="M509.264 1147.59H636.406V1149.75H511.426C510.232 1149.75 509.264 1148.78 509.264 1147.59V1147.59Z" fill="#ED1C24"/>
<path d="M509.264 1136.06C509.264 1134.86 510.232 1133.89 511.426 1133.89H636.406V1136.06H509.264V1136.06Z" fill="#ED1C24"/>
<path d="M509.264 1135.33H636.406V1148.31H509.264V1135.33Z" fill="#FBF8F8"/>
<path d="M511.64 1149.75C510.328 1149.75 509.264 1148.69 509.264 1147.38V1136.27C509.264 1134.96 510.328 1133.9 511.64 1133.9V1133.9V1149.75V1149.75Z" fill="#ED1C24"/>
<line x1="514.019" y1="1136.68" x2="635.219" y2="1136.68" stroke="#DDDDDD" stroke-width="0.2"/>
<line x1="514.019" y1="1138.12" x2="635.219" y2="1138.12" stroke="#DDDDDD" stroke-width="0.2"/>
<line x1="514.019" y1="1139.56" x2="635.219" y2="1139.56" stroke="#DDDDDD" stroke-width="0.2"/>
<line x1="514.019" y1="1141.01" x2="635.219" y2="1141.01" stroke="#DDDDDD" stroke-width="0.2"/>
<line x1="514.019" y1="1142.44" x2="635.219" y2="1142.44" stroke="#DDDDDD" stroke-width="0.2"/>
<line x1="514.019" y1="1143.89" x2="635.219" y2="1143.89" stroke="#DDDDDD" stroke-width="0.2"/>
<line x1="514.019" y1="1145.33" x2="635.219" y2="1145.33" stroke="#DDDDDD" stroke-width="0.2"/>
<line x1="514.019" y1="1146.77" x2="635.219" y2="1146.77" stroke="#DDDDDD" stroke-width="0.2"/>
<path d="M507.73 1131.17H634.872V1133.33H509.893C508.699 1133.33 507.73 1132.36 507.73 1131.17V1131.17Z" fill="#773133"/>
<path d="M507.73 1119.63C507.73 1118.44 508.699 1117.47 509.893 1117.47H634.872V1119.63H507.73V1119.63Z" fill="#773133"/>
<path d="M507.73 1118.91H634.872V1131.89H507.73V1118.91Z" fill="#FBF8F8"/>
<path d="M510.107 1133.33C508.794 1133.33 507.73 1132.27 507.73 1130.95V1119.85C507.73 1118.54 508.794 1117.47 510.107 1117.47V1117.47V1133.33V1133.33Z" fill="#773133"/>
<line x1="512.485" y1="1120.25" x2="633.686" y2="1120.25" stroke="#DDDDDD" stroke-width="0.2"/>
<line x1="512.485" y1="1121.69" x2="633.686" y2="1121.69" stroke="#DDDDDD" stroke-width="0.2"/>
<line x1="512.485" y1="1123.13" x2="633.686" y2="1123.13" stroke="#DDDDDD" stroke-width="0.2"/>
<line x1="512.485" y1="1124.58" x2="633.686" y2="1124.58" stroke="#DDDDDD" stroke-width="0.2"/>
<line x1="512.485" y1="1126.02" x2="633.686" y2="1126.02" stroke="#DDDDDD" stroke-width="0.2"/>
<line x1="512.485" y1="1127.46" x2="633.686" y2="1127.46" stroke="#DDDDDD" stroke-width="0.2"/>
<line x1="512.485" y1="1128.9" x2="633.686" y2="1128.9" stroke="#DDDDDD" stroke-width="0.2"/>
<line x1="512.485" y1="1130.34" x2="633.686" y2="1130.34" stroke="#DDDDDD" stroke-width="0.2"/>
<path d="M682.363 1188.12L761.253 1179.9L823.292 1188.12L761.253 1204.55L682.363 1188.12Z" fill="#232323"/>
<path d="M731.382 1170.04L756.657 1174.15L780.401 1171.69L822.526 1188.12L761.253 1203.73L684.661 1188.12L731.382 1170.04Z" fill="#454346"/>
<path d="M745.166 1071.46H766.612L780.398 1171.69L756.655 1174.15L731.38 1170.04L745.166 1071.46Z" fill="#232323"/>
<rect x="495.479" y="802" width="520.822" height="292.462" fill="#232323"/>
<rect x="512.328" y="811.855" width="488.654" height="267.817" fill="#100F0F"/>
<path d="M1163.66 1162.69L820.529 1166.79L820.526 1056.9L1163.41 1056.9L1163.66 1162.69Z" fill="#594E4E"/>
<path d="M890.166 1086.64L879.268 1092.75L870.898 1092.99L868.136 1085.97L873.112 1080.17L889.456 1078.69L890.166 1086.64Z" fill="#AB47F8"/>
<path d="M870.222 1090.99L873.091 1086.22L890.32 1084.28L890.857 1088.64L889.621 1091.51L885.565 1093.34L878.639 1094.12L871.364 1093.9L870.222 1090.99Z" fill="#FCF9FF" stroke="#9C9A9A" stroke-width="0.2"/>
<rect width="6.71657" height="4.34376" transform="matrix(-0.981838 0.0305303 0.035924 -1.01782 883.195 1092.16)" fill="#6D6B6F"/>
<path d="M940.793 1086.41L929.895 1092.52L921.525 1092.76L918.763 1085.74L923.739 1079.94L940.083 1078.46L940.793 1086.41Z" fill="#AB47F8"/>
<path d="M920.849 1090.77L923.718 1085.99L940.947 1084.05L941.484 1088.41L940.248 1091.28L936.192 1093.12L929.265 1093.89L921.991 1093.67L920.849 1090.77Z" fill="#FCF9FF" stroke="#9C9A9A" stroke-width="0.2"/>
<rect width="6.71657" height="4.34376" transform="matrix(-0.981838 0.0305303 0.035924 -1.01782 933.822 1091.94)" fill="#6D6B6F"/>
<path d="M935.652 1105.83L924.754 1111.94L916.385 1112.18L913.622 1105.16L918.598 1099.36L934.943 1097.88L935.652 1105.83Z" fill="#AB47F8"/>
<path d="M915.708 1110.19L918.577 1105.41L935.806 1103.47L936.343 1107.83L935.107 1110.7L931.051 1112.54L924.125 1113.31L916.85 1113.09L915.708 1110.19Z" fill="#FCF9FF" stroke="#9C9A9A" stroke-width="0.2"/>
<rect width="6.71657" height="4.34376" transform="matrix(-0.981838 0.0305303 0.035924 -1.01782 928.682 1111.36)" fill="#6D6B6F"/>
<path d="M918.4 1127.77L907.502 1133.88L899.133 1134.12L896.37 1127.1L901.346 1121.3L917.691 1119.82L918.4 1127.77Z" fill="#AB47F8"/>
<path d="M898.456 1132.13L901.325 1127.35L918.554 1125.42L919.091 1129.77L917.855 1132.64L913.799 1134.48L906.873 1135.25L899.598 1135.03L898.456 1132.13Z" fill="#FCF9FF" stroke="#9C9A9A" stroke-width="0.2"/>
<rect width="6.71657" height="4.34376" transform="matrix(-0.981838 0.0305303 0.035924 -1.01782 911.43 1133.3)" fill="#6D6B6F"/>
<path d="M921.361 1145.48L910.463 1151.59L902.094 1151.83L899.331 1144.81L904.307 1139.01L920.652 1137.53L921.361 1145.48Z" fill="#AB47F8"/>
<path d="M901.417 1149.84L904.286 1145.06L921.515 1143.13L922.052 1147.48L920.816 1150.35L916.76 1152.19L909.834 1152.96L902.559 1152.74L901.417 1149.84Z" fill="#FCF9FF" stroke="#9C9A9A" stroke-width="0.2"/>
<rect width="6.71657" height="4.34376" transform="matrix(-0.981838 0.0305303 0.035924 -1.01782 914.391 1151.01)" fill="#6D6B6F"/>
<path d="M1035.7 1143.04L1019.32 1149.5L1010.95 1149.74L1008.19 1142.72L1013.17 1136.92L1035.7 1134.83L1035.7 1143.04Z" fill="#AB47F8"/>
<path d="M1025.64 1150.09L1025.64 1150.09L1025.64 1150.09L1018.7 1150.87L1011.42 1150.65L1010.28 1147.74L1013.15 1142.96L1036.4 1140.69L1037.89 1145.48L1035.65 1147.65L1032.61 1149.52L1025.64 1150.09Z" fill="#FCF9FF" stroke="#9C9A9A" stroke-width="0.2"/>
<path d="M1029.58 1147.97L1016.66 1149.12L1016.81 1144.7L1030.34 1143.86L1029.58 1147.97Z" fill="#6D6B6F"/>
<path d="M1074 1143.04L1057.62 1149.5L1049.25 1149.74L1046.48 1142.72L1051.46 1136.92L1074 1134.83L1074 1143.04Z" fill="#AB47F8"/>
<path d="M1063.93 1150.09L1063.93 1150.09L1063.93 1150.09L1056.99 1150.87L1049.71 1150.65L1048.57 1147.74L1051.44 1142.96L1074.69 1140.69L1076.18 1145.48L1073.94 1147.65L1070.9 1149.52L1063.93 1150.09Z" fill="#FCF9FF" stroke="#9C9A9A" stroke-width="0.2"/>
<path d="M1067.87 1147.97L1054.95 1149.12L1055.11 1144.7L1068.64 1143.86L1067.87 1147.97Z" fill="#6D6B6F"/>
<path d="M1151.64 1140.92L1140.74 1147.03L1132.37 1147.27L1129.61 1140.25L1134.59 1134.45L1150.93 1132.97L1151.64 1140.92Z" fill="#AB47F8"/>
<path d="M1131.7 1145.27L1134.57 1140.49L1151.8 1138.56L1152.33 1142.92L1151.1 1145.79L1147.04 1147.62L1140.12 1148.4L1132.84 1148.18L1131.7 1145.27Z" fill="#FCF9FF" stroke="#9C9A9A" stroke-width="0.2"/>
<rect width="6.71657" height="4.34376" transform="matrix(-0.981838 0.0305303 0.035924 -1.01782 1144.67 1146.44)" fill="#6D6B6F"/>
<path d="M1124.74 1142.2L1116.24 1146.89L1109.8 1147.26L1107.83 1142.25L1111.77 1137.93L1124.36 1136.46L1124.74 1142.2Z" fill="#AB47F8"/>
<path d="M1109.35 1145.85L1111.64 1142.34L1124.89 1140.52L1125.2 1143.62L1124.2 1145.72L1121.05 1147.14L1115.72 1147.87L1110.15 1147.89L1109.35 1145.85Z" fill="#FCF9FF" stroke="#9C9A9A" stroke-width="0.2"/>
<rect width="5.16544" height="3.1499" transform="matrix(-0.981571 0.0598675 0.0678049 -1.01723 1119.26 1146.37)" fill="#6D6B6F"/>
<path d="M1124.33 1125.77L1115.83 1130.46L1109.4 1130.83L1107.42 1125.81L1111.37 1121.5L1123.96 1120.02L1124.33 1125.77Z" fill="#AB47F8"/>
<path d="M1108.95 1129.41L1111.24 1125.9L1124.48 1124.09L1124.8 1127.19L1123.79 1129.28L1120.65 1130.71L1115.31 1131.44L1109.75 1131.45L1108.95 1129.41Z" fill="#FCF9FF" stroke="#9C9A9A" stroke-width="0.2"/>
<rect width="5.16544" height="3.1499" transform="matrix(-0.981571 0.0598675 0.0678049 -1.01723 1118.86 1129.94)" fill="#6D6B6F"/>
<path d="M897.218 1145.59L886.321 1151.7L877.951 1151.94L875.189 1144.92L880.164 1139.12L896.509 1137.64L897.218 1145.59Z" fill="#AB47F8"/>
<path d="M877.275 1149.94L880.143 1145.16L897.373 1143.23L897.909 1147.59L896.673 1150.46L892.618 1152.29L885.691 1153.07L878.417 1152.85L877.275 1149.94Z" fill="#FCF9FF" stroke="#9C9A9A" stroke-width="0.2"/>
<rect width="6.71657" height="4.34376" transform="matrix(-0.981838 0.0305303 0.035924 -1.01782 890.248 1151.11)" fill="#6D6B6F"/>
<path d="M892.359 1127.77L881.461 1133.88L873.092 1134.12L870.329 1127.1L875.305 1121.3L891.65 1119.82L892.359 1127.77Z" fill="#AB47F8"/>
<path d="M872.415 1132.13L875.284 1127.35L892.513 1125.42L893.05 1129.77L891.814 1132.64L887.758 1134.48L880.832 1135.25L873.557 1135.03L872.415 1132.13Z" fill="#FCF9FF" stroke="#9C9A9A" stroke-width="0.2"/>
<rect width="6.71657" height="4.34376" transform="matrix(-0.981838 0.0305303 0.035924 -1.01782 885.389 1133.3)" fill="#6D6B6F"/>
<path d="M865.226 1126.96L844.625 1134.64L830.521 1135.7L828.607 1128.35L839.172 1121.59L867.107 1118.41L865.226 1126.96Z" fill="#AB47F8"/>
<path d="M830.087 1133.64L836.782 1128.14L866.459 1124.38L865.683 1129.02L862.476 1132.28L854.918 1134.68L842.999 1136.19L830.872 1136.65L830.087 1133.64Z" fill="#FCF9FF" stroke="#9C9A9A" stroke-width="0.2"/>
<rect width="11.283" height="5.06734" transform="matrix(-0.985466 0.0759303 0.388079 -0.948828 851.42 1133.62)" fill="#6D6B6F"/>
<path d="M861.843 1107.2L843.678 1114.16L831.071 1114.57L829.054 1106.83L838.255 1100.31L863.181 1098.39L861.843 1107.2Z" fill="#AB47F8"/>
<path d="M830.61 1112.38L836.383 1107L862.838 1104.56L862.329 1109.37L859.592 1112.6L852.92 1114.72L842.294 1115.7L831.441 1115.57L830.61 1112.38Z" fill="#FCF9FF" stroke="#9C9A9A" stroke-width="0.2"/>
<rect width="10.0807" height="5.03066" transform="matrix(-0.985864 0.0336057 0.311622 -0.975179 849.729 1113.44)" fill="#6D6B6F"/>
<path d="M860.312 1085.84L842.147 1092.8L829.54 1093.21L827.523 1085.46L836.723 1078.95L861.65 1077.03L860.312 1085.84Z" fill="#AB47F8"/>
<path d="M829.075 1091.01L834.848 1085.63L861.303 1083.19L860.794 1088L858.057 1091.23L851.385 1093.35L840.759 1094.33L829.906 1094.2L829.075 1091.01Z" fill="#FCF9FF" stroke="#9C9A9A" stroke-width="0.2"/>
<rect width="10.0807" height="5.03066" transform="matrix(-0.985864 0.0336057 0.311622 -0.975179 848.197 1092.07)" fill="#6D6B6F"/>
<path d="M910.738 1106.41L899.84 1112.53L891.471 1112.77L888.708 1105.74L893.684 1099.94L910.029 1098.46L910.738 1106.41Z" fill="#AB47F8"/>
<path d="M890.794 1110.77L893.663 1105.99L910.892 1104.06L911.429 1108.41L910.193 1111.28L906.137 1113.12L899.211 1113.89L891.936 1113.67L890.794 1110.77Z" fill="#FCF9FF" stroke="#9C9A9A" stroke-width="0.2"/>
<rect width="6.71657" height="4.34376" transform="matrix(-0.981838 0.0305303 0.035924 -1.01782 903.768 1111.94)" fill="#6D6B6F"/>
<path d="M873.084 1145.7L862.186 1151.81L853.816 1152.05L851.054 1145.03L856.03 1139.23L872.374 1137.75L873.084 1145.7Z" fill="#AB47F8"/>
<path d="M853.14 1150.06L856.009 1145.28L873.238 1143.35L873.775 1147.7L872.539 1150.57L868.483 1152.41L861.557 1153.18L854.282 1152.96L853.14 1150.06Z" fill="#FCF9FF" stroke="#9C9A9A" stroke-width="0.2"/>
<rect width="6.71657" height="4.34376" transform="matrix(-0.981838 0.0305303 0.035924 -1.01782 866.113 1151.23)" fill="#6D6B6F"/>
<path d="M849.841 1148.11L838.944 1154.22L830.574 1154.46L827.812 1147.43L832.787 1141.64L849.132 1140.15L849.841 1148.11Z" fill="#AB47F8"/>
<path d="M829.898 1152.46L832.767 1147.68L849.996 1145.75L850.533 1150.11L849.296 1152.98L845.241 1154.81L838.314 1155.59L831.04 1155.37L829.898 1152.46Z" fill="#FCF9FF" stroke="#9C9A9A" stroke-width="0.2"/>
<rect width="6.71657" height="4.34376" transform="matrix(-0.981838 0.0305303 0.035924 -1.01782 842.871 1153.63)" fill="#6D6B6F"/>
<path d="M966.105 1086.3L955.207 1092.41L946.838 1092.65L944.075 1085.62L949.051 1079.83L965.396 1078.34L966.105 1086.3Z" fill="#AB47F8"/>
<path d="M946.161 1090.65L949.03 1085.87L966.26 1083.94L966.796 1088.3L965.56 1091.17L961.505 1093L954.578 1093.78L947.303 1093.56L946.161 1090.65Z" fill="#FCF9FF" stroke="#9C9A9A" stroke-width="0.2"/>
<rect width="6.71657" height="4.34376" transform="matrix(-0.981838 0.0305303 0.035924 -1.01782 959.135 1091.82)" fill="#6D6B6F"/>
<path d="M961.695 1104.19L950.797 1110.3L942.428 1110.54L939.665 1103.51L944.641 1097.72L960.986 1096.23L961.695 1104.19Z" fill="#AB47F8"/>
<path d="M941.751 1108.54L944.62 1103.76L961.849 1101.83L962.386 1106.19L961.15 1109.06L957.094 1110.89L950.168 1111.67L942.893 1111.45L941.751 1108.54Z" fill="#FCF9FF" stroke="#9C9A9A" stroke-width="0.2"/>
<rect width="6.71657" height="4.34376" transform="matrix(-0.981838 0.0305303 0.035924 -1.01782 954.725 1109.71)" fill="#6D6B6F"/>
<path d="M945.242 1127.77L934.344 1133.88L925.974 1134.12L923.212 1127.1L928.188 1121.3L944.533 1119.82L945.242 1127.77Z" fill="#AB47F8"/>
<path d="M925.298 1132.13L928.167 1127.35L945.396 1125.42L945.933 1129.77L944.697 1132.64L940.641 1134.48L933.715 1135.25L926.44 1135.03L925.298 1132.13Z" fill="#FCF9FF" stroke="#9C9A9A" stroke-width="0.2"/>
<rect width="6.71657" height="4.34376" transform="matrix(-0.981838 0.0305303 0.035924 -1.01782 938.271 1133.3)" fill="#6D6B6F"/>
<path d="M1016.73 1088.37L1005.84 1094.48L997.467 1094.72L994.704 1087.69L999.68 1081.9L1016.02 1080.41L1016.73 1088.37Z" fill="#AB47F8"/>
<path d="M996.79 1092.72L999.659 1087.94L1016.89 1086.01L1017.43 1090.37L1016.19 1093.24L1012.13 1095.07L1005.21 1095.85L997.932 1095.63L996.79 1092.72Z" fill="#FCF9FF" stroke="#9C9A9A" stroke-width="0.2"/>
<rect width="6.71657" height="4.34376" transform="matrix(-0.981838 0.0305303 0.035924 -1.01782 1009.76 1093.89)" fill="#6D6B6F"/>
<path d="M899.339 1068.98L888.442 1075.09L880.072 1075.33L877.31 1068.3L882.285 1062.51L898.63 1061.02L899.339 1068.98Z" fill="#AB47F8"/>
<path d="M879.396 1073.33L882.265 1068.55L899.494 1066.62L900.031 1070.97L898.794 1073.85L894.739 1075.68L887.812 1076.46L880.538 1076.23L879.396 1073.33Z" fill="#FCF9FF" stroke="#9C9A9A" stroke-width="0.2"/>
<rect width="6.71657" height="4.34376" transform="matrix(-0.981838 0.0305303 0.035924 -1.01782 892.369 1074.5)" fill="#6D6B6F"/>
<path d="M974.941 1069.9L964.043 1076.01L955.674 1076.25L952.911 1069.22L957.887 1063.43L974.232 1061.94L974.941 1069.9Z" fill="#AB47F8"/>
<path d="M954.997 1074.25L957.866 1069.47L975.096 1067.54L975.632 1071.9L974.396 1074.77L970.341 1076.6L963.414 1077.38L956.139 1077.16L954.997 1074.25Z" fill="#FCF9FF" stroke="#9C9A9A" stroke-width="0.2"/>
<rect width="6.71657" height="4.34376" transform="matrix(-0.981838 0.0305303 0.035924 -1.01782 967.971 1075.42)" fill="#6D6B6F"/>
<path d="M1050.54 1070.83L1039.64 1076.94L1031.27 1077.18L1028.51 1070.15L1033.48 1064.36L1049.83 1062.87L1050.54 1070.83Z" fill="#AB47F8"/>
<path d="M1030.59 1075.18L1033.46 1070.4L1050.69 1068.47L1051.23 1072.83L1049.99 1075.7L1045.94 1077.53L1039.01 1078.31L1031.73 1078.09L1030.59 1075.18Z" fill="#FCF9FF" stroke="#9C9A9A" stroke-width="0.2"/>
<rect width="6.71657" height="4.34376" transform="matrix(-0.981838 0.0305303 0.035924 -1.01782 1043.57 1076.35)" fill="#6D6B6F"/>
<path d="M1125.19 1069.77L1114.3 1075.88L1105.93 1076.12L1103.17 1069.09L1108.14 1063.29L1124.49 1061.81L1125.19 1069.77Z" fill="#AB47F8"/>
<path d="M1105.25 1074.12L1108.12 1069.34L1125.35 1067.41L1125.89 1071.76L1124.65 1074.63L1120.59 1076.47L1113.67 1077.25L1106.39 1077.02L1105.25 1074.12Z" fill="#FCF9FF" stroke="#9C9A9A" stroke-width="0.2"/>
<rect width="6.71657" height="4.34376" transform="matrix(-0.981838 0.0305303 0.035924 -1.01782 1118.22 1075.29)" fill="#6D6B6F"/>
<path d="M1012.24 1107.47L1001.34 1113.58L992.974 1113.82L990.212 1106.8L995.188 1101L1011.53 1099.52L1012.24 1107.47Z" fill="#AB47F8"/>
<path d="M992.298 1111.83L995.167 1107.05L1012.4 1105.12L1012.93 1109.47L1011.7 1112.34L1007.64 1114.18L1000.71 1114.95L993.44 1114.73L992.298 1111.83Z" fill="#FCF9FF" stroke="#9C9A9A" stroke-width="0.2"/>
<rect width="6.71657" height="4.34376" transform="matrix(-0.981838 0.0305303 0.035924 -1.01782 1005.27 1113)" fill="#6D6B6F"/>
<path d="M998.935 1126.21L988.038 1132.33L979.668 1132.57L976.906 1125.54L981.881 1119.74L998.226 1118.26L998.935 1126.21Z" fill="#AB47F8"/>
<path d="M978.991 1130.57L981.86 1125.79L999.09 1123.86L999.626 1128.21L998.39 1131.08L994.335 1132.92L987.408 1133.7L980.133 1133.47L978.991 1130.57Z" fill="#FCF9FF" stroke="#9C9A9A" stroke-width="0.2"/>
<rect width="6.71657" height="4.34376" transform="matrix(-0.981838 0.0305303 0.035924 -1.01782 991.965 1131.74)" fill="#6D6B6F"/>
<path d="M1001.52 1144.34L990.622 1150.45L982.252 1150.69L924.988 1148.56L934.352 1141.62L1000.81 1136.38L1001.52 1144.34Z" fill="#AB47F8"/>
<path d="M958.941 1142.76L1002.7 1141.51L1003.23 1145.87L1002 1148.74L997.942 1150.58L991.014 1151.36L974.34 1151.3L974.339 1151.3L928.654 1150.87L925.196 1148.58L931.858 1145.57L943.007 1143.22L958.941 1142.76Z" fill="#FCF9FF" stroke="#9C9A9A" stroke-width="0.2"/>
<path d="M994.542 1149.86L987.948 1150.07L930.453 1148.79L942.762 1145.93L1000.01 1144.61L994.542 1149.86Z" fill="#6D6B6F"/>
<path d="M1067.36 1088.15L1056.46 1094.26L1048.09 1094.5L1045.33 1087.48L1050.31 1081.68L1066.65 1080.2L1067.36 1088.15Z" fill="#AB47F8"/>
<path d="M1047.42 1092.5L1050.29 1087.72L1067.52 1085.79L1068.05 1090.15L1066.82 1093.02L1062.76 1094.85L1055.83 1095.63L1048.56 1095.41L1047.42 1092.5Z" fill="#FCF9FF" stroke="#9C9A9A" stroke-width="0.2"/>
<rect width="6.71657" height="4.34376" transform="matrix(-0.981838 0.0305303 0.035924 -1.01782 1060.39 1093.67)" fill="#6D6B6F"/>
<path d="M1064.33 1107.47L1053.43 1113.58L1045.06 1113.82L1042.3 1106.8L1047.27 1101L1063.62 1099.52L1064.33 1107.47Z" fill="#AB47F8"/>
<path d="M1044.38 1111.83L1047.25 1107.05L1064.48 1105.12L1065.02 1109.47L1063.78 1112.34L1059.73 1114.18L1052.8 1114.95L1045.52 1114.73L1044.38 1111.83Z" fill="#FCF9FF" stroke="#9C9A9A" stroke-width="0.2"/>
<rect width="6.71657" height="4.34376" transform="matrix(-0.981838 0.0305303 0.035924 -1.01782 1057.36 1113)" fill="#6D6B6F"/>
<path d="M1052.47 1126.13L1041.57 1132.24L1033.2 1132.48L1030.44 1125.46L1035.42 1119.66L1051.76 1118.18L1052.47 1126.13Z" fill="#AB47F8"/>
<path d="M1032.53 1130.48L1035.4 1125.71L1052.62 1123.77L1053.16 1128.13L1051.93 1131L1047.87 1132.83L1040.94 1133.61L1033.67 1133.39L1032.53 1130.48Z" fill="#FCF9FF" stroke="#9C9A9A" stroke-width="0.2"/>
<rect width="6.71657" height="4.34376" transform="matrix(-0.981838 0.0305303 0.035924 -1.01782 1045.5 1131.65)" fill="#6D6B6F"/>
<path d="M1117.99 1087.92L1107.09 1094.03L1098.72 1094.27L1095.96 1087.25L1100.94 1081.45L1117.28 1079.97L1117.99 1087.92Z" fill="#AB47F8"/>
<path d="M1098.05 1092.28L1100.92 1087.5L1118.15 1085.57L1118.68 1089.92L1117.45 1092.79L1113.39 1094.63L1106.46 1095.4L1099.19 1095.18L1098.05 1092.28Z" fill="#FCF9FF" stroke="#9C9A9A" stroke-width="0.2"/>
<rect width="6.71657" height="4.34376" transform="matrix(-0.981838 0.0305303 0.035924 -1.01782 1111.02 1093.45)" fill="#6D6B6F"/>
<path d="M1116.4 1107.47L1105.51 1113.58L1097.14 1113.82L1094.37 1106.8L1099.35 1101L1115.69 1099.52L1116.4 1107.47Z" fill="#AB47F8"/>
<path d="M1096.46 1111.83L1099.33 1107.05L1116.56 1105.12L1117.1 1109.47L1115.86 1112.34L1111.8 1114.18L1104.88 1114.95L1097.6 1114.73L1096.46 1111.83Z" fill="#FCF9FF" stroke="#9C9A9A" stroke-width="0.2"/>
<rect width="6.71657" height="4.34376" transform="matrix(-0.981838 0.0305303 0.035924 -1.01782 1109.43 1113)" fill="#6D6B6F"/>
<path d="M915.478 1086.53L904.581 1092.64L896.211 1092.88L893.449 1085.85L898.424 1080.06L914.769 1078.57L915.478 1086.53Z" fill="#AB47F8"/>
<path d="M895.534 1090.88L898.403 1086.1L915.633 1084.17L916.169 1088.53L914.933 1091.4L910.878 1093.23L903.951 1094.01L896.676 1093.79L895.534 1090.88Z" fill="#FCF9FF" stroke="#9C9A9A" stroke-width="0.2"/>
<rect width="6.71657" height="4.34376" transform="matrix(-0.981838 0.0305303 0.035924 -1.01782 908.508 1092.05)" fill="#6D6B6F"/>
<path d="M886.228 1106.41L875.331 1112.53L866.961 1112.77L864.199 1105.74L869.174 1099.94L885.519 1098.46L886.228 1106.41Z" fill="#AB47F8"/>
<path d="M866.284 1110.77L869.153 1105.99L886.383 1104.06L886.919 1108.41L885.683 1111.28L881.628 1113.12L874.701 1113.89L867.426 1113.67L866.284 1110.77Z" fill="#FCF9FF" stroke="#9C9A9A" stroke-width="0.2"/>
<rect width="6.71657" height="4.34376" transform="matrix(-0.981838 0.0305303 0.035924 -1.01782 879.258 1111.94)" fill="#6D6B6F"/>
<path d="M991.421 1086.19L980.524 1092.3L972.154 1092.54L969.392 1085.52L974.367 1079.72L990.712 1078.24L991.421 1086.19Z" fill="#AB47F8"/>
<path d="M971.478 1090.55L974.347 1085.77L991.576 1083.83L992.113 1088.19L990.876 1091.06L986.821 1092.9L979.894 1093.67L972.62 1093.45L971.478 1090.55Z" fill="#FCF9FF" stroke="#9C9A9A" stroke-width="0.2"/>
<rect width="6.71657" height="4.34376" transform="matrix(-0.981838 0.0305303 0.035924 -1.01782 984.451 1091.71)" fill="#6D6B6F"/>
<path d="M874.3 1066.79L863.403 1072.9L855.033 1073.14L852.271 1066.12L857.246 1060.32L873.591 1058.84L874.3 1066.79Z" fill="#AB47F8"/>
<path d="M854.357 1071.15L857.226 1066.37L874.455 1064.44L874.992 1068.79L873.755 1071.66L869.7 1073.5L862.773 1074.27L855.499 1074.05L854.357 1071.15Z" fill="#FCF9FF" stroke="#9C9A9A" stroke-width="0.2"/>
<rect width="6.71657" height="4.34376" transform="matrix(-0.981838 0.0305303 0.035924 -1.01782 867.33 1072.32)" fill="#6D6B6F"/>
<path d="M848.337 1068.04L837.44 1074.15L829.07 1074.39L826.308 1067.37L831.283 1061.57L847.628 1060.09L848.337 1068.04Z" fill="#AB47F8"/>
<path d="M828.394 1072.39L831.263 1067.62L848.492 1065.68L849.029 1070.04L847.792 1072.91L843.737 1074.74L836.81 1075.52L829.536 1075.3L828.394 1072.39Z" fill="#FCF9FF" stroke="#9C9A9A" stroke-width="0.2"/>
<rect width="6.71657" height="4.34376" transform="matrix(-0.981838 0.0305303 0.035924 -1.01782 841.367 1073.56)" fill="#6D6B6F"/>
<path d="M949.902 1067.72L939.004 1073.83L930.635 1074.07L927.872 1067.04L932.848 1061.25L949.193 1059.76L949.902 1067.72Z" fill="#AB47F8"/>
<path d="M929.958 1072.07L932.827 1067.29L950.056 1065.36L950.593 1069.72L949.357 1072.59L945.301 1074.42L938.375 1075.2L931.1 1074.98L929.958 1072.07Z" fill="#FCF9FF" stroke="#9C9A9A" stroke-width="0.2"/>
<rect width="6.71657" height="4.34376" transform="matrix(-0.981838 0.0305303 0.035924 -1.01782 942.932 1073.24)" fill="#6D6B6F"/>
<path d="M1025.5 1068.64L1014.6 1074.75L1006.23 1074.99L1003.47 1067.97L1008.45 1062.17L1024.79 1060.69L1025.5 1068.64Z" fill="#AB47F8"/>
<path d="M1005.56 1073L1008.42 1068.22L1025.65 1066.29L1026.19 1070.64L1024.95 1073.51L1020.9 1075.35L1013.97 1076.12L1006.7 1075.9L1005.56 1073Z" fill="#FCF9FF" stroke="#9C9A9A" stroke-width="0.2"/>
<rect width="6.71657" height="4.34376" transform="matrix(-0.981838 0.0305303 0.035924 -1.01782 1018.53 1074.17)" fill="#6D6B6F"/>
<path d="M1101.1 1069.57L1090.2 1075.68L1081.83 1075.92L1079.07 1068.89L1084.04 1063.1L1100.39 1061.61L1101.1 1069.57Z" fill="#AB47F8"/>
<path d="M1081.15 1073.92L1084.02 1069.14L1101.25 1067.21L1101.79 1071.57L1100.55 1074.44L1096.49 1076.27L1089.57 1077.05L1082.29 1076.83L1081.15 1073.92Z" fill="#FCF9FF" stroke="#9C9A9A" stroke-width="0.2"/>
<rect width="6.71657" height="4.34376" transform="matrix(-0.981838 0.0305303 0.035924 -1.01782 1094.12 1075.09)" fill="#6D6B6F"/>
<path d="M986.205 1105.83L975.307 1111.94L966.937 1112.18L964.175 1105.16L969.151 1099.36L985.495 1097.88L986.205 1105.83Z" fill="#AB47F8"/>
<path d="M966.261 1110.19L969.13 1105.41L986.359 1103.47L986.896 1107.83L985.66 1110.7L981.604 1112.54L974.678 1113.31L967.403 1113.09L966.261 1110.19Z" fill="#FCF9FF" stroke="#9C9A9A" stroke-width="0.2"/>
<rect width="6.71657" height="4.34376" transform="matrix(-0.981838 0.0305303 0.035924 -1.01782 979.234 1111.36)" fill="#6D6B6F"/>
<path d="M972.087 1126.13L961.19 1132.24L952.82 1132.48L950.058 1125.46L955.033 1119.66L971.378 1118.18L972.087 1126.13Z" fill="#AB47F8"/>
<path d="M952.144 1130.48L955.013 1125.71L972.242 1123.77L972.779 1128.13L971.542 1131L967.487 1132.83L960.56 1133.61L953.286 1133.39L952.144 1130.48Z" fill="#FCF9FF" stroke="#9C9A9A" stroke-width="0.2"/>
<rect width="6.71657" height="4.34376" transform="matrix(-0.981838 0.0305303 0.035924 -1.01782 965.117 1131.65)" fill="#6D6B6F"/>
<path d="M1042.05 1088.26L1031.15 1094.37L1022.78 1094.61L1020.02 1087.59L1025 1081.79L1041.34 1080.31L1042.05 1088.26Z" fill="#AB47F8"/>
<path d="M1022.11 1092.62L1024.98 1087.84L1042.2 1085.9L1042.74 1090.26L1041.51 1093.13L1037.45 1094.97L1030.52 1095.74L1023.25 1095.52L1022.11 1092.62Z" fill="#FCF9FF" stroke="#9C9A9A" stroke-width="0.2"/>
<rect width="6.71657" height="4.34376" transform="matrix(-0.981838 0.0305303 0.035924 -1.01782 1035.08 1093.79)" fill="#6D6B6F"/>
<path d="M923.48 1068.87L912.582 1074.98L904.213 1075.22L901.45 1068.19L906.426 1062.4L922.771 1060.91L923.48 1068.87Z" fill="#AB47F8"/>
<path d="M903.536 1073.22L906.405 1068.44L923.635 1066.51L924.171 1070.87L922.935 1073.74L918.88 1075.57L911.953 1076.35L904.678 1076.13L903.536 1073.22Z" fill="#FCF9FF" stroke="#9C9A9A" stroke-width="0.2"/>
<rect width="6.71657" height="4.34376" transform="matrix(-0.981838 0.0305303 0.035924 -1.01782 916.51 1074.39)" fill="#6D6B6F"/>
<path d="M999.074 1069.79L988.176 1075.9L979.806 1076.14L977.044 1069.11L982.02 1063.32L998.365 1061.83L999.074 1069.79Z" fill="#AB47F8"/>
<path d="M979.13 1074.14L981.999 1069.36L999.228 1067.43L999.765 1071.79L998.529 1074.66L994.473 1076.49L987.547 1077.27L980.272 1077.05L979.13 1074.14Z" fill="#FCF9FF" stroke="#9C9A9A" stroke-width="0.2"/>
<rect width="6.71657" height="4.34376" transform="matrix(-0.981838 0.0305303 0.035924 -1.01782 992.104 1075.31)" fill="#6D6B6F"/>
<path d="M1074.67 1070.72L1063.77 1076.83L1055.4 1077.07L1052.64 1070.04L1057.62 1064.25L1073.96 1062.76L1074.67 1070.72Z" fill="#AB47F8"/>
<path d="M1054.73 1075.07L1057.6 1070.29L1074.83 1068.36L1075.36 1072.71L1074.13 1075.59L1070.07 1077.42L1063.14 1078.2L1055.87 1077.97L1054.73 1075.07Z" fill="#FCF9FF" stroke="#9C9A9A" stroke-width="0.2"/>
<rect width="6.71657" height="4.34376" transform="matrix(-0.981838 0.0305303 0.035924 -1.01782 1067.7 1076.24)" fill="#6D6B6F"/>
<path d="M1151.61 1068.63L1140.72 1074.74L1132.35 1074.98L1129.58 1067.95L1134.56 1062.16L1150.9 1060.67L1151.61 1068.63Z" fill="#AB47F8"/>
<path d="M1131.67 1072.98L1134.54 1068.2L1151.77 1066.27L1152.3 1070.62L1151.07 1073.5L1147.01 1075.33L1140.09 1076.11L1132.81 1075.89L1131.67 1072.98Z" fill="#FCF9FF" stroke="#9C9A9A" stroke-width="0.2"/>
<rect width="6.71657" height="4.34376" transform="matrix(-0.981838 0.0305303 0.035924 -1.01782 1144.64 1074.15)" fill="#6D6B6F"/>
<path d="M1038.29 1107.47L1027.39 1113.58L1019.02 1113.82L1016.26 1106.8L1021.23 1101L1037.58 1099.52L1038.29 1107.47Z" fill="#AB47F8"/>
<path d="M1018.34 1111.83L1021.21 1107.05L1038.44 1105.12L1038.98 1109.47L1037.74 1112.34L1033.69 1114.18L1026.76 1114.95L1019.48 1114.73L1018.34 1111.83Z" fill="#FCF9FF" stroke="#9C9A9A" stroke-width="0.2"/>
<rect width="6.71657" height="4.34376" transform="matrix(-0.981838 0.0305303 0.035924 -1.01782 1031.32 1113)" fill="#6D6B6F"/>
<path d="M1027.16 1126.13L1016.26 1132.24L1007.89 1132.48L1005.13 1125.46L1010.1 1119.66L1026.45 1118.18L1027.16 1126.13Z" fill="#AB47F8"/>
<path d="M1007.21 1130.48L1010.08 1125.71L1027.31 1123.77L1027.85 1128.13L1026.61 1131L1022.56 1132.83L1015.63 1133.61L1008.36 1133.39L1007.21 1130.48Z" fill="#FCF9FF" stroke="#9C9A9A" stroke-width="0.2"/>
<rect width="6.71657" height="4.34376" transform="matrix(-0.981838 0.0305303 0.035924 -1.01782 1020.19 1131.65)" fill="#6D6B6F"/>
<path d="M1092.67 1088.04L1081.78 1094.15L1073.41 1094.39L1070.64 1087.36L1075.62 1081.57L1091.96 1080.08L1092.67 1088.04Z" fill="#AB47F8"/>
<path d="M1072.73 1092.39L1075.6 1087.61L1092.83 1085.68L1093.36 1090.04L1092.13 1092.91L1088.07 1094.74L1081.15 1095.52L1073.87 1095.3L1072.73 1092.39Z" fill="#FCF9FF" stroke="#9C9A9A" stroke-width="0.2"/>
<rect width="6.71657" height="4.34376" transform="matrix(-0.981838 0.0305303 0.035924 -1.01782 1085.7 1093.56)" fill="#6D6B6F"/>
<path d="M1090.37 1107.47L1079.47 1113.58L1071.1 1113.82L1068.34 1106.8L1073.31 1101L1089.66 1099.52L1090.37 1107.47Z" fill="#AB47F8"/>
<path d="M1070.42 1111.83L1073.29 1107.05L1090.52 1105.12L1091.06 1109.47L1089.82 1112.34L1085.77 1114.18L1078.84 1114.95L1071.57 1114.73L1070.42 1111.83Z" fill="#FCF9FF" stroke="#9C9A9A" stroke-width="0.2"/>
<rect width="6.71657" height="4.34376" transform="matrix(-0.981838 0.0305303 0.035924 -1.01782 1083.4 1113)" fill="#6D6B6F"/>
<path d="M1103.1 1126.13L1092.2 1132.24L1083.83 1132.48L1081.07 1125.46L1086.05 1119.66L1102.39 1118.18L1103.1 1126.13Z" fill="#AB47F8"/>
<path d="M1083.16 1130.48L1086.03 1125.71L1103.26 1123.77L1103.79 1128.13L1102.56 1131L1098.5 1132.83L1091.57 1133.61L1084.3 1133.39L1083.16 1130.48Z" fill="#FCF9FF" stroke="#9C9A9A" stroke-width="0.2"/>
<rect width="6.71657" height="4.34376" transform="matrix(-0.981838 0.0305303 0.035924 -1.01782 1096.13 1131.65)" fill="#6D6B6F"/>
<path d="M1077.79 1126.13L1066.89 1132.24L1058.52 1132.48L1055.76 1125.46L1060.73 1119.66L1077.08 1118.18L1077.79 1126.13Z" fill="#AB47F8"/>
<path d="M1057.84 1130.48L1060.71 1125.71L1077.94 1123.77L1078.48 1128.13L1077.24 1131L1073.19 1132.83L1066.26 1133.61L1058.98 1133.39L1057.84 1130.48Z" fill="#FCF9FF" stroke="#9C9A9A" stroke-width="0.2"/>
<rect width="6.71657" height="4.34376" transform="matrix(-0.981838 0.0305303 0.035924 -1.01782 1070.82 1131.65)" fill="#6D6B6F"/>
<path d="M1151.64 1123.9L1140.74 1130.02L1132.37 1130.26L1129.61 1123.23L1134.59 1117.43L1150.93 1115.95L1151.64 1123.9Z" fill="#AB47F8"/>
<path d="M1131.7 1128.26L1134.57 1123.48L1151.8 1121.55L1152.33 1125.9L1151.1 1128.77L1147.04 1130.61L1140.12 1131.38L1132.84 1131.16L1131.7 1128.26Z" fill="#FCF9FF" stroke="#9C9A9A" stroke-width="0.2"/>
<rect width="6.71657" height="4.34376" transform="matrix(-0.981838 0.0305303 0.035924 -1.01782 1144.67 1129.43)" fill="#6D6B6F"/>
<path d="M1150.78 1106.55L1133.48 1112.99L1121.62 1113.75L1119.95 1107.31L1128.8 1101.54L1152.3 1099.11L1150.78 1106.55Z" fill="#AB47F8"/>
<path d="M1121.26 1111.94L1126.85 1107.24L1151.79 1104.32L1151.17 1108.34L1148.5 1111.14L1142.16 1113.14L1132.13 1114.31L1121.94 1114.56L1121.26 1111.94Z" fill="#FCF9FF" stroke="#9C9A9A" stroke-width="0.2"/>
<rect width="9.49107" height="4.3674" transform="matrix(-0.985835 0.0644047 0.371541 -0.95514 1139.2 1112.19)" fill="#6D6B6F"/>
<path d="M1152.31 1088.48L1135.02 1094.92L1123.15 1095.68L1121.48 1089.24L1130.33 1083.47L1153.83 1081.03L1152.31 1088.48Z" fill="#AB47F8"/>
<path d="M1122.79 1093.87L1128.38 1089.16L1153.32 1086.24L1152.7 1090.26L1150.03 1093.06L1143.69 1095.06L1133.66 1096.23L1123.47 1096.49L1122.79 1093.87Z" fill="#FCF9FF" stroke="#9C9A9A" stroke-width="0.2"/>
<rect width="9.49107" height="4.3674" transform="matrix(-0.985835 0.0644047 0.371541 -0.95514 1140.73 1094.12)" fill="#6D6B6F"/>
<path d="M1104.16 1142.56L1093.26 1148.67L1084.89 1148.91L1082.13 1141.89L1087.1 1136.09L1103.45 1134.61L1104.16 1142.56Z" fill="#AB47F8"/>
<path d="M1084.21 1146.91L1087.08 1142.14L1104.31 1140.2L1104.85 1144.56L1103.61 1147.43L1099.56 1149.26L1092.63 1150.04L1085.35 1149.82L1084.21 1146.91Z" fill="#FCF9FF" stroke="#9C9A9A" stroke-width="0.2"/>
<rect width="6.71657" height="4.34376" transform="matrix(-0.981838 0.0305303 0.035924 -1.01782 1097.19 1148.08)" fill="#6D6B6F"/>
<path d="M816.297 1063.87L820.892 1057.3V1166.56H816.297V1063.87Z" fill="#393939"/>
<path d="M1163.26 1056.83L1168.62 1058.47V1160.84L1163.26 1162.45V1056.83Z" fill="#393939"/>
<path d="M1161.82 917.83L1291.26 945.762L1287.43 1265.33L1161.82 1169.22V917.83Z" fill="#E8E8E8"/>
<path d="M1295.37 1136.79L1163.86 1171.03V918.452L1300.71 948.626L1295.37 1136.79Z" fill="#240C37" stroke="#0A0707"/>
<path d="M1291.32 945.264L1167.58 918.242L1279.71 915.869L1378.22 945.264H1291.32Z" fill="#240C37" stroke="#0A0707"/>
<path d="M1233.05 978.625L1289.73 993.412L1288.2 1061.6L1229.99 1038.6L1233.05 978.625Z" fill="#504A4A"/>
<path d="M1236.89 1016.41C1236.89 1030.93 1245.8 1042.7 1256.8 1042.7C1267.8 1042.7 1276.71 1030.93 1276.71 1016.41C1276.71 1001.89 1267.8 990.123 1256.8 990.123C1245.8 990.123 1236.89 1001.89 1236.89 1016.41Z" fill="#2DF0C4"/>
<path d="M1243.01 1016.42C1243.01 1026.4 1249.19 1034.49 1256.8 1034.49C1264.41 1034.49 1270.59 1026.4 1270.59 1016.42C1270.59 1006.43 1264.41 998.342 1256.8 998.342C1249.19 998.342 1243.01 1006.43 1243.01 1016.42Z" fill="#3D3737"/>
<path d="M1278.24 1026.27C1278.24 1040.79 1285.1 1052.56 1293.56 1052.56C1302.02 1052.56 1308.88 1040.79 1308.88 1026.27C1308.88 1011.75 1302.02 999.984 1293.56 999.984C1285.1 999.984 1278.24 1011.75 1278.24 1026.27Z" fill="#2DF0C4"/>
<path d="M1284.37 1026.27C1284.37 1036.25 1290.54 1044.34 1298.16 1044.34C1305.77 1044.34 1311.95 1036.25 1311.95 1026.27C1311.95 1016.29 1305.77 1008.2 1298.16 1008.2C1290.54 1008.2 1284.37 1016.29 1284.37 1026.27Z" fill="#3D3737"/>
<rect x="1243.01" y="1090.35" width="61.2732" height="65.7219" fill="#807A7A"/>
<path d="M1243.78 1090.35H1302.75L1320.37 1113.35H1260.63L1243.78 1090.35Z" fill="#434141"/>
<rect x="1259.86" y="1113.36" width="61.2732" height="65.7219" fill="#514B4B"/>
<path d="M1243.01 1090.35L1261.39 1113.35V1179.08L1243.01 1156.07V1090.35Z" fill="#514B4B"/>
<path d="M1290.5 945.764H1381.64L1373.98 1258.76L1283.6 1264.51L1290.5 945.764Z" fill="#240C37"/>
<path d="M1162.59 917.83L1291.26 944.94L1288.2 1266.98L1162.59 1170.86V917.83Z" fill="#010101" fill-opacity="0.45"/>
<rect x="841.672" y="1165.12" width="15.3183" height="26.2887" fill="#5B2C80"/>
<rect x="1125.06" y="1161.83" width="15.3183" height="26.2887" fill="#5B2C80"/>
<path d="M490.117 1150.33H664.746L681.596 1190.58H670.873L661.682 1171.69L655.555 1160.19L623.387 1159.36L589.686 1160.19H546.795H500.074L486.288 1193.05H474.033L490.117 1150.33Z" fill="#5B2C80"/>
<path d="M329.775 1196.07V1072.18L399.24 1098.1V1243.85L329.775 1196.07Z" fill="#2C0F43" stroke="black"/>
<path d="M419.388 1186.21V1062.32L488.852 1088.24V1233.99L419.388 1186.21Z" fill="#2C0F43" stroke="black"/>
<path d="M419.388 1186.21V1062.32L488.852 1088.24V1233.99L419.388 1186.21Z" fill="#2C0F43" stroke="black"/>
<path d="M487.82 1087.89V1234.12L400.505 1243.16L398.974 1097.75L487.82 1087.89Z" fill="#2C0F43"/>
<path d="M418.888 1061.6L490.118 1087.89L398.974 1097.75L328.51 1071.46L418.888 1061.6Z" fill="#2C0F43"/>
<ellipse cx="444.929" cy="1147.86" rx="27.5729" ry="28.7533" fill="#E8E8E8"/>
<path d="M1037.75 1277.66L1456.7 1263.7L1427.6 1312.99L1079.11 1322.02L1037.75 1277.66Z" fill="#4B2873"/>
<path d="M639.471 1294.91L891.457 1280.12L326.212 1520.01L320.851 1371.31L523.052 1394.32L639.471 1294.91Z" fill="#423F3F"/>
<path d="M316.254 1183.19L448.757 1301.49V1729.5L325.445 1574.23L316.254 1183.19Z" fill="#423F3F" fill-opacity="0.27"/>
<path d="M1236.88 1308.88H1428.36V1675.28L1236.88 1545.48V1308.88Z" fill="#423F3F" fill-opacity="0.27"/>
<g filter="url(#filter0_d_1294_9)">
<path d="M1589 433.298C1589 599.795 1350.54 621.76 1141.29 573.863C781.897 714.228 538 637.522 538 471.025C562.458 132.225 633.113 -1.99674 1021.72 57.8737C1318.61 -152.732 1589 266.801 1589 433.298Z" fill="#FAFAFA"/>
</g>
<path d="M714.176 340L710.376 395.5C710.309 396.5 709.942 397 709.276 397H703.776C700.042 397 697.376 396.267 695.776 394.8C694.176 393.333 693.376 391.233 693.376 388.5C693.376 387.5 693.409 386 693.476 384C693.609 382 693.776 379.667 693.976 377C694.176 374.267 694.376 371.333 694.576 368.2C694.842 365 695.109 361.8 695.376 358.6C695.642 355.333 695.876 352.1 696.076 348.9C696.342 345.7 696.576 342.733 696.776 340H680.776C680.042 340 679.676 339.533 679.676 338.6L679.976 333C680.042 332.133 680.176 331.3 680.376 330.5C680.642 329.633 681.042 328.867 681.576 328.2C682.109 327.533 682.776 327 683.576 326.6C684.442 326.2 685.476 326 686.676 326H731.376C731.776 326 732.142 326.1 732.476 326.3C732.809 326.5 732.976 326.867 732.976 327.4L732.576 333.3C732.442 335.3 731.876 336.933 730.876 338.2C729.942 339.4 727.976 340 724.976 340H714.176ZM745.47 397C743.404 397 741.704 396.8 740.37 396.4C739.104 395.933 738.07 395.3 737.27 394.5C736.537 393.7 736.004 392.733 735.67 391.6C735.404 390.4 735.27 389.033 735.27 387.5C735.27 386.5 735.304 385.1 735.37 383.3C735.504 381.433 735.704 378.9 735.97 375.7C736.237 372.433 736.537 368.333 736.87 363.4C737.27 358.4 737.737 352.233 738.27 344.9C738.337 343.433 738.504 342.567 738.77 342.3C738.97 342.1 739.504 342 740.37 342H744.27C746.337 342 748.004 342.2 749.27 342.6C750.604 343 751.637 343.6 752.37 344.4C753.17 345.2 753.704 346.167 753.97 347.3C754.304 348.433 754.47 349.7 754.47 351.1C754.47 352.1 754.404 353.6 754.27 355.6C754.137 357.6 753.937 360.333 753.67 363.8C753.47 367.2 753.17 371.467 752.77 376.6C752.37 381.667 751.87 387.8 751.27 395C751.204 395.8 751.037 396.333 750.77 396.6C750.504 396.867 749.937 397 749.07 397H745.47ZM738.37 330.2C738.37 327.533 739.337 325.433 741.27 323.9C743.204 322.367 745.804 321.6 749.07 321.6C751.937 321.6 754.004 322.2 755.27 323.4C756.604 324.533 757.27 326.067 757.27 328C757.27 330.467 756.337 332.533 754.47 334.2C752.67 335.8 750.004 336.6 746.47 336.6C741.07 336.6 738.37 334.467 738.37 330.2ZM781.595 398C778.995 398 776.495 397.533 774.095 396.6C771.762 395.667 769.695 394.2 767.895 392.2C766.162 390.2 764.762 387.667 763.695 384.6C762.695 381.533 762.195 377.833 762.195 373.5C762.195 371.567 762.329 369.433 762.595 367.1C762.862 364.7 763.329 362.3 763.995 359.9C764.662 357.5 765.595 355.167 766.795 352.9C767.995 350.633 769.495 348.633 771.295 346.9C773.162 345.1 775.362 343.667 777.895 342.6C780.495 341.533 783.529 341 786.995 341C790.329 341 792.995 341.6 794.995 342.8C797.062 343.933 798.362 345.933 798.895 348.8C799.029 346.2 799.162 343.933 799.295 342C799.429 340.067 799.529 338.267 799.595 336.6C799.729 334.933 799.862 333.267 799.995 331.6C800.129 329.933 800.262 328.033 800.395 325.9C800.462 324.433 800.629 323.567 800.895 323.3C801.029 323.167 801.195 323.1 801.395 323.1C801.595 323.033 801.962 323 802.495 323H806.395C808.395 323 810.062 323.233 811.395 323.7C812.729 324.167 813.795 324.8 814.595 325.6C815.395 326.4 815.962 327.333 816.295 328.4C816.629 329.4 816.795 330.467 816.795 331.6C816.795 331.6 816.729 332.433 816.595 334.1C816.462 335.767 816.295 338 816.095 340.8C815.895 343.533 815.662 346.667 815.395 350.2C815.129 353.733 814.862 357.4 814.595 361.2C814.329 364.933 814.062 368.667 813.795 372.4C813.529 376.067 813.262 379.467 812.995 382.6C812.729 385.667 812.495 388.333 812.295 390.6C812.162 392.8 812.062 394.267 811.995 395C811.862 395.8 811.695 396.333 811.495 396.6C811.295 396.867 810.729 397 809.795 397H806.195C804.795 397 803.462 396.9 802.195 396.7C800.995 396.433 799.929 396.033 798.995 395.5C798.129 394.9 797.429 394.133 796.895 393.2C796.429 392.2 796.195 390.933 796.195 389.4C794.995 391.933 793.162 394 790.695 395.6C788.295 397.2 785.262 398 781.595 398ZM790.295 354.3C786.895 354.3 784.362 355.8 782.695 358.8C781.095 361.733 780.295 365.7 780.295 370.7C780.295 372.433 780.395 374.133 780.595 375.8C780.862 377.467 781.295 378.967 781.895 380.3C782.495 381.633 783.295 382.7 784.295 383.5C785.362 384.3 786.695 384.7 788.295 384.7C791.162 384.7 793.562 383.3 795.495 380.5C797.429 377.7 798.395 373.3 798.395 367.3C798.395 365.633 798.295 364.033 798.095 362.5C797.895 360.9 797.495 359.5 796.895 358.3C796.295 357.1 795.462 356.133 794.395 355.4C793.329 354.667 791.962 354.3 790.295 354.3ZM821.135 384.7C821.135 378.7 823.835 374 829.235 370.6C834.635 367.2 842.602 365.367 853.135 365.1C853.202 364.367 853.235 363.767 853.235 363.3C853.302 362.767 853.335 362.133 853.335 361.4C853.335 359.267 852.935 357.567 852.135 356.3C851.335 355.033 849.668 354.4 847.135 354.4C845.735 354.4 844.602 354.6 843.735 355C842.868 355.4 842.168 355.967 841.635 356.7C841.102 357.367 840.668 358.2 840.335 359.2C840.002 360.2 839.702 361.3 839.435 362.5C839.302 363.1 839.002 363.5 838.535 363.7C838.068 363.833 837.335 363.9 836.335 363.9C829.535 363.9 826.135 361.333 826.135 356.2C826.135 354.133 826.602 352.167 827.535 350.3C828.535 348.433 829.968 346.833 831.835 345.5C833.768 344.1 836.168 343 839.035 342.2C841.902 341.4 845.235 341 849.035 341C856.435 341 861.802 342.533 865.135 345.6C868.468 348.667 870.135 353 870.135 358.6C870.135 359.333 870.035 360.667 869.835 362.6C869.702 364.467 869.502 366.467 869.235 368.6C869.035 370.667 868.835 372.633 868.635 374.5C868.502 376.367 868.435 377.667 868.435 378.4C868.435 380.067 868.735 381.267 869.335 382C869.935 382.667 870.602 383.133 871.335 383.4C872.135 383.667 872.835 383.867 873.435 384C874.035 384.133 874.335 384.467 874.335 385C874.335 386.467 874.135 387.967 873.735 389.5C873.335 391.033 872.668 392.433 871.735 393.7C870.868 394.967 869.635 396 868.035 396.8C866.502 397.6 864.602 398 862.335 398C859.135 398 856.735 397.233 855.135 395.7C853.535 394.167 852.468 392.033 851.935 389.3C850.335 391.633 848.235 393.667 845.635 395.4C843.102 397.133 839.768 398 835.635 398C833.635 398 831.735 397.767 829.935 397.3C828.202 396.833 826.668 396.067 825.335 395C824.068 393.933 823.035 392.567 822.235 390.9C821.502 389.167 821.135 387.1 821.135 384.7ZM852.235 373.3C850.502 373.3 848.802 373.433 847.135 373.7C845.468 373.967 843.968 374.4 842.635 375C841.368 375.533 840.335 376.267 839.535 377.2C838.735 378.133 838.335 379.267 838.335 380.6C838.335 382.133 838.802 383.2 839.735 383.8C840.735 384.4 841.802 384.7 842.935 384.7C844.002 384.7 845.068 384.467 846.135 384C847.202 383.533 848.135 382.833 848.935 381.9C849.802 380.9 850.535 379.7 851.135 378.3C851.735 376.9 852.102 375.233 852.235 373.3ZM927.983 388.9C927.983 389.233 927.816 389.9 927.483 390.9C927.149 391.9 926.616 392.933 925.883 394C925.149 395.067 924.216 396 923.083 396.8C922.016 397.6 920.716 398 919.183 398C917.383 398 915.583 397.4 913.783 396.2C912.049 395 910.316 393.367 908.583 391.3C906.849 389.233 905.083 386.8 903.283 384C901.549 381.133 899.783 378.033 897.983 374.7C897.716 378.233 897.449 381.7 897.183 385.1C896.916 388.5 896.649 391.8 896.383 395C896.316 395.8 896.149 396.333 895.883 396.6C895.616 396.867 895.049 397 894.183 397H890.583C888.516 397 886.816 396.8 885.483 396.4C884.149 395.933 883.116 395.3 882.383 394.5C881.649 393.7 881.116 392.7 880.783 391.5C880.516 390.233 880.383 388.8 880.383 387.2C880.383 386.4 880.416 385.567 880.483 384.7C880.549 383.833 880.649 382.6 880.783 381C880.916 379.4 881.083 377.3 881.283 374.7C881.549 372.1 881.849 368.667 882.183 364.4C882.516 360.133 882.883 354.9 883.283 348.7C883.749 342.433 884.249 334.833 884.783 325.9C884.849 324.433 885.016 323.567 885.283 323.3C885.483 323.1 886.016 323 886.883 323H890.783C892.849 323 894.549 323.233 895.883 323.7C897.216 324.167 898.283 324.8 899.083 325.6C899.883 326.4 900.416 327.333 900.683 328.4C901.016 329.467 901.183 330.567 901.183 331.7C901.183 332.367 901.116 333.5 900.983 335.1C900.916 336.633 900.816 338.533 900.683 340.8C900.549 343 900.349 345.5 900.083 348.3C899.883 351.1 899.683 354.033 899.483 357.1L915.483 342.5C916.083 341.967 916.616 341.6 917.083 341.4C917.616 341.2 918.016 341.1 918.283 341.1C919.016 341.1 919.816 341.567 920.683 342.5C921.549 343.433 922.349 344.533 923.083 345.8C923.883 347 924.516 348.267 924.983 349.6C925.516 350.867 925.783 351.9 925.783 352.7C925.783 354.633 924.216 356.667 921.083 358.8C918.016 360.933 913.349 363.333 907.083 366C909.883 369.133 912.549 372 915.083 374.6C917.616 377.2 919.816 379.5 921.683 381.5C923.616 383.5 925.149 385.133 926.283 386.4C927.416 387.667 927.983 388.5 927.983 388.9ZM952.873 384.7C952.873 378.7 955.573 374 960.973 370.6C966.373 367.2 974.34 365.367 984.873 365.1C984.94 364.367 984.973 363.767 984.973 363.3C985.04 362.767 985.073 362.133 985.073 361.4C985.073 359.267 984.673 357.567 983.873 356.3C983.073 355.033 981.407 354.4 978.873 354.4C977.473 354.4 976.34 354.6 975.473 355C974.607 355.4 973.907 355.967 973.373 356.7C972.84 357.367 972.407 358.2 972.073 359.2C971.74 360.2 971.44 361.3 971.173 362.5C971.04 363.1 970.74 363.5 970.273 363.7C969.807 363.833 969.073 363.9 968.073 363.9C961.273 363.9 957.873 361.333 957.873 356.2C957.873 354.133 958.34 352.167 959.273 350.3C960.273 348.433 961.707 346.833 963.573 345.5C965.507 344.1 967.907 343 970.773 342.2C973.64 341.4 976.973 341 980.773 341C988.173 341 993.54 342.533 996.873 345.6C1000.21 348.667 1001.87 353 1001.87 358.6C1001.87 359.333 1001.77 360.667 1001.57 362.6C1001.44 364.467 1001.24 366.467 1000.97 368.6C1000.77 370.667 1000.57 372.633 1000.37 374.5C1000.24 376.367 1000.17 377.667 1000.17 378.4C1000.17 380.067 1000.47 381.267 1001.07 382C1001.67 382.667 1002.34 383.133 1003.07 383.4C1003.87 383.667 1004.57 383.867 1005.17 384C1005.77 384.133 1006.07 384.467 1006.07 385C1006.07 386.467 1005.87 387.967 1005.47 389.5C1005.07 391.033 1004.41 392.433 1003.47 393.7C1002.61 394.967 1001.37 396 999.773 396.8C998.24 397.6 996.34 398 994.073 398C990.873 398 988.473 397.233 986.873 395.7C985.273 394.167 984.207 392.033 983.673 389.3C982.073 391.633 979.973 393.667 977.373 395.4C974.84 397.133 971.507 398 967.373 398C965.373 398 963.473 397.767 961.673 397.3C959.94 396.833 958.407 396.067 957.073 395C955.807 393.933 954.773 392.567 953.973 390.9C953.24 389.167 952.873 387.1 952.873 384.7ZM983.973 373.3C982.24 373.3 980.54 373.433 978.873 373.7C977.207 373.967 975.707 374.4 974.373 375C973.107 375.533 972.073 376.267 971.273 377.2C970.473 378.133 970.073 379.267 970.073 380.6C970.073 382.133 970.54 383.2 971.473 383.8C972.473 384.4 973.54 384.7 974.673 384.7C975.74 384.7 976.807 384.467 977.873 384C978.94 383.533 979.873 382.833 980.673 381.9C981.54 380.9 982.273 379.7 982.873 378.3C983.473 376.9 983.84 375.233 983.973 373.3ZM1030.52 398C1027.92 398 1025.42 397.533 1023.02 396.6C1020.69 395.667 1018.62 394.2 1016.82 392.2C1015.09 390.2 1013.69 387.667 1012.62 384.6C1011.62 381.533 1011.12 377.833 1011.12 373.5C1011.12 371.567 1011.25 369.433 1011.52 367.1C1011.79 364.7 1012.25 362.3 1012.92 359.9C1013.59 357.5 1014.52 355.167 1015.72 352.9C1016.92 350.633 1018.42 348.633 1020.22 346.9C1022.09 345.1 1024.29 343.667 1026.82 342.6C1029.42 341.533 1032.45 341 1035.92 341C1039.25 341 1041.92 341.6 1043.92 342.8C1045.99 343.933 1047.29 345.933 1047.82 348.8C1047.95 346.2 1048.09 343.933 1048.22 342C1048.35 340.067 1048.45 338.267 1048.52 336.6C1048.65 334.933 1048.79 333.267 1048.92 331.6C1049.05 329.933 1049.19 328.033 1049.32 325.9C1049.39 324.433 1049.55 323.567 1049.82 323.3C1049.95 323.167 1050.12 323.1 1050.32 323.1C1050.52 323.033 1050.89 323 1051.42 323H1055.32C1057.32 323 1058.99 323.233 1060.32 323.7C1061.65 324.167 1062.72 324.8 1063.52 325.6C1064.32 326.4 1064.89 327.333 1065.22 328.4C1065.55 329.4 1065.72 330.467 1065.72 331.6C1065.72 331.6 1065.65 332.433 1065.52 334.1C1065.39 335.767 1065.22 338 1065.02 340.8C1064.82 343.533 1064.59 346.667 1064.32 350.2C1064.05 353.733 1063.79 357.4 1063.52 361.2C1063.25 364.933 1062.99 368.667 1062.72 372.4C1062.45 376.067 1062.19 379.467 1061.92 382.6C1061.65 385.667 1061.42 388.333 1061.22 390.6C1061.09 392.8 1060.99 394.267 1060.92 395C1060.79 395.8 1060.62 396.333 1060.42 396.6C1060.22 396.867 1059.65 397 1058.72 397H1055.12C1053.72 397 1052.39 396.9 1051.12 396.7C1049.92 396.433 1048.85 396.033 1047.92 395.5C1047.05 394.9 1046.35 394.133 1045.82 393.2C1045.35 392.2 1045.12 390.933 1045.12 389.4C1043.92 391.933 1042.09 394 1039.62 395.6C1037.22 397.2 1034.19 398 1030.52 398ZM1039.22 354.3C1035.82 354.3 1033.29 355.8 1031.62 358.8C1030.02 361.733 1029.22 365.7 1029.22 370.7C1029.22 372.433 1029.32 374.133 1029.52 375.8C1029.79 377.467 1030.22 378.967 1030.82 380.3C1031.42 381.633 1032.22 382.7 1033.22 383.5C1034.29 384.3 1035.62 384.7 1037.22 384.7C1040.09 384.7 1042.49 383.3 1044.42 380.5C1046.35 377.7 1047.32 373.3 1047.32 367.3C1047.32 365.633 1047.22 364.033 1047.02 362.5C1046.82 360.9 1046.42 359.5 1045.82 358.3C1045.22 357.1 1044.39 356.133 1043.32 355.4C1042.25 354.667 1040.89 354.3 1039.22 354.3ZM1070.06 384.7C1070.06 378.7 1072.76 374 1078.16 370.6C1083.56 367.2 1091.53 365.367 1102.06 365.1C1102.13 364.367 1102.16 363.767 1102.16 363.3C1102.23 362.767 1102.26 362.133 1102.26 361.4C1102.26 359.267 1101.86 357.567 1101.06 356.3C1100.26 355.033 1098.59 354.4 1096.06 354.4C1094.66 354.4 1093.53 354.6 1092.66 355C1091.79 355.4 1091.09 355.967 1090.56 356.7C1090.03 357.367 1089.59 358.2 1089.26 359.2C1088.93 360.2 1088.63 361.3 1088.36 362.5C1088.23 363.1 1087.93 363.5 1087.46 363.7C1086.99 363.833 1086.26 363.9 1085.26 363.9C1078.46 363.9 1075.06 361.333 1075.06 356.2C1075.06 354.133 1075.53 352.167 1076.46 350.3C1077.46 348.433 1078.89 346.833 1080.76 345.5C1082.69 344.1 1085.09 343 1087.96 342.2C1090.83 341.4 1094.16 341 1097.96 341C1105.36 341 1110.73 342.533 1114.06 345.6C1117.39 348.667 1119.06 353 1119.06 358.6C1119.06 359.333 1118.96 360.667 1118.76 362.6C1118.63 364.467 1118.43 366.467 1118.16 368.6C1117.96 370.667 1117.76 372.633 1117.56 374.5C1117.43 376.367 1117.36 377.667 1117.36 378.4C1117.36 380.067 1117.66 381.267 1118.26 382C1118.86 382.667 1119.53 383.133 1120.26 383.4C1121.06 383.667 1121.76 383.867 1122.36 384C1122.96 384.133 1123.26 384.467 1123.26 385C1123.26 386.467 1123.06 387.967 1122.66 389.5C1122.26 391.033 1121.59 392.433 1120.66 393.7C1119.79 394.967 1118.56 396 1116.96 396.8C1115.43 397.6 1113.53 398 1111.26 398C1108.06 398 1105.66 397.233 1104.06 395.7C1102.46 394.167 1101.39 392.033 1100.86 389.3C1099.26 391.633 1097.16 393.667 1094.56 395.4C1092.03 397.133 1088.69 398 1084.56 398C1082.56 398 1080.66 397.767 1078.86 397.3C1077.13 396.833 1075.59 396.067 1074.26 395C1072.99 393.933 1071.96 392.567 1071.16 390.9C1070.43 389.167 1070.06 387.1 1070.06 384.7ZM1101.16 373.3C1099.43 373.3 1097.73 373.433 1096.06 373.7C1094.39 373.967 1092.89 374.4 1091.56 375C1090.29 375.533 1089.26 376.267 1088.46 377.2C1087.66 378.133 1087.26 379.267 1087.26 380.6C1087.26 382.133 1087.73 383.2 1088.66 383.8C1089.66 384.4 1090.73 384.7 1091.86 384.7C1092.93 384.7 1093.99 384.467 1095.06 384C1096.13 383.533 1097.06 382.833 1097.86 381.9C1098.73 380.9 1099.46 379.7 1100.06 378.3C1100.66 376.9 1101.03 375.233 1101.16 373.3ZM1180 340L1176.2 395.5C1176.13 396.5 1175.76 397 1175.1 397H1169.6C1165.86 397 1163.2 396.267 1161.6 394.8C1160 393.333 1159.2 391.233 1159.2 388.5C1159.2 387.5 1159.23 386 1159.3 384C1159.43 382 1159.6 379.667 1159.8 377C1160 374.267 1160.2 371.333 1160.4 368.2C1160.66 365 1160.93 361.8 1161.2 358.6C1161.46 355.333 1161.7 352.1 1161.9 348.9C1162.16 345.7 1162.4 342.733 1162.6 340H1146.6C1145.86 340 1145.5 339.533 1145.5 338.6L1145.8 333C1145.86 332.133 1146 331.3 1146.2 330.5C1146.46 329.633 1146.86 328.867 1147.4 328.2C1147.93 327.533 1148.6 327 1149.4 326.6C1150.26 326.2 1151.3 326 1152.5 326H1197.2C1197.6 326 1197.96 326.1 1198.3 326.3C1198.63 326.5 1198.8 326.867 1198.8 327.4L1198.4 333.3C1198.26 335.3 1197.7 336.933 1196.7 338.2C1195.76 339.4 1193.8 340 1190.8 340H1180ZM1215.5 350.5C1215.5 351.9 1215.37 353.867 1215.1 356.4C1214.9 358.933 1214.67 361.567 1214.4 364.3C1214.2 367.033 1213.97 369.6 1213.7 372C1213.5 374.4 1213.4 376.133 1213.4 377.2C1213.4 379.533 1213.97 381.367 1215.1 382.7C1216.3 383.967 1217.93 384.6 1220 384.6C1221.8 384.6 1223.3 383.9 1224.5 382.5C1225.77 381.033 1226.77 379.167 1227.5 376.9C1228.3 374.567 1228.93 371.933 1229.4 369C1229.87 366.067 1230.2 363.1 1230.4 360.1C1230.67 357.1 1230.87 354.2 1231 351.4C1231.2 348.533 1231.4 346.067 1231.6 344C1231.67 343.467 1231.87 343 1232.2 342.6C1232.53 342.2 1233.07 342 1233.8 342H1237.4C1239.47 342 1241.13 342.233 1242.4 342.7C1243.73 343.1 1244.77 343.7 1245.5 344.5C1246.3 345.3 1246.83 346.3 1247.1 347.5C1247.43 348.633 1247.6 349.967 1247.6 351.5C1247.6 352.5 1247.53 353.933 1247.4 355.8C1247.33 357.6 1247.17 360.133 1246.9 363.4C1246.63 366.6 1246.3 370.7 1245.9 375.7C1245.57 380.633 1245.13 386.767 1244.6 394.1C1244.47 395.5 1244.3 396.333 1244.1 396.6C1243.97 396.867 1243.43 397 1242.5 397H1238.6C1236.6 397 1234.93 396.767 1233.6 396.3C1232.33 395.833 1231.3 395.233 1230.5 394.5C1229.7 393.767 1229.13 392.9 1228.8 391.9C1228.47 390.9 1228.27 389.867 1228.2 388.8C1227.2 390.533 1226.07 392 1224.8 393.2C1223.6 394.4 1222.33 395.367 1221 396.1C1219.67 396.767 1218.3 397.233 1216.9 397.5C1215.5 397.833 1214.13 398 1212.8 398C1210.27 398 1208 397.6 1206 396.8C1204 395.933 1202.3 394.8 1200.9 393.4C1199.57 392 1198.53 390.333 1197.8 388.4C1197.07 386.467 1196.7 384.4 1196.7 382.2C1196.7 381.333 1196.73 379.933 1196.8 378C1196.93 376 1197.07 373.767 1197.2 371.3C1197.4 368.833 1197.6 366.233 1197.8 363.5C1198 360.7 1198.17 358.067 1198.3 355.6C1198.5 353.133 1198.67 350.967 1198.8 349.1C1199 347.233 1199.13 345.9 1199.2 345.1C1199.33 343.9 1199.6 343.1 1200 342.7C1200.4 342.233 1201.07 342 1202 342H1205.2C1207.27 342 1208.97 342.2 1210.3 342.6C1211.63 343 1212.67 343.567 1213.4 344.3C1214.2 345.033 1214.73 345.933 1215 347C1215.33 348 1215.5 349.167 1215.5 350.5ZM1289.06 385.2C1287.4 388.2 1285.36 390.433 1282.96 391.9C1280.56 393.3 1277.56 394 1273.96 394C1271.23 394 1268.73 393.567 1266.46 392.7C1264.2 391.833 1262.26 390.467 1260.66 388.6C1259.06 386.733 1257.8 384.4 1256.86 381.6C1256 378.733 1255.56 375.333 1255.56 371.4C1255.56 368.2 1255.9 364.833 1256.56 361.3C1257.23 357.7 1258.43 354.4 1260.16 351.4C1261.96 348.4 1264.4 345.933 1267.46 344C1270.53 342 1274.46 341 1279.26 341C1281.26 341 1282.96 341.233 1284.36 341.7C1285.83 342.1 1287.06 342.667 1288.06 343.4C1289.13 344.133 1289.96 345 1290.56 346C1291.23 347 1291.73 348.067 1292.06 349.2C1292.06 349.267 1292.06 349.033 1292.06 348.5C1292.13 347.9 1292.2 347.233 1292.26 346.5C1292.33 345.767 1292.36 345.067 1292.36 344.4C1292.43 343.667 1292.46 343.2 1292.46 343C1292.53 342.333 1292.96 342 1293.76 342H1298.36C1301.83 342 1304.33 342.733 1305.86 344.2C1307.46 345.6 1308.26 348.3 1308.26 352.3C1308.26 352.833 1308.23 354.067 1308.16 356C1308.1 357.867 1307.96 360.133 1307.76 362.8C1307.63 365.467 1307.43 368.433 1307.16 371.7C1306.9 374.9 1306.6 378.133 1306.26 381.4C1305.93 384.667 1305.56 387.8 1305.16 390.8C1304.76 393.8 1304.33 396.433 1303.86 398.7C1303.4 400.967 1302.6 403.167 1301.46 405.3C1300.33 407.433 1298.73 409.333 1296.66 411C1294.6 412.667 1291.93 414 1288.66 415C1285.46 416 1281.53 416.5 1276.86 416.5C1273.33 416.5 1270.23 416.167 1267.56 415.5C1264.96 414.833 1262.8 413.933 1261.06 412.8C1259.33 411.733 1258 410.5 1257.06 409.1C1256.2 407.7 1255.76 406.3 1255.76 404.9C1255.76 403.633 1256.03 402.533 1256.56 401.6C1257.1 400.667 1257.8 399.9 1258.66 399.3C1259.53 398.7 1260.46 398.233 1261.46 397.9C1262.53 397.633 1263.53 397.5 1264.46 397.5C1265.6 397.5 1266.43 397.833 1266.96 398.5C1267.5 399.167 1268.1 399.9 1268.76 400.7C1269.43 401.567 1270.36 402.333 1271.56 403C1272.76 403.667 1274.63 404 1277.16 404C1281.56 404 1284.63 402.367 1286.36 399.1C1288.16 395.9 1289.06 391.267 1289.06 385.2ZM1280.66 380.7C1283.06 380.7 1284.93 380.133 1286.26 379C1287.66 377.867 1288.73 376.5 1289.46 374.9C1290.2 373.3 1290.66 371.633 1290.86 369.9C1291.06 368.167 1291.16 366.667 1291.16 365.4C1291.16 361.4 1290.53 358.567 1289.26 356.9C1288.06 355.167 1286.23 354.3 1283.76 354.3C1281.3 354.3 1279.36 354.967 1277.96 356.3C1276.56 357.633 1275.5 359.233 1274.76 361.1C1274.1 362.9 1273.66 364.733 1273.46 366.6C1273.26 368.4 1273.16 369.8 1273.16 370.8C1273.16 374.133 1273.73 376.633 1274.86 378.3C1276 379.9 1277.93 380.7 1280.66 380.7ZM1314.1 384.7C1314.1 378.7 1316.8 374 1322.2 370.6C1327.6 367.2 1335.57 365.367 1346.1 365.1C1346.17 364.367 1346.2 363.767 1346.2 363.3C1346.27 362.767 1346.3 362.133 1346.3 361.4C1346.3 359.267 1345.9 357.567 1345.1 356.3C1344.3 355.033 1342.64 354.4 1340.1 354.4C1338.7 354.4 1337.57 354.6 1336.7 355C1335.84 355.4 1335.14 355.967 1334.6 356.7C1334.07 357.367 1333.64 358.2 1333.3 359.2C1332.97 360.2 1332.67 361.3 1332.4 362.5C1332.27 363.1 1331.97 363.5 1331.5 363.7C1331.04 363.833 1330.3 363.9 1329.3 363.9C1322.5 363.9 1319.1 361.333 1319.1 356.2C1319.1 354.133 1319.57 352.167 1320.5 350.3C1321.5 348.433 1322.94 346.833 1324.8 345.5C1326.74 344.1 1329.14 343 1332 342.2C1334.87 341.4 1338.2 341 1342 341C1349.4 341 1354.77 342.533 1358.1 345.6C1361.44 348.667 1363.1 353 1363.1 358.6C1363.1 359.333 1363 360.667 1362.8 362.6C1362.67 364.467 1362.47 366.467 1362.2 368.6C1362 370.667 1361.8 372.633 1361.6 374.5C1361.47 376.367 1361.4 377.667 1361.4 378.4C1361.4 380.067 1361.7 381.267 1362.3 382C1362.9 382.667 1363.57 383.133 1364.3 383.4C1365.1 383.667 1365.8 383.867 1366.4 384C1367 384.133 1367.3 384.467 1367.3 385C1367.3 386.467 1367.1 387.967 1366.7 389.5C1366.3 391.033 1365.64 392.433 1364.7 393.7C1363.84 394.967 1362.6 396 1361 396.8C1359.47 397.6 1357.57 398 1355.3 398C1352.1 398 1349.7 397.233 1348.1 395.7C1346.5 394.167 1345.44 392.033 1344.9 389.3C1343.3 391.633 1341.2 393.667 1338.6 395.4C1336.07 397.133 1332.74 398 1328.6 398C1326.6 398 1324.7 397.767 1322.9 397.3C1321.17 396.833 1319.64 396.067 1318.3 395C1317.04 393.933 1316 392.567 1315.2 390.9C1314.47 389.167 1314.1 387.1 1314.1 384.7ZM1345.2 373.3C1343.47 373.3 1341.77 373.433 1340.1 373.7C1338.44 373.967 1336.94 374.4 1335.6 375C1334.34 375.533 1333.3 376.267 1332.5 377.2C1331.7 378.133 1331.3 379.267 1331.3 380.6C1331.3 382.133 1331.77 383.2 1332.7 383.8C1333.7 384.4 1334.77 384.7 1335.9 384.7C1336.97 384.7 1338.04 384.467 1339.1 384C1340.17 383.533 1341.1 382.833 1341.9 381.9C1342.77 380.9 1343.5 379.7 1344.1 378.3C1344.7 376.9 1345.07 375.233 1345.2 373.3ZM1396.75 341C1402.42 341 1406.58 342.133 1409.25 344.4C1411.92 346.6 1413.25 349.433 1413.25 352.9C1413.25 355.833 1412.32 358.067 1410.45 359.6C1408.65 361.133 1406.02 361.9 1402.55 361.9C1401.62 361.9 1400.98 361.8 1400.65 361.6C1400.32 361.4 1400.15 361.033 1400.15 360.5C1400.15 359.9 1400.08 359.233 1399.95 358.5C1399.88 357.7 1399.65 356.967 1399.25 356.3C1398.92 355.567 1398.35 354.967 1397.55 354.5C1396.82 354.033 1395.75 353.8 1394.35 353.8C1392.48 353.8 1390.98 354.267 1389.85 355.2C1388.72 356.067 1388.15 357.167 1388.15 358.5C1388.15 359.9 1388.72 361.033 1389.85 361.9C1391.05 362.7 1392.52 363.467 1394.25 364.2C1396.05 364.933 1397.98 365.7 1400.05 366.5C1402.12 367.233 1404.02 368.233 1405.75 369.5C1407.55 370.767 1409.02 372.367 1410.15 374.3C1411.35 376.167 1411.95 378.6 1411.95 381.6C1411.95 386.4 1410.25 390.333 1406.85 393.4C1403.45 396.467 1398.35 398 1391.55 398C1389.68 398 1387.52 397.833 1385.05 397.5C1382.65 397.233 1380.35 396.8 1378.15 396.2C1375.95 395.533 1374.08 394.667 1372.55 393.6C1371.08 392.533 1370.35 391.2 1370.35 389.6C1370.35 389 1370.45 388.267 1370.65 387.4C1370.92 386.533 1371.28 385.7 1371.75 384.9C1372.28 384.1 1372.88 383.433 1373.55 382.9C1374.28 382.3 1375.15 382 1376.15 382C1376.95 382 1377.68 382.2 1378.35 382.6C1379.02 383 1379.78 383.433 1380.65 383.9C1381.58 384.3 1382.72 384.7 1384.05 385.1C1385.38 385.5 1387.15 385.7 1389.35 385.7C1391.02 385.7 1392.48 385.5 1393.75 385.1C1395.08 384.7 1395.75 383.8 1395.75 382.4C1395.75 381.133 1395.22 380.133 1394.15 379.4C1393.08 378.6 1391.72 377.867 1390.05 377.2C1388.45 376.533 1386.68 375.833 1384.75 375.1C1382.88 374.3 1381.12 373.267 1379.45 372C1377.85 370.733 1376.52 369.133 1375.45 367.2C1374.38 365.2 1373.85 362.633 1373.85 359.5C1373.85 356.1 1374.52 353.233 1375.85 350.9C1377.25 348.5 1379.02 346.567 1381.15 345.1C1383.35 343.633 1385.82 342.6 1388.55 342C1391.28 341.333 1394.02 341 1396.75 341Z" fill="#6614BE"/>
<g filter="url(#filter1_d_1294_9)">
<path d="M1830 727.853C1821.26 755.811 1799.87 756.798 1767.15 765.712C1766.46 765.9 1765.73 766.001 1765.01 765.996C1734.24 765.764 1709 755.618 1709 727.853C1709 699.763 1726.57 689 1759.98 689C1793.4 689 1830 699.763 1830 727.853Z" fill="#FAFAFA"/>
</g>
<g filter="url(#filter2_d_1294_9)">
<path d="M2151 931.853C2142.26 959.811 2120.87 960.798 2088.15 969.712C2087.46 969.9 2086.73 970.001 2086.01 969.996C2055.24 969.764 2030 959.618 2030 931.853C2030 903.763 2047.57 893 2080.98 893C2114.4 893 2151 903.763 2151 931.853Z" fill="#FAFAFA"/>
</g>
<g filter="url(#filter3_d_1294_9)">
<path d="M1997 820.853C1988.26 848.811 1966.87 849.798 1934.15 858.712C1933.46 858.9 1932.73 859.001 1932.01 858.996C1901.24 858.764 1876 848.618 1876 820.853C1876 792.763 1893.57 782 1926.98 782C1960.4 782 1997 792.763 1997 820.853Z" fill="#FAFAFA"/>
</g>
<g filter="url(#filter4_d_1294_9)">
<path d="M1634 612.349C1625.26 639.947 1603.86 640.918 1571.14 649.719C1570.46 649.903 1569.74 650.001 1569.03 649.996C1538.24 649.77 1513 639.757 1513 612.349C1513 584.623 1530.57 574 1563.98 574C1597.4 574 1634 584.623 1634 612.349Z" fill="#FAFAFA"/>
</g>
<g filter="url(#filter5_d_1294_9)">
<path d="M2162 1121.85C2153.26 1149.81 2131.87 1150.8 2099.15 1159.71C2098.46 1159.9 2097.73 1160 2097.01 1160C2066.24 1159.76 2041 1149.62 2041 1121.85C2041 1093.76 2058.57 1083 2091.98 1083C2125.4 1083 2162 1093.76 2162 1121.85Z" fill="#FAFAFA"/>
</g>
<path d="M1903.92 1387.52C1891.01 1379.4 1902.23 1382.51 1883.47 1414.75C1873.86 1456.08 1871.35 1471.24 1901.23 1494.71C1933.65 1490.08 1932.18 1477.19 1928.26 1429.07C1924.83 1386.92 1916.82 1395.64 1903.92 1387.52Z" fill="#57DFD7"/>
<path d="M1643.13 1388.93C1630.23 1380.8 1641.44 1383.92 1622.68 1416.16C1613.08 1457.49 1610.57 1472.65 1640.45 1496.12C1672.86 1491.48 1671.4 1478.6 1667.48 1430.47C1664.04 1388.33 1656.04 1397.05 1643.13 1388.93Z" fill="#57DFD7"/>
<path d="M1834 1634C1834 1644.38 1827.27 1654.09 1815.75 1661.3C1804.27 1668.49 1788.27 1673 1770.5 1673C1752.73 1673 1736.73 1668.49 1725.25 1661.3C1713.73 1654.09 1707 1644.38 1707 1634C1707 1623.62 1713.73 1613.91 1725.25 1606.7C1736.73 1599.51 1752.73 1595 1770.5 1595C1788.27 1595 1804.27 1599.51 1815.75 1606.7C1827.27 1613.91 1834 1623.62 1834 1634Z" fill="#201E1E" fill-opacity="0.74" stroke="#605E5E" stroke-width="4"/>
<path d="M1542.42 1300.85C1537.09 1301.15 1531.55 1304.12 1525.43 1311.99C1523.42 1329.84 1528.65 1356.48 1548.59 1376.46C1568.57 1396.47 1603.67 1410.14 1662.09 1401.01C1665.74 1395.13 1669.49 1389.29 1673.18 1383.56L1673.24 1383.46C1677.07 1377.51 1680.82 1371.68 1684.32 1366.01C1691.36 1354.58 1697.3 1343.92 1700.71 1334.42C1704.13 1324.88 1704.85 1316.9 1702.03 1310.6C1699.25 1304.38 1692.74 1299.17 1680.27 1295.79C1666.48 1294.9 1658.95 1297.82 1654.4 1302.05C1649.75 1306.38 1647.86 1312.37 1645.97 1318.64C1645.92 1318.8 1645.87 1318.96 1645.82 1319.13C1644.04 1325 1642.13 1331.34 1637.11 1335.08C1631.83 1339.02 1623.73 1339.73 1610.49 1336C1599.9 1333.02 1590.7 1327.91 1582.5 1322.52C1578.61 1319.96 1574.92 1317.33 1571.43 1314.83C1571.24 1314.7 1571.06 1314.57 1570.88 1314.44C1567.21 1311.82 1563.77 1309.38 1560.46 1307.29C1553.78 1303.08 1547.97 1300.54 1542.42 1300.85Z" fill="white" stroke="black" stroke-width="4"/>
<path d="M1909.67 1330.1C1916.64 1353.76 1920.01 1379.66 1920.85 1390.64C1920.65 1390.75 1920.42 1390.92 1920.21 1391.18C1920.13 1391.29 1920.05 1391.4 1919.99 1391.53C1919.41 1391.68 1918.65 1391.86 1917.64 1392.06C1914.7 1392.64 1909.83 1393.42 1901.94 1394.4C1884.85 1395.38 1869.28 1392.54 1857.93 1387.24C1846.48 1381.9 1839.8 1374.33 1839.35 1366.06C1838.86 1356.86 1839.54 1336.5 1844.63 1318.25C1847.17 1309.13 1850.77 1300.69 1855.76 1294.44C1860.72 1288.23 1866.98 1284.25 1874.98 1283.78C1882.62 1283.34 1889.35 1288.15 1895.26 1296.79C1901.15 1305.39 1905.91 1317.34 1909.67 1330.1Z" fill="#00FFC5" stroke="black" stroke-width="4"/>
<path d="M1899.09 1388.22C1890.75 1438.38 1877.43 1483.42 1852.86 1516.85C1828.4 1550.14 1792.66 1572.09 1738.98 1575.88C1738.32 1575.93 1737.61 1575.84 1736.97 1575.64C1685.79 1559.44 1658.4 1535.86 1642.23 1503.7C1625.93 1471.29 1620.89 1429.93 1615.12 1377.64C1615.09 1377.33 1615.08 1377.04 1615.09 1376.72C1615.2 1374.28 1615.17 1371.32 1615.13 1367.95C1614.95 1352.9 1614.69 1329.57 1626.31 1307.46C1640.35 1280.75 1672.16 1255.42 1744.95 1251.12C1745.41 1251.09 1745.94 1251.13 1746.41 1251.22C1781.12 1258.04 1805.06 1257.11 1822.23 1255.1C1826.51 1254.59 1830.36 1254.03 1833.82 1253.5C1834.34 1253.42 1834.85 1253.35 1835.34 1253.27C1838.2 1252.83 1840.76 1252.44 1843.12 1252.16C1848.69 1251.47 1852.63 1251.42 1855.81 1252.5C1858.84 1253.52 1861.5 1255.68 1864.19 1260.22C1866.94 1264.83 1869.6 1271.69 1872.65 1281.82C1876.88 1295.85 1881.74 1315.72 1888.6 1343.73C1891.63 1356.13 1895.06 1370.13 1898.99 1385.93C1899.17 1386.68 1899.21 1387.51 1899.09 1388.22Z" fill="white" stroke="black" stroke-width="5"/>
<path d="M1967.9 1119.03C1964.96 1169.83 1933.09 1219.28 1884.32 1255.01C1835.59 1290.72 1770.24 1312.54 1700.83 1308.21C1642.08 1304.55 1580.9 1290.37 1535.66 1256.7C1490.58 1223.15 1461.05 1170.04 1465.82 1087.73C1468.76 1036.86 1499.82 984.547 1547.73 945.976C1595.6 907.435 1660.05 882.822 1729.38 887.143C1798.92 891.478 1860.54 915.697 1903.75 955.656C1946.91 995.573 1971.82 1051.3 1967.9 1119.03Z" fill="white" stroke="black" stroke-width="5"/>
<path d="M1878.13 1187.9C1850.29 1217.83 1765.14 1244.56 1696.49 1193.69C1610.32 1251.23 1534.42 1195.94 1518.16 1157.14C1470.7 1043.87 1583.05 943.686 1737.34 961.352C1891.64 979.018 1955.28 1104.96 1878.13 1187.9Z" fill="black"/>
<path d="M1776.28 1299.18L1777.57 1359.27L1785.02 1430.34L1798.3 1501.23C1798.45 1502.06 1798.74 1502.87 1799.15 1503.61L1820.7 1542.71" stroke="#F4F4F4"/>
<ellipse cx="27.8482" cy="28.8917" rx="27.8482" ry="28.8917" transform="matrix(0.998063 0.0622099 -0.0577818 0.998329 1598.78 1098.19)" fill="#84F6D5"/>
<path d="M1924.08 1288.83C1926.01 1282.98 1930.08 1275.3 1948.94 1261.97C1957.7 1259.18 1965.27 1259.82 1971.18 1262.87C1977.14 1265.94 1981.63 1271.57 1983.96 1279.12C1988.62 1294.23 1984.6 1317.07 1966.11 1341.01C1945.1 1362.86 1920.47 1380.69 1897.64 1386.16C1886.26 1388.89 1875.41 1388.52 1865.67 1384.15C1855.98 1379.8 1847.17 1371.4 1839.98 1357.66C1834.94 1341.76 1835.68 1332.32 1839.2 1326.57C1842.74 1320.8 1849.5 1318.06 1858.28 1316.71C1864.18 1315.8 1870.61 1315.57 1877.12 1315.34C1880.32 1315.22 1883.53 1315.1 1886.72 1314.91C1896.14 1314.32 1905.36 1313.03 1911.6 1308.43C1916.72 1304.67 1919.37 1301.4 1920.99 1298.1C1921.79 1296.48 1922.31 1294.9 1922.75 1293.38C1922.91 1292.85 1923.05 1292.34 1923.19 1291.83C1923.47 1290.84 1923.74 1289.88 1924.08 1288.83Z" fill="white" stroke="black" stroke-width="4"/>
<path d="M1734.91 1119.67C1734.32 1117.58 1736.88 1116.82 1738.01 1118.68C1744.57 1129.55 1755.32 1140.98 1770.82 1140.68C1786.23 1140.37 1797 1125.78 1802.64 1116.57C1803.69 1114.85 1806.02 1115.52 1805.68 1117.51C1802.81 1134.71 1788.46 1147.95 1770.96 1148.29C1754.33 1148.62 1739.49 1135.89 1734.91 1119.67Z" fill="#84F6D5"/>
<defs>
<filter id="filter0_d_1294_9" x="534" y="0" width="1059" height="655" filterUnits="userSpaceOnUse" color-interpolation-filters="sRGB">
<feFlood flood-opacity="0" result="BackgroundImageFix"/>
<feColorMatrix in="SourceAlpha" type="matrix" values="0 0 0 0 0 0 0 0 0 0 0 0 0 0 0 0 0 0 127 0" result="hardAlpha"/>
<feOffset dy="4"/>
<feGaussianBlur stdDeviation="2"/>
<feComposite in2="hardAlpha" operator="out"/>
<feColorMatrix type="matrix" values="0 0 0 0 0.770833 0 0 0 0 0.770833 0 0 0 0 0.770833 0 0 0 0.25 0"/>
<feBlend mode="normal" in2="BackgroundImageFix" result="effect1_dropShadow_1294_9"/>
<feBlend mode="normal" in="SourceGraphic" in2="effect1_dropShadow_1294_9" result="shape"/>
</filter>
<filter id="filter1_d_1294_9" x="1705" y="689" width="129" height="84.9961" filterUnits="userSpaceOnUse" color-interpolation-filters="sRGB">
<feFlood flood-opacity="0" result="BackgroundImageFix"/>
<feColorMatrix in="SourceAlpha" type="matrix" values="0 0 0 0 0 0 0 0 0 0 0 0 0 0 0 0 0 0 127 0" result="hardAlpha"/>
<feOffset dy="4"/>
<feGaussianBlur stdDeviation="2"/>
<feComposite in2="hardAlpha" operator="out"/>
<feColorMatrix type="matrix" values="0 0 0 0 0.770833 0 0 0 0 0.770833 0 0 0 0 0.770833 0 0 0 0.25 0"/>
<feBlend mode="normal" in2="BackgroundImageFix" result="effect1_dropShadow_1294_9"/>
<feBlend mode="normal" in="SourceGraphic" in2="effect1_dropShadow_1294_9" result="shape"/>
</filter>
<filter id="filter2_d_1294_9" x="2026" y="893" width="129" height="84.9961" filterUnits="userSpaceOnUse" color-interpolation-filters="sRGB">
<feFlood flood-opacity="0" result="BackgroundImageFix"/>
<feColorMatrix in="SourceAlpha" type="matrix" values="0 0 0 0 0 0 0 0 0 0 0 0 0 0 0 0 0 0 127 0" result="hardAlpha"/>
<feOffset dy="4"/>
<feGaussianBlur stdDeviation="2"/>
<feComposite in2="hardAlpha" operator="out"/>
<feColorMatrix type="matrix" values="0 0 0 0 0.770833 0 0 0 0 0.770833 0 0 0 0 0.770833 0 0 0 0.25 0"/>
<feBlend mode="normal" in2="BackgroundImageFix" result="effect1_dropShadow_1294_9"/>
<feBlend mode="normal" in="SourceGraphic" in2="effect1_dropShadow_1294_9" result="shape"/>
</filter>
<filter id="filter3_d_1294_9" x="1872" y="782" width="129" height="84.9961" filterUnits="userSpaceOnUse" color-interpolation-filters="sRGB">
<feFlood flood-opacity="0" result="BackgroundImageFix"/>
<feColorMatrix in="SourceAlpha" type="matrix" values="0 0 0 0 0 0 0 0 0 0 0 0 0 0 0 0 0 0 127 0" result="hardAlpha"/>
<feOffset dy="4"/>
<feGaussianBlur stdDeviation="2"/>
<feComposite in2="hardAlpha" operator="out"/>
<feColorMatrix type="matrix" values="0 0 0 0 0.770833 0 0 0 0 0.770833 0 0 0 0 0.770833 0 0 0 0.25 0"/>
<feBlend mode="normal" in2="BackgroundImageFix" result="effect1_dropShadow_1294_9"/>
<feBlend mode="normal" in="SourceGraphic" in2="effect1_dropShadow_1294_9" result="shape"/>
</filter>
<filter id="filter4_d_1294_9" x="1509" y="574" width="129" height="83.9961" filterUnits="userSpaceOnUse" color-interpolation-filters="sRGB">
<feFlood flood-opacity="0" result="BackgroundImageFix"/>
<feColorMatrix in="SourceAlpha" type="matrix" values="0 0 0 0 0 0 0 0 0 0 0 0 0 0 0 0 0 0 127 0" result="hardAlpha"/>
<feOffset dy="4"/>
<feGaussianBlur stdDeviation="2"/>
<feComposite in2="hardAlpha" operator="out"/>
<feColorMatrix type="matrix" values="0 0 0 0 0.770833 0 0 0 0 0.770833 0 0 0 0 0.770833 0 0 0 0.25 0"/>
<feBlend mode="normal" in2="BackgroundImageFix" result="effect1_dropShadow_1294_9"/>
<feBlend mode="normal" in="SourceGraphic" in2="effect1_dropShadow_1294_9" result="shape"/>
</filter>
<filter id="filter5_d_1294_9" x="2037" y="1083" width="129" height="84.9961" filterUnits="userSpaceOnUse" color-interpolation-filters="sRGB">
<feFlood flood-opacity="0" result="BackgroundImageFix"/>
<feColorMatrix in="SourceAlpha" type="matrix" values="0 0 0 0 0 0 0 0 0 0 0 0 0 0 0 0 0 0 127 0" result="hardAlpha"/>
<feOffset dy="4"/>
<feGaussianBlur stdDeviation="2"/>
<feComposite in2="hardAlpha" operator="out"/>
<feColorMatrix type="matrix" values="0 0 0 0 0.770833 0 0 0 0 0.770833 0 0 0 0 0.770833 0 0 0 0.25 0"/>
<feBlend mode="normal" in2="BackgroundImageFix" result="effect1_dropShadow_1294_9"/>
<feBlend mode="normal" in="SourceGraphic" in2="effect1_dropShadow_1294_9" result="shape"/>
</filter>
</defs>
</svg>
