<svg width="2041" height="1923" viewBox="0 0 2041 1923" fill="none" xmlns="http://www.w3.org/2000/svg">
<path d="M1648 1697C1648 1775.98 1017.58 1923 562.5 1923C107.417 1923 0 1775.98 0 1697C0 1173 563.417 1431 1018.5 1431C1473.58 1431 1648 1618.02 1648 1697Z" fill="#AB47F8" fill-opacity="0.08"/>
<path d="M1185.72 1130.6H1285.43C1289.01 1130.6 1291.8 1133.72 1291.39 1137.29L1244.29 1542.53C1243.82 1546.57 1239.56 1548.98 1235.86 1547.31L1213.11 1537C1211.11 1536.1 1209.77 1534.18 1209.6 1531.99L1179.74 1137.05C1179.48 1133.57 1182.23 1130.6 1185.72 1130.6Z" stroke="black" stroke-width="4"/>
<path d="M1290.97 1163.05H1392.37C1395.97 1163.05 1398.75 1166.19 1398.33 1169.76L1350.54 1575.07C1350.07 1579.09 1345.83 1581.5 1342.13 1579.85L1318.83 1569.44C1316.82 1568.55 1315.46 1566.62 1315.29 1564.42L1284.99 1169.51C1284.72 1166.03 1287.48 1163.05 1290.97 1163.05Z" stroke="black" stroke-width="4"/>
<path d="M233.312 1135.23H321.184C324.732 1135.23 327.505 1138.29 327.155 1141.82L284.893 1567.86C284.472 1572.11 279.879 1574.57 276.11 1572.57L257.357 1562.62C255.518 1561.64 254.316 1559.78 254.182 1557.71L227.325 1141.62C227.102 1138.16 229.847 1135.23 233.312 1135.23Z" stroke="black" stroke-width="4"/>
<path d="M329.915 1166.15H416.085C419.629 1166.15 422.401 1169.2 422.056 1172.73L380.497 1598.67C380.081 1602.93 375.451 1605.4 371.677 1603.36L353.485 1593.55C351.663 1592.57 350.477 1590.72 350.346 1588.65L323.927 1172.53C323.707 1169.07 326.451 1166.15 329.915 1166.15Z" stroke="black" stroke-width="4"/>
<path d="M1457.09 1183.79H242.131L196.63 1136.41L1349.3 1119.78H1349.31H1396.09L1457.09 1183.79Z" fill="#6B4396" stroke="#4F0886" stroke-width="4"/>
<path d="M573.271 848.639L645.73 814.828L687.135 792.851L742.342 760.73V1139.41L625.028 1097.15L573.271 848.639Z" fill="#1BDCB0"/>
<path d="M434.412 1141.99L382.264 1142.09L345.325 1142.16L319.251 1142.21L295.35 1142.25L225.589 1142.01L225.614 814.143L433.673 752.758L434.412 1141.99Z" fill="#FCE412"/>
<path d="M635.43 1142.29L615.652 1142.33L601.643 1142.36L591.754 1142.38L582.689 1142.4L556.231 1142.13L555.994 866.252L634.856 814.766L635.43 1142.29Z" fill="#FC8800"/>
<path d="M433.529 737.545H474.934V805.797H543.943V737.545H578.447V1142.5H433.529V737.545Z" fill="#FFEA2E"/>
<path d="M633.654 813.283H663.722V868.77H713.836V813.283H738.892V1142.51H633.654V813.283Z" fill="#FC9012"/>
<path d="M742.344 760.73H781.284V825.075H846.185V760.73H878.635V1142.51H742.344V760.73Z" fill="#32F8CB"/>
<rect x="477.211" y="841.762" width="71.6252" height="192.372" fill="#FAFAFA"/>
<rect x="490.234" y="862.748" width="52.0911" height="6.99533" fill="#4B4848"/>
<rect x="490.234" y="876.738" width="52.0911" height="6.99533" fill="#4B4848"/>
<rect x="490.234" y="1016.65" width="52.0911" height="6.99533" fill="#4B4848"/>
<rect x="535.814" y="1002.66" width="55.9626" height="6.51138" transform="rotate(-90 535.814 1002.66)" fill="#4B4848"/>
<rect x="490.234" y="1002.66" width="55.9626" height="6.51138" transform="rotate(-90 490.234 1002.66)" fill="#4B4848"/>
<rect x="661.393" y="902.508" width="64.8038" height="178.872" fill="#FAFAFA"/>
<rect x="673.176" y="922.021" width="47.13" height="6.50443" fill="#4B4848"/>
<rect x="673.176" y="935.029" width="47.13" height="6.50443" fill="#4B4848"/>
<rect x="673.176" y="1065.12" width="47.13" height="6.50443" fill="#4B4848"/>
<rect x="714.414" y="1052.11" width="52.0354" height="5.89125" transform="rotate(-90 714.414 1052.11)" fill="#4B4848"/>
<rect x="673.176" y="1052.11" width="52.0354" height="5.89125" transform="rotate(-90 673.176 1052.11)" fill="#4B4848"/>
<rect x="784.176" y="858.637" width="64.8038" height="178.872" fill="#FAFAFA"/>
<rect x="795.959" y="878.15" width="47.13" height="6.50443" fill="#4B4848"/>
<rect x="795.959" y="891.158" width="47.13" height="6.50443" fill="#4B4848"/>
<rect x="795.959" y="1021.25" width="47.13" height="6.50443" fill="#4B4848"/>
<rect x="837.197" y="1008.24" width="52.0354" height="5.89125" transform="rotate(-90 837.197 1008.24)" fill="#4B4848"/>
<rect x="795.959" y="1008.24" width="52.0354" height="5.89125" transform="rotate(-90 795.959 1008.24)" fill="#4B4848"/>
<path d="M976.902 1121.11H1266.81V1126.17H981.965C979.169 1126.17 976.902 1123.9 976.902 1121.11V1121.11Z" fill="#F5E22F"/>
<path d="M976.902 1094.11C976.902 1091.31 979.169 1089.04 981.965 1089.04H1266.81V1094.11H976.902V1094.11Z" fill="#F5E22F"/>
<path d="M976.902 1092.42H1266.81V1122.79H976.902V1092.42Z" fill="#FBF8F8"/>
<path d="M982.321 1126.17C979.328 1126.17 976.902 1123.74 976.902 1120.75V1094.46C976.902 1091.47 979.328 1089.05 982.321 1089.05V1089.05V1126.17V1126.17Z" fill="#F5E22F"/>
<line x1="987.738" y1="1095.7" x2="1264.1" y2="1095.7" stroke="#DDDDDD" stroke-width="0.2"/>
<line x1="987.738" y1="1099.07" x2="1264.1" y2="1099.07" stroke="#DDDDDD" stroke-width="0.2"/>
<line x1="987.738" y1="1102.45" x2="1264.1" y2="1102.45" stroke="#DDDDDD" stroke-width="0.2"/>
<line x1="987.738" y1="1105.82" x2="1264.1" y2="1105.82" stroke="#DDDDDD" stroke-width="0.2"/>
<line x1="987.738" y1="1109.2" x2="1264.1" y2="1109.2" stroke="#DDDDDD" stroke-width="0.2"/>
<line x1="987.738" y1="1112.57" x2="1264.1" y2="1112.57" stroke="#DDDDDD" stroke-width="0.2"/>
<line x1="987.738" y1="1115.95" x2="1264.1" y2="1115.95" stroke="#DDDDDD" stroke-width="0.2"/>
<line x1="987.738" y1="1119.32" x2="1264.1" y2="1119.32" stroke="#DDDDDD" stroke-width="0.2"/>
<path d="M976.902 1152.4H1317.97V1156.54H981.044C978.757 1156.54 976.902 1154.68 976.902 1152.4V1152.4Z" fill="#ED1C24"/>
<path d="M976.902 1130.31C976.902 1128.02 978.757 1126.17 981.044 1126.17H1317.97V1130.31H976.902V1130.31Z" fill="#ED1C24"/>
<path d="M976.902 1128.93H1317.97V1153.78H976.902V1128.93Z" fill="#FBF8F8"/>
<path d="M983.278 1156.54C979.757 1156.54 976.902 1153.69 976.902 1150.17V1132.54C976.902 1129.02 979.757 1126.17 983.278 1126.17V1126.17V1156.54V1156.54Z" fill="#ED1C24"/>
<line x1="989.656" y1="1131.6" x2="1314.79" y2="1131.6" stroke="#DDDDDD" stroke-width="0.2"/>
<line x1="989.656" y1="1134.35" x2="1314.79" y2="1134.35" stroke="#DDDDDD" stroke-width="0.2"/>
<line x1="989.656" y1="1137.11" x2="1314.79" y2="1137.11" stroke="#DDDDDD" stroke-width="0.2"/>
<line x1="989.656" y1="1139.88" x2="1314.79" y2="1139.88" stroke="#DDDDDD" stroke-width="0.2"/>
<line x1="989.656" y1="1142.63" x2="1314.79" y2="1142.63" stroke="#DDDDDD" stroke-width="0.2"/>
<line x1="989.656" y1="1145.4" x2="1314.79" y2="1145.4" stroke="#DDDDDD" stroke-width="0.2"/>
<line x1="989.656" y1="1148.16" x2="1314.79" y2="1148.16" stroke="#DDDDDD" stroke-width="0.2"/>
<line x1="989.656" y1="1150.92" x2="1314.79" y2="1150.92" stroke="#DDDDDD" stroke-width="0.2"/>
<path d="M976.902 1085.37H1249.76V1089.05H980.584C978.551 1089.05 976.902 1087.4 976.902 1085.37V1085.37Z" fill="#53CB29"/>
<path d="M976.902 1065.73C976.902 1063.7 978.551 1062.05 980.584 1062.05H1249.76V1065.73H976.902V1065.73Z" fill="#53CB29"/>
<path d="M976.902 1064.5H1249.76V1086.59H976.902V1064.5Z" fill="#FBF8F8"/>
<path d="M982.002 1089.05C979.186 1089.05 976.902 1086.77 976.902 1083.95V1067.15C976.902 1064.33 979.186 1062.05 982.002 1062.05V1062.05V1089.05V1089.05Z" fill="#53CB29"/>
<line x1="987.102" y1="1066.86" x2="1247.21" y2="1066.86" stroke="#DDDDDD" stroke-width="0.2"/>
<line x1="987.102" y1="1069.31" x2="1247.21" y2="1069.31" stroke="#DDDDDD" stroke-width="0.2"/>
<line x1="987.102" y1="1071.77" x2="1247.21" y2="1071.77" stroke="#DDDDDD" stroke-width="0.2"/>
<line x1="987.102" y1="1074.22" x2="1247.21" y2="1074.22" stroke="#DDDDDD" stroke-width="0.2"/>
<line x1="987.102" y1="1076.67" x2="1247.21" y2="1076.67" stroke="#DDDDDD" stroke-width="0.2"/>
<line x1="987.102" y1="1079.13" x2="1247.21" y2="1079.13" stroke="#DDDDDD" stroke-width="0.2"/>
<line x1="987.102" y1="1081.58" x2="1247.21" y2="1081.58" stroke="#DDDDDD" stroke-width="0.2"/>
<line x1="987.102" y1="1084.04" x2="1247.21" y2="1084.04" stroke="#DDDDDD" stroke-width="0.2"/>
<path d="M1749.01 1763.85L1987.08 1739.9L1987.08 1748.4L1749.01 1773.13L1749.01 1763.85Z" fill="#2DF0C4"/>
<path d="M1747.68 1517.09L2009.51 1507.87L2004.8 1747L1754.76 1775.45L1747.68 1517.09Z" fill="#8D2EF4"/>
<path d="M1680.85 1476.34L1749.25 1517.86L1754.76 1775.45L1684.78 1707.02L1680.85 1476.34Z" fill="#8D2EF4"/>
<path d="M1756.33 1516.33L1777.56 1515.56L1774.41 1773.15L1755.54 1775.45L1756.33 1516.33Z" fill="#2DF0C4"/>
<path d="M1993.79 1507.87H2009.51L2004.8 1747L1990.64 1748.54L1993.79 1507.87Z" fill="#2DF0C4"/>
<path d="M1680.85 1476.12L1691.07 1479.96V1712.95L1684.78 1707.79L1680.85 1476.12Z" fill="#2DF0C4"/>
<path d="M1687.92 1479.19L1757.12 1514.56L1756.33 1524.78L1687.14 1487.1L1687.92 1479.19Z" fill="#2DF0C4"/>
<path d="M1688.71 1704.71L1755.54 1766.23V1776.22L1688.71 1711.63V1704.71Z" fill="#2DF0C4"/>
<path d="M1777.56 1515.55L1994.57 1507.87V1519.18L1777.56 1531.48V1515.55Z" fill="#2DF0C4"/>
<path d="M1903.37 1467.11L1952.12 1484.8L2009.51 1508.41L1767.34 1521.49L1680.85 1476.12L1903.37 1467.11Z" fill="#8D2EF4"/>
<g filter="url(#filter0_d_1294_12)">
<path d="M1936.39 473.013C1936.39 654.77 1660.4 678.749 1418.22 626.462C1002.28 779.692 720 695.955 720 514.198C748.306 144.345 830.08 -2.17976 1279.84 63.1782C1623.45 -166.73 1936.39 291.256 1936.39 473.013Z" fill="#FAFAFA"/>
</g>
<path d="M827.647 359.797L823.847 415.297C823.781 416.297 823.414 416.797 822.747 416.797H817.247C813.514 416.797 810.847 416.064 809.247 414.597C807.647 413.13 806.847 411.03 806.847 408.297C806.847 407.297 806.881 405.797 806.947 403.797C807.081 401.797 807.247 399.464 807.447 396.797C807.647 394.064 807.847 391.13 808.047 387.997C808.314 384.797 808.581 381.597 808.847 378.397C809.114 375.13 809.347 371.897 809.547 368.697C809.814 365.497 810.047 362.53 810.247 359.797H794.247C793.514 359.797 793.147 359.33 793.147 358.397L793.447 352.797C793.514 351.93 793.647 351.097 793.847 350.297C794.114 349.43 794.514 348.664 795.047 347.997C795.581 347.33 796.247 346.797 797.047 346.397C797.914 345.997 798.947 345.797 800.147 345.797H844.847C845.247 345.797 845.614 345.897 845.947 346.097C846.281 346.297 846.447 346.664 846.447 347.197L846.047 353.097C845.914 355.097 845.347 356.73 844.347 357.997C843.414 359.197 841.447 359.797 838.447 359.797H827.647ZM858.942 416.797C856.875 416.797 855.175 416.597 853.842 416.197C852.575 415.73 851.542 415.097 850.742 414.297C850.008 413.497 849.475 412.53 849.142 411.397C848.875 410.197 848.742 408.83 848.742 407.297C848.742 406.297 848.775 404.897 848.842 403.097C848.975 401.23 849.175 398.697 849.442 395.497C849.708 392.23 850.008 388.13 850.342 383.197C850.742 378.197 851.208 372.03 851.742 364.697C851.808 363.23 851.975 362.364 852.242 362.097C852.442 361.897 852.975 361.797 853.842 361.797H857.742C859.808 361.797 861.475 361.997 862.742 362.397C864.075 362.797 865.108 363.397 865.842 364.197C866.642 364.997 867.175 365.964 867.442 367.097C867.775 368.23 867.942 369.497 867.942 370.897C867.942 371.897 867.875 373.397 867.742 375.397C867.608 377.397 867.408 380.13 867.142 383.597C866.942 386.997 866.642 391.264 866.242 396.397C865.842 401.464 865.342 407.597 864.742 414.797C864.675 415.597 864.508 416.13 864.242 416.397C863.975 416.664 863.408 416.797 862.542 416.797H858.942ZM851.842 349.997C851.842 347.33 852.808 345.23 854.742 343.697C856.675 342.164 859.275 341.397 862.542 341.397C865.408 341.397 867.475 341.997 868.742 343.197C870.075 344.33 870.742 345.864 870.742 347.797C870.742 350.264 869.808 352.33 867.942 353.997C866.142 355.597 863.475 356.397 859.942 356.397C854.542 356.397 851.842 354.264 851.842 349.997ZM895.067 417.797C892.467 417.797 889.967 417.33 887.567 416.397C885.233 415.464 883.167 413.997 881.367 411.997C879.633 409.997 878.233 407.464 877.167 404.397C876.167 401.33 875.667 397.63 875.667 393.297C875.667 391.364 875.8 389.23 876.067 386.897C876.333 384.497 876.8 382.097 877.467 379.697C878.133 377.297 879.067 374.964 880.267 372.697C881.467 370.43 882.967 368.43 884.767 366.697C886.633 364.897 888.833 363.464 891.367 362.397C893.967 361.33 897 360.797 900.467 360.797C903.8 360.797 906.467 361.397 908.467 362.597C910.533 363.73 911.833 365.73 912.367 368.597C912.5 365.997 912.633 363.73 912.767 361.797C912.9 359.864 913 358.064 913.067 356.397C913.2 354.73 913.333 353.064 913.467 351.397C913.6 349.73 913.733 347.83 913.867 345.697C913.933 344.23 914.1 343.364 914.367 343.097C914.5 342.964 914.667 342.897 914.867 342.897C915.067 342.83 915.433 342.797 915.967 342.797H919.867C921.867 342.797 923.533 343.03 924.867 343.497C926.2 343.964 927.267 344.597 928.067 345.397C928.867 346.197 929.433 347.13 929.767 348.197C930.1 349.197 930.267 350.264 930.267 351.397C930.267 351.397 930.2 352.23 930.067 353.897C929.933 355.564 929.767 357.797 929.567 360.597C929.367 363.33 929.133 366.464 928.867 369.997C928.6 373.53 928.333 377.197 928.067 380.997C927.8 384.73 927.533 388.464 927.267 392.197C927 395.864 926.733 399.264 926.467 402.397C926.2 405.464 925.967 408.13 925.767 410.397C925.633 412.597 925.533 414.064 925.467 414.797C925.333 415.597 925.167 416.13 924.967 416.397C924.767 416.664 924.2 416.797 923.267 416.797H919.667C918.267 416.797 916.933 416.697 915.667 416.497C914.467 416.23 913.4 415.83 912.467 415.297C911.6 414.697 910.9 413.93 910.367 412.997C909.9 411.997 909.667 410.73 909.667 409.197C908.467 411.73 906.633 413.797 904.167 415.397C901.767 416.997 898.733 417.797 895.067 417.797ZM903.767 374.097C900.367 374.097 897.833 375.597 896.167 378.597C894.567 381.53 893.767 385.497 893.767 390.497C893.767 392.23 893.867 393.93 894.067 395.597C894.333 397.264 894.767 398.764 895.367 400.097C895.967 401.43 896.767 402.497 897.767 403.297C898.833 404.097 900.167 404.497 901.767 404.497C904.633 404.497 907.033 403.097 908.967 400.297C910.9 397.497 911.867 393.097 911.867 387.097C911.867 385.43 911.767 383.83 911.567 382.297C911.367 380.697 910.967 379.297 910.367 378.097C909.767 376.897 908.933 375.93 907.867 375.197C906.8 374.464 905.433 374.097 903.767 374.097ZM934.607 404.497C934.607 398.497 937.307 393.797 942.707 390.397C948.107 386.997 956.073 385.164 966.607 384.897C966.673 384.164 966.707 383.564 966.707 383.097C966.773 382.564 966.807 381.93 966.807 381.197C966.807 379.064 966.407 377.364 965.607 376.097C964.807 374.83 963.14 374.197 960.607 374.197C959.207 374.197 958.073 374.397 957.207 374.797C956.34 375.197 955.64 375.764 955.107 376.497C954.573 377.164 954.14 377.997 953.807 378.997C953.473 379.997 953.173 381.097 952.907 382.297C952.773 382.897 952.473 383.297 952.007 383.497C951.54 383.63 950.807 383.697 949.807 383.697C943.007 383.697 939.607 381.13 939.607 375.997C939.607 373.93 940.073 371.964 941.007 370.097C942.007 368.23 943.44 366.63 945.307 365.297C947.24 363.897 949.64 362.797 952.507 361.997C955.373 361.197 958.707 360.797 962.507 360.797C969.907 360.797 975.273 362.33 978.607 365.397C981.94 368.464 983.607 372.797 983.607 378.397C983.607 379.13 983.507 380.464 983.307 382.397C983.173 384.264 982.973 386.264 982.707 388.397C982.507 390.464 982.307 392.43 982.107 394.297C981.973 396.164 981.907 397.464 981.907 398.197C981.907 399.864 982.207 401.064 982.807 401.797C983.407 402.464 984.073 402.93 984.807 403.197C985.607 403.464 986.307 403.664 986.907 403.797C987.507 403.93 987.807 404.264 987.807 404.797C987.807 406.264 987.607 407.764 987.207 409.297C986.807 410.83 986.14 412.23 985.207 413.497C984.34 414.764 983.107 415.797 981.507 416.597C979.973 417.397 978.073 417.797 975.807 417.797C972.607 417.797 970.207 417.03 968.607 415.497C967.007 413.964 965.94 411.83 965.407 409.097C963.807 411.43 961.707 413.464 959.107 415.197C956.573 416.93 953.24 417.797 949.107 417.797C947.107 417.797 945.207 417.564 943.407 417.097C941.673 416.63 940.14 415.864 938.807 414.797C937.54 413.73 936.507 412.364 935.707 410.697C934.973 408.964 934.607 406.897 934.607 404.497ZM965.707 393.097C963.973 393.097 962.273 393.23 960.607 393.497C958.94 393.764 957.44 394.197 956.107 394.797C954.84 395.33 953.807 396.064 953.007 396.997C952.207 397.93 951.807 399.064 951.807 400.397C951.807 401.93 952.273 402.997 953.207 403.597C954.207 404.197 955.273 404.497 956.407 404.497C957.473 404.497 958.54 404.264 959.607 403.797C960.673 403.33 961.607 402.63 962.407 401.697C963.273 400.697 964.007 399.497 964.607 398.097C965.207 396.697 965.573 395.03 965.707 393.097ZM1041.45 408.697C1041.45 409.03 1041.29 409.697 1040.95 410.697C1040.62 411.697 1040.09 412.73 1039.35 413.797C1038.62 414.864 1037.69 415.797 1036.55 416.597C1035.49 417.397 1034.19 417.797 1032.65 417.797C1030.85 417.797 1029.05 417.197 1027.25 415.997C1025.52 414.797 1023.79 413.164 1022.05 411.097C1020.32 409.03 1018.55 406.597 1016.75 403.797C1015.02 400.93 1013.25 397.83 1011.45 394.497C1011.19 398.03 1010.92 401.497 1010.65 404.897C1010.39 408.297 1010.12 411.597 1009.85 414.797C1009.79 415.597 1009.62 416.13 1009.35 416.397C1009.09 416.664 1008.52 416.797 1007.65 416.797H1004.05C1001.99 416.797 1000.29 416.597 998.954 416.197C997.621 415.73 996.588 415.097 995.854 414.297C995.121 413.497 994.588 412.497 994.254 411.297C993.988 410.03 993.854 408.597 993.854 406.997C993.854 406.197 993.888 405.364 993.954 404.497C994.021 403.63 994.121 402.397 994.254 400.797C994.388 399.197 994.554 397.097 994.754 394.497C995.021 391.897 995.321 388.464 995.654 384.197C995.988 379.93 996.354 374.697 996.754 368.497C997.221 362.23 997.721 354.63 998.254 345.697C998.321 344.23 998.488 343.364 998.754 343.097C998.954 342.897 999.488 342.797 1000.35 342.797H1004.25C1006.32 342.797 1008.02 343.03 1009.35 343.497C1010.69 343.964 1011.75 344.597 1012.55 345.397C1013.35 346.197 1013.89 347.13 1014.15 348.197C1014.49 349.264 1014.65 350.364 1014.65 351.497C1014.65 352.164 1014.59 353.297 1014.45 354.897C1014.39 356.43 1014.29 358.33 1014.15 360.597C1014.02 362.797 1013.82 365.297 1013.55 368.097C1013.35 370.897 1013.15 373.83 1012.95 376.897L1028.95 362.297C1029.55 361.764 1030.09 361.397 1030.55 361.197C1031.09 360.997 1031.49 360.897 1031.75 360.897C1032.49 360.897 1033.29 361.364 1034.15 362.297C1035.02 363.23 1035.82 364.33 1036.55 365.597C1037.35 366.797 1037.99 368.064 1038.45 369.397C1038.99 370.664 1039.25 371.697 1039.25 372.497C1039.25 374.43 1037.69 376.464 1034.55 378.597C1031.49 380.73 1026.82 383.13 1020.55 385.797C1023.35 388.93 1026.02 391.797 1028.55 394.397C1031.09 396.997 1033.29 399.297 1035.15 401.297C1037.09 403.297 1038.62 404.93 1039.75 406.197C1040.89 407.464 1041.45 408.297 1041.45 408.697ZM1066.34 404.497C1066.34 398.497 1069.04 393.797 1074.44 390.397C1079.84 386.997 1087.81 385.164 1098.34 384.897C1098.41 384.164 1098.44 383.564 1098.44 383.097C1098.51 382.564 1098.54 381.93 1098.54 381.197C1098.54 379.064 1098.14 377.364 1097.34 376.097C1096.54 374.83 1094.88 374.197 1092.34 374.197C1090.94 374.197 1089.81 374.397 1088.94 374.797C1088.08 375.197 1087.38 375.764 1086.84 376.497C1086.31 377.164 1085.88 377.997 1085.54 378.997C1085.21 379.997 1084.91 381.097 1084.64 382.297C1084.51 382.897 1084.21 383.297 1083.74 383.497C1083.28 383.63 1082.54 383.697 1081.54 383.697C1074.74 383.697 1071.34 381.13 1071.34 375.997C1071.34 373.93 1071.81 371.964 1072.74 370.097C1073.74 368.23 1075.18 366.63 1077.04 365.297C1078.98 363.897 1081.38 362.797 1084.24 361.997C1087.11 361.197 1090.44 360.797 1094.24 360.797C1101.64 360.797 1107.01 362.33 1110.34 365.397C1113.68 368.464 1115.34 372.797 1115.34 378.397C1115.34 379.13 1115.24 380.464 1115.04 382.397C1114.91 384.264 1114.71 386.264 1114.44 388.397C1114.24 390.464 1114.04 392.43 1113.84 394.297C1113.71 396.164 1113.64 397.464 1113.64 398.197C1113.64 399.864 1113.94 401.064 1114.54 401.797C1115.14 402.464 1115.81 402.93 1116.54 403.197C1117.34 403.464 1118.04 403.664 1118.64 403.797C1119.24 403.93 1119.54 404.264 1119.54 404.797C1119.54 406.264 1119.34 407.764 1118.94 409.297C1118.54 410.83 1117.88 412.23 1116.94 413.497C1116.08 414.764 1114.84 415.797 1113.24 416.597C1111.71 417.397 1109.81 417.797 1107.54 417.797C1104.34 417.797 1101.94 417.03 1100.34 415.497C1098.74 413.964 1097.68 411.83 1097.14 409.097C1095.54 411.43 1093.44 413.464 1090.84 415.197C1088.31 416.93 1084.98 417.797 1080.84 417.797C1078.84 417.797 1076.94 417.564 1075.14 417.097C1073.41 416.63 1071.88 415.864 1070.54 414.797C1069.28 413.73 1068.24 412.364 1067.44 410.697C1066.71 408.964 1066.34 406.897 1066.34 404.497ZM1097.44 393.097C1095.71 393.097 1094.01 393.23 1092.34 393.497C1090.68 393.764 1089.18 394.197 1087.84 394.797C1086.58 395.33 1085.54 396.064 1084.74 396.997C1083.94 397.93 1083.54 399.064 1083.54 400.397C1083.54 401.93 1084.01 402.997 1084.94 403.597C1085.94 404.197 1087.01 404.497 1088.14 404.497C1089.21 404.497 1090.28 404.264 1091.34 403.797C1092.41 403.33 1093.34 402.63 1094.14 401.697C1095.01 400.697 1095.74 399.497 1096.34 398.097C1096.94 396.697 1097.31 395.03 1097.44 393.097ZM1143.99 417.797C1141.39 417.797 1138.89 417.33 1136.49 416.397C1134.16 415.464 1132.09 413.997 1130.29 411.997C1128.56 409.997 1127.16 407.464 1126.09 404.397C1125.09 401.33 1124.59 397.63 1124.59 393.297C1124.59 391.364 1124.73 389.23 1124.99 386.897C1125.26 384.497 1125.73 382.097 1126.39 379.697C1127.06 377.297 1127.99 374.964 1129.19 372.697C1130.39 370.43 1131.89 368.43 1133.69 366.697C1135.56 364.897 1137.76 363.464 1140.29 362.397C1142.89 361.33 1145.93 360.797 1149.39 360.797C1152.73 360.797 1155.39 361.397 1157.39 362.597C1159.46 363.73 1160.76 365.73 1161.29 368.597C1161.43 365.997 1161.56 363.73 1161.69 361.797C1161.83 359.864 1161.93 358.064 1161.99 356.397C1162.13 354.73 1162.26 353.064 1162.39 351.397C1162.53 349.73 1162.66 347.83 1162.79 345.697C1162.86 344.23 1163.03 343.364 1163.29 343.097C1163.43 342.964 1163.59 342.897 1163.79 342.897C1163.99 342.83 1164.36 342.797 1164.89 342.797H1168.79C1170.79 342.797 1172.46 343.03 1173.79 343.497C1175.13 343.964 1176.19 344.597 1176.99 345.397C1177.79 346.197 1178.36 347.13 1178.69 348.197C1179.03 349.197 1179.19 350.264 1179.19 351.397C1179.19 351.397 1179.13 352.23 1178.99 353.897C1178.86 355.564 1178.69 357.797 1178.49 360.597C1178.29 363.33 1178.06 366.464 1177.79 369.997C1177.53 373.53 1177.26 377.197 1176.99 380.997C1176.73 384.73 1176.46 388.464 1176.19 392.197C1175.93 395.864 1175.66 399.264 1175.39 402.397C1175.13 405.464 1174.89 408.13 1174.69 410.397C1174.56 412.597 1174.46 414.064 1174.39 414.797C1174.26 415.597 1174.09 416.13 1173.89 416.397C1173.69 416.664 1173.13 416.797 1172.19 416.797H1168.59C1167.19 416.797 1165.86 416.697 1164.59 416.497C1163.39 416.23 1162.33 415.83 1161.39 415.297C1160.53 414.697 1159.83 413.93 1159.29 412.997C1158.83 411.997 1158.59 410.73 1158.59 409.197C1157.39 411.73 1155.56 413.797 1153.09 415.397C1150.69 416.997 1147.66 417.797 1143.99 417.797ZM1152.69 374.097C1149.29 374.097 1146.76 375.597 1145.09 378.597C1143.49 381.53 1142.69 385.497 1142.69 390.497C1142.69 392.23 1142.79 393.93 1142.99 395.597C1143.26 397.264 1143.69 398.764 1144.29 400.097C1144.89 401.43 1145.69 402.497 1146.69 403.297C1147.76 404.097 1149.09 404.497 1150.69 404.497C1153.56 404.497 1155.96 403.097 1157.89 400.297C1159.83 397.497 1160.79 393.097 1160.79 387.097C1160.79 385.43 1160.69 383.83 1160.49 382.297C1160.29 380.697 1159.89 379.297 1159.29 378.097C1158.69 376.897 1157.86 375.93 1156.79 375.197C1155.73 374.464 1154.36 374.097 1152.69 374.097ZM1183.53 404.497C1183.53 398.497 1186.23 393.797 1191.63 390.397C1197.03 386.997 1205 385.164 1215.53 384.897C1215.6 384.164 1215.63 383.564 1215.63 383.097C1215.7 382.564 1215.73 381.93 1215.73 381.197C1215.73 379.064 1215.33 377.364 1214.53 376.097C1213.73 374.83 1212.07 374.197 1209.53 374.197C1208.13 374.197 1207 374.397 1206.13 374.797C1205.27 375.197 1204.57 375.764 1204.03 376.497C1203.5 377.164 1203.07 377.997 1202.73 378.997C1202.4 379.997 1202.1 381.097 1201.83 382.297C1201.7 382.897 1201.4 383.297 1200.93 383.497C1200.47 383.63 1199.73 383.697 1198.73 383.697C1191.93 383.697 1188.53 381.13 1188.53 375.997C1188.53 373.93 1189 371.964 1189.93 370.097C1190.93 368.23 1192.37 366.63 1194.23 365.297C1196.17 363.897 1198.57 362.797 1201.43 361.997C1204.3 361.197 1207.63 360.797 1211.43 360.797C1218.83 360.797 1224.2 362.33 1227.53 365.397C1230.87 368.464 1232.53 372.797 1232.53 378.397C1232.53 379.13 1232.43 380.464 1232.23 382.397C1232.1 384.264 1231.9 386.264 1231.63 388.397C1231.43 390.464 1231.23 392.43 1231.03 394.297C1230.9 396.164 1230.83 397.464 1230.83 398.197C1230.83 399.864 1231.13 401.064 1231.73 401.797C1232.33 402.464 1233 402.93 1233.73 403.197C1234.53 403.464 1235.23 403.664 1235.83 403.797C1236.43 403.93 1236.73 404.264 1236.73 404.797C1236.73 406.264 1236.53 407.764 1236.13 409.297C1235.73 410.83 1235.07 412.23 1234.13 413.497C1233.27 414.764 1232.03 415.797 1230.43 416.597C1228.9 417.397 1227 417.797 1224.73 417.797C1221.53 417.797 1219.13 417.03 1217.53 415.497C1215.93 413.964 1214.87 411.83 1214.33 409.097C1212.73 411.43 1210.63 413.464 1208.03 415.197C1205.5 416.93 1202.17 417.797 1198.03 417.797C1196.03 417.797 1194.13 417.564 1192.33 417.097C1190.6 416.63 1189.07 415.864 1187.73 414.797C1186.47 413.73 1185.43 412.364 1184.63 410.697C1183.9 408.964 1183.53 406.897 1183.53 404.497ZM1214.63 393.097C1212.9 393.097 1211.2 393.23 1209.53 393.497C1207.87 393.764 1206.37 394.197 1205.03 394.797C1203.77 395.33 1202.73 396.064 1201.93 396.997C1201.13 397.93 1200.73 399.064 1200.73 400.397C1200.73 401.93 1201.2 402.997 1202.13 403.597C1203.13 404.197 1204.2 404.497 1205.33 404.497C1206.4 404.497 1207.47 404.264 1208.53 403.797C1209.6 403.33 1210.53 402.63 1211.33 401.697C1212.2 400.697 1212.93 399.497 1213.53 398.097C1214.13 396.697 1214.5 395.03 1214.63 393.097ZM1291.2 344.797C1297.47 344.797 1302.1 346.164 1305.1 348.897C1308.17 351.63 1309.7 355.197 1309.7 359.597C1309.7 363.33 1308.67 366.197 1306.6 368.197C1304.54 370.13 1301.57 371.097 1297.7 371.097C1296.5 371.097 1295.74 370.997 1295.4 370.797C1295.07 370.53 1294.9 370.03 1294.9 369.297C1294.9 368.63 1294.84 367.764 1294.7 366.697C1294.64 365.63 1294.4 364.597 1294 363.597C1293.6 362.597 1292.97 361.764 1292.1 361.097C1291.24 360.364 1290.04 359.997 1288.5 359.997C1286.37 359.997 1284.47 360.664 1282.8 361.997C1281.14 363.264 1280.3 364.93 1280.3 366.997C1280.3 368.797 1280.97 370.264 1282.3 371.397C1283.7 372.53 1285.44 373.597 1287.5 374.597C1289.57 375.53 1291.8 376.497 1294.2 377.497C1296.67 378.497 1298.94 379.83 1301 381.497C1303.07 383.097 1304.77 385.13 1306.1 387.597C1307.5 389.997 1308.2 393.064 1308.2 396.797C1308.2 399.73 1307.7 402.497 1306.7 405.097C1305.77 407.63 1304.34 409.864 1302.4 411.797C1300.54 413.664 1298.14 415.13 1295.2 416.197C1292.34 417.264 1288.97 417.797 1285.1 417.797C1281.77 417.797 1278.67 417.43 1275.8 416.697C1273 415.964 1270.54 415.064 1268.4 413.997C1266.34 412.864 1264.7 411.664 1263.5 410.397C1262.3 409.064 1261.7 407.864 1261.7 406.797C1261.7 402.397 1261.94 399.23 1262.4 397.297C1262.94 395.364 1263.87 394.397 1265.2 394.397C1266.14 394.397 1267.1 394.797 1268.1 395.597C1269.17 396.397 1270.37 397.297 1271.7 398.297C1273.04 399.297 1274.57 400.197 1276.3 400.997C1278.1 401.797 1280.17 402.197 1282.5 402.197C1283.44 402.197 1284.34 402.13 1285.2 401.997C1286.14 401.797 1286.94 401.497 1287.6 401.097C1288.34 400.697 1288.9 400.164 1289.3 399.497C1289.77 398.83 1290 398.03 1290 397.097C1290 395.43 1289.37 394.097 1288.1 393.097C1286.84 392.097 1285.24 391.197 1283.3 390.397C1281.37 389.53 1279.27 388.664 1277 387.797C1274.8 386.864 1272.74 385.63 1270.8 384.097C1268.87 382.497 1267.27 380.464 1266 377.997C1264.74 375.53 1264.1 372.364 1264.1 368.497C1264.1 364.164 1264.9 360.497 1266.5 357.497C1268.17 354.497 1270.27 352.064 1272.8 350.197C1275.4 348.264 1278.3 346.897 1281.5 346.097C1284.77 345.23 1288 344.797 1291.2 344.797ZM1335.91 370.297C1335.91 371.697 1335.77 373.664 1335.51 376.197C1335.31 378.73 1335.07 381.364 1334.81 384.097C1334.61 386.83 1334.37 389.397 1334.11 391.797C1333.91 394.197 1333.81 395.93 1333.81 396.997C1333.81 399.33 1334.37 401.164 1335.51 402.497C1336.71 403.764 1338.34 404.397 1340.41 404.397C1342.21 404.397 1343.71 403.697 1344.91 402.297C1346.17 400.83 1347.17 398.964 1347.91 396.697C1348.71 394.364 1349.34 391.73 1349.81 388.797C1350.27 385.864 1350.61 382.897 1350.81 379.897C1351.07 376.897 1351.27 373.997 1351.41 371.197C1351.61 368.33 1351.81 365.864 1352.01 363.797C1352.07 363.264 1352.27 362.797 1352.61 362.397C1352.94 361.997 1353.47 361.797 1354.21 361.797H1357.81C1359.87 361.797 1361.54 362.03 1362.81 362.497C1364.14 362.897 1365.17 363.497 1365.91 364.297C1366.71 365.097 1367.24 366.097 1367.51 367.297C1367.84 368.43 1368.01 369.764 1368.01 371.297C1368.01 372.297 1367.94 373.73 1367.81 375.597C1367.74 377.397 1367.57 379.93 1367.31 383.197C1367.04 386.397 1366.71 390.497 1366.31 395.497C1365.97 400.43 1365.54 406.564 1365.01 413.897C1364.87 415.297 1364.71 416.13 1364.51 416.397C1364.37 416.664 1363.84 416.797 1362.91 416.797H1359.01C1357.01 416.797 1355.34 416.564 1354.01 416.097C1352.74 415.63 1351.71 415.03 1350.91 414.297C1350.11 413.564 1349.54 412.697 1349.21 411.697C1348.87 410.697 1348.67 409.664 1348.61 408.597C1347.61 410.33 1346.47 411.797 1345.21 412.997C1344.01 414.197 1342.74 415.164 1341.41 415.897C1340.07 416.564 1338.71 417.03 1337.31 417.297C1335.91 417.63 1334.54 417.797 1333.21 417.797C1330.67 417.797 1328.41 417.397 1326.41 416.597C1324.41 415.73 1322.71 414.597 1321.31 413.197C1319.97 411.797 1318.94 410.13 1318.21 408.197C1317.47 406.264 1317.11 404.197 1317.11 401.997C1317.11 401.13 1317.14 399.73 1317.21 397.797C1317.34 395.797 1317.47 393.564 1317.61 391.097C1317.81 388.63 1318.01 386.03 1318.21 383.297C1318.41 380.497 1318.57 377.864 1318.71 375.397C1318.91 372.93 1319.07 370.764 1319.21 368.897C1319.41 367.03 1319.54 365.697 1319.61 364.897C1319.74 363.697 1320.01 362.897 1320.41 362.497C1320.81 362.03 1321.47 361.797 1322.41 361.797H1325.61C1327.67 361.797 1329.37 361.997 1330.71 362.397C1332.04 362.797 1333.07 363.364 1333.81 364.097C1334.61 364.83 1335.14 365.73 1335.41 366.797C1335.74 367.797 1335.91 368.964 1335.91 370.297ZM1394.07 398.797C1393.87 401.864 1393.63 404.797 1393.37 407.597C1393.1 410.33 1392.9 412.73 1392.77 414.797C1392.7 415.597 1392.53 416.13 1392.27 416.397C1392 416.664 1391.43 416.797 1390.57 416.797H1386.97C1384.9 416.797 1383.2 416.597 1381.87 416.197C1380.6 415.73 1379.57 415.097 1378.77 414.297C1378.03 413.497 1377.5 412.53 1377.17 411.397C1376.9 410.197 1376.77 408.83 1376.77 407.297C1376.77 406.297 1376.8 404.897 1376.87 403.097C1377 401.23 1377.2 398.697 1377.47 395.497C1377.73 392.23 1378.03 388.13 1378.37 383.197C1378.77 378.197 1379.23 372.03 1379.77 364.697C1379.83 363.23 1380 362.364 1380.27 362.097C1380.47 361.897 1381 361.797 1381.87 361.797H1385.77C1387.77 361.797 1389.4 362.03 1390.67 362.497C1391.93 362.964 1392.97 363.564 1393.77 364.297C1394.57 365.03 1395.13 365.897 1395.47 366.897C1395.8 367.897 1396 368.93 1396.07 369.997C1398 366.397 1400.2 363.964 1402.67 362.697C1405.13 361.43 1408.03 360.797 1411.37 360.797C1413.17 360.797 1414.9 360.964 1416.57 361.297C1418.23 361.63 1419.73 362.197 1421.07 362.997C1422.4 363.797 1423.53 364.864 1424.47 366.197C1425.4 367.464 1426.07 369.097 1426.47 371.097C1428.53 367.23 1430.8 364.564 1433.27 363.097C1435.73 361.564 1438.83 360.797 1442.57 360.797C1444.63 360.797 1446.6 361.03 1448.47 361.497C1450.4 361.897 1452.07 362.63 1453.47 363.697C1454.87 364.764 1455.97 366.23 1456.77 368.097C1457.63 369.897 1458.07 372.164 1458.07 374.897C1458.07 376.964 1457.97 379.497 1457.77 382.497C1457.57 385.497 1457.33 388.764 1457.07 392.297C1456.8 395.764 1456.5 399.364 1456.17 403.097C1455.83 406.764 1455.57 410.297 1455.37 413.697C1455.3 414.43 1455.23 414.997 1455.17 415.397C1455.1 415.797 1454.97 416.097 1454.77 416.297C1454.63 416.497 1454.4 416.63 1454.07 416.697C1453.73 416.764 1453.27 416.797 1452.67 416.797H1449.47C1447.33 416.797 1445.6 416.597 1444.27 416.197C1442.93 415.797 1441.9 415.23 1441.17 414.497C1440.43 413.764 1439.9 412.864 1439.57 411.797C1439.3 410.664 1439.17 409.397 1439.17 407.997C1439.17 407.13 1439.2 405.897 1439.27 404.297C1439.4 402.697 1439.53 400.964 1439.67 399.097C1439.87 397.23 1440.03 395.297 1440.17 393.297C1440.37 391.297 1440.53 389.464 1440.67 387.797C1440.87 386.064 1441 384.564 1441.07 383.297C1441.2 382.03 1441.27 381.197 1441.27 380.797C1441.27 379.064 1440.9 377.53 1440.17 376.197C1439.5 374.864 1438.17 374.197 1436.17 374.197C1434.43 374.197 1432.93 374.764 1431.67 375.897C1430.4 377.03 1429.33 378.597 1428.47 380.597C1427.6 382.597 1426.9 384.964 1426.37 387.697C1425.83 390.43 1425.47 393.397 1425.27 396.597C1425.13 398.664 1424.97 401.03 1424.77 403.697C1424.57 406.364 1424.33 409.697 1424.07 413.697C1424 414.43 1423.93 414.997 1423.87 415.397C1423.8 415.797 1423.67 416.097 1423.47 416.297C1423.33 416.497 1423.1 416.63 1422.77 416.697C1422.43 416.764 1421.97 416.797 1421.37 416.797H1418.17C1416.03 416.797 1414.3 416.597 1412.97 416.197C1411.63 415.797 1410.6 415.23 1409.87 414.497C1409.13 413.764 1408.6 412.864 1408.27 411.797C1408 410.664 1407.87 409.397 1407.87 407.997C1407.87 406.664 1407.97 404.73 1408.17 402.197C1408.43 399.597 1408.67 396.93 1408.87 394.197C1409.13 391.397 1409.37 388.764 1409.57 386.297C1409.83 383.764 1409.97 381.93 1409.97 380.797C1409.97 379.064 1409.6 377.53 1408.87 376.197C1408.2 374.864 1406.87 374.197 1404.87 374.197C1403.07 374.197 1401.53 374.864 1400.27 376.197C1399 377.53 1397.93 379.33 1397.07 381.597C1396.27 383.797 1395.6 386.397 1395.07 389.397C1394.6 392.397 1394.27 395.53 1394.07 398.797ZM1489.9 417.797C1484.77 417.797 1480.7 417.064 1477.7 415.597C1474.7 414.064 1472.43 412.164 1470.9 409.897C1469.37 407.63 1468.4 405.197 1468 402.597C1467.6 399.93 1467.4 397.497 1467.4 395.297C1467.4 394.43 1467.47 392.73 1467.6 390.197C1467.8 387.664 1468.03 384.73 1468.3 381.397C1468.57 378.064 1468.83 374.53 1469.1 370.797C1469.37 366.997 1469.63 363.43 1469.9 360.097C1470.17 356.697 1470.37 353.697 1470.5 351.097C1470.7 348.497 1470.8 346.697 1470.8 345.697C1470.8 344.23 1470.9 343.397 1471.1 343.197C1471.3 342.93 1471.9 342.797 1472.9 342.797H1476.8C1478.8 342.797 1480.47 343.03 1481.8 343.497C1483.13 343.964 1484.2 344.597 1485 345.397C1485.8 346.197 1486.37 347.13 1486.7 348.197C1487.03 349.197 1487.2 350.297 1487.2 351.497C1487.2 352.63 1487.07 354.83 1486.8 358.097C1486.6 361.364 1486.33 365.197 1486 369.597C1487.73 366.597 1489.7 364.397 1491.9 362.997C1494.1 361.53 1497 360.797 1500.6 360.797C1506.67 360.797 1511.3 362.797 1514.5 366.797C1517.77 370.797 1519.4 376.764 1519.4 384.697C1519.4 386.764 1519.23 389.03 1518.9 391.497C1518.63 393.964 1518.1 396.43 1517.3 398.897C1516.57 401.297 1515.5 403.664 1514.1 405.997C1512.77 408.264 1511 410.264 1508.8 411.997C1506.6 413.73 1503.93 415.13 1500.8 416.197C1497.73 417.264 1494.1 417.797 1489.9 417.797ZM1494.4 374.097C1492 374.097 1490.1 374.73 1488.7 375.997C1487.37 377.264 1486.33 378.797 1485.6 380.597C1484.87 382.397 1484.4 384.33 1484.2 386.397C1484 388.397 1483.9 390.164 1483.9 391.697C1483.9 396.297 1484.53 399.597 1485.8 401.597C1487.07 403.53 1488.97 404.497 1491.5 404.497C1493.9 404.497 1495.77 403.764 1497.1 402.297C1498.5 400.764 1499.53 398.964 1500.2 396.897C1500.93 394.83 1501.4 392.73 1501.6 390.597C1501.8 388.464 1501.9 386.797 1501.9 385.597C1501.9 381.864 1501.33 379.03 1500.2 377.097C1499.07 375.097 1497.13 374.097 1494.4 374.097ZM1550.06 417.797C1547.13 417.797 1544.2 417.43 1541.26 416.697C1538.4 415.964 1535.8 414.697 1533.46 412.897C1531.2 411.097 1529.33 408.697 1527.86 405.697C1526.4 402.697 1525.66 398.93 1525.66 394.397C1525.66 392.73 1525.8 390.73 1526.06 388.397C1526.33 386.064 1526.83 383.664 1527.56 381.197C1528.36 378.73 1529.43 376.297 1530.76 373.897C1532.16 371.43 1533.96 369.23 1536.16 367.297C1538.36 365.364 1541.03 363.797 1544.16 362.597C1547.3 361.397 1551.03 360.797 1555.36 360.797C1558.83 360.797 1561.76 361.197 1564.16 361.997C1566.56 362.797 1568.5 363.897 1569.96 365.297C1571.43 366.63 1572.5 368.197 1573.16 369.997C1573.83 371.797 1574.16 373.73 1574.16 375.797C1574.16 378.864 1573.53 381.464 1572.26 383.597C1571.06 385.73 1569.46 387.53 1567.46 388.997C1565.53 390.397 1563.36 391.497 1560.96 392.297C1558.56 393.097 1556.2 393.73 1553.86 394.197C1551.53 394.597 1549.36 394.864 1547.36 394.997C1545.43 395.064 1543.93 395.097 1542.86 395.097C1542.86 396.364 1543.03 397.63 1543.36 398.897C1543.76 400.097 1544.33 401.164 1545.06 402.097C1545.8 403.03 1546.76 403.797 1547.96 404.397C1549.16 404.997 1550.63 405.297 1552.36 405.297C1554.1 405.297 1555.43 405.03 1556.36 404.497C1557.36 403.897 1558.16 403.264 1558.76 402.597C1559.36 401.864 1559.86 401.23 1560.26 400.697C1560.73 400.097 1561.33 399.797 1562.06 399.797C1562.4 399.797 1562.96 399.897 1563.76 400.097C1564.63 400.23 1565.5 400.564 1566.36 401.097C1567.23 401.63 1568 402.364 1568.66 403.297C1569.33 404.23 1569.66 405.43 1569.66 406.897C1569.66 408.83 1569.06 410.497 1567.86 411.897C1566.66 413.297 1565.1 414.43 1563.16 415.297C1561.3 416.164 1559.2 416.797 1556.86 417.197C1554.53 417.597 1552.26 417.797 1550.06 417.797ZM1551.96 374.097C1550.5 374.097 1549.23 374.53 1548.16 375.397C1547.16 376.197 1546.3 377.23 1545.56 378.497C1544.9 379.764 1544.36 381.164 1543.96 382.697C1543.63 384.23 1543.36 385.697 1543.16 387.097C1547.3 387.03 1550.63 386.33 1553.16 384.997C1555.76 383.664 1557.06 381.764 1557.06 379.297C1557.06 377.964 1556.63 376.764 1555.76 375.697C1554.96 374.63 1553.7 374.097 1551.96 374.097ZM1612.48 385.697C1612.08 385.697 1611.62 385.697 1611.08 385.697C1610.62 385.63 1610.15 385.564 1609.68 385.497C1609.22 385.364 1608.82 385.23 1608.48 385.097C1608.15 384.897 1607.98 384.664 1607.98 384.397C1607.98 383.53 1608.02 382.73 1608.08 381.997C1608.15 381.264 1608.18 380.497 1608.18 379.697C1608.18 378.23 1607.98 377.03 1607.58 376.097C1607.18 375.164 1606.38 374.697 1605.18 374.697C1603.32 374.697 1601.75 375.93 1600.48 378.397C1599.28 380.797 1598.52 384.43 1598.18 389.297C1598.05 391.43 1597.85 393.864 1597.58 396.597C1597.38 399.264 1597.18 401.864 1596.98 404.397C1596.78 406.864 1596.62 409.064 1596.48 410.997C1596.35 412.93 1596.28 414.197 1596.28 414.797C1596.28 415.464 1596.05 415.964 1595.58 416.297C1595.12 416.63 1594.62 416.797 1594.08 416.797H1590.48C1588.42 416.797 1586.72 416.597 1585.38 416.197C1584.12 415.73 1583.08 415.097 1582.28 414.297C1581.55 413.497 1581.02 412.53 1580.68 411.397C1580.42 410.197 1580.28 408.83 1580.28 407.297C1580.28 406.297 1580.32 404.897 1580.38 403.097C1580.52 401.23 1580.72 398.697 1580.98 395.497C1581.25 392.23 1581.55 388.13 1581.88 383.197C1582.28 378.197 1582.75 372.03 1583.28 364.697C1583.42 362.764 1584.12 361.797 1585.38 361.797H1589.28C1591.15 361.797 1592.72 361.997 1593.98 362.397C1595.25 362.797 1596.28 363.364 1597.08 364.097C1597.88 364.764 1598.45 365.564 1598.78 366.497C1599.18 367.43 1599.45 368.397 1599.58 369.397C1600.38 367.864 1601.32 366.564 1602.38 365.497C1603.52 364.364 1604.68 363.464 1605.88 362.797C1607.08 362.064 1608.32 361.564 1609.58 361.297C1610.85 360.964 1612.02 360.797 1613.08 360.797C1614.35 360.797 1615.62 361.03 1616.88 361.497C1618.22 361.964 1619.42 362.664 1620.48 363.597C1621.55 364.53 1622.38 365.73 1622.98 367.197C1623.65 368.664 1623.98 370.397 1623.98 372.397C1623.98 374.197 1623.72 375.897 1623.18 377.497C1622.65 379.097 1621.88 380.53 1620.88 381.797C1619.88 382.997 1618.65 383.964 1617.18 384.697C1615.78 385.364 1614.22 385.697 1612.48 385.697ZM1665.87 417.797C1663.27 417.797 1660.77 417.33 1658.37 416.397C1656.03 415.464 1653.97 413.997 1652.17 411.997C1650.43 409.997 1649.03 407.464 1647.97 404.397C1646.97 401.33 1646.47 397.63 1646.47 393.297C1646.47 391.364 1646.6 389.23 1646.87 386.897C1647.13 384.497 1647.6 382.097 1648.27 379.697C1648.93 377.297 1649.87 374.964 1651.07 372.697C1652.27 370.43 1653.77 368.43 1655.57 366.697C1657.43 364.897 1659.63 363.464 1662.17 362.397C1664.77 361.33 1667.8 360.797 1671.27 360.797C1674.6 360.797 1677.27 361.397 1679.27 362.597C1681.33 363.73 1682.63 365.73 1683.17 368.597C1683.3 365.997 1683.43 363.73 1683.57 361.797C1683.7 359.864 1683.8 358.064 1683.87 356.397C1684 354.73 1684.13 353.064 1684.27 351.397C1684.4 349.73 1684.53 347.83 1684.67 345.697C1684.73 344.23 1684.9 343.364 1685.17 343.097C1685.3 342.964 1685.47 342.897 1685.67 342.897C1685.87 342.83 1686.23 342.797 1686.77 342.797H1690.67C1692.67 342.797 1694.33 343.03 1695.67 343.497C1697 343.964 1698.07 344.597 1698.87 345.397C1699.67 346.197 1700.23 347.13 1700.57 348.197C1700.9 349.197 1701.07 350.264 1701.07 351.397C1701.07 351.397 1701 352.23 1700.87 353.897C1700.73 355.564 1700.57 357.797 1700.37 360.597C1700.17 363.33 1699.93 366.464 1699.67 369.997C1699.4 373.53 1699.13 377.197 1698.87 380.997C1698.6 384.73 1698.33 388.464 1698.07 392.197C1697.8 395.864 1697.53 399.264 1697.27 402.397C1697 405.464 1696.77 408.13 1696.57 410.397C1696.43 412.597 1696.33 414.064 1696.27 414.797C1696.13 415.597 1695.97 416.13 1695.77 416.397C1695.57 416.664 1695 416.797 1694.07 416.797H1690.47C1689.07 416.797 1687.73 416.697 1686.47 416.497C1685.27 416.23 1684.2 415.83 1683.27 415.297C1682.4 414.697 1681.7 413.93 1681.17 412.997C1680.7 411.997 1680.47 410.73 1680.47 409.197C1679.27 411.73 1677.43 413.797 1674.97 415.397C1672.57 416.997 1669.53 417.797 1665.87 417.797ZM1674.57 374.097C1671.17 374.097 1668.63 375.597 1666.97 378.597C1665.37 381.53 1664.57 385.497 1664.57 390.497C1664.57 392.23 1664.67 393.93 1664.87 395.597C1665.13 397.264 1665.57 398.764 1666.17 400.097C1666.77 401.43 1667.57 402.497 1668.57 403.297C1669.63 404.097 1670.97 404.497 1672.57 404.497C1675.43 404.497 1677.83 403.097 1679.77 400.297C1681.7 397.497 1682.67 393.097 1682.67 387.097C1682.67 385.43 1682.57 383.83 1682.37 382.297C1682.17 380.697 1681.77 379.297 1681.17 378.097C1680.57 376.897 1679.73 375.93 1678.67 375.197C1677.6 374.464 1676.23 374.097 1674.57 374.097ZM1705.41 404.497C1705.41 398.497 1708.11 393.797 1713.51 390.397C1718.91 386.997 1726.87 385.164 1737.41 384.897C1737.47 384.164 1737.51 383.564 1737.51 383.097C1737.57 382.564 1737.61 381.93 1737.61 381.197C1737.61 379.064 1737.21 377.364 1736.41 376.097C1735.61 374.83 1733.94 374.197 1731.41 374.197C1730.01 374.197 1728.87 374.397 1728.01 374.797C1727.14 375.197 1726.44 375.764 1725.91 376.497C1725.37 377.164 1724.94 377.997 1724.61 378.997C1724.27 379.997 1723.97 381.097 1723.71 382.297C1723.57 382.897 1723.27 383.297 1722.81 383.497C1722.34 383.63 1721.61 383.697 1720.61 383.697C1713.81 383.697 1710.41 381.13 1710.41 375.997C1710.41 373.93 1710.87 371.964 1711.81 370.097C1712.81 368.23 1714.24 366.63 1716.11 365.297C1718.04 363.897 1720.44 362.797 1723.31 361.997C1726.17 361.197 1729.51 360.797 1733.31 360.797C1740.71 360.797 1746.07 362.33 1749.41 365.397C1752.74 368.464 1754.41 372.797 1754.41 378.397C1754.41 379.13 1754.31 380.464 1754.11 382.397C1753.97 384.264 1753.77 386.264 1753.51 388.397C1753.31 390.464 1753.11 392.43 1752.91 394.297C1752.77 396.164 1752.71 397.464 1752.71 398.197C1752.71 399.864 1753.01 401.064 1753.61 401.797C1754.21 402.464 1754.87 402.93 1755.61 403.197C1756.41 403.464 1757.11 403.664 1757.71 403.797C1758.31 403.93 1758.61 404.264 1758.61 404.797C1758.61 406.264 1758.41 407.764 1758.01 409.297C1757.61 410.83 1756.94 412.23 1756.01 413.497C1755.14 414.764 1753.91 415.797 1752.31 416.597C1750.77 417.397 1748.87 417.797 1746.61 417.797C1743.41 417.797 1741.01 417.03 1739.41 415.497C1737.81 413.964 1736.74 411.83 1736.21 409.097C1734.61 411.43 1732.51 413.464 1729.91 415.197C1727.37 416.93 1724.04 417.797 1719.91 417.797C1717.91 417.797 1716.01 417.564 1714.21 417.097C1712.47 416.63 1710.94 415.864 1709.61 414.797C1708.34 413.73 1707.31 412.364 1706.51 410.697C1705.77 408.964 1705.41 406.897 1705.41 404.497ZM1736.51 393.097C1734.77 393.097 1733.07 393.23 1731.41 393.497C1729.74 393.764 1728.24 394.197 1726.91 394.797C1725.64 395.33 1724.61 396.064 1723.81 396.997C1723.01 397.93 1722.61 399.064 1722.61 400.397C1722.61 401.93 1723.07 402.997 1724.01 403.597C1725.01 404.197 1726.07 404.497 1727.21 404.497C1728.27 404.497 1729.34 404.264 1730.41 403.797C1731.47 403.33 1732.41 402.63 1733.21 401.697C1734.07 400.697 1734.81 399.497 1735.41 398.097C1736.01 396.697 1736.37 395.03 1736.51 393.097ZM1783.86 370.997C1783.86 372.53 1783.76 374.364 1783.56 376.497C1783.36 378.564 1783.12 380.664 1782.86 382.797C1782.66 384.864 1782.46 386.83 1782.26 388.697C1782.06 390.497 1781.96 391.897 1781.96 392.897C1781.96 395.43 1782.56 397.33 1783.76 398.597C1785.02 399.797 1786.56 400.397 1788.36 400.397C1791.49 400.397 1793.99 398.764 1795.86 395.497C1797.72 392.23 1798.89 387.897 1799.36 382.497L1800.96 363.797C1801.02 363.064 1801.26 362.564 1801.66 362.297C1802.12 361.964 1802.62 361.797 1803.16 361.797H1806.76C1808.16 361.797 1809.46 361.93 1810.66 362.197C1811.92 362.397 1813.02 362.83 1813.96 363.497C1814.89 364.097 1815.62 364.93 1816.16 365.997C1816.69 367.064 1816.96 368.43 1816.96 370.097C1816.96 370.764 1816.89 372.03 1816.76 373.897C1816.69 375.697 1816.52 378.33 1816.26 381.797C1816.06 385.197 1815.76 389.53 1815.36 394.797C1814.96 399.997 1814.49 406.364 1813.96 413.897C1813.62 418.297 1812.62 421.93 1810.96 424.797C1809.36 427.73 1807.32 430.03 1804.86 431.697C1802.39 433.43 1799.62 434.63 1796.56 435.297C1793.49 435.964 1790.36 436.297 1787.16 436.297C1783.76 436.297 1780.62 435.997 1777.76 435.397C1774.96 434.797 1772.52 433.964 1770.46 432.897C1768.39 431.83 1766.76 430.597 1765.56 429.197C1764.42 427.797 1763.86 426.297 1763.86 424.697C1763.86 423.43 1764.12 422.33 1764.66 421.397C1765.26 420.464 1766.02 419.697 1766.96 419.097C1767.89 418.497 1768.96 418.03 1770.16 417.697C1771.42 417.43 1772.72 417.297 1774.06 417.297C1774.72 417.297 1775.19 417.63 1775.46 418.297C1775.79 418.964 1776.26 419.697 1776.86 420.497C1777.52 421.364 1778.56 422.13 1779.96 422.797C1781.36 423.464 1783.46 423.797 1786.26 423.797C1788.72 423.797 1790.72 423.197 1792.26 421.997C1793.79 420.797 1794.96 419.264 1795.76 417.397C1796.62 415.53 1797.19 413.497 1797.46 411.297C1797.72 409.097 1797.86 406.997 1797.86 404.997C1796.79 406.864 1795.59 408.397 1794.26 409.597C1792.99 410.73 1791.66 411.63 1790.26 412.297C1788.86 412.897 1787.46 413.297 1786.06 413.497C1784.66 413.697 1783.32 413.797 1782.06 413.797C1779.59 413.797 1777.32 413.464 1775.26 412.797C1773.26 412.13 1771.52 411.064 1770.06 409.597C1768.59 408.064 1767.46 406.097 1766.66 403.697C1765.86 401.297 1765.46 398.397 1765.46 394.997C1765.46 393.73 1765.52 392.064 1765.66 389.997C1765.79 387.864 1765.96 385.497 1766.16 382.897C1766.36 380.23 1766.56 377.364 1766.76 374.297C1767.02 371.23 1767.29 368.097 1767.56 364.897C1767.69 362.83 1768.62 361.797 1770.36 361.797H1773.56C1775.69 361.797 1777.42 361.997 1778.76 362.397C1780.09 362.797 1781.12 363.397 1781.86 364.197C1782.66 364.93 1783.19 365.897 1783.46 367.097C1783.72 368.23 1783.86 369.53 1783.86 370.997ZM1822.79 404.497C1822.79 398.497 1825.49 393.797 1830.89 390.397C1836.29 386.997 1844.26 385.164 1854.79 384.897C1854.86 384.164 1854.89 383.564 1854.89 383.097C1854.96 382.564 1854.99 381.93 1854.99 381.197C1854.99 379.064 1854.59 377.364 1853.79 376.097C1852.99 374.83 1851.32 374.197 1848.79 374.197C1847.39 374.197 1846.26 374.397 1845.39 374.797C1844.52 375.197 1843.82 375.764 1843.29 376.497C1842.76 377.164 1842.32 377.997 1841.99 378.997C1841.66 379.997 1841.36 381.097 1841.09 382.297C1840.96 382.897 1840.66 383.297 1840.19 383.497C1839.72 383.63 1838.99 383.697 1837.99 383.697C1831.19 383.697 1827.79 381.13 1827.79 375.997C1827.79 373.93 1828.26 371.964 1829.19 370.097C1830.19 368.23 1831.62 366.63 1833.49 365.297C1835.42 363.897 1837.82 362.797 1840.69 361.997C1843.56 361.197 1846.89 360.797 1850.69 360.797C1858.09 360.797 1863.46 362.33 1866.79 365.397C1870.12 368.464 1871.79 372.797 1871.79 378.397C1871.79 379.13 1871.69 380.464 1871.49 382.397C1871.36 384.264 1871.16 386.264 1870.89 388.397C1870.69 390.464 1870.49 392.43 1870.29 394.297C1870.16 396.164 1870.09 397.464 1870.09 398.197C1870.09 399.864 1870.39 401.064 1870.99 401.797C1871.59 402.464 1872.26 402.93 1872.99 403.197C1873.79 403.464 1874.49 403.664 1875.09 403.797C1875.69 403.93 1875.99 404.264 1875.99 404.797C1875.99 406.264 1875.79 407.764 1875.39 409.297C1874.99 410.83 1874.32 412.23 1873.39 413.497C1872.52 414.764 1871.29 415.797 1869.69 416.597C1868.16 417.397 1866.26 417.797 1863.99 417.797C1860.79 417.797 1858.39 417.03 1856.79 415.497C1855.19 413.964 1854.12 411.83 1853.59 409.097C1851.99 411.43 1849.89 413.464 1847.29 415.197C1844.76 416.93 1841.42 417.797 1837.29 417.797C1835.29 417.797 1833.39 417.564 1831.59 417.097C1829.86 416.63 1828.32 415.864 1826.99 414.797C1825.72 413.73 1824.69 412.364 1823.89 410.697C1823.16 408.964 1822.79 406.897 1822.79 404.497ZM1853.89 393.097C1852.16 393.097 1850.46 393.23 1848.79 393.497C1847.12 393.764 1845.62 394.197 1844.29 394.797C1843.02 395.33 1841.99 396.064 1841.19 396.997C1840.39 397.93 1839.99 399.064 1839.99 400.397C1839.99 401.93 1840.46 402.997 1841.39 403.597C1842.39 404.197 1843.46 404.497 1844.59 404.497C1845.66 404.497 1846.72 404.264 1847.79 403.797C1848.86 403.33 1849.79 402.63 1850.59 401.697C1851.46 400.697 1852.19 399.497 1852.79 398.097C1853.39 396.697 1853.76 395.03 1853.89 393.097Z" fill="#6614BE"/>
<g filter="url(#filter1_d_1294_12)">
<path d="M2036.25 872.732C2026.12 903.223 2001.3 904.243 1963.33 913.997C1962.68 914.166 1961.99 914.255 1961.31 914.252C1925.61 914.046 1896.29 903.019 1896.29 872.732C1896.29 842.156 1916.61 830.441 1955.26 830.441C1993.91 830.441 2036.25 842.156 2036.25 872.732Z" fill="#FAFAFA"/>
</g>
<g filter="url(#filter2_d_1294_12)">
<path d="M1918.31 743.553C1908.17 774.044 1883.36 775.063 1845.39 784.817C1844.73 784.986 1844.05 785.076 1843.37 785.072C1807.66 784.866 1778.35 773.839 1778.35 743.553C1778.35 712.977 1798.67 701.262 1837.32 701.262C1875.97 701.262 1918.31 712.977 1918.31 743.553Z" fill="#FAFAFA"/>
</g>
<g filter="url(#filter3_d_1294_12)">
<path d="M1934.03 1011.14C1923.9 1041.63 1899.08 1042.65 1861.12 1052.41C1860.46 1052.58 1859.77 1052.67 1859.1 1052.66C1823.39 1052.46 1794.07 1041.43 1794.07 1011.14C1794.07 980.567 1814.4 968.852 1853.04 968.852C1891.69 968.852 1934.03 980.567 1934.03 1011.14Z" fill="#FAFAFA"/>
</g>
<path d="M1635.6 1300.99C1620.66 1292.13 1633.64 1295.53 1611.92 1330.7C1600.8 1375.79 1597.89 1392.33 1632.49 1417.94C1670.02 1412.88 1668.32 1398.83 1663.78 1346.32C1659.8 1300.33 1650.54 1309.85 1635.6 1300.99Z" fill="#57DFD7"/>
<path d="M1333.66 1302.53C1318.72 1293.66 1331.7 1297.06 1309.99 1332.24C1298.87 1377.33 1295.96 1393.87 1330.56 1419.48C1368.08 1414.42 1366.39 1400.36 1361.85 1347.86C1357.87 1301.87 1348.61 1311.39 1333.66 1302.53Z" fill="#57DFD7"/>
<path d="M1554.78 1569.79C1554.78 1581.11 1547 1591.72 1533.66 1599.61C1520.36 1607.47 1501.85 1612.39 1481.3 1612.39C1460.75 1612.39 1442.24 1607.47 1428.94 1599.61C1415.6 1591.72 1407.82 1581.11 1407.82 1569.79C1407.82 1558.47 1415.6 1547.87 1428.94 1539.98C1442.24 1532.12 1460.75 1527.2 1481.3 1527.2C1501.85 1527.2 1520.36 1532.12 1533.66 1539.98C1547 1547.87 1554.78 1558.47 1554.78 1569.79Z" fill="#201E1E" fill-opacity="0.74" stroke="#605E5E" stroke-width="4"/>
<path d="M1217 1206.2C1210.72 1206.54 1204.24 1209.83 1197.13 1218.46C1194.79 1237.98 1200.84 1267.17 1224.03 1289.06C1247.27 1311.01 1288.06 1325.93 1355.81 1315.92C1360.04 1309.48 1364.4 1303.09 1368.68 1296.82L1368.76 1296.71C1373.19 1290.22 1377.53 1283.86 1381.58 1277.67C1389.74 1265.2 1396.63 1253.55 1400.58 1243.17C1404.54 1232.75 1405.4 1223.98 1402.09 1217.01C1398.81 1210.11 1391.16 1204.38 1376.66 1200.68C1360.62 1199.7 1351.83 1202.89 1346.51 1207.56C1341.09 1212.32 1338.88 1218.9 1336.69 1225.73C1336.64 1225.9 1336.58 1226.08 1336.53 1226.25C1334.47 1232.67 1332.26 1239.54 1326.5 1243.59C1320.47 1247.82 1311.19 1248.62 1295.9 1244.56C1283.68 1241.32 1273.06 1235.76 1263.58 1229.89C1259.08 1227.1 1254.82 1224.23 1250.77 1221.51C1250.56 1221.37 1250.35 1221.23 1250.14 1221.08C1245.9 1218.23 1241.9 1215.55 1238.06 1213.27C1230.32 1208.67 1223.52 1205.86 1217 1206.2Z" fill="white" stroke="black" stroke-width="4"/>
<path d="M1642.58 1238.31C1650.67 1264.2 1654.56 1292.54 1655.53 1304.47C1655.31 1304.56 1655 1304.74 1654.74 1305.05C1654.64 1305.18 1654.53 1305.33 1654.45 1305.5C1653.76 1305.68 1652.82 1305.88 1651.56 1306.12C1648.13 1306.76 1642.48 1307.61 1633.33 1308.68C1613.48 1309.75 1595.38 1306.64 1582.17 1300.84C1568.83 1294.97 1561.05 1286.65 1560.53 1277.6C1559.96 1267.56 1560.75 1245.33 1566.64 1225.41C1572.58 1205.32 1583.35 1188.65 1602.08 1187.63C1611.16 1187.13 1619.03 1192.52 1625.87 1201.93C1632.7 1211.33 1638.22 1224.39 1642.58 1238.31Z" fill="#00FFC5" stroke="black" stroke-width="4"/>
<path d="M1630.41 1301.73C1620.75 1356.51 1605.3 1405.73 1576.79 1442.26C1548.38 1478.66 1506.82 1502.67 1444.38 1506.75C1443.75 1506.79 1443.07 1506.72 1442.47 1506.54C1382.95 1488.83 1351.08 1463.04 1332.28 1427.87C1313.36 1392.45 1307.52 1347.27 1300.84 1290.18C1300.8 1289.85 1300.79 1289.54 1300.81 1289.2C1300.93 1286.55 1300.89 1283.32 1300.85 1279.62C1300.64 1263.21 1300.33 1237.71 1313.81 1213.56C1330.13 1184.31 1367.15 1156.59 1451.72 1151.93C1452.15 1151.91 1452.66 1151.94 1453.1 1152.02C1493.29 1159.48 1520.99 1158.48 1540.86 1156.29C1545.81 1155.75 1550.27 1155.13 1554.29 1154.56C1554.9 1154.47 1555.51 1154.38 1556.11 1154.3C1559.4 1153.82 1562.36 1153.4 1565.08 1153.08C1571.55 1152.33 1576.22 1152.26 1580.03 1153.47C1583.69 1154.63 1586.83 1157.07 1589.97 1162.03C1593.16 1167.08 1596.25 1174.59 1599.78 1185.64C1604.68 1200.95 1610.31 1222.64 1618.25 1253.22C1621.77 1266.76 1625.74 1282.06 1630.3 1299.31C1630.5 1300.1 1630.55 1300.98 1630.41 1301.73Z" fill="white" stroke="black" stroke-width="5"/>
<path d="M1710.07 1008.08C1706.67 1063.54 1669.74 1117.53 1613.21 1156.57C1556.73 1195.57 1480.95 1219.42 1400.46 1214.69C1332.38 1210.69 1261.43 1195.21 1208.95 1158.4C1156.65 1121.71 1122.46 1063.69 1127.98 973.888C1131.39 918.364 1167.37 861.24 1222.9 819.11C1278.38 777.015 1353.12 750.108 1433.53 754.831C1514.16 759.567 1585.61 786.029 1635.72 829.696C1685.77 873.317 1714.61 934.171 1710.07 1008.08Z" fill="white" stroke="black" stroke-width="5"/>
<path d="M1605.74 1083.2C1573.51 1115.85 1474.92 1145.01 1395.44 1089.52C1295.67 1152.29 1207.79 1091.97 1188.97 1049.63C1134.02 926.052 1264.1 816.752 1442.74 836.026C1621.38 855.3 1695.06 992.707 1605.74 1083.2Z" fill="black"/>
<path d="M1487.82 1204.61L1489.31 1270.17L1497.94 1347.71L1513.32 1425.11C1513.5 1425.98 1513.81 1426.82 1514.26 1427.59L1539.25 1470.3" stroke="#F4F4F4"/>
<ellipse cx="32.2353" cy="31.5286" rx="32.2353" ry="31.5286" transform="matrix(0.998279 0.0586361 -0.061304 0.998119 1282.31 985.322)" fill="#84F6D5"/>
<path d="M1658.71 1193.24C1660.96 1186.78 1665.73 1178.36 1687.61 1163.78C1697.82 1160.72 1706.66 1161.42 1713.58 1164.77C1720.56 1168.16 1725.79 1174.36 1728.5 1182.65C1733.94 1199.24 1729.24 1224.25 1707.79 1250.41C1683.45 1274.27 1654.89 1293.77 1628.39 1299.75C1615.17 1302.73 1602.55 1302.33 1591.21 1297.54C1579.93 1292.77 1569.69 1283.55 1561.34 1268.51C1555.49 1251.13 1556.32 1240.73 1560.46 1234.37C1564.62 1227.98 1572.55 1224.97 1582.72 1223.49C1589.56 1222.5 1597.03 1222.25 1604.59 1221.99C1608.28 1221.87 1612 1221.74 1615.67 1221.52C1626.59 1220.89 1637.19 1219.47 1644.35 1214.5C1650.25 1210.41 1653.29 1206.88 1655.14 1203.32C1656.06 1201.57 1656.65 1199.87 1657.17 1198.21C1657.35 1197.63 1657.51 1197.08 1657.67 1196.53C1657.99 1195.45 1658.31 1194.39 1658.71 1193.24Z" fill="white" stroke="black" stroke-width="4"/>
<path d="M1439.54 1007.38C1438.99 1005.3 1441.55 1004.53 1442.68 1006.37C1450.2 1018.6 1462.89 1032.02 1481.5 1031.68C1499.92 1031.33 1512.61 1014.38 1518.94 1004.43C1520.01 1002.75 1522.32 1003.45 1522.02 1005.42C1519.11 1024.66 1502.28 1039.6 1481.66 1039.99C1461.91 1040.36 1444.34 1025.72 1439.54 1007.38Z" fill="#84F6D5"/>
<defs>
<filter id="filter0_d_1294_12" x="716" y="0" width="1224.39" height="714.303" filterUnits="userSpaceOnUse" color-interpolation-filters="sRGB">
<feFlood flood-opacity="0" result="BackgroundImageFix"/>
<feColorMatrix in="SourceAlpha" type="matrix" values="0 0 0 0 0 0 0 0 0 0 0 0 0 0 0 0 0 0 127 0" result="hardAlpha"/>
<feOffset dy="4"/>
<feGaussianBlur stdDeviation="2"/>
<feComposite in2="hardAlpha" operator="out"/>
<feColorMatrix type="matrix" values="0 0 0 0 0.770833 0 0 0 0 0.770833 0 0 0 0 0.770833 0 0 0 0.25 0"/>
<feBlend mode="normal" in2="BackgroundImageFix" result="effect1_dropShadow_1294_12"/>
<feBlend mode="normal" in="SourceGraphic" in2="effect1_dropShadow_1294_12" result="shape"/>
</filter>
<filter id="filter1_d_1294_12" x="1892.29" y="830.441" width="147.959" height="91.8105" filterUnits="userSpaceOnUse" color-interpolation-filters="sRGB">
<feFlood flood-opacity="0" result="BackgroundImageFix"/>
<feColorMatrix in="SourceAlpha" type="matrix" values="0 0 0 0 0 0 0 0 0 0 0 0 0 0 0 0 0 0 127 0" result="hardAlpha"/>
<feOffset dy="4"/>
<feGaussianBlur stdDeviation="2"/>
<feComposite in2="hardAlpha" operator="out"/>
<feColorMatrix type="matrix" values="0 0 0 0 0.770833 0 0 0 0 0.770833 0 0 0 0 0.770833 0 0 0 0.25 0"/>
<feBlend mode="normal" in2="BackgroundImageFix" result="effect1_dropShadow_1294_12"/>
<feBlend mode="normal" in="SourceGraphic" in2="effect1_dropShadow_1294_12" result="shape"/>
</filter>
<filter id="filter2_d_1294_12" x="1774.35" y="701.262" width="147.959" height="91.8105" filterUnits="userSpaceOnUse" color-interpolation-filters="sRGB">
<feFlood flood-opacity="0" result="BackgroundImageFix"/>
<feColorMatrix in="SourceAlpha" type="matrix" values="0 0 0 0 0 0 0 0 0 0 0 0 0 0 0 0 0 0 127 0" result="hardAlpha"/>
<feOffset dy="4"/>
<feGaussianBlur stdDeviation="2"/>
<feComposite in2="hardAlpha" operator="out"/>
<feColorMatrix type="matrix" values="0 0 0 0 0.770833 0 0 0 0 0.770833 0 0 0 0 0.770833 0 0 0 0.25 0"/>
<feBlend mode="normal" in2="BackgroundImageFix" result="effect1_dropShadow_1294_12"/>
<feBlend mode="normal" in="SourceGraphic" in2="effect1_dropShadow_1294_12" result="shape"/>
</filter>
<filter id="filter3_d_1294_12" x="1790.07" y="968.852" width="147.959" height="91.8105" filterUnits="userSpaceOnUse" color-interpolation-filters="sRGB">
<feFlood flood-opacity="0" result="BackgroundImageFix"/>
<feColorMatrix in="SourceAlpha" type="matrix" values="0 0 0 0 0 0 0 0 0 0 0 0 0 0 0 0 0 0 127 0" result="hardAlpha"/>
<feOffset dy="4"/>
<feGaussianBlur stdDeviation="2"/>
<feComposite in2="hardAlpha" operator="out"/>
<feColorMatrix type="matrix" values="0 0 0 0 0.770833 0 0 0 0 0.770833 0 0 0 0 0.770833 0 0 0 0.25 0"/>
<feBlend mode="normal" in2="BackgroundImageFix" result="effect1_dropShadow_1294_12"/>
<feBlend mode="normal" in="SourceGraphic" in2="effect1_dropShadow_1294_12" result="shape"/>
</filter>
</defs>
</svg>
