<svg width="885" height="1225" viewBox="0 0 885 1225" fill="none" xmlns="http://www.w3.org/2000/svg">
<path d="M577 1059C577 1065.48 572.614 1071.68 564.791 1076.38C557.008 1081.05 546.126 1084 534 1084C521.874 1084 510.992 1081.05 503.209 1076.38C495.386 1071.68 491 1065.48 491 1059C491 1052.52 495.386 1046.32 503.209 1041.62C510.992 1036.95 521.874 1034 534 1034C546.126 1034 557.008 1036.95 564.791 1041.62C572.614 1046.32 577 1052.52 577 1059Z" fill="#201E1E" fill-opacity="0.74" stroke="#605E5E" stroke-width="4"/>
<ellipse cx="529.5" cy="1000" rx="80.5" ry="50" fill="#D9D9D9"/>
<path d="M532.5 946L528 971L516 1019H551L532.5 946Z" fill="#D9D9D9"/>
<rect x="244" y="713" width="53" height="211" fill="#E4E3E4"/>
<rect x="387" y="713" width="53" height="211" fill="#E4E3E4"/>
<rect x="229" y="690" width="83" height="68" rx="8" fill="#E8E8E8"/>
<rect x="372" y="690" width="83" height="68" rx="8" fill="#E8E8E8"/>
<rect x="260" y="758" width="22" height="166" fill="#7108E2"/>
<rect x="403" y="758" width="22" height="166" fill="#7108E2"/>
<rect x="244" y="705" width="53" height="36" fill="#7108E2"/>
<rect x="387" y="705" width="53" height="36" fill="#7108E2"/>
<rect x="201" y="924" width="281" height="50" rx="8" fill="#8A2CEF"/>
<g filter="url(#filter0_d_1280_210)">
<path d="M852.5 307.58C852.5 425.769 677 441.361 523 407.361C258.5 507 79 452.549 79 334.36C97 93.861 149 -1.4174 435 41.082C653.5 -108.418 852.5 189.391 852.5 307.58Z" fill="#FAFAFA"/>
</g>
<path d="M232.229 262.55C232.562 260.783 232.862 259.25 233.129 257.95C233.396 256.617 233.629 255.383 233.829 254.25C234.029 253.117 234.212 252 234.379 250.9C234.579 249.767 234.779 248.517 234.979 247.15C235.212 245.75 235.462 244.167 235.729 242.4C236.029 240.6 236.379 238.45 236.779 235.95C236.879 235.317 237.046 234.917 237.279 234.75C237.512 234.55 238.096 234.45 239.029 234.45C239.396 234.45 239.946 234.483 240.679 234.55C241.412 234.583 242.146 234.733 242.879 235C243.612 235.233 244.246 235.617 244.779 236.15C245.346 236.65 245.629 237.367 245.629 238.3C245.629 238.833 245.529 239.667 245.329 240.8C245.129 241.9 244.846 243.183 244.479 244.65C244.146 246.083 243.746 247.65 243.279 249.35C242.846 251.05 242.396 252.767 241.929 254.5C241.462 256.233 240.979 257.917 240.479 259.55C240.012 261.183 239.562 262.667 239.129 264C238.729 265.3 238.362 266.4 238.029 267.3C237.696 268.2 237.462 268.783 237.329 269.05C237.129 269.417 236.846 269.667 236.479 269.8C236.112 269.933 235.746 270 235.379 270H230.629C229.762 270 229.029 269.833 228.429 269.5C227.862 269.167 227.379 268.733 226.979 268.2C226.612 267.667 226.312 267.067 226.079 266.4C225.879 265.733 225.746 265.05 225.679 264.35L223.179 241.9C222.979 243.367 222.746 245.017 222.479 246.85C222.246 248.683 221.979 250.55 221.679 252.45C221.412 254.35 221.146 256.217 220.879 258.05C220.612 259.883 220.346 261.567 220.079 263.1C219.812 264.6 219.562 265.883 219.329 266.95C219.096 268.017 218.896 268.717 218.729 269.05C218.562 269.417 218.296 269.667 217.929 269.8C217.562 269.933 217.179 270 216.779 270H212.029C211.196 270 210.496 269.85 209.929 269.55C209.396 269.217 208.946 268.783 208.579 268.25C208.212 267.717 207.912 267.117 207.679 266.45C207.446 265.75 207.246 265.05 207.079 264.35C205.712 258.917 204.596 254.45 203.729 250.95C202.896 247.45 202.229 244.65 201.729 242.55C201.229 240.417 200.879 238.867 200.679 237.9C200.512 236.9 200.429 236.183 200.429 235.75C200.429 235.183 200.596 234.817 200.929 234.65C201.296 234.483 202.046 234.4 203.179 234.4C204.579 234.4 205.746 234.5 206.679 234.7C207.646 234.9 208.429 235.217 209.029 235.65C209.629 236.05 210.079 236.6 210.379 237.3C210.712 237.967 210.929 238.783 211.029 239.75C211.029 239.883 211.046 240.083 211.079 240.35C211.112 240.583 211.146 240.983 211.179 241.55C211.246 242.117 211.329 242.9 211.429 243.9C211.562 244.867 211.712 246.167 211.879 247.8C212.079 249.433 212.312 251.467 212.579 253.9C212.879 256.3 213.229 259.183 213.629 262.55C213.996 260.517 214.279 258.883 214.479 257.65C214.712 256.383 214.912 255.283 215.079 254.35C215.246 253.383 215.396 252.467 215.529 251.6C215.662 250.7 215.812 249.6 215.979 248.3C216.179 246.967 216.396 245.3 216.629 243.3C216.896 241.3 217.229 238.7 217.629 235.5C217.662 235.267 217.796 235.083 218.029 234.95C218.296 234.817 218.612 234.717 218.979 234.65C219.346 234.583 219.746 234.55 220.179 234.55C220.646 234.517 221.079 234.5 221.479 234.5C222.812 234.5 223.946 234.583 224.879 234.75C225.812 234.883 226.579 235.133 227.179 235.5C227.812 235.867 228.312 236.367 228.679 237C229.046 237.6 229.346 238.35 229.579 239.25C229.679 239.683 229.796 240.283 229.929 241.05C230.062 241.783 230.212 242.967 230.379 244.6C230.579 246.233 230.812 248.483 231.079 251.35C231.379 254.183 231.762 257.917 232.229 262.55ZM258.913 270.5C257.447 270.5 255.98 270.317 254.513 269.95C253.08 269.583 251.78 268.95 250.613 268.05C249.48 267.15 248.547 265.95 247.813 264.45C247.08 262.95 246.713 261.067 246.713 258.8C246.713 257.967 246.78 256.967 246.913 255.8C247.047 254.633 247.297 253.433 247.663 252.2C248.063 250.967 248.597 249.75 249.263 248.55C249.963 247.317 250.863 246.217 251.963 245.25C253.063 244.283 254.397 243.5 255.963 242.9C257.53 242.3 259.397 242 261.563 242C263.297 242 264.763 242.2 265.963 242.6C267.163 243 268.13 243.55 268.863 244.25C269.597 244.917 270.13 245.7 270.463 246.6C270.797 247.5 270.963 248.467 270.963 249.5C270.963 251.033 270.647 252.333 270.013 253.4C269.413 254.467 268.613 255.367 267.613 256.1C266.647 256.8 265.563 257.35 264.363 257.75C263.163 258.15 261.98 258.467 260.813 258.7C259.647 258.9 258.563 259.033 257.563 259.1C256.597 259.133 255.847 259.15 255.313 259.15C255.313 259.783 255.397 260.417 255.563 261.05C255.763 261.65 256.047 262.183 256.413 262.65C256.78 263.117 257.263 263.5 257.863 263.8C258.463 264.1 259.197 264.25 260.063 264.25C260.93 264.25 261.597 264.117 262.063 263.85C262.563 263.55 262.963 263.233 263.263 262.9C263.563 262.533 263.813 262.217 264.013 261.95C264.247 261.65 264.547 261.5 264.913 261.5C265.08 261.5 265.363 261.55 265.763 261.65C266.197 261.717 266.63 261.883 267.063 262.15C267.497 262.417 267.88 262.783 268.213 263.25C268.547 263.717 268.713 264.317 268.713 265.05C268.713 266.017 268.413 266.85 267.813 267.55C267.213 268.25 266.43 268.817 265.463 269.25C264.53 269.683 263.48 270 262.313 270.2C261.147 270.4 260.013 270.5 258.913 270.5ZM259.863 248.65C259.13 248.65 258.497 248.867 257.963 249.3C257.463 249.7 257.03 250.217 256.663 250.85C256.33 251.483 256.063 252.183 255.863 252.95C255.697 253.717 255.563 254.45 255.463 255.15C257.53 255.117 259.197 254.767 260.463 254.1C261.763 253.433 262.413 252.483 262.413 251.25C262.413 250.583 262.197 249.983 261.763 249.45C261.363 248.917 260.73 248.65 259.863 248.65ZM285.425 270.5C282.858 270.5 280.825 270.133 279.325 269.4C277.825 268.633 276.691 267.683 275.925 266.55C275.158 265.417 274.675 264.2 274.475 262.9C274.275 261.567 274.175 260.35 274.175 259.25C274.175 258.817 274.208 257.967 274.275 256.7C274.375 255.433 274.491 253.967 274.625 252.3C274.758 250.633 274.891 248.867 275.025 247C275.158 245.1 275.291 243.317 275.425 241.65C275.558 239.95 275.658 238.45 275.725 237.15C275.825 235.85 275.875 234.95 275.875 234.45C275.875 233.717 275.925 233.3 276.025 233.2C276.125 233.067 276.425 233 276.925 233H278.875C279.875 233 280.708 233.117 281.375 233.35C282.041 233.583 282.575 233.9 282.975 234.3C283.375 234.7 283.658 235.167 283.825 235.7C283.991 236.2 284.075 236.75 284.075 237.35C284.075 237.917 284.008 239.017 283.875 240.65C283.775 242.283 283.641 244.2 283.475 246.4C284.341 244.9 285.325 243.8 286.425 243.1C287.525 242.367 288.975 242 290.775 242C293.808 242 296.125 243 297.725 245C299.358 247 300.175 249.983 300.175 253.95C300.175 254.983 300.091 256.117 299.925 257.35C299.791 258.583 299.525 259.817 299.125 261.05C298.758 262.25 298.225 263.433 297.525 264.6C296.858 265.733 295.975 266.733 294.875 267.6C293.775 268.467 292.441 269.167 290.875 269.7C289.341 270.233 287.525 270.5 285.425 270.5ZM287.675 248.65C286.475 248.65 285.525 248.967 284.825 249.6C284.158 250.233 283.641 251 283.275 251.9C282.908 252.8 282.675 253.767 282.575 254.8C282.475 255.8 282.425 256.683 282.425 257.45C282.425 259.75 282.741 261.4 283.375 262.4C284.008 263.367 284.958 263.85 286.225 263.85C287.425 263.85 288.358 263.483 289.025 262.75C289.725 261.983 290.241 261.083 290.575 260.05C290.941 259.017 291.175 257.967 291.275 256.9C291.375 255.833 291.425 255 291.425 254.4C291.425 252.533 291.141 251.117 290.575 250.15C290.008 249.15 289.041 248.65 287.675 248.65ZM315.605 242C318.439 242 320.522 242.567 321.855 243.7C323.189 244.8 323.855 246.217 323.855 247.95C323.855 249.417 323.389 250.533 322.455 251.3C321.555 252.067 320.239 252.45 318.505 252.45C318.039 252.45 317.722 252.4 317.555 252.3C317.389 252.2 317.305 252.017 317.305 251.75C317.305 251.45 317.272 251.117 317.205 250.75C317.172 250.35 317.055 249.983 316.855 249.65C316.689 249.283 316.405 248.983 316.005 248.75C315.639 248.517 315.105 248.4 314.405 248.4C313.472 248.4 312.722 248.633 312.155 249.1C311.589 249.533 311.305 250.083 311.305 250.75C311.305 251.45 311.589 252.017 312.155 252.45C312.755 252.85 313.489 253.233 314.355 253.6C315.255 253.967 316.222 254.35 317.255 254.75C318.289 255.117 319.239 255.617 320.105 256.25C321.005 256.883 321.739 257.683 322.305 258.65C322.905 259.583 323.205 260.8 323.205 262.3C323.205 264.7 322.355 266.667 320.655 268.2C318.955 269.733 316.405 270.5 313.005 270.5C312.072 270.5 310.989 270.417 309.755 270.25C308.555 270.117 307.405 269.9 306.305 269.6C305.205 269.267 304.272 268.833 303.505 268.3C302.772 267.767 302.405 267.1 302.405 266.3C302.405 266 302.455 265.633 302.555 265.2C302.689 264.767 302.872 264.35 303.105 263.95C303.372 263.55 303.672 263.217 304.005 262.95C304.372 262.65 304.805 262.5 305.305 262.5C305.705 262.5 306.072 262.6 306.405 262.8C306.739 263 307.122 263.217 307.555 263.45C308.022 263.65 308.589 263.85 309.255 264.05C309.922 264.25 310.805 264.35 311.905 264.35C312.739 264.35 313.472 264.25 314.105 264.05C314.772 263.85 315.105 263.4 315.105 262.7C315.105 262.067 314.839 261.567 314.305 261.2C313.772 260.8 313.089 260.433 312.255 260.1C311.455 259.767 310.572 259.417 309.605 259.05C308.672 258.65 307.789 258.133 306.955 257.5C306.155 256.867 305.489 256.067 304.955 255.1C304.422 254.1 304.155 252.817 304.155 251.25C304.155 249.55 304.489 248.117 305.155 246.95C305.855 245.75 306.739 244.783 307.805 244.05C308.905 243.317 310.139 242.8 311.505 242.5C312.872 242.167 314.239 242 315.605 242ZM332.592 270C331.558 270 330.708 269.9 330.042 269.7C329.408 269.467 328.892 269.15 328.492 268.75C328.125 268.35 327.858 267.867 327.692 267.3C327.558 266.7 327.492 266.017 327.492 265.25C327.492 264.75 327.508 264.05 327.542 263.15C327.608 262.217 327.708 260.95 327.842 259.35C327.975 257.717 328.125 255.667 328.292 253.2C328.492 250.7 328.725 247.617 328.992 243.95C329.025 243.217 329.108 242.783 329.242 242.65C329.342 242.55 329.608 242.5 330.042 242.5H331.992C333.025 242.5 333.858 242.6 334.492 242.8C335.158 243 335.675 243.3 336.042 243.7C336.442 244.1 336.708 244.583 336.842 245.15C337.008 245.717 337.092 246.35 337.092 247.05C337.092 247.55 337.058 248.3 336.992 249.3C336.925 250.3 336.825 251.667 336.692 253.4C336.592 255.1 336.442 257.233 336.242 259.8C336.042 262.333 335.792 265.4 335.492 269C335.458 269.4 335.375 269.667 335.242 269.8C335.108 269.933 334.825 270 334.392 270H332.592ZM329.042 236.6C329.042 235.267 329.525 234.217 330.492 233.45C331.458 232.683 332.758 232.3 334.392 232.3C335.825 232.3 336.858 232.6 337.492 233.2C338.158 233.767 338.492 234.533 338.492 235.5C338.492 236.733 338.025 237.767 337.092 238.6C336.192 239.4 334.858 239.8 333.092 239.8C330.392 239.8 329.042 238.733 329.042 236.6ZM352.254 249.25C352.154 250.517 352.037 251.767 351.904 253C351.804 254.233 351.704 255.4 351.604 256.5C351.504 257.6 351.421 258.583 351.354 259.45C351.321 260.317 351.304 260.983 351.304 261.45C351.304 262.317 351.404 262.9 351.604 263.2C351.804 263.467 352.137 263.6 352.604 263.6C352.971 263.6 353.287 263.533 353.554 263.4C353.821 263.267 354.071 263.117 354.304 262.95C354.537 262.783 354.737 262.633 354.904 262.5C355.104 262.367 355.321 262.3 355.554 262.3C355.787 262.3 356.004 262.433 356.204 262.7C356.404 262.967 356.504 263.583 356.504 264.55C356.504 266.383 356.004 267.833 355.004 268.9C354.004 269.967 352.287 270.5 349.854 270.5C347.454 270.5 345.671 269.95 344.504 268.85C343.371 267.717 342.804 266 342.804 263.7C342.804 263.2 342.821 262.617 342.854 261.95C342.921 261.25 343.004 260.35 343.104 259.25C343.204 258.15 343.321 256.8 343.454 255.2C343.621 253.6 343.787 251.617 343.954 249.25H341.304C341.037 249.25 340.871 249.2 340.804 249.1C340.771 248.967 340.754 248.783 340.754 248.55L340.904 246C340.937 245.567 340.987 245.15 341.054 244.75C341.154 244.317 341.321 243.933 341.554 243.6C341.821 243.267 342.187 243 342.654 242.8C343.121 242.6 343.737 242.5 344.504 242.5C344.737 241.9 345.004 241.183 345.304 240.35C345.604 239.517 345.904 238.717 346.204 237.95C346.504 237.15 346.787 236.483 347.054 235.95C347.354 235.417 347.621 235.15 347.854 235.15H349.304C350.704 235.15 351.671 235.583 352.204 236.45C352.737 237.317 353.004 238.35 353.004 239.55C353.004 240.217 352.954 241.2 352.854 242.5H358.104C358.637 242.5 358.904 242.733 358.904 243.2L358.704 245.9C358.637 246.9 358.354 247.717 357.854 248.35C357.387 248.95 356.404 249.25 354.904 249.25H352.254ZM372.683 270.5C371.216 270.5 369.75 270.317 368.283 269.95C366.85 269.583 365.55 268.95 364.383 268.05C363.25 267.15 362.316 265.95 361.583 264.45C360.85 262.95 360.483 261.067 360.483 258.8C360.483 257.967 360.55 256.967 360.683 255.8C360.816 254.633 361.066 253.433 361.433 252.2C361.833 250.967 362.366 249.75 363.033 248.55C363.733 247.317 364.633 246.217 365.733 245.25C366.833 244.283 368.166 243.5 369.733 242.9C371.3 242.3 373.166 242 375.333 242C377.066 242 378.533 242.2 379.733 242.6C380.933 243 381.9 243.55 382.633 244.25C383.366 244.917 383.9 245.7 384.233 246.6C384.566 247.5 384.733 248.467 384.733 249.5C384.733 251.033 384.416 252.333 383.783 253.4C383.183 254.467 382.383 255.367 381.383 256.1C380.416 256.8 379.333 257.35 378.133 257.75C376.933 258.15 375.75 258.467 374.583 258.7C373.416 258.9 372.333 259.033 371.333 259.1C370.366 259.133 369.616 259.15 369.083 259.15C369.083 259.783 369.166 260.417 369.333 261.05C369.533 261.65 369.816 262.183 370.183 262.65C370.55 263.117 371.033 263.5 371.633 263.8C372.233 264.1 372.966 264.25 373.833 264.25C374.7 264.25 375.366 264.117 375.833 263.85C376.333 263.55 376.733 263.233 377.033 262.9C377.333 262.533 377.583 262.217 377.783 261.95C378.016 261.65 378.316 261.5 378.683 261.5C378.85 261.5 379.133 261.55 379.533 261.65C379.966 261.717 380.4 261.883 380.833 262.15C381.266 262.417 381.65 262.783 381.983 263.25C382.316 263.717 382.483 264.317 382.483 265.05C382.483 266.017 382.183 266.85 381.583 267.55C380.983 268.25 380.2 268.817 379.233 269.25C378.3 269.683 377.25 270 376.083 270.2C374.916 270.4 373.783 270.5 372.683 270.5ZM373.633 248.65C372.9 248.65 372.266 248.867 371.733 249.3C371.233 249.7 370.8 250.217 370.433 250.85C370.1 251.483 369.833 252.183 369.633 252.95C369.466 253.717 369.333 254.45 369.233 255.15C371.3 255.117 372.966 254.767 374.233 254.1C375.533 253.433 376.183 252.483 376.183 251.25C376.183 250.583 375.966 249.983 375.533 249.45C375.133 248.917 374.5 248.65 373.633 248.65ZM410.137 242C412.97 242 415.053 242.567 416.387 243.7C417.72 244.8 418.387 246.217 418.387 247.95C418.387 249.417 417.92 250.533 416.987 251.3C416.087 252.067 414.77 252.45 413.037 252.45C412.57 252.45 412.253 252.4 412.087 252.3C411.92 252.2 411.837 252.017 411.837 251.75C411.837 251.45 411.803 251.117 411.737 250.75C411.703 250.35 411.587 249.983 411.387 249.65C411.22 249.283 410.937 248.983 410.537 248.75C410.17 248.517 409.637 248.4 408.937 248.4C408.003 248.4 407.253 248.633 406.687 249.1C406.12 249.533 405.837 250.083 405.837 250.75C405.837 251.45 406.12 252.017 406.687 252.45C407.287 252.85 408.02 253.233 408.887 253.6C409.787 253.967 410.753 254.35 411.787 254.75C412.82 255.117 413.77 255.617 414.637 256.25C415.537 256.883 416.27 257.683 416.837 258.65C417.437 259.583 417.737 260.8 417.737 262.3C417.737 264.7 416.887 266.667 415.187 268.2C413.487 269.733 410.937 270.5 407.537 270.5C406.603 270.5 405.52 270.417 404.287 270.25C403.087 270.117 401.937 269.9 400.837 269.6C399.737 269.267 398.803 268.833 398.037 268.3C397.303 267.767 396.937 267.1 396.937 266.3C396.937 266 396.987 265.633 397.087 265.2C397.22 264.767 397.403 264.35 397.637 263.95C397.903 263.55 398.203 263.217 398.537 262.95C398.903 262.65 399.337 262.5 399.837 262.5C400.237 262.5 400.603 262.6 400.937 262.8C401.27 263 401.653 263.217 402.087 263.45C402.553 263.65 403.12 263.85 403.787 264.05C404.453 264.25 405.337 264.35 406.437 264.35C407.27 264.35 408.003 264.25 408.637 264.05C409.303 263.85 409.637 263.4 409.637 262.7C409.637 262.067 409.37 261.567 408.837 261.2C408.303 260.8 407.62 260.433 406.787 260.1C405.987 259.767 405.103 259.417 404.137 259.05C403.203 258.65 402.32 258.133 401.487 257.5C400.687 256.867 400.02 256.067 399.487 255.1C398.953 254.1 398.687 252.817 398.687 251.25C398.687 249.55 399.02 248.117 399.687 246.95C400.387 245.75 401.27 244.783 402.337 244.05C403.437 243.317 404.67 242.8 406.037 242.5C407.403 242.167 408.77 242 410.137 242ZM433.523 270.5C432.056 270.5 430.59 270.317 429.123 269.95C427.69 269.583 426.39 268.95 425.223 268.05C424.09 267.15 423.156 265.95 422.423 264.45C421.69 262.95 421.323 261.067 421.323 258.8C421.323 257.967 421.39 256.967 421.523 255.8C421.656 254.633 421.906 253.433 422.273 252.2C422.673 250.967 423.206 249.75 423.873 248.55C424.573 247.317 425.473 246.217 426.573 245.25C427.673 244.283 429.006 243.5 430.573 242.9C432.14 242.3 434.006 242 436.173 242C437.906 242 439.373 242.2 440.573 242.6C441.773 243 442.74 243.55 443.473 244.25C444.206 244.917 444.74 245.7 445.073 246.6C445.406 247.5 445.573 248.467 445.573 249.5C445.573 251.033 445.256 252.333 444.623 253.4C444.023 254.467 443.223 255.367 442.223 256.1C441.256 256.8 440.173 257.35 438.973 257.75C437.773 258.15 436.59 258.467 435.423 258.7C434.256 258.9 433.173 259.033 432.173 259.1C431.206 259.133 430.456 259.15 429.923 259.15C429.923 259.783 430.006 260.417 430.173 261.05C430.373 261.65 430.656 262.183 431.023 262.65C431.39 263.117 431.873 263.5 432.473 263.8C433.073 264.1 433.806 264.25 434.673 264.25C435.54 264.25 436.206 264.117 436.673 263.85C437.173 263.55 437.573 263.233 437.873 262.9C438.173 262.533 438.423 262.217 438.623 261.95C438.856 261.65 439.156 261.5 439.523 261.5C439.69 261.5 439.973 261.55 440.373 261.65C440.806 261.717 441.24 261.883 441.673 262.15C442.106 262.417 442.49 262.783 442.823 263.25C443.156 263.717 443.323 264.317 443.323 265.05C443.323 266.017 443.023 266.85 442.423 267.55C441.823 268.25 441.04 268.817 440.073 269.25C439.14 269.683 438.09 270 436.923 270.2C435.756 270.4 434.623 270.5 433.523 270.5ZM434.473 248.65C433.74 248.65 433.106 248.867 432.573 249.3C432.073 249.7 431.64 250.217 431.273 250.85C430.94 251.483 430.673 252.183 430.473 252.95C430.306 253.717 430.173 254.45 430.073 255.15C432.14 255.117 433.806 254.767 435.073 254.1C436.373 253.433 437.023 252.483 437.023 251.25C437.023 250.583 436.806 249.983 436.373 249.45C435.973 248.917 435.34 248.65 434.473 248.65ZM457.734 270.5C456.434 270.5 455.184 270.267 453.984 269.8C452.818 269.333 451.784 268.6 450.884 267.6C450.018 266.6 449.318 265.333 448.784 263.8C448.284 262.267 448.034 260.417 448.034 258.25C448.034 257.283 448.101 256.217 448.234 255.05C448.368 253.85 448.601 252.65 448.934 251.45C449.268 250.25 449.734 249.083 450.334 247.95C450.934 246.817 451.684 245.817 452.584 244.95C453.518 244.05 454.618 243.333 455.884 242.8C457.184 242.267 458.701 242 460.434 242C462.101 242 463.434 242.3 464.434 242.9C465.468 243.467 466.118 244.467 466.384 245.9C466.451 244.6 466.518 243.467 466.584 242.5C466.651 241.533 466.701 240.633 466.734 239.8C466.801 238.967 466.868 238.133 466.934 237.3C467.001 236.467 467.068 235.517 467.134 234.45C467.168 233.717 467.251 233.283 467.384 233.15C467.451 233.083 467.534 233.05 467.634 233.05C467.734 233.017 467.918 233 468.184 233H470.134C471.134 233 471.968 233.117 472.634 233.35C473.301 233.583 473.834 233.9 474.234 234.3C474.634 234.7 474.918 235.167 475.084 235.7C475.251 236.2 475.334 236.733 475.334 237.3C475.334 237.3 475.301 237.717 475.234 238.55C475.168 239.383 475.084 240.5 474.984 241.9C474.884 243.267 474.768 244.833 474.634 246.6C474.501 248.367 474.368 250.2 474.234 252.1C474.101 253.967 473.968 255.833 473.834 257.7C473.701 259.533 473.568 261.233 473.434 262.8C473.301 264.333 473.184 265.667 473.084 266.8C473.018 267.9 472.968 268.633 472.934 269C472.868 269.4 472.784 269.667 472.684 269.8C472.584 269.933 472.301 270 471.834 270H470.034C469.334 270 468.668 269.95 468.034 269.85C467.434 269.717 466.901 269.517 466.434 269.25C466.001 268.95 465.651 268.567 465.384 268.1C465.151 267.6 465.034 266.967 465.034 266.2C464.434 267.467 463.518 268.5 462.284 269.3C461.084 270.1 459.568 270.5 457.734 270.5ZM462.084 248.65C460.384 248.65 459.118 249.4 458.284 250.9C457.484 252.367 457.084 254.35 457.084 256.85C457.084 257.717 457.134 258.567 457.234 259.4C457.368 260.233 457.584 260.983 457.884 261.65C458.184 262.317 458.584 262.85 459.084 263.25C459.618 263.65 460.284 263.85 461.084 263.85C462.518 263.85 463.718 263.15 464.684 261.75C465.651 260.35 466.134 258.15 466.134 255.15C466.134 254.317 466.084 253.517 465.984 252.75C465.884 251.95 465.684 251.25 465.384 250.65C465.084 250.05 464.668 249.567 464.134 249.2C463.601 248.833 462.918 248.65 462.084 248.65ZM477.504 263.85C477.504 260.85 478.854 258.5 481.554 256.8C484.254 255.1 488.237 254.183 493.504 254.05C493.537 253.683 493.554 253.383 493.554 253.15C493.587 252.883 493.604 252.567 493.604 252.2C493.604 251.133 493.404 250.283 493.004 249.65C492.604 249.017 491.771 248.7 490.504 248.7C489.804 248.7 489.237 248.8 488.804 249C488.371 249.2 488.021 249.483 487.754 249.85C487.487 250.183 487.271 250.6 487.104 251.1C486.937 251.6 486.787 252.15 486.654 252.75C486.587 253.05 486.437 253.25 486.204 253.35C485.971 253.417 485.604 253.45 485.104 253.45C481.704 253.45 480.004 252.167 480.004 249.6C480.004 248.567 480.237 247.583 480.704 246.65C481.204 245.717 481.921 244.917 482.854 244.25C483.821 243.55 485.021 243 486.454 242.6C487.887 242.2 489.554 242 491.454 242C495.154 242 497.837 242.767 499.504 244.3C501.171 245.833 502.004 248 502.004 250.8C502.004 251.167 501.954 251.833 501.854 252.8C501.787 253.733 501.687 254.733 501.554 255.8C501.454 256.833 501.354 257.817 501.254 258.75C501.187 259.683 501.154 260.333 501.154 260.7C501.154 261.533 501.304 262.133 501.604 262.5C501.904 262.833 502.237 263.067 502.604 263.2C503.004 263.333 503.354 263.433 503.654 263.5C503.954 263.567 504.104 263.733 504.104 264C504.104 264.733 504.004 265.483 503.804 266.25C503.604 267.017 503.271 267.717 502.804 268.35C502.371 268.983 501.754 269.5 500.954 269.9C500.187 270.3 499.237 270.5 498.104 270.5C496.504 270.5 495.304 270.117 494.504 269.35C493.704 268.583 493.171 267.517 492.904 266.15C492.104 267.317 491.054 268.333 489.754 269.2C488.487 270.067 486.821 270.5 484.754 270.5C483.754 270.5 482.804 270.383 481.904 270.15C481.037 269.917 480.271 269.533 479.604 269C478.971 268.467 478.454 267.783 478.054 266.95C477.687 266.083 477.504 265.05 477.504 263.85ZM493.054 258.15C492.187 258.15 491.337 258.217 490.504 258.35C489.671 258.483 488.921 258.7 488.254 259C487.621 259.267 487.104 259.633 486.704 260.1C486.304 260.567 486.104 261.133 486.104 261.8C486.104 262.567 486.337 263.1 486.804 263.4C487.304 263.7 487.837 263.85 488.404 263.85C488.937 263.85 489.471 263.733 490.004 263.5C490.537 263.267 491.004 262.917 491.404 262.45C491.837 261.95 492.204 261.35 492.504 260.65C492.804 259.95 492.987 259.117 493.054 258.15ZM524.228 265.6C524.228 264.867 524.278 263.917 524.378 262.75C524.511 261.55 524.628 260.3 524.728 259C524.861 257.667 524.978 256.383 525.078 255.15C525.211 253.917 525.278 252.883 525.278 252.05C525.278 251.183 525.061 250.417 524.628 249.75C524.228 249.05 523.428 248.7 522.228 248.7C521.061 248.7 520.095 248.983 519.328 249.55C518.561 250.117 517.911 251.15 517.378 252.65C516.878 254.15 516.461 256.217 516.128 258.85C515.795 261.483 515.478 264.867 515.178 269C515.145 269.4 515.061 269.667 514.928 269.8C514.795 269.933 514.511 270 514.078 270H512.278C511.245 270 510.395 269.9 509.728 269.7C509.095 269.467 508.578 269.15 508.178 268.75C507.811 268.35 507.545 267.867 507.378 267.3C507.245 266.7 507.178 266.017 507.178 265.25C507.178 264.75 507.195 264.05 507.228 263.15C507.295 262.217 507.395 260.95 507.528 259.35C507.661 257.717 507.811 255.667 507.978 253.2C508.178 250.7 508.411 247.617 508.678 243.95C508.711 243.217 508.795 242.783 508.928 242.65C509.028 242.55 509.295 242.5 509.728 242.5H511.678C512.678 242.5 513.495 242.617 514.128 242.85C514.795 243.083 515.328 243.4 515.728 243.8C516.128 244.167 516.411 244.617 516.578 245.15C516.745 245.65 516.845 246.167 516.878 246.7C517.911 244.933 519.095 243.717 520.428 243.05C521.761 242.35 523.428 242 525.428 242C526.828 242 528.045 242.15 529.078 242.45C530.111 242.75 530.961 243.267 531.628 244C532.328 244.7 532.845 245.633 533.178 246.8C533.511 247.933 533.678 249.35 533.678 251.05C533.678 251.583 533.645 252.35 533.578 253.35C533.511 254.35 533.428 255.45 533.328 256.65C533.228 257.817 533.111 259.05 532.978 260.35C532.878 261.617 532.778 262.8 532.678 263.9C532.578 265 532.495 265.967 532.428 266.8C532.361 267.633 532.328 268.183 532.328 268.45C532.328 269.183 532.245 269.633 532.078 269.8C531.911 269.933 531.545 270 530.978 270H529.378C528.311 270 527.445 269.9 526.778 269.7C526.111 269.5 525.595 269.217 525.228 268.85C524.861 268.483 524.595 268.033 524.428 267.5C524.295 266.933 524.228 266.3 524.228 265.6ZM554.485 264.1C553.652 265.6 552.635 266.717 551.435 267.45C550.235 268.15 548.735 268.5 546.935 268.5C545.568 268.5 544.318 268.283 543.185 267.85C542.052 267.417 541.085 266.733 540.285 265.8C539.485 264.867 538.852 263.7 538.385 262.3C537.952 260.867 537.735 259.167 537.735 257.2C537.735 255.6 537.902 253.917 538.235 252.15C538.568 250.35 539.168 248.7 540.035 247.2C540.935 245.7 542.152 244.467 543.685 243.5C545.218 242.5 547.185 242 549.585 242C550.585 242 551.435 242.117 552.135 242.35C552.868 242.55 553.485 242.833 553.985 243.2C554.518 243.567 554.935 244 555.235 244.5C555.568 245 555.818 245.533 555.985 246.1C555.985 246.133 555.985 246.017 555.985 245.75C556.018 245.45 556.052 245.117 556.085 244.75C556.118 244.383 556.135 244.033 556.135 243.7C556.168 243.333 556.185 243.1 556.185 243C556.218 242.667 556.435 242.5 556.835 242.5H559.135C560.868 242.5 562.118 242.867 562.885 243.6C563.685 244.3 564.085 245.65 564.085 247.65C564.085 247.917 564.068 248.533 564.035 249.5C564.002 250.433 563.935 251.567 563.835 252.9C563.768 254.233 563.668 255.717 563.535 257.35C563.402 258.95 563.252 260.567 563.085 262.2C562.918 263.833 562.735 265.4 562.535 266.9C562.335 268.4 562.118 269.717 561.885 270.85C561.652 271.983 561.252 273.083 560.685 274.15C560.118 275.217 559.318 276.167 558.285 277C557.252 277.833 555.918 278.5 554.285 279C552.685 279.5 550.718 279.75 548.385 279.75C546.618 279.75 545.068 279.583 543.735 279.25C542.435 278.917 541.352 278.467 540.485 277.9C539.618 277.367 538.952 276.75 538.485 276.05C538.052 275.35 537.835 274.65 537.835 273.95C537.835 273.317 537.968 272.767 538.235 272.3C538.502 271.833 538.852 271.45 539.285 271.15C539.718 270.85 540.185 270.617 540.685 270.45C541.218 270.317 541.718 270.25 542.185 270.25C542.752 270.25 543.168 270.417 543.435 270.75C543.702 271.083 544.002 271.45 544.335 271.85C544.668 272.283 545.135 272.667 545.735 273C546.335 273.333 547.268 273.5 548.535 273.5C550.735 273.5 552.268 272.683 553.135 271.05C554.035 269.45 554.485 267.133 554.485 264.1ZM550.285 261.85C551.485 261.85 552.418 261.567 553.085 261C553.785 260.433 554.318 259.75 554.685 258.95C555.052 258.15 555.285 257.317 555.385 256.45C555.485 255.583 555.535 254.833 555.535 254.2C555.535 252.2 555.218 250.783 554.585 249.95C553.985 249.083 553.068 248.65 551.835 248.65C550.602 248.65 549.635 248.983 548.935 249.65C548.235 250.317 547.702 251.117 547.335 252.05C547.002 252.95 546.785 253.867 546.685 254.8C546.585 255.7 546.535 256.4 546.535 256.9C546.535 258.567 546.818 259.817 547.385 260.65C547.952 261.45 548.918 261.85 550.285 261.85ZM588.398 270.5C587.098 270.5 585.848 270.267 584.648 269.8C583.482 269.333 582.448 268.6 581.548 267.6C580.682 266.6 579.982 265.333 579.448 263.8C578.948 262.267 578.698 260.417 578.698 258.25C578.698 257.283 578.765 256.217 578.898 255.05C579.032 253.85 579.265 252.65 579.598 251.45C579.932 250.25 580.398 249.083 580.998 247.95C581.598 246.817 582.348 245.817 583.248 244.95C584.182 244.05 585.282 243.333 586.548 242.8C587.848 242.267 589.365 242 591.098 242C592.765 242 594.098 242.3 595.098 242.9C596.132 243.467 596.782 244.467 597.048 245.9C597.115 244.6 597.182 243.467 597.248 242.5C597.315 241.533 597.365 240.633 597.398 239.8C597.465 238.967 597.532 238.133 597.598 237.3C597.665 236.467 597.732 235.517 597.798 234.45C597.832 233.717 597.915 233.283 598.048 233.15C598.115 233.083 598.198 233.05 598.298 233.05C598.398 233.017 598.582 233 598.848 233H600.798C601.798 233 602.632 233.117 603.298 233.35C603.965 233.583 604.498 233.9 604.898 234.3C605.298 234.7 605.582 235.167 605.748 235.7C605.915 236.2 605.998 236.733 605.998 237.3C605.998 237.3 605.965 237.717 605.898 238.55C605.832 239.383 605.748 240.5 605.648 241.9C605.548 243.267 605.432 244.833 605.298 246.6C605.165 248.367 605.032 250.2 604.898 252.1C604.765 253.967 604.632 255.833 604.498 257.7C604.365 259.533 604.232 261.233 604.098 262.8C603.965 264.333 603.848 265.667 603.748 266.8C603.682 267.9 603.632 268.633 603.598 269C603.532 269.4 603.448 269.667 603.348 269.8C603.248 269.933 602.965 270 602.498 270H600.698C599.998 270 599.332 269.95 598.698 269.85C598.098 269.717 597.565 269.517 597.098 269.25C596.665 268.95 596.315 268.567 596.048 268.1C595.815 267.6 595.698 266.967 595.698 266.2C595.098 267.467 594.182 268.5 592.948 269.3C591.748 270.1 590.232 270.5 588.398 270.5ZM592.748 248.65C591.048 248.65 589.782 249.4 588.948 250.9C588.148 252.367 587.748 254.35 587.748 256.85C587.748 257.717 587.798 258.567 587.898 259.4C588.032 260.233 588.248 260.983 588.548 261.65C588.848 262.317 589.248 262.85 589.748 263.25C590.282 263.65 590.948 263.85 591.748 263.85C593.182 263.85 594.382 263.15 595.348 261.75C596.315 260.35 596.798 258.15 596.798 255.15C596.798 254.317 596.748 253.517 596.648 252.75C596.548 251.95 596.348 251.25 596.048 250.65C595.748 250.05 595.332 249.567 594.798 249.2C594.265 248.833 593.582 248.65 592.748 248.65ZM608.168 263.85C608.168 260.85 609.518 258.5 612.218 256.8C614.918 255.1 618.901 254.183 624.168 254.05C624.201 253.683 624.218 253.383 624.218 253.15C624.251 252.883 624.268 252.567 624.268 252.2C624.268 251.133 624.068 250.283 623.668 249.65C623.268 249.017 622.435 248.7 621.168 248.7C620.468 248.7 619.901 248.8 619.468 249C619.035 249.2 618.685 249.483 618.418 249.85C618.151 250.183 617.935 250.6 617.768 251.1C617.601 251.6 617.451 252.15 617.318 252.75C617.251 253.05 617.101 253.25 616.868 253.35C616.635 253.417 616.268 253.45 615.768 253.45C612.368 253.45 610.668 252.167 610.668 249.6C610.668 248.567 610.901 247.583 611.368 246.65C611.868 245.717 612.585 244.917 613.518 244.25C614.485 243.55 615.685 243 617.118 242.6C618.551 242.2 620.218 242 622.118 242C625.818 242 628.501 242.767 630.168 244.3C631.835 245.833 632.668 248 632.668 250.8C632.668 251.167 632.618 251.833 632.518 252.8C632.451 253.733 632.351 254.733 632.218 255.8C632.118 256.833 632.018 257.817 631.918 258.75C631.851 259.683 631.818 260.333 631.818 260.7C631.818 261.533 631.968 262.133 632.268 262.5C632.568 262.833 632.901 263.067 633.268 263.2C633.668 263.333 634.018 263.433 634.318 263.5C634.618 263.567 634.768 263.733 634.768 264C634.768 264.733 634.668 265.483 634.468 266.25C634.268 267.017 633.935 267.717 633.468 268.35C633.035 268.983 632.418 269.5 631.618 269.9C630.851 270.3 629.901 270.5 628.768 270.5C627.168 270.5 625.968 270.117 625.168 269.35C624.368 268.583 623.835 267.517 623.568 266.15C622.768 267.317 621.718 268.333 620.418 269.2C619.151 270.067 617.485 270.5 615.418 270.5C614.418 270.5 613.468 270.383 612.568 270.15C611.701 269.917 610.935 269.533 610.268 269C609.635 268.467 609.118 267.783 608.718 266.95C608.351 266.083 608.168 265.05 608.168 263.85ZM623.718 258.15C622.851 258.15 622.001 258.217 621.168 258.35C620.335 258.483 619.585 258.7 618.918 259C618.285 259.267 617.768 259.633 617.368 260.1C616.968 260.567 616.768 261.133 616.768 261.8C616.768 262.567 617.001 263.1 617.468 263.4C617.968 263.7 618.501 263.85 619.068 263.85C619.601 263.85 620.135 263.733 620.668 263.5C621.201 263.267 621.668 262.917 622.068 262.45C622.501 261.95 622.868 261.35 623.168 260.65C623.468 259.95 623.651 259.117 623.718 258.15ZM643.642 270.45C641.575 270.45 640.092 269.9 639.192 268.8C638.292 267.7 637.842 265.883 637.842 263.35C637.842 262.95 637.859 262.45 637.892 261.85C637.959 261.25 638.025 260.483 638.092 259.55C638.192 258.583 638.309 257.4 638.442 256C638.575 254.6 638.709 252.9 638.842 250.9C639.009 248.9 639.175 246.55 639.342 243.85C639.542 241.15 639.742 238.017 639.942 234.45C639.975 233.717 640.059 233.283 640.192 233.15C640.292 233.05 640.559 233 640.992 233H642.942C643.942 233 644.775 233.117 645.442 233.35C646.109 233.583 646.642 233.9 647.042 234.3C647.442 234.7 647.725 235.167 647.892 235.7C648.059 236.2 648.142 236.733 648.142 237.3C648.142 237.967 648.092 238.933 647.992 240.2C647.925 241.433 647.825 242.833 647.692 244.4C647.559 245.967 647.425 247.6 647.292 249.3C647.159 251 647.025 252.633 646.892 254.2C646.759 255.733 646.642 257.117 646.542 258.35C646.475 259.583 646.442 260.517 646.442 261.15C646.442 262.017 646.592 262.633 646.892 263C647.225 263.367 647.575 263.633 647.942 263.8C648.309 263.933 648.642 264.033 648.942 264.1C649.275 264.133 649.442 264.233 649.442 264.4C649.442 265.133 649.359 265.867 649.192 266.6C649.025 267.3 648.725 267.95 648.292 268.55C647.859 269.117 647.259 269.583 646.492 269.95C645.759 270.283 644.809 270.45 643.642 270.45ZM651.43 263.85C651.43 260.85 652.78 258.5 655.48 256.8C658.18 255.1 662.163 254.183 667.43 254.05C667.463 253.683 667.48 253.383 667.48 253.15C667.513 252.883 667.53 252.567 667.53 252.2C667.53 251.133 667.33 250.283 666.93 249.65C666.53 249.017 665.697 248.7 664.43 248.7C663.73 248.7 663.163 248.8 662.73 249C662.297 249.2 661.947 249.483 661.68 249.85C661.413 250.183 661.197 250.6 661.03 251.1C660.863 251.6 660.713 252.15 660.58 252.75C660.513 253.05 660.363 253.25 660.13 253.35C659.897 253.417 659.53 253.45 659.03 253.45C655.63 253.45 653.93 252.167 653.93 249.6C653.93 248.567 654.163 247.583 654.63 246.65C655.13 245.717 655.847 244.917 656.78 244.25C657.747 243.55 658.947 243 660.38 242.6C661.813 242.2 663.48 242 665.38 242C669.08 242 671.763 242.767 673.43 244.3C675.097 245.833 675.93 248 675.93 250.8C675.93 251.167 675.88 251.833 675.78 252.8C675.713 253.733 675.613 254.733 675.48 255.8C675.38 256.833 675.28 257.817 675.18 258.75C675.113 259.683 675.08 260.333 675.08 260.7C675.08 261.533 675.23 262.133 675.53 262.5C675.83 262.833 676.163 263.067 676.53 263.2C676.93 263.333 677.28 263.433 677.58 263.5C677.88 263.567 678.03 263.733 678.03 264C678.03 264.733 677.93 265.483 677.73 266.25C677.53 267.017 677.197 267.717 676.73 268.35C676.297 268.983 675.68 269.5 674.88 269.9C674.113 270.3 673.163 270.5 672.03 270.5C670.43 270.5 669.23 270.117 668.43 269.35C667.63 268.583 667.097 267.517 666.83 266.15C666.03 267.317 664.98 268.333 663.68 269.2C662.413 270.067 660.747 270.5 658.68 270.5C657.68 270.5 656.73 270.383 655.83 270.15C654.963 269.917 654.197 269.533 653.53 269C652.897 268.467 652.38 267.783 651.98 266.95C651.613 266.083 651.43 265.05 651.43 263.85ZM666.98 258.15C666.113 258.15 665.263 258.217 664.43 258.35C663.597 258.483 662.847 258.7 662.18 259C661.547 259.267 661.03 259.633 660.63 260.1C660.23 260.567 660.03 261.133 660.03 261.8C660.03 262.567 660.263 263.1 660.73 263.4C661.23 263.7 661.763 263.85 662.33 263.85C662.863 263.85 663.397 263.733 663.93 263.5C664.463 263.267 664.93 262.917 665.33 262.45C665.763 261.95 666.13 261.35 666.43 260.65C666.73 259.95 666.913 259.117 666.98 258.15ZM689.754 261C689.654 262.533 689.537 264 689.404 265.4C689.27 266.767 689.17 267.967 689.104 269C689.07 269.4 688.987 269.667 688.854 269.8C688.72 269.933 688.437 270 688.004 270H686.204C685.17 270 684.32 269.9 683.654 269.7C683.02 269.467 682.504 269.15 682.104 268.75C681.737 268.35 681.47 267.867 681.304 267.3C681.17 266.7 681.104 266.017 681.104 265.25C681.104 264.75 681.12 264.05 681.154 263.15C681.22 262.217 681.32 260.95 681.454 259.35C681.587 257.717 681.737 255.667 681.904 253.2C682.104 250.7 682.337 247.617 682.604 243.95C682.637 243.217 682.72 242.783 682.854 242.65C682.954 242.55 683.22 242.5 683.654 242.5H685.604C686.604 242.5 687.42 242.617 688.054 242.85C688.687 243.083 689.204 243.383 689.604 243.75C690.004 244.117 690.287 244.55 690.454 245.05C690.62 245.55 690.72 246.067 690.754 246.6C691.72 244.8 692.82 243.583 694.054 242.95C695.287 242.317 696.737 242 698.404 242C699.304 242 700.17 242.083 701.004 242.25C701.837 242.417 702.587 242.7 703.254 243.1C703.92 243.5 704.487 244.033 704.954 244.7C705.42 245.333 705.754 246.15 705.954 247.15C706.987 245.217 708.12 243.883 709.354 243.15C710.587 242.383 712.137 242 714.004 242C715.037 242 716.02 242.117 716.954 242.35C717.92 242.55 718.754 242.917 719.454 243.45C720.154 243.983 720.704 244.717 721.104 245.65C721.537 246.55 721.754 247.683 721.754 249.05C721.754 250.083 721.704 251.35 721.604 252.85C721.504 254.35 721.387 255.983 721.254 257.75C721.12 259.483 720.97 261.283 720.804 263.15C720.637 264.983 720.504 266.75 720.404 268.45C720.37 268.817 720.337 269.1 720.304 269.3C720.27 269.5 720.204 269.65 720.104 269.75C720.037 269.85 719.92 269.917 719.754 269.95C719.587 269.983 719.354 270 719.054 270H717.454C716.387 270 715.52 269.9 714.854 269.7C714.187 269.5 713.67 269.217 713.304 268.85C712.937 268.483 712.67 268.033 712.504 267.5C712.37 266.933 712.304 266.3 712.304 265.6C712.304 265.167 712.32 264.55 712.354 263.75C712.42 262.95 712.487 262.083 712.554 261.15C712.654 260.217 712.737 259.25 712.804 258.25C712.904 257.25 712.987 256.333 713.054 255.5C713.154 254.633 713.22 253.883 713.254 253.25C713.32 252.617 713.354 252.2 713.354 252C713.354 251.133 713.17 250.367 712.804 249.7C712.47 249.033 711.804 248.7 710.804 248.7C709.937 248.7 709.187 248.983 708.554 249.55C707.92 250.117 707.387 250.9 706.954 251.9C706.52 252.9 706.17 254.083 705.904 255.45C705.637 256.817 705.454 258.3 705.354 259.9C705.287 260.933 705.204 262.117 705.104 263.45C705.004 264.783 704.887 266.45 704.754 268.45C704.72 268.817 704.687 269.1 704.654 269.3C704.62 269.5 704.554 269.65 704.454 269.75C704.387 269.85 704.27 269.917 704.104 269.95C703.937 269.983 703.704 270 703.404 270H701.804C700.737 270 699.87 269.9 699.204 269.7C698.537 269.5 698.02 269.217 697.654 268.85C697.287 268.483 697.02 268.033 696.854 267.5C696.72 266.933 696.654 266.3 696.654 265.6C696.654 264.933 696.704 263.967 696.804 262.7C696.937 261.4 697.054 260.067 697.154 258.7C697.287 257.3 697.404 255.983 697.504 254.75C697.637 253.483 697.704 252.567 697.704 252C697.704 251.133 697.52 250.367 697.154 249.7C696.82 249.033 696.154 248.7 695.154 248.7C694.254 248.7 693.487 249.033 692.854 249.7C692.22 250.367 691.687 251.267 691.254 252.4C690.854 253.5 690.52 254.8 690.254 256.3C690.02 257.8 689.854 259.367 689.754 261ZM331.07 302C334.203 302 336.553 302.967 338.12 304.9C339.72 306.833 340.52 309.883 340.52 314.05C340.52 316.65 340.22 318.967 339.62 321C339.02 323.033 338.186 324.767 337.12 326.2C336.053 327.6 334.803 328.667 333.37 329.4C331.936 330.133 330.386 330.5 328.72 330.5C326.953 330.5 325.57 330.117 324.57 329.35C323.57 328.583 322.786 327.5 322.22 326.1C322.12 327.3 322.036 328.217 321.97 328.85C321.903 329.483 321.853 329.983 321.82 330.35C321.786 330.75 321.753 331.1 321.72 331.4C321.72 331.7 321.686 332.1 321.62 332.6C321.586 333.1 321.536 333.783 321.47 334.65C321.403 335.517 321.303 336.717 321.17 338.25C321.136 338.65 321.053 338.917 320.92 339.05C320.786 339.183 320.503 339.25 320.07 339.25H318.27C317.236 339.25 316.386 339.133 315.72 338.9C315.086 338.7 314.57 338.4 314.17 338C313.803 337.6 313.536 337.1 313.37 336.5C313.236 335.933 313.17 335.267 313.17 334.5C313.17 334.167 313.22 333.267 313.32 331.8C313.42 330.333 313.536 328.583 313.67 326.55C313.836 324.483 314.003 322.267 314.17 319.9C314.37 317.533 314.553 315.283 314.72 313.15C314.886 310.983 315.02 309.067 315.12 307.4C315.253 305.733 315.353 304.583 315.42 303.95C315.453 303.217 315.536 302.783 315.67 302.65C315.77 302.55 316.036 302.5 316.47 302.5H318.42C320.22 302.5 321.52 302.883 322.32 303.65C323.153 304.383 323.57 305.267 323.57 306.3C324.336 304.767 325.32 303.667 326.52 303C327.753 302.333 329.27 302 331.07 302ZM327.42 308.65C325.72 308.65 324.47 309.383 323.67 310.85C322.87 312.317 322.47 314.317 322.47 316.85C322.47 317.717 322.52 318.567 322.62 319.4C322.753 320.233 322.97 320.983 323.27 321.65C323.57 322.317 323.97 322.85 324.47 323.25C325.003 323.65 325.67 323.85 326.47 323.85C327.903 323.85 329.103 323.15 330.07 321.75C331.036 320.35 331.52 318.15 331.52 315.15C331.52 314.317 331.453 313.517 331.32 312.75C331.22 311.95 331.02 311.25 330.72 310.65C330.42 310.05 330.003 309.567 329.47 309.2C328.936 308.833 328.253 308.65 327.42 308.65ZM355.935 330.5C354.468 330.5 353.002 330.317 351.535 329.95C350.102 329.583 348.802 328.95 347.635 328.05C346.502 327.15 345.568 325.95 344.835 324.45C344.102 322.95 343.735 321.067 343.735 318.8C343.735 317.967 343.802 316.967 343.935 315.8C344.068 314.633 344.318 313.433 344.685 312.2C345.085 310.967 345.618 309.75 346.285 308.55C346.985 307.317 347.885 306.217 348.985 305.25C350.085 304.283 351.418 303.5 352.985 302.9C354.552 302.3 356.418 302 358.585 302C360.318 302 361.785 302.2 362.985 302.6C364.185 303 365.152 303.55 365.885 304.25C366.618 304.917 367.152 305.7 367.485 306.6C367.818 307.5 367.985 308.467 367.985 309.5C367.985 311.033 367.668 312.333 367.035 313.4C366.435 314.467 365.635 315.367 364.635 316.1C363.668 316.8 362.585 317.35 361.385 317.75C360.185 318.15 359.002 318.467 357.835 318.7C356.668 318.9 355.585 319.033 354.585 319.1C353.618 319.133 352.868 319.15 352.335 319.15C352.335 319.783 352.418 320.417 352.585 321.05C352.785 321.65 353.068 322.183 353.435 322.65C353.802 323.117 354.285 323.5 354.885 323.8C355.485 324.1 356.218 324.25 357.085 324.25C357.952 324.25 358.618 324.117 359.085 323.85C359.585 323.55 359.985 323.233 360.285 322.9C360.585 322.533 360.835 322.217 361.035 321.95C361.268 321.65 361.568 321.5 361.935 321.5C362.102 321.5 362.385 321.55 362.785 321.65C363.218 321.717 363.652 321.883 364.085 322.15C364.518 322.417 364.902 322.783 365.235 323.25C365.568 323.717 365.735 324.317 365.735 325.05C365.735 326.017 365.435 326.85 364.835 327.55C364.235 328.25 363.452 328.817 362.485 329.25C361.552 329.683 360.502 330 359.335 330.2C358.168 330.4 357.035 330.5 355.935 330.5ZM356.885 308.65C356.152 308.65 355.518 308.867 354.985 309.3C354.485 309.7 354.052 310.217 353.685 310.85C353.352 311.483 353.085 312.183 352.885 312.95C352.718 313.717 352.585 314.45 352.485 315.15C354.552 315.117 356.218 314.767 357.485 314.1C358.785 313.433 359.435 312.483 359.435 311.25C359.435 310.583 359.218 309.983 358.785 309.45C358.385 308.917 357.752 308.65 356.885 308.65ZM379.646 321C379.546 322.533 379.43 324 379.296 325.4C379.163 326.767 379.063 327.967 378.996 329C378.963 329.4 378.88 329.667 378.746 329.8C378.613 329.933 378.33 330 377.896 330H376.096C375.063 330 374.213 329.9 373.546 329.7C372.913 329.467 372.396 329.15 371.996 328.75C371.63 328.35 371.363 327.867 371.196 327.3C371.063 326.7 370.996 326.017 370.996 325.25C370.996 324.75 371.013 324.05 371.046 323.15C371.113 322.217 371.213 320.95 371.346 319.35C371.48 317.717 371.63 315.667 371.796 313.2C371.996 310.7 372.23 307.617 372.496 303.95C372.53 303.217 372.613 302.783 372.746 302.65C372.846 302.55 373.113 302.5 373.546 302.5H375.496C376.496 302.5 377.313 302.617 377.946 302.85C378.58 303.083 379.096 303.383 379.496 303.75C379.896 304.117 380.18 304.55 380.346 305.05C380.513 305.55 380.613 306.067 380.646 306.6C381.613 304.8 382.713 303.583 383.946 302.95C385.18 302.317 386.63 302 388.296 302C389.196 302 390.063 302.083 390.896 302.25C391.73 302.417 392.48 302.7 393.146 303.1C393.813 303.5 394.38 304.033 394.846 304.7C395.313 305.333 395.646 306.15 395.846 307.15C396.88 305.217 398.013 303.883 399.246 303.15C400.48 302.383 402.03 302 403.896 302C404.93 302 405.913 302.117 406.846 302.35C407.813 302.55 408.646 302.917 409.346 303.45C410.046 303.983 410.596 304.717 410.996 305.65C411.43 306.55 411.646 307.683 411.646 309.05C411.646 310.083 411.596 311.35 411.496 312.85C411.396 314.35 411.28 315.983 411.146 317.75C411.013 319.483 410.863 321.283 410.696 323.15C410.53 324.983 410.396 326.75 410.296 328.45C410.263 328.817 410.23 329.1 410.196 329.3C410.163 329.5 410.096 329.65 409.996 329.75C409.93 329.85 409.813 329.917 409.646 329.95C409.48 329.983 409.246 330 408.946 330H407.346C406.28 330 405.413 329.9 404.746 329.7C404.08 329.5 403.563 329.217 403.196 328.85C402.83 328.483 402.563 328.033 402.396 327.5C402.263 326.933 402.196 326.3 402.196 325.6C402.196 325.167 402.213 324.55 402.246 323.75C402.313 322.95 402.38 322.083 402.446 321.15C402.546 320.217 402.63 319.25 402.696 318.25C402.796 317.25 402.88 316.333 402.946 315.5C403.046 314.633 403.113 313.883 403.146 313.25C403.213 312.617 403.246 312.2 403.246 312C403.246 311.133 403.063 310.367 402.696 309.7C402.363 309.033 401.696 308.7 400.696 308.7C399.83 308.7 399.08 308.983 398.446 309.55C397.813 310.117 397.28 310.9 396.846 311.9C396.413 312.9 396.063 314.083 395.796 315.45C395.53 316.817 395.346 318.3 395.246 319.9C395.18 320.933 395.096 322.117 394.996 323.45C394.896 324.783 394.78 326.45 394.646 328.45C394.613 328.817 394.58 329.1 394.546 329.3C394.513 329.5 394.446 329.65 394.346 329.75C394.28 329.85 394.163 329.917 393.996 329.95C393.83 329.983 393.596 330 393.296 330H391.696C390.63 330 389.763 329.9 389.096 329.7C388.43 329.5 387.913 329.217 387.546 328.85C387.18 328.483 386.913 328.033 386.746 327.5C386.613 326.933 386.546 326.3 386.546 325.6C386.546 324.933 386.596 323.967 386.696 322.7C386.83 321.4 386.946 320.067 387.046 318.7C387.18 317.3 387.296 315.983 387.396 314.75C387.53 313.483 387.596 312.567 387.596 312C387.596 311.133 387.413 310.367 387.046 309.7C386.713 309.033 386.046 308.7 385.046 308.7C384.146 308.7 383.38 309.033 382.746 309.7C382.113 310.367 381.58 311.267 381.146 312.4C380.746 313.5 380.413 314.8 380.146 316.3C379.913 317.8 379.746 319.367 379.646 321ZM427.663 330.5C426.197 330.5 424.73 330.317 423.263 329.95C421.83 329.583 420.53 328.95 419.363 328.05C418.23 327.15 417.297 325.95 416.563 324.45C415.83 322.95 415.463 321.067 415.463 318.8C415.463 317.967 415.53 316.967 415.663 315.8C415.797 314.633 416.047 313.433 416.413 312.2C416.813 310.967 417.347 309.75 418.013 308.55C418.713 307.317 419.613 306.217 420.713 305.25C421.813 304.283 423.147 303.5 424.713 302.9C426.28 302.3 428.147 302 430.313 302C432.047 302 433.513 302.2 434.713 302.6C435.913 303 436.88 303.55 437.613 304.25C438.347 304.917 438.88 305.7 439.213 306.6C439.547 307.5 439.713 308.467 439.713 309.5C439.713 311.033 439.397 312.333 438.763 313.4C438.163 314.467 437.363 315.367 436.363 316.1C435.397 316.8 434.313 317.35 433.113 317.75C431.913 318.15 430.73 318.467 429.563 318.7C428.397 318.9 427.313 319.033 426.313 319.1C425.347 319.133 424.597 319.15 424.063 319.15C424.063 319.783 424.147 320.417 424.313 321.05C424.513 321.65 424.797 322.183 425.163 322.65C425.53 323.117 426.013 323.5 426.613 323.8C427.213 324.1 427.947 324.25 428.813 324.25C429.68 324.25 430.347 324.117 430.813 323.85C431.313 323.55 431.713 323.233 432.013 322.9C432.313 322.533 432.563 322.217 432.763 321.95C432.997 321.65 433.297 321.5 433.663 321.5C433.83 321.5 434.113 321.55 434.513 321.65C434.947 321.717 435.38 321.883 435.813 322.15C436.247 322.417 436.63 322.783 436.963 323.25C437.297 323.717 437.463 324.317 437.463 325.05C437.463 326.017 437.163 326.85 436.563 327.55C435.963 328.25 435.18 328.817 434.213 329.25C433.28 329.683 432.23 330 431.063 330.2C429.897 330.4 428.763 330.5 427.663 330.5ZM428.613 308.65C427.88 308.65 427.247 308.867 426.713 309.3C426.213 309.7 425.78 310.217 425.413 310.85C425.08 311.483 424.813 312.183 424.613 312.95C424.447 313.717 424.313 314.45 424.213 315.15C426.28 315.117 427.947 314.767 429.213 314.1C430.513 313.433 431.163 312.483 431.163 311.25C431.163 310.583 430.947 309.983 430.513 309.45C430.113 308.917 429.48 308.65 428.613 308.65ZM448.525 330.45C446.458 330.45 444.975 329.9 444.075 328.8C443.175 327.7 442.725 325.883 442.725 323.35C442.725 322.95 442.741 322.45 442.775 321.85C442.841 321.25 442.908 320.483 442.975 319.55C443.075 318.583 443.191 317.4 443.325 316C443.458 314.6 443.591 312.9 443.725 310.9C443.891 308.9 444.058 306.55 444.225 303.85C444.425 301.15 444.625 298.017 444.825 294.45C444.858 293.717 444.941 293.283 445.075 293.15C445.175 293.05 445.441 293 445.875 293H447.825C448.825 293 449.658 293.117 450.325 293.35C450.991 293.583 451.525 293.9 451.925 294.3C452.325 294.7 452.608 295.167 452.775 295.7C452.941 296.2 453.025 296.733 453.025 297.3C453.025 297.967 452.975 298.933 452.875 300.2C452.808 301.433 452.708 302.833 452.575 304.4C452.441 305.967 452.308 307.6 452.175 309.3C452.041 311 451.908 312.633 451.775 314.2C451.641 315.733 451.525 317.117 451.425 318.35C451.358 319.583 451.325 320.517 451.325 321.15C451.325 322.017 451.475 322.633 451.775 323C452.108 323.367 452.458 323.633 452.825 323.8C453.191 323.933 453.525 324.033 453.825 324.1C454.158 324.133 454.325 324.233 454.325 324.4C454.325 325.133 454.241 325.867 454.075 326.6C453.908 327.3 453.608 327.95 453.175 328.55C452.741 329.117 452.141 329.583 451.375 329.95C450.641 330.283 449.691 330.45 448.525 330.45ZM462.963 330C461.929 330 461.079 329.9 460.413 329.7C459.779 329.467 459.263 329.15 458.863 328.75C458.496 328.35 458.229 327.867 458.063 327.3C457.929 326.7 457.863 326.017 457.863 325.25C457.863 324.75 457.879 324.05 457.913 323.15C457.979 322.217 458.079 320.95 458.213 319.35C458.346 317.717 458.496 315.667 458.663 313.2C458.863 310.7 459.096 307.617 459.363 303.95C459.396 303.217 459.479 302.783 459.613 302.65C459.713 302.55 459.979 302.5 460.413 302.5H462.363C463.396 302.5 464.229 302.6 464.863 302.8C465.529 303 466.046 303.3 466.413 303.7C466.813 304.1 467.079 304.583 467.213 305.15C467.379 305.717 467.463 306.35 467.463 307.05C467.463 307.55 467.429 308.3 467.363 309.3C467.296 310.3 467.196 311.667 467.063 313.4C466.963 315.1 466.813 317.233 466.613 319.8C466.413 322.333 466.163 325.4 465.863 329C465.829 329.4 465.746 329.667 465.613 329.8C465.479 329.933 465.196 330 464.763 330H462.963ZM459.413 296.6C459.413 295.267 459.896 294.217 460.863 293.45C461.829 292.683 463.129 292.3 464.763 292.3C466.196 292.3 467.229 292.6 467.863 293.2C468.529 293.767 468.863 294.533 468.863 295.5C468.863 296.733 468.396 297.767 467.463 298.6C466.563 299.4 465.229 299.8 463.463 299.8C460.763 299.8 459.413 298.733 459.413 296.6ZM488.475 323.8C488.575 322.7 488.675 321.55 488.775 320.35C488.909 319.15 489.009 318 489.075 316.9C489.175 315.8 489.259 314.817 489.325 313.95C489.392 313.083 489.425 312.45 489.425 312.05C489.425 311.183 489.209 310.417 488.775 309.75C488.375 309.05 487.575 308.7 486.375 308.7C484.775 308.7 483.475 309.45 482.475 310.95C481.509 312.45 480.942 314.45 480.775 316.95C480.709 317.65 480.625 318.633 480.525 319.9C480.425 321.133 480.325 322.4 480.225 323.7C480.125 324.967 480.025 326.117 479.925 327.15C479.859 328.15 479.825 328.767 479.825 329C479.825 329.4 479.742 329.667 479.575 329.8C479.442 329.933 479.159 330 478.725 330H476.925C475.892 330 475.042 329.9 474.375 329.7C473.742 329.467 473.225 329.15 472.825 328.75C472.459 328.35 472.192 327.867 472.025 327.3C471.892 326.7 471.825 326.017 471.825 325.25C471.825 324.517 471.875 323.5 471.975 322.2C472.109 320.867 472.275 319.05 472.475 316.75C472.675 314.417 472.909 311.45 473.175 307.85C473.442 304.25 473.725 299.783 474.025 294.45C474.059 293.717 474.142 293.283 474.275 293.15C474.375 293.05 474.642 293 475.075 293H477.025C478.025 293 478.859 293.117 479.525 293.35C480.192 293.583 480.725 293.9 481.125 294.3C481.525 294.7 481.809 295.167 481.975 295.7C482.142 296.2 482.225 296.733 482.225 297.3C482.225 297.9 482.159 299.017 482.025 300.65C481.925 302.283 481.792 304.2 481.625 306.4C482.625 304.733 483.725 303.583 484.925 302.95C486.159 302.317 487.709 302 489.575 302C490.975 302 492.192 302.15 493.225 302.45C494.259 302.75 495.109 303.267 495.775 304C496.475 304.7 496.992 305.633 497.325 306.8C497.659 307.933 497.825 309.35 497.825 311.05C497.825 311.583 497.775 312.5 497.675 313.8C497.575 315.1 497.442 316.583 497.275 318.25C497.142 319.917 496.992 321.667 496.825 323.5C496.692 325.3 496.575 326.95 496.475 328.45C496.442 328.817 496.409 329.1 496.375 329.3C496.342 329.5 496.275 329.65 496.175 329.75C496.109 329.85 495.992 329.917 495.825 329.95C495.659 329.983 495.425 330 495.125 330H493.525C492.459 330 491.592 329.9 490.925 329.7C490.259 329.5 489.742 329.217 489.375 328.85C489.009 328.483 488.742 328.033 488.575 327.5C488.442 326.933 488.375 326.3 488.375 325.6C488.375 325.267 488.375 324.95 488.375 324.65C488.409 324.35 488.442 324.067 488.475 323.8ZM500.795 323.85C500.795 320.85 502.145 318.5 504.845 316.8C507.545 315.1 511.528 314.183 516.795 314.05C516.828 313.683 516.845 313.383 516.845 313.15C516.878 312.883 516.895 312.567 516.895 312.2C516.895 311.133 516.695 310.283 516.295 309.65C515.895 309.017 515.062 308.7 513.795 308.7C513.095 308.7 512.528 308.8 512.095 309C511.662 309.2 511.312 309.483 511.045 309.85C510.778 310.183 510.562 310.6 510.395 311.1C510.228 311.6 510.078 312.15 509.945 312.75C509.878 313.05 509.728 313.25 509.495 313.35C509.262 313.417 508.895 313.45 508.395 313.45C504.995 313.45 503.295 312.167 503.295 309.6C503.295 308.567 503.528 307.583 503.995 306.65C504.495 305.717 505.212 304.917 506.145 304.25C507.112 303.55 508.312 303 509.745 302.6C511.178 302.2 512.845 302 514.745 302C518.445 302 521.128 302.767 522.795 304.3C524.462 305.833 525.295 308 525.295 310.8C525.295 311.167 525.245 311.833 525.145 312.8C525.078 313.733 524.978 314.733 524.845 315.8C524.745 316.833 524.645 317.817 524.545 318.75C524.478 319.683 524.445 320.333 524.445 320.7C524.445 321.533 524.595 322.133 524.895 322.5C525.195 322.833 525.528 323.067 525.895 323.2C526.295 323.333 526.645 323.433 526.945 323.5C527.245 323.567 527.395 323.733 527.395 324C527.395 324.733 527.295 325.483 527.095 326.25C526.895 327.017 526.562 327.717 526.095 328.35C525.662 328.983 525.045 329.5 524.245 329.9C523.478 330.3 522.528 330.5 521.395 330.5C519.795 330.5 518.595 330.117 517.795 329.35C516.995 328.583 516.462 327.517 516.195 326.15C515.395 327.317 514.345 328.333 513.045 329.2C511.778 330.067 510.112 330.5 508.045 330.5C507.045 330.5 506.095 330.383 505.195 330.15C504.328 329.917 503.562 329.533 502.895 329C502.262 328.467 501.745 327.783 501.345 326.95C500.978 326.083 500.795 325.05 500.795 323.85ZM516.345 318.15C515.478 318.15 514.628 318.217 513.795 318.35C512.962 318.483 512.212 318.7 511.545 319C510.912 319.267 510.395 319.633 509.995 320.1C509.595 320.567 509.395 321.133 509.395 321.8C509.395 322.567 509.628 323.1 510.095 323.4C510.595 323.7 511.128 323.85 511.695 323.85C512.228 323.85 512.762 323.733 513.295 323.5C513.828 323.267 514.295 322.917 514.695 322.45C515.128 321.95 515.495 321.35 515.795 320.65C516.095 319.95 516.278 319.117 516.345 318.15ZM546.619 314.45C546.419 314.45 546.186 314.45 545.919 314.45C545.686 314.417 545.452 314.383 545.219 314.35C544.986 314.283 544.786 314.217 544.619 314.15C544.452 314.05 544.369 313.933 544.369 313.8C544.369 313.367 544.386 312.967 544.419 312.6C544.452 312.233 544.469 311.85 544.469 311.45C544.469 310.717 544.369 310.117 544.169 309.65C543.969 309.183 543.569 308.95 542.969 308.95C542.036 308.95 541.252 309.567 540.619 310.8C540.019 312 539.636 313.817 539.469 316.25C539.402 317.317 539.302 318.533 539.169 319.9C539.069 321.233 538.969 322.533 538.869 323.8C538.769 325.033 538.686 326.133 538.619 327.1C538.552 328.067 538.519 328.7 538.519 329C538.519 329.333 538.402 329.583 538.169 329.75C537.936 329.917 537.686 330 537.419 330H535.619C534.586 330 533.736 329.9 533.069 329.7C532.436 329.467 531.919 329.15 531.519 328.75C531.152 328.35 530.886 327.867 530.719 327.3C530.586 326.7 530.519 326.017 530.519 325.25C530.519 324.75 530.536 324.05 530.569 323.15C530.636 322.217 530.736 320.95 530.869 319.35C531.002 317.717 531.152 315.667 531.319 313.2C531.519 310.7 531.752 307.617 532.019 303.95C532.086 302.983 532.436 302.5 533.069 302.5H535.019C535.952 302.5 536.736 302.6 537.369 302.8C538.002 303 538.519 303.283 538.919 303.65C539.319 303.983 539.602 304.383 539.769 304.85C539.969 305.317 540.102 305.8 540.169 306.3C540.569 305.533 541.036 304.883 541.569 304.35C542.136 303.783 542.719 303.333 543.319 303C543.919 302.633 544.536 302.383 545.169 302.25C545.802 302.083 546.386 302 546.919 302C547.552 302 548.186 302.117 548.819 302.35C549.486 302.583 550.086 302.933 550.619 303.4C551.152 303.867 551.569 304.467 551.869 305.2C552.202 305.933 552.369 306.8 552.369 307.8C552.369 308.7 552.236 309.55 551.969 310.35C551.702 311.15 551.319 311.867 550.819 312.5C550.319 313.1 549.702 313.583 548.969 313.95C548.269 314.283 547.486 314.45 546.619 314.45ZM552.699 323.85C552.699 320.85 554.049 318.5 556.749 316.8C559.449 315.1 563.433 314.183 568.699 314.05C568.733 313.683 568.749 313.383 568.749 313.15C568.783 312.883 568.799 312.567 568.799 312.2C568.799 311.133 568.599 310.283 568.199 309.65C567.799 309.017 566.966 308.7 565.699 308.7C564.999 308.7 564.433 308.8 563.999 309C563.566 309.2 563.216 309.483 562.949 309.85C562.683 310.183 562.466 310.6 562.299 311.1C562.133 311.6 561.983 312.15 561.849 312.75C561.783 313.05 561.633 313.25 561.399 313.35C561.166 313.417 560.799 313.45 560.299 313.45C556.899 313.45 555.199 312.167 555.199 309.6C555.199 308.567 555.433 307.583 555.899 306.65C556.399 305.717 557.116 304.917 558.049 304.25C559.016 303.55 560.216 303 561.649 302.6C563.083 302.2 564.749 302 566.649 302C570.349 302 573.033 302.767 574.699 304.3C576.366 305.833 577.199 308 577.199 310.8C577.199 311.167 577.149 311.833 577.049 312.8C576.983 313.733 576.883 314.733 576.749 315.8C576.649 316.833 576.549 317.817 576.449 318.75C576.383 319.683 576.349 320.333 576.349 320.7C576.349 321.533 576.499 322.133 576.799 322.5C577.099 322.833 577.433 323.067 577.799 323.2C578.199 323.333 578.549 323.433 578.849 323.5C579.149 323.567 579.299 323.733 579.299 324C579.299 324.733 579.199 325.483 578.999 326.25C578.799 327.017 578.466 327.717 577.999 328.35C577.566 328.983 576.949 329.5 576.149 329.9C575.383 330.3 574.433 330.5 573.299 330.5C571.699 330.5 570.499 330.117 569.699 329.35C568.899 328.583 568.366 327.517 568.099 326.15C567.299 327.317 566.249 328.333 564.949 329.2C563.683 330.067 562.016 330.5 559.949 330.5C558.949 330.5 557.999 330.383 557.099 330.15C556.233 329.917 555.466 329.533 554.799 329C554.166 328.467 553.649 327.783 553.249 326.95C552.883 326.083 552.699 325.05 552.699 323.85ZM568.249 318.15C567.383 318.15 566.533 318.217 565.699 318.35C564.866 318.483 564.116 318.7 563.449 319C562.816 319.267 562.299 319.633 561.899 320.1C561.499 320.567 561.299 321.133 561.299 321.8C561.299 322.567 561.533 323.1 561.999 323.4C562.499 323.7 563.033 323.85 563.599 323.85C564.133 323.85 564.666 323.733 565.199 323.5C565.733 323.267 566.199 322.917 566.599 322.45C567.033 321.95 567.399 321.35 567.699 320.65C567.999 319.95 568.183 319.117 568.249 318.15ZM599.423 325.6C599.423 324.867 599.473 323.917 599.573 322.75C599.707 321.55 599.823 320.3 599.923 319C600.057 317.667 600.173 316.383 600.273 315.15C600.407 313.917 600.473 312.883 600.473 312.05C600.473 311.183 600.257 310.417 599.823 309.75C599.423 309.05 598.623 308.7 597.423 308.7C596.257 308.7 595.29 308.983 594.523 309.55C593.757 310.117 593.107 311.15 592.573 312.65C592.073 314.15 591.657 316.217 591.323 318.85C590.99 321.483 590.673 324.867 590.373 329C590.34 329.4 590.257 329.667 590.123 329.8C589.99 329.933 589.707 330 589.273 330H587.473C586.44 330 585.59 329.9 584.923 329.7C584.29 329.467 583.773 329.15 583.373 328.75C583.007 328.35 582.74 327.867 582.573 327.3C582.44 326.7 582.373 326.017 582.373 325.25C582.373 324.75 582.39 324.05 582.423 323.15C582.49 322.217 582.59 320.95 582.723 319.35C582.857 317.717 583.007 315.667 583.173 313.2C583.373 310.7 583.607 307.617 583.873 303.95C583.907 303.217 583.99 302.783 584.123 302.65C584.223 302.55 584.49 302.5 584.923 302.5H586.873C587.873 302.5 588.69 302.617 589.323 302.85C589.99 303.083 590.523 303.4 590.923 303.8C591.323 304.167 591.607 304.617 591.773 305.15C591.94 305.65 592.04 306.167 592.073 306.7C593.107 304.933 594.29 303.717 595.623 303.05C596.957 302.35 598.623 302 600.623 302C602.023 302 603.24 302.15 604.273 302.45C605.307 302.75 606.157 303.267 606.823 304C607.523 304.7 608.04 305.633 608.373 306.8C608.707 307.933 608.873 309.35 608.873 311.05C608.873 311.583 608.84 312.35 608.773 313.35C608.707 314.35 608.623 315.45 608.523 316.65C608.423 317.817 608.307 319.05 608.173 320.35C608.073 321.617 607.973 322.8 607.873 323.9C607.773 325 607.69 325.967 607.623 326.8C607.557 327.633 607.523 328.183 607.523 328.45C607.523 329.183 607.44 329.633 607.273 329.8C607.107 329.933 606.74 330 606.173 330H604.573C603.507 330 602.64 329.9 601.973 329.7C601.307 329.5 600.79 329.217 600.423 328.85C600.057 328.483 599.79 328.033 599.623 327.5C599.49 326.933 599.423 326.3 599.423 325.6Z" fill="#6614BE"/>
<path d="M395.528 183.8C393.288 183.8 391.101 183.587 388.968 183.16C386.888 182.733 385.021 182.12 383.368 181.32C381.715 180.467 380.381 179.427 379.368 178.2C378.408 176.92 377.928 175.427 377.928 173.72C377.928 171.533 378.755 169.827 380.408 168.6C382.115 167.32 384.515 166.68 387.608 166.68C388.035 166.68 388.355 166.733 388.568 166.84C388.781 166.947 388.941 167.213 389.048 167.64C389.208 168.387 389.555 169 390.088 169.48C390.621 169.96 391.235 170.333 391.928 170.6C392.621 170.867 393.315 171.053 394.008 171.16C394.755 171.267 395.421 171.32 396.008 171.32C397.608 171.32 398.941 171.053 400.008 170.52C401.128 169.933 402.008 169.213 402.648 168.36C403.341 167.453 403.821 166.467 404.088 165.4C404.408 164.28 404.568 163.213 404.568 162.2C404.568 161.4 404.461 160.627 404.248 159.88C404.088 159.08 403.795 158.387 403.368 157.8C402.995 157.213 402.461 156.733 401.768 156.36C401.128 155.987 400.301 155.8 399.288 155.8C398.328 155.8 397.448 156.013 396.648 156.44C395.901 156.867 395.341 157.64 394.968 158.76C394.755 159.613 394.355 160.04 393.768 160.04H389.368C387.821 160.04 386.541 159.907 385.528 159.64C384.568 159.373 383.795 159 383.208 158.52C382.675 157.987 382.301 157.347 382.088 156.6C381.875 155.8 381.768 154.893 381.768 153.88C381.768 152.6 381.875 150.733 382.088 148.28C382.355 145.773 382.648 143.16 382.968 140.44C383.341 137.72 383.688 135.16 384.008 132.76C384.328 130.307 384.568 128.52 384.728 127.4C384.781 126.6 385.235 126.2 386.088 126.2H416.648C416.968 126.2 417.261 126.28 417.528 126.44C417.795 126.6 417.928 126.893 417.928 127.32L417.608 132.04C417.501 133.64 417.048 134.947 416.248 135.96C415.501 136.92 413.928 137.4 411.528 137.4H397.048L395.368 149.56C396.115 148.867 397.181 148.333 398.568 147.96C400.008 147.533 401.581 147.32 403.288 147.32C405.581 147.32 407.661 147.72 409.528 148.52C411.395 149.267 412.968 150.333 414.248 151.72C415.528 153.053 416.515 154.68 417.208 156.6C417.901 158.52 418.248 160.627 418.248 162.92C418.248 165.427 417.821 167.933 416.968 170.44C416.115 172.893 414.755 175.133 412.888 177.16C411.075 179.133 408.728 180.733 405.848 181.96C402.968 183.187 399.528 183.8 395.528 183.8ZM451.412 125.32C454.932 125.32 457.919 125.88 460.372 127C462.825 128.067 464.825 129.667 466.372 131.8C467.919 133.88 469.039 136.44 469.732 139.48C470.479 142.467 470.852 145.88 470.852 149.72C470.852 151.853 470.719 154.173 470.452 156.68C470.185 159.187 469.705 161.72 469.012 164.28C468.319 166.787 467.359 169.213 466.132 171.56C464.905 173.907 463.332 175.987 461.412 177.8C459.492 179.613 457.172 181.08 454.452 182.2C451.785 183.267 448.612 183.8 444.932 183.8C440.985 183.8 437.705 183.133 435.092 181.8C432.532 180.467 430.452 178.68 428.852 176.44C427.305 174.147 426.212 171.453 425.572 168.36C424.932 165.267 424.612 161.96 424.612 158.44C424.612 154.28 425.039 150.227 425.892 146.28C426.799 142.28 428.292 138.733 430.372 135.64C432.452 132.547 435.199 130.067 438.612 128.2C442.079 126.28 446.345 125.32 451.412 125.32ZM449.732 137.72C448.239 137.72 446.932 138.067 445.812 138.76C444.745 139.4 443.812 140.28 443.012 141.4C442.265 142.52 441.652 143.773 441.172 145.16C440.745 146.547 440.399 147.987 440.132 149.48C439.865 150.92 439.679 152.333 439.572 153.72C439.519 155.053 439.492 156.253 439.492 157.32C439.492 162.173 440.079 165.72 441.252 167.96C442.479 170.2 444.212 171.32 446.452 171.32C448.425 171.32 450.025 170.547 451.252 169C452.532 167.4 453.519 165.507 454.212 163.32C454.905 161.08 455.359 158.787 455.572 156.44C455.839 154.04 455.972 152.013 455.972 150.36C455.972 146.467 455.492 143.4 454.532 141.16C453.572 138.867 451.972 137.72 449.732 137.72ZM493.028 183.8C490.788 183.8 488.601 183.587 486.468 183.16C484.388 182.733 482.521 182.12 480.868 181.32C479.215 180.467 477.881 179.427 476.868 178.2C475.908 176.92 475.428 175.427 475.428 173.72C475.428 171.533 476.255 169.827 477.908 168.6C479.615 167.32 482.015 166.68 485.108 166.68C485.535 166.68 485.855 166.733 486.068 166.84C486.281 166.947 486.441 167.213 486.548 167.64C486.708 168.387 487.055 169 487.588 169.48C488.121 169.96 488.735 170.333 489.428 170.6C490.121 170.867 490.815 171.053 491.508 171.16C492.255 171.267 492.921 171.32 493.508 171.32C495.108 171.32 496.441 171.053 497.508 170.52C498.628 169.933 499.508 169.213 500.148 168.36C500.841 167.453 501.321 166.467 501.588 165.4C501.908 164.28 502.068 163.213 502.068 162.2C502.068 161.4 501.961 160.627 501.748 159.88C501.588 159.08 501.295 158.387 500.868 157.8C500.495 157.213 499.961 156.733 499.268 156.36C498.628 155.987 497.801 155.8 496.788 155.8C495.828 155.8 494.948 156.013 494.148 156.44C493.401 156.867 492.841 157.64 492.468 158.76C492.255 159.613 491.855 160.04 491.268 160.04H486.868C485.321 160.04 484.041 159.907 483.028 159.64C482.068 159.373 481.295 159 480.708 158.52C480.175 157.987 479.801 157.347 479.588 156.6C479.375 155.8 479.268 154.893 479.268 153.88C479.268 152.6 479.375 150.733 479.588 148.28C479.855 145.773 480.148 143.16 480.468 140.44C480.841 137.72 481.188 135.16 481.508 132.76C481.828 130.307 482.068 128.52 482.228 127.4C482.281 126.6 482.735 126.2 483.588 126.2H514.148C514.468 126.2 514.761 126.28 515.028 126.44C515.295 126.6 515.428 126.893 515.428 127.32L515.108 132.04C515.001 133.64 514.548 134.947 513.748 135.96C513.001 136.92 511.428 137.4 509.028 137.4H494.548L492.868 149.56C493.615 148.867 494.681 148.333 496.068 147.96C497.508 147.533 499.081 147.32 500.788 147.32C503.081 147.32 505.161 147.72 507.028 148.52C508.895 149.267 510.468 150.333 511.748 151.72C513.028 153.053 514.015 154.68 514.708 156.6C515.401 158.52 515.748 160.627 515.748 162.92C515.748 165.427 515.321 167.933 514.468 170.44C513.615 172.893 512.255 175.133 510.388 177.16C508.575 179.133 506.228 180.733 503.348 181.96C500.468 183.187 497.028 183.8 493.028 183.8Z" fill="#6614BE"/>
<g filter="url(#filter1_d_1280_210)">
<path d="M83 702.248C89.4105 721.791 105.061 722.542 128.993 728.737C129.657 728.909 130.351 729.002 131.037 728.995C153.568 728.785 172 721.651 172 702.248C172 682.548 159.077 675 134.5 675C109.923 675 83 682.548 83 702.248Z" fill="#FAFAFA"/>
</g>
<g filter="url(#filter2_d_1280_210)">
<path d="M3.99999 609.78C12.2461 631.951 32.4286 632.712 63.3032 639.793C63.8959 639.929 64.5128 640.001 65.1209 639.997C94.1671 639.833 118 631.802 118 609.78C118 587.526 101.447 579 69.9663 579C38.4861 579 3.99999 587.526 3.99999 609.78Z" fill="#FAFAFA"/>
</g>
<g filter="url(#filter3_d_1280_210)">
<path d="M58 506.78C66.2461 528.951 86.4286 529.712 117.303 536.793C117.896 536.929 118.513 537.001 119.121 536.997C148.167 536.833 172 528.802 172 506.78C172 484.526 155.447 476 123.966 476C92.4861 476 58 484.526 58 506.78Z" fill="#FAFAFA"/>
</g>
<g filter="url(#filter4_d_1280_210)">
<path d="M149 788.248C155.41 807.791 171.061 808.542 194.993 814.737C195.657 814.909 196.351 815.002 197.037 814.995C219.568 814.785 238 807.651 238 788.248C238 768.548 225.077 761 200.5 761C175.923 761 149 768.548 149 788.248Z" fill="#FAFAFA"/>
</g>
<path d="M229 935C229 933.895 229.895 933 231 933H236C237.105 933 238 933.895 238 935V940C238 941.105 237.105 942 236 942H231C229.895 942 229 941.105 229 940V935Z" fill="#9C9C9C"/>
<path d="M242 935C242 933.895 242.895 933 244 933H249C250.105 933 251 933.895 251 935V940C251 941.105 250.105 942 249 942H244C242.895 942 242 941.105 242 940V935Z" fill="#9C9C9C"/>
<path d="M255 935C255 933.895 255.895 933 257 933H262C263.105 933 264 933.895 264 935V940C264 941.105 263.105 942 262 942H257C255.895 942 255 941.105 255 940V935Z" fill="#9C9C9C"/>
<path d="M259.513 937.988L279.804 937.989C282.709 937.989 285.386 939.564 286.797 942.104L302.164 969.763C303.608 972.363 306.375 973.947 309.348 973.876L828.501 961.494L862.114 961.496C864.278 961.496 866.35 962.373 867.857 963.927L872.38 968.591C876.546 972.888 874.692 980.071 868.966 981.814L847 988.5" stroke="#4D4C4C" stroke-width="6"/>
<path d="M429 935C429 933.895 429.895 933 431 933H436C437.105 933 438 933.895 438 935V940C438 941.105 437.105 942 436 942H431C429.895 942 429 941.105 429 940V935Z" fill="#9C9C9C"/>
<path d="M442 935C442 933.895 442.895 933 444 933H449C450.105 933 451 933.895 451 935V940C451 941.105 450.105 942 449 942H444C442.895 942 442 941.105 442 940V935Z" fill="#9C9C9C"/>
<path d="M455 935C455 933.895 455.895 933 457 933H462C463.105 933 464 933.895 464 935V940C464 941.105 463.105 942 462 942H457C455.895 942 455 941.105 455 940V935Z" fill="#9C9C9C"/>
<path d="M406.626 897.355C404.943 901.43 404.174 903.292 404.338 907.124C407.924 918.334 420.849 924.823 434.613 923.563C448.246 922.314 462.197 913.412 467.002 894.299C467.755 889.207 468.605 884.106 469.439 879.11L469.452 879.03C470.287 874.022 471.104 869.121 471.798 864.4C473.196 854.882 474.068 846.243 473.59 839.134C473.11 831.987 471.293 826.8 467.726 823.718C464.226 820.694 458.541 819.278 449.284 820.836C447.184 821.624 445.238 822.348 443.435 823.019C436.842 825.473 432.15 827.219 428.721 828.79C424.35 830.792 422.46 832.331 421.372 834.283C420.2 836.386 419.785 839.22 419.175 844.444C419.145 844.703 419.114 844.966 419.083 845.235C418.499 850.259 417.712 857.029 415.753 866.394C412.314 882.828 409.288 890.855 407.173 896.027C406.981 896.496 406.799 896.937 406.626 897.355Z" fill="white" stroke="black" stroke-width="4"/>
<path d="M636.855 815.719C642.874 831.87 646.422 849.723 647.562 857.612C647.462 857.701 647.362 857.807 647.27 857.934C647.24 857.975 647.211 858.018 647.183 858.064C646.805 858.179 646.32 858.314 645.705 858.47C643.583 859.011 640.057 859.77 634.313 860.812C621.859 862.251 610.381 860.926 601.906 857.712C593.313 854.453 588.354 849.501 587.716 844.021C586.967 837.58 586.605 823.201 589.548 810.142C592.535 796.886 598.624 786.135 609.941 784.818C615.304 784.194 620.29 787.156 624.942 792.933C629.576 798.689 633.559 806.874 636.855 815.719Z" fill="#00FFC5" stroke="black" stroke-width="4"/>
<path d="M631.073 855.229C631.318 855.989 631.411 856.84 631.327 857.583C627.313 893.254 619.435 925.425 602.953 949.918C586.56 974.28 561.515 991.254 522.614 996.338C521.987 996.42 521.297 996.382 520.674 996.231C482.676 987.026 461.801 971.636 448.712 949.827C435.482 927.782 430.034 898.953 423.585 862.261C423.528 861.942 423.5 861.632 423.492 861.284C423.457 859.562 423.31 857.518 423.145 855.211C422.378 844.51 421.205 828.153 428.805 812.13C437.882 792.993 459.896 773.851 512.763 767.598C513.196 767.547 513.713 767.551 514.169 767.608C539.932 770.872 557.483 769.15 570.031 766.963C573.155 766.418 575.96 765.846 578.48 765.322C578.851 765.245 579.216 765.169 579.573 765.094C581.657 764.66 583.514 764.272 585.221 763.965C589.273 763.236 592.051 763.052 594.295 763.633C596.387 764.174 598.306 765.466 600.403 768.435C602.552 771.48 604.768 776.121 607.428 783.105C611.135 792.84 615.554 806.701 621.802 826.302C624.516 834.817 627.576 844.415 631.073 855.229Z" fill="white" stroke="black" stroke-width="5"/>
<path d="M608.483 863.555L583.127 816.608L602.819 798.837L622.429 843.94L608.483 863.555Z" fill="#171632" stroke="#494949"/>
<path d="M630.246 823.835L617.616 789.611L603.384 798.267L622.804 842.558L630.246 823.835Z" fill="#F0F0F0" stroke="#494949"/>
<path d="M586 818L603 803.5L604.5 806.5L588.5 821L586 818Z" fill="#575757"/>
<path d="M589 822.257L605.5 808.5L606.5 811.5L591.368 825L589 822.257Z" fill="#575757"/>
<path d="M602 854.757L619 840.5L620 843L604.368 857.5L602 854.757Z" fill="#575757"/>
<path d="M670.5 648.367C670.5 687.92 646.979 727.923 608.968 758.135C570.997 788.316 518.816 808.5 462.098 808.5C414.042 808.5 363.565 800.411 325.18 776.386C286.977 752.475 260.5 712.632 260.5 648.367C260.5 608.747 283.239 566.542 320.417 534.16C357.554 501.814 408.857 479.5 465.5 479.5C522.36 479.5 573.658 495.393 610.683 524.409C647.654 553.383 670.5 595.512 670.5 648.367Z" fill="white" stroke="black" stroke-width="5"/>
<path d="M478.077 919.318C478.465 923.709 478.642 925.717 480.556 929.04C488.911 937.329 503.373 937.121 515.001 929.649C526.519 922.249 534.786 907.913 530.226 888.74C528.544 883.875 526.944 878.958 525.377 874.14L525.352 874.063C523.781 869.235 522.244 864.51 520.681 860.003C517.528 850.913 514.314 842.847 510.609 836.761C506.884 830.643 502.878 826.88 498.291 825.793C493.79 824.725 488.094 826.094 480.601 831.748C479.101 833.416 477.71 834.956 476.42 836.384C471.703 841.604 468.347 845.319 466.03 848.295C463.077 852.089 462.111 854.326 462.046 856.56C461.977 858.967 462.917 861.672 464.788 866.588C464.88 866.832 464.975 867.079 465.071 867.332C466.872 872.059 469.299 878.427 471.883 887.64C476.417 903.806 477.438 912.323 477.949 917.888C477.995 918.392 478.037 918.868 478.077 919.318Z" fill="white" stroke="black" stroke-width="4"/>
<path d="M547.565 723.241C519.566 750.046 474.43 761.088 416.877 731.589C351.454 786.079 300.903 746.175 284.785 709.015C244.949 617.177 331.161 549.66 451.469 553.538C574.059 568.496 602.841 662.928 547.565 723.241Z" fill="black"/>
<path d="M602 805.998V805.998C599.496 807.649 598.817 811.023 600.487 813.513L604.5 819.498L611 831.498L616.194 841.414C616.395 841.798 616.5 842.224 616.5 842.658V842.658C616.5 843.501 616.103 844.296 615.428 844.802L615.124 845.03C613.655 846.132 611.58 845.886 610.409 844.471L589.313 818.982C588.852 818.425 588.891 817.608 589.402 817.097V817.097C589.467 817.032 589.539 816.973 589.615 816.922L591 815.999" stroke="#00C142"/>
<path d="M594 813L591.208 815.601C590.14 816.595 590.91 818.38 592.366 818.286L592.902 818.251C593.463 818.215 593.946 818.641 593.981 819.202V819.202C593.994 819.396 594.061 819.584 594.177 819.741L612.982 845.297C613.281 845.703 613.83 845.835 614.281 845.609L614.415 845.543C614.471 845.515 614.533 845.5 614.595 845.5V845.5C614.819 845.5 615 845.319 615 845.095L615 845" stroke="#D80109"/>
<path d="M324.903 697.643C324.255 697.311 324.647 697.047 325.353 697.225C330.96 698.641 340.377 696.095 351.922 695.934C362.582 695.432 373.914 694.472 376.037 690.403C369.301 703.31 364.294 702.159 351.938 702.332C341.588 702.477 328.185 699.324 324.903 697.643Z" fill="#84F6D5"/>
<path d="M503.643 688.413C504.287 687.886 503.751 687.632 502.99 687.971C496.866 690.692 485.731 688.65 472.595 690.124C460.4 691.011 447.363 691.381 444.24 686.218C454.144 702.594 459.631 700.311 473.694 698.734C485.548 697.403 500.327 691.13 503.643 688.413Z" fill="#84F6D5"/>
<path d="M618.888 862.984C625.698 884.028 629.906 907.222 631.251 917.096C631.099 917.225 630.943 917.397 630.813 917.621C630.776 917.684 630.742 917.75 630.712 917.819C630.333 917.95 629.848 918.103 629.233 918.28C627.059 918.904 623.432 919.768 617.507 920.932C604.682 922.411 592.781 920.427 583.916 916.125C575.009 911.802 569.424 905.294 568.553 897.806C567.59 889.532 566.818 871.16 569.535 854.543C570.896 846.226 573.106 838.507 576.492 832.731C579.858 826.988 584.255 823.363 590.017 822.693C595.396 822.067 600.685 825.864 605.794 833.509C610.822 841.032 615.212 851.624 618.888 862.984Z" fill="#00FFC5" stroke="black" stroke-width="4"/>
<path d="M602 806V806C602.492 805.508 603.321 805.642 603.633 806.265L605.001 808.999L605.277 809.829C605.414 810.24 605.306 810.694 605 811V811" stroke="#00C142"/>
<path d="M591 816.001L591.356 815.717C593.074 814.346 595.625 814.982 596.499 816.999V816.999L596.499 817.499V817.499C596.907 818.03 597.687 818.087 598.168 817.621L604.999 810.999" stroke="#00C142"/>
<path d="M597.5 809.999V809.999C599.821 808.194 603.214 808.979 604.506 811.62L613.5 829.999L618.705 841.356C618.882 841.743 618.801 842.198 618.5 842.499V842.499" stroke="#FFD336"/>
<path d="M596 819.001V819.001C596.002 819.166 596.052 819.327 596.143 819.464L596.409 819.862C596.472 819.956 596.544 820.044 596.624 820.124L597.108 820.608C597.344 820.844 597.704 820.903 598.003 820.753V820.753L598.503 820.503L600.003 819.503V819.503C600.565 819.222 601.25 819.426 601.566 819.969L604.503 825.004L610.003 834.504L614.704 841.764L616.312 842.725C617.011 843.142 617.9 843.05 618.499 842.5V842.5" stroke="#FFD336"/>
<path d="M598.5 815.499V815.499C599.383 814.513 600.981 814.72 601.584 815.899L610.688 833.703L615.471 843.02C615.668 843.403 615.77 843.827 615.77 844.257L615.77 844.431C615.77 844.476 615.766 844.521 615.758 844.566L615.625 845.303C615.572 845.597 615.211 845.71 615 845.499V845.499" stroke="#D80109"/>
<path d="M594 813V813C594.764 812.378 595.876 813.103 595.614 814.053L594.835 816.881V816.881C594.616 817.689 595.599 818.273 596.204 817.695L598.5 815.5" stroke="#D80109"/>
<circle cx="591" cy="816" r="1" fill="#171632"/>
<circle cx="598.5" cy="815.5" r="1" fill="#171632"/>
<circle cx="597.5" cy="809.5" r="1" fill="#171632"/>
<circle cx="596.402" cy="819.402" r="1" transform="rotate(127.38 596.402 819.402)" fill="#171632"/>
<path d="M590 814.5L591 815L590 816L589.5 815L590 814.5Z" fill="#171632"/>
<path d="M597.5 814L598.5 814.5L597.5 815.5L597 814.5L597.5 814Z" fill="#171632"/>
<path d="M596.5 808L597.5 808.5L596.5 809.5L596 808.5L596.5 808Z" fill="#171632"/>
<path d="M598.203 819.514L597.199 820.005L597.012 818.604L598.11 818.813L598.5 819.001L598.203 819.514Z" fill="#171632"/>
<path d="M614 844.5L619 840.5L620.5 844L615.5 848L614 844.5Z" fill="#18172D" fill-opacity="0.81"/>
<path d="M538 799.501L541.501 841.999L550.001 891.999L562.671 941.219C562.889 942.067 563.245 942.873 563.725 943.605L580.999 970" stroke="#F4F4F4"/>
<path d="M642.38 806.811C646.037 804.078 646.669 798.842 643.766 795.317L642.205 793.422L710.15 801.728L706.334 809.375L642.189 806.954L642.38 806.811Z" fill="#C0C0C0"/>
<path d="M648.541 798.999C648.438 807.283 641.639 813.915 633.356 813.812C614.933 798.582 640.828 807.188 640.931 798.905C641.034 790.621 613.47 795.563 633.728 783.814C642.012 783.917 648.644 790.716 648.541 798.999Z" fill="#C0C0C0"/>
<rect x="681.2" y="791.2" width="34.6" height="23.6" rx="1.8" fill="#D9D9D9" stroke="#B6B6B6" stroke-width="0.4"/>
<g filter="url(#filter5_d_1280_210)">
<path d="M649 993.156L785.235 971.186L879 1010.91L734.068 1034.35L649 993.156Z" fill="#D9D9D9"/>
<path d="M735.595 1007.44L877.345 993.156V1016.77L735.595 1036V1007.44Z" fill="#E9E9E9"/>
<path d="M649.552 971.185L785.235 950.312V971.185L649.552 993.156V971.185Z" fill="#E9E9E9"/>
<path d="M649.552 970.637L736.698 1007.2V1036L649.552 993.706V970.637Z" fill="#E9E9E9"/>
<path d="M785.235 949.764L876.794 993.156L870.726 1014.03L785.235 971.734V949.764Z" fill="#E9E9E9"/>
<path d="M649.552 971.829L785.787 950.312L874.588 992.606L734.416 1009.08L649.552 971.829Z" fill="#D9D9D9"/>
</g>
<path d="M743 851H746.859H786V978L747.962 977.453L743.551 974.716L743 851Z" fill="#E4E3E4"/>
<rect x="759.15" y="851.15" width="17.7" height="130.7" fill="#E4E3E4" stroke="#CBCBCB" stroke-width="0.3"/>
<path d="M747 851H759V982L747 978.147V851Z" fill="#7108E2"/>
<path d="M777 851H786V977.43L777 982V851Z" fill="#E7E6E6"/>
<path d="M786 850H789V970.276L786 978V850Z" fill="#7108E2"/>
<path d="M702 766.736L798 764L785.931 851H724.491L702 766.736Z" fill="#F1F1F1"/>
<path d="M721 838H787L785.891 851H724.328L721 838Z" fill="#7108E2"/>
<path d="M797.087 764H837L819.261 839.658L786 850L797.087 764Z" fill="#F1F1F1"/>
<path d="M787.111 838.289L821 830L819.333 839.947L786 851L787.111 838.289Z" fill="#7108E2"/>
<path d="M742.296 735H802.741L838 763.07L702 767L742.296 735Z" fill="#CACACA"/>
<path d="M798.276 735H822.201L838 762.273L790 765L798.276 735Z" fill="#7A15E8"/>
<ellipse cx="762" cy="805.5" rx="21" ry="17.5" fill="#E2E2E2"/>
<path d="M680.031 810.726C680.01 809.732 680.799 808.909 681.793 808.888L760.424 807.233C761.253 807.215 761.986 807.766 762.201 808.567L765.214 819.835C765.496 820.89 764.782 821.951 763.699 822.086L682.471 832.251C681.411 832.384 680.47 831.57 680.447 830.503L680.031 810.726Z" fill="#D9D9D9" stroke="#B6B6B6" stroke-width="0.4"/>
<path d="M630.672 819.057C630.779 819.019 630.891 819 631.005 819H644C644.552 819 645 819.448 645 820C645 820.552 644.552 821 644 821H631.005C630.891 821 630.779 820.981 630.672 820.943C629.782 820.629 629.782 819.371 630.672 819.057Z" fill="#D9D9D9"/>
<rect x="641" y="817" width="39" height="6" fill="#ECDB40"/>
<path d="M449 1008V1026.5V1076.5H414L449 1008Z" fill="#938C8C"/>
<path d="M449 1008V1026.5V1076.5H414L449 1008Z" fill="#938C8C"/>
<path d="M610 1009V1027.36V1077H645L610 1009Z" fill="#938C8C"/>
<path d="M532.5 1050L528 1075L516 1123H551L532.5 1050Z" fill="#938C8C"/>
<defs>
<filter id="filter0_d_1280_210" x="75" y="0" width="781.5" height="467.277" filterUnits="userSpaceOnUse" color-interpolation-filters="sRGB">
<feFlood flood-opacity="0" result="BackgroundImageFix"/>
<feColorMatrix in="SourceAlpha" type="matrix" values="0 0 0 0 0 0 0 0 0 0 0 0 0 0 0 0 0 0 127 0" result="hardAlpha"/>
<feOffset dy="4"/>
<feGaussianBlur stdDeviation="2"/>
<feComposite in2="hardAlpha" operator="out"/>
<feColorMatrix type="matrix" values="0 0 0 0 0.770833 0 0 0 0 0.770833 0 0 0 0 0.770833 0 0 0 0.25 0"/>
<feBlend mode="normal" in2="BackgroundImageFix" result="effect1_dropShadow_1280_210"/>
<feBlend mode="normal" in="SourceGraphic" in2="effect1_dropShadow_1280_210" result="shape"/>
</filter>
<filter id="filter1_d_1280_210" x="79" y="675" width="97" height="61.9961" filterUnits="userSpaceOnUse" color-interpolation-filters="sRGB">
<feFlood flood-opacity="0" result="BackgroundImageFix"/>
<feColorMatrix in="SourceAlpha" type="matrix" values="0 0 0 0 0 0 0 0 0 0 0 0 0 0 0 0 0 0 127 0" result="hardAlpha"/>
<feOffset dy="4"/>
<feGaussianBlur stdDeviation="2"/>
<feComposite in2="hardAlpha" operator="out"/>
<feColorMatrix type="matrix" values="0 0 0 0 0.770833 0 0 0 0 0.770833 0 0 0 0 0.770833 0 0 0 0.25 0"/>
<feBlend mode="normal" in2="BackgroundImageFix" result="effect1_dropShadow_1280_210"/>
<feBlend mode="normal" in="SourceGraphic" in2="effect1_dropShadow_1280_210" result="shape"/>
</filter>
<filter id="filter2_d_1280_210" x="0" y="579" width="122" height="68.998" filterUnits="userSpaceOnUse" color-interpolation-filters="sRGB">
<feFlood flood-opacity="0" result="BackgroundImageFix"/>
<feColorMatrix in="SourceAlpha" type="matrix" values="0 0 0 0 0 0 0 0 0 0 0 0 0 0 0 0 0 0 127 0" result="hardAlpha"/>
<feOffset dy="4"/>
<feGaussianBlur stdDeviation="2"/>
<feComposite in2="hardAlpha" operator="out"/>
<feColorMatrix type="matrix" values="0 0 0 0 0.770833 0 0 0 0 0.770833 0 0 0 0 0.770833 0 0 0 0.25 0"/>
<feBlend mode="normal" in2="BackgroundImageFix" result="effect1_dropShadow_1280_210"/>
<feBlend mode="normal" in="SourceGraphic" in2="effect1_dropShadow_1280_210" result="shape"/>
</filter>
<filter id="filter3_d_1280_210" x="54" y="476" width="122" height="68.998" filterUnits="userSpaceOnUse" color-interpolation-filters="sRGB">
<feFlood flood-opacity="0" result="BackgroundImageFix"/>
<feColorMatrix in="SourceAlpha" type="matrix" values="0 0 0 0 0 0 0 0 0 0 0 0 0 0 0 0 0 0 127 0" result="hardAlpha"/>
<feOffset dy="4"/>
<feGaussianBlur stdDeviation="2"/>
<feComposite in2="hardAlpha" operator="out"/>
<feColorMatrix type="matrix" values="0 0 0 0 0.770833 0 0 0 0 0.770833 0 0 0 0 0.770833 0 0 0 0.25 0"/>
<feBlend mode="normal" in2="BackgroundImageFix" result="effect1_dropShadow_1280_210"/>
<feBlend mode="normal" in="SourceGraphic" in2="effect1_dropShadow_1280_210" result="shape"/>
</filter>
<filter id="filter4_d_1280_210" x="145" y="761" width="97" height="61.9961" filterUnits="userSpaceOnUse" color-interpolation-filters="sRGB">
<feFlood flood-opacity="0" result="BackgroundImageFix"/>
<feColorMatrix in="SourceAlpha" type="matrix" values="0 0 0 0 0 0 0 0 0 0 0 0 0 0 0 0 0 0 127 0" result="hardAlpha"/>
<feOffset dy="4"/>
<feGaussianBlur stdDeviation="2"/>
<feComposite in2="hardAlpha" operator="out"/>
<feColorMatrix type="matrix" values="0 0 0 0 0.770833 0 0 0 0 0.770833 0 0 0 0 0.770833 0 0 0 0.25 0"/>
<feBlend mode="normal" in2="BackgroundImageFix" result="effect1_dropShadow_1280_210"/>
<feBlend mode="normal" in="SourceGraphic" in2="effect1_dropShadow_1280_210" result="shape"/>
</filter>
<filter id="filter5_d_1280_210" x="645" y="949.764" width="238" height="94.2363" filterUnits="userSpaceOnUse" color-interpolation-filters="sRGB">
<feFlood flood-opacity="0" result="BackgroundImageFix"/>
<feColorMatrix in="SourceAlpha" type="matrix" values="0 0 0 0 0 0 0 0 0 0 0 0 0 0 0 0 0 0 127 0" result="hardAlpha"/>
<feOffset dy="4"/>
<feGaussianBlur stdDeviation="2"/>
<feComposite in2="hardAlpha" operator="out"/>
<feColorMatrix type="matrix" values="0 0 0 0 0.4875 0 0 0 0 0.4875 0 0 0 0 0.4875 0 0 0 0.14 0"/>
<feBlend mode="normal" in2="BackgroundImageFix" result="effect1_dropShadow_1280_210"/>
<feBlend mode="normal" in="SourceGraphic" in2="effect1_dropShadow_1280_210" result="shape"/>
</filter>
</defs>
</svg>
