<svg width="955" height="1156" viewBox="0 0 955 1156" fill="none" xmlns="http://www.w3.org/2000/svg">
<path d="M709.464 847.592C700.93 850.083 690.993 872.991 698 897.001C705.007 921.011 719.077 930.826 731.945 922.968C745.541 911.308 745.709 897.002 736.999 895.464C710.789 890.839 717.999 845.102 709.464 847.592Z" fill="#57DFD7"/>
<path d="M467.599 896.801C464.578 900.011 463.197 901.479 461.989 905.119C461.357 916.871 471.132 927.531 484.446 931.244C497.633 934.921 513.836 931.559 525.119 915.401C527.634 910.909 530.241 906.443 532.796 902.069L532.836 901.999C535.397 897.615 537.902 893.324 540.228 889.158C544.918 880.758 548.803 872.992 550.883 866.178C552.974 859.327 553.119 853.833 550.88 849.685C548.683 845.614 543.872 842.27 534.666 840.437C532.423 840.426 530.347 840.412 528.423 840.398C521.388 840.349 516.382 840.314 512.618 840.564C507.822 840.882 505.508 841.648 503.797 843.086C501.954 844.636 500.559 847.137 498.133 851.804C498.012 852.035 497.89 852.27 497.766 852.51C495.434 856.999 492.293 863.047 487.133 871.104C478.078 885.243 472.398 891.671 468.582 895.754C468.236 896.124 467.909 896.472 467.599 896.801Z" fill="white" stroke="black" stroke-width="4"/>
<path d="M225.5 777.645L392 771.645L389 927.145L230 945.645L225.5 777.645Z" fill="#8D2EF4"/>
<path d="M183 751.145L226.5 778.145L230 945.645L185.5 901.145L183 751.145Z" fill="#8D2EF4"/>
<path d="M183.5 751.145L322 697.645L383 716.645L226 779.145L183.5 751.145Z" fill="#8D2EF4"/>
<path d="M230.5 777.145L383 717.145V722.145L244.5 777.145H230.5Z" fill="#2DF0C4"/>
<path d="M231 777.145L244.5 776.645L242.5 944.145L230.5 945.645L231 777.145Z" fill="#2DF0C4"/>
<path d="M382 771.645H392L389 927.145L380 928.145L382 771.645Z" fill="#2DF0C4"/>
<path d="M183 750.645L187 753.145L188 904.145L185.5 901.645L183 750.645Z" fill="#2DF0C4"/>
<path d="M322 697.644L326.5 698.644L187 753.644L183 750.644L322 697.644Z" fill="#2DF0C4"/>
<path d="M187 753.645L231 777.145V782.645L187 758.145V753.645Z" fill="#2DF0C4"/>
<path d="M188 899.645L230.5 939.645V946.145L188 904.145V899.645Z" fill="#2DF0C4"/>
<path d="M244.5 776.645L382.5 771.645V778.645L244.5 783.645V776.645Z" fill="#2DF0C4"/>
<path d="M242.501 938.143L380.5 922.644L380.5 928.144L242.5 944.143L242.501 938.143Z" fill="#2DF0C4"/>
<path d="M324.5 745.145L355.5 756.645L390 771.145L246 776.645L324.5 745.145Z" fill="#6E22A9"/>
<path d="M704.855 828.719C710.874 844.87 714.422 862.723 715.562 870.612C715.462 870.701 715.362 870.807 715.27 870.934C715.24 870.975 715.211 871.018 715.183 871.064C714.805 871.179 714.32 871.314 713.705 871.47C711.583 872.011 708.057 872.77 702.313 873.812C689.859 875.251 678.381 873.926 669.906 870.712C661.313 867.453 656.354 862.501 655.716 857.021C654.967 850.58 654.605 836.201 657.548 823.142C660.535 809.886 666.624 799.135 677.941 797.818C683.304 797.194 688.29 800.156 692.942 805.933C697.576 811.689 701.559 819.874 704.855 828.719Z" fill="#00FFC5" stroke="black" stroke-width="4"/>
<path d="M699.073 868.229C699.318 868.989 699.411 869.84 699.327 870.583C695.313 906.254 687.435 938.425 670.953 962.918C654.56 987.28 629.515 1004.25 590.614 1009.34C589.987 1009.42 589.297 1009.38 588.674 1009.23C550.676 1000.03 529.801 984.636 516.712 962.827C503.482 940.782 498.034 911.953 491.585 875.261C491.528 874.942 491.5 874.632 491.492 874.284C491.457 872.562 491.31 870.518 491.145 868.211C490.378 857.51 489.205 841.153 496.805 825.13C505.882 805.993 527.896 786.851 580.763 780.598C581.196 780.547 581.713 780.551 582.169 780.608C607.932 783.872 625.483 782.15 638.031 779.963C641.155 779.418 643.96 778.846 646.48 778.322C646.851 778.245 647.216 778.169 647.573 778.094C649.657 777.66 651.514 777.272 653.221 776.965C657.273 776.236 660.051 776.052 662.295 776.633C664.387 777.174 666.306 778.466 668.403 781.435C670.552 784.48 672.768 789.121 675.428 796.105C679.135 805.84 683.554 819.701 689.802 839.302C692.516 847.817 695.576 857.415 699.073 868.229Z" fill="white" stroke="black" stroke-width="5"/>
<path d="M738.5 676.462C738.5 712.258 717.351 748.489 683.134 775.865C648.956 803.212 601.987 821.5 550.934 821.5C507.648 821.5 462.215 814.164 427.68 792.406C393.327 770.761 369.5 734.693 369.5 676.462C369.5 640.599 389.951 602.368 423.419 573.024C456.847 543.716 503.023 523.5 554 523.5C605.195 523.5 651.366 537.905 684.681 564.187C717.943 590.427 738.5 628.58 738.5 676.462Z" fill="white" stroke="black" stroke-width="5"/>
<path d="M767.5 986.5L934 980.5L931 1136L772 1154.5L767.5 986.5Z" fill="#8D2EF4"/>
<path d="M725 960L768.5 987L772 1154.5L727.5 1110L725 960Z" fill="#8D2EF4"/>
<path d="M773 986L786.5 985.5L784.5 1153L772.5 1154.5L773 986Z" fill="#2DF0C4"/>
<path d="M924 980.5H934L931 1136L922 1137L924 980.5Z" fill="#2DF0C4"/>
<path d="M725 959.855L731.5 962.355V1113.86L727.5 1110.5L725 959.855Z" fill="#2DF0C4"/>
<path d="M729.5 961.855L773.5 984.855L773 991.499L729 966.999L729.5 961.855Z" fill="#2DF0C4"/>
<path d="M730 1108.5L772.5 1148.5V1155L730 1113V1108.5Z" fill="#2DF0C4"/>
<path d="M786.5 985.5L924.5 980.5V987.856L786.5 995.856V985.5Z" fill="#2DF0C4"/>
<path d="M784.501 1147L922.5 1131.5L922.5 1137L784.5 1153L784.501 1147Z" fill="#2DF0C4"/>
<path d="M866.5 954L897.5 965.5L934 980.856L780 989.356L725 959.856L866.5 954Z" fill="#8D2EF4"/>
<g filter="url(#filter0_d_1272_355)">
<path d="M887.5 307.58C887.5 425.769 712 441.361 558 407.361C293.5 507 114 452.549 114 334.36C132 93.861 184 -1.4174 470 41.082C688.5 -108.418 887.5 189.391 887.5 307.58Z" fill="#FAFAFA"/>
</g>
<path d="M205.38 270C203.513 270 202.18 269.633 201.38 268.9C200.58 268.167 200.18 267.117 200.18 265.75C200.18 265.017 200.247 263.717 200.38 261.85C200.513 259.983 200.663 257.883 200.83 255.55H191.93L190.93 269.25C190.897 269.517 190.83 269.717 190.73 269.85C190.63 269.95 190.43 270 190.13 270H187.38C185.513 270 184.18 269.633 183.38 268.9C182.58 268.167 182.18 267.117 182.18 265.75C182.18 265.083 182.23 263.95 182.33 262.35C182.43 260.717 182.563 258.867 182.73 256.8C182.897 254.733 183.063 252.55 183.23 250.25C183.397 247.95 183.563 245.783 183.73 243.75C183.897 241.717 184.03 239.933 184.13 238.4C184.23 236.867 184.28 235.817 184.28 235.25C184.28 234.75 184.547 234.5 185.08 234.5H187.83C189.863 234.5 191.23 234.933 191.93 235.8C192.63 236.667 192.98 237.95 192.98 239.65C192.98 239.917 192.93 240.867 192.83 242.5C192.73 244.1 192.597 246.033 192.43 248.3H201.38C201.48 246.833 201.58 245.4 201.68 244C201.813 242.6 201.913 241.317 201.98 240.15C202.08 238.983 202.147 237.983 202.18 237.15C202.247 236.283 202.28 235.65 202.28 235.25C202.28 234.75 202.547 234.5 203.08 234.5H205.83C207.863 234.5 209.23 234.933 209.93 235.8C210.63 236.667 210.98 237.95 210.98 239.65C210.98 239.817 210.947 240.35 210.88 241.25C210.847 242.15 210.78 243.283 210.68 244.65C210.58 246.017 210.463 247.55 210.33 249.25C210.23 250.917 210.113 252.633 209.98 254.4C209.88 256.167 209.763 257.9 209.63 259.6C209.53 261.267 209.43 262.783 209.33 264.15C209.23 265.517 209.147 266.667 209.08 267.6C209.013 268.5 208.963 269.05 208.93 269.25C208.897 269.517 208.83 269.717 208.73 269.85C208.63 269.95 208.43 270 208.13 270H205.38ZM213.871 263.85C213.871 260.85 215.221 258.5 217.921 256.8C220.621 255.1 224.605 254.183 229.871 254.05C229.905 253.683 229.921 253.383 229.921 253.15C229.955 252.883 229.971 252.567 229.971 252.2C229.971 251.133 229.771 250.283 229.371 249.65C228.971 249.017 228.138 248.7 226.871 248.7C226.171 248.7 225.605 248.8 225.171 249C224.738 249.2 224.388 249.483 224.121 249.85C223.855 250.183 223.638 250.6 223.471 251.1C223.305 251.6 223.155 252.15 223.021 252.75C222.955 253.05 222.805 253.25 222.571 253.35C222.338 253.417 221.971 253.45 221.471 253.45C218.071 253.45 216.371 252.167 216.371 249.6C216.371 248.567 216.605 247.583 217.071 246.65C217.571 245.717 218.288 244.917 219.221 244.25C220.188 243.55 221.388 243 222.821 242.6C224.255 242.2 225.921 242 227.821 242C231.521 242 234.205 242.767 235.871 244.3C237.538 245.833 238.371 248 238.371 250.8C238.371 251.167 238.321 251.833 238.221 252.8C238.155 253.733 238.055 254.733 237.921 255.8C237.821 256.833 237.721 257.817 237.621 258.75C237.555 259.683 237.521 260.333 237.521 260.7C237.521 261.533 237.671 262.133 237.971 262.5C238.271 262.833 238.605 263.067 238.971 263.2C239.371 263.333 239.721 263.433 240.021 263.5C240.321 263.567 240.471 263.733 240.471 264C240.471 264.733 240.371 265.483 240.171 266.25C239.971 267.017 239.638 267.717 239.171 268.35C238.738 268.983 238.121 269.5 237.321 269.9C236.555 270.3 235.605 270.5 234.471 270.5C232.871 270.5 231.671 270.117 230.871 269.35C230.071 268.583 229.538 267.517 229.271 266.15C228.471 267.317 227.421 268.333 226.121 269.2C224.855 270.067 223.188 270.5 221.121 270.5C220.121 270.5 219.171 270.383 218.271 270.15C217.405 269.917 216.638 269.533 215.971 269C215.338 268.467 214.821 267.783 214.421 266.95C214.055 266.083 213.871 265.05 213.871 263.85ZM229.421 258.15C228.555 258.15 227.705 258.217 226.871 258.35C226.038 258.483 225.288 258.7 224.621 259C223.988 259.267 223.471 259.633 223.071 260.1C222.671 260.567 222.471 261.133 222.471 261.8C222.471 262.567 222.705 263.1 223.171 263.4C223.671 263.7 224.205 263.85 224.771 263.85C225.305 263.85 225.838 263.733 226.371 263.5C226.905 263.267 227.371 262.917 227.771 262.45C228.205 261.95 228.571 261.35 228.871 260.65C229.171 259.95 229.355 259.117 229.421 258.15ZM249.345 270.45C247.278 270.45 245.795 269.9 244.895 268.8C243.995 267.7 243.545 265.883 243.545 263.35C243.545 262.95 243.562 262.45 243.595 261.85C243.662 261.25 243.728 260.483 243.795 259.55C243.895 258.583 244.012 257.4 244.145 256C244.278 254.6 244.412 252.9 244.545 250.9C244.712 248.9 244.878 246.55 245.045 243.85C245.245 241.15 245.445 238.017 245.645 234.45C245.678 233.717 245.762 233.283 245.895 233.15C245.995 233.05 246.262 233 246.695 233H248.645C249.645 233 250.478 233.117 251.145 233.35C251.812 233.583 252.345 233.9 252.745 234.3C253.145 234.7 253.428 235.167 253.595 235.7C253.762 236.2 253.845 236.733 253.845 237.3C253.845 237.967 253.795 238.933 253.695 240.2C253.628 241.433 253.528 242.833 253.395 244.4C253.262 245.967 253.128 247.6 252.995 249.3C252.862 251 252.728 252.633 252.595 254.2C252.462 255.733 252.345 257.117 252.245 258.35C252.178 259.583 252.145 260.517 252.145 261.15C252.145 262.017 252.295 262.633 252.595 263C252.928 263.367 253.278 263.633 253.645 263.8C254.012 263.933 254.345 264.033 254.645 264.1C254.978 264.133 255.145 264.233 255.145 264.4C255.145 265.133 255.062 265.867 254.895 266.6C254.728 267.3 254.428 267.95 253.995 268.55C253.562 269.117 252.962 269.583 252.195 269.95C251.462 270.283 250.512 270.45 249.345 270.45ZM257.133 263.85C257.133 260.85 258.483 258.5 261.183 256.8C263.883 255.1 267.866 254.183 273.133 254.05C273.166 253.683 273.183 253.383 273.183 253.15C273.216 252.883 273.233 252.567 273.233 252.2C273.233 251.133 273.033 250.283 272.633 249.65C272.233 249.017 271.4 248.7 270.133 248.7C269.433 248.7 268.866 248.8 268.433 249C268 249.2 267.65 249.483 267.383 249.85C267.116 250.183 266.9 250.6 266.733 251.1C266.566 251.6 266.416 252.15 266.283 252.75C266.216 253.05 266.066 253.25 265.833 253.35C265.6 253.417 265.233 253.45 264.733 253.45C261.333 253.45 259.633 252.167 259.633 249.6C259.633 248.567 259.866 247.583 260.333 246.65C260.833 245.717 261.55 244.917 262.483 244.25C263.45 243.55 264.65 243 266.083 242.6C267.516 242.2 269.183 242 271.083 242C274.783 242 277.466 242.767 279.133 244.3C280.8 245.833 281.633 248 281.633 250.8C281.633 251.167 281.583 251.833 281.483 252.8C281.416 253.733 281.316 254.733 281.183 255.8C281.083 256.833 280.983 257.817 280.883 258.75C280.816 259.683 280.783 260.333 280.783 260.7C280.783 261.533 280.933 262.133 281.233 262.5C281.533 262.833 281.866 263.067 282.233 263.2C282.633 263.333 282.983 263.433 283.283 263.5C283.583 263.567 283.733 263.733 283.733 264C283.733 264.733 283.633 265.483 283.433 266.25C283.233 267.017 282.9 267.717 282.433 268.35C282 268.983 281.383 269.5 280.583 269.9C279.816 270.3 278.866 270.5 277.733 270.5C276.133 270.5 274.933 270.117 274.133 269.35C273.333 268.583 272.8 267.517 272.533 266.15C271.733 267.317 270.683 268.333 269.383 269.2C268.116 270.067 266.45 270.5 264.383 270.5C263.383 270.5 262.433 270.383 261.533 270.15C260.666 269.917 259.9 269.533 259.233 269C258.6 268.467 258.083 267.783 257.683 266.95C257.316 266.083 257.133 265.05 257.133 263.85ZM272.683 258.15C271.816 258.15 270.966 258.217 270.133 258.35C269.3 258.483 268.55 258.7 267.883 259C267.25 259.267 266.733 259.633 266.333 260.1C265.933 260.567 265.733 261.133 265.733 261.8C265.733 262.567 265.966 263.1 266.433 263.4C266.933 263.7 267.466 263.85 268.033 263.85C268.566 263.85 269.1 263.733 269.633 263.5C270.166 263.267 270.633 262.917 271.033 262.45C271.466 261.95 271.833 261.35 272.133 260.65C272.433 259.95 272.616 259.117 272.683 258.15ZM295.457 261C295.357 262.533 295.24 264 295.107 265.4C294.974 266.767 294.874 267.967 294.807 269C294.774 269.4 294.69 269.667 294.557 269.8C294.424 269.933 294.14 270 293.707 270H291.907C290.874 270 290.024 269.9 289.357 269.7C288.724 269.467 288.207 269.15 287.807 268.75C287.44 268.35 287.174 267.867 287.007 267.3C286.874 266.7 286.807 266.017 286.807 265.25C286.807 264.75 286.824 264.05 286.857 263.15C286.924 262.217 287.024 260.95 287.157 259.35C287.29 257.717 287.44 255.667 287.607 253.2C287.807 250.7 288.04 247.617 288.307 243.95C288.34 243.217 288.424 242.783 288.557 242.65C288.657 242.55 288.924 242.5 289.357 242.5H291.307C292.307 242.5 293.124 242.617 293.757 242.85C294.39 243.083 294.907 243.383 295.307 243.75C295.707 244.117 295.99 244.55 296.157 245.05C296.324 245.55 296.424 246.067 296.457 246.6C297.424 244.8 298.524 243.583 299.757 242.95C300.99 242.317 302.44 242 304.107 242C305.007 242 305.874 242.083 306.707 242.25C307.54 242.417 308.29 242.7 308.957 243.1C309.624 243.5 310.19 244.033 310.657 244.7C311.124 245.333 311.457 246.15 311.657 247.15C312.69 245.217 313.824 243.883 315.057 243.15C316.29 242.383 317.84 242 319.707 242C320.74 242 321.724 242.117 322.657 242.35C323.624 242.55 324.457 242.917 325.157 243.45C325.857 243.983 326.407 244.717 326.807 245.65C327.24 246.55 327.457 247.683 327.457 249.05C327.457 250.083 327.407 251.35 327.307 252.85C327.207 254.35 327.09 255.983 326.957 257.75C326.824 259.483 326.674 261.283 326.507 263.15C326.34 264.983 326.207 266.75 326.107 268.45C326.074 268.817 326.04 269.1 326.007 269.3C325.974 269.5 325.907 269.65 325.807 269.75C325.74 269.85 325.624 269.917 325.457 269.95C325.29 269.983 325.057 270 324.757 270H323.157C322.09 270 321.224 269.9 320.557 269.7C319.89 269.5 319.374 269.217 319.007 268.85C318.64 268.483 318.374 268.033 318.207 267.5C318.074 266.933 318.007 266.3 318.007 265.6C318.007 265.167 318.024 264.55 318.057 263.75C318.124 262.95 318.19 262.083 318.257 261.15C318.357 260.217 318.44 259.25 318.507 258.25C318.607 257.25 318.69 256.333 318.757 255.5C318.857 254.633 318.924 253.883 318.957 253.25C319.024 252.617 319.057 252.2 319.057 252C319.057 251.133 318.874 250.367 318.507 249.7C318.174 249.033 317.507 248.7 316.507 248.7C315.64 248.7 314.89 248.983 314.257 249.55C313.624 250.117 313.09 250.9 312.657 251.9C312.224 252.9 311.874 254.083 311.607 255.45C311.34 256.817 311.157 258.3 311.057 259.9C310.99 260.933 310.907 262.117 310.807 263.45C310.707 264.783 310.59 266.45 310.457 268.45C310.424 268.817 310.39 269.1 310.357 269.3C310.324 269.5 310.257 269.65 310.157 269.75C310.09 269.85 309.974 269.917 309.807 269.95C309.64 269.983 309.407 270 309.107 270H307.507C306.44 270 305.574 269.9 304.907 269.7C304.24 269.5 303.724 269.217 303.357 268.85C302.99 268.483 302.724 268.033 302.557 267.5C302.424 266.933 302.357 266.3 302.357 265.6C302.357 264.933 302.407 263.967 302.507 262.7C302.64 261.4 302.757 260.067 302.857 258.7C302.99 257.3 303.107 255.983 303.207 254.75C303.34 253.483 303.407 252.567 303.407 252C303.407 251.133 303.224 250.367 302.857 249.7C302.524 249.033 301.857 248.7 300.857 248.7C299.957 248.7 299.19 249.033 298.557 249.7C297.924 250.367 297.39 251.267 296.957 252.4C296.557 253.5 296.224 254.8 295.957 256.3C295.724 257.8 295.557 259.367 295.457 261ZM330.424 263.85C330.424 260.85 331.774 258.5 334.474 256.8C337.174 255.1 341.157 254.183 346.424 254.05C346.457 253.683 346.474 253.383 346.474 253.15C346.507 252.883 346.524 252.567 346.524 252.2C346.524 251.133 346.324 250.283 345.924 249.65C345.524 249.017 344.691 248.7 343.424 248.7C342.724 248.7 342.157 248.8 341.724 249C341.291 249.2 340.941 249.483 340.674 249.85C340.407 250.183 340.191 250.6 340.024 251.1C339.857 251.6 339.707 252.15 339.574 252.75C339.507 253.05 339.357 253.25 339.124 253.35C338.891 253.417 338.524 253.45 338.024 253.45C334.624 253.45 332.924 252.167 332.924 249.6C332.924 248.567 333.157 247.583 333.624 246.65C334.124 245.717 334.841 244.917 335.774 244.25C336.741 243.55 337.941 243 339.374 242.6C340.807 242.2 342.474 242 344.374 242C348.074 242 350.757 242.767 352.424 244.3C354.091 245.833 354.924 248 354.924 250.8C354.924 251.167 354.874 251.833 354.774 252.8C354.707 253.733 354.607 254.733 354.474 255.8C354.374 256.833 354.274 257.817 354.174 258.75C354.107 259.683 354.074 260.333 354.074 260.7C354.074 261.533 354.224 262.133 354.524 262.5C354.824 262.833 355.157 263.067 355.524 263.2C355.924 263.333 356.274 263.433 356.574 263.5C356.874 263.567 357.024 263.733 357.024 264C357.024 264.733 356.924 265.483 356.724 266.25C356.524 267.017 356.191 267.717 355.724 268.35C355.291 268.983 354.674 269.5 353.874 269.9C353.107 270.3 352.157 270.5 351.024 270.5C349.424 270.5 348.224 270.117 347.424 269.35C346.624 268.583 346.091 267.517 345.824 266.15C345.024 267.317 343.974 268.333 342.674 269.2C341.407 270.067 339.741 270.5 337.674 270.5C336.674 270.5 335.724 270.383 334.824 270.15C333.957 269.917 333.191 269.533 332.524 269C331.891 268.467 331.374 267.783 330.974 266.95C330.607 266.083 330.424 265.05 330.424 263.85ZM345.974 258.15C345.107 258.15 344.257 258.217 343.424 258.35C342.591 258.483 341.841 258.7 341.174 259C340.541 259.267 340.024 259.633 339.624 260.1C339.224 260.567 339.024 261.133 339.024 261.8C339.024 262.567 339.257 263.1 339.724 263.4C340.224 263.7 340.757 263.85 341.324 263.85C341.857 263.85 342.391 263.733 342.924 263.5C343.457 263.267 343.924 262.917 344.324 262.45C344.757 261.95 345.124 261.35 345.424 260.65C345.724 259.95 345.907 259.117 345.974 258.15ZM368.748 261C368.648 262.533 368.531 264 368.398 265.4C368.265 266.767 368.165 267.967 368.098 269C368.065 269.4 367.981 269.667 367.848 269.8C367.715 269.933 367.431 270 366.998 270H365.198C364.165 270 363.315 269.9 362.648 269.7C362.015 269.467 361.498 269.15 361.098 268.75C360.731 268.35 360.465 267.867 360.298 267.3C360.165 266.7 360.098 266.017 360.098 265.25C360.098 264.75 360.115 264.05 360.148 263.15C360.215 262.217 360.315 260.95 360.448 259.35C360.581 257.717 360.731 255.667 360.898 253.2C361.098 250.7 361.331 247.617 361.598 243.95C361.631 243.217 361.715 242.783 361.848 242.65C361.948 242.55 362.215 242.5 362.648 242.5H364.598C365.598 242.5 366.415 242.617 367.048 242.85C367.681 243.083 368.198 243.383 368.598 243.75C368.998 244.117 369.281 244.55 369.448 245.05C369.615 245.55 369.715 246.067 369.748 246.6C370.715 244.8 371.815 243.583 373.048 242.95C374.281 242.317 375.731 242 377.398 242C378.298 242 379.165 242.083 379.998 242.25C380.831 242.417 381.581 242.7 382.248 243.1C382.915 243.5 383.481 244.033 383.948 244.7C384.415 245.333 384.748 246.15 384.948 247.15C385.981 245.217 387.115 243.883 388.348 243.15C389.581 242.383 391.131 242 392.998 242C394.031 242 395.015 242.117 395.948 242.35C396.915 242.55 397.748 242.917 398.448 243.45C399.148 243.983 399.698 244.717 400.098 245.65C400.531 246.55 400.748 247.683 400.748 249.05C400.748 250.083 400.698 251.35 400.598 252.85C400.498 254.35 400.381 255.983 400.248 257.75C400.115 259.483 399.965 261.283 399.798 263.15C399.631 264.983 399.498 266.75 399.398 268.45C399.365 268.817 399.331 269.1 399.298 269.3C399.265 269.5 399.198 269.65 399.098 269.75C399.031 269.85 398.915 269.917 398.748 269.95C398.581 269.983 398.348 270 398.048 270H396.448C395.381 270 394.515 269.9 393.848 269.7C393.181 269.5 392.665 269.217 392.298 268.85C391.931 268.483 391.665 268.033 391.498 267.5C391.365 266.933 391.298 266.3 391.298 265.6C391.298 265.167 391.315 264.55 391.348 263.75C391.415 262.95 391.481 262.083 391.548 261.15C391.648 260.217 391.731 259.25 391.798 258.25C391.898 257.25 391.981 256.333 392.048 255.5C392.148 254.633 392.215 253.883 392.248 253.25C392.315 252.617 392.348 252.2 392.348 252C392.348 251.133 392.165 250.367 391.798 249.7C391.465 249.033 390.798 248.7 389.798 248.7C388.931 248.7 388.181 248.983 387.548 249.55C386.915 250.117 386.381 250.9 385.948 251.9C385.515 252.9 385.165 254.083 384.898 255.45C384.631 256.817 384.448 258.3 384.348 259.9C384.281 260.933 384.198 262.117 384.098 263.45C383.998 264.783 383.881 266.45 383.748 268.45C383.715 268.817 383.681 269.1 383.648 269.3C383.615 269.5 383.548 269.65 383.448 269.75C383.381 269.85 383.265 269.917 383.098 269.95C382.931 269.983 382.698 270 382.398 270H380.798C379.731 270 378.865 269.9 378.198 269.7C377.531 269.5 377.015 269.217 376.648 268.85C376.281 268.483 376.015 268.033 375.848 267.5C375.715 266.933 375.648 266.3 375.648 265.6C375.648 264.933 375.698 263.967 375.798 262.7C375.931 261.4 376.048 260.067 376.148 258.7C376.281 257.3 376.398 255.983 376.498 254.75C376.631 253.483 376.698 252.567 376.698 252C376.698 251.133 376.515 250.367 376.148 249.7C375.815 249.033 375.148 248.7 374.148 248.7C373.248 248.7 372.481 249.033 371.848 249.7C371.215 250.367 370.681 251.267 370.248 252.4C369.848 253.5 369.515 254.8 369.248 256.3C369.015 257.8 368.848 259.367 368.748 261ZM425.507 247.1C425.507 247.867 425.457 248.783 425.357 249.85C425.257 250.883 425.141 251.933 425.007 253C424.907 254.033 424.807 255.017 424.707 255.95C424.607 256.85 424.557 257.55 424.557 258.05C424.557 259.317 424.857 260.267 425.457 260.9C426.091 261.5 426.857 261.8 427.757 261.8C429.324 261.8 430.574 260.983 431.507 259.35C432.441 257.717 433.024 255.55 433.257 252.85L434.057 243.5C434.091 243.133 434.207 242.883 434.407 242.75C434.641 242.583 434.891 242.5 435.157 242.5H436.957C437.657 242.5 438.307 242.567 438.907 242.7C439.541 242.8 440.091 243.017 440.557 243.35C441.024 243.65 441.391 244.067 441.657 244.6C441.924 245.133 442.057 245.817 442.057 246.65C442.057 246.983 442.024 247.617 441.957 248.55C441.924 249.45 441.841 250.767 441.707 252.5C441.607 254.2 441.457 256.367 441.257 259C441.057 261.6 440.824 264.783 440.557 268.55C440.391 270.75 439.891 272.567 439.057 274C438.257 275.467 437.241 276.617 436.007 277.45C434.774 278.317 433.391 278.917 431.857 279.25C430.324 279.583 428.757 279.75 427.157 279.75C425.457 279.75 423.891 279.6 422.457 279.3C421.057 279 419.841 278.583 418.807 278.05C417.774 277.517 416.957 276.9 416.357 276.2C415.791 275.5 415.507 274.75 415.507 273.95C415.507 273.317 415.641 272.767 415.907 272.3C416.207 271.833 416.591 271.45 417.057 271.15C417.524 270.85 418.057 270.617 418.657 270.45C419.291 270.317 419.941 270.25 420.607 270.25C420.941 270.25 421.174 270.417 421.307 270.75C421.474 271.083 421.707 271.45 422.007 271.85C422.341 272.283 422.857 272.667 423.557 273C424.257 273.333 425.307 273.5 426.707 273.5C427.941 273.5 428.941 273.2 429.707 272.6C430.474 272 431.057 271.233 431.457 270.3C431.891 269.367 432.174 268.35 432.307 267.25C432.441 266.15 432.507 265.1 432.507 264.1C431.974 265.033 431.374 265.8 430.707 266.4C430.074 266.967 429.407 267.417 428.707 267.75C428.007 268.05 427.307 268.25 426.607 268.35C425.907 268.45 425.241 268.5 424.607 268.5C423.374 268.5 422.241 268.333 421.207 268C420.207 267.667 419.341 267.133 418.607 266.4C417.874 265.633 417.307 264.65 416.907 263.45C416.507 262.25 416.307 260.8 416.307 259.1C416.307 258.467 416.341 257.633 416.407 256.6C416.474 255.533 416.557 254.35 416.657 253.05C416.757 251.717 416.857 250.283 416.957 248.75C417.091 247.217 417.224 245.65 417.357 244.05C417.424 243.017 417.891 242.5 418.757 242.5H420.357C421.424 242.5 422.291 242.6 422.957 242.8C423.624 243 424.141 243.3 424.507 243.7C424.907 244.067 425.174 244.55 425.307 245.15C425.441 245.717 425.507 246.367 425.507 247.1ZM444.975 263.85C444.975 260.85 446.325 258.5 449.025 256.8C451.725 255.1 455.708 254.183 460.975 254.05C461.008 253.683 461.025 253.383 461.025 253.15C461.058 252.883 461.075 252.567 461.075 252.2C461.075 251.133 460.875 250.283 460.475 249.65C460.075 249.017 459.241 248.7 457.975 248.7C457.275 248.7 456.708 248.8 456.275 249C455.841 249.2 455.491 249.483 455.225 249.85C454.958 250.183 454.741 250.6 454.575 251.1C454.408 251.6 454.258 252.15 454.125 252.75C454.058 253.05 453.908 253.25 453.675 253.35C453.441 253.417 453.075 253.45 452.575 253.45C449.175 253.45 447.475 252.167 447.475 249.6C447.475 248.567 447.708 247.583 448.175 246.65C448.675 245.717 449.391 244.917 450.325 244.25C451.291 243.55 452.491 243 453.925 242.6C455.358 242.2 457.025 242 458.925 242C462.625 242 465.308 242.767 466.975 244.3C468.641 245.833 469.475 248 469.475 250.8C469.475 251.167 469.425 251.833 469.325 252.8C469.258 253.733 469.158 254.733 469.025 255.8C468.925 256.833 468.825 257.817 468.725 258.75C468.658 259.683 468.625 260.333 468.625 260.7C468.625 261.533 468.775 262.133 469.075 262.5C469.375 262.833 469.708 263.067 470.075 263.2C470.475 263.333 470.825 263.433 471.125 263.5C471.425 263.567 471.575 263.733 471.575 264C471.575 264.733 471.475 265.483 471.275 266.25C471.075 267.017 470.741 267.717 470.275 268.35C469.841 268.983 469.225 269.5 468.425 269.9C467.658 270.3 466.708 270.5 465.575 270.5C463.975 270.5 462.775 270.117 461.975 269.35C461.175 268.583 460.641 267.517 460.375 266.15C459.575 267.317 458.525 268.333 457.225 269.2C455.958 270.067 454.291 270.5 452.225 270.5C451.225 270.5 450.275 270.383 449.375 270.15C448.508 269.917 447.741 269.533 447.075 269C446.441 268.467 445.925 267.783 445.525 266.95C445.158 266.083 444.975 265.05 444.975 263.85ZM460.525 258.15C459.658 258.15 458.808 258.217 457.975 258.35C457.141 258.483 456.391 258.7 455.725 259C455.091 259.267 454.575 259.633 454.175 260.1C453.775 260.567 453.575 261.133 453.575 261.8C453.575 262.567 453.808 263.1 454.275 263.4C454.775 263.7 455.308 263.85 455.875 263.85C456.408 263.85 456.941 263.733 457.475 263.5C458.008 263.267 458.475 262.917 458.875 262.45C459.308 261.95 459.675 261.35 459.975 260.65C460.275 259.95 460.458 259.117 460.525 258.15ZM491.699 265.6C491.699 264.867 491.749 263.917 491.849 262.75C491.982 261.55 492.099 260.3 492.199 259C492.332 257.667 492.449 256.383 492.549 255.15C492.682 253.917 492.749 252.883 492.749 252.05C492.749 251.183 492.532 250.417 492.099 249.75C491.699 249.05 490.899 248.7 489.699 248.7C488.532 248.7 487.565 248.983 486.799 249.55C486.032 250.117 485.382 251.15 484.849 252.65C484.349 254.15 483.932 256.217 483.599 258.85C483.265 261.483 482.949 264.867 482.649 269C482.615 269.4 482.532 269.667 482.399 269.8C482.265 269.933 481.982 270 481.549 270H479.749C478.715 270 477.865 269.9 477.199 269.7C476.565 269.467 476.049 269.15 475.649 268.75C475.282 268.35 475.015 267.867 474.849 267.3C474.715 266.7 474.649 266.017 474.649 265.25C474.649 264.75 474.665 264.05 474.699 263.15C474.765 262.217 474.865 260.95 474.999 259.35C475.132 257.717 475.282 255.667 475.449 253.2C475.649 250.7 475.882 247.617 476.149 243.95C476.182 243.217 476.265 242.783 476.399 242.65C476.499 242.55 476.765 242.5 477.199 242.5H479.149C480.149 242.5 480.965 242.617 481.599 242.85C482.265 243.083 482.799 243.4 483.199 243.8C483.599 244.167 483.882 244.617 484.049 245.15C484.215 245.65 484.315 246.167 484.349 246.7C485.382 244.933 486.565 243.717 487.899 243.05C489.232 242.35 490.899 242 492.899 242C494.299 242 495.515 242.15 496.549 242.45C497.582 242.75 498.432 243.267 499.099 244C499.799 244.7 500.315 245.633 500.649 246.8C500.982 247.933 501.149 249.35 501.149 251.05C501.149 251.583 501.115 252.35 501.049 253.35C500.982 254.35 500.899 255.45 500.799 256.65C500.699 257.817 500.582 259.05 500.449 260.35C500.349 261.617 500.249 262.8 500.149 263.9C500.049 265 499.965 265.967 499.899 266.8C499.832 267.633 499.799 268.183 499.799 268.45C499.799 269.183 499.715 269.633 499.549 269.8C499.382 269.933 499.015 270 498.449 270H496.849C495.782 270 494.915 269.9 494.249 269.7C493.582 269.5 493.065 269.217 492.699 268.85C492.332 268.483 492.065 268.033 491.899 267.5C491.765 266.933 491.699 266.3 491.699 265.6ZM521.956 264.1C521.122 265.6 520.106 266.717 518.906 267.45C517.706 268.15 516.206 268.5 514.406 268.5C513.039 268.5 511.789 268.283 510.656 267.85C509.522 267.417 508.556 266.733 507.756 265.8C506.956 264.867 506.322 263.7 505.856 262.3C505.422 260.867 505.206 259.167 505.206 257.2C505.206 255.6 505.372 253.917 505.706 252.15C506.039 250.35 506.639 248.7 507.506 247.2C508.406 245.7 509.622 244.467 511.156 243.5C512.689 242.5 514.656 242 517.056 242C518.056 242 518.906 242.117 519.606 242.35C520.339 242.55 520.956 242.833 521.456 243.2C521.989 243.567 522.406 244 522.706 244.5C523.039 245 523.289 245.533 523.456 246.1C523.456 246.133 523.456 246.017 523.456 245.75C523.489 245.45 523.522 245.117 523.556 244.75C523.589 244.383 523.606 244.033 523.606 243.7C523.639 243.333 523.656 243.1 523.656 243C523.689 242.667 523.906 242.5 524.306 242.5H526.606C528.339 242.5 529.589 242.867 530.356 243.6C531.156 244.3 531.556 245.65 531.556 247.65C531.556 247.917 531.539 248.533 531.506 249.5C531.472 250.433 531.406 251.567 531.306 252.9C531.239 254.233 531.139 255.717 531.006 257.35C530.872 258.95 530.722 260.567 530.556 262.2C530.389 263.833 530.206 265.4 530.006 266.9C529.806 268.4 529.589 269.717 529.356 270.85C529.122 271.983 528.722 273.083 528.156 274.15C527.589 275.217 526.789 276.167 525.756 277C524.722 277.833 523.389 278.5 521.756 279C520.156 279.5 518.189 279.75 515.856 279.75C514.089 279.75 512.539 279.583 511.206 279.25C509.906 278.917 508.822 278.467 507.956 277.9C507.089 277.367 506.422 276.75 505.956 276.05C505.522 275.35 505.306 274.65 505.306 273.95C505.306 273.317 505.439 272.767 505.706 272.3C505.972 271.833 506.322 271.45 506.756 271.15C507.189 270.85 507.656 270.617 508.156 270.45C508.689 270.317 509.189 270.25 509.656 270.25C510.222 270.25 510.639 270.417 510.906 270.75C511.172 271.083 511.472 271.45 511.806 271.85C512.139 272.283 512.606 272.667 513.206 273C513.806 273.333 514.739 273.5 516.006 273.5C518.206 273.5 519.739 272.683 520.606 271.05C521.506 269.45 521.956 267.133 521.956 264.1ZM517.756 261.85C518.956 261.85 519.889 261.567 520.556 261C521.256 260.433 521.789 259.75 522.156 258.95C522.522 258.15 522.756 257.317 522.856 256.45C522.956 255.583 523.006 254.833 523.006 254.2C523.006 252.2 522.689 250.783 522.056 249.95C521.456 249.083 520.539 248.65 519.306 248.65C518.072 248.65 517.106 248.983 516.406 249.65C515.706 250.317 515.172 251.117 514.806 252.05C514.472 252.95 514.256 253.867 514.156 254.8C514.056 255.7 514.006 256.4 514.006 256.9C514.006 258.567 514.289 259.817 514.856 260.65C515.422 261.45 516.389 261.85 517.756 261.85ZM555.869 270.5C554.569 270.5 553.319 270.267 552.119 269.8C550.952 269.333 549.919 268.6 549.019 267.6C548.152 266.6 547.452 265.333 546.919 263.8C546.419 262.267 546.169 260.417 546.169 258.25C546.169 257.283 546.236 256.217 546.369 255.05C546.502 253.85 546.736 252.65 547.069 251.45C547.402 250.25 547.869 249.083 548.469 247.95C549.069 246.817 549.819 245.817 550.719 244.95C551.652 244.05 552.752 243.333 554.019 242.8C555.319 242.267 556.836 242 558.569 242C560.236 242 561.569 242.3 562.569 242.9C563.602 243.467 564.252 244.467 564.519 245.9C564.586 244.6 564.652 243.467 564.719 242.5C564.786 241.533 564.836 240.633 564.869 239.8C564.936 238.967 565.002 238.133 565.069 237.3C565.136 236.467 565.202 235.517 565.269 234.45C565.302 233.717 565.386 233.283 565.519 233.15C565.586 233.083 565.669 233.05 565.769 233.05C565.869 233.017 566.052 233 566.319 233H568.269C569.269 233 570.102 233.117 570.769 233.35C571.436 233.583 571.969 233.9 572.369 234.3C572.769 234.7 573.052 235.167 573.219 235.7C573.386 236.2 573.469 236.733 573.469 237.3C573.469 237.3 573.436 237.717 573.369 238.55C573.302 239.383 573.219 240.5 573.119 241.9C573.019 243.267 572.902 244.833 572.769 246.6C572.636 248.367 572.502 250.2 572.369 252.1C572.236 253.967 572.102 255.833 571.969 257.7C571.836 259.533 571.702 261.233 571.569 262.8C571.436 264.333 571.319 265.667 571.219 266.8C571.152 267.9 571.102 268.633 571.069 269C571.002 269.4 570.919 269.667 570.819 269.8C570.719 269.933 570.436 270 569.969 270H568.169C567.469 270 566.802 269.95 566.169 269.85C565.569 269.717 565.036 269.517 564.569 269.25C564.136 268.95 563.786 268.567 563.519 268.1C563.286 267.6 563.169 266.967 563.169 266.2C562.569 267.467 561.652 268.5 560.419 269.3C559.219 270.1 557.702 270.5 555.869 270.5ZM560.219 248.65C558.519 248.65 557.252 249.4 556.419 250.9C555.619 252.367 555.219 254.35 555.219 256.85C555.219 257.717 555.269 258.567 555.369 259.4C555.502 260.233 555.719 260.983 556.019 261.65C556.319 262.317 556.719 262.85 557.219 263.25C557.752 263.65 558.419 263.85 559.219 263.85C560.652 263.85 561.852 263.15 562.819 261.75C563.786 260.35 564.269 258.15 564.269 255.15C564.269 254.317 564.219 253.517 564.119 252.75C564.019 251.95 563.819 251.25 563.519 250.65C563.219 250.05 562.802 249.567 562.269 249.2C561.736 248.833 561.052 248.65 560.219 248.65ZM582.289 270C581.256 270 580.406 269.9 579.739 269.7C579.106 269.467 578.589 269.15 578.189 268.75C577.822 268.35 577.556 267.867 577.389 267.3C577.256 266.7 577.189 266.017 577.189 265.25C577.189 264.75 577.206 264.05 577.239 263.15C577.306 262.217 577.406 260.95 577.539 259.35C577.672 257.717 577.822 255.667 577.989 253.2C578.189 250.7 578.422 247.617 578.689 243.95C578.722 243.217 578.806 242.783 578.939 242.65C579.039 242.55 579.306 242.5 579.739 242.5H581.689C582.722 242.5 583.556 242.6 584.189 242.8C584.856 243 585.372 243.3 585.739 243.7C586.139 244.1 586.406 244.583 586.539 245.15C586.706 245.717 586.789 246.35 586.789 247.05C586.789 247.55 586.756 248.3 586.689 249.3C586.622 250.3 586.522 251.667 586.389 253.4C586.289 255.1 586.139 257.233 585.939 259.8C585.739 262.333 585.489 265.4 585.189 269C585.156 269.4 585.072 269.667 584.939 269.8C584.806 269.933 584.522 270 584.089 270H582.289ZM578.739 236.6C578.739 235.267 579.222 234.217 580.189 233.45C581.156 232.683 582.456 232.3 584.089 232.3C585.522 232.3 586.556 232.6 587.189 233.2C587.856 233.767 588.189 234.533 588.189 235.5C588.189 236.733 587.722 237.767 586.789 238.6C585.889 239.4 584.556 239.8 582.789 239.8C580.089 239.8 578.739 238.733 578.739 236.6ZM601.951 249.25C601.851 250.517 601.735 251.767 601.601 253C601.501 254.233 601.401 255.4 601.301 256.5C601.201 257.6 601.118 258.583 601.051 259.45C601.018 260.317 601.001 260.983 601.001 261.45C601.001 262.317 601.101 262.9 601.301 263.2C601.501 263.467 601.835 263.6 602.301 263.6C602.668 263.6 602.985 263.533 603.251 263.4C603.518 263.267 603.768 263.117 604.001 262.95C604.235 262.783 604.435 262.633 604.601 262.5C604.801 262.367 605.018 262.3 605.251 262.3C605.485 262.3 605.701 262.433 605.901 262.7C606.101 262.967 606.201 263.583 606.201 264.55C606.201 266.383 605.701 267.833 604.701 268.9C603.701 269.967 601.985 270.5 599.551 270.5C597.151 270.5 595.368 269.95 594.201 268.85C593.068 267.717 592.501 266 592.501 263.7C592.501 263.2 592.518 262.617 592.551 261.95C592.618 261.25 592.701 260.35 592.801 259.25C592.901 258.15 593.018 256.8 593.151 255.2C593.318 253.6 593.485 251.617 593.651 249.25H591.001C590.735 249.25 590.568 249.2 590.501 249.1C590.468 248.967 590.451 248.783 590.451 248.55L590.601 246C590.635 245.567 590.685 245.15 590.751 244.75C590.851 244.317 591.018 243.933 591.251 243.6C591.518 243.267 591.885 243 592.351 242.8C592.818 242.6 593.435 242.5 594.201 242.5C594.435 241.9 594.701 241.183 595.001 240.35C595.301 239.517 595.601 238.717 595.901 237.95C596.201 237.15 596.485 236.483 596.751 235.95C597.051 235.417 597.318 235.15 597.551 235.15H599.001C600.401 235.15 601.368 235.583 601.901 236.45C602.435 237.317 602.701 238.35 602.701 239.55C602.701 240.217 602.651 241.2 602.551 242.5H607.801C608.335 242.5 608.601 242.733 608.601 243.2L608.401 245.9C608.335 246.9 608.051 247.717 607.551 248.35C607.085 248.95 606.101 249.25 604.601 249.25H601.951ZM620.722 246.75C620.722 247.45 620.655 248.433 620.522 249.7C620.422 250.967 620.305 252.283 620.172 253.65C620.072 255.017 619.955 256.3 619.822 257.5C619.722 258.7 619.672 259.567 619.672 260.1C619.672 261.267 619.955 262.183 620.522 262.85C621.122 263.483 621.939 263.8 622.972 263.8C623.872 263.8 624.622 263.45 625.222 262.75C625.855 262.017 626.355 261.083 626.722 259.95C627.122 258.783 627.439 257.467 627.672 256C627.905 254.533 628.072 253.05 628.172 251.55C628.305 250.05 628.405 248.6 628.472 247.2C628.572 245.767 628.672 244.533 628.772 243.5C628.805 243.233 628.905 243 629.072 242.8C629.239 242.6 629.505 242.5 629.872 242.5H631.672C632.705 242.5 633.539 242.617 634.172 242.85C634.839 243.05 635.355 243.35 635.722 243.75C636.122 244.15 636.389 244.65 636.522 245.25C636.689 245.817 636.772 246.483 636.772 247.25C636.772 247.75 636.739 248.467 636.672 249.4C636.639 250.3 636.555 251.567 636.422 253.2C636.289 254.8 636.122 256.85 635.922 259.35C635.755 261.817 635.539 264.883 635.272 268.55C635.205 269.25 635.122 269.667 635.022 269.8C634.955 269.933 634.689 270 634.222 270H632.272C631.272 270 630.439 269.883 629.772 269.65C629.139 269.417 628.622 269.117 628.222 268.75C627.822 268.383 627.539 267.95 627.372 267.45C627.205 266.95 627.105 266.433 627.072 265.9C626.572 266.767 626.005 267.5 625.372 268.1C624.772 268.7 624.139 269.183 623.472 269.55C622.805 269.883 622.122 270.117 621.422 270.25C620.722 270.417 620.039 270.5 619.372 270.5C618.105 270.5 616.972 270.3 615.972 269.9C614.972 269.467 614.122 268.9 613.422 268.2C612.755 267.5 612.239 266.667 611.872 265.7C611.505 264.733 611.322 263.7 611.322 262.6C611.322 262.167 611.339 261.467 611.372 260.5C611.439 259.5 611.505 258.383 611.572 257.15C611.672 255.917 611.772 254.617 611.872 253.25C611.972 251.85 612.055 250.533 612.122 249.3C612.222 248.067 612.305 246.983 612.372 246.05C612.472 245.117 612.539 244.45 612.572 244.05C612.639 243.45 612.772 243.05 612.972 242.85C613.172 242.617 613.505 242.5 613.972 242.5H615.572C616.605 242.5 617.455 242.6 618.122 242.8C618.789 243 619.305 243.283 619.672 243.65C620.072 244.017 620.339 244.467 620.472 245C620.639 245.5 620.722 246.083 620.722 246.75ZM642.653 243.25C642.653 242.95 642.703 242.75 642.803 242.65C642.903 242.55 643.219 242.5 643.753 242.5H645.553C646.386 242.5 647.119 242.617 647.753 242.85C648.419 243.05 648.969 243.317 649.403 243.65C649.869 243.95 650.219 244.3 650.453 244.7C650.686 245.1 650.803 245.5 650.803 245.9C650.803 246.1 650.769 246.65 650.703 247.55C650.669 248.417 650.603 249.517 650.503 250.85C650.403 252.15 650.286 253.6 650.153 255.2C650.053 256.767 649.936 258.367 649.803 260C649.703 261.6 649.586 263.15 649.453 264.65C649.353 266.15 649.269 267.45 649.203 268.55C649.036 270.917 648.653 272.817 648.053 274.25C647.486 275.717 646.786 276.85 645.953 277.65C645.119 278.483 644.186 279.033 643.153 279.3C642.119 279.6 641.053 279.75 639.953 279.75C638.986 279.75 638.019 279.65 637.053 279.45C636.053 279.283 635.153 279.017 634.353 278.65C633.553 278.283 632.903 277.817 632.403 277.25C631.903 276.683 631.653 276.017 631.653 275.25C631.653 274.45 631.903 273.817 632.403 273.35C632.869 272.883 633.436 272.533 634.103 272.3C634.736 272.067 635.369 271.917 636.003 271.85C636.603 271.783 637.053 271.75 637.353 271.75C637.453 271.75 637.553 271.833 637.653 272C637.719 272.2 637.819 272.4 637.953 272.6C638.053 272.833 638.203 273.033 638.403 273.2C638.603 273.4 638.886 273.5 639.253 273.5C639.653 273.5 639.953 273.333 640.153 273C640.386 272.7 640.569 272.183 640.703 271.45C640.836 270.717 640.953 269.75 641.053 268.55C641.153 267.317 641.253 265.783 641.353 263.95L642.653 243.25ZM642.153 236.6C642.153 235.267 642.636 234.217 643.603 233.45C644.569 232.683 645.869 232.3 647.503 232.3C648.936 232.3 649.969 232.6 650.603 233.2C651.269 233.767 651.603 234.533 651.603 235.5C651.603 236.733 651.136 237.767 650.203 238.6C649.303 239.4 647.969 239.8 646.203 239.8C643.503 239.8 642.153 238.733 642.153 236.6ZM664.667 246.75C664.667 247.45 664.601 248.433 664.467 249.7C664.367 250.967 664.251 252.283 664.117 253.65C664.017 255.017 663.901 256.3 663.767 257.5C663.667 258.7 663.617 259.567 663.617 260.1C663.617 261.267 663.901 262.183 664.467 262.85C665.067 263.483 665.884 263.8 666.917 263.8C667.817 263.8 668.567 263.45 669.167 262.75C669.801 262.017 670.301 261.083 670.667 259.95C671.067 258.783 671.384 257.467 671.617 256C671.851 254.533 672.017 253.05 672.117 251.55C672.251 250.05 672.351 248.6 672.417 247.2C672.517 245.767 672.617 244.533 672.717 243.5C672.751 243.233 672.851 243 673.017 242.8C673.184 242.6 673.451 242.5 673.817 242.5H675.617C676.651 242.5 677.484 242.617 678.117 242.85C678.784 243.05 679.301 243.35 679.667 243.75C680.067 244.15 680.334 244.65 680.467 245.25C680.634 245.817 680.717 246.483 680.717 247.25C680.717 247.75 680.684 248.467 680.617 249.4C680.584 250.3 680.501 251.567 680.367 253.2C680.234 254.8 680.067 256.85 679.867 259.35C679.701 261.817 679.484 264.883 679.217 268.55C679.151 269.25 679.067 269.667 678.967 269.8C678.901 269.933 678.634 270 678.167 270H676.217C675.217 270 674.384 269.883 673.717 269.65C673.084 269.417 672.567 269.117 672.167 268.75C671.767 268.383 671.484 267.95 671.317 267.45C671.151 266.95 671.051 266.433 671.017 265.9C670.517 266.767 669.951 267.5 669.317 268.1C668.717 268.7 668.084 269.183 667.417 269.55C666.751 269.883 666.067 270.117 665.367 270.25C664.667 270.417 663.984 270.5 663.317 270.5C662.051 270.5 660.917 270.3 659.917 269.9C658.917 269.467 658.067 268.9 657.367 268.2C656.701 267.5 656.184 266.667 655.817 265.7C655.451 264.733 655.267 263.7 655.267 262.6C655.267 262.167 655.284 261.467 655.317 260.5C655.384 259.5 655.451 258.383 655.517 257.15C655.617 255.917 655.717 254.617 655.817 253.25C655.917 251.85 656.001 250.533 656.067 249.3C656.167 248.067 656.251 246.983 656.317 246.05C656.417 245.117 656.484 244.45 656.517 244.05C656.584 243.45 656.717 243.05 656.917 242.85C657.117 242.617 657.451 242.5 657.917 242.5H659.517C660.551 242.5 661.401 242.6 662.067 242.8C662.734 243 663.251 243.283 663.617 243.65C664.017 244.017 664.284 244.467 664.417 245C664.584 245.5 664.667 246.083 664.667 246.75ZM706.59 249.25C706.49 250.517 706.373 251.767 706.24 253C706.14 254.233 706.04 255.4 705.94 256.5C705.84 257.6 705.757 258.583 705.69 259.45C705.657 260.317 705.64 260.983 705.64 261.45C705.64 262.317 705.74 262.9 705.94 263.2C706.14 263.467 706.473 263.6 706.94 263.6C707.307 263.6 707.623 263.533 707.89 263.4C708.157 263.267 708.407 263.117 708.64 262.95C708.873 262.783 709.073 262.633 709.24 262.5C709.44 262.367 709.657 262.3 709.89 262.3C710.123 262.3 710.34 262.433 710.54 262.7C710.74 262.967 710.84 263.583 710.84 264.55C710.84 266.383 710.34 267.833 709.34 268.9C708.34 269.967 706.623 270.5 704.19 270.5C701.79 270.5 700.007 269.95 698.84 268.85C697.707 267.717 697.14 266 697.14 263.7C697.14 263.2 697.157 262.617 697.19 261.95C697.257 261.25 697.34 260.35 697.44 259.25C697.54 258.15 697.657 256.8 697.79 255.2C697.957 253.6 698.123 251.617 698.29 249.25H695.64C695.373 249.25 695.207 249.2 695.14 249.1C695.107 248.967 695.09 248.783 695.09 248.55L695.24 246C695.273 245.567 695.323 245.15 695.39 244.75C695.49 244.317 695.657 243.933 695.89 243.6C696.157 243.267 696.523 243 696.99 242.8C697.457 242.6 698.073 242.5 698.84 242.5C699.073 241.9 699.34 241.183 699.64 240.35C699.94 239.517 700.24 238.717 700.54 237.95C700.84 237.15 701.123 236.483 701.39 235.95C701.69 235.417 701.957 235.15 702.19 235.15H703.64C705.04 235.15 706.007 235.583 706.54 236.45C707.073 237.317 707.34 238.35 707.34 239.55C707.34 240.217 707.29 241.2 707.19 242.5H712.44C712.973 242.5 713.24 242.733 713.24 243.2L713.04 245.9C712.973 246.9 712.69 247.717 712.19 248.35C711.723 248.95 710.74 249.25 709.24 249.25H706.59ZM720.961 270C719.927 270 719.077 269.9 718.411 269.7C717.777 269.467 717.261 269.15 716.861 268.75C716.494 268.35 716.227 267.867 716.061 267.3C715.927 266.7 715.861 266.017 715.861 265.25C715.861 264.75 715.877 264.05 715.911 263.15C715.977 262.217 716.077 260.95 716.211 259.35C716.344 257.717 716.494 255.667 716.661 253.2C716.861 250.7 717.094 247.617 717.361 243.95C717.394 243.217 717.477 242.783 717.611 242.65C717.711 242.55 717.977 242.5 718.411 242.5H720.361C721.394 242.5 722.227 242.6 722.861 242.8C723.527 243 724.044 243.3 724.411 243.7C724.811 244.1 725.077 244.583 725.211 245.15C725.377 245.717 725.461 246.35 725.461 247.05C725.461 247.55 725.427 248.3 725.361 249.3C725.294 250.3 725.194 251.667 725.061 253.4C724.961 255.1 724.811 257.233 724.611 259.8C724.411 262.333 724.161 265.4 723.861 269C723.827 269.4 723.744 269.667 723.611 269.8C723.477 269.933 723.194 270 722.761 270H720.961ZM717.411 236.6C717.411 235.267 717.894 234.217 718.861 233.45C719.827 232.683 721.127 232.3 722.761 232.3C724.194 232.3 725.227 232.6 725.861 233.2C726.527 233.767 726.861 234.533 726.861 235.5C726.861 236.733 726.394 237.767 725.461 238.6C724.561 239.4 723.227 239.8 721.461 239.8C718.761 239.8 717.411 238.733 717.411 236.6ZM739.023 270.5C737.723 270.5 736.473 270.267 735.273 269.8C734.107 269.333 733.073 268.6 732.173 267.6C731.307 266.6 730.607 265.333 730.073 263.8C729.573 262.267 729.323 260.417 729.323 258.25C729.323 257.283 729.39 256.217 729.523 255.05C729.657 253.85 729.89 252.65 730.223 251.45C730.557 250.25 731.023 249.083 731.623 247.95C732.223 246.817 732.973 245.817 733.873 244.95C734.807 244.05 735.907 243.333 737.173 242.8C738.473 242.267 739.99 242 741.723 242C743.39 242 744.723 242.3 745.723 242.9C746.757 243.467 747.407 244.467 747.673 245.9C747.74 244.6 747.807 243.467 747.873 242.5C747.94 241.533 747.99 240.633 748.023 239.8C748.09 238.967 748.157 238.133 748.223 237.3C748.29 236.467 748.357 235.517 748.423 234.45C748.457 233.717 748.54 233.283 748.673 233.15C748.74 233.083 748.823 233.05 748.923 233.05C749.023 233.017 749.207 233 749.473 233H751.423C752.423 233 753.257 233.117 753.923 233.35C754.59 233.583 755.123 233.9 755.523 234.3C755.923 234.7 756.207 235.167 756.373 235.7C756.54 236.2 756.623 236.733 756.623 237.3C756.623 237.3 756.59 237.717 756.523 238.55C756.457 239.383 756.373 240.5 756.273 241.9C756.173 243.267 756.057 244.833 755.923 246.6C755.79 248.367 755.657 250.2 755.523 252.1C755.39 253.967 755.257 255.833 755.123 257.7C754.99 259.533 754.857 261.233 754.723 262.8C754.59 264.333 754.473 265.667 754.373 266.8C754.307 267.9 754.257 268.633 754.223 269C754.157 269.4 754.073 269.667 753.973 269.8C753.873 269.933 753.59 270 753.123 270H751.323C750.623 270 749.957 269.95 749.323 269.85C748.723 269.717 748.19 269.517 747.723 269.25C747.29 268.95 746.94 268.567 746.673 268.1C746.44 267.6 746.323 266.967 746.323 266.2C745.723 267.467 744.807 268.5 743.573 269.3C742.373 270.1 740.857 270.5 739.023 270.5ZM743.373 248.65C741.673 248.65 740.407 249.4 739.573 250.9C738.773 252.367 738.373 254.35 738.373 256.85C738.373 257.717 738.423 258.567 738.523 259.4C738.657 260.233 738.873 260.983 739.173 261.65C739.473 262.317 739.873 262.85 740.373 263.25C740.907 263.65 741.573 263.85 742.373 263.85C743.807 263.85 745.007 263.15 745.973 261.75C746.94 260.35 747.423 258.15 747.423 255.15C747.423 254.317 747.373 253.517 747.273 252.75C747.173 251.95 746.973 251.25 746.673 250.65C746.373 250.05 745.957 249.567 745.423 249.2C744.89 248.833 744.207 248.65 743.373 248.65ZM758.793 263.85C758.793 260.85 760.143 258.5 762.843 256.8C765.543 255.1 769.526 254.183 774.793 254.05C774.826 253.683 774.843 253.383 774.843 253.15C774.876 252.883 774.893 252.567 774.893 252.2C774.893 251.133 774.693 250.283 774.293 249.65C773.893 249.017 773.06 248.7 771.793 248.7C771.093 248.7 770.526 248.8 770.093 249C769.66 249.2 769.31 249.483 769.043 249.85C768.776 250.183 768.56 250.6 768.393 251.1C768.226 251.6 768.076 252.15 767.943 252.75C767.876 253.05 767.726 253.25 767.493 253.35C767.26 253.417 766.893 253.45 766.393 253.45C762.993 253.45 761.293 252.167 761.293 249.6C761.293 248.567 761.526 247.583 761.993 246.65C762.493 245.717 763.21 244.917 764.143 244.25C765.11 243.55 766.31 243 767.743 242.6C769.176 242.2 770.843 242 772.743 242C776.443 242 779.126 242.767 780.793 244.3C782.46 245.833 783.293 248 783.293 250.8C783.293 251.167 783.243 251.833 783.143 252.8C783.076 253.733 782.976 254.733 782.843 255.8C782.743 256.833 782.643 257.817 782.543 258.75C782.476 259.683 782.443 260.333 782.443 260.7C782.443 261.533 782.593 262.133 782.893 262.5C783.193 262.833 783.526 263.067 783.893 263.2C784.293 263.333 784.643 263.433 784.943 263.5C785.243 263.567 785.393 263.733 785.393 264C785.393 264.733 785.293 265.483 785.093 266.25C784.893 267.017 784.56 267.717 784.093 268.35C783.66 268.983 783.043 269.5 782.243 269.9C781.476 270.3 780.526 270.5 779.393 270.5C777.793 270.5 776.593 270.117 775.793 269.35C774.993 268.583 774.46 267.517 774.193 266.15C773.393 267.317 772.343 268.333 771.043 269.2C769.776 270.067 768.11 270.5 766.043 270.5C765.043 270.5 764.093 270.383 763.193 270.15C762.326 269.917 761.56 269.533 760.893 269C760.26 268.467 759.743 267.783 759.343 266.95C758.976 266.083 758.793 265.05 758.793 263.85ZM774.343 258.15C773.476 258.15 772.626 258.217 771.793 258.35C770.96 258.483 770.21 258.7 769.543 259C768.91 259.267 768.393 259.633 767.993 260.1C767.593 260.567 767.393 261.133 767.393 261.8C767.393 262.567 767.626 263.1 768.093 263.4C768.593 263.7 769.126 263.85 769.693 263.85C770.226 263.85 770.76 263.733 771.293 263.5C771.826 263.267 772.293 262.917 772.693 262.45C773.126 261.95 773.493 261.35 773.793 260.65C774.093 259.95 774.276 259.117 774.343 258.15ZM812.217 265.95C812.217 266.117 812.134 266.45 811.967 266.95C811.8 267.45 811.534 267.967 811.167 268.5C810.8 269.033 810.334 269.5 809.767 269.9C809.234 270.3 808.584 270.5 807.817 270.5C806.917 270.5 806.017 270.2 805.117 269.6C804.25 269 803.384 268.183 802.517 267.15C801.65 266.117 800.767 264.9 799.867 263.5C799 262.067 798.117 260.517 797.217 258.85C797.084 260.617 796.95 262.35 796.817 264.05C796.684 265.75 796.55 267.4 796.417 269C796.384 269.4 796.3 269.667 796.167 269.8C796.034 269.933 795.75 270 795.317 270H793.517C792.484 270 791.634 269.9 790.967 269.7C790.3 269.467 789.784 269.15 789.417 268.75C789.05 268.35 788.784 267.85 788.617 267.25C788.484 266.617 788.417 265.9 788.417 265.1C788.417 264.7 788.434 264.283 788.467 263.85C788.5 263.417 788.55 262.8 788.617 262C788.684 261.2 788.767 260.15 788.867 258.85C789 257.55 789.15 255.833 789.317 253.7C789.484 251.567 789.667 248.95 789.867 245.85C790.1 242.717 790.35 238.917 790.617 234.45C790.65 233.717 790.734 233.283 790.867 233.15C790.967 233.05 791.234 233 791.667 233H793.617C794.65 233 795.5 233.117 796.167 233.35C796.834 233.583 797.367 233.9 797.767 234.3C798.167 234.7 798.434 235.167 798.567 235.7C798.734 236.233 798.817 236.783 798.817 237.35C798.817 237.683 798.784 238.25 798.717 239.05C798.684 239.817 798.634 240.767 798.567 241.9C798.5 243 798.4 244.25 798.267 245.65C798.167 247.05 798.067 248.517 797.967 250.05L805.967 242.75C806.267 242.483 806.534 242.3 806.767 242.2C807.034 242.1 807.234 242.05 807.367 242.05C807.734 242.05 808.134 242.283 808.567 242.75C809 243.217 809.4 243.767 809.767 244.4C810.167 245 810.484 245.633 810.717 246.3C810.984 246.933 811.117 247.45 811.117 247.85C811.117 248.817 810.334 249.833 808.767 250.9C807.234 251.967 804.9 253.167 801.767 254.5C803.167 256.067 804.5 257.5 805.767 258.8C807.034 260.1 808.134 261.25 809.067 262.25C810.034 263.25 810.8 264.067 811.367 264.7C811.934 265.333 812.217 265.75 812.217 265.95ZM381.748 330.5C380.448 330.5 379.198 330.267 377.998 329.8C376.831 329.333 375.798 328.6 374.898 327.6C374.031 326.6 373.331 325.333 372.798 323.8C372.298 322.267 372.048 320.417 372.048 318.25C372.048 317.283 372.115 316.217 372.248 315.05C372.381 313.85 372.615 312.65 372.948 311.45C373.281 310.25 373.748 309.083 374.348 307.95C374.948 306.817 375.698 305.817 376.598 304.95C377.531 304.05 378.631 303.333 379.898 302.8C381.198 302.267 382.715 302 384.448 302C386.115 302 387.448 302.3 388.448 302.9C389.481 303.467 390.131 304.467 390.398 305.9C390.465 304.6 390.531 303.467 390.598 302.5C390.665 301.533 390.715 300.633 390.748 299.8C390.815 298.967 390.881 298.133 390.948 297.3C391.015 296.467 391.081 295.517 391.148 294.45C391.181 293.717 391.265 293.283 391.398 293.15C391.465 293.083 391.548 293.05 391.648 293.05C391.748 293.017 391.931 293 392.198 293H394.148C395.148 293 395.981 293.117 396.648 293.35C397.315 293.583 397.848 293.9 398.248 294.3C398.648 294.7 398.931 295.167 399.098 295.7C399.265 296.2 399.348 296.733 399.348 297.3C399.348 297.3 399.315 297.717 399.248 298.55C399.181 299.383 399.098 300.5 398.998 301.9C398.898 303.267 398.781 304.833 398.648 306.6C398.515 308.367 398.381 310.2 398.248 312.1C398.115 313.967 397.981 315.833 397.848 317.7C397.715 319.533 397.581 321.233 397.448 322.8C397.315 324.333 397.198 325.667 397.098 326.8C397.031 327.9 396.981 328.633 396.948 329C396.881 329.4 396.798 329.667 396.698 329.8C396.598 329.933 396.315 330 395.848 330H394.048C393.348 330 392.681 329.95 392.048 329.85C391.448 329.717 390.915 329.517 390.448 329.25C390.015 328.95 389.665 328.567 389.398 328.1C389.165 327.6 389.048 326.967 389.048 326.2C388.448 327.467 387.531 328.5 386.298 329.3C385.098 330.1 383.581 330.5 381.748 330.5ZM386.098 308.65C384.398 308.65 383.131 309.4 382.298 310.9C381.498 312.367 381.098 314.35 381.098 316.85C381.098 317.717 381.148 318.567 381.248 319.4C381.381 320.233 381.598 320.983 381.898 321.65C382.198 322.317 382.598 322.85 383.098 323.25C383.631 323.65 384.298 323.85 385.098 323.85C386.531 323.85 387.731 323.15 388.698 321.75C389.665 320.35 390.148 318.15 390.148 315.15C390.148 314.317 390.098 313.517 389.998 312.75C389.898 311.95 389.698 311.25 389.398 310.65C389.098 310.05 388.681 309.567 388.148 309.2C387.615 308.833 386.931 308.65 386.098 308.65ZM408.168 330C407.134 330 406.284 329.9 405.618 329.7C404.984 329.467 404.468 329.15 404.068 328.75C403.701 328.35 403.434 327.867 403.268 327.3C403.134 326.7 403.068 326.017 403.068 325.25C403.068 324.75 403.084 324.05 403.118 323.15C403.184 322.217 403.284 320.95 403.418 319.35C403.551 317.717 403.701 315.667 403.868 313.2C404.068 310.7 404.301 307.617 404.568 303.95C404.601 303.217 404.684 302.783 404.818 302.65C404.918 302.55 405.184 302.5 405.618 302.5H407.568C408.601 302.5 409.434 302.6 410.068 302.8C410.734 303 411.251 303.3 411.618 303.7C412.018 304.1 412.284 304.583 412.418 305.15C412.584 305.717 412.668 306.35 412.668 307.05C412.668 307.55 412.634 308.3 412.568 309.3C412.501 310.3 412.401 311.667 412.268 313.4C412.168 315.1 412.018 317.233 411.818 319.8C411.618 322.333 411.368 325.4 411.068 329C411.034 329.4 410.951 329.667 410.818 329.8C410.684 329.933 410.401 330 409.968 330H408.168ZM404.618 296.6C404.618 295.267 405.101 294.217 406.068 293.45C407.034 292.683 408.334 292.3 409.968 292.3C411.401 292.3 412.434 292.6 413.068 293.2C413.734 293.767 414.068 294.533 414.068 295.5C414.068 296.733 413.601 297.767 412.668 298.6C411.768 299.4 410.434 299.8 408.668 299.8C405.968 299.8 404.618 298.733 404.618 296.6ZM427.83 309.25C427.73 310.517 427.614 311.767 427.48 313C427.38 314.233 427.28 315.4 427.18 316.5C427.08 317.6 426.997 318.583 426.93 319.45C426.897 320.317 426.88 320.983 426.88 321.45C426.88 322.317 426.98 322.9 427.18 323.2C427.38 323.467 427.714 323.6 428.18 323.6C428.547 323.6 428.864 323.533 429.13 323.4C429.397 323.267 429.647 323.117 429.88 322.95C430.114 322.783 430.314 322.633 430.48 322.5C430.68 322.367 430.897 322.3 431.13 322.3C431.364 322.3 431.58 322.433 431.78 322.7C431.98 322.967 432.08 323.583 432.08 324.55C432.08 326.383 431.58 327.833 430.58 328.9C429.58 329.967 427.864 330.5 425.43 330.5C423.03 330.5 421.247 329.95 420.08 328.85C418.947 327.717 418.38 326 418.38 323.7C418.38 323.2 418.397 322.617 418.43 321.95C418.497 321.25 418.58 320.35 418.68 319.25C418.78 318.15 418.897 316.8 419.03 315.2C419.197 313.6 419.364 311.617 419.53 309.25H416.88C416.614 309.25 416.447 309.2 416.38 309.1C416.347 308.967 416.33 308.783 416.33 308.55L416.48 306C416.514 305.567 416.564 305.15 416.63 304.75C416.73 304.317 416.897 303.933 417.13 303.6C417.397 303.267 417.764 303 418.23 302.8C418.697 302.6 419.314 302.5 420.08 302.5C420.314 301.9 420.58 301.183 420.88 300.35C421.18 299.517 421.48 298.717 421.78 297.95C422.08 297.15 422.364 296.483 422.63 295.95C422.93 295.417 423.197 295.15 423.43 295.15H424.88C426.28 295.15 427.247 295.583 427.78 296.45C428.314 297.317 428.58 298.35 428.58 299.55C428.58 300.217 428.53 301.2 428.43 302.5H433.68C434.214 302.5 434.48 302.733 434.48 303.2L434.28 305.9C434.214 306.9 433.93 307.717 433.43 308.35C432.964 308.95 431.98 309.25 430.48 309.25H427.83ZM448.259 330.5C446.793 330.5 445.326 330.317 443.859 329.95C442.426 329.583 441.126 328.95 439.959 328.05C438.826 327.15 437.893 325.95 437.159 324.45C436.426 322.95 436.059 321.067 436.059 318.8C436.059 317.967 436.126 316.967 436.259 315.8C436.393 314.633 436.643 313.433 437.009 312.2C437.409 310.967 437.943 309.75 438.609 308.55C439.309 307.317 440.209 306.217 441.309 305.25C442.409 304.283 443.743 303.5 445.309 302.9C446.876 302.3 448.743 302 450.909 302C452.643 302 454.109 302.2 455.309 302.6C456.509 303 457.476 303.55 458.209 304.25C458.943 304.917 459.476 305.7 459.809 306.6C460.143 307.5 460.309 308.467 460.309 309.5C460.309 311.033 459.993 312.333 459.359 313.4C458.759 314.467 457.959 315.367 456.959 316.1C455.993 316.8 454.909 317.35 453.709 317.75C452.509 318.15 451.326 318.467 450.159 318.7C448.993 318.9 447.909 319.033 446.909 319.1C445.943 319.133 445.193 319.15 444.659 319.15C444.659 319.783 444.743 320.417 444.909 321.05C445.109 321.65 445.393 322.183 445.759 322.65C446.126 323.117 446.609 323.5 447.209 323.8C447.809 324.1 448.543 324.25 449.409 324.25C450.276 324.25 450.943 324.117 451.409 323.85C451.909 323.55 452.309 323.233 452.609 322.9C452.909 322.533 453.159 322.217 453.359 321.95C453.593 321.65 453.893 321.5 454.259 321.5C454.426 321.5 454.709 321.55 455.109 321.65C455.543 321.717 455.976 321.883 456.409 322.15C456.843 322.417 457.226 322.783 457.559 323.25C457.893 323.717 458.059 324.317 458.059 325.05C458.059 326.017 457.759 326.85 457.159 327.55C456.559 328.25 455.776 328.817 454.809 329.25C453.876 329.683 452.826 330 451.659 330.2C450.493 330.4 449.359 330.5 448.259 330.5ZM449.209 308.65C448.476 308.65 447.843 308.867 447.309 309.3C446.809 309.7 446.376 310.217 446.009 310.85C445.676 311.483 445.409 312.183 445.209 312.95C445.043 313.717 444.909 314.45 444.809 315.15C446.876 315.117 448.543 314.767 449.809 314.1C451.109 313.433 451.759 312.483 451.759 311.25C451.759 310.583 451.543 309.983 451.109 309.45C450.709 308.917 450.076 308.65 449.209 308.65ZM471.971 321C471.871 322.533 471.754 324 471.621 325.4C471.487 326.767 471.387 327.967 471.321 329C471.287 329.4 471.204 329.667 471.071 329.8C470.937 329.933 470.654 330 470.221 330H468.421C467.387 330 466.537 329.9 465.871 329.7C465.237 329.467 464.721 329.15 464.321 328.75C463.954 328.35 463.687 327.867 463.521 327.3C463.387 326.7 463.321 326.017 463.321 325.25C463.321 324.75 463.337 324.05 463.371 323.15C463.437 322.217 463.537 320.95 463.671 319.35C463.804 317.717 463.954 315.667 464.121 313.2C464.321 310.7 464.554 307.617 464.821 303.95C464.854 303.217 464.937 302.783 465.071 302.65C465.171 302.55 465.437 302.5 465.871 302.5H467.821C468.821 302.5 469.637 302.617 470.271 302.85C470.904 303.083 471.421 303.383 471.821 303.75C472.221 304.117 472.504 304.55 472.671 305.05C472.837 305.55 472.937 306.067 472.971 306.6C473.937 304.8 475.037 303.583 476.271 302.95C477.504 302.317 478.954 302 480.621 302C481.521 302 482.387 302.083 483.221 302.25C484.054 302.417 484.804 302.7 485.471 303.1C486.137 303.5 486.704 304.033 487.171 304.7C487.637 305.333 487.971 306.15 488.171 307.15C489.204 305.217 490.337 303.883 491.571 303.15C492.804 302.383 494.354 302 496.221 302C497.254 302 498.237 302.117 499.171 302.35C500.137 302.55 500.971 302.917 501.671 303.45C502.371 303.983 502.921 304.717 503.321 305.65C503.754 306.55 503.971 307.683 503.971 309.05C503.971 310.083 503.921 311.35 503.821 312.85C503.721 314.35 503.604 315.983 503.471 317.75C503.337 319.483 503.187 321.283 503.021 323.15C502.854 324.983 502.721 326.75 502.621 328.45C502.587 328.817 502.554 329.1 502.521 329.3C502.487 329.5 502.421 329.65 502.321 329.75C502.254 329.85 502.137 329.917 501.971 329.95C501.804 329.983 501.571 330 501.271 330H499.671C498.604 330 497.737 329.9 497.071 329.7C496.404 329.5 495.887 329.217 495.521 328.85C495.154 328.483 494.887 328.033 494.721 327.5C494.587 326.933 494.521 326.3 494.521 325.6C494.521 325.167 494.537 324.55 494.571 323.75C494.637 322.95 494.704 322.083 494.771 321.15C494.871 320.217 494.954 319.25 495.021 318.25C495.121 317.25 495.204 316.333 495.271 315.5C495.371 314.633 495.437 313.883 495.471 313.25C495.537 312.617 495.571 312.2 495.571 312C495.571 311.133 495.387 310.367 495.021 309.7C494.687 309.033 494.021 308.7 493.021 308.7C492.154 308.7 491.404 308.983 490.771 309.55C490.137 310.117 489.604 310.9 489.171 311.9C488.737 312.9 488.387 314.083 488.121 315.45C487.854 316.817 487.671 318.3 487.571 319.9C487.504 320.933 487.421 322.117 487.321 323.45C487.221 324.783 487.104 326.45 486.971 328.45C486.937 328.817 486.904 329.1 486.871 329.3C486.837 329.5 486.771 329.65 486.671 329.75C486.604 329.85 486.487 329.917 486.321 329.95C486.154 329.983 485.921 330 485.621 330H484.021C482.954 330 482.087 329.9 481.421 329.7C480.754 329.5 480.237 329.217 479.871 328.85C479.504 328.483 479.237 328.033 479.071 327.5C478.937 326.933 478.871 326.3 478.871 325.6C478.871 324.933 478.921 323.967 479.021 322.7C479.154 321.4 479.271 320.067 479.371 318.7C479.504 317.3 479.621 315.983 479.721 314.75C479.854 313.483 479.921 312.567 479.921 312C479.921 311.133 479.737 310.367 479.371 309.7C479.037 309.033 478.371 308.7 477.371 308.7C476.471 308.7 475.704 309.033 475.071 309.7C474.437 310.367 473.904 311.267 473.471 312.4C473.071 313.5 472.737 314.8 472.471 316.3C472.237 317.8 472.071 319.367 471.971 321ZM517.988 306.75C517.988 307.45 517.921 308.433 517.788 309.7C517.688 310.967 517.571 312.283 517.438 313.65C517.338 315.017 517.221 316.3 517.088 317.5C516.988 318.7 516.938 319.567 516.938 320.1C516.938 321.267 517.221 322.183 517.788 322.85C518.388 323.483 519.204 323.8 520.238 323.8C521.138 323.8 521.888 323.45 522.488 322.75C523.121 322.017 523.621 321.083 523.988 319.95C524.388 318.783 524.704 317.467 524.938 316C525.171 314.533 525.338 313.05 525.438 311.55C525.571 310.05 525.671 308.6 525.738 307.2C525.838 305.767 525.938 304.533 526.038 303.5C526.071 303.233 526.171 303 526.338 302.8C526.504 302.6 526.771 302.5 527.138 302.5H528.938C529.971 302.5 530.804 302.617 531.438 302.85C532.104 303.05 532.621 303.35 532.988 303.75C533.388 304.15 533.654 304.65 533.788 305.25C533.954 305.817 534.038 306.483 534.038 307.25C534.038 307.75 534.004 308.467 533.938 309.4C533.904 310.3 533.821 311.567 533.688 313.2C533.554 314.8 533.388 316.85 533.188 319.35C533.021 321.817 532.804 324.883 532.538 328.55C532.471 329.25 532.388 329.667 532.288 329.8C532.221 329.933 531.954 330 531.488 330H529.538C528.538 330 527.704 329.883 527.038 329.65C526.404 329.417 525.888 329.117 525.488 328.75C525.088 328.383 524.804 327.95 524.638 327.45C524.471 326.95 524.371 326.433 524.338 325.9C523.838 326.767 523.271 327.5 522.638 328.1C522.038 328.7 521.404 329.183 520.738 329.55C520.071 329.883 519.388 330.117 518.688 330.25C517.988 330.417 517.304 330.5 516.638 330.5C515.371 330.5 514.238 330.3 513.238 329.9C512.238 329.467 511.388 328.9 510.688 328.2C510.021 327.5 509.504 326.667 509.138 325.7C508.771 324.733 508.588 323.7 508.588 322.6C508.588 322.167 508.604 321.467 508.638 320.5C508.704 319.5 508.771 318.383 508.838 317.15C508.938 315.917 509.038 314.617 509.138 313.25C509.238 311.85 509.321 310.533 509.388 309.3C509.488 308.067 509.571 306.983 509.638 306.05C509.738 305.117 509.804 304.45 509.838 304.05C509.904 303.45 510.038 303.05 510.238 302.85C510.438 302.617 510.771 302.5 511.238 302.5H512.838C513.871 302.5 514.721 302.6 515.388 302.8C516.054 303 516.571 303.283 516.938 303.65C517.338 304.017 517.604 304.467 517.738 305C517.904 305.5 517.988 306.083 517.988 306.75ZM562.168 325.95C562.168 326.117 562.085 326.45 561.918 326.95C561.751 327.45 561.485 327.967 561.118 328.5C560.751 329.033 560.285 329.5 559.718 329.9C559.185 330.3 558.535 330.5 557.768 330.5C556.868 330.5 555.968 330.2 555.068 329.6C554.201 329 553.335 328.183 552.468 327.15C551.601 326.117 550.718 324.9 549.818 323.5C548.951 322.067 548.068 320.517 547.168 318.85C547.035 320.617 546.901 322.35 546.768 324.05C546.635 325.75 546.501 327.4 546.368 329C546.335 329.4 546.251 329.667 546.118 329.8C545.985 329.933 545.701 330 545.268 330H543.468C542.435 330 541.585 329.9 540.918 329.7C540.251 329.467 539.735 329.15 539.368 328.75C539.001 328.35 538.735 327.85 538.568 327.25C538.435 326.617 538.368 325.9 538.368 325.1C538.368 324.7 538.385 324.283 538.418 323.85C538.451 323.417 538.501 322.8 538.568 322C538.635 321.2 538.718 320.15 538.818 318.85C538.951 317.55 539.101 315.833 539.268 313.7C539.435 311.567 539.618 308.95 539.818 305.85C540.051 302.717 540.301 298.917 540.568 294.45C540.601 293.717 540.685 293.283 540.818 293.15C540.918 293.05 541.185 293 541.618 293H543.568C544.601 293 545.451 293.117 546.118 293.35C546.785 293.583 547.318 293.9 547.718 294.3C548.118 294.7 548.385 295.167 548.518 295.7C548.685 296.233 548.768 296.783 548.768 297.35C548.768 297.683 548.735 298.25 548.668 299.05C548.635 299.817 548.585 300.767 548.518 301.9C548.451 303 548.351 304.25 548.218 305.65C548.118 307.05 548.018 308.517 547.918 310.05L555.918 302.75C556.218 302.483 556.485 302.3 556.718 302.2C556.985 302.1 557.185 302.05 557.318 302.05C557.685 302.05 558.085 302.283 558.518 302.75C558.951 303.217 559.351 303.767 559.718 304.4C560.118 305 560.435 305.633 560.668 306.3C560.935 306.933 561.068 307.45 561.068 307.85C561.068 308.817 560.285 309.833 558.718 310.9C557.185 311.967 554.851 313.167 551.718 314.5C553.118 316.067 554.451 317.5 555.718 318.8C556.985 320.1 558.085 321.25 559.018 322.25C559.985 323.25 560.751 324.067 561.318 324.7C561.885 325.333 562.168 325.75 562.168 325.95ZM563.871 323.85C563.871 320.85 565.221 318.5 567.921 316.8C570.621 315.1 574.605 314.183 579.871 314.05C579.905 313.683 579.921 313.383 579.921 313.15C579.955 312.883 579.971 312.567 579.971 312.2C579.971 311.133 579.771 310.283 579.371 309.65C578.971 309.017 578.138 308.7 576.871 308.7C576.171 308.7 575.605 308.8 575.171 309C574.738 309.2 574.388 309.483 574.121 309.85C573.855 310.183 573.638 310.6 573.471 311.1C573.305 311.6 573.155 312.15 573.021 312.75C572.955 313.05 572.805 313.25 572.571 313.35C572.338 313.417 571.971 313.45 571.471 313.45C568.071 313.45 566.371 312.167 566.371 309.6C566.371 308.567 566.605 307.583 567.071 306.65C567.571 305.717 568.288 304.917 569.221 304.25C570.188 303.55 571.388 303 572.821 302.6C574.255 302.2 575.921 302 577.821 302C581.521 302 584.205 302.767 585.871 304.3C587.538 305.833 588.371 308 588.371 310.8C588.371 311.167 588.321 311.833 588.221 312.8C588.155 313.733 588.055 314.733 587.921 315.8C587.821 316.833 587.721 317.817 587.621 318.75C587.555 319.683 587.521 320.333 587.521 320.7C587.521 321.533 587.671 322.133 587.971 322.5C588.271 322.833 588.605 323.067 588.971 323.2C589.371 323.333 589.721 323.433 590.021 323.5C590.321 323.567 590.471 323.733 590.471 324C590.471 324.733 590.371 325.483 590.171 326.25C589.971 327.017 589.638 327.717 589.171 328.35C588.738 328.983 588.121 329.5 587.321 329.9C586.555 330.3 585.605 330.5 584.471 330.5C582.871 330.5 581.671 330.117 580.871 329.35C580.071 328.583 579.538 327.517 579.271 326.15C578.471 327.317 577.421 328.333 576.121 329.2C574.855 330.067 573.188 330.5 571.121 330.5C570.121 330.5 569.171 330.383 568.271 330.15C567.405 329.917 566.638 329.533 565.971 329C565.338 328.467 564.821 327.783 564.421 326.95C564.055 326.083 563.871 325.05 563.871 323.85ZM579.421 318.15C578.555 318.15 577.705 318.217 576.871 318.35C576.038 318.483 575.288 318.7 574.621 319C573.988 319.267 573.471 319.633 573.071 320.1C572.671 320.567 572.471 321.133 572.471 321.8C572.471 322.567 572.705 323.1 573.171 323.4C573.671 323.7 574.205 323.85 574.771 323.85C575.305 323.85 575.838 323.733 576.371 323.5C576.905 323.267 577.371 322.917 577.771 322.45C578.205 321.95 578.571 321.35 578.871 320.65C579.171 319.95 579.355 319.117 579.421 318.15ZM610.595 325.6C610.595 324.867 610.645 323.917 610.745 322.75C610.878 321.55 610.995 320.3 611.095 319C611.228 317.667 611.345 316.383 611.445 315.15C611.578 313.917 611.645 312.883 611.645 312.05C611.645 311.183 611.428 310.417 610.995 309.75C610.595 309.05 609.795 308.7 608.595 308.7C607.428 308.7 606.462 308.983 605.695 309.55C604.928 310.117 604.278 311.15 603.745 312.65C603.245 314.15 602.828 316.217 602.495 318.85C602.162 321.483 601.845 324.867 601.545 329C601.512 329.4 601.428 329.667 601.295 329.8C601.162 329.933 600.878 330 600.445 330H598.645C597.612 330 596.762 329.9 596.095 329.7C595.462 329.467 594.945 329.15 594.545 328.75C594.178 328.35 593.912 327.867 593.745 327.3C593.612 326.7 593.545 326.017 593.545 325.25C593.545 324.75 593.562 324.05 593.595 323.15C593.662 322.217 593.762 320.95 593.895 319.35C594.028 317.717 594.178 315.667 594.345 313.2C594.545 310.7 594.778 307.617 595.045 303.95C595.078 303.217 595.162 302.783 595.295 302.65C595.395 302.55 595.662 302.5 596.095 302.5H598.045C599.045 302.5 599.862 302.617 600.495 302.85C601.162 303.083 601.695 303.4 602.095 303.8C602.495 304.167 602.778 304.617 602.945 305.15C603.112 305.65 603.212 306.167 603.245 306.7C604.278 304.933 605.462 303.717 606.795 303.05C608.128 302.35 609.795 302 611.795 302C613.195 302 614.412 302.15 615.445 302.45C616.478 302.75 617.328 303.267 617.995 304C618.695 304.7 619.212 305.633 619.545 306.8C619.878 307.933 620.045 309.35 620.045 311.05C620.045 311.583 620.012 312.35 619.945 313.35C619.878 314.35 619.795 315.45 619.695 316.65C619.595 317.817 619.478 319.05 619.345 320.35C619.245 321.617 619.145 322.8 619.045 323.9C618.945 325 618.862 325.967 618.795 326.8C618.728 327.633 618.695 328.183 618.695 328.45C618.695 329.183 618.612 329.633 618.445 329.8C618.278 329.933 617.912 330 617.345 330H615.745C614.678 330 613.812 329.9 613.145 329.7C612.478 329.5 611.962 329.217 611.595 328.85C611.228 328.483 610.962 328.033 610.795 327.5C610.662 326.933 610.595 326.3 610.595 325.6Z" fill="#6614BE"/>
<path d="M416.761 167.64C414.681 167.64 413.001 167.293 411.721 166.6C410.495 165.853 409.881 164.627 409.881 162.92C409.881 162.28 409.961 161.56 410.121 160.76C410.335 159.907 410.601 158.84 410.921 157.56C411.295 156.227 411.748 154.6 412.281 152.68C412.868 150.76 413.561 148.387 414.361 145.56C414.895 143.693 415.348 142.013 415.721 140.52C416.148 138.973 416.495 137.56 416.761 136.28C417.028 135 417.215 133.827 417.321 132.76C417.481 131.64 417.561 130.547 417.561 129.48C417.561 128.84 417.615 128.147 417.721 127.4C417.881 126.6 418.255 126.2 418.841 126.2H422.441C425.481 126.2 427.561 126.733 428.681 127.8C429.855 128.867 430.441 130.68 430.441 133.24C430.441 134.2 430.361 135.293 430.201 136.52C430.041 137.747 429.748 139.267 429.321 141.08C428.948 142.893 428.441 145.053 427.801 147.56C427.215 150.067 426.468 153.08 425.561 156.6H436.281C436.441 154.733 436.601 152.68 436.761 150.44C436.975 148.147 437.161 145.933 437.321 143.8C437.481 141.667 437.615 139.747 437.721 138.04C437.881 136.28 437.988 135 438.041 134.2C438.148 132.333 438.201 130.867 438.201 129.8C438.201 128.733 438.228 127.933 438.281 127.4C438.388 126.867 438.521 126.547 438.681 126.44C438.895 126.28 439.215 126.2 439.641 126.2H444.041C445.748 126.2 447.108 126.387 448.121 126.76C449.188 127.08 450.015 127.56 450.601 128.2C451.188 128.84 451.588 129.64 451.801 130.6C452.015 131.507 452.121 132.573 452.121 133.8C452.121 135.027 452.041 137.027 451.881 139.8C451.775 142.52 451.588 145.613 451.321 149.08C451.108 152.493 450.868 156.04 450.601 159.72C450.388 163.4 450.148 166.813 449.881 169.96C449.668 173.107 449.481 175.773 449.321 177.96C449.161 180.147 449.055 181.427 449.001 181.8C448.948 182.227 448.841 182.547 448.681 182.76C448.521 182.92 448.201 183 447.721 183H443.321C440.388 183 438.255 182.413 436.921 181.24C435.641 180.067 435.001 178.387 435.001 176.2C435.001 175.773 435.028 174.92 435.081 173.64C435.135 172.36 435.241 170.36 435.401 167.64H416.761ZM486.412 125.32C489.932 125.32 492.919 125.88 495.372 127C497.825 128.067 499.825 129.667 501.372 131.8C502.919 133.88 504.039 136.44 504.732 139.48C505.479 142.467 505.852 145.88 505.852 149.72C505.852 151.853 505.719 154.173 505.452 156.68C505.185 159.187 504.705 161.72 504.012 164.28C503.319 166.787 502.359 169.213 501.132 171.56C499.905 173.907 498.332 175.987 496.412 177.8C494.492 179.613 492.172 181.08 489.452 182.2C486.785 183.267 483.612 183.8 479.932 183.8C475.985 183.8 472.705 183.133 470.092 181.8C467.532 180.467 465.452 178.68 463.852 176.44C462.305 174.147 461.212 171.453 460.572 168.36C459.932 165.267 459.612 161.96 459.612 158.44C459.612 154.28 460.039 150.227 460.892 146.28C461.799 142.28 463.292 138.733 465.372 135.64C467.452 132.547 470.199 130.067 473.612 128.2C477.079 126.28 481.345 125.32 486.412 125.32ZM484.732 137.72C483.239 137.72 481.932 138.067 480.812 138.76C479.745 139.4 478.812 140.28 478.012 141.4C477.265 142.52 476.652 143.773 476.172 145.16C475.745 146.547 475.399 147.987 475.132 149.48C474.865 150.92 474.679 152.333 474.572 153.72C474.519 155.053 474.492 156.253 474.492 157.32C474.492 162.173 475.079 165.72 476.252 167.96C477.479 170.2 479.212 171.32 481.452 171.32C483.425 171.32 485.025 170.547 486.252 169C487.532 167.4 488.519 165.507 489.212 163.32C489.905 161.08 490.359 158.787 490.572 156.44C490.839 154.04 490.972 152.013 490.972 150.36C490.972 146.467 490.492 143.4 489.532 141.16C488.572 138.867 486.972 137.72 484.732 137.72ZM517.308 167.64C515.228 167.64 513.548 167.293 512.268 166.6C511.041 165.853 510.428 164.627 510.428 162.92C510.428 162.28 510.508 161.56 510.668 160.76C510.881 159.907 511.148 158.84 511.468 157.56C511.841 156.227 512.295 154.6 512.828 152.68C513.415 150.76 514.108 148.387 514.908 145.56C515.441 143.693 515.895 142.013 516.268 140.52C516.695 138.973 517.041 137.56 517.308 136.28C517.575 135 517.761 133.827 517.868 132.76C518.028 131.64 518.108 130.547 518.108 129.48C518.108 128.84 518.161 128.147 518.268 127.4C518.428 126.6 518.801 126.2 519.388 126.2H522.988C526.028 126.2 528.108 126.733 529.228 127.8C530.401 128.867 530.988 130.68 530.988 133.24C530.988 134.2 530.908 135.293 530.748 136.52C530.588 137.747 530.295 139.267 529.868 141.08C529.495 142.893 528.988 145.053 528.348 147.56C527.761 150.067 527.015 153.08 526.108 156.6H536.828C536.988 154.733 537.148 152.68 537.308 150.44C537.521 148.147 537.708 145.933 537.868 143.8C538.028 141.667 538.161 139.747 538.268 138.04C538.428 136.28 538.535 135 538.588 134.2C538.695 132.333 538.748 130.867 538.748 129.8C538.748 128.733 538.775 127.933 538.828 127.4C538.935 126.867 539.068 126.547 539.228 126.44C539.441 126.28 539.761 126.2 540.188 126.2H544.588C546.295 126.2 547.655 126.387 548.668 126.76C549.735 127.08 550.561 127.56 551.148 128.2C551.735 128.84 552.135 129.64 552.348 130.6C552.561 131.507 552.668 132.573 552.668 133.8C552.668 135.027 552.588 137.027 552.428 139.8C552.321 142.52 552.135 145.613 551.868 149.08C551.655 152.493 551.415 156.04 551.148 159.72C550.935 163.4 550.695 166.813 550.428 169.96C550.215 173.107 550.028 175.773 549.868 177.96C549.708 180.147 549.601 181.427 549.548 181.8C549.495 182.227 549.388 182.547 549.228 182.76C549.068 182.92 548.748 183 548.268 183H543.868C540.935 183 538.801 182.413 537.468 181.24C536.188 180.067 535.548 178.387 535.548 176.2C535.548 175.773 535.575 174.92 535.628 173.64C535.681 172.36 535.788 170.36 535.948 167.64H517.308Z" fill="#6614BE"/>
<g filter="url(#filter1_d_1272_355)">
<path d="M951 567.5C944.59 587.222 928.942 587.982 905.016 594.233C904.346 594.408 903.646 594.502 902.954 594.495C880.427 594.281 862 587.08 862 567.5C862 547.618 874.923 540 899.5 540C924.077 540 951 547.618 951 567.5Z" fill="#FAFAFA"/>
</g>
<g filter="url(#filter2_d_1272_355)">
<path d="M876 483.5C869.59 503.222 853.942 503.982 830.016 510.233C829.346 510.408 828.646 510.502 827.954 510.495C805.427 510.281 787 503.08 787 483.5C787 463.618 799.923 456 824.5 456C849.077 456 876 463.618 876 483.5Z" fill="#FAFAFA"/>
</g>
<g filter="url(#filter3_d_1272_355)">
<path d="M886 657.5C879.59 677.222 863.942 677.982 840.016 684.233C839.346 684.408 838.646 684.502 837.954 684.495C815.427 684.281 797 677.08 797 657.5C797 637.618 809.923 630 834.5 630C859.077 630 886 637.618 886 657.5Z" fill="#FAFAFA"/>
</g>
<path d="M524.626 909.925C521.912 913.398 520.671 914.986 519.801 918.721C520.248 930.482 530.958 940.201 544.556 942.68C558.024 945.135 573.852 940.302 583.608 923.179C585.701 918.475 587.888 913.79 590.031 909.2L590.065 909.127C592.213 904.526 594.316 900.024 596.25 895.663C600.151 886.869 603.309 878.78 604.756 871.804C606.211 864.79 605.852 859.306 603.243 855.38C600.682 851.527 595.585 848.639 586.25 847.656C584.015 847.851 581.947 848.026 580.03 848.189C573.02 848.784 568.032 849.208 564.307 849.801C559.559 850.557 557.325 851.532 555.753 853.121C554.06 854.832 552.9 857.451 550.911 862.32C550.812 862.561 550.712 862.807 550.61 863.057C548.7 867.741 546.125 874.051 541.725 882.547C534.003 897.456 528.935 904.377 525.509 908.792C525.198 909.192 524.904 909.568 524.626 909.925Z" fill="white" stroke="black" stroke-width="4"/>
<path d="M676.114 729.199C656.928 751.621 595.484 774.311 542.871 741.319C481.989 785.869 423.857 750.065 410.259 723.303C370.561 645.182 448.87 569.278 563.013 574.977C677.156 580.678 729.285 667.057 676.114 729.199Z" fill="black"/>
<path d="M645 1072C645 1078.48 640.614 1084.68 632.791 1089.38C625.008 1094.05 614.126 1097 602 1097C589.874 1097 578.992 1094.05 571.209 1089.38C563.386 1084.68 559 1078.48 559 1072C559 1065.52 563.386 1059.32 571.209 1054.62C578.992 1049.95 589.874 1047 602 1047C614.126 1047 625.008 1049.95 632.791 1054.62C640.614 1059.32 645 1065.52 645 1072Z" fill="#201E1E" fill-opacity="0.74" stroke="#605E5E" stroke-width="4"/>
<path d="M606 812.501L609.501 854.999L618.001 904.999L630.671 954.219C630.889 955.067 631.245 955.873 631.725 956.605L648.999 983" stroke="#F4F4F4"/>
<path d="M265.5 977.645L432 971.645L429 1127.14L270 1145.64L265.5 977.645Z" fill="#8D2EF4"/>
<path d="M223 951.5L266.5 978.144L270 1145.64L225.5 1101.14L223 951.5Z" fill="#8D2EF4"/>
<path d="M271 977.145L284.5 976.645L282.5 1144.14L270.5 1145.64L271 977.145Z" fill="#2DF0C4"/>
<path d="M422 971.645H432L429 1127.14L420 1128.14L422 971.645Z" fill="#2DF0C4"/>
<path d="M223 951.5L227 953.5L228 1104.14L225.5 1101.64L223 951.5Z" fill="#2DF0C4"/>
<path d="M227 953.645L273 976.501L271 982.645L227 959.501V953.645Z" fill="#2DF0C4"/>
<path d="M228 1099.64L270.5 1139.64V1146.14L228 1104.14V1099.64Z" fill="#2DF0C4"/>
<path d="M284.5 976.645L422.5 971.645V978.645L284.5 983.645V976.645Z" fill="#2DF0C4"/>
<path d="M282.501 1138.14L420.5 1122.64L420.5 1128.14L282.5 1144.14L282.501 1138.14Z" fill="#2DF0C4"/>
<path d="M367.5 948L394 958L431 972L274.5 978L223.5 951.5L367.5 948Z" fill="#6E22A9"/>
<path d="M52.7455 1090.33L168.978 952.768L262.134 927.983L132.203 1085.49L52.7455 1090.33Z" fill="#8D2EF4"/>
<path d="M132.106 1085.15L261.868 928.032L267.35 932.435L142.268 1085.15L132.106 1085.15Z" fill="#2DF0C4"/>
<path d="M168.978 952.768L175.1 951.011L59.0134 1089.7L51.2005 1089.87L168.978 952.768Z" fill="#2DF0C4"/>
<path d="M51.7833 1089.53L145 1082L139.517 1088.37L51 1093L51.7833 1089.53Z" fill="#2DF0C4"/>
<path d="M168.57 952.84L262 928L258.074 933.4L167 955L168.57 952.84Z" fill="#2DF0C4"/>
<circle cx="487.5" cy="698.5" r="20.5" fill="#84F6D5"/>
<ellipse cx="601.5" cy="699" rx="20.5" ry="20" fill="#84F6D5"/>
<path d="M670.853 886.739C662.318 889.23 652.381 912.138 659.389 936.147C666.396 960.157 680.466 969.972 693.334 962.114C706.93 950.454 707.098 936.148 698.387 934.611C672.178 929.985 679.388 884.248 670.853 886.739Z" fill="#57DFD7"/>
<path d="M686.888 875.984C693.698 897.028 697.906 920.222 699.251 930.096C699.099 930.225 698.943 930.397 698.813 930.621C698.776 930.684 698.742 930.75 698.712 930.819C698.333 930.95 697.848 931.103 697.233 931.28C695.059 931.904 691.432 932.768 685.507 933.932C672.682 935.411 660.781 933.427 651.916 929.125C643.009 924.802 637.424 918.294 636.553 910.806C635.59 902.532 634.818 884.16 637.535 867.543C638.896 859.226 641.106 851.507 644.492 845.731C647.858 839.988 652.255 836.363 658.017 835.693C663.396 835.067 668.685 838.864 673.794 846.509C678.822 854.032 683.212 864.624 686.888 875.984Z" fill="#00FFC5" stroke="black" stroke-width="4"/>
<defs>
<filter id="filter0_d_1272_355" x="110" y="0" width="781.5" height="467.277" filterUnits="userSpaceOnUse" color-interpolation-filters="sRGB">
<feFlood flood-opacity="0" result="BackgroundImageFix"/>
<feColorMatrix in="SourceAlpha" type="matrix" values="0 0 0 0 0 0 0 0 0 0 0 0 0 0 0 0 0 0 127 0" result="hardAlpha"/>
<feOffset dy="4"/>
<feGaussianBlur stdDeviation="2"/>
<feComposite in2="hardAlpha" operator="out"/>
<feColorMatrix type="matrix" values="0 0 0 0 0.770833 0 0 0 0 0.770833 0 0 0 0 0.770833 0 0 0 0.25 0"/>
<feBlend mode="normal" in2="BackgroundImageFix" result="effect1_dropShadow_1272_355"/>
<feBlend mode="normal" in="SourceGraphic" in2="effect1_dropShadow_1272_355" result="shape"/>
</filter>
<filter id="filter1_d_1272_355" x="858" y="540" width="97" height="62.4961" filterUnits="userSpaceOnUse" color-interpolation-filters="sRGB">
<feFlood flood-opacity="0" result="BackgroundImageFix"/>
<feColorMatrix in="SourceAlpha" type="matrix" values="0 0 0 0 0 0 0 0 0 0 0 0 0 0 0 0 0 0 127 0" result="hardAlpha"/>
<feOffset dy="4"/>
<feGaussianBlur stdDeviation="2"/>
<feComposite in2="hardAlpha" operator="out"/>
<feColorMatrix type="matrix" values="0 0 0 0 0.770833 0 0 0 0 0.770833 0 0 0 0 0.770833 0 0 0 0.25 0"/>
<feBlend mode="normal" in2="BackgroundImageFix" result="effect1_dropShadow_1272_355"/>
<feBlend mode="normal" in="SourceGraphic" in2="effect1_dropShadow_1272_355" result="shape"/>
</filter>
<filter id="filter2_d_1272_355" x="783" y="456" width="97" height="62.4961" filterUnits="userSpaceOnUse" color-interpolation-filters="sRGB">
<feFlood flood-opacity="0" result="BackgroundImageFix"/>
<feColorMatrix in="SourceAlpha" type="matrix" values="0 0 0 0 0 0 0 0 0 0 0 0 0 0 0 0 0 0 127 0" result="hardAlpha"/>
<feOffset dy="4"/>
<feGaussianBlur stdDeviation="2"/>
<feComposite in2="hardAlpha" operator="out"/>
<feColorMatrix type="matrix" values="0 0 0 0 0.770833 0 0 0 0 0.770833 0 0 0 0 0.770833 0 0 0 0.25 0"/>
<feBlend mode="normal" in2="BackgroundImageFix" result="effect1_dropShadow_1272_355"/>
<feBlend mode="normal" in="SourceGraphic" in2="effect1_dropShadow_1272_355" result="shape"/>
</filter>
<filter id="filter3_d_1272_355" x="793" y="630" width="97" height="62.4961" filterUnits="userSpaceOnUse" color-interpolation-filters="sRGB">
<feFlood flood-opacity="0" result="BackgroundImageFix"/>
<feColorMatrix in="SourceAlpha" type="matrix" values="0 0 0 0 0 0 0 0 0 0 0 0 0 0 0 0 0 0 127 0" result="hardAlpha"/>
<feOffset dy="4"/>
<feGaussianBlur stdDeviation="2"/>
<feComposite in2="hardAlpha" operator="out"/>
<feColorMatrix type="matrix" values="0 0 0 0 0.770833 0 0 0 0 0.770833 0 0 0 0 0.770833 0 0 0 0.25 0"/>
<feBlend mode="normal" in2="BackgroundImageFix" result="effect1_dropShadow_1272_355"/>
<feBlend mode="normal" in="SourceGraphic" in2="effect1_dropShadow_1272_355" result="shape"/>
</filter>
</defs>
</svg>
