<svg width="118" height="45" viewBox="0 0 118 45" fill="none" xmlns="http://www.w3.org/2000/svg">
<path d="M14.6136 22.2045V24.3182C12.7159 24.3182 11.3864 24.7159 10.625 25.5114C9.875 26.3068 9.5 27.6364 9.5 29.5V34.9545C9.5 36.5227 9.34659 37.8807 9.03977 39.0284C8.74432 40.1761 8.25568 41.125 7.57386 41.875C6.89205 42.625 5.98295 43.1818 4.84659 43.5455C3.71023 43.9091 2.30682 44.0909 0.636364 44.0909V40.75C1.95455 40.75 2.98864 40.5398 3.73864 40.1193C4.5 39.7102 5.03409 39.0795 5.34091 38.2273C5.65909 37.375 5.81818 36.2841 5.81818 34.9545V28.1364C5.81818 27.25 5.93182 26.4432 6.15909 25.7159C6.39773 24.9886 6.82955 24.3636 7.45455 23.8409C8.07955 23.3182 8.96591 22.9148 10.1136 22.6307C11.2727 22.3466 12.7727 22.2045 14.6136 22.2045ZM0.636364 0.454543C2.30682 0.454543 3.71023 0.636362 4.84659 1C5.98295 1.36364 6.89205 1.92045 7.57386 2.67045C8.25568 3.42045 8.74432 4.36932 9.03977 5.51704C9.34659 6.66477 9.5 8.02273 9.5 9.59091V15.0455C9.5 16.9091 9.875 18.2386 10.625 19.0341C11.3864 19.8295 12.7159 20.2273 14.6136 20.2273V22.3409C12.7727 22.3409 11.2727 22.1989 10.1136 21.9148C8.96591 21.6307 8.07955 21.2273 7.45455 20.7045C6.82955 20.1818 6.39773 19.5568 6.15909 18.8295C5.93182 18.1023 5.81818 17.2955 5.81818 16.4091V9.59091C5.81818 8.26136 5.65909 7.17045 5.34091 6.31818C5.03409 5.45455 4.5 4.81818 3.73864 4.40909C2.98864 4 1.95455 3.79545 0.636364 3.79545V0.454543ZM14.6136 20.2273V24.3182H10.5909V20.2273H14.6136ZM43.1861 24.7273L21.2315 35.9091V31.5455L38.0724 23.4318L37.9361 23.7045V23.0227L38.0724 23.2955L21.2315 15.1818V10.8182L43.1861 22V24.7273ZM69.7812 37V40.75H47.9631V37H69.7812ZM74.5753 24.7273V22L96.5298 10.8182V15.1818L79.6889 23.2955L79.8253 23.0227V23.7045L79.6889 23.4318L96.5298 31.5455V35.9091L74.5753 24.7273ZM103.148 22.3409V20.2273C105.045 20.2273 106.369 19.8295 107.119 19.0341C107.881 18.2386 108.261 16.9091 108.261 15.0455V9.59091C108.261 8.02273 108.409 6.66477 108.705 5.51704C109.011 4.36932 109.506 3.42045 110.188 2.67045C110.869 1.92045 111.778 1.36364 112.915 1C114.051 0.636362 115.455 0.454543 117.125 0.454543V3.79545C115.807 3.79545 114.767 4 114.006 4.40909C113.256 4.81818 112.722 5.45455 112.403 6.31818C112.097 7.17045 111.943 8.26136 111.943 9.59091V16.4091C111.943 17.2955 111.824 18.1023 111.585 18.8295C111.358 19.5568 110.932 20.1818 110.307 20.7045C109.682 21.2273 108.79 21.6307 107.631 21.9148C106.483 22.1989 104.989 22.3409 103.148 22.3409ZM117.125 44.0909C115.455 44.0909 114.051 43.9091 112.915 43.5455C111.778 43.1818 110.869 42.625 110.188 41.875C109.506 41.125 109.011 40.1761 108.705 39.0284C108.409 37.8807 108.261 36.5227 108.261 34.9545V29.5C108.261 27.6364 107.881 26.3068 107.119 25.5114C106.369 24.7159 105.045 24.3182 103.148 24.3182V22.2045C104.989 22.2045 106.483 22.3466 107.631 22.6307C108.79 22.9148 109.682 23.3182 110.307 23.8409C110.932 24.3636 111.358 24.9886 111.585 25.7159C111.824 26.4432 111.943 27.25 111.943 28.1364V34.9545C111.943 36.2841 112.097 37.375 112.403 38.2273C112.722 39.0795 113.256 39.7102 114.006 40.1193C114.767 40.5398 115.807 40.75 117.125 40.75V44.0909ZM103.148 24.3182V20.2273H107.17V24.3182H103.148Z" fill="#747272"/>
</svg>
